<svg version="1.1" xmlns="http://www.w3.org/2000/svg" viewBox="0 0 233.86103462774918 151.21006820068942" width="467.72206925549835" height="302.42013640137884"><!-- svg-source:excalidraw --><metadata></metadata><defs><style class="style-fonts">
      </style></defs><rect x="0" y="0" width="233.86103462774918" height="151.21006820068942" fill="#ffffff"></rect><g transform="translate(101.81893657684486 109.927126359883) rotate(0 0 -0.07488665699929697)" stroke="none"><path fill="#6741d9" d="M 2.53,-0.78 Q 2.53,-0.78 2.56,-0.15 2.60,0.47 2.34,1.05 2.08,1.63 1.58,2.02 1.08,2.41 0.46,2.53 -0.16,2.64 -0.76,2.45 -1.37,2.26 -1.82,1.81 -2.26,1.37 -2.45,0.76 -2.64,0.15 -2.53,-0.46 -2.41,-1.08 -2.02,-1.58 -1.63,-2.08 -1.05,-2.34 -0.47,-2.60 0.15,-2.56 0.78,-2.53 1.33,-2.20 1.87,-1.87 2.20,-1.33 L 2.53,-0.78 Z"></path></g><g stroke-linecap="round"><g transform="translate(101.49686593312981 110) rotate(0 20 -50)"><path d="M0 0 C15.6 -39, 31.2 -77.99, 40 -100 M0 0 C15.84 -39.61, 31.69 -79.22, 40 -100" stroke="#1e1e1e" stroke-width="2" fill="none"></path></g><g transform="translate(101.49686593312981 110) rotate(0 20 -50)"><path d="M39.21 -75.01 C39.52 -84.76, 39.83 -94.5, 40 -100 M39.21 -75.01 C39.53 -84.91, 39.84 -94.81, 40 -100" stroke="#1e1e1e" stroke-width="2" fill="none"></path></g><g transform="translate(101.49686593312981 110) rotate(0 20 -50)"><path d="M23.34 -81.36 C29.83 -88.63, 36.33 -95.9, 40 -100 M23.34 -81.36 C29.94 -88.75, 36.54 -96.13, 40 -100" stroke="#1e1e1e" stroke-width="2" fill="none"></path></g></g><mask></mask><g stroke-linecap="round"><g transform="translate(101.49686593312981 110) rotate(0 50 0)"><path d="M0 0 C32.88 0, 65.76 0, 100 0 M0 0 C25.07 0, 50.13 0, 100 0" stroke="#1e1e1e" stroke-width="2" fill="none"></path></g><g transform="translate(101.49686593312981 110) rotate(0 50 0)"><path d="M76.51 8.55 C84.23 5.74, 91.96 2.93, 100 0 M76.51 8.55 C82.4 6.41, 88.28 4.26, 100 0" stroke="#1e1e1e" stroke-width="2" fill="none"></path></g><g transform="translate(101.49686593312981 110) rotate(0 50 0)"><path d="M76.51 -8.55 C84.23 -5.74, 91.96 -2.93, 100 0 M76.51 -8.55 C82.4 -6.41, 88.28 -4.26, 100 0" stroke="#1e1e1e" stroke-width="2" fill="none"></path></g></g><mask></mask><g transform="translate(139.37047953802175 55.84157549450356) rotate(0 -1.3895264416241844 4.643681957718854)" stroke="none"><path fill="#1e1e1e" d="M -1.15,0.92 Q -1.15,0.92 -1.67,0.78 -2.19,0.64 -3.09,1.34 -4.00,2.04 -4.61,3.22 -5.22,4.40 -5.40,5.47 -5.59,6.55 -5.06,7.58 -4.53,8.62 -3.48,8.17 -2.44,7.73 -1.74,6.82 -1.03,5.90 -0.72,4.82 -0.41,3.74 -0.55,2.68 -0.69,1.63 -0.81,1.30 -0.93,0.97 -0.91,0.75 -0.89,0.53 -0.83,0.33 -0.76,0.12 -0.64,-0.06 -0.52,-0.24 -0.36,-0.40 -0.21,-0.55 -0.02,-0.66 0.16,-0.77 0.37,-0.83 0.59,-0.90 0.81,-0.90 1.02,-0.91 1.24,-0.87 1.46,-0.83 1.65,-0.73 1.85,-0.64 2.02,-0.50 2.19,-0.36 2.33,-0.19 2.46,-0.01 2.55,0.18 2.63,0.38 2.67,0.60 2.71,0.82 3.17,1.96 3.63,3.10 3.90,4.17 4.17,5.24 4.40,6.57 4.64,7.90 4.85,7.90 5.06,7.89 5.27,7.95 5.47,8.01 5.64,8.14 5.82,8.26 5.94,8.43 6.07,8.60 6.13,8.81 6.19,9.01 6.19,9.22 6.18,9.43 6.11,9.63 6.04,9.83 5.90,10.00 5.77,10.16 5.59,10.28 5.42,10.40 5.21,10.45 5.00,10.50 4.79,10.48 4.58,10.47 4.38,10.38 4.19,10.30 4.03,10.16 3.87,10.02 3.77,9.83 3.66,9.65 3.62,9.44 3.58,9.23 3.61,9.02 3.63,8.81 3.73,8.62 3.82,8.43 3.97,8.28 4.12,8.13 4.31,8.03 4.50,7.94 4.71,7.91 4.92,7.88 5.13,7.92 5.34,7.96 5.52,8.06 5.71,8.16 5.85,8.32 6.00,8.48 6.08,8.67 6.16,8.87 6.18,9.08 6.20,9.29 6.15,9.50 6.10,9.71 5.99,9.88 5.87,10.06 5.71,10.20 5.54,10.33 5.34,10.41 5.14,10.48 5.14,10.48 5.14,10.48 2.83,9.49 0.51,8.50 0.15,7.38 -0.21,6.25 -0.52,4.94 -0.84,3.64 -0.89,2.30 -0.93,0.97 -0.91,0.75 -0.89,0.54 -0.83,0.33 -0.76,0.12 -0.64,-0.06 -0.52,-0.24 -0.36,-0.40 -0.21,-0.55 -0.02,-0.66 0.16,-0.77 0.37,-0.83 0.59,-0.90 0.80,-0.90 1.02,-0.91 1.24,-0.87 1.46,-0.83 1.65,-0.73 1.85,-0.64 2.02,-0.50 2.19,-0.36 2.33,-0.19 2.46,-0.01 2.55,0.18 2.63,0.38 2.67,0.60 2.71,0.82 2.61,0.96 2.51,1.11 2.58,2.26 2.65,3.40 2.42,4.64 2.19,5.88 1.69,7.06 1.20,8.24 0.52,9.16 -0.15,10.07 -1.08,10.79 -2.01,11.52 -3.13,11.90 -4.25,12.28 -5.38,12.09 -6.51,11.90 -7.34,11.14 -8.16,10.37 -8.79,9.24 -9.41,8.10 -9.56,6.75 -9.71,5.39 -9.49,4.35 -9.26,3.30 -8.77,2.22 -8.27,1.14 -7.66,0.15 -7.05,-0.82 -6.20,-1.55 -5.36,-2.28 -4.33,-2.74 -3.31,-3.19 -2.11,-3.25 -0.92,-3.31 0.09,-2.65 1.10,-2.00 1.13,-1.46 1.15,-0.92 1.24,-0.77 1.33,-0.62 1.39,-0.45 1.44,-0.28 1.46,-0.10 1.47,0.07 1.44,0.24 1.41,0.42 1.34,0.58 1.27,0.75 1.16,0.89 1.05,1.03 0.91,1.14 0.77,1.25 0.61,1.33 0.45,1.40 0.27,1.43 0.10,1.47 -0.07,1.46 -0.25,1.45 -0.42,1.40 -0.59,1.35 -0.74,1.26 -0.89,1.17 -1.02,1.04 -1.15,0.92 -1.15,0.92 L -1.15,0.92 Z"></path></g><g transform="translate(133.40758967684087 47.75122179120626) rotate(0 5.530853939205372 -0.017602259552859323)" stroke="none"><path fill="#1e1e1e" d="M 0.06,-1.41 Q 0.06,-1.41 1.30,-1.66 2.53,-1.91 4.11,-1.93 5.70,-1.95 8.23,-1.73 10.76,-1.51 10.98,-1.52 11.19,-1.53 11.39,-1.48 11.60,-1.42 11.78,-1.31 11.95,-1.19 12.08,-1.02 12.21,-0.85 12.28,-0.65 12.35,-0.45 12.35,-0.24 12.35,-0.03 12.29,0.17 12.22,0.37 12.09,0.54 11.97,0.71 11.79,0.83 11.62,0.95 11.41,1.01 11.21,1.07 11.00,1.06 10.78,1.05 10.59,0.97 10.39,0.89 10.23,0.76 10.06,0.62 9.95,0.44 9.84,0.26 9.79,0.05 9.75,-0.15 9.77,-0.36 9.79,-0.57 9.88,-0.76 9.96,-0.96 10.11,-1.11 10.25,-1.27 10.44,-1.37 10.63,-1.47 10.84,-1.50 11.05,-1.54 11.26,-1.51 11.47,-1.48 11.65,-1.38 11.84,-1.28 11.99,-1.13 12.14,-0.97 12.23,-0.78 12.32,-0.59 12.34,-0.38 12.37,-0.17 12.32,0.03 12.28,0.24 12.17,0.42 12.06,0.60 11.90,0.74 11.74,0.88 11.55,0.96 11.35,1.04 11.35,1.04 11.35,1.04 8.53,1.59 5.71,2.13 4.03,2.14 2.34,2.14 1.14,1.78 -0.06,1.41 -0.23,1.38 -0.40,1.35 -0.55,1.29 -0.71,1.22 -0.85,1.11 -0.98,1.01 -1.09,0.88 -1.20,0.75 -1.27,0.59 -1.34,0.44 -1.38,0.27 -1.41,0.10 -1.40,-0.06 -1.39,-0.23 -1.34,-0.39 -1.30,-0.56 -1.21,-0.71 -1.12,-0.85 -1.00,-0.98 -0.88,-1.10 -0.74,-1.19 -0.59,-1.28 -0.43,-1.33 -0.27,-1.39 -0.10,-1.40 0.06,-1.41 0.06,-1.41 L 0.06,-1.41 Z"></path></g><g transform="translate(141.5501279709606 44.50522259203808) rotate(0 2.4443158265785314 3.400907001990163)" stroke="none"><path d="M0 0 C0.81 0.42, 4.35 1.37, 4.86 2.5 C5.36 3.63, 3.34 6.08, 3.04 6.8" stroke="none" stroke-width="0" fill="#ffffff" fill-rule="evenodd"></path><path fill="#1e1e1e" d="M 0.64,-1.37 Q 0.64,-1.37 1.59,-1.31 2.53,-1.25 3.78,-0.69 5.02,-0.13 6.05,0.90 7.08,1.95 5.64,4.66 4.21,7.37 4.09,7.55 3.96,7.72 3.79,7.85 3.62,7.97 3.42,8.03 3.22,8.10 3.00,8.09 2.79,8.09 2.59,8.02 2.39,7.94 2.22,7.81 2.06,7.68 1.94,7.50 1.83,7.32 1.77,7.12 1.72,6.91 1.74,6.70 1.75,6.49 1.84,6.29 1.92,6.10 2.06,5.94 2.20,5.78 2.39,5.67 2.57,5.57 2.78,5.53 2.99,5.48 3.20,5.51 3.41,5.54 3.60,5.63 3.79,5.73 3.94,5.88 4.09,6.03 4.19,6.22 4.28,6.40 4.31,6.62 4.34,6.83 4.30,7.03 4.27,7.24 4.16,7.43 4.06,7.61 3.90,7.76 3.74,7.90 3.55,7.98 3.35,8.07 3.14,8.09 2.93,8.11 2.72,8.06 2.52,8.01 2.34,7.89 2.16,7.78 2.02,7.61 1.89,7.45 1.82,7.25 1.74,7.05 1.74,6.84 1.73,6.63 1.79,6.42 1.85,6.22 1.85,6.22 1.85,6.22 2.44,5.05 3.02,3.89 1.84,3.32 0.65,2.75 0.00,2.06 -0.64,1.37 -0.80,1.27 -0.95,1.18 -1.08,1.05 -1.21,0.91 -1.30,0.76 -1.39,0.60 -1.44,0.42 -1.49,0.25 -1.50,0.06 -1.51,-0.11 -1.48,-0.29 -1.44,-0.47 -1.36,-0.64 -1.28,-0.80 -1.17,-0.94 -1.05,-1.09 -0.91,-1.20 -0.76,-1.31 -0.59,-1.38 -0.42,-1.45 -0.24,-1.48 -0.06,-1.51 0.11,-1.50 0.29,-1.49 0.47,-1.43 0.64,-1.37 0.64,-1.37 L 0.64,-1.37 Z"></path></g><g transform="translate(141.2798948242962 124.01542086881) rotate(0 5.433543761393594 8.597323665939712)" stroke="none"><path fill="#1e1e1e" d="M 1.38,-0.07 Q 1.38,-0.07 1.74,0.86 2.10,1.80 2.28,2.94 2.45,4.08 2.75,5.49 3.05,6.90 3.14,8.30 3.23,9.69 3.18,10.76 3.14,11.84 3.06,12.92 2.99,14.01 2.99,15.16 2.99,16.31 2.63,17.38 2.28,18.45 2.10,18.62 1.93,18.79 1.71,18.94 1.50,19.09 1.25,19.18 1.01,19.27 0.75,19.30 0.50,19.33 0.24,19.30 -0.01,19.27 -0.25,19.18 -0.50,19.08 -0.71,18.93 -0.92,18.79 -1.10,18.59 -1.27,18.40 -1.39,18.17 -1.51,17.94 -1.57,17.68 -1.63,17.43 -1.63,17.17 -1.63,16.91 -1.57,16.66 -1.51,16.41 -1.39,16.18 -1.26,15.95 -1.09,15.75 -0.92,15.56 -0.75,14.40 -0.59,13.25 -0.35,12.10 -0.11,10.95 0.28,9.87 0.68,8.80 1.36,7.90 2.04,7.01 3.17,6.35 4.30,5.68 5.49,5.39 6.67,5.10 7.78,5.48 8.89,5.85 10.04,6.65 11.18,7.44 11.89,8.45 12.60,9.46 12.92,10.59 13.24,11.72 13.09,12.80 12.94,13.88 12.33,14.91 11.71,15.93 10.83,16.67 9.94,17.41 8.71,18.01 7.49,18.60 4.73,18.22 1.97,17.84 1.76,17.77 1.56,17.71 1.39,17.58 1.22,17.46 1.09,17.28 0.97,17.11 0.91,16.91 0.85,16.70 0.86,16.49 0.86,16.28 0.94,16.08 1.01,15.88 1.15,15.72 1.28,15.55 1.46,15.44 1.64,15.33 1.85,15.28 2.05,15.23 2.26,15.24 2.48,15.26 2.67,15.35 2.87,15.43 3.02,15.58 3.18,15.72 3.28,15.90 3.39,16.09 3.43,16.30 3.46,16.51 3.43,16.72 3.40,16.93 3.31,17.12 3.21,17.31 3.06,17.46 2.91,17.61 2.72,17.70 2.53,17.79 2.32,17.82 2.11,17.85 1.90,17.81 1.69,17.76 1.51,17.66 1.32,17.55 1.18,17.39 1.04,17.24 0.96,17.04 0.87,16.84 0.86,16.63 0.84,16.42 0.90,16.21 0.95,16.01 1.06,15.83 1.18,15.65 1.35,15.52 1.51,15.39 1.71,15.32 1.91,15.24 2.12,15.24 2.34,15.23 2.34,15.23 2.34,15.23 3.99,14.79 5.65,14.34 6.62,13.90 7.59,13.46 8.26,12.61 8.92,11.76 8.46,10.71 7.99,9.66 6.77,9.19 5.54,8.71 4.64,9.42 3.73,10.13 3.36,11.19 2.99,12.26 2.76,13.36 2.54,14.46 2.52,15.60 2.49,16.74 2.21,17.76 1.93,18.79 1.71,18.94 1.50,19.09 1.25,19.18 1.01,19.27 0.75,19.30 0.50,19.33 0.24,19.30 -0.01,19.27 -0.25,19.18 -0.50,19.08 -0.71,18.93 -0.92,18.79 -1.10,18.59 -1.27,18.40 -1.39,18.17 -1.51,17.94 -1.57,17.68 -1.63,17.43 -1.63,17.17 -1.63,16.91 -1.57,16.66 -1.51,16.41 -1.39,16.18 -1.26,15.95 -1.09,15.75 -0.92,15.56 -1.11,16.06 -1.31,16.56 -1.30,15.47 -1.29,14.38 -1.22,13.23 -1.15,12.09 -1.08,10.93 -1.02,9.77 -1.08,8.70 -1.13,7.63 -1.37,6.19 -1.61,4.75 -1.75,3.38 -1.90,2.02 -1.64,1.04 -1.38,0.07 -1.37,-0.09 -1.36,-0.25 -1.31,-0.41 -1.26,-0.57 -1.17,-0.72 -1.08,-0.86 -0.96,-0.98 -0.84,-1.09 -0.70,-1.18 -0.56,-1.26 -0.40,-1.31 -0.24,-1.36 -0.07,-1.37 0.09,-1.38 0.25,-1.35 0.42,-1.32 0.57,-1.25 0.72,-1.18 0.85,-1.07 0.98,-0.97 1.09,-0.84 1.19,-0.70 1.26,-0.55 1.32,-0.40 1.35,-0.23 1.38,-0.07 1.38,-0.07 L 1.38,-0.07 Z"></path></g><g transform="translate(139.54395681966707 118.72746906143311) rotate(0 7.235648614431739 -0.20067254640935062)" stroke="none"><path fill="#1e1e1e" d="M 0.09,-1.39 Q 0.09,-1.39 0.97,-1.52 1.86,-1.64 3.35,-1.61 4.84,-1.58 6.17,-1.62 7.49,-1.67 8.72,-1.82 9.94,-1.96 11.59,-1.53 13.24,-1.09 13.34,-1.28 13.45,-1.46 13.61,-1.60 13.77,-1.74 13.96,-1.82 14.16,-1.91 14.37,-1.92 14.58,-1.94 14.79,-1.88 15.00,-1.83 15.17,-1.71 15.35,-1.60 15.48,-1.43 15.61,-1.27 15.69,-1.07 15.76,-0.87 15.76,-0.65 15.77,-0.44 15.70,-0.24 15.64,-0.04 15.51,0.13 15.39,0.30 15.21,0.42 15.04,0.54 14.84,0.60 14.63,0.66 14.42,0.66 14.21,0.65 14.01,0.57 13.81,0.50 13.65,0.36 13.48,0.23 13.37,0.05 13.26,-0.12 13.21,-0.33 13.16,-0.53 13.18,-0.74 13.19,-0.96 13.28,-1.15 13.37,-1.35 13.51,-1.50 13.65,-1.66 13.84,-1.76 14.02,-1.87 14.23,-1.90 14.44,-1.94 14.65,-1.91 14.86,-1.88 15.05,-1.78 15.24,-1.69 15.39,-1.54 15.54,-1.39 15.63,-1.19 15.73,-1.00 15.75,-0.79 15.78,-0.58 15.74,-0.37 15.70,-0.17 15.70,-0.17 15.70,-0.17 12.70,0.79 9.71,1.76 8.25,1.91 6.79,2.05 5.31,2.03 3.83,2.01 2.73,1.94 1.62,1.88 0.76,1.63 -0.09,1.39 -0.26,1.36 -0.42,1.33 -0.58,1.26 -0.73,1.19 -0.86,1.09 -0.99,0.98 -1.10,0.85 -1.20,0.71 -1.27,0.56 -1.34,0.40 -1.37,0.24 -1.40,0.07 -1.38,-0.09 -1.37,-0.26 -1.32,-0.42 -1.27,-0.58 -1.18,-0.72 -1.09,-0.87 -0.97,-0.99 -0.85,-1.10 -0.71,-1.19 -0.56,-1.28 -0.40,-1.33 -0.24,-1.38 -0.07,-1.39 0.09,-1.39 0.09,-1.39 L 0.09,-1.39 Z"></path></g><g transform="translate(150.7613587200758 115.41810285912379) rotate(0 2.276952954497574 3.1086936558999696)" stroke="none"><path d="M0 0 C0.78 0.51, 4.52 2.03, 4.67 3.07 C4.82 4.11, 1.53 5.69, 0.9 6.22" stroke="none" stroke-width="0" fill="#ffffff" fill-rule="evenodd"></path><path fill="#1e1e1e" d="M 0.84,-1.31 Q 0.84,-1.31 1.76,-1.25 2.69,-1.19 3.68,-0.61 4.67,-0.03 5.58,0.67 6.49,1.37 6.20,3.05 5.91,4.73 3.77,6.02 1.64,7.30 1.45,7.39 1.25,7.48 1.04,7.50 0.83,7.52 0.62,7.48 0.42,7.43 0.23,7.32 0.05,7.22 -0.08,7.05 -0.22,6.89 -0.29,6.70 -0.37,6.50 -0.39,6.29 -0.40,6.07 -0.34,5.87 -0.29,5.66 -0.17,5.49 -0.05,5.31 0.11,5.18 0.28,5.05 0.48,4.99 0.68,4.92 0.89,4.92 1.11,4.92 1.31,4.98 1.51,5.05 1.68,5.18 1.85,5.31 1.97,5.48 2.09,5.66 2.15,5.86 2.20,6.07 2.19,6.28 2.18,6.49 2.10,6.69 2.03,6.89 1.89,7.05 1.75,7.21 1.57,7.32 1.39,7.43 1.18,7.48 0.97,7.52 0.76,7.50 0.55,7.48 0.36,7.39 0.16,7.30 0.01,7.16 -0.14,7.01 -0.24,6.82 -0.34,6.64 -0.37,6.43 -0.41,6.22 -0.37,6.01 -0.34,5.80 -0.24,5.61 -0.14,5.42 0.00,5.27 0.16,5.13 0.16,5.13 0.16,5.13 1.79,3.32 3.42,1.51 2.84,2.88 2.27,4.25 1.15,3.60 0.04,2.94 -0.39,2.13 -0.84,1.31 -0.98,1.19 -1.13,1.07 -1.24,0.92 -1.35,0.77 -1.43,0.60 -1.50,0.42 -1.53,0.24 -1.56,0.05 -1.54,-0.13 -1.53,-0.31 -1.47,-0.49 -1.41,-0.67 -1.30,-0.83 -1.20,-0.99 -1.07,-1.12 -0.93,-1.25 -0.77,-1.34 -0.60,-1.44 -0.42,-1.49 -0.24,-1.54 -0.05,-1.55 0.13,-1.55 0.31,-1.52 0.50,-1.48 0.67,-1.40 0.84,-1.31 0.84,-1.31 L 0.84,-1.31 Z"></path></g><g stroke-linecap="round"><g transform="translate(141.4968659331298 10) rotate(0 -40 0)"><path d="M0 0 C-19.47 0, -38.94 0, -80 0 M0 0 C-17.81 0, -35.62 0, -80 0" stroke="#f08c00" stroke-width="2" fill="none"></path></g><g transform="translate(141.4968659331298 10) rotate(0 -40 0)"><path d="M-56.51 -8.55 C-62.23 -6.47, -67.94 -4.39, -80 0 M-56.51 -8.55 C-61.74 -6.65, -66.97 -4.74, -80 0" stroke="#f08c00" stroke-width="2" fill="none"></path></g><g transform="translate(141.4968659331298 10) rotate(0 -40 0)"><path d="M-56.51 8.55 C-62.23 6.47, -67.94 4.39, -80 0 M-56.51 8.55 C-61.74 6.65, -66.97 4.74, -80 0" stroke="#f08c00" stroke-width="2" fill="none"></path></g></g><mask></mask><g stroke-linecap="round"><g transform="translate(101.49686593312981 110) rotate(0 -20 -50)"><path d="M0 0 C-13.19 -32.98, -26.38 -65.95, -40 -100 M0 0 C-8.21 -20.53, -16.43 -41.07, -40 -100" stroke="#6741d9" stroke-width="2" fill="none"></path></g><g transform="translate(101.49686593312981 110) rotate(0 -20 -50)"><path d="M-23.34 -81.36 C-28.83 -87.51, -34.33 -93.66, -40 -100 M-23.34 -81.36 C-26.76 -85.19, -30.18 -89.02, -40 -100" stroke="#6741d9" stroke-width="2" fill="none"></path></g><g transform="translate(101.49686593312981 110) rotate(0 -20 -50)"><path d="M-39.21 -75.01 C-39.47 -83.25, -39.73 -91.49, -40 -100 M-39.21 -75.01 C-39.38 -80.14, -39.54 -85.27, -40 -100" stroke="#6741d9" stroke-width="2" fill="none"></path></g></g><mask></mask><g transform="translate(18.389362701676873 69.09982496835346) rotate(0 -2.211015108178799 3.9432776711150836)" stroke="none"><path fill="#6741d9" d="M -0.93,1.04 Q -0.93,1.04 -1.45,0.87 -1.97,0.71 -3.09,0.77 -4.21,0.84 -5.02,1.64 -5.82,2.45 -6.20,3.53 -6.57,4.61 -6.49,5.71 -6.40,6.81 -5.25,6.91 -4.10,7.00 -3.38,6.02 -2.66,5.04 -2.28,3.95 -1.89,2.86 -1.77,1.71 -1.65,0.56 -1.67,0.22 -1.68,-0.11 -1.65,-0.30 -1.63,-0.49 -1.56,-0.68 -1.49,-0.86 -1.38,-1.02 -1.27,-1.17 -1.12,-1.30 -0.98,-1.43 -0.81,-1.52 -0.63,-1.61 -0.45,-1.66 -0.26,-1.70 -0.06,-1.70 0.12,-1.70 0.31,-1.65 0.50,-1.61 0.67,-1.52 0.84,-1.42 0.98,-1.30 1.13,-1.17 1.24,-1.01 1.35,-0.85 1.42,-0.66 1.48,-0.48 1.51,-0.29 1.53,-0.10 1.78,0.94 2.03,2.00 2.12,3.13 2.21,4.27 2.43,5.46 2.65,6.64 3.04,6.97 3.43,7.30 3.64,7.24 3.84,7.19 4.06,7.21 4.27,7.22 4.46,7.30 4.66,7.39 4.82,7.53 4.98,7.67 5.09,7.85 5.19,8.04 5.23,8.24 5.27,8.45 5.25,8.66 5.22,8.87 5.13,9.06 5.04,9.26 4.89,9.41 4.74,9.56 4.55,9.65 4.36,9.75 4.15,9.78 3.94,9.81 3.73,9.77 3.52,9.73 3.33,9.63 3.15,9.53 3.00,9.37 2.86,9.21 2.78,9.02 2.69,8.83 2.67,8.61 2.65,8.40 2.70,8.20 2.75,7.99 2.86,7.81 2.98,7.63 3.14,7.50 3.31,7.36 3.51,7.29 3.70,7.21 3.92,7.20 4.13,7.20 4.33,7.26 4.54,7.32 4.71,7.44 4.88,7.56 5.01,7.73 5.13,7.91 5.20,8.11 5.26,8.31 5.26,8.52 5.25,8.74 5.18,8.94 5.11,9.14 4.98,9.30 4.85,9.47 4.67,9.58 4.49,9.70 4.49,9.70 4.49,9.70 1.61,8.53 -1.27,7.37 -1.46,6.19 -1.66,5.01 -1.67,3.68 -1.68,2.34 -1.68,1.11 -1.68,-0.11 -1.65,-0.30 -1.63,-0.49 -1.56,-0.68 -1.49,-0.86 -1.38,-1.02 -1.27,-1.17 -1.12,-1.30 -0.98,-1.43 -0.81,-1.52 -0.63,-1.61 -0.45,-1.66 -0.26,-1.70 -0.06,-1.70 0.12,-1.70 0.31,-1.65 0.50,-1.61 0.67,-1.52 0.84,-1.42 0.98,-1.30 1.13,-1.17 1.24,-1.01 1.35,-0.85 1.42,-0.66 1.48,-0.48 1.51,-0.29 1.53,-0.10 1.51,0.26 1.49,0.63 1.39,1.81 1.28,2.99 0.98,4.14 0.68,5.29 0.22,6.30 -0.22,7.31 -0.87,8.17 -1.52,9.02 -2.38,9.69 -3.23,10.35 -4.43,10.70 -5.63,11.05 -6.66,10.78 -7.69,10.50 -8.47,9.69 -9.25,8.87 -9.64,7.83 -10.04,6.79 -9.99,5.39 -9.94,3.99 -9.57,2.78 -9.20,1.57 -8.56,0.59 -7.92,-0.38 -7.03,-1.20 -6.14,-2.01 -5.05,-2.60 -3.97,-3.18 -2.87,-3.22 -1.77,-3.25 -0.63,-2.65 0.49,-2.04 0.71,-1.54 0.93,-1.04 1.04,-0.91 1.16,-0.78 1.23,-0.63 1.31,-0.48 1.35,-0.32 1.39,-0.15 1.39,0.01 1.39,0.18 1.34,0.34 1.30,0.50 1.22,0.65 1.14,0.80 1.03,0.93 0.92,1.05 0.78,1.15 0.64,1.24 0.48,1.30 0.32,1.36 0.15,1.38 -0.01,1.40 -0.17,1.38 -0.34,1.35 -0.50,1.29 -0.66,1.23 -0.80,1.13 -0.93,1.04 -0.93,1.04 L -0.93,1.04 Z"></path></g><g transform="translate(10.471762627987118 60.76084336007534) rotate(0 6.2749715840827776 0.20050634428343983)" stroke="none"><path fill="#6741d9" d="M 0.08,-1.35 Q 0.08,-1.35 1.04,-1.48 2.00,-1.61 3.29,-1.58 4.59,-1.55 5.68,-1.53 6.77,-1.51 8.14,-1.39 9.51,-1.27 10.85,-1.23 12.19,-1.19 12.40,-1.22 12.61,-1.24 12.82,-1.19 13.03,-1.15 13.21,-1.04 13.39,-0.93 13.53,-0.77 13.67,-0.61 13.75,-0.41 13.83,-0.21 13.84,-0.00 13.85,0.20 13.79,0.41 13.74,0.61 13.62,0.79 13.50,0.96 13.33,1.09 13.16,1.22 12.96,1.29 12.76,1.36 12.55,1.36 12.33,1.36 12.13,1.29 11.93,1.22 11.76,1.09 11.59,0.97 11.47,0.79 11.35,0.61 11.30,0.41 11.24,0.20 11.25,-0.00 11.26,-0.21 11.34,-0.41 11.42,-0.60 11.56,-0.77 11.69,-0.93 11.88,-1.04 12.06,-1.15 12.27,-1.19 12.47,-1.24 12.68,-1.22 12.90,-1.19 13.09,-1.10 13.28,-1.02 13.44,-0.87 13.59,-0.72 13.69,-0.54 13.79,-0.35 13.82,-0.14 13.86,0.06 13.82,0.27 13.79,0.48 13.69,0.67 13.59,0.86 13.44,1.00 13.28,1.15 13.09,1.24 12.90,1.33 12.90,1.33 12.90,1.33 11.09,1.66 9.29,1.99 8.02,1.96 6.76,1.93 5.64,1.94 4.52,1.95 3.15,1.90 1.77,1.85 0.84,1.60 -0.08,1.35 -0.24,1.32 -0.41,1.29 -0.55,1.22 -0.70,1.15 -0.83,1.05 -0.96,0.95 -1.06,0.82 -1.16,0.69 -1.23,0.54 -1.29,0.39 -1.32,0.23 -1.35,0.07 -1.34,-0.08 -1.33,-0.25 -1.28,-0.40 -1.23,-0.56 -1.15,-0.70 -1.06,-0.84 -0.94,-0.95 -0.83,-1.07 -0.69,-1.15 -0.55,-1.24 -0.39,-1.28 -0.23,-1.33 -0.07,-1.34 0.08,-1.35 0.08,-1.35 L 0.08,-1.35 Z"></path></g><g transform="translate(21.890615351412634 57.79953032740923) rotate(0 1.7619919096714511 3.688788928946451)" stroke="none"><path d="M0 0 C0.59 0.36, 3.38 0.9, 3.56 2.13 C3.74 3.36, 1.48 6.5, 1.06 7.38" stroke="none" stroke-width="0" fill="#ffffff" fill-rule="evenodd"></path><path fill="#6741d9" d="M 0.64,-1.24 Q 0.64,-1.24 1.44,-1.06 2.23,-0.89 3.42,-0.25 4.62,0.39 5.11,1.60 5.59,2.81 5.10,4.03 4.60,5.24 3.42,6.60 2.24,7.95 2.11,8.12 1.99,8.30 1.82,8.42 1.65,8.55 1.44,8.61 1.24,8.67 1.03,8.67 0.82,8.66 0.62,8.59 0.42,8.52 0.25,8.39 0.08,8.25 -0.02,8.08 -0.14,7.90 -0.19,7.69 -0.24,7.49 -0.22,7.27 -0.21,7.06 -0.13,6.87 -0.04,6.67 0.09,6.51 0.23,6.35 0.41,6.25 0.60,6.14 0.81,6.10 1.02,6.06 1.23,6.09 1.44,6.12 1.63,6.21 1.82,6.30 1.97,6.45 2.12,6.60 2.22,6.79 2.31,6.98 2.34,7.19 2.37,7.40 2.33,7.61 2.29,7.82 2.19,8.01 2.09,8.19 1.93,8.33 1.77,8.48 1.58,8.56 1.38,8.65 1.17,8.66 0.96,8.68 0.75,8.63 0.54,8.58 0.36,8.47 0.19,8.35 0.05,8.19 -0.07,8.02 -0.15,7.82 -0.22,7.63 -0.23,7.41 -0.23,7.20 -0.17,7.00 -0.11,6.79 -0.11,6.79 -0.11,6.79 0.21,4.57 0.54,2.34 -0.05,1.79 -0.64,1.24 -0.78,1.14 -0.92,1.05 -1.03,0.92 -1.15,0.79 -1.23,0.65 -1.31,0.50 -1.35,0.33 -1.39,0.17 -1.39,0.00 -1.39,-0.16 -1.35,-0.32 -1.31,-0.49 -1.23,-0.64 -1.15,-0.79 -1.04,-0.92 -0.93,-1.04 -0.79,-1.14 -0.65,-1.24 -0.49,-1.30 -0.33,-1.36 -0.17,-1.38 -0.00,-1.40 0.16,-1.38 0.33,-1.36 0.49,-1.30 0.64,-1.24 0.64,-1.24 L 0.64,-1.24 Z"></path></g><g transform="translate(28.540721442961512 70.68844628045736) rotate(0 5.629854878271544 -0.3881582617118511)" stroke="none"><path fill="#6741d9" d="M 0,-1.50 Q 0,-1.50 0.81,-1.86 1.63,-2.22 3.23,-2.29 4.84,-2.36 6.35,-2.50 7.86,-2.64 9.19,-2.25 10.53,-1.86 10.72,-1.95 10.91,-2.04 11.12,-2.06 11.34,-2.08 11.54,-2.03 11.75,-1.99 11.93,-1.88 12.11,-1.77 12.25,-1.60 12.39,-1.44 12.46,-1.24 12.54,-1.04 12.55,-0.83 12.56,-0.62 12.50,-0.41 12.44,-0.21 12.32,-0.04 12.20,0.13 12.03,0.26 11.86,0.38 11.66,0.45 11.46,0.52 11.24,0.51 11.03,0.51 10.83,0.44 10.63,0.37 10.46,0.24 10.29,0.11 10.18,-0.05 10.06,-0.23 10.00,-0.43 9.95,-0.64 9.96,-0.85 9.97,-1.06 10.05,-1.26 10.13,-1.46 10.27,-1.62 10.41,-1.78 10.60,-1.89 10.78,-2.00 10.99,-2.04 11.19,-2.08 11.41,-2.06 11.62,-2.03 11.81,-1.94 12.00,-1.85 12.15,-1.70 12.31,-1.56 12.40,-1.37 12.50,-1.18 12.54,-0.97 12.57,-0.76 12.53,-0.55 12.50,-0.34 12.39,-0.15 12.29,0.02 12.14,0.17 11.98,0.31 11.98,0.31 11.98,0.31 9.10,1.16 6.23,2.00 5.10,2.09 3.97,2.17 2.80,2.19 1.63,2.22 0.81,1.86 0,1.50 -0.18,1.48 -0.36,1.46 -0.53,1.39 -0.69,1.33 -0.84,1.23 -0.99,1.12 -1.11,0.99 -1.23,0.85 -1.32,0.69 -1.40,0.53 -1.45,0.35 -1.49,0.18 -1.49,-0.00 -1.49,-0.18 -1.45,-0.35 -1.40,-0.53 -1.32,-0.69 -1.23,-0.85 -1.11,-0.99 -0.99,-1.12 -0.84,-1.23 -0.69,-1.33 -0.52,-1.39 -0.36,-1.46 -0.18,-1.48 0.00,-1.50 0.00,-1.50 L 0,-1.50 Z"></path></g><g transform="translate(33.18443012224088 65.14626169078747) rotate(0 0.633746991069529 5.827517761385025)" stroke="none"><path fill="#6741d9" d="M 1.37,-0.29 Q 1.37,-0.29 1.87,0.46 2.37,1.23 2.59,2.29 2.81,3.35 2.97,4.54 3.13,5.73 3.18,6.93 3.22,8.13 2.90,9.89 2.58,11.65 2.54,11.86 2.51,12.07 2.41,12.26 2.31,12.44 2.15,12.59 2.00,12.74 1.81,12.83 1.61,12.92 1.40,12.94 1.19,12.96 0.98,12.92 0.78,12.87 0.59,12.76 0.41,12.65 0.27,12.49 0.14,12.33 0.06,12.13 -0.01,11.93 -0.02,11.72 -0.03,11.51 0.01,11.30 0.07,11.10 0.19,10.92 0.31,10.75 0.48,10.62 0.65,10.49 0.85,10.42 1.05,10.35 1.26,10.35 1.47,10.35 1.68,10.42 1.88,10.49 2.05,10.62 2.22,10.75 2.34,10.92 2.45,11.10 2.51,11.30 2.57,11.51 2.56,11.72 2.55,11.93 2.47,12.13 2.39,12.33 2.25,12.49 2.11,12.65 1.93,12.76 1.75,12.87 1.54,12.92 1.33,12.96 1.12,12.94 0.91,12.92 0.72,12.83 0.53,12.74 0.37,12.59 0.22,12.44 0.12,12.26 0.02,12.07 -0.01,11.86 -0.04,11.65 -0.04,11.65 -0.04,11.65 -0.58,9.40 -1.13,7.16 -1.17,5.96 -1.21,4.77 -1.43,3.44 -1.64,2.11 -1.50,1.20 -1.37,0.29 -1.38,0.13 -1.40,-0.03 -1.37,-0.20 -1.35,-0.37 -1.28,-0.52 -1.22,-0.68 -1.12,-0.82 -1.02,-0.95 -0.89,-1.06 -0.76,-1.17 -0.61,-1.24 -0.46,-1.32 -0.29,-1.36 -0.13,-1.39 0.03,-1.39 0.20,-1.38 0.36,-1.34 0.53,-1.29 0.67,-1.21 0.82,-1.13 0.95,-1.01 1.07,-0.90 1.16,-0.76 1.25,-0.61 1.31,-0.45 1.37,-0.29 1.37,-0.29 L 1.37,-0.29 Z"></path></g><g transform="translate(48.269361254684554 55.537415516911096) rotate(0 -0.9889875951930662 10.292623213754723)" stroke="none"><path fill="#6741d9" d="M 0.99,0.86 Q 0.99,0.86 0.66,1.32 0.32,1.79 -0.15,2.83 -0.62,3.88 -0.87,5.04 -1.12,6.19 -1.29,7.35 -1.47,8.50 -1.39,9.69 -1.31,10.87 -1.06,11.94 -0.80,13.02 -0.37,14.22 0.05,15.43 1.11,17.60 2.16,19.77 2.26,19.96 2.37,20.15 2.40,20.36 2.44,20.56 2.41,20.77 2.38,20.98 2.28,21.17 2.18,21.36 2.03,21.51 1.88,21.66 1.68,21.75 1.49,21.84 1.28,21.87 1.07,21.89 0.86,21.85 0.65,21.81 0.47,21.70 0.29,21.59 0.15,21.43 0.01,21.27 -0.06,21.07 -0.14,20.88 -0.16,20.67 -0.17,20.45 -0.12,20.25 -0.06,20.04 0.04,19.87 0.16,19.69 0.33,19.56 0.50,19.43 0.70,19.36 0.90,19.29 1.11,19.28 1.32,19.28 1.53,19.35 1.73,19.41 1.90,19.54 2.07,19.67 2.19,19.84 2.31,20.01 2.37,20.22 2.43,20.42 2.42,20.64 2.41,20.85 2.34,21.05 2.26,21.24 2.12,21.41 1.99,21.57 1.81,21.68 1.63,21.79 1.42,21.84 1.21,21.89 1.00,21.87 0.79,21.85 0.60,21.76 0.40,21.68 0.25,21.53 0.09,21.39 0.09,21.39 0.09,21.39 -1.19,19.45 -2.48,17.51 -2.87,16.45 -3.27,15.39 -3.56,14.36 -3.85,13.34 -4.09,12.23 -4.32,11.12 -4.45,9.99 -4.57,8.87 -4.43,7.66 -4.29,6.45 -4.07,5.38 -3.84,4.31 -3.51,3.19 -3.19,2.08 -2.50,1.00 -1.81,-0.06 -1.40,-0.46 -0.99,-0.86 -0.88,-0.97 -0.76,-1.08 -0.62,-1.15 -0.48,-1.23 -0.32,-1.27 -0.17,-1.31 -0.01,-1.31 0.14,-1.31 0.30,-1.27 0.45,-1.24 0.60,-1.16 0.74,-1.09 0.86,-0.99 0.98,-0.88 1.07,-0.75 1.16,-0.62 1.22,-0.47 1.28,-0.32 1.30,-0.17 1.32,-0.01 1.30,0.14 1.28,0.30 1.23,0.45 1.17,0.60 1.08,0.73 0.99,0.86 0.99,0.86 L 0.99,0.86 Z"></path></g><g transform="translate(51.87861173968122 66.98165908894589) rotate(0 2.2536443110675464 -0.3316049784552888)" stroke="none"><path fill="#6741d9" d="M -0.21,-1.40 Q -0.21,-1.40 2.05,-1.68 4.31,-1.96 4.52,-1.95 4.73,-1.95 4.93,-1.88 5.13,-1.81 5.30,-1.68 5.47,-1.55 5.59,-1.37 5.70,-1.19 5.76,-0.99 5.81,-0.78 5.80,-0.57 5.78,-0.36 5.70,-0.16 5.62,0.03 5.48,0.19 5.34,0.35 5.15,0.45 4.97,0.56 4.76,0.60 4.55,0.64 4.34,0.62 4.13,0.59 3.94,0.50 3.75,0.41 3.60,0.26 3.45,0.11 3.35,-0.07 3.25,-0.26 3.22,-0.47 3.19,-0.68 3.23,-0.89 3.26,-1.10 3.37,-1.28 3.47,-1.47 3.63,-1.61 3.78,-1.76 3.98,-1.84 4.17,-1.93 4.38,-1.95 4.59,-1.97 4.80,-1.92 5.01,-1.87 5.19,-1.76 5.37,-1.65 5.50,-1.48 5.64,-1.32 5.71,-1.12 5.79,-0.92 5.80,-0.71 5.81,-0.50 5.75,-0.29 5.69,-0.09 5.56,0.08 5.44,0.25 5.27,0.38 5.10,0.50 4.90,0.57 4.70,0.63 4.70,0.63 4.70,0.63 2.45,1.01 0.21,1.40 0.04,1.40 -0.12,1.41 -0.29,1.37 -0.46,1.33 -0.61,1.26 -0.76,1.19 -0.90,1.08 -1.03,0.97 -1.13,0.83 -1.23,0.69 -1.29,0.53 -1.36,0.38 -1.39,0.21 -1.41,0.04 -1.40,-0.12 -1.38,-0.29 -1.33,-0.45 -1.27,-0.62 -1.18,-0.76 -1.08,-0.90 -0.96,-1.02 -0.84,-1.14 -0.69,-1.22 -0.54,-1.30 -0.37,-1.35 -0.21,-1.40 -0.21,-1.40 L -0.21,-1.40 Z"></path></g><g transform="translate(59.682531185706466 58.76092994785813) rotate(0 0.6962742272398827 7.051114650179443)" stroke="none"><path fill="#6741d9" d="M 1.31,-0.43 Q 1.31,-0.43 1.75,0.28 2.19,1.00 2.46,2.07 2.73,3.14 2.87,4.28 3.00,5.41 2.97,6.64 2.93,7.86 2.92,8.98 2.91,10.10 2.80,12.03 2.69,13.97 2.68,14.18 2.67,14.39 2.59,14.59 2.51,14.79 2.37,14.95 2.23,15.11 2.04,15.21 1.86,15.32 1.65,15.37 1.45,15.41 1.23,15.38 1.02,15.36 0.83,15.27 0.64,15.18 0.49,15.03 0.33,14.88 0.24,14.69 0.14,14.50 0.11,14.29 0.07,14.08 0.11,13.87 0.15,13.67 0.25,13.48 0.35,13.29 0.51,13.15 0.66,13.00 0.86,12.92 1.05,12.83 1.26,12.81 1.47,12.79 1.68,12.83 1.89,12.88 2.07,12.99 2.25,13.11 2.38,13.27 2.52,13.43 2.60,13.63 2.67,13.83 2.68,14.04 2.69,14.25 2.63,14.46 2.57,14.66 2.45,14.84 2.33,15.01 2.16,15.14 1.99,15.26 1.79,15.33 1.59,15.40 1.37,15.39 1.16,15.39 0.96,15.32 0.76,15.25 0.59,15.12 0.42,14.99 0.31,14.81 0.19,14.64 0.14,14.43 0.08,14.23 0.08,14.23 0.08,14.23 -0.31,11.63 -0.71,9.03 -0.66,7.88 -0.61,6.74 -0.66,5.59 -0.71,4.44 -0.93,3.27 -1.16,2.11 -1.24,1.27 -1.31,0.43 -1.35,0.26 -1.38,0.10 -1.37,-0.06 -1.36,-0.22 -1.32,-0.38 -1.27,-0.54 -1.18,-0.69 -1.10,-0.83 -0.98,-0.95 -0.87,-1.07 -0.73,-1.16 -0.58,-1.25 -0.43,-1.30 -0.27,-1.36 -0.10,-1.37 0.06,-1.38 0.22,-1.35 0.39,-1.33 0.54,-1.26 0.69,-1.19 0.83,-1.09 0.96,-0.99 1.07,-0.86 1.17,-0.73 1.24,-0.58 1.31,-0.43 1.31,-0.43 L 1.31,-0.43 Z"></path></g><g transform="translate(63.61575865674058 65.02287571272791) rotate(0 1.1310863148028147 5.241424040761103)" stroke="none"><path fill="#6741d9" d="M -0.09,-1.33 Q -0.09,-1.33 0.71,-1.43 1.52,-1.53 2.86,-1.41 4.20,-1.29 5.30,-0.62 6.39,0.04 7.07,1.22 7.75,2.41 7.77,3.70 7.79,4.98 7.53,6.07 7.28,7.16 6.56,8.30 5.85,9.43 4.73,10.13 3.61,10.82 2.61,11.22 1.61,11.63 0.51,12.11 -0.59,12.59 -2.91,10.97 -5.23,9.36 -5.30,9.15 -5.37,8.95 -5.37,8.74 -5.37,8.53 -5.30,8.33 -5.23,8.13 -5.11,7.96 -4.98,7.79 -4.80,7.67 -4.63,7.55 -4.42,7.49 -4.22,7.43 -4.01,7.44 -3.79,7.45 -3.60,7.53 -3.40,7.61 -3.24,7.74 -3.07,7.88 -2.96,8.06 -2.85,8.24 -2.81,8.45 -2.76,8.66 -2.78,8.87 -2.80,9.08 -2.89,9.27 -2.98,9.47 -3.13,9.62 -3.27,9.78 -3.46,9.88 -3.65,9.98 -3.85,10.01 -4.06,10.05 -4.27,10.01 -4.48,9.98 -4.67,9.88 -4.86,9.78 -5.01,9.63 -5.15,9.48 -5.24,9.28 -5.33,9.09 -5.36,8.88 -5.38,8.67 -5.34,8.46 -5.29,8.25 -5.18,8.07 -5.08,7.89 -4.91,7.75 -4.75,7.61 -4.56,7.53 -4.36,7.45 -4.15,7.44 -3.93,7.43 -3.73,7.48 -3.52,7.54 -3.35,7.66 -3.17,7.78 -3.04,7.95 -2.91,8.11 -2.91,8.11 -2.91,8.11 -2.33,8.46 -1.74,8.80 -0.60,8.67 0.53,8.54 1.72,8.15 2.92,7.75 3.58,6.92 4.24,6.09 4.49,4.95 4.74,3.81 4.33,2.78 3.92,1.74 2.83,1.51 1.73,1.29 0.91,1.31 0.09,1.33 -0.06,1.33 -0.22,1.32 -0.37,1.27 -0.53,1.23 -0.67,1.15 -0.81,1.06 -0.92,0.95 -1.04,0.84 -1.13,0.70 -1.21,0.56 -1.26,0.41 -1.31,0.26 -1.32,0.09 -1.34,-0.06 -1.31,-0.22 -1.28,-0.38 -1.22,-0.53 -1.15,-0.67 -1.06,-0.80 -0.96,-0.93 -0.83,-1.03 -0.71,-1.13 -0.56,-1.20 -0.41,-1.27 -0.25,-1.30 -0.09,-1.33 -0.09,-1.33 L -0.09,-1.33 Z"></path></g><g transform="translate(57.187322768242666 54.056759000577586) rotate(0 5.985095482394172 -0.5423948642223877)" stroke="none"><path fill="#6741d9" d="M -0.14,-1.34 Q -0.14,-1.34 0.59,-1.51 1.34,-1.67 2.54,-1.77 3.73,-1.87 4.87,-1.95 6.02,-2.04 7.14,-2.12 8.26,-2.21 10.09,-2.30 11.91,-2.39 12.12,-2.37 12.33,-2.34 12.53,-2.25 12.72,-2.16 12.87,-2.01 13.02,-1.86 13.12,-1.67 13.22,-1.48 13.25,-1.27 13.28,-1.06 13.24,-0.85 13.20,-0.64 13.10,-0.46 13.00,-0.27 12.84,-0.13 12.69,0.01 12.49,0.09 12.30,0.18 12.09,0.20 11.88,0.22 11.67,0.17 11.46,0.12 11.28,0.01 11.10,-0.09 10.97,-0.26 10.83,-0.42 10.75,-0.62 10.68,-0.82 10.67,-1.03 10.66,-1.24 10.72,-1.44 10.78,-1.65 10.90,-1.82 11.02,-2.00 11.20,-2.12 11.37,-2.25 11.57,-2.31 11.77,-2.38 11.98,-2.38 12.20,-2.37 12.40,-2.30 12.60,-2.23 12.76,-2.10 12.93,-1.97 13.05,-1.79 13.17,-1.61 13.22,-1.41 13.27,-1.20 13.26,-0.99 13.24,-0.78 13.16,-0.58 13.08,-0.39 12.94,-0.23 12.80,-0.07 12.62,0.03 12.43,0.14 12.23,0.18 12.02,0.22 12.02,0.22 12.02,0.22 9.49,0.62 6.95,1.02 5.52,1.09 4.08,1.17 2.88,1.25 1.68,1.34 0.91,1.34 0.14,1.34 -0.01,1.34 -0.17,1.34 -0.33,1.30 -0.49,1.26 -0.63,1.18 -0.78,1.10 -0.90,0.99 -1.02,0.89 -1.11,0.75 -1.20,0.61 -1.26,0.46 -1.32,0.31 -1.33,0.14 -1.35,-0.01 -1.33,-0.17 -1.31,-0.33 -1.25,-0.49 -1.19,-0.64 -1.10,-0.77 -1.00,-0.91 -0.88,-1.01 -0.75,-1.12 -0.61,-1.20 -0.46,-1.27 -0.30,-1.31 -0.14,-1.34 -0.14,-1.34 L -0.14,-1.34 Z"></path></g><g transform="translate(66.32695448485356 51.19826899294003) rotate(0 1.6767335038930469 2.1078782079875964)" stroke="none"><path d="M0 0 C0.55 0.19, 3.14 0.45, 3.3 1.16 C3.47 1.86, 1.37 3.71, 0.99 4.22" stroke="none" stroke-width="0" fill="#ffffff" fill-rule="evenodd"></path><path fill="#6741d9" d="M 0.44,-1.32 Q 0.44,-1.32 1.25,-1.36 2.05,-1.39 3.48,-0.41 4.91,0.57 4.62,1.88 4.34,3.19 3.23,4.03 2.12,4.87 1.99,5.03 1.85,5.20 1.67,5.31 1.49,5.42 1.28,5.47 1.08,5.52 0.87,5.50 0.65,5.48 0.46,5.40 0.27,5.31 0.11,5.17 -0.04,5.02 -0.14,4.84 -0.24,4.65 -0.28,4.44 -0.32,4.23 -0.29,4.02 -0.26,3.81 -0.16,3.62 -0.06,3.43 0.08,3.29 0.23,3.14 0.42,3.04 0.61,2.95 0.82,2.92 1.03,2.90 1.24,2.94 1.45,2.98 1.63,3.09 1.82,3.20 1.96,3.36 2.10,3.51 2.18,3.71 2.26,3.91 2.28,4.12 2.29,4.33 2.24,4.54 2.19,4.74 2.07,4.92 1.95,5.10 1.79,5.23 1.62,5.36 1.42,5.43 1.22,5.50 1.01,5.51 0.79,5.51 0.59,5.45 0.39,5.38 0.22,5.26 0.05,5.13 -0.07,4.96 -0.19,4.78 -0.25,4.58 -0.31,4.37 -0.30,4.16 -0.29,3.95 -0.22,3.75 -0.14,3.55 -0.14,3.55 -0.14,3.55 0.32,2.95 0.79,2.35 0.17,1.84 -0.44,1.32 -0.60,1.25 -0.75,1.18 -0.88,1.07 -1.01,0.96 -1.11,0.83 -1.21,0.69 -1.28,0.54 -1.34,0.38 -1.37,0.21 -1.40,0.05 -1.38,-0.11 -1.37,-0.28 -1.31,-0.44 -1.26,-0.60 -1.17,-0.74 -1.08,-0.89 -0.96,-1.00 -0.83,-1.12 -0.69,-1.20 -0.54,-1.29 -0.38,-1.33 -0.22,-1.38 -0.05,-1.39 0.11,-1.39 0.28,-1.36 0.44,-1.32 0.44,-1.32 L 0.44,-1.32 Z"></path></g><g transform="translate(73.4829199588039 53.71743930104094) rotate(0 2.461107533113136 12.562452745334667)" stroke="none"><path fill="#6741d9" d="M 1.10,-0.97 Q 1.10,-0.97 2.00,-0.57 2.89,-0.17 3.63,0.75 4.38,1.67 5.08,2.95 5.79,4.22 6.26,5.72 6.73,7.21 7.00,8.59 7.26,9.98 7.28,11.41 7.29,12.85 7.15,14.45 7.01,16.05 6.69,17.58 6.37,19.11 5.95,20.17 5.53,21.24 4.91,22.43 4.28,23.62 2.76,24.79 1.23,25.95 1.07,26.09 0.91,26.23 0.72,26.31 0.52,26.40 0.31,26.41 0.10,26.43 -0.10,26.38 -0.31,26.32 -0.48,26.21 -0.66,26.09 -0.79,25.93 -0.93,25.76 -1.00,25.56 -1.07,25.36 -1.07,25.15 -1.08,24.93 -1.02,24.73 -0.95,24.53 -0.83,24.36 -0.70,24.19 -0.53,24.06 -0.36,23.94 -0.15,23.88 0.04,23.82 0.25,23.82 0.47,23.83 0.67,23.91 0.86,23.98 1.03,24.11 1.19,24.25 1.31,24.43 1.42,24.61 1.47,24.82 1.52,25.02 1.50,25.23 1.48,25.44 1.40,25.64 1.31,25.83 1.17,25.99 1.03,26.15 0.84,26.25 0.66,26.36 0.45,26.39 0.24,26.43 0.03,26.40 -0.17,26.37 -0.36,26.28 -0.55,26.18 -0.70,26.03 -0.85,25.88 -0.94,25.69 -1.04,25.50 -1.06,25.29 -1.09,25.08 -1.05,24.87 -1.01,24.66 -0.90,24.47 -0.80,24.29 -0.80,24.29 -0.80,24.29 -0.12,22.35 0.56,20.41 1.09,19.09 1.63,17.78 1.89,16.59 2.16,15.41 2.27,13.94 2.39,12.48 2.36,11.18 2.33,9.88 2.07,8.67 1.81,7.46 1.39,6.22 0.97,4.99 0.21,3.91 -0.54,2.84 -0.82,1.91 -1.10,0.97 -1.20,0.82 -1.31,0.68 -1.37,0.51 -1.43,0.34 -1.45,0.17 -1.47,-0.00 -1.45,-0.18 -1.43,-0.35 -1.36,-0.52 -1.30,-0.69 -1.20,-0.83 -1.10,-0.98 -0.96,-1.10 -0.83,-1.21 -0.67,-1.30 -0.51,-1.38 -0.34,-1.42 -0.17,-1.46 0.00,-1.46 0.18,-1.46 0.35,-1.42 0.52,-1.37 0.68,-1.29 0.84,-1.21 0.97,-1.09 1.10,-0.97 1.10,-0.97 L 1.10,-0.97 Z"></path></g><g stroke-linecap="round"><g transform="translate(201.4968659331298 110) rotate(0 -30 -50)"><path d="M0 0 C-23.3 -38.84, -46.61 -77.68, -60 -100 M0 0 C-21.75 -36.26, -43.51 -72.52, -60 -100" stroke="#9c36b5" stroke-width="2" fill="none"></path></g><g transform="translate(201.4968659331298 110) rotate(0 -30 -50)"><path d="M-40.58 -84.25 C-48.12 -90.37, -55.67 -96.49, -60 -100 M-40.58 -84.25 C-47.62 -89.96, -54.66 -95.67, -60 -100" stroke="#9c36b5" stroke-width="2" fill="none"></path></g><g transform="translate(201.4968659331298 110) rotate(0 -30 -50)"><path d="M-55.25 -75.46 C-57.09 -84.99, -58.94 -94.52, -60 -100 M-55.25 -75.46 C-56.97 -84.36, -58.69 -93.25, -60 -100" stroke="#9c36b5" stroke-width="2" fill="none"></path></g></g><mask></mask><g transform="translate(190.49181862630394 54.94543097053338) rotate(0 -1.9261510612814163 3.241007898731823)" stroke="none"><path d="M0 0 C-0.34 -0.28, -1.17 -1.64, -2.04 -1.66 C-2.92 -1.69, -4.42 -1.12, -5.23 -0.16 C-6.04 0.81, -6.74 2.85, -6.9 4.15 C-7.06 5.44, -6.52 6.96, -6.19 7.63 C-5.87 8.3, -5.56 8.31, -4.93 8.15 C-4.3 7.99, -3.27 7.87, -2.41 6.65 C-1.55 5.43, -0.42 0.93, 0.22 0.83 C0.87 0.73, 0.95 5.06, 1.43 6.05 C1.91 7.05, 2.82 6.68, 3.09 6.8" stroke="none" stroke-width="0" fill="#ffffff" fill-rule="evenodd"></path><path fill="#9c36b5" d="M -1.08,1.04 Q -1.08,1.04 -1.77,0.81 -2.45,0.59 -3.34,1.43 -4.24,2.27 -4.54,3.44 -4.85,4.62 -4.72,5.74 -4.59,6.87 -3.82,6.05 -3.04,5.23 -2.52,4.17 -2.00,3.11 -1.81,1.99 -1.62,0.87 -1.73,0.65 -1.84,0.44 -1.75,0.20 -1.67,-0.03 -1.53,-0.24 -1.39,-0.46 -1.20,-0.63 -1.02,-0.80 -0.80,-0.92 -0.58,-1.05 -0.33,-1.11 -0.09,-1.18 0.16,-1.19 0.41,-1.19 0.66,-1.14 0.90,-1.08 1.13,-0.97 1.36,-0.86 1.55,-0.69 1.75,-0.53 1.89,-0.33 2.04,-0.12 2.14,0.10 2.23,0.34 2.27,0.59 2.31,0.84 2.28,1.09 2.26,1.35 2.69,2.33 3.12,3.31 3.74,4.87 4.35,6.44 4.38,6.59 4.40,6.75 4.39,6.91 4.38,7.06 4.33,7.21 4.27,7.36 4.19,7.50 4.10,7.63 3.99,7.74 3.88,7.85 3.74,7.93 3.60,8.01 3.45,8.05 3.30,8.10 3.14,8.10 2.98,8.11 2.83,8.08 2.67,8.04 2.53,7.98 2.38,7.91 2.26,7.81 2.14,7.71 2.05,7.58 1.95,7.45 1.89,7.31 1.83,7.16 2.32,6.34 2.81,5.51 3.03,5.50 3.24,5.49 3.44,5.55 3.65,5.61 3.82,5.73 4.00,5.85 4.13,6.02 4.25,6.19 4.32,6.39 4.39,6.59 4.39,6.81 4.38,7.02 4.32,7.22 4.25,7.42 4.12,7.59 3.99,7.76 3.81,7.88 3.63,7.99 3.43,8.05 3.22,8.10 3.01,8.09 2.80,8.08 2.60,8.00 2.41,7.92 2.24,7.78 2.08,7.64 1.98,7.46 1.87,7.28 1.82,7.07 1.78,6.86 1.80,6.65 1.83,6.44 1.92,6.25 2.01,6.06 2.15,5.90 2.30,5.75 2.49,5.65 2.68,5.55 2.89,5.52 3.10,5.49 3.31,5.52 3.52,5.56 3.70,5.66 3.89,5.76 4.04,5.91 4.18,6.07 4.27,6.26 4.36,6.45 4.38,6.67 4.40,6.88 4.35,7.08 4.31,7.29 4.20,7.47 4.09,7.65 3.92,7.79 3.76,7.93 4.06,7.18 4.35,6.44 4.38,6.59 4.40,6.75 4.39,6.91 4.38,7.06 4.33,7.21 4.27,7.36 4.19,7.50 4.10,7.63 3.99,7.74 3.88,7.85 3.74,7.93 3.60,8.01 3.45,8.05 3.30,8.10 3.14,8.10 2.98,8.11 2.83,8.08 2.67,8.04 2.53,7.98 2.38,7.91 2.26,7.81 2.14,7.71 2.05,7.58 1.95,7.45 1.89,7.31 1.83,7.16 0.17,6.12 -1.47,5.08 -1.71,3.86 -1.96,2.64 -1.90,1.54 -1.84,0.44 -1.75,0.20 -1.67,-0.03 -1.53,-0.24 -1.39,-0.46 -1.20,-0.63 -1.02,-0.80 -0.80,-0.92 -0.58,-1.05 -0.33,-1.11 -0.09,-1.18 0.16,-1.19 0.41,-1.19 0.66,-1.14 0.90,-1.08 1.13,-0.97 1.36,-0.86 1.55,-0.69 1.75,-0.53 1.89,-0.33 2.04,-0.12 2.14,0.10 2.23,0.34 2.27,0.59 2.31,0.84 2.28,1.09 2.26,1.34 2.24,1.39 2.23,1.43 1.56,2.42 0.89,3.40 0.48,4.43 0.06,5.45 -0.65,6.47 -1.36,7.49 -2.39,8.23 -3.41,8.98 -4.61,9.27 -5.80,9.56 -6.76,8.98 -7.72,8.40 -8.18,7.30 -8.64,6.21 -8.78,5.14 -8.91,4.08 -8.67,3.01 -8.44,1.94 -8.03,0.91 -7.63,-0.12 -6.98,-1.04 -6.34,-1.96 -5.47,-2.57 -4.60,-3.18 -3.11,-3.40 -1.62,-3.62 -0.47,-3.03 0.67,-2.45 0.87,-1.74 1.08,-1.04 1.19,-0.89 1.30,-0.75 1.37,-0.58 1.44,-0.41 1.47,-0.23 1.50,-0.06 1.49,0.12 1.47,0.30 1.41,0.47 1.36,0.64 1.26,0.79 1.16,0.95 1.03,1.07 0.90,1.20 0.74,1.29 0.58,1.38 0.41,1.43 0.24,1.48 0.05,1.49 -0.12,1.50 -0.29,1.46 -0.47,1.42 -0.64,1.35 -0.80,1.27 -0.94,1.15 -1.08,1.04 -1.08,1.04 L -1.08,1.04 Z"></path></g><g transform="translate(182.50494770095793 47.697489549635975) rotate(0 5.454385816289687 -0.18438865793996229)" stroke="none"><path fill="#9c36b5" d="M -0.06,-1.46 Q -0.06,-1.46 1.05,-1.78 2.18,-2.10 3.78,-2.20 5.39,-2.30 8.14,-1.99 10.90,-1.69 11.11,-1.65 11.32,-1.62 11.51,-1.52 11.70,-1.42 11.84,-1.27 11.99,-1.11 12.08,-0.92 12.17,-0.73 12.19,-0.52 12.22,-0.31 12.17,-0.10 12.13,0.10 12.02,0.28 11.91,0.46 11.75,0.60 11.58,0.74 11.39,0.82 11.19,0.90 10.98,0.91 10.77,0.92 10.56,0.87 10.36,0.81 10.18,0.69 10.00,0.57 9.87,0.40 9.75,0.24 9.68,0.03 9.61,-0.16 9.61,-0.37 9.61,-0.58 9.67,-0.78 9.74,-0.99 9.87,-1.15 10.00,-1.32 10.17,-1.44 10.35,-1.56 10.55,-1.62 10.76,-1.68 10.97,-1.67 11.18,-1.66 11.38,-1.58 11.58,-1.50 11.74,-1.36 11.90,-1.23 12.01,-1.04 12.12,-0.86 12.17,-0.66 12.21,-0.45 12.19,-0.24 12.17,-0.03 12.08,0.16 11.99,0.35 11.85,0.51 11.70,0.66 11.51,0.76 11.33,0.86 11.12,0.90 10.91,0.93 10.91,0.93 10.91,0.93 8.25,1.36 5.59,1.78 3.98,1.84 2.37,1.89 1.21,1.67 0.06,1.46 -0.10,1.44 -0.28,1.43 -0.45,1.37 -0.61,1.32 -0.76,1.23 -0.91,1.13 -1.04,1.01 -1.16,0.88 -1.25,0.73 -1.34,0.58 -1.39,0.41 -1.44,0.24 -1.44,0.06 -1.45,-0.10 -1.42,-0.28 -1.38,-0.45 -1.31,-0.61 -1.24,-0.77 -1.12,-0.91 -1.01,-1.04 -0.87,-1.15 -0.73,-1.26 -0.57,-1.33 -0.41,-1.40 -0.24,-1.43 -0.06,-1.46 -0.06,-1.46 L -0.06,-1.46 Z"></path></g><g transform="translate(190.52840847018524 43.67400818132228) rotate(0 2.1979580746919964 3.4821328430343783)" stroke="none"><path d="M0 0 C0.72 0.35, 3.96 0.95, 4.35 2.11 C4.74 3.27, 2.67 6.15, 2.33 6.96" stroke="none" stroke-width="0" fill="#ffffff" fill-rule="evenodd"></path><path fill="#9c36b5" d="M 0.64,-1.53 Q 0.64,-1.53 1.55,-1.44 2.46,-1.35 3.70,-0.80 4.95,-0.25 5.71,0.56 6.46,1.37 6.47,2.62 6.48,3.86 5.01,5.65 3.55,7.44 3.44,7.62 3.33,7.81 3.17,7.94 3.01,8.08 2.81,8.16 2.61,8.24 2.40,8.25 2.19,8.27 1.98,8.21 1.78,8.15 1.60,8.03 1.43,7.92 1.30,7.75 1.17,7.58 1.10,7.38 1.03,7.18 1.03,6.96 1.03,6.75 1.10,6.55 1.16,6.35 1.29,6.18 1.42,6.01 1.59,5.89 1.77,5.77 1.97,5.71 2.18,5.65 2.39,5.66 2.60,5.68 2.80,5.75 3.00,5.83 3.16,5.97 3.32,6.11 3.43,6.29 3.54,6.47 3.59,6.68 3.64,6.88 3.62,7.09 3.59,7.31 3.50,7.50 3.42,7.69 3.27,7.85 3.12,8.00 2.94,8.10 2.75,8.20 2.54,8.24 2.33,8.27 2.12,8.24 1.91,8.21 1.72,8.11 1.54,8.01 1.39,7.85 1.24,7.70 1.15,7.51 1.06,7.32 1.04,7.10 1.01,6.89 1.06,6.69 1.10,6.48 1.10,6.48 1.10,6.48 1.93,5.06 2.75,3.63 1.74,3.17 0.74,2.71 0.04,2.12 -0.64,1.53 -0.82,1.43 -0.99,1.33 -1.14,1.19 -1.28,1.05 -1.39,0.88 -1.50,0.71 -1.56,0.52 -1.63,0.33 -1.64,0.13 -1.66,-0.06 -1.63,-0.25 -1.60,-0.45 -1.52,-0.64 -1.44,-0.82 -1.32,-0.98 -1.20,-1.14 -1.05,-1.27 -0.89,-1.40 -0.71,-1.49 -0.53,-1.57 -0.33,-1.61 -0.13,-1.66 0.06,-1.65 0.26,-1.64 0.45,-1.59 0.64,-1.53 0.64,-1.53 L 0.64,-1.53 Z"></path></g><g transform="translate(199.67044590956175 56.93589720892487) rotate(0 2.574300988350842 -0.2813114855216554)" stroke="none"><path fill="#9c36b5" d="M -0.20,-2.03 Q -0.20,-2.03 2.39,-1.95 4.98,-1.87 5.19,-1.86 5.40,-1.85 5.60,-1.78 5.80,-1.71 5.96,-1.57 6.13,-1.44 6.24,-1.26 6.35,-1.08 6.40,-0.87 6.45,-0.66 6.43,-0.45 6.42,-0.24 6.33,-0.05 6.24,0.14 6.10,0.30 5.96,0.45 5.77,0.56 5.59,0.66 5.38,0.70 5.17,0.74 4.96,0.71 4.75,0.68 4.56,0.58 4.37,0.48 4.22,0.33 4.07,0.18 3.98,-0.00 3.89,-0.19 3.86,-0.40 3.83,-0.61 3.87,-0.82 3.91,-1.03 4.02,-1.21 4.13,-1.40 4.29,-1.54 4.44,-1.68 4.64,-1.76 4.84,-1.84 5.05,-1.86 5.26,-1.88 5.47,-1.82 5.67,-1.77 5.85,-1.65 6.03,-1.54 6.16,-1.37 6.29,-1.20 6.36,-1.00 6.44,-0.80 6.44,-0.59 6.44,-0.38 6.38,-0.18 6.32,0.02 6.19,0.19 6.07,0.36 5.89,0.48 5.72,0.60 5.51,0.66 5.31,0.73 5.31,0.73 5.31,0.73 2.75,1.38 0.20,2.03 -0.04,2.03 -0.29,2.02 -0.53,1.96 -0.76,1.89 -0.98,1.77 -1.20,1.65 -1.38,1.49 -1.56,1.32 -1.69,1.11 -1.83,0.90 -1.91,0.67 -1.99,0.44 -2.02,0.19 -2.04,-0.04 -2.01,-0.29 -1.97,-0.53 -1.88,-0.76 -1.79,-0.99 -1.64,-1.19 -1.50,-1.39 -1.31,-1.55 -1.12,-1.71 -0.90,-1.82 -0.68,-1.93 -0.44,-1.98 -0.20,-2.03 -0.20,-2.03 L -0.20,-2.03 Z"></path></g><g transform="translate(211.68733454547873 48.48232916751931) rotate(0 1.0349487095490986 7.089555707334966)" stroke="none"><path fill="#9c36b5" d="M 1.58,-0.25 Q 1.58,-0.25 2.09,0.62 2.60,1.51 2.82,2.69 3.04,3.88 3.26,5.20 3.48,6.52 3.66,7.61 3.84,8.70 3.55,11.25 3.27,13.79 3.28,13.95 3.29,14.11 3.27,14.27 3.25,14.42 3.18,14.57 3.12,14.71 3.03,14.84 2.94,14.97 2.81,15.07 2.69,15.17 2.55,15.24 2.41,15.31 2.25,15.34 2.10,15.37 1.94,15.37 1.78,15.36 1.63,15.32 1.48,15.28 1.34,15.20 1.20,15.12 1.08,15.01 0.97,14.90 0.88,14.77 0.80,14.64 0.75,14.49 0.70,14.34 0.86,14.65 1.02,14.96 0.90,14.78 0.78,14.60 0.73,14.40 0.67,14.19 0.69,13.98 0.70,13.77 0.78,13.57 0.86,13.37 1.00,13.21 1.14,13.05 1.33,12.95 1.51,12.84 1.72,12.80 1.93,12.75 2.14,12.78 2.35,12.80 2.54,12.90 2.73,12.99 2.88,13.14 3.04,13.28 3.13,13.47 3.23,13.66 3.26,13.87 3.29,14.08 3.26,14.29 3.22,14.50 3.12,14.69 3.02,14.87 2.86,15.02 2.70,15.16 2.51,15.25 2.32,15.34 2.10,15.36 1.89,15.38 1.69,15.33 1.48,15.28 1.30,15.17 1.12,15.06 0.98,14.89 0.85,14.73 0.77,14.53 0.70,14.33 0.69,14.12 0.68,13.91 0.74,13.70 0.80,13.50 0.92,13.32 1.04,13.15 1.21,13.02 1.38,12.90 1.58,12.83 1.79,12.77 2.00,12.77 2.21,12.77 2.41,12.84 2.61,12.91 2.94,13.35 3.27,13.79 3.28,13.95 3.29,14.11 3.27,14.26 3.25,14.42 3.18,14.57 3.12,14.71 3.03,14.84 2.94,14.97 2.81,15.07 2.69,15.17 2.55,15.24 2.41,15.31 2.25,15.34 2.10,15.37 1.94,15.37 1.78,15.36 1.63,15.32 1.48,15.28 1.34,15.20 1.20,15.12 1.09,15.01 0.97,14.90 0.88,14.77 0.80,14.64 0.75,14.49 0.70,14.34 -0.16,11.93 -1.03,9.53 -1.18,8.34 -1.34,7.16 -1.48,5.91 -1.63,4.66 -1.81,3.45 -2.00,2.24 -1.79,1.25 -1.58,0.25 -1.59,0.06 -1.60,-0.13 -1.56,-0.32 -1.52,-0.51 -1.44,-0.68 -1.35,-0.86 -1.23,-1.01 -1.11,-1.16 -0.95,-1.27 -0.80,-1.39 -0.62,-1.47 -0.44,-1.54 -0.25,-1.57 -0.06,-1.60 0.13,-1.59 0.32,-1.57 0.50,-1.51 0.69,-1.45 0.85,-1.34 1.02,-1.24 1.15,-1.10 1.28,-0.96 1.38,-0.79 1.48,-0.62 1.53,-0.44 1.58,-0.25 1.58,-0.25 L 1.58,-0.25 Z"></path></g><g transform="translate(213.0934039312633 57.43706109197956) rotate(0 4.3253456813390585 0.6855506419992707)" stroke="none"><path d="M0 0 C0.75 -0.64, 3.35 -3.17, 4.48 -3.84 C5.62 -4.52, 6.18 -4.29, 6.84 -4.04 C7.5 -3.79, 8.27 -3.64, 8.45 -2.34 C8.62 -1.04, 8.47 2.5, 7.89 3.76 C7.3 5.02, 6.1 5, 4.94 5.23 C3.78 5.47, 1.62 5.18, 0.95 5.17" stroke="none" stroke-width="0" fill="#ffffff" fill-rule="evenodd"></path><path fill="#9c36b5" d="M -1.16,-0.83 Q -1.16,-0.83 -0.82,-1.43 -0.48,-2.02 0.37,-3.08 1.23,-4.14 2.28,-4.78 3.32,-5.42 4.47,-5.65 5.62,-5.89 6.87,-5.66 8.12,-5.43 9.04,-4.49 9.96,-3.56 10.27,-2.36 10.57,-1.16 10.69,0.12 10.81,1.42 10.60,2.58 10.39,3.74 9.49,4.85 8.58,5.96 7.45,6.43 6.32,6.89 3.52,6.67 0.72,6.46 0.52,6.39 0.32,6.32 0.15,6.19 -0.01,6.06 -0.12,5.88 -0.24,5.70 -0.30,5.50 -0.35,5.29 -0.34,5.08 -0.32,4.87 -0.24,4.67 -0.16,4.47 -0.02,4.31 0.11,4.15 0.29,4.05 0.47,3.94 0.68,3.89 0.89,3.85 1.10,3.88 1.31,3.90 1.50,3.99 1.69,4.08 1.85,4.23 2.00,4.38 2.10,4.57 2.19,4.76 2.23,4.97 2.26,5.18 2.22,5.39 2.19,5.59 2.09,5.78 1.98,5.97 1.83,6.11 1.67,6.26 1.48,6.34 1.28,6.43 1.07,6.45 0.86,6.47 0.66,6.43 0.45,6.38 0.27,6.27 0.09,6.16 -0.04,5.99 -0.18,5.83 -0.25,5.63 -0.33,5.43 -0.34,5.22 -0.35,5.01 -0.29,4.80 -0.23,4.60 -0.11,4.42 0.00,4.25 0.17,4.12 0.34,4.00 0.54,3.93 0.75,3.86 0.96,3.87 1.17,3.87 1.17,3.87 1.17,3.87 3.61,3.15 6.05,2.43 6.28,1.38 6.50,0.33 6.47,-0.89 6.44,-2.12 5.22,-1.83 3.99,-1.55 3.03,-0.86 2.07,-0.17 1.61,0.33 1.16,0.83 1.04,0.96 0.92,1.09 0.78,1.18 0.63,1.28 0.47,1.34 0.31,1.39 0.14,1.41 -0.03,1.43 -0.20,1.40 -0.37,1.38 -0.53,1.31 -0.69,1.25 -0.83,1.15 -0.97,1.05 -1.08,0.91 -1.19,0.78 -1.27,0.63 -1.35,0.47 -1.38,0.30 -1.42,0.14 -1.42,-0.03 -1.41,-0.20 -1.37,-0.37 -1.32,-0.53 -1.24,-0.68 -1.16,-0.83 -1.16,-0.83 L -1.16,-0.83 Z"></path></g><g transform="translate(210.41194642897608 42.98845564032763) rotate(0 5.383815348242024 -0.10637982480739083)" stroke="none"><path fill="#9c36b5" d="M -0.07,-1.44 Q -0.07,-1.44 0.95,-1.78 1.98,-2.12 3.36,-2.17 4.73,-2.22 5.93,-2.23 7.14,-2.24 8.98,-1.88 10.83,-1.52 11.03,-1.49 11.24,-1.45 11.43,-1.35 11.62,-1.25 11.77,-1.10 11.91,-0.94 12.00,-0.75 12.09,-0.56 12.11,-0.35 12.14,-0.14 12.09,0.06 12.05,0.27 11.94,0.45 11.83,0.63 11.66,0.77 11.50,0.91 11.31,0.99 11.11,1.06 10.90,1.08 10.68,1.09 10.48,1.03 10.27,0.97 10.10,0.85 9.92,0.74 9.79,0.57 9.67,0.40 9.60,0.20 9.53,-0.00 9.53,-0.21 9.53,-0.42 9.60,-0.62 9.67,-0.82 9.79,-0.99 9.92,-1.16 10.10,-1.28 10.27,-1.40 10.48,-1.46 10.68,-1.51 10.90,-1.50 11.11,-1.49 11.31,-1.41 11.50,-1.33 11.66,-1.20 11.83,-1.06 11.94,-0.88 12.05,-0.69 12.09,-0.49 12.14,-0.28 12.11,-0.07 12.09,0.13 12.00,0.33 11.91,0.52 11.77,0.67 11.62,0.83 11.43,0.93 11.24,1.03 11.03,1.06 10.83,1.10 10.83,1.10 10.83,1.10 8.99,1.46 7.16,1.82 5.99,1.83 4.82,1.84 3.50,1.87 2.18,1.91 1.13,1.67 0.07,1.44 -0.10,1.43 -0.27,1.42 -0.44,1.36 -0.60,1.31 -0.75,1.22 -0.90,1.12 -1.02,1.00 -1.14,0.87 -1.23,0.72 -1.32,0.57 -1.37,0.41 -1.42,0.24 -1.43,0.07 -1.44,-0.10 -1.40,-0.27 -1.37,-0.44 -1.30,-0.60 -1.22,-0.76 -1.12,-0.89 -1.01,-1.03 -0.87,-1.14 -0.73,-1.24 -0.57,-1.31 -0.41,-1.38 -0.24,-1.41 -0.07,-1.44 -0.07,-1.44 L -0.07,-1.44 Z"></path></g><g transform="translate(219.48080418058817 40.03348582673425) rotate(0 2.143073308870953 3.503409187795114)" stroke="none"><path d="M0 0 C0.73 0.46, 4.34 1.62, 4.38 2.79 C4.42 3.96, 0.91 6.3, 0.22 7.01" stroke="none" stroke-width="0" fill="#ffffff" fill-rule="evenodd"></path><path fill="#9c36b5" d="M 0.72,-1.56 Q 0.72,-1.56 1.54,-1.51 2.36,-1.46 3.58,-0.83 4.81,-0.19 5.62,0.72 6.44,1.63 6.49,2.71 6.55,3.78 5.83,4.73 5.11,5.67 3.11,6.81 1.12,7.96 0.94,8.08 0.76,8.19 0.56,8.25 0.36,8.31 0.14,8.30 -0.06,8.28 -0.26,8.21 -0.45,8.13 -0.62,7.99 -0.78,7.85 -0.89,7.67 -1.00,7.49 -1.04,7.28 -1.09,7.07 -1.06,6.86 -1.04,6.65 -0.95,6.46 -0.86,6.26 -0.72,6.11 -0.57,5.96 -0.38,5.86 -0.19,5.76 0.01,5.72 0.22,5.69 0.43,5.72 0.64,5.76 0.82,5.86 1.01,5.96 1.16,6.11 1.30,6.27 1.39,6.46 1.48,6.65 1.50,6.86 1.53,7.07 1.48,7.28 1.43,7.49 1.32,7.67 1.21,7.85 1.05,7.99 0.89,8.13 0.69,8.21 0.50,8.28 0.28,8.30 0.07,8.31 -0.12,8.25 -0.33,8.19 -0.50,8.07 -0.68,7.95 -0.81,7.78 -0.94,7.62 -1.00,7.41 -1.07,7.21 -1.07,7.00 -1.07,6.79 -1.00,6.59 -0.94,6.39 -0.81,6.22 -0.68,6.05 -0.68,6.05 -0.68,6.05 0.80,3.82 2.29,1.58 2.34,2.70 2.38,3.81 1.39,3.28 0.40,2.75 -0.16,2.16 -0.72,1.56 -0.90,1.45 -1.07,1.34 -1.22,1.19 -1.37,1.04 -1.47,0.86 -1.58,0.68 -1.63,0.48 -1.69,0.28 -1.70,0.08 -1.71,-0.12 -1.67,-0.32 -1.63,-0.53 -1.55,-0.72 -1.46,-0.91 -1.33,-1.07 -1.20,-1.23 -1.03,-1.36 -0.87,-1.48 -0.68,-1.56 -0.49,-1.65 -0.28,-1.68 -0.08,-1.72 0.12,-1.70 0.33,-1.69 0.52,-1.62 0.72,-1.56 0.72,-1.56 L 0.72,-1.56 Z"></path></g></svg>
      