<svg version="1.1" xmlns="http://www.w3.org/2000/svg" viewBox="0 0 320 133.40245851132386" width="640" height="266.8049170226477"><!-- svg-source:excalidraw --><metadata></metadata><defs><style class="style-fonts">
      </style></defs><rect x="0" y="0" width="320" height="133.40245851132386" fill="#ffffff"></rect><g stroke-linecap="round"><g transform="translate(170 97.69957160947342) rotate(0 70 -10)"><path d="M0 0 C29.75 -4.25, 59.49 -8.5, 140 -20 M0 0 C52.6 -7.51, 105.2 -15.03, 140 -20" stroke="#1e1e1e" stroke-width="2" fill="none"></path></g><g transform="translate(170 97.69957160947342) rotate(0 70 -10)"><path d="M117.95 -8.21 C122.64 -10.72, 127.32 -13.22, 140 -20 M117.95 -8.21 C126.24 -12.64, 134.52 -17.07, 140 -20" stroke="#1e1e1e" stroke-width="2" fill="none"></path></g><g transform="translate(170 97.69957160947342) rotate(0 70 -10)"><path d="M115.53 -25.14 C120.73 -24.05, 125.93 -22.96, 140 -20 M115.53 -25.14 C124.73 -23.21, 133.92 -21.28, 140 -20" stroke="#1e1e1e" stroke-width="2" fill="none"></path></g></g><mask></mask><g stroke-linecap="round"><g transform="translate(170 97.69957160947342) rotate(0 -80 0)"><path d="M0 0 C-55.44 0, -110.89 0, -160 0 M0 0 C-55.39 0, -110.78 0, -160 0" stroke="#1e1e1e" stroke-width="2" fill="none"></path></g><g transform="translate(170 97.69957160947342) rotate(0 -80 0)"><path d="M-136.51 -8.55 C-144.65 -5.59, -152.79 -2.62, -160 0 M-136.51 -8.55 C-144.64 -5.59, -152.77 -2.63, -160 0" stroke="#1e1e1e" stroke-width="2" fill="none"></path></g><g transform="translate(170 97.69957160947342) rotate(0 -80 0)"><path d="M-136.51 8.55 C-144.65 5.59, -152.79 2.62, -160 0 M-136.51 8.55 C-144.64 5.59, -152.77 2.63, -160 0" stroke="#1e1e1e" stroke-width="2" fill="none"></path></g></g><mask></mask><g stroke-linecap="round"><g transform="translate(170 97.69957160947342) rotate(0 0 -10)"><path d="M0 0 C0 -5.51, 0 -11.01, 0 -20 M0 0 C0 -7.2, 0 -14.4, 0 -20" stroke="#9775fa" stroke-width="2" fill="none"></path></g><g transform="translate(170 97.69957160947342) rotate(0 0 -10)"><path d="M3.42 -10.6 C2.48 -13.19, 1.54 -15.78, 0 -20 M3.42 -10.6 C2.19 -13.99, 0.96 -17.37, 0 -20" stroke="#9775fa" stroke-width="2" fill="none"></path></g><g transform="translate(170 97.69957160947342) rotate(0 0 -10)"><path d="M-3.42 -10.6 C-2.48 -13.19, -1.54 -15.78, 0 -20 M-3.42 -10.6 C-2.19 -13.99, -0.96 -17.37, 0 -20" stroke="#9775fa" stroke-width="2" fill="none"></path></g></g><mask></mask><g stroke-linecap="round"><g transform="translate(170 97.69957160947342) rotate(0 -10 -10)"><path d="M0 0 C-7.2 -7.2, -14.4 -14.4, -20 -20 M0 0 C-5.4 -5.4, -10.8 -10.8, -20 -20" stroke="#6741d9" stroke-width="2" fill="none"></path></g><g transform="translate(170 97.69957160947342) rotate(0 -10 -10)"><path d="M-7.18 -14.02 C-11.8 -16.17, -16.41 -18.33, -20 -20 M-7.18 -14.02 C-10.64 -15.64, -14.11 -17.25, -20 -20" stroke="#6741d9" stroke-width="2" fill="none"></path></g><g transform="translate(170 97.69957160947342) rotate(0 -10 -10)"><path d="M-14.02 -7.18 C-16.17 -11.8, -18.33 -16.41, -20 -20 M-14.02 -7.18 C-15.64 -10.64, -17.25 -14.11, -20 -20" stroke="#6741d9" stroke-width="2" fill="none"></path></g></g><mask></mask><g transform="translate(152.52891776561592 45.120101452905146) rotate(0 5.006224067416042 8.450296362338122)" stroke="none"><path fill="#6741d9" d="M -0.55,-2.65 Q -0.55,-2.65 0.72,-3.10 2.00,-3.55 4.55,-3.54 7.10,-3.53 9.18,-1.85 11.25,-0.18 12.07,1.91 12.90,4.01 12.48,6.47 12.07,8.93 10.63,10.55 9.19,12.18 7.80,13.85 6.41,15.52 6.14,16.30 5.88,17.09 5.93,17.51 5.99,17.93 5.91,18.34 5.83,18.76 5.62,19.13 5.41,19.50 5.09,19.78 4.77,20.07 4.38,20.23 3.99,20.40 3.57,20.43 3.14,20.47 2.73,20.36 2.32,20.26 1.96,20.03 1.60,19.80 1.34,19.47 1.07,19.13 0.93,18.74 0.78,18.34 0.77,17.91 0.76,17.49 0.89,17.08 1.01,16.67 1.26,16.33 1.51,15.99 1.86,15.74 2.20,15.49 2.61,15.37 3.02,15.25 3.44,15.26 3.87,15.27 4.26,15.42 4.66,15.57 4.99,15.83 5.32,16.10 5.55,16.46 5.78,16.82 5.88,17.23 5.98,17.64 5.95,18.07 5.91,18.49 5.74,18.88 5.57,19.27 5.29,19.59 5.00,19.90 4.63,20.11 4.26,20.32 3.84,20.40 3.43,20.47 3.01,20.42 2.58,20.36 2.20,20.17 1.82,19.98 1.52,19.68 1.22,19.37 1.04,18.99 0.85,18.61 0.85,18.61 0.85,18.61 0.76,15.59 0.66,12.57 2.29,10.51 3.91,8.45 5.44,6.54 6.97,4.63 5.11,3.54 3.25,2.45 1.90,2.55 0.55,2.65 0.22,2.68 -0.09,2.71 -0.42,2.66 -0.74,2.61 -1.04,2.48 -1.34,2.35 -1.61,2.16 -1.87,1.96 -2.08,1.71 -2.29,1.46 -2.43,1.16 -2.57,0.86 -2.63,0.54 -2.70,0.22 -2.69,-0.09 -2.68,-0.42 -2.59,-0.74 -2.50,-1.05 -2.33,-1.33 -2.17,-1.62 -1.95,-1.86 -1.72,-2.09 -1.44,-2.27 -1.17,-2.44 -0.86,-2.55 -0.55,-2.65 -0.55,-2.65 L -0.55,-2.65 Z"></path></g><g transform="translate(159.81485566260926 70.0720610134249) rotate(0 -0.5498802207648623 0.7046224748373788)" stroke="none"><path d="M0 0 C-0.24 0.11, -1.44 0.72, -1.45 0.68 C-1.47 0.65, -0.37 -0.37, -0.11 -0.22 C0.14 -0.06, 0.07 1.59, 0.09 1.63 C0.11 1.66, 0.02 0.27, 0 0" stroke="none" stroke-width="0" fill="#ffffff" fill-rule="evenodd"></path><path fill="#6741d9" d="M 2.60,-0.85 Q 2.60,-0.85 2.55,-0.84 2.49,-0.82 2.55,-0.51 2.61,-0.20 2.60,0.11 2.59,0.43 2.50,0.73 2.41,1.03 2.25,1.31 2.09,1.58 1.87,1.81 1.65,2.04 1.38,2.20 1.11,2.37 0.81,2.47 0.51,2.57 0.19,2.59 -0.11,2.62 -0.42,2.57 -0.74,2.52 -1.03,2.39 -1.32,2.26 -1.57,2.07 -1.82,1.88 -2.02,1.64 -2.22,1.39 -2.36,1.10 -2.49,0.82 -2.53,0.14 -2.57,-0.52 -2.42,-0.92 -2.27,-1.31 -2.00,-1.64 -1.73,-1.97 -1.37,-2.20 -1.00,-2.42 -0.59,-2.52 -0.18,-2.62 0.24,-2.58 0.66,-2.54 1.05,-2.36 1.44,-2.19 1.75,-1.90 2.06,-1.62 2.27,-1.24 2.47,-0.87 2.55,-0.45 2.62,-0.03 2.56,0.38 2.50,0.80 2.30,1.17 2.11,1.55 1.81,1.85 1.50,2.15 1.12,2.33 0.74,2.51 0.31,2.57 -0.10,2.62 -0.51,2.53 -0.93,2.45 -1.30,2.24 -1.67,2.02 -1.95,1.70 -2.22,1.38 -2.39,0.99 -2.55,0.60 -2.58,0.17 -2.61,-0.24 -2.50,-0.65 -2.40,-1.06 -2.16,-1.42 -1.93,-1.77 -1.59,-2.03 -1.26,-2.30 -0.86,-2.44 -0.46,-2.58 -0.03,-2.59 0.38,-2.59 0.79,-2.46 1.19,-2.33 1.53,-2.08 1.87,-1.83 2.12,-1.48 2.36,-1.13 2.48,-0.73 2.60,-0.32 2.55,-0.57 2.49,-0.82 2.55,-0.51 2.61,-0.20 2.60,0.11 2.59,0.43 2.50,0.73 2.41,1.03 2.25,1.31 2.09,1.58 1.87,1.81 1.65,2.04 1.38,2.20 1.11,2.37 0.81,2.47 0.51,2.57 0.19,2.59 -0.11,2.62 -0.42,2.57 -0.74,2.52 -1.03,2.39 -1.32,2.26 -1.57,2.07 -1.82,1.88 -2.02,1.64 -2.22,1.39 -2.36,1.10 -2.49,0.82 -2.55,0.84 -2.60,0.85 -2.67,0.53 -2.73,0.21 -2.72,-0.12 -2.70,-0.45 -2.61,-0.76 -2.52,-1.08 -2.35,-1.37 -2.18,-1.65 -1.95,-1.89 -1.72,-2.13 -1.44,-2.30 -1.16,-2.48 -0.85,-2.58 -0.53,-2.69 -0.20,-2.71 0.12,-2.74 0.44,-2.68 0.77,-2.63 1.07,-2.50 1.38,-2.37 1.64,-2.17 1.90,-1.97 2.11,-1.71 2.32,-1.45 2.46,-1.15 2.60,-0.85 2.60,-0.85 L 2.60,-0.85 Z"></path></g><g transform="translate(148.73700835708223 48.135469447646756) rotate(0 2.709329602420439 -2.569803531267553)" stroke="none"><path d="M0 0 C0.17 -0.54, 0.1 -2.41, 1.03 -3.26 C1.96 -4.12, 4.81 -4.83, 5.57 -5.14" stroke="none" stroke-width="0" fill="#ffffff" fill-rule="evenodd"></path><path fill="#6741d9" d="M -2.31,-1.77 Q -2.31,-1.77 -1.62,-3.36 -0.93,-4.95 1.61,-6.15 4.16,-7.36 4.55,-7.52 4.95,-7.69 5.37,-7.72 5.79,-7.75 6.21,-7.65 6.62,-7.54 6.97,-7.31 7.33,-7.08 7.59,-6.74 7.86,-6.41 8.00,-6.01 8.15,-5.61 8.15,-5.19 8.16,-4.76 8.04,-4.36 7.91,-3.95 7.66,-3.61 7.41,-3.26 7.06,-3.02 6.71,-2.77 6.31,-2.65 5.90,-2.53 5.47,-2.54 5.05,-2.56 4.65,-2.71 4.25,-2.86 3.92,-3.13 3.60,-3.39 3.37,-3.75 3.14,-4.11 3.04,-4.53 2.94,-4.94 2.98,-5.36 3.02,-5.79 3.19,-6.18 3.36,-6.56 3.65,-6.88 3.93,-7.19 4.30,-7.40 4.67,-7.61 5.09,-7.68 5.51,-7.76 5.93,-7.70 6.35,-7.64 6.73,-7.45 7.11,-7.26 7.41,-6.95 7.71,-6.65 7.89,-6.27 8.08,-5.89 8.13,-5.47 8.19,-5.05 8.10,-4.63 8.02,-4.21 7.81,-3.84 7.60,-3.47 7.28,-3.19 6.96,-2.91 6.96,-2.91 6.96,-2.91 5.97,-1.62 4.99,-0.33 3.65,0.72 2.31,1.77 2.07,2.03 1.82,2.28 1.52,2.46 1.22,2.65 0.89,2.76 0.55,2.87 0.20,2.89 -0.14,2.91 -0.49,2.85 -0.84,2.79 -1.16,2.65 -1.48,2.51 -1.76,2.30 -2.04,2.08 -2.26,1.81 -2.48,1.53 -2.63,1.21 -2.78,0.89 -2.84,0.55 -2.91,0.20 -2.89,-0.14 -2.88,-0.49 -2.77,-0.83 -2.67,-1.17 -2.49,-1.47 -2.31,-1.77 -2.31,-1.77 L -2.31,-1.77 Z"></path></g><g transform="translate(159.68884768831413 68.68353437845508) rotate(0 1.1570458741562106 1.6890254377203746)" stroke="none"><path d="M0 0 C0.24 -0.04, 1.05 -0.41, 1.45 -0.25 C1.86 -0.09, 2.43 0.34, 2.43 0.97 C2.43 1.6, 1.9 3.32, 1.47 3.53 C1.03 3.75, 0.08 2.85, -0.16 2.26 C-0.4 1.67, -0.03 0.38, 0 0" stroke="none" stroke-width="0" fill="#ffffff" fill-rule="evenodd"></path><path fill="#6741d9" d="M 1.86,-2.17 Q 1.86,-2.17 2.85,-1.75 3.84,-1.33 4.64,1.02 5.44,3.38 4.14,5.18 2.83,6.97 0.44,6.49 -1.93,6.00 -2.28,2.94 -2.62,-0.12 -2.53,-0.53 -2.44,-0.95 -2.23,-1.31 -2.01,-1.68 -1.69,-1.96 -1.37,-2.23 -0.97,-2.40 -0.58,-2.56 -0.16,-2.58 0.26,-2.61 0.67,-2.50 1.08,-2.39 1.43,-2.15 1.79,-1.92 2.05,-1.58 2.31,-1.24 2.44,-0.84 2.58,-0.44 2.59,-0.02 2.59,0.40 2.46,0.80 2.33,1.21 2.07,1.55 1.82,1.89 1.47,2.13 1.12,2.37 0.71,2.49 0.30,2.60 -0.12,2.58 -0.54,2.56 -0.94,2.41 -1.33,2.26 -1.66,1.98 -1.98,1.71 -2.21,1.35 -2.43,0.99 -2.52,0.57 -2.62,0.16 -2.57,-0.26 -2.53,-0.68 -2.36,-1.07 -2.18,-1.45 -1.89,-1.76 -1.60,-2.07 -1.23,-2.28 -0.85,-2.48 -0.43,-2.55 -0.01,-2.62 0.39,-2.56 0.81,-2.49 1.19,-2.29 1.57,-2.10 1.86,-1.79 2.16,-1.49 2.34,-1.10 2.52,-0.72 2.57,-0.29 2.62,0.12 2.62,0.12 2.62,0.12 2.15,-0.20 1.69,-0.52 0.40,1.67 -0.87,3.87 -1.37,3.02 -1.86,2.17 -2.09,1.92 -2.32,1.66 -2.49,1.36 -2.66,1.06 -2.74,0.72 -2.83,0.39 -2.84,0.04 -2.84,-0.29 -2.77,-0.63 -2.69,-0.97 -2.53,-1.27 -2.38,-1.58 -2.15,-1.84 -1.93,-2.11 -1.65,-2.31 -1.37,-2.51 -1.05,-2.64 -0.73,-2.76 -0.39,-2.81 -0.04,-2.86 0.29,-2.82 0.63,-2.79 0.96,-2.67 1.28,-2.55 1.57,-2.36 1.86,-2.17 1.86,-2.17 L 1.86,-2.17 Z"></path></g><g stroke-linecap="round"><g transform="translate(10 97.69957160947342) rotate(0 150 -10)"><path d="M0 0 C84.44 -5.63, 168.88 -11.26, 300 -20 M0 0 C108.34 -7.22, 216.69 -14.45, 300 -20" stroke="#e8590c" stroke-width="2" fill="none"></path></g><g transform="translate(10 97.69957160947342) rotate(0 150 -10)"><path d="M277.13 -9.91 C283.57 -12.75, 290 -15.59, 300 -20 M277.13 -9.91 C285.39 -13.55, 293.65 -17.2, 300 -20" stroke="#e8590c" stroke-width="2" fill="none"></path></g><g transform="translate(10 97.69957160947342) rotate(0 150 -10)"><path d="M275.99 -26.97 C282.75 -25.01, 289.51 -23.05, 300 -20 M275.99 -26.97 C284.66 -24.45, 293.33 -21.94, 300 -20" stroke="#e8590c" stroke-width="2" fill="none"></path></g></g><mask></mask><g transform="translate(135.81890599964208 24.846238215361154) rotate(0 -0.6803483908233829 4.381142591826574)" stroke="none"><path fill="#6741d9" d="M -1.10,0.82 Q -1.10,0.82 -1.65,0.42 -2.20,0.02 -3.11,0.99 -4.02,1.95 -4.33,3.00 -4.64,4.04 -4.72,5.57 -4.79,7.10 -3.65,6.61 -2.51,6.12 -2.18,4.86 -1.85,3.59 -1.48,2.40 -1.12,1.22 -1.09,1.17 -1.06,1.12 -0.92,0.89 -0.78,0.65 -0.59,0.46 -0.40,0.27 -0.17,0.13 0.05,-0.00 0.31,-0.08 0.56,-0.16 0.83,-0.18 1.10,-0.19 1.37,-0.15 1.63,-0.10 1.88,0.00 2.12,0.11 2.34,0.28 2.55,0.44 2.72,0.65 2.88,0.87 2.99,1.11 3.11,1.36 3.16,1.62 3.20,1.89 3.19,2.16 3.17,2.43 3.09,2.68 3.01,2.94 2.85,1.75 2.68,0.56 3.25,1.82 3.82,3.08 4.11,4.15 4.40,5.21 4.79,6.43 5.19,7.66 5.90,8.26 6.62,8.87 6.66,9.02 6.70,9.18 6.70,9.33 6.69,9.49 6.65,9.65 6.62,9.80 6.54,9.94 6.47,10.08 6.36,10.20 6.25,10.31 6.12,10.40 5.99,10.49 5.84,10.55 5.70,10.60 5.54,10.62 5.38,10.64 5.22,10.62 5.07,10.60 4.92,10.54 4.77,10.48 4.64,10.39 4.51,10.30 4.41,10.18 4.30,10.06 4.23,9.92 4.16,9.78 4.61,8.92 5.06,8.05 5.27,8.03 5.48,8.01 5.69,8.06 5.90,8.11 6.08,8.22 6.26,8.34 6.39,8.50 6.53,8.67 6.60,8.86 6.68,9.06 6.69,9.28 6.69,9.49 6.63,9.69 6.57,9.90 6.45,10.07 6.33,10.24 6.16,10.37 5.99,10.49 5.78,10.56 5.58,10.62 5.37,10.62 5.16,10.62 4.96,10.54 4.76,10.47 4.59,10.34 4.42,10.21 4.31,10.03 4.19,9.86 4.14,9.65 4.08,9.44 4.10,9.23 4.11,9.02 4.20,8.82 4.28,8.63 4.42,8.47 4.56,8.31 4.74,8.20 4.93,8.10 5.13,8.05 5.34,8.01 5.55,8.04 5.76,8.06 5.96,8.16 6.15,8.25 6.30,8.40 6.45,8.55 6.55,8.74 6.64,8.93 6.67,9.14 6.70,9.35 6.67,9.56 6.63,9.76 6.53,9.95 6.42,10.14 6.27,10.28 6.11,10.42 6.37,9.65 6.62,8.87 6.66,9.02 6.70,9.18 6.70,9.33 6.69,9.49 6.65,9.65 6.62,9.80 6.54,9.94 6.47,10.08 6.36,10.20 6.25,10.31 6.12,10.40 5.99,10.49 5.84,10.55 5.70,10.60 5.54,10.62 5.38,10.64 5.22,10.62 5.07,10.60 4.92,10.54 4.77,10.48 4.64,10.39 4.51,10.30 4.41,10.18 4.31,10.06 4.23,9.92 4.16,9.78 2.29,9.22 0.43,8.67 0.10,7.54 -0.23,6.41 -0.39,5.04 -0.56,3.66 -0.81,2.39 -1.06,1.12 -0.92,0.89 -0.78,0.65 -0.59,0.46 -0.40,0.27 -0.17,0.13 0.05,-0.00 0.30,-0.08 0.56,-0.16 0.83,-0.18 1.10,-0.19 1.37,-0.15 1.63,-0.10 1.88,0.00 2.12,0.11 2.34,0.28 2.55,0.44 2.72,0.65 2.88,0.87 2.99,1.11 3.11,1.36 3.16,1.62 3.20,1.89 3.19,2.16 3.17,2.43 3.09,2.68 3.01,2.94 2.87,3.23 2.73,3.51 2.34,4.67 1.95,5.82 1.46,6.94 0.96,8.06 -0.08,9.39 -1.14,10.72 -2.41,11.51 -3.68,12.30 -5.30,11.96 -6.91,11.62 -7.58,10.46 -8.25,9.30 -8.46,8.15 -8.67,7.00 -8.60,5.76 -8.54,4.53 -8.27,3.16 -7.99,1.79 -7.52,0.81 -7.04,-0.17 -6.26,-1.06 -5.47,-1.94 -4.58,-2.55 -3.68,-3.15 -2.49,-3.29 -1.30,-3.42 -0.33,-2.77 0.63,-2.12 0.86,-1.47 1.10,-0.82 1.18,-0.67 1.26,-0.53 1.31,-0.37 1.35,-0.21 1.36,-0.04 1.36,0.11 1.33,0.27 1.30,0.43 1.22,0.58 1.15,0.73 1.05,0.86 0.94,0.99 0.81,1.09 0.68,1.19 0.52,1.25 0.37,1.32 0.21,1.34 0.04,1.37 -0.11,1.35 -0.27,1.34 -0.43,1.29 -0.59,1.23 -0.73,1.14 -0.87,1.06 -0.98,0.94 -1.10,0.82 -1.10,0.82 L -1.10,0.82 Z"></path></g><g transform="translate(127.67794830558887 17.153884872854178) rotate(0 6.44782490682428 0.7412638143850927)" stroke="none"><path fill="#6741d9" d="M 0.18,-1.65 Q 0.18,-1.65 1.83,-1.78 3.47,-1.90 4.69,-1.76 5.91,-1.61 7.14,-1.44 8.37,-1.28 10.85,-0.55 13.33,0.17 13.54,0.21 13.74,0.26 13.92,0.37 14.11,0.48 14.24,0.64 14.38,0.80 14.46,1.00 14.54,1.20 14.55,1.41 14.56,1.62 14.50,1.83 14.44,2.03 14.33,2.21 14.21,2.38 14.04,2.51 13.87,2.64 13.67,2.71 13.46,2.77 13.25,2.77 13.04,2.77 12.84,2.70 12.64,2.64 12.47,2.51 12.30,2.38 12.18,2.20 12.06,2.03 12.00,1.82 11.95,1.62 11.96,1.40 11.97,1.19 12.05,1.00 12.13,0.80 12.27,0.64 12.41,0.47 12.59,0.37 12.77,0.26 12.98,0.21 13.19,0.17 13.40,0.19 13.61,0.21 13.80,0.30 13.99,0.39 14.15,0.54 14.30,0.69 14.40,0.87 14.50,1.06 14.53,1.27 14.57,1.48 14.53,1.69 14.50,1.90 14.40,2.09 14.30,2.27 14.14,2.42 13.99,2.57 13.80,2.66 13.60,2.74 13.39,2.77 13.18,2.79 13.18,2.79 13.18,2.79 10.48,3.01 7.78,3.23 6.57,3.08 5.36,2.93 4.16,2.78 2.95,2.64 1.38,2.14 -0.18,1.65 -0.38,1.60 -0.57,1.56 -0.75,1.47 -0.93,1.37 -1.08,1.24 -1.23,1.11 -1.35,0.94 -1.46,0.78 -1.54,0.59 -1.61,0.41 -1.64,0.21 -1.66,0.01 -1.64,-0.18 -1.62,-0.38 -1.55,-0.57 -1.48,-0.76 -1.36,-0.92 -1.25,-1.09 -1.10,-1.22 -0.95,-1.36 -0.77,-1.45 -0.60,-1.55 -0.40,-1.60 -0.21,-1.65 -0.01,-1.65 0.18,-1.65 0.18,-1.65 L 0.18,-1.65 Z"></path></g><g transform="translate(137.22598136221677 13.867154047201439) rotate(0 2.4778498378209406 4.300722997603771)" stroke="none"><path fill="#6741d9" d="M 0.58,-1.62 Q 0.58,-1.62 1.63,-1.54 2.68,-1.47 4.08,-0.65 5.49,0.16 6.30,1.63 7.11,3.11 6.90,4.29 6.69,5.46 4.90,7.40 3.11,9.34 2.97,9.49 2.82,9.64 2.63,9.74 2.44,9.84 2.24,9.88 2.03,9.91 1.82,9.87 1.61,9.84 1.42,9.74 1.23,9.64 1.09,9.49 0.94,9.33 0.85,9.14 0.76,8.94 0.74,8.73 0.72,8.52 0.76,8.32 0.81,8.11 0.92,7.93 1.03,7.74 1.19,7.61 1.35,7.47 1.55,7.39 1.75,7.31 1.96,7.30 2.17,7.29 2.38,7.35 2.58,7.41 2.76,7.53 2.93,7.65 3.06,7.81 3.19,7.98 3.26,8.19 3.32,8.39 3.32,8.60 3.32,8.81 3.26,9.01 3.19,9.21 3.06,9.38 2.93,9.55 2.75,9.67 2.58,9.79 2.37,9.85 2.17,9.90 1.96,9.89 1.74,9.88 1.55,9.80 1.35,9.72 1.19,9.58 1.03,9.44 0.92,9.26 0.81,9.08 0.76,8.87 0.72,8.66 0.74,8.45 0.76,8.24 0.85,8.05 0.94,7.86 0.94,7.86 0.94,7.86 1.46,6.47 1.97,5.08 1.54,3.96 1.11,2.85 0.26,2.23 -0.58,1.62 -0.77,1.52 -0.95,1.43 -1.11,1.29 -1.27,1.16 -1.39,0.99 -1.51,0.82 -1.59,0.63 -1.66,0.43 -1.69,0.23 -1.72,0.02 -1.70,-0.18 -1.67,-0.38 -1.60,-0.58 -1.53,-0.77 -1.42,-0.95 -1.30,-1.12 -1.15,-1.26 -1.00,-1.40 -0.81,-1.50 -0.63,-1.60 -0.43,-1.65 -0.23,-1.70 -0.02,-1.71 0.18,-1.71 0.38,-1.66 0.58,-1.62 0.58,-1.62 L 0.58,-1.62 Z"></path></g><g transform="translate(147.80226395978752 26.81128340946907) rotate(0 3.0770188593396597 -0.27622388469580983)" stroke="none"><path fill="#6741d9" d="M -0.16,-1.58 Q -0.16,-1.58 0.89,-1.86 1.95,-2.13 4.00,-2.00 6.05,-1.86 6.26,-1.85 6.47,-1.83 6.67,-1.74 6.86,-1.66 7.02,-1.52 7.18,-1.37 7.28,-1.19 7.38,-1.00 7.42,-0.79 7.46,-0.58 7.43,-0.37 7.40,-0.16 7.31,0.02 7.21,0.21 7.06,0.36 6.91,0.51 6.72,0.60 6.53,0.69 6.32,0.72 6.11,0.75 5.90,0.71 5.69,0.67 5.51,0.56 5.32,0.46 5.18,0.30 5.04,0.14 4.96,-0.05 4.87,-0.24 4.86,-0.45 4.84,-0.67 4.89,-0.87 4.94,-1.08 5.06,-1.26 5.18,-1.44 5.34,-1.57 5.51,-1.70 5.71,-1.77 5.91,-1.85 6.12,-1.85 6.33,-1.85 6.53,-1.79 6.74,-1.73 6.91,-1.60 7.08,-1.48 7.20,-1.31 7.33,-1.13 7.39,-0.93 7.45,-0.73 7.44,-0.51 7.44,-0.30 7.36,-0.10 7.29,0.09 7.16,0.25 7.02,0.42 6.84,0.53 6.66,0.64 6.46,0.69 6.25,0.75 6.25,0.74 6.25,0.74 4.30,1.21 2.35,1.68 1.25,1.63 0.16,1.58 -0.02,1.58 -0.21,1.57 -0.40,1.52 -0.58,1.48 -0.75,1.38 -0.92,1.29 -1.06,1.16 -1.21,1.03 -1.31,0.87 -1.42,0.71 -1.48,0.53 -1.55,0.35 -1.57,0.16 -1.59,-0.02 -1.56,-0.21 -1.54,-0.40 -1.46,-0.58 -1.39,-0.76 -1.28,-0.92 -1.17,-1.07 -1.02,-1.20 -0.88,-1.32 -0.71,-1.41 -0.54,-1.49 -0.35,-1.54 -0.16,-1.58 -0.16,-1.58 L -0.16,-1.58 Z"></path></g><g transform="translate(150.92567263517594 22.762308584703533) rotate(0 0.8968210914063093 4.248277451148169)" stroke="none"><path fill="#6741d9" d="M 1.89,-0.40 Q 1.89,-0.40 2.38,0.67 2.86,1.75 2.97,4.99 3.07,8.22 3.08,8.44 3.09,8.65 3.03,8.85 2.97,9.06 2.85,9.23 2.73,9.41 2.56,9.53 2.39,9.66 2.19,9.72 1.99,9.79 1.77,9.79 1.56,9.79 1.36,9.72 1.16,9.64 0.99,9.51 0.83,9.38 0.71,9.21 0.59,9.03 0.54,8.82 0.48,8.62 0.50,8.41 0.51,8.19 0.59,8.00 0.67,7.80 0.81,7.64 0.95,7.48 1.13,7.37 1.32,7.27 1.52,7.22 1.73,7.18 1.94,7.20 2.15,7.23 2.35,7.32 2.54,7.41 2.69,7.56 2.84,7.71 2.94,7.90 3.04,8.09 3.07,8.30 3.10,8.51 3.07,8.72 3.03,8.93 2.93,9.11 2.83,9.30 2.67,9.44 2.51,9.59 2.32,9.67 2.13,9.76 1.91,9.78 1.70,9.80 1.50,9.75 1.29,9.71 1.11,9.59 0.93,9.48 0.79,9.32 0.66,9.16 0.58,8.96 0.50,8.76 0.50,8.76 0.50,8.76 -0.69,5.77 -1.89,2.78 -1.89,1.59 -1.89,0.40 -1.91,0.17 -1.93,-0.05 -1.90,-0.28 -1.86,-0.51 -1.77,-0.73 -1.68,-0.94 -1.54,-1.13 -1.41,-1.32 -1.23,-1.47 -1.05,-1.62 -0.84,-1.72 -0.63,-1.82 -0.40,-1.87 -0.17,-1.92 0.05,-1.92 0.28,-1.91 0.51,-1.85 0.73,-1.78 0.94,-1.67 1.14,-1.56 1.31,-1.40 1.48,-1.24 1.61,-1.04 1.74,-0.84 1.81,-0.62 1.89,-0.40 1.89,-0.40 L 1.89,-0.40 Z"></path></g><g transform="translate(161.26228762413848 18.958090878516487) rotate(0 5.25721662727301 8.734315349055578)" stroke="none"><path fill="#6741d9" d="M 1.38,-0.21 Q 1.38,-0.21 1.87,0.69 2.36,1.60 2.62,3.24 2.89,4.88 3.06,6.43 3.23,7.97 3.31,9.20 3.39,10.43 3.34,11.78 3.29,13.12 3.20,13.26 3.11,13.39 3.10,13.59 3.09,13.78 3.03,13.97 2.97,14.15 2.87,14.32 2.77,14.48 2.63,14.62 2.49,14.76 2.33,14.86 2.16,14.96 1.98,15.01 1.79,15.07 1.60,15.08 1.40,15.09 1.21,15.06 1.02,15.02 0.85,14.94 0.67,14.86 0.52,14.74 0.37,14.62 0.25,14.47 0.13,14.32 0.05,14.14 -0.02,13.96 -0.06,13.77 -0.09,13.58 -0.04,12.42 0.00,11.27 0.18,9.75 0.36,8.24 0.93,7.28 1.50,6.32 2.49,5.71 3.49,5.10 4.67,4.99 5.86,4.87 7.07,5.35 8.28,5.83 9.38,6.66 10.48,7.48 11.26,8.62 12.04,9.75 12.24,11.01 12.44,12.26 12.13,13.36 11.82,14.47 10.89,15.59 9.96,16.72 8.71,17.48 7.45,18.25 6.27,18.53 5.09,18.82 2.87,18.54 0.65,18.27 0.45,18.18 0.26,18.10 0.10,17.95 -0.04,17.81 -0.14,17.62 -0.25,17.44 -0.28,17.23 -0.32,17.02 -0.29,16.81 -0.25,16.60 -0.16,16.41 -0.06,16.22 0.08,16.07 0.24,15.92 0.43,15.83 0.62,15.74 0.83,15.72 1.04,15.69 1.25,15.73 1.46,15.78 1.64,15.88 1.82,15.99 1.96,16.15 2.10,16.31 2.18,16.51 2.26,16.71 2.28,16.92 2.29,17.13 2.24,17.34 2.18,17.54 2.07,17.72 1.95,17.89 1.78,18.03 1.61,18.16 1.41,18.23 1.21,18.30 1.00,18.30 0.79,18.30 0.58,18.23 0.38,18.17 0.21,18.04 0.04,17.92 -0.07,17.74 -0.19,17.57 -0.25,17.36 -0.31,17.16 -0.30,16.95 -0.29,16.73 -0.21,16.54 -0.14,16.34 -0.00,16.17 0.12,16.01 0.30,15.90 0.49,15.79 0.69,15.74 0.90,15.69 1.11,15.71 1.32,15.73 1.32,15.73 1.32,15.73 2.65,15.48 3.98,15.22 5.06,14.72 6.13,14.22 7.00,13.54 7.88,12.86 8.09,11.81 8.31,10.76 7.45,9.85 6.58,8.94 5.34,8.76 4.10,8.58 3.64,9.58 3.18,10.59 3.15,11.99 3.11,13.39 3.10,13.59 3.09,13.78 3.03,13.97 2.97,14.15 2.87,14.32 2.77,14.48 2.63,14.62 2.49,14.76 2.33,14.86 2.16,14.96 1.98,15.01 1.79,15.07 1.60,15.08 1.41,15.09 1.21,15.06 1.02,15.02 0.85,14.94 0.67,14.86 0.52,14.74 0.37,14.62 0.25,14.47 0.13,14.32 0.05,14.14 -0.02,13.96 -0.06,13.77 -0.09,13.58 -0.20,13.46 -0.31,13.34 -0.56,12.07 -0.81,10.80 -0.95,9.59 -1.08,8.38 -1.22,6.92 -1.35,5.46 -1.56,3.85 -1.76,2.24 -1.57,1.22 -1.38,0.21 -1.39,0.04 -1.39,-0.12 -1.36,-0.28 -1.32,-0.45 -1.25,-0.60 -1.17,-0.75 -1.07,-0.88 -0.96,-1.01 -0.82,-1.11 -0.69,-1.21 -0.53,-1.28 -0.38,-1.35 -0.21,-1.37 -0.04,-1.40 0.12,-1.38 0.29,-1.37 0.45,-1.31 0.61,-1.26 0.75,-1.17 0.89,-1.07 1.01,-0.95 1.12,-0.83 1.21,-0.68 1.29,-0.54 1.34,-0.37 1.38,-0.21 1.38,-0.21 L 1.38,-0.21 Z"></path></g><g transform="translate(161.22363880669946 14.475549912128372) rotate(0 5.9298296370479875 -0.29370994668397543)" stroke="none"><path fill="#6741d9" d="M -0.12,-1.41 Q -0.12,-1.41 1.28,-1.70 2.68,-1.99 3.95,-2.08 5.21,-2.18 8.56,-1.97 11.90,-1.76 12.11,-1.71 12.32,-1.67 12.50,-1.56 12.69,-1.46 12.83,-1.30 12.97,-1.14 13.05,-0.94 13.13,-0.75 13.15,-0.54 13.16,-0.32 13.11,-0.12 13.06,0.08 12.94,0.26 12.82,0.43 12.66,0.57 12.49,0.70 12.29,0.77 12.09,0.84 11.88,0.84 11.67,0.85 11.46,0.78 11.26,0.72 11.09,0.59 10.92,0.47 10.80,0.29 10.67,0.12 10.61,-0.07 10.55,-0.28 10.56,-0.49 10.57,-0.70 10.64,-0.90 10.72,-1.10 10.85,-1.26 10.99,-1.43 11.17,-1.54 11.35,-1.65 11.55,-1.70 11.76,-1.75 11.97,-1.73 12.18,-1.71 12.38,-1.63 12.57,-1.54 12.73,-1.40 12.89,-1.26 12.99,-1.07 13.09,-0.88 13.13,-0.67 13.17,-0.47 13.14,-0.26 13.11,-0.05 13.01,0.13 12.91,0.32 12.76,0.47 12.61,0.62 12.42,0.71 12.23,0.81 12.02,0.83 11.81,0.86 11.81,0.86 11.81,0.86 8.65,1.07 5.49,1.28 4.24,1.39 2.99,1.49 1.55,1.45 0.12,1.41 -0.04,1.40 -0.21,1.40 -0.38,1.35 -0.54,1.30 -0.69,1.22 -0.84,1.13 -0.96,1.02 -1.09,0.90 -1.18,0.76 -1.27,0.61 -1.33,0.45 -1.38,0.29 -1.40,0.12 -1.41,-0.04 -1.39,-0.21 -1.36,-0.38 -1.29,-0.54 -1.23,-0.70 -1.13,-0.83 -1.02,-0.97 -0.89,-1.08 -0.76,-1.19 -0.61,-1.26 -0.45,-1.34 -0.29,-1.37 -0.12,-1.41 -0.12,-1.41 L -0.12,-1.41 Z"></path></g><g transform="translate(170.74847133774165 10) rotate(0 1.708597931766235 4.199324623042685)" stroke="none"><path fill="#6741d9" d="M 0.94,-1.33 Q 0.94,-1.33 2.01,-0.85 3.07,-0.36 3.82,0.71 4.56,1.79 4.75,2.95 4.94,4.11 4.52,5.19 4.10,6.27 3.06,7.70 2.02,9.14 1.87,9.29 1.72,9.45 1.54,9.54 1.35,9.64 1.14,9.67 0.93,9.71 0.72,9.67 0.51,9.63 0.32,9.53 0.13,9.43 -0.00,9.28 -0.15,9.12 -0.23,8.93 -0.32,8.73 -0.34,8.52 -0.36,8.31 -0.32,8.10 -0.27,7.90 -0.16,7.72 -0.05,7.53 0.11,7.40 0.27,7.26 0.47,7.19 0.67,7.11 0.88,7.10 1.09,7.09 1.30,7.15 1.50,7.21 1.67,7.33 1.85,7.45 1.98,7.62 2.10,7.79 2.17,7.99 2.24,8.19 2.23,8.41 2.23,8.62 2.16,8.82 2.09,9.02 1.96,9.19 1.83,9.36 1.66,9.47 1.48,9.59 1.27,9.65 1.07,9.70 0.86,9.69 0.64,9.67 0.45,9.59 0.25,9.51 0.09,9.37 -0.06,9.23 -0.17,9.05 -0.28,8.87 -0.32,8.66 -0.36,8.45 -0.34,8.24 -0.31,8.03 -0.22,7.84 -0.13,7.65 -0.13,7.65 -0.13,7.65 0.40,6.52 0.94,5.39 0.75,4.16 0.56,2.93 -0.18,2.13 -0.94,1.33 -1.09,1.20 -1.23,1.07 -1.34,0.90 -1.45,0.74 -1.52,0.56 -1.59,0.37 -1.61,0.17 -1.63,-0.01 -1.61,-0.21 -1.58,-0.40 -1.51,-0.59 -1.44,-0.77 -1.32,-0.93 -1.21,-1.09 -1.06,-1.22 -0.91,-1.35 -0.73,-1.44 -0.56,-1.53 -0.37,-1.58 -0.18,-1.62 0.01,-1.62 0.21,-1.62 0.40,-1.57 0.59,-1.52 0.77,-1.43 0.94,-1.33 0.94,-1.33 L 0.94,-1.33 Z"></path></g><g transform="translate(210.10802255334056 67.28004445044735) rotate(0 0.1391638305831293 4.248274642368415)" stroke="none"><path fill="#e8590c" d="M -0.65,1.27 Q -0.65,1.27 -1.32,1.09 -2.00,0.90 -2.83,1.80 -3.67,2.70 -3.99,3.75 -4.31,4.80 -4.31,5.92 -4.31,7.04 -3.11,6.48 -1.91,5.91 -1.51,4.90 -1.12,3.88 -1.12,2.72 -1.12,1.56 -1.17,1.18 -1.22,0.81 -1.16,0.56 -1.11,0.31 -1.00,0.08 -0.88,-0.14 -0.72,-0.33 -0.56,-0.53 -0.35,-0.68 -0.14,-0.83 0.08,-0.93 0.32,-1.02 0.57,-1.06 0.82,-1.10 1.08,-1.07 1.33,-1.05 1.57,-0.96 1.81,-0.88 2.03,-0.74 2.24,-0.60 2.41,-0.42 2.59,-0.23 2.71,-0.01 2.84,0.21 2.90,0.45 2.97,0.70 2.98,0.95 2.98,1.21 3.63,2.15 4.28,3.09 4.92,4.32 5.57,5.55 6.06,6.11 6.55,6.67 6.76,6.68 6.97,6.69 7.17,6.77 7.37,6.85 7.53,6.99 7.69,7.13 7.80,7.31 7.91,7.49 7.95,7.70 7.99,7.91 7.97,8.12 7.95,8.33 7.86,8.52 7.77,8.72 7.62,8.87 7.47,9.02 7.28,9.12 7.10,9.22 6.89,9.25 6.68,9.29 6.47,9.25 6.26,9.22 6.07,9.12 5.88,9.02 5.74,8.86 5.59,8.71 5.50,8.51 5.42,8.32 5.39,8.11 5.37,7.90 5.42,7.69 5.47,7.48 5.58,7.30 5.69,7.12 5.85,6.98 6.01,6.85 6.21,6.77 6.41,6.69 6.62,6.68 6.83,6.67 7.04,6.73 7.24,6.79 7.42,6.91 7.59,7.03 7.72,7.20 7.85,7.37 7.91,7.57 7.98,7.77 7.98,7.98 7.98,8.19 7.91,8.39 7.84,8.60 7.71,8.76 7.58,8.93 7.40,9.05 7.23,9.17 7.02,9.22 6.82,9.28 6.82,9.28 6.82,9.28 4.29,8.77 1.77,8.26 1.08,7.16 0.38,6.06 -0.23,4.55 -0.85,3.05 -1.04,1.93 -1.22,0.81 -1.16,0.56 -1.11,0.31 -1.00,0.08 -0.88,-0.14 -0.72,-0.33 -0.56,-0.53 -0.35,-0.68 -0.14,-0.83 0.08,-0.93 0.32,-1.02 0.57,-1.06 0.82,-1.10 1.08,-1.07 1.33,-1.05 1.57,-0.97 1.81,-0.88 2.03,-0.74 2.24,-0.60 2.41,-0.42 2.59,-0.23 2.71,-0.01 2.84,0.21 2.90,0.45 2.97,0.70 2.98,0.95 2.98,1.21 2.79,1.90 2.60,2.60 2.37,3.69 2.14,4.78 1.71,5.92 1.28,7.07 0.37,8.28 -0.53,9.49 -1.67,10.29 -2.80,11.08 -3.88,11.16 -4.96,11.24 -6.23,10.16 -7.51,9.07 -7.87,7.78 -8.24,6.49 -8.09,5.21 -7.93,3.92 -7.34,2.33 -6.74,0.74 -6.05,-0.10 -5.37,-0.95 -4.29,-1.63 -3.22,-2.31 -1.85,-2.24 -0.48,-2.17 0.08,-1.72 0.65,-1.27 0.79,-1.17 0.93,-1.08 1.05,-0.95 1.16,-0.82 1.25,-0.67 1.33,-0.52 1.37,-0.35 1.41,-0.18 1.42,-0.01 1.42,0.15 1.38,0.32 1.34,0.49 1.26,0.64 1.18,0.80 1.07,0.93 0.96,1.06 0.82,1.16 0.67,1.26 0.51,1.32 0.35,1.38 0.18,1.40 0.01,1.43 -0.15,1.41 -0.32,1.39 -0.48,1.33 -0.65,1.27 -0.65,1.27 L -0.65,1.27 Z"></path></g><g transform="translate(201.78151683021497 60.07720815387802) rotate(0 5.4736949454172645 -0.6223807822252638)" stroke="none"><path fill="#e8590c" d="M -0.13,-1.51 Q -0.13,-1.51 1.21,-1.93 2.57,-2.34 3.93,-2.40 5.29,-2.46 6.43,-2.43 7.56,-2.41 9.46,-2.47 11.35,-2.54 11.57,-2.54 11.78,-2.54 11.98,-2.47 12.18,-2.40 12.35,-2.27 12.52,-2.14 12.64,-1.97 12.76,-1.79 12.82,-1.59 12.87,-1.38 12.86,-1.17 12.85,-0.96 12.77,-0.76 12.69,-0.56 12.56,-0.40 12.42,-0.24 12.24,-0.13 12.06,-0.02 11.85,0.02 11.64,0.06 11.43,0.04 11.22,0.02 11.03,-0.06 10.83,-0.15 10.68,-0.30 10.52,-0.44 10.42,-0.63 10.32,-0.82 10.29,-1.03 10.26,-1.24 10.29,-1.45 10.32,-1.66 10.42,-1.85 10.52,-2.03 10.68,-2.18 10.83,-2.33 11.02,-2.42 11.22,-2.50 11.43,-2.53 11.64,-2.55 11.85,-2.51 12.05,-2.46 12.24,-2.35 12.42,-2.24 12.56,-2.08 12.69,-1.92 12.77,-1.72 12.85,-1.52 12.86,-1.31 12.87,-1.10 12.82,-0.89 12.76,-0.69 12.64,-0.51 12.52,-0.34 12.35,-0.21 12.18,-0.08 11.98,-0.01 11.78,0.05 11.78,0.05 11.78,0.05 9.84,0.50 7.90,0.95 6.78,1.20 5.66,1.45 4.31,1.64 2.96,1.84 1.54,1.67 0.13,1.51 -0.04,1.50 -0.22,1.50 -0.40,1.45 -0.58,1.40 -0.74,1.31 -0.90,1.22 -1.03,1.09 -1.16,0.97 -1.26,0.82 -1.36,0.66 -1.42,0.49 -1.48,0.31 -1.50,0.13 -1.51,-0.04 -1.49,-0.22 -1.46,-0.40 -1.39,-0.57 -1.32,-0.74 -1.21,-0.89 -1.10,-1.04 -0.96,-1.15 -0.82,-1.27 -0.66,-1.35 -0.49,-1.43 -0.31,-1.47 -0.13,-1.51 -0.13,-1.51 L -0.13,-1.51 Z"></path></g><g transform="translate(210.20079095031542 55.20305298898438) rotate(0 2.296172308052519 3.62939079166199)" stroke="none"><path d="M0 0 C0.75 0.35, 3.68 1.51, 4.48 2.08 C5.29 2.65, 5.12 2.55, 4.83 3.42 C4.54 4.29, 3.11 6.65, 2.76 7.29" stroke="none" stroke-width="0" fill="#ffffff" fill-rule="evenodd"></path><path fill="#e8590c" d="M 0.58,-1.55 Q 0.58,-1.55 1.78,-1.45 2.97,-1.34 4.64,0.25 6.30,1.85 5.12,4.85 3.94,7.86 3.82,8.03 3.69,8.21 3.52,8.33 3.35,8.46 3.15,8.52 2.95,8.59 2.73,8.58 2.52,8.58 2.32,8.51 2.12,8.44 1.95,8.31 1.79,8.18 1.67,8.00 1.55,7.82 1.50,7.61 1.45,7.41 1.46,7.20 1.48,6.98 1.56,6.79 1.64,6.59 1.78,6.43 1.92,6.27 2.11,6.17 2.29,6.06 2.50,6.02 2.71,5.98 2.92,6.00 3.13,6.03 3.32,6.12 3.51,6.21 3.66,6.36 3.81,6.51 3.91,6.70 4.01,6.89 4.04,7.10 4.07,7.31 4.03,7.52 3.99,7.73 3.89,7.92 3.79,8.10 3.63,8.25 3.47,8.39 3.28,8.47 3.08,8.56 2.87,8.58 2.66,8.60 2.45,8.55 2.25,8.50 2.07,8.39 1.89,8.27 1.75,8.11 1.62,7.95 1.54,7.75 1.47,7.55 1.46,7.34 1.45,7.12 1.51,6.92 1.57,6.72 1.57,6.72 1.57,6.72 1.45,4.85 1.33,2.98 0.37,2.27 -0.58,1.55 -0.76,1.46 -0.94,1.37 -1.09,1.23 -1.24,1.10 -1.36,0.94 -1.47,0.77 -1.54,0.58 -1.61,0.39 -1.64,0.20 -1.66,0.00 -1.64,-0.19 -1.61,-0.39 -1.54,-0.58 -1.47,-0.77 -1.36,-0.93 -1.24,-1.10 -1.09,-1.23 -0.94,-1.37 -0.76,-1.46 -0.59,-1.55 -0.39,-1.60 -0.20,-1.65 -0.00,-1.65 0.20,-1.65 0.39,-1.60 0.59,-1.55 0.59,-1.55 L 0.58,-1.55 Z"></path></g><g transform="translate(221.40366750061003 68.65859945747707) rotate(0 3.3940009555080906 -0.5559475096911228)" stroke="none"><path fill="#e8590c" d="M -0.30,-1.62 Q -0.30,-1.62 0.71,-2.03 1.74,-2.44 4.17,-2.48 6.61,-2.51 6.82,-2.51 7.04,-2.50 7.24,-2.43 7.43,-2.35 7.60,-2.22 7.76,-2.08 7.88,-1.90 7.99,-1.73 8.04,-1.52 8.09,-1.31 8.07,-1.10 8.06,-0.89 7.97,-0.69 7.89,-0.50 7.74,-0.34 7.60,-0.18 7.42,-0.08 7.23,0.01 7.02,0.05 6.81,0.09 6.60,0.06 6.39,0.03 6.20,-0.05 6.01,-0.15 5.86,-0.30 5.71,-0.45 5.62,-0.64 5.53,-0.83 5.50,-1.04 5.47,-1.25 5.51,-1.46 5.55,-1.67 5.66,-1.86 5.76,-2.04 5.92,-2.18 6.08,-2.32 6.28,-2.40 6.47,-2.49 6.68,-2.50 6.90,-2.52 7.10,-2.47 7.31,-2.42 7.49,-2.30 7.66,-2.19 7.80,-2.02 7.93,-1.85 8.00,-1.65 8.07,-1.45 8.08,-1.24 8.08,-1.03 8.02,-0.83 7.96,-0.62 7.83,-0.45 7.71,-0.28 7.53,-0.16 7.36,-0.03 7.16,0.02 6.95,0.08 6.95,0.08 6.95,0.08 4.73,0.85 2.51,1.63 1.41,1.62 0.30,1.62 0.11,1.63 -0.08,1.64 -0.28,1.61 -0.48,1.58 -0.66,1.50 -0.84,1.41 -1.00,1.29 -1.15,1.17 -1.28,1.02 -1.40,0.86 -1.49,0.68 -1.57,0.50 -1.61,0.30 -1.64,0.11 -1.63,-0.08 -1.62,-0.28 -1.56,-0.47 -1.51,-0.66 -1.40,-0.83 -1.30,-1.00 -1.16,-1.15 -1.02,-1.29 -0.85,-1.39 -0.68,-1.50 -0.49,-1.56 -0.30,-1.62 -0.30,-1.62 L -0.30,-1.62 Z"></path></g><g transform="translate(233.80452257006618 60.73547953125126) rotate(0 4.422244878890524 6.017516950392746)" stroke="none"><path fill="#e8590c" d="M 1.36,-0.51 Q 1.36,-0.51 2.04,0.30 2.71,1.12 3.17,2.75 3.62,4.39 3.81,5.56 3.99,6.73 3.94,7.61 3.90,8.50 3.88,8.75 3.85,8.99 3.77,9.23 3.69,9.46 3.56,9.67 3.43,9.88 3.25,10.04 3.07,10.21 2.85,10.34 2.64,10.46 2.40,10.53 2.16,10.59 1.92,10.60 1.67,10.61 1.43,10.56 1.19,10.51 0.97,10.40 0.74,10.29 0.55,10.13 0.36,9.98 0.22,9.78 0.07,9.58 -0.02,9.35 -0.11,9.12 -0.15,8.88 -0.19,8.64 -0.01,7.31 0.15,5.98 0.88,4.54 1.62,3.10 2.54,2.47 3.46,1.84 4.93,1.85 6.41,1.86 7.49,2.53 8.58,3.19 9.37,4.07 10.17,4.95 10.62,6.26 11.07,7.58 10.95,8.85 10.84,10.13 9.84,11.47 8.85,12.81 7.34,13.48 5.83,14.14 2.91,12.54 -0.01,10.95 -0.13,10.78 -0.26,10.61 -0.33,10.40 -0.39,10.20 -0.39,9.99 -0.38,9.78 -0.31,9.58 -0.24,9.38 -0.11,9.21 0.01,9.04 0.19,8.92 0.37,8.81 0.57,8.75 0.78,8.70 0.99,8.72 1.20,8.73 1.40,8.81 1.59,8.89 1.75,9.03 1.91,9.18 2.02,9.36 2.13,9.54 2.17,9.75 2.21,9.96 2.19,10.17 2.16,10.38 2.07,10.57 1.97,10.76 1.83,10.92 1.68,11.07 1.49,11.16 1.30,11.26 1.09,11.29 0.88,11.32 0.67,11.28 0.46,11.25 0.27,11.14 0.09,11.04 -0.05,10.88 -0.19,10.73 -0.28,10.53 -0.36,10.34 -0.38,10.13 -0.40,9.92 -0.35,9.71 -0.30,9.50 -0.19,9.32 -0.08,9.14 0.08,9.01 0.24,8.87 0.44,8.80 0.64,8.72 0.85,8.71 1.06,8.71 1.27,8.77 1.47,8.83 1.64,8.95 1.82,9.07 1.82,9.07 1.82,9.07 3.45,9.29 5.07,9.51 5.68,8.50 6.28,7.50 5.22,6.90 4.17,6.29 4.03,7.40 3.90,8.50 3.88,8.75 3.85,8.99 3.77,9.23 3.69,9.46 3.56,9.67 3.43,9.87 3.25,10.04 3.07,10.21 2.85,10.34 2.64,10.46 2.40,10.53 2.16,10.59 1.92,10.60 1.67,10.61 1.43,10.56 1.19,10.51 0.97,10.40 0.74,10.29 0.55,10.13 0.36,9.98 0.22,9.78 0.07,9.58 -0.01,9.35 -0.11,9.12 -0.15,8.88 -0.19,8.64 -0.22,8.24 -0.26,7.85 -0.42,6.63 -0.59,5.41 -0.94,4.02 -1.29,2.63 -1.33,1.57 -1.36,0.51 -1.40,0.34 -1.45,0.17 -1.45,-0.00 -1.45,-0.17 -1.40,-0.35 -1.36,-0.52 -1.28,-0.67 -1.20,-0.83 -1.08,-0.96 -0.96,-1.09 -0.82,-1.19 -0.67,-1.29 -0.51,-1.35 -0.34,-1.42 -0.17,-1.44 0.00,-1.46 0.17,-1.44 0.35,-1.41 0.51,-1.35 0.68,-1.29 0.82,-1.19 0.97,-1.09 1.08,-0.95 1.20,-0.82 1.28,-0.67 1.36,-0.51 1.36,-0.51 L 1.36,-0.51 Z"></path></g><g transform="translate(231.6475140925977 54.88229589204275) rotate(0 6.656562226358801 -0.20979061216166883)" stroke="none"><path fill="#e8590c" d="M -0.13,-1.55 Q -0.13,-1.55 1.11,-2.01 2.35,-2.46 3.43,-2.52 4.52,-2.59 6.69,-2.54 8.85,-2.49 11.13,-1.91 13.40,-1.34 13.61,-1.29 13.81,-1.24 13.99,-1.13 14.18,-1.02 14.31,-0.85 14.44,-0.69 14.52,-0.49 14.60,-0.29 14.60,-0.08 14.61,0.12 14.55,0.33 14.49,0.53 14.37,0.71 14.25,0.88 14.07,1.00 13.90,1.13 13.70,1.20 13.50,1.26 13.29,1.26 13.07,1.25 12.87,1.18 12.67,1.11 12.51,0.98 12.34,0.85 12.22,0.67 12.11,0.49 12.05,0.29 12.00,0.08 12.02,-0.12 12.03,-0.33 12.11,-0.53 12.19,-0.73 12.33,-0.89 12.48,-1.05 12.66,-1.15 12.84,-1.26 13.05,-1.30 13.26,-1.34 13.47,-1.32 13.68,-1.29 13.87,-1.20 14.06,-1.10 14.22,-0.96 14.37,-0.81 14.46,-0.62 14.56,-0.43 14.59,-0.22 14.62,-0.01 14.58,0.19 14.55,0.40 14.44,0.59 14.34,0.77 14.18,0.92 14.03,1.06 13.83,1.15 13.64,1.23 13.43,1.25 13.21,1.27 13.21,1.27 13.21,1.27 9.94,1.57 6.66,1.87 4.70,1.95 2.74,2.02 1.44,1.78 0.13,1.55 -0.05,1.55 -0.24,1.54 -0.42,1.49 -0.60,1.44 -0.76,1.34 -0.93,1.25 -1.06,1.12 -1.20,0.99 -1.30,0.83 -1.40,0.67 -1.47,0.50 -1.53,0.32 -1.54,0.13 -1.56,-0.05 -1.53,-0.24 -1.50,-0.42 -1.43,-0.60 -1.35,-0.77 -1.24,-0.92 -1.13,-1.07 -0.98,-1.19 -0.84,-1.31 -0.67,-1.39 -0.50,-1.48 -0.31,-1.51 -0.13,-1.55 -0.13,-1.55 L -0.13,-1.55 Z"></path></g><g transform="translate(239.98947934269927 49.76338922613104) rotate(0 3.1118140301559833 4.629395237534482)" stroke="none"><path fill="#e8590c" d="M 0.62,-1.40 Q 0.62,-1.40 1.80,-1.33 2.99,-1.27 4.48,-0.53 5.96,0.20 7.10,1.76 8.23,3.33 8.13,4.50 8.03,5.68 7.37,6.58 6.70,7.49 4.72,8.85 2.73,10.22 2.55,10.33 2.37,10.45 2.17,10.51 1.96,10.56 1.75,10.55 1.54,10.53 1.34,10.45 1.15,10.37 0.98,10.23 0.82,10.09 0.72,9.91 0.61,9.73 0.57,9.52 0.52,9.31 0.55,9.10 0.57,8.89 0.67,8.70 0.76,8.50 0.90,8.35 1.05,8.20 1.24,8.10 1.43,8.00 1.64,7.97 1.85,7.94 2.06,7.98 2.27,8.01 2.46,8.12 2.64,8.22 2.79,8.37 2.93,8.53 3.02,8.72 3.10,8.92 3.12,9.13 3.15,9.34 3.10,9.55 3.05,9.75 2.94,9.93 2.83,10.12 2.66,10.25 2.50,10.39 2.30,10.46 2.10,10.54 1.89,10.55 1.68,10.56 1.47,10.50 1.27,10.44 1.10,10.32 0.92,10.20 0.79,10.03 0.67,9.86 0.60,9.65 0.54,9.45 0.54,9.24 0.54,9.03 0.61,8.83 0.68,8.63 0.81,8.46 0.94,8.29 0.94,8.29 0.94,8.29 2.22,6.34 3.49,4.39 2.27,3.73 1.05,3.07 0.21,2.23 -0.62,1.40 -0.78,1.30 -0.94,1.21 -1.07,1.08 -1.20,0.95 -1.30,0.79 -1.39,0.63 -1.45,0.45 -1.50,0.28 -1.52,0.09 -1.53,-0.08 -1.50,-0.26 -1.46,-0.45 -1.39,-0.62 -1.31,-0.78 -1.20,-0.93 -1.08,-1.08 -0.94,-1.19 -0.79,-1.31 -0.63,-1.38 -0.46,-1.46 -0.28,-1.49 -0.09,-1.53 0.08,-1.52 0.27,-1.51 0.44,-1.45 0.62,-1.40 0.62,-1.40 L 0.62,-1.40 Z"></path></g><g transform="translate(230.49115046291445 101.10962961536006) rotate(0 0.12369868604855583 3.034982652814051)" stroke="none"><path d="M0 0 C-0.39 -0.26, -1.61 -1.59, -2.31 -1.57 C-3.01 -1.55, -3.76 -0.93, -4.21 0.11 C-4.67 1.15, -5.15 3.47, -5.05 4.68 C-4.95 5.88, -4.05 6.84, -3.63 7.34 C-3.22 7.83, -3.2 8.01, -2.57 7.64 C-1.94 7.26, -0.51 6.24, 0.15 5.1 C0.82 3.96, 0.93 0.81, 1.41 0.81 C1.89 0.81, 2.38 4.34, 3.03 5.1 C3.68 5.85, 4.92 5.3, 5.3 5.34" stroke="none" stroke-width="0" fill="#ffffff" fill-rule="evenodd"></path><path fill="#1e1e1e" d="M -0.89,1.04 Q -0.89,1.04 -1.49,0.72 -2.10,0.41 -2.62,1.35 -3.14,2.29 -2.99,3.69 -2.85,5.09 -1.94,4.38 -1.02,3.66 -0.83,2.47 -0.64,1.28 -0.72,1.05 -0.80,0.82 -0.75,0.55 -0.70,0.28 -0.60,0.03 -0.49,-0.21 -0.32,-0.42 -0.15,-0.64 0.05,-0.81 0.26,-0.98 0.51,-1.10 0.76,-1.21 1.02,-1.27 1.29,-1.32 1.56,-1.31 1.84,-1.29 2.10,-1.21 2.36,-1.14 2.59,-1.00 2.83,-0.86 3.03,-0.67 3.22,-0.48 3.36,-0.25 3.51,-0.02 3.59,0.23 3.68,0.49 3.70,0.77 3.72,1.04 5.10,2.92 6.49,4.80 6.54,4.95 6.58,5.10 6.59,5.26 6.60,5.41 6.57,5.57 6.54,5.73 6.48,5.87 6.41,6.01 6.31,6.14 6.22,6.26 6.09,6.36 5.97,6.46 5.82,6.52 5.68,6.59 5.52,6.61 5.37,6.64 5.21,6.63 5.05,6.62 4.90,6.57 4.75,6.53 4.61,6.44 4.48,6.36 4.37,6.25 4.25,6.14 4.17,6.00 4.09,5.87 4.58,4.95 5.07,4.04 5.28,4.03 5.49,4.03 5.69,4.10 5.89,4.16 6.07,4.29 6.24,4.42 6.36,4.59 6.48,4.77 6.54,4.97 6.60,5.18 6.59,5.39 6.58,5.60 6.50,5.80 6.42,6.00 6.29,6.16 6.15,6.32 5.97,6.43 5.79,6.55 5.58,6.59 5.37,6.64 5.16,6.62 4.95,6.60 4.76,6.51 4.56,6.42 4.41,6.28 4.25,6.14 4.15,5.95 4.05,5.76 4.01,5.55 3.98,5.34 4.01,5.13 4.04,4.92 4.14,4.73 4.24,4.55 4.39,4.40 4.54,4.25 4.74,4.16 4.93,4.07 5.14,4.04 5.35,4.02 5.56,4.06 5.77,4.11 5.95,4.21 6.13,4.32 6.27,4.48 6.41,4.64 6.49,4.84 6.57,5.04 6.58,5.25 6.60,5.46 6.54,5.67 6.49,5.87 6.37,6.05 6.25,6.22 6.08,6.36 5.92,6.49 6.20,5.64 6.49,4.80 6.54,4.95 6.58,5.10 6.59,5.26 6.60,5.41 6.57,5.57 6.54,5.73 6.48,5.87 6.41,6.01 6.31,6.14 6.22,6.26 6.09,6.36 5.97,6.46 5.82,6.52 5.68,6.59 5.52,6.61 5.37,6.64 5.21,6.63 5.05,6.62 4.90,6.57 4.75,6.53 4.61,6.44 4.48,6.36 4.37,6.25 4.25,6.14 4.17,6.00 4.09,5.87 1.92,4.88 -0.23,3.89 -0.51,2.35 -0.80,0.82 -0.75,0.55 -0.70,0.28 -0.60,0.03 -0.49,-0.21 -0.32,-0.42 -0.16,-0.64 0.05,-0.81 0.26,-0.98 0.51,-1.10 0.76,-1.21 1.02,-1.27 1.29,-1.32 1.56,-1.31 1.84,-1.29 2.10,-1.21 2.36,-1.14 2.59,-1.00 2.83,-0.86 3.02,-0.67 3.22,-0.48 3.36,-0.25 3.51,-0.02 3.59,0.23 3.68,0.49 3.70,0.77 3.72,1.04 3.49,2.10 3.26,3.16 2.77,4.14 2.28,5.13 1.31,6.29 0.34,7.44 -0.70,8.24 -1.75,9.03 -3.32,8.75 -4.88,8.47 -5.55,7.37 -6.21,6.27 -6.49,4.78 -6.76,3.28 -6.49,1.85 -6.22,0.42 -5.49,-0.75 -4.76,-1.93 -3.64,-2.50 -2.52,-3.08 -1.22,-2.61 0.07,-2.14 0.48,-1.59 0.89,-1.04 1.00,-0.92 1.11,-0.80 1.19,-0.65 1.27,-0.51 1.31,-0.35 1.35,-0.19 1.36,-0.02 1.36,0.13 1.32,0.30 1.29,0.46 1.21,0.61 1.14,0.75 1.03,0.88 0.92,1.01 0.79,1.10 0.66,1.20 0.50,1.26 0.35,1.32 0.18,1.34 0.02,1.37 -0.13,1.35 -0.30,1.33 -0.45,1.28 -0.61,1.22 -0.75,1.13 -0.89,1.04 -0.89,1.04 L -0.89,1.04 Z"></path></g><g transform="translate(224.3448425077222 95.44526342553581) rotate(0 5.663107856233182 -0.552450578171829)" stroke="none"><path fill="#1e1e1e" d="M -0.17,-1.40 Q -0.17,-1.40 0.72,-1.93 1.61,-2.46 3.40,-2.64 5.19,-2.82 8.16,-2.61 11.13,-2.40 11.34,-2.40 11.55,-2.39 11.75,-2.32 11.95,-2.25 12.12,-2.12 12.29,-1.99 12.41,-1.81 12.52,-1.63 12.58,-1.43 12.63,-1.22 12.61,-1.01 12.60,-0.80 12.52,-0.60 12.44,-0.41 12.30,-0.25 12.16,-0.09 11.97,0.01 11.79,0.12 11.58,0.16 11.37,0.20 11.16,0.18 10.95,0.15 10.76,0.06 10.57,-0.02 10.42,-0.17 10.26,-0.32 10.17,-0.51 10.07,-0.70 10.04,-0.91 10.01,-1.12 10.05,-1.33 10.08,-1.54 10.19,-1.73 10.29,-1.91 10.45,-2.05 10.60,-2.20 10.80,-2.28 10.99,-2.37 11.20,-2.39 11.41,-2.41 11.62,-2.36 11.83,-2.31 12.01,-2.20 12.19,-2.09 12.32,-1.92 12.46,-1.76 12.53,-1.56 12.61,-1.36 12.62,-1.15 12.62,-0.94 12.56,-0.73 12.50,-0.53 12.38,-0.36 12.26,-0.18 12.09,-0.06 11.92,0.06 11.72,0.12 11.51,0.19 11.51,0.19 11.51,0.19 8.57,0.92 5.62,1.65 3.89,1.83 2.15,2.00 1.16,1.70 0.17,1.40 0.00,1.40 -0.17,1.40 -0.33,1.36 -0.50,1.32 -0.65,1.24 -0.80,1.16 -0.93,1.05 -1.06,0.94 -1.15,0.79 -1.25,0.65 -1.31,0.49 -1.37,0.33 -1.39,0.16 -1.41,0.00 -1.39,-0.16 -1.37,-0.33 -1.31,-0.49 -1.25,-0.65 -1.15,-0.79 -1.06,-0.93 -0.93,-1.05 -0.80,-1.16 -0.65,-1.24 -0.50,-1.32 -0.33,-1.36 -0.17,-1.40 -0.17,-1.40 L -0.17,-1.40 Z"></path></g><g transform="translate(233.73052806086343 92.20748121481847) rotate(0 1.298841821062524 2.653859248867775)" stroke="none"><path d="M0 0 C0.46 0.43, 2.63 1.7, 2.74 2.59 C2.84 3.47, 0.98 4.87, 0.63 5.32" stroke="none" stroke-width="0" fill="#ffffff" fill-rule="evenodd"></path><path fill="#1e1e1e" d="M 0.87,-1.27 Q 0.87,-1.27 1.91,-1.16 2.94,-1.04 3.65,-0.07 4.35,0.90 3.01,3.51 1.68,6.11 1.52,6.26 1.37,6.40 1.17,6.49 0.98,6.58 0.77,6.60 0.56,6.63 0.35,6.58 0.14,6.54 -0.03,6.43 -0.21,6.32 -0.35,6.16 -0.49,6.00 -0.56,5.80 -0.64,5.60 -0.66,5.39 -0.67,5.18 -0.61,4.97 -0.55,4.77 -0.43,4.59 -0.32,4.41 -0.15,4.29 0.01,4.16 0.21,4.09 0.41,4.02 0.63,4.02 0.84,4.02 1.04,4.09 1.24,4.16 1.41,4.28 1.58,4.41 1.70,4.59 1.82,4.76 1.88,4.97 1.93,5.17 1.92,5.39 1.91,5.60 1.83,5.79 1.76,5.99 1.62,6.15 1.48,6.32 1.30,6.43 1.12,6.54 0.91,6.58 0.70,6.63 0.49,6.61 0.28,6.58 0.09,6.49 -0.10,6.40 -0.25,6.26 -0.41,6.11 -0.51,5.93 -0.61,5.74 -0.64,5.53 -0.67,5.32 -0.64,5.11 -0.61,4.90 -0.51,4.71 -0.41,4.52 -0.41,4.52 -0.41,4.52 -0.18,3.81 0.03,3.09 -0.41,2.18 -0.87,1.27 -1.01,1.15 -1.15,1.03 -1.26,0.87 -1.36,0.72 -1.43,0.55 -1.50,0.37 -1.52,0.19 -1.54,0.00 -1.52,-0.17 -1.50,-0.36 -1.44,-0.53 -1.37,-0.71 -1.27,-0.86 -1.16,-1.02 -1.02,-1.14 -0.88,-1.27 -0.72,-1.35 -0.55,-1.44 -0.37,-1.49 -0.19,-1.53 -0.00,-1.53 0.18,-1.53 0.36,-1.49 0.54,-1.45 0.70,-1.36 0.87,-1.27 0.87,-1.27 L 0.87,-1.27 Z"></path></g><g transform="translate(106.61373610470218 111.70309633106808) rotate(0 0.5218601515207411 5.1888396787462625)" stroke="none"><path fill="#1e1e1e" d="M 1.40,-0.07 Q 1.40,-0.07 1.72,0.31 2.04,0.69 2.30,1.96 2.56,3.23 2.79,4.75 3.01,6.27 2.76,8.96 2.50,11.64 2.47,11.85 2.43,12.06 2.34,12.25 2.24,12.44 2.08,12.59 1.93,12.73 1.74,12.82 1.55,12.92 1.33,12.94 1.12,12.96 0.92,12.92 0.71,12.88 0.53,12.77 0.34,12.66 0.20,12.50 0.07,12.34 -0.00,12.14 -0.08,11.94 -0.10,11.73 -0.11,11.52 -0.06,11.31 -0.00,11.11 0.11,10.93 0.23,10.76 0.39,10.63 0.56,10.50 0.76,10.43 0.96,10.36 1.18,10.36 1.39,10.35 1.59,10.42 1.79,10.49 1.96,10.62 2.13,10.74 2.25,10.92 2.37,11.09 2.43,11.30 2.49,11.50 2.48,11.71 2.47,11.93 2.39,12.12 2.32,12.32 2.18,12.48 2.04,12.65 1.86,12.76 1.68,12.87 1.47,12.92 1.27,12.96 1.05,12.94 0.84,12.92 0.65,12.83 0.46,12.74 0.30,12.60 0.15,12.45 0.04,12.27 -0.05,12.08 -0.08,11.87 -0.12,11.66 -0.12,11.66 -0.12,11.66 -0.61,9.22 -1.09,6.79 -1.35,5.04 -1.60,3.29 -1.78,2.09 -1.96,0.90 -1.68,0.48 -1.40,0.07 -1.38,-0.09 -1.37,-0.26 -1.32,-0.42 -1.27,-0.58 -1.18,-0.73 -1.09,-0.87 -0.97,-0.99 -0.85,-1.11 -0.70,-1.19 -0.56,-1.28 -0.40,-1.33 -0.23,-1.38 -0.06,-1.39 0.09,-1.39 0.26,-1.36 0.43,-1.33 0.58,-1.26 0.73,-1.19 0.87,-1.08 1.00,-0.98 1.10,-0.84 1.20,-0.71 1.27,-0.55 1.34,-0.40 1.37,-0.23 1.40,-0.06 1.40,-0.06 L 1.40,-0.07 Z"></path></g><g transform="translate(109.25780956287599 118.17166688946236) rotate(0 2.9030654755006253 1.346158534622191)" stroke="none"><path d="M0 0 C0.23 -0.33, 0.75 -1.57, 1.36 -1.95 C1.97 -2.33, 2.97 -2.51, 3.66 -2.3 C4.34 -2.09, 5.09 -1.41, 5.46 -0.67 C5.83 0.06, 6.12 1.24, 5.86 2.1 C5.6 2.97, 4.86 4.03, 3.87 4.52 C2.89 5, 0.6 4.92, -0.05 5" stroke="none" stroke-width="0" fill="#ffffff" fill-rule="evenodd"></path><path fill="#1e1e1e" d="M -1.06,-0.91 Q -1.06,-0.91 -0.66,-1.74 -0.27,-2.56 0.73,-3.30 1.74,-4.05 3.10,-3.96 4.46,-3.87 5.41,-3.18 6.37,-2.48 6.94,-1.45 7.50,-0.42 7.55,1.28 7.59,2.98 6.71,4.21 5.83,5.45 2.85,5.88 -0.12,6.31 -0.33,6.26 -0.53,6.22 -0.72,6.11 -0.90,6.00 -1.04,5.84 -1.17,5.67 -1.25,5.48 -1.33,5.28 -1.34,5.07 -1.35,4.85 -1.30,4.65 -1.24,4.45 -1.12,4.27 -1.00,4.09 -0.83,3.96 -0.67,3.84 -0.46,3.77 -0.26,3.70 -0.05,3.70 0.15,3.70 0.35,3.77 0.55,3.83 0.72,3.96 0.89,4.09 1.01,4.27 1.13,4.44 1.19,4.65 1.25,4.85 1.24,5.06 1.22,5.28 1.15,5.47 1.07,5.67 0.93,5.83 0.79,5.99 0.61,6.10 0.43,6.21 0.22,6.26 0.01,6.31 -0.19,6.28 -0.40,6.26 -0.59,6.17 -0.78,6.08 -0.94,5.94 -1.09,5.79 -1.19,5.60 -1.29,5.42 -1.33,5.21 -1.36,5.00 -1.33,4.79 -1.29,4.58 -1.19,4.39 -1.10,4.20 -0.94,4.06 -0.79,3.91 -0.59,3.82 -0.40,3.73 -0.19,3.71 0.01,3.68 0.01,3.68 0.01,3.68 1.92,2.69 3.82,1.70 3.20,0.80 2.57,-0.10 1.81,0.40 1.06,0.91 0.93,1.02 0.81,1.14 0.66,1.22 0.51,1.30 0.35,1.34 0.18,1.39 0.01,1.39 -0.15,1.39 -0.31,1.35 -0.47,1.31 -0.63,1.24 -0.78,1.16 -0.90,1.05 -1.03,0.94 -1.13,0.80 -1.23,0.66 -1.29,0.51 -1.35,0.35 -1.37,0.18 -1.40,0.01 -1.38,-0.14 -1.36,-0.31 -1.30,-0.47 -1.25,-0.63 -1.15,-0.77 -1.06,-0.91 -1.06,-0.91 L -1.06,-0.91 Z"></path></g><g transform="translate(104.7969046314247 105.82194285726291) rotate(0 5.1876375207621095 -0.006991054259287921)" stroke="none"><path fill="#1e1e1e" d="M -0.00,-1.40 Q -0.00,-1.40 1.43,-1.59 2.87,-1.78 4.93,-1.74 6.98,-1.71 8.70,-1.49 10.41,-1.28 10.62,-1.24 10.83,-1.20 11.01,-1.09 11.20,-0.99 11.34,-0.83 11.48,-0.67 11.56,-0.48 11.65,-0.28 11.66,-0.07 11.68,0.13 11.63,0.34 11.58,0.54 11.46,0.72 11.35,0.90 11.18,1.04 11.01,1.17 10.81,1.24 10.61,1.31 10.40,1.32 10.19,1.32 9.99,1.26 9.78,1.20 9.61,1.07 9.44,0.95 9.32,0.78 9.19,0.60 9.13,0.40 9.07,0.20 9.07,-0.01 9.08,-0.22 9.15,-0.42 9.23,-0.62 9.36,-0.78 9.50,-0.95 9.68,-1.06 9.85,-1.17 10.06,-1.23 10.27,-1.28 10.48,-1.26 10.69,-1.24 10.89,-1.16 11.08,-1.07 11.24,-0.93 11.40,-0.79 11.50,-0.60 11.60,-0.42 11.64,-0.21 11.68,-0.00 11.65,0.20 11.62,0.41 11.53,0.60 11.43,0.79 11.28,0.94 11.13,1.09 10.94,1.19 10.75,1.28 10.54,1.31 10.33,1.34 10.33,1.34 10.33,1.34 8.70,1.44 7.07,1.55 4.98,1.65 2.89,1.75 1.45,1.57 0.00,1.40 -0.16,1.38 -0.32,1.36 -0.48,1.30 -0.64,1.24 -0.78,1.15 -0.92,1.05 -1.03,0.92 -1.14,0.80 -1.22,0.65 -1.30,0.50 -1.35,0.34 -1.39,0.17 -1.39,0.00 -1.39,-0.16 -1.35,-0.32 -1.31,-0.49 -1.23,-0.64 -1.15,-0.79 -1.04,-0.91 -0.93,-1.04 -0.79,-1.14 -0.65,-1.23 -0.50,-1.29 -0.34,-1.36 -0.17,-1.38 -0.00,-1.40 -0.00,-1.40 L -0.00,-1.40 Z"></path></g><g transform="translate(114.06662126200536 103.40234712363417) rotate(0 1.8902754615337471 2.6783377695060153)" stroke="none"><path d="M0 0 C0.63 0.4, 3.56 1.5, 3.8 2.41 C4.04 3.33, 1.84 4.98, 1.45 5.49" stroke="none" stroke-width="0" fill="#ffffff" fill-rule="evenodd"></path><path fill="#1e1e1e" d="M 0.71,-1.34 Q 0.71,-1.34 1.83,-1.22 2.96,-1.10 4.23,0.37 5.50,1.84 3.95,4.11 2.40,6.38 2.23,6.51 2.06,6.64 1.86,6.71 1.66,6.78 1.45,6.78 1.23,6.78 1.03,6.71 0.83,6.65 0.66,6.52 0.49,6.39 0.37,6.22 0.25,6.04 0.19,5.84 0.14,5.63 0.15,5.42 0.16,5.21 0.24,5.01 0.31,4.81 0.45,4.65 0.59,4.49 0.77,4.38 0.95,4.27 1.16,4.22 1.37,4.17 1.58,4.20 1.79,4.22 1.98,4.31 2.17,4.39 2.33,4.54 2.48,4.69 2.58,4.87 2.68,5.06 2.72,5.27 2.75,5.48 2.72,5.69 2.69,5.90 2.59,6.09 2.49,6.28 2.34,6.42 2.18,6.57 1.99,6.66 1.80,6.75 1.59,6.77 1.37,6.80 1.17,6.75 0.96,6.71 0.78,6.60 0.59,6.49 0.46,6.33 0.32,6.17 0.24,5.97 0.16,5.77 0.15,5.56 0.13,5.35 0.19,5.14 0.25,4.94 0.37,4.76 0.48,4.58 0.48,4.58 0.48,4.58 0.60,3.83 0.72,3.07 0.00,2.20 -0.71,1.34 -0.86,1.23 -1.01,1.13 -1.13,0.99 -1.25,0.85 -1.34,0.69 -1.42,0.53 -1.46,0.35 -1.51,0.17 -1.50,-0.00 -1.50,-0.19 -1.46,-0.36 -1.41,-0.54 -1.33,-0.70 -1.24,-0.87 -1.12,-1.00 -1.00,-1.14 -0.85,-1.24 -0.69,-1.35 -0.52,-1.41 -0.35,-1.47 -0.17,-1.49 0.00,-1.52 0.19,-1.49 0.37,-1.47 0.54,-1.40 0.71,-1.34 0.71,-1.34 L 0.71,-1.34 Z"></path></g><g transform="translate(170.4193496929347 102.73530673405094) rotate(0 1.6158182996696269 3.3217001408502256)" stroke="none"><path d="M0 0 C-0.38 0.4, -1.94 1.4, -2.29 2.4 C-2.63 3.4, -2.54 5.06, -2.07 5.99 C-1.61 6.92, -0.44 7.85, 0.49 7.99 C1.43 8.12, 2.65 7.61, 3.53 6.8 C4.4 6, 5.64 4.41, 5.74 3.15 C5.84 1.9, 4.97 -0.04, 4.13 -0.73 C3.29 -1.43, 1.67 -1.38, 0.7 -1.02 C-0.28 -0.66, -1.31 1.01, -1.71 1.41" stroke="none" stroke-width="0" fill="#ffffff" fill-rule="evenodd"></path><path fill="#1e1e1e" d="M 0.83,1.05 Q 0.83,1.05 0.39,1.60 -0.05,2.15 -0.43,3.27 -0.80,4.39 0.07,5.27 0.95,6.14 1.84,5.48 2.73,4.81 3.06,3.80 3.40,2.79 2.74,1.91 2.09,1.04 0.70,1.63 -0.68,2.23 -0.84,2.37 -1.00,2.52 -1.19,2.60 -1.39,2.68 -1.60,2.70 -1.81,2.72 -2.02,2.66 -2.22,2.61 -2.40,2.50 -2.58,2.38 -2.72,2.22 -2.85,2.05 -2.92,1.85 -2.99,1.65 -3.00,1.44 -3.00,1.23 -2.94,1.03 -2.88,0.82 -2.75,0.65 -2.63,0.48 -2.46,0.35 -2.29,0.23 -2.08,0.17 -1.88,0.11 -1.67,0.11 -1.45,0.12 -1.25,0.19 -1.06,0.27 -0.89,0.40 -0.72,0.53 -0.61,0.71 -0.50,0.89 -0.45,1.10 -0.39,1.30 -0.41,1.52 -0.43,1.73 -0.51,1.92 -0.60,2.12 -0.74,2.27 -0.88,2.43 -1.07,2.54 -1.25,2.64 -1.46,2.68 -1.67,2.72 -1.88,2.69 -2.09,2.66 -2.28,2.57 -2.47,2.47 -2.62,2.32 -2.77,2.17 -2.87,1.98 -2.96,1.79 -2.99,1.58 -3.02,1.37 -2.98,1.16 -2.94,0.95 -2.83,0.77 -2.73,0.58 -2.73,0.58 -2.73,0.58 -1.67,-1.08 -0.60,-2.75 0.47,-3.20 1.55,-3.64 3.16,-3.38 4.76,-3.12 5.81,-2.12 6.86,-1.11 7.33,0.04 7.80,1.21 7.87,2.53 7.95,3.86 7.56,4.88 7.18,5.90 6.27,6.87 5.36,7.84 4.28,8.50 3.20,9.17 1.99,9.49 0.79,9.81 -0.41,9.20 -1.62,8.60 -2.45,7.88 -3.28,7.15 -3.73,5.72 -4.19,4.29 -3.97,3.04 -3.75,1.79 -2.93,0.68 -2.11,-0.42 -1.47,-0.73 -0.83,-1.05 -0.69,-1.13 -0.56,-1.22 -0.40,-1.26 -0.25,-1.31 -0.09,-1.33 0.06,-1.34 0.22,-1.31 0.38,-1.28 0.53,-1.22 0.68,-1.15 0.81,-1.05 0.94,-0.95 1.04,-0.83 1.14,-0.70 1.21,-0.55 1.27,-0.41 1.30,-0.25 1.33,-0.09 1.33,0.06 1.32,0.23 1.27,0.38 1.22,0.54 1.14,0.68 1.06,0.81 0.95,0.93 0.83,1.05 0.83,1.05 L 0.83,1.05 Z"></path></g></svg>