<svg version="1.1" xmlns="http://www.w3.org/2000/svg" viewBox="0 0 396.00613476212493 201.76963215621072" width="792.0122695242499" height="403.53926431242144"><!-- svg-source:excalidraw --><metadata></metadata><defs><style class="style-fonts">
      </style></defs><rect x="0" y="0" width="396.00613476212493" height="201.76963215621072" fill="#ffffff"></rect><g stroke-linecap="round"><g transform="translate(10 110) rotate(0 120 -50)"><path d="M0 0 C53.05 -22.11, 106.1 -44.21, 240 -100 M0 0 C78.34 -32.64, 156.68 -65.28, 240 -100" stroke="#1971c2" stroke-width="2" fill="none"></path></g></g><mask></mask><g transform="translate(150.16268951756683 148.70440791133933) rotate(0 0.29433901319407596 1.4580373283683912)" stroke="none"><path d="M0 0 C0.2 0.48, 1.28 2.56, 1.18 2.87 C1.08 3.17, -0.43 2.16, -0.59 1.83 C-0.75 1.5, -0.03 0.93, 0.2 0.89 C0.42 0.85, 0.79 1.72, 0.76 1.57 C0.72 1.42, 0.13 0.26, 0 0" stroke="none" stroke-width="0" fill="#ffffff" fill-rule="evenodd"></path><path fill="#1e1e1e" d="M 2.41,-1.30 Q 2.41,-1.30 3.12,-0.87 3.83,-0.45 3.24,2.53 2.64,5.52 -0.06,5.15 -2.76,4.78 -1.68,5.25 -0.60,5.72 -1.07,5.63 -1.53,5.54 -1.96,5.35 -2.38,5.15 -2.75,4.86 -3.12,4.57 -3.41,4.20 -3.70,3.83 -3.89,3.40 -4.08,2.97 -4.16,2.51 -4.24,2.04 -4.21,1.57 -4.18,1.10 -4.04,0.66 -3.90,0.21 -3.65,-0.18 -3.41,-0.58 -3.07,-0.92 -2.74,-1.25 -2.34,-1.49 -1.93,-1.73 -1.48,-1.87 -1.03,-2.00 -0.56,-2.03 -0.09,-2.06 -1.95,-0.88 -3.81,0.29 -2.28,-1.26 -0.74,-2.82 -1.65,-1.14 -2.57,0.53 -2.58,0.11 -2.60,-0.31 -2.48,-0.72 -2.37,-1.12 -2.12,-1.47 -1.88,-1.82 -1.54,-2.08 -1.20,-2.33 -0.80,-2.46 -0.39,-2.59 0.02,-2.59 0.45,-2.58 0.85,-2.44 1.25,-2.30 1.59,-2.04 1.92,-1.78 2.16,-1.43 2.39,-1.07 2.50,-0.66 2.61,-0.25 2.58,0.16 2.55,0.59 2.39,0.98 2.23,1.37 1.95,1.69 1.67,2.02 1.31,2.23 0.94,2.45 0.52,2.53 0.11,2.62 -0.30,2.57 -0.73,2.52 -1.11,2.34 -1.49,2.15 -1.80,1.86 -2.10,1.56 -2.30,1.18 -2.49,0.81 -2.56,0.39 -2.62,-0.02 -2.55,-0.44 -2.47,-0.86 -2.27,-1.23 -2.07,-1.61 -1.76,-1.90 -1.44,-2.19 -1.06,-2.36 -0.67,-2.53 -0.25,-2.57 0.17,-2.62 0.58,-2.52 0.99,-2.42 1.36,-2.20 1.72,-1.98 1.99,-1.65 2.26,-1.32 2.41,-0.93 2.57,-0.53 2.57,-0.53 2.57,-0.53 3.03,0.96 3.50,2.46 1.44,4.09 -0.60,5.72 -1.07,5.63 -1.53,5.55 -1.96,5.35 -2.38,5.15 -2.75,4.86 -3.12,4.57 -3.41,4.20 -3.70,3.83 -3.89,3.40 -4.08,2.97 -4.16,2.51 -4.24,2.04 -4.21,1.57 -4.18,1.10 -4.04,0.66 -3.90,0.21 -3.65,-0.18 -3.41,-0.58 -3.07,-0.92 -2.74,-1.25 -2.34,-1.49 -1.93,-1.73 -1.48,-1.87 -1.03,-2.00 -0.56,-2.03 -0.09,-2.06 0.34,-1.91 0.77,-1.77 2.44,-0.09 4.11,1.57 2.00,0.44 -0.10,-0.69 -1.29,1.13 -2.48,2.95 -2.44,2.13 -2.41,1.30 -2.53,0.99 -2.65,0.68 -2.70,0.36 -2.74,0.03 -2.70,-0.29 -2.67,-0.62 -2.55,-0.93 -2.44,-1.24 -2.26,-1.52 -2.07,-1.79 -1.83,-2.01 -1.58,-2.24 -1.29,-2.39 -1.00,-2.55 -0.68,-2.63 -0.36,-2.72 -0.03,-2.72 0.29,-2.72 0.62,-2.65 0.94,-2.57 1.23,-2.42 1.53,-2.27 1.78,-2.06 2.03,-1.84 2.22,-1.57 2.41,-1.30 2.41,-1.30 L 2.41,-1.30 Z"></path></g><g stroke-linecap="round"><g transform="translate(150 150) rotate(0 40 -20)"><path d="M0 0 C25.34 -12.67, 50.68 -25.34, 80 -40 M0 0 C18.15 -9.07, 36.3 -18.15, 80 -40" stroke="#f08c00" stroke-width="2" fill="none"></path></g><g transform="translate(150 150) rotate(0 40 -20)"><path d="M62.81 -21.85 C68.26 -27.6, 73.7 -33.35, 80 -40 M62.81 -21.85 C66.71 -25.96, 70.61 -30.08, 80 -40" stroke="#f08c00" stroke-width="2" fill="none"></path></g><g transform="translate(150 150) rotate(0 40 -20)"><path d="M55.16 -37.14 C63.03 -38.05, 70.9 -38.95, 80 -40 M55.16 -37.14 C60.8 -37.79, 66.43 -38.44, 80 -40" stroke="#f08c00" stroke-width="2" fill="none"></path></g></g><mask></mask><g stroke-linecap="round"><g transform="translate(150 150) rotate(0 -70 -20)"><path d="M0 0 C-36.54 -10.44, -73.08 -20.88, -140 -40 M0 0 C-43.11 -12.32, -86.23 -24.64, -140 -40" stroke="#f08c00" stroke-width="2" fill="none"></path></g><g transform="translate(150 150) rotate(0 -70 -20)"><path d="M-115.06 -41.77 C-121.57 -41.31, -128.08 -40.84, -140 -40 M-115.06 -41.77 C-122.74 -41.22, -130.42 -40.68, -140 -40" stroke="#f08c00" stroke-width="2" fill="none"></path></g><g transform="translate(150 150) rotate(0 -70 -20)"><path d="M-119.76 -25.32 C-125.04 -29.15, -130.33 -32.98, -140 -40 M-119.76 -25.32 C-125.99 -29.84, -132.23 -34.36, -140 -40" stroke="#f08c00" stroke-width="2" fill="none"></path></g></g><mask></mask><g stroke-linecap="round"><g transform="translate(150 150) rotate(0 -20 -40)"><path d="M0 0 C-8.78 -17.56, -17.56 -35.12, -40 -80 M0 0 C-15.93 -31.85, -31.85 -63.71, -40 -80" stroke="#f08c00" stroke-width="2" fill="none"></path></g><g transform="translate(150 150) rotate(0 -20 -40)"><path d="M-21.85 -62.81 C-25.83 -66.58, -29.82 -70.36, -40 -80 M-21.85 -62.81 C-29.07 -69.66, -36.3 -76.5, -40 -80" stroke="#f08c00" stroke-width="2" fill="none"></path></g><g transform="translate(150 150) rotate(0 -20 -40)"><path d="M-37.14 -55.16 C-37.77 -60.62, -38.4 -66.07, -40 -80 M-37.14 -55.16 C-38.28 -65.05, -39.42 -74.94, -40 -80" stroke="#f08c00" stroke-width="2" fill="none"></path></g></g><mask></mask><g transform="translate(250.89328907892377 127.2941841583879) rotate(0 -2.2107550239106786 2.2504438243390723)" stroke="none"><path fill="#1e1e1e" d="M -1.51,0.26 Q -1.51,0.26 -2.00,-0.69 -2.49,-1.65 -3.13,-2.72 -3.76,-3.79 -5.09,-3.45 -6.41,-3.10 -7.52,-1.79 -8.64,-0.47 -9.29,1.03 -9.95,2.55 -10.20,4.00 -10.44,5.45 -10.26,6.52 -10.07,7.59 -8.75,7.60 -7.42,7.61 -6.49,6.63 -5.55,5.66 -4.68,4.15 -3.80,2.63 -3.03,1.12 -2.25,-0.38 -1.75,-1.33 -1.25,-2.28 -1.07,-2.57 -0.89,-2.87 -0.73,-3.05 -0.57,-3.23 -0.37,-3.37 -0.17,-3.51 0.04,-3.60 0.27,-3.68 0.51,-3.71 0.76,-3.74 1.00,-3.72 1.24,-3.69 1.47,-3.60 1.69,-3.52 1.90,-3.38 2.10,-3.24 2.26,-3.06 2.42,-2.88 2.53,-2.66 2.65,-2.45 2.71,-2.21 2.76,-1.97 2.77,-1.73 2.77,-1.49 2.71,-1.25 2.65,-1.01 2.54,-0.80 2.43,-0.58 2.42,-1.68 2.42,-2.77 2.74,-1.54 3.06,-0.31 3.13,0.88 3.19,2.09 3.42,3.49 3.64,4.90 4.33,5.82 5.01,6.73 6.28,6.58 7.55,6.43 7.74,6.33 7.93,6.23 8.14,6.20 8.35,6.17 8.56,6.20 8.77,6.24 8.95,6.34 9.14,6.44 9.29,6.59 9.43,6.75 9.52,6.94 9.61,7.13 9.63,7.34 9.65,7.56 9.60,7.76 9.56,7.97 9.45,8.15 9.34,8.33 9.18,8.47 9.01,8.61 8.81,8.69 8.62,8.76 8.40,8.77 8.19,8.78 7.99,8.73 7.78,8.67 7.61,8.55 7.43,8.43 7.31,8.26 7.18,8.09 7.11,7.89 7.04,7.69 7.04,7.47 7.05,7.26 7.11,7.06 7.18,6.86 7.31,6.69 7.44,6.52 7.62,6.40 7.79,6.28 8.00,6.23 8.20,6.17 8.42,6.19 8.63,6.20 8.83,6.28 9.02,6.36 9.18,6.50 9.35,6.63 9.45,6.82 9.56,7.00 9.61,7.21 9.65,7.41 9.63,7.63 9.60,7.84 9.51,8.03 9.42,8.22 9.28,8.37 9.13,8.53 9.13,8.53 9.13,8.53 6.30,9.80 3.48,11.07 2.08,10.08 0.67,9.09 -0.14,7.41 -0.96,5.72 -1.17,3.91 -1.38,2.10 -1.05,0.79 -0.72,-0.51 -0.81,-1.69 -0.89,-2.87 -0.73,-3.05 -0.57,-3.23 -0.37,-3.37 -0.17,-3.51 0.04,-3.60 0.27,-3.68 0.51,-3.71 0.76,-3.74 1.00,-3.72 1.24,-3.69 1.47,-3.60 1.69,-3.52 1.90,-3.38 2.10,-3.24 2.26,-3.06 2.42,-2.88 2.53,-2.66 2.65,-2.45 2.71,-2.21 2.76,-1.97 2.77,-1.73 2.77,-1.49 2.71,-1.25 2.65,-1.01 2.54,-0.80 2.43,-0.58 2.36,-0.48 2.29,-0.38 1.60,0.50 0.91,1.40 0.10,2.81 -0.71,4.22 -1.20,5.24 -1.69,6.26 -2.81,7.87 -3.92,9.49 -5.44,10.59 -6.95,11.69 -8.73,12.16 -10.50,12.64 -11.82,11.90 -13.14,11.16 -13.73,9.86 -14.33,8.55 -14.56,6.74 -14.78,4.93 -14.40,3.00 -14.03,1.06 -13.13,-0.92 -12.22,-2.91 -10.92,-4.50 -9.61,-6.08 -8.34,-6.86 -7.07,-7.65 -5.32,-7.91 -3.57,-8.18 -2.05,-7.43 -0.53,-6.68 0.22,-5.56 0.99,-4.43 1.39,-3.43 1.79,-2.42 1.65,-1.34 1.51,-0.26 1.52,-0.07 1.53,0.10 1.49,0.29 1.46,0.47 1.38,0.64 1.30,0.80 1.18,0.95 1.07,1.09 0.92,1.20 0.78,1.32 0.61,1.39 0.44,1.47 0.25,1.50 0.07,1.53 -0.10,1.52 -0.29,1.50 -0.46,1.45 -0.64,1.39 -0.80,1.29 -0.95,1.19 -1.08,1.06 -1.21,0.93 -1.31,0.77 -1.40,0.61 -1.45,0.43 -1.51,0.26 -1.51,0.26 L -1.51,0.26 Z"></path></g><g transform="translate(238.42491090030126 111.55396953349373) rotate(0 10.677010432105817 0.12859605208768699)" stroke="none"><path fill="#1e1e1e" d="M 0,-1.37 Q 0,-1.37 1.11,-1.73 2.23,-2.10 3.42,-2.10 4.61,-2.10 6.59,-2.10 8.58,-2.10 10.19,-2.10 11.80,-2.10 12.98,-2.10 14.17,-2.10 15.77,-2.02 17.37,-1.94 19.62,-1.49 21.87,-1.05 22.03,-1.02 22.18,-0.99 22.33,-0.93 22.47,-0.86 22.59,-0.76 22.72,-0.67 22.82,-0.54 22.91,-0.42 22.98,-0.27 23.04,-0.13 23.07,0.02 23.10,0.17 23.09,0.33 23.08,0.49 23.03,0.64 22.99,0.79 22.90,0.93 22.82,1.06 22.71,1.17 22.60,1.29 22.46,1.37 22.33,1.45 22.18,1.50 22.03,1.54 21.87,1.55 21.71,1.56 21.54,1.53 21.37,1.50 21.18,1.40 21.00,1.30 20.85,1.14 20.70,0.99 20.61,0.80 20.52,0.60 20.50,0.39 20.48,0.18 20.52,-0.02 20.57,-0.22 20.68,-0.41 20.79,-0.59 20.95,-0.73 21.11,-0.86 21.31,-0.94 21.51,-1.02 21.72,-1.03 21.93,-1.04 22.14,-0.99 22.34,-0.93 22.52,-0.81 22.69,-0.69 22.82,-0.52 22.95,-0.35 23.02,-0.15 23.09,0.04 23.09,0.25 23.09,0.46 23.02,0.67 22.95,0.87 22.82,1.04 22.69,1.21 22.52,1.32 22.34,1.44 22.14,1.50 21.93,1.56 21.72,1.55 21.51,1.53 21.31,1.46 21.11,1.38 20.95,1.24 20.79,1.10 20.68,0.92 20.57,0.74 20.52,0.53 20.48,0.32 20.50,0.11 20.52,-0.09 20.61,-0.28 20.70,-0.47 20.85,-0.63 21.00,-0.78 21.18,-0.88 21.37,-0.98 21.58,-1.02 21.79,-1.05 21.83,-1.05 21.87,-1.05 22.03,-1.02 22.18,-0.99 22.33,-0.93 22.47,-0.86 22.59,-0.76 22.72,-0.67 22.82,-0.54 22.91,-0.42 22.98,-0.27 23.04,-0.13 23.07,0.02 23.10,0.17 23.09,0.33 23.08,0.49 23.03,0.64 22.99,0.79 22.90,0.93 22.82,1.06 22.71,1.17 22.60,1.29 22.46,1.37 22.33,1.45 22.18,1.50 22.03,1.54 21.87,1.55 21.71,1.56 19.33,1.90 16.95,2.23 15.56,2.17 14.17,2.10 12.98,2.10 11.80,2.10 10.19,2.10 8.58,2.10 6.59,2.10 4.61,2.10 3.42,2.10 2.23,2.10 1.11,1.73 0,1.37 -0.16,1.35 -0.32,1.33 -0.48,1.27 -0.63,1.21 -0.77,1.12 -0.91,1.02 -1.02,0.90 -1.12,0.77 -1.20,0.63 -1.28,0.48 -1.32,0.32 -1.36,0.16 -1.36,-0.00 -1.36,-0.16 -1.32,-0.32 -1.28,-0.48 -1.20,-0.63 -1.12,-0.77 -1.02,-0.90 -0.91,-1.02 -0.77,-1.12 -0.63,-1.21 -0.48,-1.27 -0.32,-1.33 -0.16,-1.35 0.00,-1.37 0.00,-1.37 L 0,-1.37 Z"></path></g><g transform="translate(255.79817194028146 108.72484605732097) rotate(0 2.743888626530861 4.147242049034958)" stroke="none"><path fill="#1e1e1e" d="M 0.82,-1.18 Q 0.82,-1.18 1.78,-1.10 2.74,-1.02 4.21,-0.40 5.68,0.22 6.57,0.56 7.47,0.91 7.73,1.07 7.99,1.23 8.20,1.45 8.41,1.67 8.57,1.94 8.72,2.20 8.81,2.50 8.89,2.79 8.91,3.09 8.92,3.40 8.86,3.70 8.80,4.00 8.67,4.28 8.54,4.55 8.35,4.79 8.15,5.03 7.91,5.21 7.67,5.40 7.38,5.52 7.10,5.64 6.80,5.69 6.50,5.74 6.20,5.71 5.89,5.69 5.60,5.59 5.31,5.50 6.57,5.44 7.83,5.38 6.81,5.90 5.78,6.41 4.60,7.06 3.41,7.71 1.67,8.53 -0.06,9.36 -0.22,9.49 -0.38,9.63 -0.58,9.71 -0.78,9.79 -0.99,9.80 -1.20,9.81 -1.41,9.76 -1.61,9.70 -1.79,9.58 -1.96,9.46 -2.09,9.29 -2.22,9.13 -2.29,8.92 -2.36,8.72 -2.36,8.51 -2.36,8.30 -2.29,8.10 -2.22,7.90 -2.09,7.73 -1.97,7.56 -1.79,7.44 -1.62,7.32 -1.41,7.26 -1.21,7.20 -0.99,7.21 -0.78,7.22 -0.58,7.30 -0.39,7.38 -0.22,7.52 -0.06,7.66 0.04,7.84 0.15,8.02 0.19,8.23 0.24,8.43 0.22,8.65 0.19,8.86 0.11,9.05 0.02,9.24 -0.12,9.40 -0.26,9.55 -0.45,9.65 -0.64,9.75 -0.85,9.79 -1.06,9.82 -1.27,9.79 -1.48,9.75 -1.67,9.65 -1.85,9.56 -2.00,9.40 -2.15,9.25 -2.24,9.05 -2.33,8.86 -2.35,8.65 -2.37,8.44 -2.33,8.23 -2.28,8.02 -2.17,7.84 -2.06,7.66 -2.06,7.66 -2.06,7.66 0.12,5.00 2.31,2.35 3.47,1.82 4.63,1.29 6.05,1.10 7.47,0.91 7.73,1.07 7.99,1.23 8.20,1.45 8.41,1.67 8.57,1.94 8.72,2.20 8.81,2.50 8.89,2.79 8.91,3.09 8.92,3.40 8.86,3.70 8.80,4.00 8.67,4.28 8.54,4.55 8.35,4.79 8.15,5.03 7.91,5.21 7.67,5.40 7.39,5.52 7.10,5.64 6.80,5.69 6.50,5.74 6.20,5.71 5.89,5.69 5.60,5.59 5.31,5.50 5.02,5.27 4.72,5.05 3.53,4.55 2.33,4.05 1.17,3.49 0.00,2.93 -0.40,2.06 -0.82,1.18 -0.95,1.07 -1.08,0.95 -1.18,0.81 -1.28,0.66 -1.34,0.50 -1.40,0.34 -1.42,0.16 -1.44,-0.00 -1.42,-0.17 -1.40,-0.35 -1.34,-0.51 -1.27,-0.67 -1.17,-0.81 -1.08,-0.96 -0.94,-1.07 -0.81,-1.19 -0.66,-1.27 -0.50,-1.35 -0.33,-1.39 -0.17,-1.43 0.00,-1.43 0.17,-1.43 0.34,-1.39 0.51,-1.35 0.67,-1.26 0.82,-1.18 0.82,-1.18 L 0.82,-1.18 Z"></path></g><g transform="translate(141.53564438599824 83.84141442360487) rotate(0 6.134667511145381 9.811919578751258)" stroke="none"><path fill="#1e1e1e" d="M 1.48,-0.10 Q 1.48,-0.10 2.00,1.03 2.52,2.17 2.65,3.76 2.78,5.36 2.93,7.08 3.08,8.81 3.13,10.62 3.17,12.43 3.19,14.19 3.20,15.95 3.10,17.27 3.00,18.59 2.93,19.12 2.86,19.65 2.79,19.94 2.72,20.24 2.58,20.51 2.43,20.78 2.23,21.00 2.03,21.23 1.78,21.40 1.53,21.58 1.24,21.68 0.96,21.79 0.66,21.83 0.36,21.86 0.05,21.83 -0.24,21.79 -0.52,21.68 -0.81,21.57 -1.06,21.40 -1.31,21.23 -1.51,21.00 -1.71,20.77 -1.85,20.50 -1.99,20.23 -2.06,19.93 -2.14,19.64 -2.13,19.34 -2.13,19.03 -1.92,17.89 -1.70,16.75 -1.37,15.48 -1.05,14.21 -0.59,12.93 -0.13,11.65 0.55,10.47 1.23,9.29 2.45,8.33 3.67,7.36 5.08,6.91 6.48,6.46 7.64,6.38 8.79,6.31 9.99,6.76 11.18,7.21 12.10,8.30 13.01,9.38 13.43,10.50 13.85,11.61 14.09,12.94 14.33,14.27 14.16,15.93 14.00,17.58 12.97,19.00 11.94,20.43 10.22,21.31 8.49,22.20 6.56,22.20 4.63,22.20 2.62,20.49 0.61,18.78 0.48,18.61 0.36,18.44 0.29,18.23 0.23,18.03 0.23,17.82 0.24,17.61 0.31,17.41 0.38,17.21 0.51,17.04 0.65,16.87 0.83,16.76 1.00,16.64 1.21,16.59 1.42,16.54 1.63,16.55 1.84,16.57 2.03,16.65 2.23,16.73 2.39,16.87 2.55,17.01 2.65,17.20 2.76,17.38 2.80,17.59 2.84,17.80 2.82,18.01 2.79,18.22 2.70,18.41 2.60,18.60 2.45,18.75 2.30,18.91 2.11,19.00 1.92,19.10 1.71,19.13 1.50,19.16 1.29,19.12 1.09,19.08 0.90,18.98 0.71,18.87 0.57,18.72 0.43,18.56 0.34,18.36 0.26,18.17 0.24,17.96 0.22,17.75 0.27,17.54 0.32,17.33 0.43,17.15 0.55,16.97 0.71,16.84 0.88,16.71 1.08,16.63 1.27,16.56 1.49,16.55 1.70,16.54 1.90,16.60 2.11,16.66 2.28,16.79 2.45,16.91 2.45,16.91 2.45,16.91 3.73,17.53 5.01,18.14 6.45,17.85 7.89,17.55 8.80,16.90 9.71,16.26 9.81,14.97 9.91,13.68 9.62,12.60 9.32,11.52 8.34,11.09 7.37,10.65 6.04,11.20 4.71,11.74 4.18,12.92 3.65,14.10 3.40,15.28 3.15,16.47 3.01,18.06 2.86,19.65 2.79,19.94 2.72,20.24 2.58,20.51 2.43,20.78 2.23,21.00 2.03,21.23 1.78,21.40 1.53,21.58 1.25,21.68 0.96,21.79 0.66,21.83 0.36,21.86 0.05,21.83 -0.24,21.79 -0.52,21.68 -0.81,21.57 -1.06,21.40 -1.31,21.23 -1.51,21.00 -1.71,20.77 -1.85,20.50 -1.99,20.23 -2.06,19.94 -2.14,19.64 -2.13,19.34 -2.13,19.03 -2.08,18.73 -2.03,18.44 -1.94,17.20 -1.84,15.96 -1.84,14.22 -1.84,12.49 -1.85,10.80 -1.87,9.11 -1.97,7.39 -2.07,5.67 -2.13,4.08 -2.20,2.50 -1.84,1.30 -1.48,0.10 -1.47,-0.07 -1.46,-0.25 -1.41,-0.42 -1.36,-0.59 -1.27,-0.75 -1.18,-0.90 -1.05,-1.03 -0.93,-1.16 -0.77,-1.25 -0.62,-1.35 -0.45,-1.40 -0.28,-1.46 -0.10,-1.47 0.07,-1.48 0.25,-1.45 0.43,-1.42 0.59,-1.35 0.75,-1.28 0.90,-1.17 1.04,-1.06 1.15,-0.92 1.26,-0.78 1.34,-0.62 1.41,-0.45 1.45,-0.28 1.48,-0.10 1.48,-0.10 L 1.48,-0.10 Z"></path></g><g transform="translate(137.1852270827203 74.64676312604479) rotate(0 9.667600894115822 0.12217063983780463)" stroke="none"><path fill="#1e1e1e" d="M 0.06,-1.37 Q 0.06,-1.37 1.24,-1.53 2.42,-1.69 4.16,-1.62 5.89,-1.55 7.82,-1.55 9.74,-1.54 11.87,-1.53 14.01,-1.52 16.67,-1.27 19.33,-1.03 19.54,-0.99 19.75,-0.96 19.94,-0.86 20.13,-0.76 20.27,-0.60 20.42,-0.45 20.51,-0.26 20.60,-0.06 20.62,0.14 20.64,0.35 20.60,0.56 20.55,0.76 20.44,0.95 20.33,1.13 20.17,1.27 20.01,1.40 19.81,1.48 19.61,1.56 19.40,1.57 19.19,1.58 18.98,1.53 18.78,1.47 18.60,1.35 18.43,1.23 18.30,1.06 18.17,0.89 18.10,0.69 18.03,0.49 18.03,0.28 18.03,0.07 18.10,-0.13 18.17,-0.33 18.30,-0.50 18.43,-0.67 18.60,-0.78 18.78,-0.90 18.98,-0.96 19.19,-1.02 19.40,-1.01 19.61,-0.99 19.81,-0.92 20.01,-0.84 20.17,-0.70 20.33,-0.56 20.44,-0.38 20.55,-0.20 20.60,0.00 20.64,0.21 20.62,0.42 20.60,0.63 20.51,0.82 20.42,1.02 20.27,1.17 20.12,1.32 19.94,1.42 19.75,1.52 19.54,1.56 19.33,1.59 19.33,1.59 19.33,1.59 16.67,1.84 14.01,2.09 11.87,2.09 9.73,2.10 7.76,2.08 5.80,2.05 4.03,1.97 2.26,1.89 1.10,1.63 -0.06,1.37 -0.22,1.34 -0.38,1.31 -0.53,1.25 -0.69,1.18 -0.82,1.08 -0.95,0.98 -1.05,0.85 -1.16,0.72 -1.23,0.57 -1.30,0.42 -1.33,0.26 -1.36,0.10 -1.36,-0.06 -1.35,-0.22 -1.30,-0.38 -1.26,-0.54 -1.17,-0.68 -1.09,-0.82 -0.97,-0.94 -0.86,-1.06 -0.72,-1.15 -0.58,-1.24 -0.42,-1.29 -0.26,-1.34 -0.10,-1.35 0.06,-1.37 0.06,-1.37 L 0.06,-1.37 Z"></path></g><g transform="translate(155.3972833379812 71.90765740284678) rotate(0 2.402680641595907 2.4304793302858343)" stroke="none"><path d="M0 0 C0.88 0.46, 5.15 1.89, 5.26 2.75 C5.37 3.61, 1.42 4.76, 0.65 5.16" stroke="none" stroke-width="0" fill="#ffffff" fill-rule="evenodd"></path><path fill="#1e1e1e" d="M 0.69,-1.23 Q 0.69,-1.23 1.64,-1.16 2.59,-1.09 3.73,-0.53 4.87,0.03 5.60,0.39 6.33,0.75 6.55,0.92 6.77,1.08 6.94,1.29 7.12,1.51 7.24,1.75 7.35,2.00 7.41,2.27 7.46,2.54 7.45,2.81 7.44,3.09 7.37,3.35 7.29,3.62 7.15,3.85 7.02,4.09 6.83,4.29 6.64,4.49 6.41,4.64 6.17,4.78 5.91,4.87 5.65,4.96 5.38,4.98 5.11,5.00 4.84,4.96 4.56,4.92 4.31,4.81 4.06,4.70 5.19,4.73 6.31,4.76 3.75,5.56 1.19,6.35 0.98,6.40 0.78,6.46 0.56,6.44 0.35,6.43 0.16,6.35 -0.03,6.27 -0.19,6.13 -0.35,5.99 -0.46,5.81 -0.57,5.62 -0.61,5.42 -0.65,5.21 -0.63,5.00 -0.60,4.79 -0.51,4.59 -0.42,4.40 -0.27,4.25 -0.12,4.10 0.06,4.00 0.24,3.90 0.45,3.87 0.66,3.84 0.87,3.88 1.08,3.91 1.27,4.01 1.46,4.12 1.60,4.27 1.74,4.43 1.83,4.62 1.92,4.82 1.94,5.03 1.96,5.24 1.91,5.45 1.86,5.65 1.75,5.83 1.64,6.01 1.48,6.15 1.31,6.29 1.11,6.36 0.92,6.44 0.70,6.45 0.49,6.46 0.29,6.40 0.08,6.34 -0.08,6.22 -0.26,6.09 -0.38,5.92 -0.51,5.75 -0.57,5.55 -0.64,5.35 -0.64,5.14 -0.63,4.92 -0.56,4.72 -0.49,4.52 -0.36,4.35 -0.23,4.19 -0.06,4.07 0.11,3.95 0.11,3.95 0.11,3.95 1.98,2.39 3.85,0.83 5.09,0.79 6.33,0.75 6.55,0.92 6.77,1.08 6.94,1.29 7.12,1.51 7.24,1.75 7.35,2.00 7.41,2.27 7.46,2.54 7.45,2.81 7.44,3.09 7.37,3.35 7.29,3.62 7.15,3.85 7.02,4.09 6.83,4.29 6.64,4.49 6.41,4.64 6.17,4.78 5.91,4.87 5.65,4.96 5.38,4.98 5.11,5.00 4.84,4.96 4.56,4.92 4.31,4.81 4.06,4.70 3.49,4.38 2.93,4.06 1.67,3.42 0.41,2.78 -0.13,2.00 -0.69,1.23 -0.83,1.13 -0.96,1.03 -1.07,0.90 -1.18,0.77 -1.26,0.61 -1.33,0.46 -1.37,0.29 -1.41,0.13 -1.40,-0.03 -1.40,-0.20 -1.35,-0.37 -1.31,-0.53 -1.22,-0.68 -1.14,-0.83 -1.02,-0.96 -0.91,-1.08 -0.76,-1.17 -0.62,-1.27 -0.46,-1.32 -0.30,-1.38 -0.13,-1.40 0.03,-1.41 0.20,-1.39 0.37,-1.36 0.53,-1.30 0.69,-1.23 0.69,-1.23 L 0.69,-1.23 Z"></path></g><g transform="translate(85.83657607478563 112.43360020636192) rotate(0 -2.921599827402133 3.022020136865194)" stroke="none"><path d="M0 0 C-0.2 -0.51, -0.57 -2.55, -1.22 -3.09 C-1.87 -3.63, -3.11 -3.48, -3.9 -3.24 C-4.68 -3, -5.33 -2.67, -5.93 -1.66 C-6.53 -0.65, -7.28 1.46, -7.51 2.84 C-7.73 4.23, -8.03 5.57, -7.28 6.65 C-6.53 7.72, -4.04 8.85, -3 9.28 C-1.95 9.72, -1.81 9.63, -1.01 9.28 C-0.21 8.94, 1.31 7.54, 1.78 7.19" stroke="none" stroke-width="0" fill="#ffffff" fill-rule="evenodd"></path><path fill="#1e1e1e" d="M -1.37,0.40 Q -1.37,0.40 -1.80,-0.33 -2.23,-1.07 -3.37,-0.53 -4.52,0.00 -4.95,1.35 -5.39,2.70 -5.37,3.78 -5.35,4.86 -4.75,5.88 -4.14,6.90 -2.94,7.05 -1.73,7.21 -0.46,6.75 0.81,6.29 0.97,6.16 1.14,6.03 1.34,5.96 1.54,5.89 1.75,5.89 1.97,5.88 2.17,5.95 2.37,6.01 2.54,6.14 2.71,6.27 2.83,6.44 2.96,6.62 3.02,6.82 3.08,7.02 3.07,7.24 3.06,7.45 2.98,7.65 2.91,7.85 2.77,8.01 2.64,8.17 2.46,8.28 2.27,8.40 2.07,8.45 1.86,8.49 1.65,8.47 1.44,8.45 1.24,8.37 1.05,8.28 0.89,8.14 0.74,7.99 0.64,7.81 0.53,7.62 0.50,7.41 0.46,7.20 0.49,6.99 0.52,6.78 0.62,6.59 0.72,6.40 0.87,6.25 1.02,6.11 1.21,6.01 1.40,5.92 1.61,5.90 1.83,5.87 2.03,5.91 2.24,5.96 2.43,6.06 2.61,6.17 2.75,6.33 2.89,6.49 2.97,6.69 3.05,6.88 3.07,7.10 3.08,7.31 3.03,7.51 2.97,7.72 2.85,7.90 2.74,8.07 2.74,8.07 2.74,8.07 1.24,9.47 -0.25,10.86 -1.65,11.05 -3.06,11.25 -4.39,10.95 -5.71,10.66 -6.76,9.86 -7.81,9.07 -8.57,7.59 -9.33,6.12 -9.41,4.77 -9.49,3.41 -9.20,2.00 -8.91,0.59 -8.54,-0.40 -8.17,-1.40 -7.19,-2.56 -6.21,-3.71 -4.67,-4.36 -3.12,-5.01 -1.72,-4.68 -0.32,-4.36 0.48,-3.24 1.28,-2.13 1.33,-1.26 1.37,-0.40 1.40,-0.23 1.43,-0.06 1.41,0.10 1.40,0.27 1.35,0.44 1.29,0.60 1.20,0.75 1.11,0.89 0.99,1.02 0.86,1.14 0.71,1.22 0.56,1.31 0.40,1.36 0.23,1.41 0.06,1.42 -0.10,1.42 -0.27,1.39 -0.44,1.36 -0.60,1.28 -0.75,1.21 -0.89,1.10 -1.02,0.99 -1.13,0.86 -1.23,0.72 -1.30,0.56 -1.37,0.40 -1.37,0.40 L -1.37,0.40 Z"></path></g><g transform="translate(74.06484894333153 98.39085656809766) rotate(0 7.158301796192063 0.2186163876226601)" stroke="none"><path fill="#1e1e1e" d="M 0.19,-1.43 Q 0.19,-1.43 1.49,-1.52 2.79,-1.61 3.90,-1.52 5.00,-1.43 6.12,-1.40 7.23,-1.36 8.30,-1.33 9.37,-1.30 11.47,-1.03 13.58,-0.76 13.70,-0.94 13.82,-1.12 13.99,-1.25 14.15,-1.38 14.35,-1.45 14.55,-1.52 14.77,-1.52 14.98,-1.52 15.18,-1.46 15.38,-1.39 15.55,-1.27 15.72,-1.14 15.85,-0.97 15.97,-0.79 16.03,-0.59 16.08,-0.38 16.08,-0.17 16.07,0.03 15.99,0.23 15.91,0.43 15.78,0.59 15.64,0.76 15.46,0.87 15.28,0.98 15.07,1.03 14.87,1.07 14.65,1.05 14.44,1.03 14.25,0.95 14.06,0.86 13.90,0.71 13.74,0.57 13.64,0.38 13.54,0.20 13.50,-0.00 13.47,-0.21 13.50,-0.42 13.53,-0.63 13.63,-0.82 13.73,-1.01 13.88,-1.16 14.03,-1.31 14.22,-1.40 14.42,-1.49 14.63,-1.51 14.84,-1.54 15.05,-1.50 15.25,-1.45 15.44,-1.34 15.62,-1.24 15.76,-1.08 15.90,-0.92 15.98,-0.72 16.06,-0.52 16.07,-0.31 16.09,-0.10 16.03,0.10 15.98,0.30 15.98,0.30 15.98,0.30 12.64,1.45 9.31,2.59 8.20,2.59 7.10,2.58 5.89,2.54 4.69,2.50 3.47,2.40 2.25,2.30 1.02,1.87 -0.19,1.43 -0.36,1.38 -0.53,1.34 -0.68,1.26 -0.84,1.17 -0.96,1.05 -1.09,0.94 -1.19,0.79 -1.29,0.65 -1.35,0.48 -1.41,0.32 -1.42,0.15 -1.44,-0.02 -1.42,-0.19 -1.39,-0.36 -1.33,-0.53 -1.27,-0.69 -1.16,-0.83 -1.06,-0.97 -0.93,-1.09 -0.80,-1.20 -0.64,-1.28 -0.49,-1.36 -0.32,-1.40 -0.15,-1.43 0.02,-1.43 0.19,-1.43 0.19,-1.43 L 0.19,-1.43 Z"></path></g><g transform="translate(87.01659993549038 94.98304827497032) rotate(0 2.0970190289335733 4.706632551310122)" stroke="none"><path fill="#1e1e1e" d="M 0.71,-1.30 Q 0.71,-1.30 1.79,-1.09 2.87,-0.87 3.95,-0.40 5.04,0.06 5.77,1.20 6.50,2.34 6.11,3.51 5.73,4.68 5.09,5.78 4.45,6.87 2.75,8.62 1.05,10.36 0.90,10.51 0.75,10.66 0.57,10.76 0.38,10.86 0.17,10.89 -0.03,10.93 -0.24,10.89 -0.45,10.86 -0.64,10.75 -0.83,10.65 -0.97,10.50 -1.12,10.34 -1.20,10.15 -1.29,9.96 -1.31,9.75 -1.33,9.53 -1.29,9.33 -1.24,9.12 -1.13,8.94 -1.02,8.76 -0.86,8.62 -0.69,8.48 -0.49,8.41 -0.30,8.33 -0.08,8.32 0.12,8.31 0.32,8.37 0.53,8.43 0.70,8.55 0.88,8.67 1.00,8.84 1.13,9.01 1.20,9.21 1.26,9.41 1.26,9.62 1.26,9.84 1.19,10.04 1.12,10.24 0.99,10.41 0.86,10.57 0.69,10.69 0.51,10.81 0.30,10.87 0.10,10.92 -0.10,10.91 -0.31,10.89 -0.51,10.81 -0.71,10.73 -0.87,10.60 -1.03,10.46 -1.14,10.27 -1.25,10.09 -1.29,9.88 -1.34,9.68 -1.31,9.46 -1.29,9.25 -1.20,9.06 -1.11,8.87 -1.11,8.87 -1.11,8.87 -0.34,6.70 0.42,4.52 1.28,3.07 2.14,1.62 2.49,2.75 2.84,3.87 1.83,3.38 0.82,2.88 0.05,2.09 -0.71,1.30 -0.85,1.20 -1.00,1.10 -1.12,0.96 -1.23,0.82 -1.32,0.66 -1.40,0.50 -1.44,0.33 -1.48,0.15 -1.48,-0.02 -1.47,-0.20 -1.43,-0.37 -1.38,-0.54 -1.30,-0.70 -1.21,-0.86 -1.09,-0.99 -0.97,-1.13 -0.82,-1.23 -0.67,-1.33 -0.50,-1.39 -0.33,-1.45 -0.15,-1.47 0.02,-1.49 0.20,-1.46 0.37,-1.44 0.54,-1.37 0.71,-1.30 0.71,-1.30 L 0.71,-1.30 Z"></path></g><g stroke-linecap="round"><g transform="translate(150 150) rotate(0 -20 10)"><path d="M0 0 C-9.81 4.91, -19.62 9.81, -40 20 M0 0 C-8.4 4.2, -16.81 8.4, -40 20" stroke="#f08c00" stroke-width="2" fill="none"></path></g><g transform="translate(150 150) rotate(0 -20 10)"><path d="M-24.63 3.76 C-28.4 7.75, -32.17 11.73, -40 20 M-24.63 3.76 C-27.86 7.17, -31.09 10.58, -40 20" stroke="#f08c00" stroke-width="2" fill="none"></path></g><g transform="translate(150 150) rotate(0 -20 10)"><path d="M-17.79 17.44 C-23.23 18.07, -28.68 18.7, -40 20 M-17.79 17.44 C-22.45 17.98, -27.12 18.52, -40 20" stroke="#f08c00" stroke-width="2" fill="none"></path></g></g><mask></mask><g transform="translate(148.5013284381057 185.28837460260365) rotate(0 -1.585196721286593 -1.922520534186333)" stroke="none"><path d="M0 0 C-0.35 -0.45, -1.04 -2.22, -2.09 -2.69 C-3.14 -3.16, -5.22 -3.2, -6.33 -2.82 C-7.43 -2.43, -8.2 -1.38, -8.73 -0.39 C-9.26 0.6, -9.62 2.13, -9.48 3.12 C-9.34 4.12, -8.47 5.14, -7.89 5.58 C-7.31 6.02, -7.05 6.38, -6 5.77 C-4.95 5.17, -2.62 3.2, -1.59 1.95 C-0.56 0.71, -0.24 0.38, 0.18 -1.67 C0.61 -3.72, 0.86 -10.27, 0.94 -10.33 C1.02 -10.38, 0.4 -4.72, 0.67 -1.98 C0.94 0.76, 2.05 4.71, 2.54 6.12 C3.04 7.53, 3.01 7.04, 3.64 6.48 C4.27 5.92, 5.87 3.36, 6.31 2.74" stroke="none" stroke-width="0" fill="#ffffff" fill-rule="evenodd"></path><path fill="#1e1e1e" d="M -1.14,0.88 Q -1.14,0.88 -1.96,0.29 -2.77,-0.30 -4.06,-0.60 -5.35,-0.90 -6.14,-0.11 -6.92,0.67 -7.06,1.79 -7.19,2.92 -6.05,2.71 -4.91,2.51 -3.99,1.47 -3.08,0.43 -2.58,-0.63 -2.09,-1.69 -1.89,-3.28 -1.70,-4.86 -1.59,-6.20 -1.49,-7.54 -1.42,-8.79 -1.35,-10.03 -1.33,-10.25 -1.32,-10.47 -1.26,-10.73 -1.19,-11.00 -1.07,-11.24 -0.94,-11.49 -0.77,-11.69 -0.59,-11.90 -0.36,-12.06 -0.14,-12.21 0.10,-12.31 0.36,-12.41 0.63,-12.45 0.90,-12.49 1.17,-12.46 1.44,-12.43 1.70,-12.33 1.95,-12.24 2.18,-12.09 2.40,-11.93 2.59,-11.73 2.77,-11.53 2.90,-11.29 3.03,-11.05 3.10,-10.78 3.17,-10.52 3.17,-10.25 3.17,-9.97 3.15,-8.81 3.12,-7.64 3.13,-6.33 3.14,-5.03 3.25,-3.44 3.36,-1.85 3.63,-0.39 3.90,1.07 4.18,2.44 4.46,3.81 3.36,3.90 2.27,3.99 3.72,3.03 5.18,2.06 5.32,1.90 5.45,1.74 5.64,1.63 5.82,1.52 6.02,1.47 6.23,1.42 6.44,1.45 6.65,1.47 6.85,1.56 7.04,1.64 7.20,1.79 7.35,1.94 7.45,2.12 7.55,2.31 7.59,2.52 7.62,2.73 7.59,2.94 7.55,3.15 7.45,3.34 7.36,3.53 7.20,3.67 7.05,3.82 6.86,3.91 6.66,4.00 6.45,4.02 6.24,4.05 6.03,4.00 5.83,3.96 5.64,3.85 5.46,3.74 5.32,3.58 5.18,3.41 5.10,3.22 5.03,3.02 5.01,2.81 5.00,2.60 5.06,2.39 5.11,2.19 5.23,2.01 5.35,1.83 5.52,1.70 5.69,1.58 5.89,1.51 6.09,1.44 6.30,1.44 6.52,1.44 6.72,1.50 6.92,1.57 7.09,1.70 7.26,1.83 7.38,2.00 7.50,2.18 7.56,2.38 7.61,2.59 7.60,2.80 7.59,3.01 7.51,3.21 7.43,3.41 7.43,3.41 7.43,3.41 6.70,5.29 5.97,7.17 4.76,7.95 3.55,8.73 2.42,8.52 1.29,8.31 0.53,7.33 -0.21,6.36 -0.61,4.98 -1.01,3.60 -1.26,1.97 -1.51,0.35 -1.68,-1.48 -1.85,-3.31 -1.77,-4.97 -1.68,-6.63 -1.50,-8.55 -1.32,-10.47 -1.26,-10.73 -1.19,-11.00 -1.07,-11.24 -0.95,-11.49 -0.77,-11.69 -0.59,-11.90 -0.37,-12.06 -0.14,-12.21 0.10,-12.31 0.36,-12.41 0.63,-12.45 0.90,-12.49 1.17,-12.46 1.44,-12.43 1.70,-12.33 1.95,-12.24 2.18,-12.09 2.40,-11.93 2.59,-11.73 2.77,-11.53 2.90,-11.29 3.03,-11.05 3.10,-10.78 3.17,-10.52 3.17,-10.25 3.17,-9.97 3.14,-9.76 3.11,-9.54 2.97,-8.38 2.83,-7.22 2.71,-5.82 2.58,-4.42 2.43,-3.08 2.27,-1.74 1.83,-0.38 1.40,0.98 0.41,2.44 -0.57,3.89 -1.40,4.75 -2.22,5.60 -3.17,6.32 -4.12,7.04 -5.38,7.39 -6.65,7.74 -7.77,7.46 -8.90,7.17 -9.67,6.37 -10.44,5.58 -10.85,4.43 -11.27,3.29 -11.13,1.71 -11.00,0.12 -10.47,-0.97 -9.95,-2.08 -9.13,-2.93 -8.31,-3.78 -7.02,-4.32 -5.72,-4.87 -4.10,-4.75 -2.47,-4.64 -1.05,-3.71 0.37,-2.78 0.75,-1.83 1.14,-0.88 1.23,-0.73 1.32,-0.58 1.37,-0.42 1.42,-0.25 1.43,-0.08 1.44,0.09 1.41,0.26 1.37,0.43 1.30,0.59 1.23,0.75 1.12,0.89 1.01,1.02 0.88,1.13 0.74,1.24 0.58,1.31 0.42,1.38 0.25,1.41 0.08,1.44 -0.09,1.43 -0.26,1.42 -0.43,1.36 -0.59,1.31 -0.74,1.22 -0.89,1.13 -1.01,1.01 -1.14,0.88 -1.14,0.88 L -1.14,0.88 Z"></path></g><g transform="translate(138.00914674552223 165.29160327846057) rotate(0 8.579991403173153 0.03214772174169411)" stroke="none"><path fill="#1e1e1e" d="M 0.07,-1.47 Q 0.07,-1.47 1.53,-1.65 3.00,-1.83 4.70,-1.80 6.41,-1.77 7.83,-1.77 9.25,-1.76 10.57,-1.75 11.90,-1.74 14.13,-1.48 16.36,-1.22 16.54,-1.32 16.73,-1.42 16.94,-1.45 17.15,-1.49 17.36,-1.45 17.57,-1.42 17.76,-1.32 17.95,-1.22 18.09,-1.07 18.24,-0.92 18.33,-0.72 18.42,-0.53 18.44,-0.32 18.47,-0.11 18.42,0.09 18.38,0.30 18.27,0.48 18.16,0.66 18.00,0.80 17.84,0.94 17.64,1.02 17.44,1.10 17.23,1.11 17.02,1.12 16.81,1.07 16.61,1.01 16.43,0.89 16.26,0.77 16.13,0.60 16.00,0.44 15.93,0.23 15.86,0.03 15.86,-0.17 15.86,-0.38 15.93,-0.58 15.99,-0.79 16.12,-0.96 16.25,-1.12 16.42,-1.24 16.60,-1.36 16.80,-1.42 17.01,-1.48 17.22,-1.47 17.43,-1.46 17.63,-1.38 17.83,-1.30 17.99,-1.17 18.15,-1.03 18.26,-0.85 18.37,-0.67 18.42,-0.46 18.47,-0.25 18.44,-0.04 18.42,0.16 18.33,0.35 18.25,0.55 18.10,0.70 17.95,0.86 17.95,0.86 17.95,0.86 14.92,1.53 11.88,2.21 10.55,2.21 9.21,2.21 7.78,2.19 6.34,2.17 4.57,2.14 2.81,2.11 1.37,1.79 -0.07,1.47 -0.24,1.44 -0.42,1.41 -0.58,1.34 -0.74,1.27 -0.88,1.16 -1.03,1.05 -1.14,0.91 -1.25,0.77 -1.32,0.61 -1.40,0.45 -1.43,0.28 -1.47,0.10 -1.46,-0.07 -1.45,-0.24 -1.40,-0.41 -1.35,-0.58 -1.26,-0.74 -1.17,-0.89 -1.04,-1.02 -0.92,-1.15 -0.77,-1.24 -0.62,-1.33 -0.45,-1.39 -0.28,-1.44 -0.10,-1.46 0.07,-1.47 0.07,-1.47 L 0.07,-1.47 Z"></path></g><g transform="translate(152.52475217326173 162.0381133469118) rotate(0 2.679923750879425 4.770930577353738)" stroke="none"><path fill="#1e1e1e" d="M 0.91,-1.23 Q 0.91,-1.23 2.02,-0.92 3.13,-0.61 4.32,0.12 5.52,0.86 6.38,1.56 7.24,2.27 7.58,3.64 7.93,5.01 7.50,5.99 7.07,6.98 6.23,7.77 5.38,8.56 3.74,9.54 2.09,10.52 1.93,10.66 1.78,10.81 1.59,10.90 1.39,10.98 1.18,11.01 0.97,11.03 0.76,10.98 0.56,10.94 0.37,10.82 0.19,10.71 0.06,10.55 -0.07,10.39 -0.15,10.19 -0.23,9.99 -0.24,9.78 -0.25,9.57 -0.19,9.37 -0.13,9.16 -0.01,8.99 0.10,8.81 0.27,8.68 0.44,8.55 0.64,8.49 0.84,8.42 1.05,8.42 1.26,8.42 1.47,8.49 1.67,8.56 1.84,8.69 2.00,8.82 2.12,8.99 2.24,9.17 2.30,9.37 2.35,9.58 2.34,9.79 2.33,10.00 2.25,10.20 2.17,10.40 2.03,10.56 1.89,10.72 1.71,10.83 1.53,10.94 1.32,10.98 1.11,11.03 0.90,11.00 0.69,10.98 0.50,10.89 0.31,10.80 0.15,10.65 0.00,10.51 -0.09,10.32 -0.19,10.13 -0.22,9.92 -0.26,9.71 -0.22,9.50 -0.19,9.29 -0.09,9.11 0.00,8.92 0.00,8.92 0.00,8.92 1.48,6.89 2.96,4.85 1.65,4.01 0.33,3.17 -0.28,2.20 -0.91,1.23 -1.04,1.10 -1.18,0.98 -1.28,0.82 -1.38,0.67 -1.44,0.49 -1.50,0.31 -1.51,0.13 -1.53,-0.04 -1.50,-0.23 -1.47,-0.41 -1.40,-0.58 -1.33,-0.75 -1.22,-0.90 -1.11,-1.05 -0.97,-1.17 -0.83,-1.29 -0.66,-1.37 -0.49,-1.45 -0.31,-1.49 -0.13,-1.52 0.04,-1.52 0.23,-1.51 0.41,-1.46 0.58,-1.41 0.75,-1.32 0.91,-1.23 0.91,-1.23 L 0.91,-1.23 Z"></path></g><g transform="translate(287.4805574754155 64.5990195544473) rotate(0 6.028028394326611 10.853549150197978)" stroke="none"><path fill="#1e1e1e" d="M 1.37,-0.01 Q 1.37,-0.01 1.69,1.17 2.01,2.37 2.10,3.48 2.20,4.60 2.18,6.46 2.17,8.32 2.12,10.27 2.07,12.22 2.06,13.96 2.05,15.70 2.17,17.03 2.29,18.36 2.42,19.12 2.56,19.88 2.56,20.18 2.55,20.48 2.47,20.77 2.40,21.06 2.25,21.33 2.11,21.59 1.90,21.81 1.70,22.03 1.45,22.20 1.20,22.37 0.91,22.47 0.63,22.57 0.33,22.60 0.03,22.63 -0.26,22.59 -0.55,22.55 -0.83,22.44 -1.11,22.33 -1.36,22.15 -1.60,21.98 -1.80,21.75 -1.99,21.52 -2.13,21.25 -2.26,20.98 -2.33,20.69 -2.40,20.39 -2.18,19.32 -1.97,18.24 -1.69,17.08 -1.41,15.93 -0.85,14.57 -0.28,13.21 0.63,11.95 1.55,10.70 2.75,9.79 3.95,8.89 5.52,8.40 7.09,7.91 8.69,8.08 10.29,8.25 11.51,9.32 12.73,10.40 13.44,11.71 14.15,13.03 14.46,14.47 14.77,15.91 14.72,17.31 14.66,18.72 13.76,20.28 12.86,21.85 10.80,22.76 8.73,23.67 7.57,23.77 6.41,23.88 5.23,23.63 4.05,23.38 2.02,22.35 -0.00,21.31 -0.18,21.20 -0.36,21.09 -0.50,20.93 -0.64,20.77 -0.72,20.57 -0.79,20.38 -0.81,20.16 -0.82,19.95 -0.76,19.75 -0.70,19.54 -0.58,19.37 -0.46,19.19 -0.30,19.06 -0.13,18.93 0.07,18.87 0.27,18.80 0.48,18.80 0.69,18.80 0.89,18.87 1.09,18.93 1.26,19.06 1.43,19.19 1.55,19.37 1.67,19.54 1.73,19.75 1.78,19.95 1.77,20.17 1.76,20.38 1.68,20.58 1.60,20.77 1.47,20.93 1.33,21.10 1.15,21.21 0.96,21.32 0.76,21.36 0.55,21.41 0.34,21.38 0.13,21.36 -0.06,21.27 -0.25,21.18 -0.40,21.03 -0.56,20.89 -0.66,20.70 -0.76,20.51 -0.79,20.30 -0.82,20.09 -0.79,19.88 -0.76,19.67 -0.66,19.49 -0.56,19.30 -0.40,19.15 -0.25,19.01 -0.05,18.92 0.13,18.83 0.34,18.81 0.55,18.78 0.76,18.83 0.97,18.88 0.97,18.88 0.97,18.87 2.67,19.13 4.37,19.38 5.90,19.14 7.43,18.90 8.71,18.15 9.99,17.40 9.84,16.16 9.69,14.92 9.18,13.74 8.68,12.56 7.55,12.79 6.43,13.02 5.51,13.77 4.59,14.52 3.99,15.84 3.39,17.16 2.98,18.52 2.56,19.88 2.56,20.18 2.55,20.48 2.47,20.77 2.40,21.06 2.25,21.33 2.11,21.59 1.90,21.81 1.70,22.03 1.45,22.20 1.20,22.37 0.92,22.47 0.63,22.57 0.33,22.60 0.03,22.63 -0.26,22.59 -0.55,22.55 -0.83,22.44 -1.11,22.33 -1.36,22.15 -1.60,21.98 -1.80,21.75 -1.99,21.52 -2.13,21.25 -2.26,20.98 -2.33,20.69 -2.40,20.39 -2.52,19.51 -2.64,18.62 -2.75,17.14 -2.86,15.66 -2.81,13.82 -2.76,11.99 -2.61,10.08 -2.45,8.17 -2.28,6.40 -2.11,4.62 -2.02,3.52 -1.94,2.43 -1.65,1.22 -1.37,0.01 -1.35,-0.14 -1.33,-0.31 -1.28,-0.46 -1.22,-0.62 -1.13,-0.75 -1.03,-0.89 -0.91,-1.00 -0.79,-1.11 -0.64,-1.19 -0.50,-1.27 -0.34,-1.31 -0.18,-1.36 -0.01,-1.36 0.14,-1.36 0.30,-1.32 0.46,-1.29 0.61,-1.21 0.76,-1.14 0.88,-1.03 1.01,-0.92 1.11,-0.78 1.20,-0.65 1.26,-0.50 1.32,-0.34 1.35,-0.18 1.37,-0.01 1.37,-0.01 L 1.37,-0.01 Z"></path></g><g transform="translate(283.8694138092487 56.600321355034794) rotate(0 10.804971174141428 0.3214875476578527)" stroke="none"><path fill="#1e1e1e" d="M 0.08,-1.38 Q 0.08,-1.38 1.93,-1.48 3.79,-1.57 5.23,-1.53 6.67,-1.48 8.34,-1.46 10.00,-1.43 11.53,-1.39 13.06,-1.35 14.39,-1.32 15.73,-1.28 16.93,-1.25 18.13,-1.21 19.87,-0.94 21.62,-0.67 21.83,-0.63 22.04,-0.59 22.23,-0.49 22.41,-0.39 22.56,-0.23 22.70,-0.08 22.79,0.11 22.87,0.30 22.89,0.51 22.92,0.72 22.87,0.93 22.82,1.14 22.71,1.32 22.60,1.50 22.43,1.64 22.27,1.77 22.07,1.85 21.87,1.92 21.66,1.93 21.45,1.94 21.24,1.88 21.04,1.82 20.87,1.70 20.69,1.58 20.56,1.41 20.44,1.24 20.37,1.04 20.31,0.84 20.31,0.62 20.31,0.41 20.38,0.21 20.45,0.01 20.58,-0.15 20.71,-0.32 20.89,-0.43 21.07,-0.55 21.27,-0.60 21.48,-0.66 21.69,-0.65 21.90,-0.63 22.10,-0.55 22.30,-0.47 22.46,-0.33 22.62,-0.19 22.72,-0.01 22.83,0.17 22.87,0.37 22.92,0.58 22.89,0.79 22.87,1.00 22.77,1.20 22.68,1.39 22.54,1.54 22.39,1.69 22.20,1.79 22.01,1.89 21.80,1.92 21.59,1.95 21.59,1.95 21.59,1.95 19.81,2.16 18.02,2.37 16.83,2.33 15.64,2.29 14.31,2.26 12.98,2.23 11.45,2.20 9.93,2.18 8.24,2.14 6.56,2.10 5.07,2.05 3.59,2.00 1.75,1.69 -0.08,1.38 -0.24,1.35 -0.40,1.32 -0.56,1.25 -0.71,1.18 -0.84,1.08 -0.97,0.98 -1.08,0.85 -1.18,0.72 -1.25,0.56 -1.32,0.41 -1.35,0.25 -1.38,0.08 -1.37,-0.07 -1.36,-0.24 -1.31,-0.40 -1.26,-0.56 -1.18,-0.70 -1.09,-0.85 -0.97,-0.97 -0.85,-1.09 -0.71,-1.17 -0.57,-1.26 -0.41,-1.31 -0.25,-1.36 -0.08,-1.37 0.08,-1.38 0.08,-1.38 L 0.08,-1.38 Z"></path></g><g transform="translate(303.5316091656041 53.05105585507408) rotate(0 1.940639783521874 5.143862743994305)" stroke="none"><path fill="#1e1e1e" d="M 1.22,-0.79 Q 1.22,-0.79 1.90,-0.28 2.57,0.23 3.64,0.87 4.70,1.50 5.56,3.07 6.42,4.63 5.93,5.75 5.44,6.88 4.41,8.00 3.38,9.12 1.83,10.24 0.29,11.35 0.13,11.49 -0.02,11.64 -0.21,11.72 -0.41,11.80 -0.62,11.82 -0.83,11.84 -1.04,11.78 -1.24,11.73 -1.42,11.62 -1.60,11.50 -1.73,11.34 -1.86,11.17 -1.94,10.97 -2.01,10.77 -2.02,10.56 -2.02,10.35 -1.96,10.14 -1.90,9.94 -1.77,9.77 -1.65,9.60 -1.47,9.47 -1.30,9.35 -1.10,9.29 -0.89,9.23 -0.68,9.23 -0.47,9.24 -0.27,9.31 -0.07,9.39 0.08,9.52 0.25,9.65 0.36,9.83 0.48,10.01 0.53,10.22 0.58,10.42 0.56,10.64 0.54,10.85 0.46,11.04 0.37,11.24 0.23,11.40 0.09,11.55 -0.09,11.66 -0.27,11.76 -0.48,11.80 -0.69,11.84 -0.90,11.81 -1.11,11.78 -1.30,11.69 -1.49,11.59 -1.64,11.44 -1.79,11.29 -1.88,11.10 -1.98,10.91 -2.00,10.70 -2.03,10.49 -1.99,10.28 -1.95,10.07 -1.85,9.89 -1.74,9.70 -1.74,9.70 -1.74,9.70 -0.86,7.90 0.02,6.09 0.75,5.32 1.49,4.55 0.33,3.50 -0.82,2.45 -1.02,1.62 -1.22,0.79 -1.30,0.63 -1.38,0.48 -1.41,0.30 -1.45,0.13 -1.45,-0.04 -1.44,-0.21 -1.39,-0.38 -1.35,-0.55 -1.26,-0.70 -1.17,-0.86 -1.05,-0.99 -0.93,-1.12 -0.79,-1.21 -0.64,-1.31 -0.47,-1.37 -0.31,-1.42 -0.13,-1.44 0.04,-1.46 0.21,-1.43 0.38,-1.40 0.55,-1.34 0.71,-1.27 0.85,-1.17 0.99,-1.06 1.11,-0.93 1.22,-0.79 1.22,-0.79 L 1.22,-0.79 Z"></path></g><g transform="translate(316.17058100645045 77.16290084602042) rotate(0 4.883561236140849 0.4115104657539632)" stroke="none"><path fill="#1e1e1e" d="M 0.09,-1.42 Q 0.09,-1.42 1.43,-1.60 2.77,-1.78 4.00,-1.71 5.23,-1.64 7.58,-1.06 9.94,-0.47 10.14,-0.41 10.35,-0.35 10.52,-0.22 10.69,-0.10 10.81,0.06 10.94,0.23 11.00,0.44 11.06,0.64 11.06,0.85 11.05,1.07 10.98,1.27 10.91,1.46 10.77,1.63 10.64,1.80 10.46,1.91 10.28,2.02 10.07,2.08 9.87,2.13 9.66,2.11 9.44,2.09 9.25,2.01 9.05,1.92 8.90,1.78 8.74,1.64 8.63,1.46 8.53,1.27 8.49,1.06 8.45,0.85 8.48,0.64 8.51,0.43 8.60,0.24 8.70,0.05 8.85,-0.09 9.00,-0.24 9.19,-0.33 9.38,-0.43 9.59,-0.46 9.80,-0.48 10.01,-0.44 10.22,-0.40 10.40,-0.30 10.59,-0.20 10.73,-0.04 10.87,0.11 10.95,0.31 11.04,0.50 11.05,0.71 11.07,0.93 11.02,1.13 10.97,1.34 10.85,1.52 10.74,1.70 10.57,1.83 10.41,1.96 10.21,2.03 10.01,2.11 9.80,2.11 9.58,2.12 9.58,2.12 9.58,2.12 7.29,2.21 4.99,2.30 3.75,2.21 2.51,2.13 1.21,1.78 -0.09,1.42 -0.26,1.39 -0.43,1.36 -0.59,1.29 -0.74,1.22 -0.88,1.11 -1.01,1.00 -1.12,0.86 -1.23,0.73 -1.30,0.57 -1.37,0.41 -1.40,0.24 -1.43,0.07 -1.41,-0.09 -1.40,-0.26 -1.35,-0.43 -1.30,-0.59 -1.21,-0.74 -1.12,-0.89 -0.99,-1.01 -0.87,-1.13 -0.72,-1.22 -0.57,-1.30 -0.41,-1.36 -0.24,-1.41 -0.07,-1.41 0.09,-1.42 0.09,-1.42 L 0.09,-1.42 Z"></path></g><g transform="translate(321.92849416038734 72.2762405364465) rotate(0 0.41229039923473465 7.207835319890819)" stroke="none"><path fill="#1e1e1e" d="M 1.46,0 Q 1.46,0 2.01,1.27 2.56,2.54 2.57,4.21 2.59,5.88 2.67,7.06 2.75,8.24 2.79,9.32 2.83,10.41 2.46,12.24 2.09,14.08 2.11,14.29 2.13,14.50 2.08,14.71 2.03,14.91 1.92,15.09 1.81,15.27 1.64,15.41 1.48,15.55 1.28,15.62 1.08,15.70 0.87,15.71 0.66,15.71 0.46,15.65 0.25,15.59 0.08,15.47 -0.09,15.35 -0.21,15.18 -0.34,15.01 -0.40,14.81 -0.47,14.60 -0.47,14.39 -0.46,14.18 -0.39,13.98 -0.32,13.78 -0.19,13.61 -0.06,13.44 0.11,13.33 0.29,13.21 0.49,13.16 0.70,13.10 0.91,13.12 1.12,13.13 1.32,13.21 1.51,13.30 1.67,13.43 1.83,13.57 1.94,13.76 2.05,13.94 2.09,14.15 2.13,14.36 2.11,14.57 2.08,14.78 1.99,14.97 1.90,15.16 1.75,15.32 1.60,15.47 1.41,15.56 1.22,15.66 1.01,15.69 0.80,15.72 0.59,15.69 0.38,15.65 0.20,15.55 0.01,15.44 -0.12,15.29 -0.27,15.13 -0.35,14.94 -0.44,14.74 -0.44,14.74 -0.44,14.74 -1.43,11.66 -2.42,8.57 -2.51,7.23 -2.59,5.88 -2.57,4.21 -2.56,2.54 -2.01,1.27 -1.46,0 -1.44,-0.17 -1.41,-0.34 -1.35,-0.51 -1.29,-0.67 -1.19,-0.82 -1.09,-0.96 -0.96,-1.08 -0.83,-1.20 -0.67,-1.28 -0.51,-1.36 -0.34,-1.40 -0.17,-1.45 0.00,-1.45 0.17,-1.45 0.34,-1.40 0.51,-1.36 0.67,-1.28 0.83,-1.20 0.96,-1.08 1.09,-0.96 1.19,-0.82 1.29,-0.67 1.35,-0.51 1.41,-0.34 1.44,-0.17 1.46,0.00 1.46,0.00 L 1.46,0 Z"></path></g><g transform="translate(353.0212086632637 69.93577895913404) rotate(0 -4.890668444547373 8.956750925502547)" stroke="none"><path fill="#1e1e1e" d="M 1.19,0.81 Q 1.19,0.81 0.60,2.15 0.00,3.49 -1.00,5.39 -2.02,7.29 -2.93,8.83 -3.84,10.38 -5.35,11.84 -6.85,13.31 -8.43,14.14 -10.00,14.98 -11.07,15.24 -12.13,15.50 -13.99,14.96 -15.84,14.43 -16.58,12.40 -17.32,10.37 -16.75,8.07 -16.17,5.78 -15.67,4.81 -15.17,3.84 -14.51,2.98 -13.85,2.12 -12.53,1.17 -11.22,0.23 -9.35,0.53 -7.49,0.82 -6.16,2.32 -4.83,3.81 -3.69,5.49 -2.56,7.17 -1.77,8.32 -0.98,9.48 -0.23,10.50 0.52,11.53 1.23,12.42 1.94,13.32 3.76,14.97 5.58,16.63 5.78,16.71 5.97,16.79 6.13,16.93 6.29,17.07 6.40,17.25 6.51,17.44 6.55,17.64 6.60,17.85 6.57,18.06 6.55,18.27 6.45,18.47 6.36,18.66 6.21,18.81 6.07,18.96 5.88,19.06 5.69,19.16 5.48,19.19 5.27,19.22 5.06,19.19 4.85,19.15 4.66,19.05 4.48,18.95 4.33,18.79 4.19,18.63 4.10,18.44 4.01,18.25 3.99,18.03 3.97,17.82 4.02,17.62 4.07,17.41 4.18,17.23 4.29,17.05 4.46,16.91 4.62,16.78 4.82,16.70 5.02,16.62 5.23,16.61 5.44,16.60 5.64,16.66 5.85,16.72 6.02,16.84 6.20,16.97 6.32,17.14 6.45,17.31 6.52,17.51 6.58,17.71 6.58,17.92 6.58,18.14 6.51,18.34 6.44,18.54 6.31,18.70 6.18,18.87 6.00,18.99 5.82,19.11 5.62,19.16 5.41,19.22 5.20,19.20 4.99,19.19 4.99,19.19 4.99,19.19 2.57,18.57 0.16,17.96 -0.79,17.13 -1.76,16.30 -2.55,15.34 -3.33,14.37 -4.13,13.28 -4.94,12.18 -5.73,11.02 -6.53,9.85 -7.12,8.97 -7.71,8.08 -8.93,6.57 -10.16,5.05 -10.96,6.27 -11.75,7.50 -11.81,9.10 -11.86,10.71 -10.74,10.17 -9.62,9.63 -8.57,8.77 -7.51,7.91 -6.62,6.55 -5.72,5.18 -5.13,4.20 -4.54,3.22 -3.89,2.25 -3.24,1.28 -2.22,0.23 -1.19,-0.81 -1.08,-0.94 -0.96,-1.07 -0.82,-1.17 -0.68,-1.27 -0.52,-1.33 -0.35,-1.40 -0.18,-1.42 -0.01,-1.44 0.16,-1.42 0.33,-1.40 0.49,-1.34 0.66,-1.28 0.80,-1.18 0.95,-1.09 1.06,-0.96 1.18,-0.83 1.26,-0.67 1.34,-0.52 1.39,-0.35 1.43,-0.18 1.43,-0.01 1.43,0.16 1.39,0.33 1.35,0.50 1.27,0.65 1.19,0.81 1.19,0.81 L 1.19,0.81 Z"></path></g><g transform="translate(373.1383479995293 75.02819708414609) rotate(0 -2.2178622323162926 2.674815444838714)" stroke="none"><path fill="#1e1e1e" d="M -1.40,0.53 Q -1.40,0.53 -2.01,-0.24 -2.61,-1.03 -3.47,-1.76 -4.33,-2.49 -5.27,-1.70 -6.20,-0.91 -6.90,0.28 -7.60,1.47 -8.06,3.06 -8.51,4.64 -8.13,5.79 -7.75,6.94 -6.55,6.25 -5.34,5.57 -4.82,4.07 -4.31,2.58 -3.94,1.36 -3.57,0.15 -3.32,-0.30 -3.06,-0.75 -2.92,-0.99 -2.77,-1.22 -2.58,-1.41 -2.38,-1.61 -2.15,-1.75 -1.91,-1.89 -1.65,-1.96 -1.38,-2.04 -1.11,-2.06 -0.83,-2.07 -0.57,-2.02 -0.30,-1.97 -0.05,-1.85 0.19,-1.74 0.41,-1.56 0.62,-1.39 0.79,-1.17 0.96,-0.96 1.07,-0.71 1.18,-0.45 1.22,-0.18 1.27,0.08 1.25,0.35 1.23,0.62 1.15,0.89 1.06,1.15 2.07,2.30 3.07,3.45 4.81,4.68 6.55,5.92 6.75,5.96 6.96,5.99 7.15,6.09 7.34,6.20 7.48,6.35 7.63,6.51 7.72,6.70 7.80,6.89 7.82,7.11 7.85,7.32 7.80,7.52 7.75,7.73 7.64,7.91 7.53,8.09 7.37,8.23 7.20,8.37 7.00,8.44 6.81,8.52 6.59,8.53 6.38,8.54 6.18,8.48 5.97,8.42 5.80,8.30 5.62,8.18 5.50,8.01 5.37,7.84 5.30,7.64 5.24,7.44 5.24,7.22 5.24,7.01 5.31,6.81 5.38,6.61 5.51,6.44 5.64,6.27 5.82,6.16 5.99,6.04 6.20,5.98 6.40,5.93 6.62,5.94 6.83,5.95 7.02,6.03 7.22,6.12 7.38,6.25 7.54,6.39 7.65,6.58 7.76,6.76 7.80,6.97 7.85,7.17 7.82,7.39 7.80,7.60 7.71,7.79 7.62,7.98 7.47,8.13 7.32,8.29 7.13,8.38 6.94,8.48 6.73,8.52 6.52,8.55 6.52,8.55 6.52,8.55 3.15,7.71 -0.21,6.88 -0.98,5.46 -1.76,4.03 -2.23,2.93 -2.70,1.83 -2.88,0.53 -3.06,-0.75 -2.92,-0.99 -2.77,-1.22 -2.58,-1.41 -2.38,-1.61 -2.15,-1.75 -1.91,-1.88 -1.65,-1.96 -1.38,-2.04 -1.11,-2.06 -0.83,-2.07 -0.57,-2.02 -0.30,-1.97 -0.05,-1.85 0.19,-1.74 0.41,-1.56 0.62,-1.39 0.79,-1.18 0.96,-0.96 1.07,-0.71 1.18,-0.45 1.22,-0.18 1.27,0.08 1.25,0.35 1.23,0.62 1.15,0.89 1.06,1.15 0.72,1.87 0.37,2.59 -0.14,4.19 -0.67,5.79 -1.14,6.90 -1.62,8.00 -3.01,9.53 -4.41,11.05 -5.55,11.46 -6.70,11.88 -7.78,11.74 -8.85,11.60 -10.34,10.25 -11.83,8.89 -12.33,7.63 -12.83,6.36 -12.62,4.07 -12.41,1.79 -11.52,-0.07 -10.63,-1.93 -9.90,-2.94 -9.17,-3.96 -7.56,-5.06 -5.95,-6.16 -4.83,-6.37 -3.71,-6.58 -2.14,-5.92 -0.56,-5.26 0.34,-3.89 1.25,-2.51 1.33,-1.52 1.40,-0.53 1.45,-0.36 1.49,-0.18 1.49,-0.00 1.49,0.17 1.45,0.35 1.40,0.53 1.32,0.69 1.24,0.85 1.12,0.98 1.00,1.12 0.85,1.22 0.70,1.33 0.53,1.39 0.36,1.46 0.18,1.48 0.00,1.50 -0.17,1.48 -0.35,1.46 -0.52,1.39 -0.69,1.33 -0.84,1.23 -0.99,1.12 -1.11,0.99 -1.23,0.85 -1.32,0.69 -1.40,0.53 -1.40,0.53 L -1.40,0.53 Z"></path></g><g transform="translate(361.523000113486 60.17529883424231) rotate(0 8.537358482985837 0.43722761012213596)" stroke="none"><path fill="#1e1e1e" d="M 0.18,-1.42 Q 0.18,-1.42 1.65,-1.47 3.11,-1.52 4.28,-1.45 5.45,-1.37 6.69,-1.33 7.92,-1.29 9.48,-1.24 11.03,-1.20 12.30,-1.16 13.56,-1.11 15.50,-0.77 17.43,-0.43 17.64,-0.40 17.85,-0.36 18.03,-0.26 18.22,-0.16 18.36,-0.00 18.51,0.15 18.59,0.34 18.68,0.53 18.70,0.75 18.72,0.96 18.67,1.16 18.62,1.37 18.51,1.55 18.40,1.73 18.24,1.87 18.07,2.00 17.87,2.08 17.68,2.16 17.46,2.16 17.25,2.17 17.05,2.11 16.84,2.05 16.67,1.93 16.50,1.81 16.37,1.64 16.24,1.47 16.18,1.27 16.11,1.07 16.11,0.85 16.12,0.64 16.19,0.44 16.26,0.24 16.39,0.07 16.52,-0.09 16.70,-0.20 16.88,-0.32 17.08,-0.37 17.29,-0.43 17.50,-0.41 17.71,-0.40 17.91,-0.32 18.10,-0.24 18.26,-0.10 18.42,0.03 18.53,0.22 18.64,0.40 18.68,0.61 18.72,0.82 18.70,1.03 18.67,1.24 18.58,1.43 18.49,1.62 18.34,1.77 18.19,1.93 18.00,2.02 17.81,2.12 17.60,2.15 17.39,2.18 17.39,2.18 17.39,2.18 15.42,2.45 13.45,2.72 12.18,2.69 10.91,2.66 9.35,2.60 7.79,2.55 6.49,2.50 5.19,2.46 3.90,2.37 2.61,2.28 1.21,1.85 -0.18,1.42 -0.35,1.37 -0.52,1.33 -0.67,1.25 -0.82,1.17 -0.95,1.05 -1.08,0.93 -1.17,0.79 -1.27,0.65 -1.33,0.49 -1.39,0.32 -1.41,0.15 -1.43,-0.01 -1.40,-0.18 -1.38,-0.35 -1.32,-0.51 -1.26,-0.67 -1.16,-0.81 -1.06,-0.96 -0.93,-1.07 -0.80,-1.18 -0.64,-1.26 -0.49,-1.34 -0.32,-1.38 -0.15,-1.42 0.01,-1.42 0.18,-1.42 0.18,-1.42 L 0.18,-1.42 Z"></path></g><g transform="translate(375.54101831088155 56.780356860982465) rotate(0 2.594616589522957 5.773981849686152)" stroke="none"><path fill="#1e1e1e" d="M 0.80,-1.20 Q 0.80,-1.20 1.59,-1.12 2.37,-1.04 3.36,-0.48 4.35,0.07 5.55,0.62 6.75,1.18 7.37,2.89 7.98,4.60 7.16,5.73 6.35,6.86 5.25,8.12 4.16,9.39 2.07,11.10 -0.01,12.81 -0.17,12.96 -0.32,13.10 -0.52,13.18 -0.71,13.27 -0.93,13.28 -1.14,13.30 -1.34,13.25 -1.55,13.20 -1.73,13.09 -1.91,12.97 -2.04,12.81 -2.17,12.64 -2.25,12.44 -2.32,12.24 -2.33,12.03 -2.33,11.82 -2.27,11.61 -2.21,11.41 -2.09,11.24 -1.96,11.07 -1.79,10.94 -1.62,10.82 -1.42,10.75 -1.21,10.69 -1.00,10.70 -0.79,10.70 -0.59,10.78 -0.39,10.85 -0.22,10.98 -0.06,11.11 0.05,11.29 0.16,11.47 0.21,11.68 0.27,11.88 0.25,12.10 0.23,12.31 0.15,12.50 0.06,12.70 -0.07,12.86 -0.21,13.02 -0.39,13.12 -0.58,13.23 -0.79,13.27 -1.00,13.31 -1.21,13.28 -1.42,13.25 -1.61,13.16 -1.80,13.06 -1.95,12.91 -2.10,12.76 -2.19,12.57 -2.29,12.38 -2.32,12.17 -2.35,11.96 -2.31,11.75 -2.27,11.54 -2.16,11.36 -2.06,11.17 -2.06,11.17 -2.06,11.17 -1.25,9.67 -0.45,8.17 0.56,6.45 1.58,4.73 2.98,3.70 4.38,2.66 4.26,3.82 4.13,4.98 3.14,4.46 2.15,3.94 1.04,3.27 -0.07,2.59 -0.44,1.89 -0.80,1.20 -0.94,1.08 -1.07,0.97 -1.17,0.82 -1.27,0.68 -1.33,0.52 -1.40,0.36 -1.42,0.18 -1.44,0.01 -1.42,-0.15 -1.40,-0.33 -1.34,-0.49 -1.28,-0.65 -1.19,-0.80 -1.09,-0.94 -0.96,-1.06 -0.83,-1.18 -0.68,-1.26 -0.52,-1.34 -0.35,-1.39 -0.19,-1.43 -0.01,-1.43 0.15,-1.43 0.32,-1.39 0.49,-1.35 0.65,-1.27 0.80,-1.20 0.80,-1.20 L 0.80,-1.20 Z"></path></g><g transform="translate(299.99292183626494 119.89567318043828) rotate(0 -3.2059501450921744 2.6105045059885015)" stroke="none"><path fill="#1e1e1e" d="M -1.37,0 Q -1.37,0 -1.53,-0.51 -1.69,-1.03 -2.60,-1.59 -3.50,-2.16 -4.20,-1.17 -4.90,-0.18 -5.55,1.25 -6.20,2.68 -6.35,3.79 -6.50,4.90 -5.81,5.83 -5.12,6.77 -3.96,6.95 -2.81,7.12 -0.46,6.86 1.87,6.59 2.08,6.52 2.28,6.45 2.49,6.45 2.70,6.45 2.90,6.52 3.10,6.59 3.27,6.71 3.44,6.84 3.57,7.02 3.69,7.19 3.74,7.39 3.80,7.60 3.79,7.81 3.78,8.02 3.70,8.22 3.63,8.42 3.49,8.58 3.35,8.74 3.17,8.86 2.99,8.97 2.78,9.01 2.58,9.06 2.37,9.04 2.15,9.02 1.96,8.93 1.77,8.84 1.61,8.70 1.46,8.55 1.36,8.36 1.26,8.18 1.22,7.97 1.18,7.76 1.22,7.55 1.25,7.34 1.35,7.15 1.45,6.96 1.60,6.81 1.75,6.67 1.95,6.58 2.14,6.49 2.35,6.46 2.56,6.44 2.77,6.48 2.98,6.53 3.16,6.63 3.34,6.74 3.48,6.90 3.62,7.07 3.70,7.26 3.78,7.46 3.79,7.67 3.80,7.88 3.75,8.09 3.69,8.29 3.57,8.47 3.46,8.65 3.29,8.78 3.12,8.91 3.12,8.91 3.12,8.91 0.96,10.06 -1.18,11.22 -3.10,11.34 -5.01,11.47 -6.76,10.87 -8.51,10.28 -9.63,8.97 -10.75,7.66 -10.91,6.02 -11.08,4.39 -10.76,2.75 -10.45,1.12 -9.72,-0.41 -9.00,-1.96 -8.04,-3.04 -7.09,-4.12 -5.77,-5.03 -4.45,-5.95 -2.87,-5.84 -1.28,-5.74 -0.20,-4.76 0.87,-3.77 1.28,-2.41 1.69,-1.06 1.53,-0.53 1.37,0 1.35,0.16 1.33,0.32 1.27,0.48 1.21,0.63 1.12,0.77 1.02,0.91 0.90,1.02 0.77,1.12 0.63,1.20 0.48,1.28 0.32,1.32 0.16,1.36 -0.00,1.36 -0.16,1.36 -0.32,1.32 -0.48,1.28 -0.63,1.20 -0.77,1.12 -0.90,1.02 -1.02,0.91 -1.12,0.77 -1.21,0.63 -1.27,0.48 -1.33,0.32 -1.35,0.16 -1.37,-0.00 -1.37,-0.00 L -1.37,0 Z"></path></g><g transform="translate(293.5383782956469 106.09726565672645) rotate(0 6.490089912890653 0.45008359974508494)" stroke="none"><path fill="#1e1e1e" d="M 0.53,-1.34 Q 0.53,-1.34 0.96,-1.46 1.39,-1.58 2.94,-1.44 4.50,-1.29 5.61,-1.24 6.71,-1.19 7.87,-1.16 9.02,-1.14 10.19,-1.08 11.36,-1.02 12.82,-0.89 14.27,-0.77 14.48,-0.79 14.69,-0.82 14.90,-0.78 15.11,-0.73 15.29,-0.62 15.48,-0.52 15.62,-0.36 15.76,-0.20 15.84,-0.00 15.92,0.19 15.93,0.40 15.95,0.61 15.89,0.82 15.84,1.02 15.72,1.20 15.60,1.38 15.43,1.51 15.27,1.64 15.07,1.71 14.87,1.78 14.65,1.78 14.44,1.78 14.24,1.72 14.04,1.65 13.87,1.52 13.70,1.40 13.57,1.22 13.45,1.05 13.39,0.84 13.33,0.64 13.34,0.43 13.35,0.22 13.43,0.02 13.51,-0.17 13.64,-0.33 13.78,-0.50 13.96,-0.61 14.14,-0.72 14.35,-0.77 14.55,-0.82 14.76,-0.80 14.98,-0.78 15.17,-0.69 15.36,-0.60 15.52,-0.46 15.68,-0.31 15.78,-0.13 15.88,0.05 15.92,0.26 15.95,0.47 15.92,0.68 15.89,0.89 15.79,1.08 15.69,1.27 15.54,1.41 15.39,1.56 15.20,1.65 15.00,1.75 15.00,1.75 15.00,1.74 13.16,2.27 11.32,2.79 10.13,2.82 8.93,2.86 7.73,2.83 6.53,2.81 5.33,2.75 4.13,2.69 2.04,2.40 -0.05,2.12 -0.29,1.73 -0.53,1.34 -0.68,1.26 -0.84,1.17 -0.96,1.06 -1.09,0.94 -1.19,0.79 -1.29,0.65 -1.35,0.48 -1.41,0.32 -1.42,0.15 -1.44,-0.02 -1.42,-0.19 -1.39,-0.36 -1.33,-0.53 -1.27,-0.69 -1.16,-0.83 -1.06,-0.97 -0.93,-1.08 -0.80,-1.20 -0.64,-1.28 -0.49,-1.36 -0.32,-1.39 -0.15,-1.43 0.02,-1.43 0.19,-1.43 0.36,-1.38 0.53,-1.34 0.53,-1.34 L 0.53,-1.34 Z"></path></g><g transform="translate(304.8409470303777 101.9435878651966) rotate(0 1.3150711506541484 4.719501453739213)" stroke="none"><path fill="#1e1e1e" d="M 0.75,-1.19 Q 0.75,-1.19 1.59,-1.13 2.42,-1.06 3.39,-0.26 4.36,0.53 4.93,1.74 5.51,2.95 5.30,4.22 5.09,5.48 4.27,6.68 3.45,7.89 2.21,9.15 0.98,10.41 0.83,10.57 0.69,10.73 0.51,10.83 0.32,10.94 0.11,10.98 -0.08,11.02 -0.30,10.99 -0.51,10.96 -0.70,10.87 -0.89,10.77 -1.04,10.62 -1.19,10.47 -1.28,10.28 -1.38,10.09 -1.41,9.88 -1.44,9.67 -1.40,9.46 -1.36,9.25 -1.25,9.07 -1.15,8.88 -0.99,8.74 -0.83,8.60 -0.64,8.51 -0.44,8.43 -0.23,8.41 -0.02,8.39 0.18,8.45 0.38,8.50 0.56,8.61 0.74,8.72 0.88,8.89 1.01,9.06 1.08,9.25 1.16,9.45 1.16,9.67 1.17,9.88 1.11,10.08 1.04,10.29 0.92,10.46 0.80,10.63 0.62,10.76 0.45,10.88 0.25,10.94 0.05,11.01 -0.16,11.00 -0.37,10.99 -0.57,10.92 -0.77,10.85 -0.93,10.72 -1.10,10.58 -1.21,10.40 -1.33,10.23 -1.38,10.02 -1.43,9.81 -1.41,9.60 -1.40,9.39 -1.31,9.19 -1.23,9.00 -1.23,9.00 -1.23,9.00 -0.73,7.43 -0.22,5.87 -0.07,4.25 0.07,2.64 -0.34,1.92 -0.75,1.19 -0.89,1.08 -1.02,0.98 -1.12,0.84 -1.22,0.70 -1.29,0.55 -1.36,0.39 -1.38,0.22 -1.41,0.05 -1.40,-0.11 -1.38,-0.28 -1.33,-0.44 -1.28,-0.60 -1.18,-0.75 -1.09,-0.89 -0.97,-1.01 -0.85,-1.13 -0.70,-1.21 -0.55,-1.30 -0.39,-1.35 -0.22,-1.39 -0.05,-1.40 0.11,-1.41 0.28,-1.37 0.44,-1.34 0.60,-1.27 0.75,-1.19 0.75,-1.19 L 0.75,-1.19 Z"></path></g><g transform="translate(318.6457076546267 121.41310349599826) rotate(0 4.577889293234875 -0.12216547471462036)" stroke="none"><path fill="#1e1e1e" d="M -0.07,-1.64 Q -0.07,-1.64 1.38,-1.84 2.84,-2.03 3.99,-2.07 5.13,-2.10 7.14,-1.83 9.14,-1.55 9.35,-1.52 9.56,-1.49 9.75,-1.39 9.94,-1.29 10.08,-1.14 10.23,-0.98 10.32,-0.79 10.41,-0.60 10.44,-0.39 10.46,-0.18 10.42,0.02 10.37,0.23 10.27,0.41 10.16,0.59 10.00,0.73 9.84,0.87 9.64,0.95 9.44,1.03 9.23,1.04 9.02,1.06 8.81,1.00 8.61,0.95 8.43,0.83 8.25,0.71 8.12,0.54 8.00,0.37 7.93,0.17 7.86,-0.02 7.85,-0.23 7.85,-0.44 7.92,-0.64 7.99,-0.85 8.11,-1.02 8.24,-1.19 8.42,-1.31 8.59,-1.43 8.79,-1.49 9.00,-1.54 9.21,-1.53 9.42,-1.52 9.62,-1.45 9.82,-1.37 9.98,-1.23 10.15,-1.10 10.26,-0.92 10.37,-0.73 10.41,-0.53 10.46,-0.32 10.44,-0.11 10.42,0.09 10.33,0.29 10.24,0.48 10.10,0.63 9.95,0.79 9.77,0.89 9.58,0.99 9.37,1.03 9.16,1.06 9.16,1.06 9.16,1.06 7.20,1.38 5.23,1.70 4.13,1.72 3.02,1.75 1.55,1.70 0.07,1.64 -0.11,1.63 -0.31,1.62 -0.50,1.55 -0.69,1.49 -0.86,1.39 -1.03,1.28 -1.17,1.14 -1.31,1.00 -1.41,0.83 -1.51,0.65 -1.57,0.46 -1.62,0.27 -1.63,0.07 -1.64,-0.12 -1.60,-0.31 -1.57,-0.51 -1.48,-0.69 -1.40,-0.87 -1.27,-1.02 -1.15,-1.18 -0.99,-1.30 -0.83,-1.42 -0.65,-1.50 -0.47,-1.58 -0.27,-1.61 -0.07,-1.64 -0.07,-1.64 L -0.07,-1.64 Z"></path></g><g transform="translate(323.90601291773055 115.24047233530382) rotate(0 0.39096877401789243 6.674159379422235)" stroke="none"><path fill="#1e1e1e" d="M 1.67,0.08 Q 1.67,0.08 2.15,1.29 2.62,2.51 2.61,3.59 2.60,4.67 2.81,6.50 3.01,8.34 2.64,10.87 2.27,13.40 2.27,13.61 2.27,13.82 2.20,14.02 2.13,14.22 2.00,14.39 1.87,14.56 1.70,14.68 1.52,14.80 1.31,14.85 1.11,14.91 0.90,14.89 0.69,14.88 0.49,14.80 0.29,14.72 0.13,14.58 -0.02,14.44 -0.13,14.26 -0.24,14.08 -0.28,13.87 -0.33,13.66 -0.30,13.45 -0.28,13.24 -0.19,13.05 -0.10,12.86 0.04,12.70 0.19,12.55 0.38,12.45 0.56,12.35 0.77,12.32 0.98,12.29 1.19,12.32 1.40,12.36 1.59,12.46 1.78,12.56 1.92,12.72 2.07,12.87 2.16,13.06 2.24,13.26 2.27,13.47 2.29,13.68 2.24,13.89 2.19,14.09 2.08,14.28 1.97,14.46 1.81,14.59 1.65,14.73 1.45,14.81 1.25,14.88 1.04,14.90 0.83,14.91 0.62,14.85 0.42,14.79 0.24,14.67 0.07,14.55 -0.05,14.38 -0.18,14.21 -0.24,14.01 -0.31,13.80 -0.31,13.80 -0.31,13.80 -1.54,10.46 -2.77,7.11 -2.85,5.83 -2.93,4.55 -2.89,3.40 -2.85,2.24 -2.26,1.08 -1.67,-0.08 -1.64,-0.28 -1.61,-0.48 -1.52,-0.66 -1.44,-0.85 -1.32,-1.01 -1.20,-1.17 -1.04,-1.30 -0.88,-1.42 -0.70,-1.51 -0.51,-1.59 -0.32,-1.63 -0.12,-1.67 0.08,-1.66 0.28,-1.65 0.47,-1.59 0.67,-1.54 0.84,-1.43 1.02,-1.33 1.16,-1.19 1.31,-1.05 1.41,-0.88 1.52,-0.70 1.58,-0.51 1.64,-0.32 1.66,-0.12 1.67,0.08 1.67,0.08 L 1.67,0.08 Z"></path></g><g transform="translate(354.316311450737 112.91287191273659) rotate(0 -4.627650082317814 5.722552726071626)" stroke="none"><path fill="#1e1e1e" d="M 1.17,0.87 Q 1.17,0.87 0.26,2.27 -0.64,3.68 -1.31,4.81 -1.98,5.94 -3.03,7.57 -4.09,9.21 -5.54,10.33 -6.99,11.44 -8.90,11.52 -10.82,11.60 -12.20,10.84 -13.58,10.07 -14.44,8.60 -15.30,7.13 -15.44,6.00 -15.57,4.88 -15.42,3.71 -15.27,2.55 -14.44,0.95 -13.62,-0.64 -12.79,-1.35 -11.95,-2.07 -9.99,-2.51 -8.03,-2.95 -6.98,-2.58 -5.93,-2.20 -4.96,-1.25 -3.98,-0.30 -3.38,0.70 -2.78,1.71 -2.28,2.89 -1.77,4.07 -0.78,5.73 0.19,7.39 1.39,8.54 2.58,9.68 3.36,10.30 4.14,10.91 4.35,10.93 4.56,10.95 4.75,11.04 4.95,11.12 5.10,11.27 5.26,11.41 5.37,11.60 5.47,11.78 5.51,11.99 5.54,12.20 5.51,12.41 5.48,12.62 5.39,12.81 5.29,13.00 5.14,13.15 4.99,13.30 4.80,13.39 4.61,13.48 4.40,13.51 4.19,13.54 3.98,13.50 3.77,13.45 3.58,13.35 3.40,13.24 3.26,13.08 3.12,12.92 3.04,12.73 2.95,12.53 2.94,12.32 2.92,12.11 2.98,11.90 3.03,11.70 3.15,11.52 3.26,11.34 3.43,11.21 3.59,11.08 3.79,11.00 3.99,10.93 4.21,10.93 4.42,10.92 4.62,10.99 4.83,11.05 5.00,11.18 5.17,11.30 5.29,11.48 5.41,11.65 5.47,11.85 5.53,12.06 5.53,12.27 5.52,12.48 5.44,12.68 5.37,12.88 5.23,13.04 5.10,13.21 4.92,13.32 4.74,13.44 4.53,13.48 4.33,13.53 4.33,13.53 4.33,13.53 1.25,12.69 -1.83,11.85 -2.71,10.88 -3.59,9.92 -4.23,8.92 -4.87,7.93 -5.39,6.88 -5.92,5.82 -6.62,4.24 -7.33,2.66 -8.30,2.06 -9.27,1.46 -10.08,2.37 -10.88,3.27 -10.92,4.75 -10.96,6.23 -10.11,7.09 -9.27,7.94 -8.16,7.46 -7.04,6.98 -5.99,5.52 -4.94,4.06 -4.14,2.87 -3.34,1.67 -2.25,0.39 -1.17,-0.87 -1.05,-1.00 -0.92,-1.12 -0.78,-1.22 -0.63,-1.31 -0.46,-1.37 -0.29,-1.43 -0.12,-1.44 0.05,-1.46 0.22,-1.43 0.40,-1.40 0.56,-1.33 0.72,-1.26 0.86,-1.16 1.00,-1.05 1.12,-0.92 1.23,-0.78 1.30,-0.62 1.38,-0.46 1.42,-0.29 1.45,-0.12 1.45,0.05 1.44,0.22 1.39,0.39 1.34,0.56 1.25,0.72 1.17,0.87 1.17,0.87 L 1.17,0.87 Z"></path></g><g transform="translate(377.04939933198875 115.52338674896964) rotate(0 -1.6918358381044527 1.3116828303673174)" stroke="none"><path fill="#1e1e1e" d="M -0.92,1.05 Q -0.92,1.05 -1.76,0.71 -2.61,0.37 -3.93,0.22 -5.25,0.07 -6.37,1.29 -7.49,2.50 -7.82,3.84 -8.15,5.18 -7.91,6.28 -7.67,7.37 -6.51,6.80 -5.35,6.23 -4.71,4.96 -4.07,3.68 -3.57,1.66 -3.07,-0.36 -2.90,-1.66 -2.73,-2.95 -2.65,-4.03 -2.56,-5.10 -2.58,-6.61 -2.59,-8.12 -2.66,-8.49 -2.73,-8.86 -2.74,-9.14 -2.74,-9.43 -2.68,-9.71 -2.62,-9.98 -2.50,-10.24 -2.37,-10.50 -2.19,-10.72 -2.00,-10.93 -1.77,-11.10 -1.54,-11.27 -1.28,-11.38 -1.01,-11.49 -0.73,-11.53 -0.45,-11.57 -0.16,-11.54 0.11,-11.52 0.38,-11.42 0.65,-11.33 0.89,-11.17 1.13,-11.02 1.32,-10.81 1.52,-10.60 1.66,-10.35 1.80,-10.10 1.87,-9.82 1.95,-9.55 1.94,-7.92 1.93,-6.29 1.94,-5.18 1.95,-4.07 2.28,-2.06 2.61,-0.05 2.93,1.33 3.26,2.73 3.55,3.99 3.85,5.25 4.45,7.04 5.05,8.83 5.87,9.24 6.68,9.64 6.88,9.58 7.09,9.52 7.30,9.53 7.51,9.54 7.71,9.61 7.91,9.69 8.07,9.82 8.23,9.96 8.35,10.14 8.46,10.32 8.51,10.53 8.56,10.73 8.54,10.95 8.52,11.16 8.43,11.35 8.34,11.54 8.20,11.70 8.05,11.86 7.87,11.96 7.68,12.06 7.47,12.10 7.26,12.14 7.05,12.10 6.84,12.07 6.65,11.98 6.47,11.88 6.32,11.73 6.17,11.57 6.08,11.38 5.99,11.19 5.96,10.98 5.93,10.77 5.98,10.56 6.02,10.35 6.13,10.17 6.23,9.99 6.39,9.85 6.55,9.71 6.75,9.63 6.95,9.54 7.16,9.53 7.37,9.52 7.58,9.57 7.78,9.62 7.96,9.74 8.14,9.86 8.27,10.02 8.40,10.19 8.47,10.39 8.54,10.59 8.54,10.81 8.54,11.02 8.48,11.22 8.41,11.42 8.29,11.59 8.16,11.76 7.99,11.89 7.81,12.01 7.81,12.01 7.81,12.01 5.31,12.78 2.80,13.55 1.49,12.14 0.19,10.73 -0.20,9.69 -0.60,8.64 -0.90,7.54 -1.20,6.44 -1.50,5.16 -1.80,3.87 -2.14,2.32 -2.49,0.76 -2.68,-0.59 -2.88,-1.94 -2.98,-3.03 -3.08,-4.12 -3.04,-5.31 -3.00,-6.50 -2.87,-7.68 -2.73,-8.85 -2.74,-9.14 -2.74,-9.43 -2.68,-9.70 -2.62,-9.98 -2.50,-10.24 -2.37,-10.50 -2.19,-10.72 -2.00,-10.93 -1.77,-11.10 -1.54,-11.27 -1.28,-11.38 -1.01,-11.49 -0.73,-11.53 -0.45,-11.57 -0.16,-11.54 0.11,-11.52 0.38,-11.42 0.65,-11.33 0.89,-11.17 1.13,-11.02 1.32,-10.81 1.52,-10.60 1.66,-10.35 1.80,-10.10 1.87,-9.82 1.95,-9.55 2.04,-8.78 2.14,-8.01 2.01,-6.37 1.89,-4.73 1.78,-3.54 1.67,-2.36 1.47,-0.91 1.28,0.53 1.02,1.78 0.76,3.04 0.38,4.27 0.01,5.51 -0.59,6.78 -1.19,8.05 -2.74,9.52 -4.29,10.99 -6.43,11.34 -8.58,11.69 -10.24,10.35 -11.91,9.01 -12.24,7.95 -12.58,6.88 -12.59,5.63 -12.60,4.38 -12.36,3.22 -12.11,2.06 -11.60,0.95 -11.08,-0.16 -9.36,-1.75 -7.64,-3.34 -5.60,-3.71 -3.57,-4.07 -1.77,-3.36 0.01,-2.65 0.46,-1.85 0.92,-1.05 1.03,-0.92 1.14,-0.80 1.22,-0.65 1.30,-0.50 1.35,-0.34 1.39,-0.17 1.39,-0.00 1.39,0.16 1.35,0.32 1.31,0.49 1.23,0.64 1.15,0.79 1.04,0.91 0.93,1.04 0.79,1.14 0.65,1.23 0.50,1.29 0.34,1.36 0.17,1.38 0.00,1.40 -0.16,1.38 -0.32,1.36 -0.48,1.30 -0.64,1.24 -0.78,1.15 -0.92,1.05 -0.92,1.05 L -0.92,1.05 Z"></path></g><g transform="translate(365.7184017636355 98.72868139788352) rotate(0 9.04914979989735 0.3214927127805822)" stroke="none"><path fill="#1e1e1e" d="M 0,-1.44 Q 0,-1.44 1.65,-1.57 3.30,-1.70 4.75,-1.65 6.20,-1.60 7.78,-1.56 9.37,-1.51 10.73,-1.44 12.09,-1.37 13.23,-1.31 14.38,-1.26 16.36,-0.96 18.34,-0.66 18.55,-0.62 18.76,-0.58 18.94,-0.47 19.13,-0.37 19.27,-0.21 19.41,-0.05 19.49,0.14 19.57,0.33 19.59,0.55 19.60,0.76 19.55,0.96 19.49,1.17 19.38,1.35 19.26,1.53 19.09,1.66 18.93,1.79 18.73,1.86 18.53,1.93 18.31,1.93 18.10,1.94 17.90,1.87 17.70,1.81 17.52,1.68 17.35,1.56 17.23,1.38 17.11,1.21 17.05,1.00 16.99,0.80 17.00,0.59 17.01,0.38 17.08,0.18 17.16,-0.01 17.29,-0.17 17.43,-0.34 17.61,-0.45 17.79,-0.56 17.99,-0.61 18.20,-0.66 18.41,-0.64 18.62,-0.62 18.82,-0.54 19.01,-0.45 19.17,-0.31 19.32,-0.16 19.43,0.01 19.53,0.20 19.57,0.41 19.61,0.62 19.57,0.83 19.54,1.04 19.45,1.23 19.35,1.42 19.20,1.56 19.05,1.71 18.86,1.81 18.66,1.90 18.45,1.92 18.24,1.95 18.24,1.95 18.24,1.95 16.21,2.06 14.18,2.18 13.06,2.10 11.93,2.03 10.59,1.98 9.25,1.92 7.67,1.87 6.08,1.81 4.69,1.76 3.30,1.70 1.65,1.57 0,1.44 -0.17,1.42 -0.34,1.40 -0.50,1.34 -0.67,1.28 -0.81,1.18 -0.95,1.08 -1.07,0.95 -1.19,0.82 -1.27,0.66 -1.35,0.51 -1.39,0.34 -1.43,0.17 -1.43,-0.00 -1.43,-0.17 -1.39,-0.34 -1.35,-0.51 -1.27,-0.66 -1.19,-0.82 -1.07,-0.95 -0.95,-1.08 -0.81,-1.18 -0.67,-1.28 -0.50,-1.34 -0.34,-1.40 -0.17,-1.42 0.00,-1.44 0.00,-1.44 L 0,-1.44 Z"></path></g><g transform="translate(382.0395686942138 96.22104546936953) rotate(0 0.8103870421473403 4.488021328810191)" stroke="none"><path fill="#1e1e1e" d="M 0.71,-1.30 Q 0.71,-1.30 1.72,-1.12 2.74,-0.93 3.74,-0.40 4.75,0.12 5.32,1.80 5.89,3.49 5.24,4.35 4.59,5.21 3.54,6.12 2.49,7.04 0.60,8.56 -1.28,10.09 -1.43,10.24 -1.58,10.39 -1.77,10.48 -1.96,10.58 -2.17,10.60 -2.38,10.63 -2.59,10.59 -2.80,10.55 -2.99,10.44 -3.17,10.34 -3.31,10.18 -3.45,10.02 -3.53,9.82 -3.62,9.63 -3.63,9.42 -3.65,9.20 -3.60,9.00 -3.54,8.79 -3.43,8.61 -3.31,8.43 -3.15,8.30 -2.98,8.17 -2.78,8.10 -2.58,8.03 -2.37,8.02 -2.15,8.02 -1.95,8.08 -1.75,8.15 -1.58,8.27 -1.41,8.40 -1.28,8.57 -1.16,8.74 -1.10,8.95 -1.04,9.15 -1.05,9.36 -1.05,9.57 -1.13,9.77 -1.20,9.97 -1.34,10.14 -1.47,10.30 -1.65,10.41 -1.83,10.53 -2.04,10.58 -2.24,10.63 -2.45,10.61 -2.67,10.59 -2.86,10.51 -3.06,10.42 -3.21,10.28 -3.37,10.13 -3.47,9.95 -3.58,9.76 -3.62,9.55 -3.65,9.34 -3.62,9.13 -3.59,8.92 -3.50,8.73 -3.40,8.54 -3.40,8.55 -3.40,8.55 -2.58,7.08 -1.75,5.61 -0.53,4.21 0.67,2.81 -0.02,2.06 -0.71,1.30 -0.86,1.20 -1.01,1.09 -1.12,0.96 -1.24,0.82 -1.32,0.66 -1.40,0.50 -1.44,0.32 -1.48,0.15 -1.48,-0.02 -1.47,-0.20 -1.43,-0.38 -1.38,-0.55 -1.29,-0.71 -1.21,-0.87 -1.08,-1.00 -0.96,-1.13 -0.81,-1.23 -0.66,-1.33 -0.49,-1.39 -0.32,-1.45 -0.15,-1.47 0.02,-1.49 0.20,-1.46 0.38,-1.44 0.55,-1.37 0.71,-1.30 0.71,-1.30 L 0.71,-1.30 Z"></path></g><g transform="translate(328.91041735725594 155.40117900454607) rotate(0 4.869346819330531 -0.8744655504892762)" stroke="none"><path fill="#1e1e1e" d="M 0.08,-1.51 Q 0.08,-1.51 1.11,-1.55 2.14,-1.58 3.72,-1.84 5.30,-2.10 5.52,-3.16 5.73,-4.22 4.59,-4.20 3.46,-4.18 2.62,-3.17 1.79,-2.16 1.82,-0.83 1.85,0.49 2.91,1.38 3.97,2.27 5.30,2.69 6.62,3.11 8.57,2.92 10.52,2.73 10.73,2.70 10.94,2.67 11.15,2.71 11.35,2.75 11.54,2.85 11.72,2.96 11.87,3.12 12.01,3.28 12.09,3.47 12.17,3.67 12.19,3.88 12.21,4.09 12.16,4.30 12.11,4.50 11.99,4.68 11.88,4.86 11.71,4.99 11.54,5.13 11.35,5.20 11.15,5.27 10.93,5.28 10.72,5.28 10.52,5.22 10.31,5.16 10.14,5.03 9.97,4.91 9.85,4.74 9.72,4.56 9.66,4.36 9.60,4.16 9.60,3.94 9.61,3.73 9.68,3.53 9.76,3.33 9.89,3.17 10.02,3.00 10.20,2.89 10.38,2.77 10.59,2.72 10.79,2.67 11.01,2.69 11.22,2.71 11.41,2.79 11.61,2.88 11.77,3.02 11.92,3.16 12.03,3.35 12.13,3.53 12.17,3.74 12.21,3.95 12.18,4.16 12.15,4.37 12.06,4.56 11.97,4.75 11.81,4.90 11.66,5.05 11.47,5.14 11.28,5.24 11.28,5.24 11.28,5.24 8.78,6.25 6.27,7.26 5.09,7.30 3.92,7.34 2.73,7.06 1.55,6.78 0.38,6.08 -0.79,5.37 -1.53,4.49 -2.28,3.60 -2.73,2.56 -3.18,1.53 -3.37,0.24 -3.55,-1.03 -2.99,-2.97 -2.43,-4.91 -1.17,-6.24 0.08,-7.57 1.72,-8.32 3.36,-9.06 5.01,-8.94 6.67,-8.82 7.86,-7.93 9.04,-7.04 9.40,-5.53 9.76,-4.02 9.56,-2.65 9.36,-1.27 8.44,-0.20 7.51,0.87 5.86,1.30 4.21,1.72 3.08,1.76 1.96,1.80 0.93,1.66 -0.08,1.51 -0.26,1.48 -0.44,1.45 -0.61,1.38 -0.77,1.30 -0.92,1.19 -1.06,1.08 -1.18,0.93 -1.29,0.79 -1.37,0.62 -1.44,0.46 -1.48,0.28 -1.51,0.10 -1.50,-0.08 -1.49,-0.26 -1.44,-0.43 -1.39,-0.61 -1.29,-0.77 -1.20,-0.93 -1.07,-1.06 -0.94,-1.19 -0.78,-1.28 -0.63,-1.38 -0.45,-1.43 -0.28,-1.49 -0.10,-1.50 0.08,-1.51 0.08,-1.51 L 0.08,-1.51 Z"></path></g><g transform="translate(346.2978928140492 140.98549803451988) rotate(0 0.49048002193922 8.532384470125635)" stroke="none"><path fill="#1e1e1e" d="M 1.66,0.10 Q 1.66,0.10 2.03,1.44 2.40,2.77 2.52,3.95 2.64,5.14 2.77,6.29 2.89,7.45 3.05,8.56 3.20,9.66 3.40,11.34 3.61,13.01 2.52,14.90 1.44,16.78 1.44,16.94 1.44,17.10 1.40,17.25 1.37,17.41 1.29,17.55 1.22,17.69 1.12,17.81 1.01,17.92 0.88,18.01 0.75,18.10 0.60,18.16 0.46,18.22 0.30,18.24 0.14,18.26 -0.01,18.24 -0.16,18.22 -0.31,18.16 -0.46,18.11 -0.59,18.02 -0.72,17.93 -0.83,17.81 -0.93,17.69 -1.01,17.55 -1.08,17.41 -1.12,17.26 -1.16,17.11 -0.90,17.55 -0.64,17.99 -0.79,17.84 -0.94,17.68 -1.03,17.49 -1.12,17.30 -1.14,17.09 -1.16,16.88 -1.12,16.67 -1.07,16.46 -0.97,16.28 -0.86,16.10 -0.69,15.96 -0.53,15.82 -0.34,15.74 -0.14,15.66 0.06,15.65 0.28,15.64 0.48,15.69 0.69,15.75 0.86,15.87 1.04,15.99 1.17,16.16 1.30,16.33 1.36,16.53 1.43,16.73 1.43,16.94 1.43,17.15 1.37,17.35 1.30,17.56 1.17,17.73 1.04,17.90 0.87,18.01 0.69,18.13 0.49,18.19 0.28,18.25 0.07,18.24 -0.13,18.23 -0.33,18.15 -0.53,18.07 -0.69,17.93 -0.85,17.80 -0.96,17.61 -1.07,17.43 -1.12,17.23 -1.16,17.02 -1.14,16.81 -1.12,16.60 -1.03,16.40 -0.94,16.21 -0.80,16.05 -0.65,15.90 -0.46,15.80 -0.28,15.70 -0.07,15.67 0.13,15.63 0.34,15.66 0.55,15.70 1.00,16.24 1.44,16.78 1.44,16.94 1.44,17.10 1.40,17.25 1.37,17.41 1.29,17.55 1.22,17.69 1.12,17.81 1.01,17.92 0.88,18.01 0.75,18.10 0.60,18.16 0.46,18.22 0.30,18.24 0.14,18.26 -0.01,18.24 -0.16,18.22 -0.31,18.16 -0.46,18.11 -0.59,18.02 -0.72,17.93 -0.83,17.81 -0.93,17.69 -1.01,17.55 -1.08,17.41 -1.12,17.26 -1.16,17.11 -1.51,15.43 -1.87,13.76 -2.07,12.02 -2.27,10.29 -2.38,9.12 -2.49,7.95 -2.59,6.69 -2.69,5.43 -2.72,3.93 -2.75,2.43 -2.20,1.16 -1.66,-0.10 -1.62,-0.30 -1.58,-0.50 -1.50,-0.68 -1.42,-0.86 -1.29,-1.02 -1.17,-1.18 -1.01,-1.30 -0.85,-1.43 -0.67,-1.51 -0.48,-1.59 -0.28,-1.62 -0.09,-1.66 0.10,-1.65 0.30,-1.63 0.50,-1.57 0.69,-1.51 0.86,-1.41 1.03,-1.30 1.17,-1.16 1.31,-1.02 1.42,-0.84 1.52,-0.67 1.58,-0.48 1.64,-0.29 1.65,-0.09 1.66,0.10 1.66,0.10 L 1.66,0.10 Z"></path></g><g transform="translate(341.5067459476686 150.0515584451141) rotate(0 5.715249243015933 -0.4758110743587167)" stroke="none"><path fill="#1e1e1e" d="M -0.16,-1.52 Q -0.16,-1.52 1.19,-1.79 2.54,-2.05 3.98,-2.16 5.43,-2.26 6.70,-2.21 7.98,-2.16 9.65,-2.21 11.33,-2.26 11.54,-2.24 11.75,-2.22 11.94,-2.13 12.14,-2.05 12.30,-1.91 12.45,-1.76 12.56,-1.58 12.66,-1.39 12.70,-1.18 12.74,-0.98 12.71,-0.76 12.68,-0.55 12.58,-0.36 12.49,-0.17 12.34,-0.03 12.19,0.11 11.99,0.21 11.80,0.30 11.59,0.33 11.38,0.36 11.17,0.31 10.97,0.27 10.78,0.17 10.60,0.06 10.46,-0.09 10.32,-0.25 10.23,-0.44 10.15,-0.64 10.13,-0.85 10.12,-1.06 10.17,-1.27 10.22,-1.47 10.34,-1.65 10.45,-1.83 10.62,-1.96 10.79,-2.09 10.99,-2.17 11.19,-2.24 11.40,-2.24 11.61,-2.25 11.81,-2.18 12.02,-2.12 12.19,-1.99 12.36,-1.87 12.48,-1.70 12.61,-1.52 12.67,-1.32 12.73,-1.12 12.72,-0.90 12.71,-0.69 12.64,-0.49 12.57,-0.29 12.43,-0.13 12.30,0.03 12.12,0.14 11.94,0.25 11.73,0.30 11.52,0.35 11.52,0.35 11.53,0.35 9.86,0.56 8.20,0.77 6.95,1.01 5.70,1.25 4.30,1.36 2.91,1.48 1.53,1.50 0.16,1.52 -0.02,1.52 -0.20,1.52 -0.38,1.47 -0.56,1.42 -0.72,1.33 -0.89,1.24 -1.02,1.12 -1.16,0.99 -1.26,0.84 -1.37,0.69 -1.43,0.51 -1.49,0.34 -1.51,0.16 -1.53,-0.02 -1.50,-0.20 -1.48,-0.39 -1.41,-0.56 -1.34,-0.73 -1.24,-0.88 -1.13,-1.03 -0.99,-1.15 -0.85,-1.27 -0.68,-1.36 -0.52,-1.44 -0.34,-1.48 -0.16,-1.52 -0.16,-1.52 L -0.16,-1.52 Z"></path></g><g transform="translate(364.8227282206226 149.84580062967598) rotate(0 -2.345822974351904 4.320841812486378)" stroke="none"><path fill="#1e1e1e" d="M -1.52,-0.00 Q -1.52,-0.00 -1.89,-0.55 -2.26,-1.09 -2.99,-0.00 -3.71,1.08 -4.26,2.53 -4.80,3.98 -4.82,5.18 -4.84,6.39 -4.04,7.34 -3.25,8.29 -1.85,8.62 -0.46,8.95 1.03,8.92 2.53,8.89 2.74,8.83 2.94,8.76 3.15,8.77 3.36,8.77 3.56,8.85 3.76,8.92 3.93,9.05 4.10,9.18 4.21,9.36 4.33,9.54 4.38,9.75 4.43,9.95 4.41,10.16 4.40,10.38 4.32,10.57 4.23,10.77 4.09,10.93 3.95,11.08 3.77,11.19 3.58,11.29 3.37,11.34 3.16,11.38 2.95,11.35 2.74,11.32 2.55,11.23 2.36,11.13 2.21,10.98 2.06,10.84 1.96,10.65 1.87,10.46 1.84,10.24 1.81,10.03 1.85,9.83 1.89,9.62 1.99,9.43 2.10,9.25 2.25,9.10 2.41,8.96 2.61,8.88 2.80,8.79 3.01,8.77 3.22,8.75 3.43,8.81 3.64,8.86 3.82,8.97 4.00,9.08 4.13,9.25 4.26,9.41 4.34,9.61 4.41,9.81 4.42,10.02 4.42,10.24 4.36,10.44 4.30,10.64 4.18,10.82 4.06,10.99 3.88,11.11 3.71,11.24 3.71,11.24 3.71,11.24 1.48,12.34 -0.75,13.44 -2.58,13.36 -4.41,13.28 -6.26,12.11 -8.10,10.93 -8.72,10.00 -9.33,9.06 -9.70,7.97 -10.08,6.88 -10.14,5.73 -10.19,4.58 -9.98,3.44 -9.77,2.30 -9.26,0.99 -8.75,-0.30 -7.30,-1.98 -5.85,-3.66 -4.16,-4.29 -2.47,-4.92 -1.26,-4.68 -0.05,-4.44 1.11,-2.98 2.28,-1.51 1.90,-0.75 1.52,0.00 1.49,0.19 1.47,0.37 1.40,0.54 1.34,0.71 1.23,0.86 1.13,1.01 0.99,1.13 0.85,1.25 0.69,1.34 0.53,1.42 0.35,1.46 0.17,1.51 -0.00,1.50 -0.19,1.50 -0.37,1.46 -0.54,1.41 -0.70,1.33 -0.87,1.24 -1.00,1.12 -1.14,1.00 -1.24,0.84 -1.35,0.69 -1.41,0.52 -1.47,0.35 -1.49,0.17 -1.52,-0.00 -1.52,-0.00 L -1.52,-0.00 Z"></path></g><g transform="translate(374.98791634508416 156.90575849560628) rotate(0 0.13506795043940656 -0.44366335261747736)" stroke="none"><path d="M0 0 C0.05 -0.15, 0.27 -0.89, 0.27 -0.89 C0.27 -0.89, 0.05 -0.15, 0 0" stroke="none" stroke-width="0" fill="#ffffff" fill-rule="evenodd"></path><path fill="#1e1e1e" d="M 2.84,-0.88 Q 2.84,-0.88 2.88,-0.17 2.92,0.53 2.63,1.18 2.34,1.83 1.78,2.27 1.22,2.71 0.52,2.84 -0.17,2.97 -0.86,2.75 -1.54,2.54 -2.04,2.04 -2.54,1.53 -2.75,0.85 -2.97,0.17 -2.84,-0.52 -2.71,-1.22 -2.27,-1.78 -1.83,-2.34 -1.18,-2.63 -0.53,-2.92 0.17,-2.88 0.88,-2.84 1.49,-2.47 2.10,-2.10 2.47,-1.49 L 2.84,-0.88 Z"></path></g></svg>