<svg version="1.1" xmlns="http://www.w3.org/2000/svg" viewBox="0 0 420 220" width="840" height="440"><!-- svg-source:excalidraw --><metadata></metadata><defs><style class="style-fonts">
      </style></defs><rect x="0" y="0" width="420" height="220" fill="#ffffff"></rect><g stroke-linecap="round"><g transform="translate(10 210) rotate(0 100 0)"><path d="M0 0 C67.23 0, 134.46 0, 200 0 M0 0 C51.55 0, 103.09 0, 200 0" stroke="#f08c00" stroke-width="2" fill="none"></path></g><g transform="translate(10 210) rotate(0 100 0)"><path d="M176.51 8.55 C184.4 5.68, 192.3 2.8, 200 0 M176.51 8.55 C182.56 6.35, 188.62 4.14, 200 0" stroke="#f08c00" stroke-width="2" fill="none"></path></g><g transform="translate(10 210) rotate(0 100 0)"><path d="M176.51 -8.55 C184.4 -5.68, 192.3 -2.8, 200 0 M176.51 -8.55 C182.56 -6.35, 188.62 -4.14, 200 0" stroke="#f08c00" stroke-width="2" fill="none"></path></g></g><mask></mask><g stroke-linecap="round"><g transform="translate(10 210) rotate(0 0 -100)"><path d="M0 0 C0 -51.96, 0 -103.92, 0 -200 M0 0 C0 -48.1, 0 -96.21, 0 -200" stroke="#f08c00" stroke-width="2" fill="none"></path></g><g transform="translate(10 210) rotate(0 0 -100)"><path d="M8.55 -176.51 C6.33 -182.61, 4.11 -188.71, 0 -200 M8.55 -176.51 C6.49 -182.16, 4.44 -187.81, 0 -200" stroke="#f08c00" stroke-width="2" fill="none"></path></g><g transform="translate(10 210) rotate(0 0 -100)"><path d="M-8.55 -176.51 C-6.33 -182.61, -4.11 -188.71, 0 -200 M-8.55 -176.51 C-6.49 -182.16, -4.44 -187.81, 0 -200" stroke="#f08c00" stroke-width="2" fill="none"></path></g></g><mask></mask><g stroke-linecap="round"><g transform="translate(10 210) rotate(0 100 -100)"><path d="M0 0 C64.48 -64.48, 128.96 -128.96, 200 -200 M0 0 C67.22 -67.22, 134.43 -134.43, 200 -200" stroke="#f08c00" stroke-width="2" fill="none"></path></g><g transform="translate(10 210) rotate(0 100 -100)"><path d="M189.43 -177.34 C192.84 -184.65, 196.25 -191.95, 200 -200 M189.43 -177.34 C192.99 -184.96, 196.54 -192.57, 200 -200" stroke="#f08c00" stroke-width="2" fill="none"></path></g><g transform="translate(10 210) rotate(0 100 -100)"><path d="M177.34 -189.43 C184.65 -192.84, 191.95 -196.25, 200 -200 M177.34 -189.43 C184.96 -192.99, 192.57 -196.54, 200 -200" stroke="#f08c00" stroke-width="2" fill="none"></path></g></g><mask></mask><g stroke-linecap="round"><g transform="translate(10 210) rotate(0 200 -100)"><path d="M0 0 C156.37 -78.18, 312.74 -156.37, 400 -200 M0 0 C124.97 -62.48, 249.93 -124.97, 400 -200" stroke="#1e1e1e" stroke-width="2" fill="none"></path></g><g transform="translate(10 210) rotate(0 200 -100)"><path d="M382.81 -181.85 C389.53 -188.94, 396.25 -196.04, 400 -200 M382.81 -181.85 C388.18 -187.52, 393.55 -193.19, 400 -200" stroke="#1e1e1e" stroke-width="2" fill="none"></path></g><g transform="translate(10 210) rotate(0 200 -100)"><path d="M375.16 -197.14 C384.87 -198.26, 394.58 -199.38, 400 -200 M375.16 -197.14 C382.92 -198.03, 390.68 -198.93, 400 -200" stroke="#1e1e1e" stroke-width="2" fill="none"></path></g></g><mask></mask><g transform="translate(383.1658411739354 73.2738977560548) rotate(0 -1.611593968123998 -0.9599911752511616)" stroke="none"><path fill="#1e1e1e" d="M -1.03,0.85 Q -1.03,0.85 -1.63,0.32 -2.23,-0.20 -3.37,-0.54 -4.50,-0.88 -5.54,-0.44 -6.58,-0.00 -7.50,0.55 -8.41,1.12 -9.09,2.41 -9.76,3.70 -9.96,4.85 -10.15,6.00 -9.78,7.02 -9.41,8.04 -7.94,8.26 -6.48,8.47 -5.39,8.02 -4.31,7.56 -3.41,6.81 -2.51,6.06 -2.16,4.57 -1.81,3.09 -1.71,1.76 -1.62,0.42 -1.58,-1.44 -1.55,-3.32 -1.54,-5.02 -1.53,-6.72 -1.57,-7.99 -1.60,-9.26 -1.70,-10.48 -1.80,-11.70 -1.80,-11.83 -1.80,-11.96 -1.77,-12.21 -1.73,-12.47 -1.64,-12.71 -1.55,-12.95 -1.41,-13.15 -1.26,-13.36 -1.07,-13.53 -0.88,-13.70 -0.66,-13.82 -0.43,-13.94 -0.18,-14.00 0.05,-14.06 0.31,-14.06 0.56,-14.06 0.81,-14.00 1.06,-13.94 1.29,-13.82 1.51,-13.70 1.70,-13.53 1.89,-13.36 2.04,-13.15 2.18,-12.94 2.27,-12.71 2.36,-12.47 2.39,-12.21 2.43,-11.96 2.32,-10.68 2.21,-9.39 2.18,-8.00 2.14,-6.60 2.16,-4.55 2.17,-2.49 2.30,-0.63 2.43,1.23 2.65,2.65 2.87,4.06 3.03,5.27 3.19,6.48 4.00,7.29 4.82,8.10 6.47,7.44 8.12,6.79 8.32,6.71 8.52,6.63 8.73,6.62 8.94,6.61 9.15,6.66 9.35,6.72 9.53,6.84 9.70,6.96 9.83,7.13 9.96,7.30 10.03,7.50 10.10,7.70 10.10,7.91 10.10,8.13 10.03,8.33 9.96,8.53 9.83,8.70 9.70,8.87 9.53,8.99 9.35,9.10 9.15,9.16 8.94,9.22 8.73,9.21 8.52,9.19 8.32,9.12 8.12,9.04 7.96,8.90 7.80,8.76 7.69,8.58 7.58,8.40 7.53,8.19 7.49,7.98 7.51,7.77 7.54,7.56 7.62,7.37 7.71,7.17 7.86,7.02 8.01,6.87 8.19,6.77 8.38,6.67 8.59,6.63 8.80,6.60 9.01,6.63 9.22,6.67 9.41,6.77 9.60,6.87 9.74,7.02 9.89,7.18 9.98,7.37 10.07,7.56 10.09,7.77 10.11,7.99 10.07,8.19 10.02,8.40 9.91,8.58 9.80,8.76 9.64,8.90 9.48,9.04 9.48,9.04 9.48,9.04 7.19,10.57 4.91,12.10 3.12,12.04 1.33,11.97 0.32,10.96 -0.69,9.95 -1.05,8.87 -1.41,7.80 -1.55,6.37 -1.69,4.94 -1.93,3.32 -2.17,1.70 -2.26,0.55 -2.36,-0.59 -2.32,-2.56 -2.27,-4.53 -2.22,-6.47 -2.17,-8.40 -1.98,-10.18 -1.80,-11.96 -1.77,-12.21 -1.73,-12.47 -1.64,-12.71 -1.55,-12.94 -1.41,-13.15 -1.26,-13.36 -1.07,-13.53 -0.88,-13.70 -0.66,-13.82 -0.43,-13.94 -0.18,-14.00 0.05,-14.06 0.31,-14.06 0.56,-14.06 0.81,-14.00 1.06,-13.94 1.29,-13.82 1.51,-13.70 1.70,-13.53 1.89,-13.36 2.04,-13.15 2.18,-12.94 2.27,-12.71 2.36,-12.47 2.39,-12.21 2.43,-11.96 2.43,-11.83 2.43,-11.70 2.33,-10.48 2.23,-9.25 2.20,-7.98 2.16,-6.71 2.15,-5.00 2.15,-3.28 2.12,-1.31 2.10,0.64 1.97,2.14 1.84,3.65 1.42,5.26 1.00,6.87 0.07,8.13 -0.86,9.38 -1.84,10.03 -2.83,10.67 -3.95,11.15 -5.08,11.63 -6.44,11.77 -7.79,11.91 -9.02,11.69 -10.25,11.47 -11.58,10.52 -12.91,9.57 -13.29,7.51 -13.67,5.45 -13.36,3.93 -13.05,2.40 -12.42,1.17 -11.79,-0.05 -10.49,-1.32 -9.20,-2.58 -7.59,-3.20 -5.99,-3.82 -4.29,-3.85 -2.60,-3.89 -1.19,-3.07 0.21,-2.24 0.62,-1.54 1.03,-0.85 1.12,-0.71 1.21,-0.58 1.26,-0.42 1.31,-0.27 1.32,-0.11 1.34,0.04 1.31,0.20 1.29,0.36 1.22,0.51 1.16,0.66 1.06,0.79 0.97,0.92 0.84,1.02 0.72,1.13 0.57,1.20 0.43,1.27 0.27,1.30 0.11,1.33 -0.04,1.33 -0.21,1.32 -0.36,1.28 -0.52,1.23 -0.66,1.15 -0.80,1.07 -0.91,0.96 -1.03,0.85 -1.03,0.85 L -1.03,0.85 Z"></path></g><g transform="translate(369.8011767548942 49.262446228663066) rotate(0 11.844791050936692 -0.5688838357136774)" stroke="none"><path fill="#1e1e1e" d="M -0.08,-1.47 Q -0.08,-1.47 1.39,-1.83 2.87,-2.19 4.58,-2.23 6.28,-2.26 7.87,-2.28 9.46,-2.29 10.74,-2.30 12.02,-2.30 14.18,-2.36 16.34,-2.42 17.57,-2.53 18.81,-2.64 21.09,-2.57 23.37,-2.50 23.58,-2.52 23.79,-2.54 24.00,-2.48 24.21,-2.43 24.38,-2.32 24.56,-2.20 24.70,-2.04 24.83,-1.87 24.90,-1.67 24.97,-1.47 24.98,-1.26 24.99,-1.05 24.92,-0.84 24.86,-0.64 24.74,-0.47 24.61,-0.30 24.44,-0.17 24.27,-0.05 24.06,0.00 23.86,0.06 23.65,0.06 23.43,0.05 23.23,-0.01 23.04,-0.09 22.87,-0.22 22.71,-0.35 22.59,-0.53 22.48,-0.71 22.43,-0.92 22.38,-1.12 22.39,-1.34 22.41,-1.55 22.50,-1.74 22.58,-1.94 22.72,-2.10 22.86,-2.25 23.05,-2.36 23.23,-2.46 23.44,-2.50 23.65,-2.54 23.86,-2.51 24.07,-2.48 24.26,-2.39 24.45,-2.29 24.60,-2.14 24.75,-1.99 24.85,-1.80 24.94,-1.61 24.97,-1.40 25.00,-1.19 24.96,-0.98 24.92,-0.77 24.81,-0.59 24.71,-0.40 24.55,-0.26 24.39,-0.12 24.19,-0.04 24.00,0.04 24.00,0.04 24.00,0.04 21.58,0.72 19.16,1.40 17.84,1.52 16.52,1.63 14.28,1.69 12.04,1.75 10.77,1.76 9.50,1.77 7.93,1.78 6.37,1.80 4.73,1.83 3.09,1.86 1.58,1.67 0.08,1.47 -0.09,1.46 -0.27,1.45 -0.44,1.39 -0.61,1.34 -0.76,1.25 -0.91,1.15 -1.04,1.03 -1.16,0.90 -1.25,0.75 -1.34,0.59 -1.40,0.42 -1.45,0.25 -1.46,0.08 -1.47,-0.09 -1.44,-0.27 -1.40,-0.44 -1.33,-0.60 -1.25,-0.77 -1.14,-0.91 -1.03,-1.05 -0.89,-1.15 -0.75,-1.26 -0.59,-1.34 -0.43,-1.41 -0.25,-1.44 -0.08,-1.47 -0.08,-1.47 L -0.08,-1.47 Z"></path></g><g transform="translate(389.2978878653812 42.29367041391288) rotate(0 3.8652892594491277 5.807311592207043)" stroke="none"><path fill="#1e1e1e" d="M 0.91,-1.18 Q 0.91,-1.18 2.50,-0.47 4.09,0.23 5.07,0.96 6.05,1.68 7.11,2.44 8.17,3.21 9.03,4.15 9.90,5.08 9.91,5.11 9.91,5.13 9.99,5.41 10.07,5.69 10.08,5.98 10.09,6.26 10.03,6.54 9.97,6.82 9.84,7.08 9.71,7.34 9.53,7.56 9.35,7.78 9.11,7.95 8.88,8.12 8.62,8.23 8.35,8.34 8.07,8.38 7.78,8.43 7.50,8.40 7.21,8.38 6.94,8.28 6.67,8.19 6.43,8.03 6.19,7.88 5.99,7.67 5.79,7.46 5.65,7.21 5.51,6.96 6.80,7.65 8.08,8.34 7.50,9.28 6.92,10.21 4.52,11.53 2.13,12.84 1.94,12.94 1.76,13.04 1.55,13.08 1.34,13.11 1.13,13.08 0.92,13.05 0.73,12.95 0.54,12.85 0.39,12.69 0.25,12.54 0.16,12.35 0.07,12.16 0.04,11.94 0.02,11.73 0.06,11.53 0.11,11.32 0.22,11.13 0.33,10.95 0.49,10.81 0.65,10.68 0.85,10.60 1.04,10.52 1.26,10.51 1.47,10.49 1.67,10.55 1.88,10.61 2.06,10.72 2.23,10.84 2.36,11.01 2.49,11.18 2.56,11.38 2.63,11.58 2.63,11.79 2.63,12.01 2.56,12.21 2.49,12.41 2.37,12.58 2.24,12.75 2.06,12.87 1.89,12.99 1.68,13.05 1.48,13.10 1.27,13.09 1.05,13.08 0.86,13.00 0.66,12.93 0.50,12.79 0.33,12.65 0.22,12.47 0.11,12.29 0.07,12.08 0.02,11.87 0.04,11.66 0.06,11.45 0.15,11.26 0.24,11.07 0.39,10.91 0.53,10.76 0.53,10.76 0.53,10.76 1.84,8.76 3.15,6.77 3.99,5.90 4.83,5.02 5.81,4.41 6.79,3.80 8.35,4.47 9.91,5.13 9.99,5.41 10.07,5.69 10.08,5.97 10.09,6.26 10.03,6.54 9.97,6.82 9.84,7.08 9.71,7.34 9.53,7.56 9.35,7.78 9.11,7.95 8.88,8.12 8.62,8.23 8.35,8.34 8.07,8.38 7.79,8.43 7.50,8.40 7.21,8.38 6.94,8.28 6.67,8.19 6.43,8.03 6.19,7.88 5.99,7.67 5.79,7.46 5.65,7.21 5.51,6.96 5.50,6.99 5.48,7.02 4.37,6.22 3.27,5.41 2.26,4.66 1.26,3.90 0.17,2.54 -0.91,1.18 -1.03,1.05 -1.16,0.92 -1.26,0.77 -1.35,0.62 -1.41,0.45 -1.46,0.27 -1.47,0.09 -1.48,-0.07 -1.45,-0.25 -1.42,-0.43 -1.35,-0.59 -1.28,-0.76 -1.17,-0.90 -1.06,-1.04 -0.92,-1.15 -0.78,-1.27 -0.61,-1.34 -0.45,-1.42 -0.27,-1.45 -0.10,-1.48 0.07,-1.47 0.25,-1.46 0.43,-1.41 0.60,-1.36 0.75,-1.27 0.91,-1.18 0.91,-1.18 L 0.91,-1.18 Z"></path></g><g transform="translate(200.383765131166 177.9239796508482) rotate(0 -2.9481023002745133 2.6784719169299933)" stroke="none"><path fill="#f08c00" d="M -1.35,0.69 Q -1.35,0.69 -2.05,-0.08 -2.75,-0.86 -3.78,-1.43 -4.81,-2.01 -5.98,-1.27 -7.15,-0.53 -7.96,0.53 -8.78,1.60 -9.13,3.06 -9.47,4.52 -9.52,5.64 -9.56,6.75 -8.30,6.63 -7.03,6.50 -6.29,5.66 -5.56,4.82 -5.12,3.80 -4.69,2.78 -4.21,1.52 -3.74,0.26 -3.60,-0.83 -3.45,-1.94 -3.46,-2.32 -3.48,-2.70 -3.44,-2.96 -3.39,-3.23 -3.29,-3.47 -3.19,-3.72 -3.03,-3.93 -2.87,-4.15 -2.66,-4.32 -2.45,-4.49 -2.21,-4.61 -1.97,-4.72 -1.71,-4.78 -1.44,-4.83 -1.18,-4.82 -0.91,-4.81 -0.65,-4.74 -0.39,-4.67 -0.16,-4.53 0.06,-4.40 0.26,-4.22 0.45,-4.03 0.60,-3.81 0.74,-3.58 0.83,-3.33 0.91,-3.07 0.94,-2.81 0.96,-2.54 0.81,-1.44 0.66,-0.33 0.61,1.45 0.57,3.25 0.88,4.87 1.20,6.48 3.25,6.44 5.29,6.39 5.50,6.35 5.71,6.31 5.92,6.35 6.13,6.38 6.32,6.47 6.51,6.57 6.66,6.72 6.81,6.87 6.90,7.06 6.99,7.25 7.02,7.47 7.05,7.68 7.00,7.88 6.96,8.09 6.86,8.28 6.75,8.46 6.59,8.60 6.43,8.74 6.23,8.82 6.04,8.91 5.83,8.92 5.61,8.94 5.41,8.88 5.20,8.83 5.03,8.71 4.85,8.60 4.72,8.43 4.58,8.26 4.51,8.06 4.44,7.86 4.44,7.65 4.43,7.44 4.50,7.23 4.56,7.03 4.69,6.86 4.81,6.69 4.99,6.57 5.16,6.45 5.37,6.38 5.57,6.32 5.78,6.33 5.99,6.34 6.19,6.42 6.39,6.49 6.56,6.63 6.72,6.76 6.83,6.94 6.95,7.12 6.99,7.33 7.04,7.53 7.02,7.75 7.01,7.96 6.92,8.15 6.83,8.35 6.69,8.50 6.55,8.66 6.36,8.76 6.17,8.86 6.17,8.86 6.17,8.86 3.31,9.99 0.44,11.11 -1.10,10.13 -2.66,9.16 -3.18,7.79 -3.70,6.42 -3.85,4.81 -4.00,3.19 -3.95,1.67 -3.89,0.14 -3.69,-1.27 -3.48,-2.70 -3.44,-2.96 -3.39,-3.22 -3.29,-3.47 -3.19,-3.72 -3.03,-3.93 -2.87,-4.15 -2.66,-4.32 -2.45,-4.49 -2.21,-4.61 -1.97,-4.72 -1.71,-4.78 -1.44,-4.83 -1.18,-4.82 -0.91,-4.81 -0.65,-4.74 -0.39,-4.67 -0.16,-4.53 0.06,-4.40 0.26,-4.22 0.45,-4.03 0.60,-3.81 0.74,-3.58 0.83,-3.33 0.91,-3.07 0.94,-2.81 0.96,-2.54 0.93,-2.27 0.89,-2.00 0.68,-0.77 0.46,0.45 0.02,1.72 -0.41,2.98 -0.97,4.35 -1.53,5.72 -2.21,6.94 -2.89,8.15 -3.72,8.91 -4.56,9.66 -5.41,10.30 -6.27,10.94 -7.83,11.10 -9.40,11.25 -10.48,10.84 -11.56,10.43 -12.41,9.37 -13.26,8.31 -13.44,6.90 -13.61,5.49 -13.44,3.99 -13.26,2.49 -12.74,0.96 -12.22,-0.56 -11.36,-1.76 -10.49,-2.96 -9.62,-3.67 -8.75,-4.39 -7.48,-5.09 -6.21,-5.80 -4.83,-5.90 -3.45,-6.00 -2.13,-5.48 -0.81,-4.95 0.04,-3.84 0.91,-2.73 1.13,-1.71 1.35,-0.69 1.41,-0.51 1.48,-0.34 1.50,-0.16 1.52,0.01 1.49,0.19 1.47,0.38 1.40,0.55 1.33,0.72 1.23,0.87 1.12,1.02 0.98,1.14 0.84,1.26 0.68,1.34 0.52,1.42 0.34,1.46 0.16,1.51 -0.01,1.50 -0.19,1.50 -0.37,1.46 -0.55,1.41 -0.71,1.32 -0.87,1.24 -1.01,1.11 -1.14,0.99 -1.25,0.84 -1.35,0.69 -1.35,0.69 L -1.35,0.69 Z"></path></g><g transform="translate(189.0368396664271 165.47973916461706) rotate(0 8.477424500748384 -0.5688790754584261)" stroke="none"><path fill="#f08c00" d="M 0,-1.40 Q 0,-1.40 1.13,-1.65 2.26,-1.90 3.49,-1.90 4.72,-1.90 6.78,-1.98 8.85,-2.06 10.47,-2.33 12.09,-2.60 14.52,-2.52 16.95,-2.45 17.16,-2.41 17.37,-2.38 17.56,-2.28 17.74,-2.18 17.89,-2.03 18.04,-1.87 18.13,-1.68 18.21,-1.49 18.24,-1.27 18.26,-1.06 18.22,-0.86 18.17,-0.65 18.06,-0.47 17.95,-0.28 17.79,-0.15 17.63,-0.01 17.43,0.06 17.23,0.14 17.02,0.15 16.81,0.16 16.60,0.11 16.40,0.05 16.22,-0.06 16.05,-0.18 15.92,-0.35 15.79,-0.52 15.72,-0.72 15.65,-0.92 15.65,-1.13 15.65,-1.34 15.72,-1.55 15.79,-1.75 15.92,-1.92 16.05,-2.09 16.22,-2.20 16.40,-2.32 16.60,-2.38 16.81,-2.44 17.02,-2.43 17.23,-2.42 17.43,-2.34 17.63,-2.26 17.79,-2.12 17.95,-1.98 18.06,-1.80 18.17,-1.62 18.22,-1.41 18.26,-1.21 18.24,-0.99 18.22,-0.78 18.13,-0.59 18.04,-0.40 17.89,-0.24 17.75,-0.09 17.56,0.00 17.37,0.10 17.16,0.14 16.95,0.17 16.95,0.17 16.95,0.17 14.82,0.67 12.69,1.16 10.91,1.45 9.13,1.73 6.93,1.82 4.72,1.90 3.49,1.90 2.26,1.90 1.13,1.65 0,1.40 -0.16,1.38 -0.33,1.36 -0.49,1.30 -0.65,1.24 -0.79,1.14 -0.93,1.04 -1.04,0.92 -1.15,0.79 -1.23,0.64 -1.31,0.49 -1.35,0.33 -1.39,0.16 -1.39,-0.00 -1.39,-0.16 -1.35,-0.33 -1.31,-0.49 -1.23,-0.64 -1.15,-0.79 -1.04,-0.92 -0.93,-1.04 -0.79,-1.14 -0.65,-1.24 -0.49,-1.30 -0.33,-1.36 -0.16,-1.38 0.00,-1.40 0.00,-1.40 L 0,-1.40 Z"></path></g><g transform="translate(202.82086354048806 161.66351861728253) rotate(0 2.4370793683001466 4.195479611315022)" stroke="none"><path fill="#f08c00" d="M 0.69,-1.16 Q 0.69,-1.16 1.70,-1.06 2.71,-0.96 3.94,-0.28 5.17,0.39 6.29,1.17 7.42,1.94 7.57,2.24 7.73,2.55 7.80,2.81 7.87,3.07 7.88,3.35 7.88,3.62 7.82,3.89 7.77,4.16 7.64,4.41 7.52,4.65 7.35,4.86 7.17,5.07 6.95,5.23 6.72,5.39 6.47,5.50 6.22,5.60 5.94,5.64 5.67,5.68 5.40,5.66 5.13,5.63 4.87,5.54 4.61,5.45 4.38,5.30 4.15,5.15 3.96,4.95 3.78,4.74 3.64,4.50 3.51,4.27 4.93,4.82 6.35,5.38 5.55,6.39 4.75,7.40 2.64,8.69 0.54,9.97 0.36,10.09 0.19,10.21 -0.01,10.27 -0.21,10.33 -0.42,10.32 -0.64,10.31 -0.83,10.23 -1.03,10.16 -1.20,10.02 -1.36,9.88 -1.47,9.70 -1.58,9.52 -1.63,9.31 -1.67,9.10 -1.65,8.89 -1.63,8.68 -1.54,8.49 -1.45,8.30 -1.31,8.14 -1.16,7.98 -0.98,7.88 -0.79,7.78 -0.58,7.75 -0.37,7.71 -0.16,7.75 0.04,7.78 0.23,7.88 0.42,7.98 0.56,8.13 0.71,8.28 0.80,8.48 0.89,8.67 0.92,8.88 0.94,9.09 0.90,9.30 0.85,9.51 0.74,9.69 0.63,9.87 0.47,10.01 0.31,10.15 0.11,10.23 -0.07,10.31 -0.28,10.32 -0.50,10.33 -0.70,10.28 -0.91,10.22 -1.08,10.10 -1.26,9.98 -1.39,9.82 -1.52,9.65 -1.59,9.45 -1.66,9.25 -1.66,9.03 -1.66,8.82 -1.59,8.62 -1.53,8.42 -1.40,8.25 -1.27,8.08 -1.27,8.08 -1.27,8.08 -0.47,6.46 0.31,4.84 1.39,3.80 2.46,2.75 3.39,2.12 4.32,1.49 6.02,2.02 7.73,2.54 7.80,2.81 7.87,3.07 7.88,3.35 7.88,3.62 7.82,3.89 7.77,4.16 7.64,4.41 7.52,4.65 7.35,4.86 7.17,5.07 6.95,5.23 6.72,5.39 6.47,5.50 6.22,5.60 5.94,5.64 5.67,5.68 5.40,5.66 5.13,5.63 4.87,5.54 4.61,5.45 4.38,5.30 4.15,5.15 3.96,4.95 3.78,4.74 3.64,4.51 3.51,4.27 3.27,4.29 3.03,4.32 1.72,3.58 0.42,2.84 -0.13,2.00 -0.69,1.16 -0.82,1.06 -0.95,0.96 -1.05,0.83 -1.15,0.70 -1.22,0.55 -1.29,0.40 -1.32,0.24 -1.35,0.08 -1.34,-0.07 -1.33,-0.24 -1.28,-0.39 -1.24,-0.55 -1.15,-0.69 -1.07,-0.83 -0.95,-0.95 -0.84,-1.06 -0.70,-1.15 -0.56,-1.23 -0.40,-1.28 -0.24,-1.33 -0.08,-1.34 0.07,-1.35 0.23,-1.32 0.39,-1.29 0.54,-1.23 0.69,-1.16 0.69,-1.16 L 0.69,-1.16 Z"></path></g><g transform="translate(224.12648128867477 38.91681550360954) rotate(0 -2.4369882014407267 3.0058811731673813)" stroke="none"><path fill="#f08c00" d="M -1.47,-0.06 Q -1.47,-0.06 -1.78,-0.66 -2.08,-1.27 -3.21,-0.93 -4.33,-0.60 -4.93,0.32 -5.53,1.25 -5.76,2.38 -5.99,3.52 -5.32,4.63 -4.65,5.75 -3.57,6.20 -2.50,6.65 -1.35,6.84 -0.21,7.03 1.10,7.02 2.42,7.01 2.60,6.89 2.77,6.76 2.97,6.70 3.17,6.63 3.38,6.63 3.60,6.64 3.80,6.71 4.00,6.78 4.16,6.91 4.33,7.04 4.45,7.22 4.56,7.40 4.62,7.60 4.67,7.81 4.66,8.02 4.64,8.23 4.56,8.43 4.48,8.63 4.34,8.79 4.20,8.95 4.01,9.05 3.83,9.16 3.62,9.20 3.41,9.24 3.20,9.22 2.99,9.19 2.80,9.10 2.61,9.00 2.46,8.86 2.30,8.71 2.21,8.52 2.11,8.33 2.08,8.12 2.05,7.91 2.09,7.70 2.13,7.49 2.23,7.30 2.33,7.12 2.49,6.97 2.64,6.83 2.84,6.75 3.03,6.66 3.24,6.64 3.46,6.62 3.66,6.67 3.87,6.72 4.05,6.83 4.23,6.94 4.36,7.11 4.50,7.27 4.57,7.47 4.65,7.67 4.66,7.88 4.67,8.09 4.61,8.30 4.54,8.50 4.42,8.68 4.30,8.85 4.30,8.85 4.30,8.85 1.75,10.20 -0.78,11.55 -2.00,11.38 -3.22,11.22 -4.35,10.84 -5.49,10.47 -6.44,9.98 -7.39,9.49 -8.08,8.49 -8.77,7.49 -9.32,6.55 -9.87,5.61 -10.16,4.55 -10.46,3.48 -10.26,2.03 -10.06,0.58 -9.48,-0.47 -8.89,-1.53 -8.19,-2.49 -7.50,-3.46 -6.53,-4.16 -5.57,-4.86 -4.18,-5.12 -2.79,-5.39 -1.55,-5.15 -0.32,-4.92 0.52,-4.23 1.36,-3.54 1.77,-2.32 2.19,-1.10 1.83,-0.52 1.47,0.06 1.44,0.23 1.41,0.41 1.34,0.57 1.27,0.74 1.16,0.88 1.06,1.02 0.92,1.13 0.78,1.24 0.62,1.32 0.46,1.40 0.28,1.43 0.11,1.47 -0.06,1.46 -0.24,1.45 -0.41,1.40 -0.58,1.35 -0.73,1.26 -0.89,1.17 -1.01,1.05 -1.14,0.93 -1.24,0.78 -1.33,0.62 -1.39,0.46 -1.44,0.29 -1.46,0.11 -1.47,-0.06 -1.47,-0.06 L -1.47,-0.06 Z"></path></g><g transform="translate(214.39329537665253 25.624137464638807) rotate(0 8.101143664189294 0.14027475881403006)" stroke="none"><path fill="#f08c00" d="M 0.11,-1.39 Q 0.11,-1.39 1.10,-1.46 2.08,-1.52 3.34,-1.48 4.61,-1.43 6.00,-1.43 7.39,-1.43 8.77,-1.42 10.15,-1.41 11.68,-1.49 13.21,-1.57 15.08,-1.18 16.96,-0.78 17.11,-0.63 17.26,-0.48 17.36,-0.29 17.45,-0.10 17.48,0.10 17.51,0.31 17.47,0.52 17.43,0.73 17.33,0.91 17.22,1.10 17.06,1.24 16.91,1.38 16.71,1.46 16.52,1.55 16.31,1.57 16.09,1.58 15.89,1.53 15.68,1.48 15.50,1.37 15.32,1.26 15.19,1.09 15.06,0.92 14.98,0.73 14.91,0.53 14.90,0.31 14.90,0.10 14.96,-0.09 15.02,-0.30 15.14,-0.47 15.27,-0.64 15.44,-0.77 15.61,-0.89 15.81,-0.95 16.02,-1.02 16.23,-1.01 16.44,-1.00 16.64,-0.93 16.84,-0.86 17.01,-0.73 17.17,-0.59 17.29,-0.41 17.40,-0.24 17.45,-0.03 17.51,0.17 17.49,0.38 17.47,0.59 17.39,0.79 17.31,0.98 17.16,1.14 17.02,1.30 16.84,1.40 16.65,1.51 16.44,1.55 16.24,1.59 16.02,1.56 15.81,1.53 15.62,1.44 15.43,1.34 15.43,1.34 15.43,1.34 13.91,1.59 12.39,1.84 11.27,1.91 10.15,1.97 8.76,1.98 7.38,1.98 5.96,1.96 4.53,1.95 3.17,1.90 1.80,1.85 0.84,1.62 -0.11,1.39 -0.28,1.36 -0.44,1.32 -0.59,1.25 -0.75,1.18 -0.88,1.07 -1.01,0.96 -1.11,0.83 -1.21,0.69 -1.28,0.54 -1.34,0.38 -1.37,0.22 -1.40,0.05 -1.38,-0.11 -1.37,-0.28 -1.31,-0.44 -1.26,-0.60 -1.17,-0.74 -1.08,-0.88 -0.96,-1.00 -0.84,-1.12 -0.69,-1.20 -0.54,-1.29 -0.38,-1.33 -0.22,-1.38 -0.05,-1.39 0.11,-1.39 0.11,-1.39 L 0.11,-1.39 Z"></path></g><g transform="translate(227.00656215646995 22.75185321625031) rotate(0 2.377909894712502 4.041240571840262)" stroke="none"><path fill="#f08c00" d="M 0.85,-1.13 Q 0.85,-1.13 1.72,-0.88 2.58,-0.64 3.86,-0.03 5.14,0.57 6.25,1.33 7.37,2.09 6.93,3.40 6.50,4.70 5.66,5.57 4.83,6.43 2.85,7.76 0.87,9.10 0.70,9.23 0.54,9.37 0.34,9.44 0.14,9.51 -0.06,9.52 -0.27,9.53 -0.48,9.46 -0.68,9.40 -0.85,9.28 -1.03,9.15 -1.15,8.98 -1.27,8.81 -1.34,8.61 -1.40,8.40 -1.39,8.19 -1.39,7.98 -1.32,7.78 -1.24,7.58 -1.11,7.41 -0.98,7.25 -0.80,7.13 -0.62,7.02 -0.41,6.97 -0.21,6.92 0.00,6.93 0.21,6.95 0.40,7.03 0.60,7.12 0.76,7.26 0.91,7.40 1.02,7.59 1.12,7.77 1.16,7.98 1.20,8.19 1.18,8.40 1.15,8.61 1.05,8.80 0.96,8.99 0.81,9.14 0.66,9.29 0.47,9.38 0.28,9.48 0.07,9.51 -0.13,9.54 -0.34,9.50 -0.55,9.46 -0.74,9.35 -0.92,9.25 -1.06,9.09 -1.20,8.93 -1.29,8.74 -1.37,8.54 -1.39,8.33 -1.41,8.12 -1.36,7.91 -1.31,7.71 -1.19,7.53 -1.08,7.35 -1.08,7.35 -1.08,7.35 -0.41,5.84 0.25,4.34 1.02,3.57 1.79,2.80 2.97,2.15 4.14,1.50 3.41,2.77 2.68,4.04 1.38,3.35 0.09,2.67 -0.38,1.90 -0.85,1.13 -0.97,1.01 -1.10,0.89 -1.19,0.74 -1.28,0.60 -1.33,0.44 -1.38,0.27 -1.40,0.10 -1.41,-0.06 -1.38,-0.22 -1.36,-0.39 -1.29,-0.55 -1.22,-0.71 -1.12,-0.84 -1.01,-0.98 -0.88,-1.09 -0.75,-1.20 -0.59,-1.27 -0.44,-1.34 -0.27,-1.37 -0.11,-1.41 0.06,-1.40 0.23,-1.39 0.39,-1.35 0.55,-1.30 0.70,-1.21 0.85,-1.13 0.85,-1.13 L 0.85,-1.13 Z"></path></g><g transform="translate(33.295694905666096 24.48257394371558) rotate(0 5.464759470185527 10.75437671224563)" stroke="none"><path fill="#f08c00" d="M 1.35,-0.08 Q 1.35,-0.08 1.66,0.86 1.98,1.80 2.11,3.17 2.25,4.53 2.48,5.77 2.71,7.01 2.80,8.39 2.89,9.77 2.93,11.22 2.96,12.66 2.97,13.75 2.99,14.85 2.99,15.97 3.00,17.09 3.01,18.18 3.02,19.27 3.02,19.79 3.03,20.31 3.00,20.58 2.96,20.85 2.87,21.10 2.77,21.36 2.62,21.58 2.46,21.80 2.26,21.98 2.06,22.16 1.82,22.29 1.58,22.42 1.31,22.48 1.05,22.55 0.78,22.55 0.51,22.55 0.24,22.48 -0.01,22.42 -0.25,22.29 -0.49,22.16 -0.69,21.98 -0.90,21.80 -1.05,21.58 -1.21,21.36 -1.30,21.10 -1.40,20.85 -1.43,20.58 -1.46,20.31 -1.48,18.93 -1.49,17.55 -1.33,16.11 -1.17,14.66 -0.65,13.44 -0.14,12.21 0.81,11.03 1.77,9.84 3.17,9.28 4.56,8.72 5.78,8.73 7.00,8.74 8.08,8.96 9.16,9.18 10.20,10.05 11.23,10.91 11.76,11.99 12.30,13.06 12.68,14.18 13.05,15.30 13.10,16.45 13.16,17.60 12.78,18.66 12.41,19.72 11.69,20.57 10.96,21.42 9.80,22.15 8.65,22.87 7.57,23.25 6.48,23.63 5.16,23.73 3.84,23.84 1.48,22.32 -0.87,20.81 -1.02,20.65 -1.16,20.50 -1.25,20.30 -1.34,20.11 -1.36,19.90 -1.38,19.69 -1.33,19.48 -1.29,19.27 -1.18,19.09 -1.06,18.91 -0.90,18.77 -0.74,18.64 -0.54,18.56 -0.34,18.48 -0.13,18.47 0.07,18.46 0.28,18.52 0.48,18.58 0.66,18.70 0.83,18.82 0.96,18.99 1.09,19.16 1.15,19.36 1.22,19.56 1.22,19.78 1.22,19.99 1.15,20.19 1.08,20.39 0.95,20.56 0.82,20.73 0.64,20.84 0.46,20.96 0.26,21.02 0.05,21.07 -0.15,21.06 -0.36,21.05 -0.56,20.97 -0.75,20.89 -0.91,20.75 -1.08,20.61 -1.18,20.43 -1.29,20.25 -1.34,20.04 -1.38,19.83 -1.36,19.62 -1.33,19.41 -1.24,19.22 -1.15,19.02 -1.00,18.87 -0.86,18.72 -0.67,18.62 -0.48,18.52 -0.27,18.49 -0.06,18.45 0.14,18.49 0.35,18.53 0.54,18.63 0.72,18.73 0.72,18.73 0.72,18.73 2.64,18.89 4.57,19.06 5.64,18.82 6.71,18.58 7.77,17.89 8.84,17.20 8.67,16.05 8.49,14.90 7.82,13.93 7.15,12.96 5.72,13.09 4.28,13.21 3.79,14.23 3.30,15.25 3.18,16.40 3.06,17.55 3.04,18.93 3.03,20.31 3.00,20.58 2.96,20.85 2.87,21.10 2.77,21.36 2.62,21.58 2.46,21.80 2.26,21.98 2.06,22.16 1.82,22.29 1.58,22.42 1.31,22.48 1.05,22.55 0.78,22.55 0.51,22.55 0.24,22.48 -0.01,22.42 -0.25,22.29 -0.49,22.16 -0.69,21.98 -0.90,21.80 -1.05,21.58 -1.21,21.36 -1.30,21.10 -1.40,20.85 -1.43,20.58 -1.46,20.31 -1.46,19.79 -1.45,19.27 -1.44,18.18 -1.44,17.09 -1.43,15.97 -1.42,14.85 -1.41,13.77 -1.40,12.68 -1.39,11.28 -1.38,9.88 -1.40,8.68 -1.43,7.47 -1.54,6.21 -1.65,4.94 -1.69,3.49 -1.74,2.03 -1.54,1.05 -1.35,0.08 -1.34,-0.07 -1.33,-0.24 -1.28,-0.39 -1.23,-0.55 -1.15,-0.69 -1.07,-0.83 -0.95,-0.95 -0.83,-1.06 -0.69,-1.15 -0.55,-1.23 -0.40,-1.28 -0.24,-1.33 -0.08,-1.34 0.08,-1.35 0.24,-1.32 0.40,-1.29 0.55,-1.23 0.70,-1.16 0.83,-1.06 0.95,-0.96 1.06,-0.83 1.16,-0.70 1.22,-0.55 1.29,-0.40 1.32,-0.24 1.35,-0.08 1.35,-0.08 L 1.35,-0.08 Z"></path></g><g transform="translate(28.30354042581348 15.89243253469158) rotate(0 9.696268677661465 0.22711074771677886)" stroke="none"><path fill="#f08c00" d="M 0.09,-1.42 Q 0.09,-1.42 1.15,-1.54 2.21,-1.65 3.87,-1.61 5.53,-1.57 7.47,-1.56 9.42,-1.55 11.19,-1.55 12.97,-1.55 14.33,-1.55 15.68,-1.55 17.54,-1.20 19.41,-0.85 19.62,-0.82 19.82,-0.78 20.01,-0.68 20.20,-0.57 20.34,-0.42 20.49,-0.26 20.57,-0.07 20.66,0.12 20.68,0.33 20.70,0.54 20.65,0.75 20.60,0.95 20.49,1.13 20.38,1.31 20.21,1.45 20.05,1.58 19.85,1.66 19.65,1.74 19.44,1.74 19.23,1.75 19.02,1.69 18.82,1.63 18.64,1.51 18.47,1.39 18.34,1.22 18.22,1.05 18.15,0.84 18.09,0.64 18.09,0.43 18.09,0.22 18.17,0.02 18.24,-0.17 18.37,-0.34 18.50,-0.51 18.68,-0.62 18.85,-0.74 19.06,-0.79 19.26,-0.85 19.48,-0.83 19.69,-0.82 19.88,-0.74 20.08,-0.66 20.24,-0.52 20.40,-0.38 20.51,-0.19 20.61,-0.01 20.66,0.19 20.70,0.40 20.67,0.61 20.65,0.82 20.56,1.01 20.46,1.20 20.32,1.35 20.17,1.51 19.98,1.60 19.79,1.70 19.58,1.73 19.37,1.76 19.37,1.76 19.37,1.76 17.52,1.91 15.68,2.06 14.32,2.06 12.97,2.06 11.19,2.06 9.41,2.05 7.44,2.05 5.48,2.04 3.72,1.99 1.96,1.95 0.93,1.68 -0.09,1.42 -0.26,1.39 -0.43,1.36 -0.59,1.29 -0.75,1.21 -0.88,1.11 -1.02,1.00 -1.12,0.86 -1.23,0.72 -1.30,0.57 -1.37,0.41 -1.40,0.24 -1.43,0.07 -1.41,-0.09 -1.40,-0.27 -1.35,-0.43 -1.30,-0.60 -1.20,-0.74 -1.11,-0.89 -0.99,-1.01 -0.87,-1.13 -0.72,-1.22 -0.57,-1.31 -0.41,-1.36 -0.24,-1.41 -0.07,-1.41 0.09,-1.42 0.09,-1.42 L 0.09,-1.42 Z"></path></g><g transform="translate(44.077523445090264 12.899909712532462) rotate(0 3.212400367561713 4.2950707045124545)" stroke="none"><path fill="#f08c00" d="M 0.66,-1.35 Q 0.66,-1.35 1.79,-1.05 2.93,-0.75 4.12,-0.28 5.32,0.19 6.55,0.75 7.78,1.31 8.03,2.89 8.28,4.47 7.61,5.42 6.95,6.36 4.74,7.96 2.52,9.56 2.34,9.68 2.17,9.79 1.96,9.84 1.75,9.89 1.54,9.88 1.33,9.86 1.13,9.77 0.94,9.69 0.78,9.55 0.62,9.41 0.52,9.22 0.42,9.04 0.38,8.83 0.34,8.62 0.37,8.41 0.39,8.20 0.49,8.01 0.58,7.82 0.73,7.67 0.89,7.52 1.08,7.42 1.27,7.33 1.48,7.30 1.69,7.27 1.90,7.31 2.10,7.35 2.29,7.46 2.47,7.56 2.62,7.72 2.76,7.88 2.84,8.08 2.92,8.27 2.94,8.48 2.96,8.69 2.91,8.90 2.85,9.11 2.74,9.29 2.62,9.46 2.46,9.60 2.29,9.73 2.09,9.80 1.89,9.88 1.68,9.88 1.47,9.89 1.27,9.82 1.06,9.76 0.89,9.64 0.72,9.51 0.59,9.34 0.47,9.17 0.41,8.96 0.35,8.76 0.35,8.55 0.36,8.33 0.43,8.14 0.51,7.94 0.64,7.77 0.77,7.61 0.77,7.61 0.77,7.61 2.38,5.74 3.98,3.88 2.59,3.33 1.20,2.77 0.27,2.06 -0.66,1.35 -0.81,1.25 -0.96,1.15 -1.09,1.02 -1.21,0.89 -1.30,0.73 -1.39,0.57 -1.44,0.39 -1.48,0.22 -1.49,0.04 -1.49,-0.13 -1.46,-0.31 -1.42,-0.49 -1.34,-0.65 -1.26,-0.82 -1.14,-0.95 -1.02,-1.09 -0.88,-1.20 -0.73,-1.31 -0.56,-1.38 -0.40,-1.45 -0.22,-1.47 -0.04,-1.50 0.13,-1.48 0.31,-1.47 0.49,-1.41 0.66,-1.35 0.66,-1.35 L 0.66,-1.35 Z"></path></g></svg>