<svg version="1.1" xmlns="http://www.w3.org/2000/svg" viewBox="0 0 259.83759321792604 169.49182484895573" width="519.6751864358521" height="338.98364969791146"><!-- svg-source:excalidraw --><metadata></metadata><defs><style class="style-fonts">
      </style></defs><rect x="0" y="0" width="259.83759321792604" height="169.49182484895573" fill="#ffffff"></rect><g stroke-linecap="round"><g transform="translate(49.83759321792604 133.93104673185917) rotate(0 50 0)"><path d="M0 0 C34.64 0, 69.28 0, 100 0 M0 0 C39.02 0, 78.04 0, 100 0" stroke="#f08c00" stroke-width="2" fill="none"></path></g><g transform="translate(49.83759321792604 133.93104673185917) rotate(0 50 0)"><path d="M76.51 8.55 C84.65 5.59, 92.78 2.63, 100 0 M76.51 8.55 C85.67 5.21, 94.84 1.88, 100 0" stroke="#f08c00" stroke-width="2" fill="none"></path></g><g transform="translate(49.83759321792604 133.93104673185917) rotate(0 50 0)"><path d="M76.51 -8.55 C84.65 -5.59, 92.78 -2.63, 100 0 M76.51 -8.55 C85.67 -5.21, 94.84 -1.88, 100 0" stroke="#f08c00" stroke-width="2" fill="none"></path></g></g><mask></mask><g stroke-linecap="round"><g transform="translate(49.83759321792604 133.93104673185917) rotate(0 100 0)"><path d="M0 0 C46.64 0, 93.28 0, 200 0 M0 0 C43.13 0, 86.25 0, 200 0" stroke="#f08c00" stroke-width="2" fill="none"></path></g><g transform="translate(49.83759321792604 133.93104673185917) rotate(0 100 0)"><path d="M176.51 8.55 C181.99 6.56, 187.46 4.56, 200 0 M176.51 8.55 C181.57 6.71, 186.64 4.86, 200 0" stroke="#f08c00" stroke-width="2" fill="none"></path></g><g transform="translate(49.83759321792604 133.93104673185917) rotate(0 100 0)"><path d="M176.51 -8.55 C181.99 -6.56, 187.46 -4.56, 200 0 M176.51 -8.55 C181.57 -6.71, 186.64 -4.86, 200 0" stroke="#f08c00" stroke-width="2" fill="none"></path></g></g><mask></mask><g stroke-linecap="round"><g transform="translate(49.83759321792604 133.93104673185917) rotate(0 0 -30)"><path d="M0 0 C0 -23.86, 0 -47.71, 0 -60 M0 0 C0 -21.82, 0 -43.64, 0 -60" stroke="#f08c00" stroke-width="2" fill="none"></path></g><g transform="translate(49.83759321792604 133.93104673185917) rotate(0 0 -30)"><path d="M8.55 -36.51 C5.15 -45.85, 1.75 -55.19, 0 -60 M8.55 -36.51 C5.44 -45.05, 2.33 -53.6, 0 -60" stroke="#f08c00" stroke-width="2" fill="none"></path></g><g transform="translate(49.83759321792604 133.93104673185917) rotate(0 0 -30)"><path d="M-8.55 -36.51 C-5.15 -45.85, -1.75 -55.19, 0 -60 M-8.55 -36.51 C-5.44 -45.05, -2.33 -53.6, 0 -60" stroke="#f08c00" stroke-width="2" fill="none"></path></g></g><mask></mask><g stroke-linecap="round"><g transform="translate(49.83759321792604 133.93104673185917) rotate(0 0 -60)"><path d="M0 0 C0 -32.05, 0 -64.11, 0 -120 M0 0 C0 -38.65, 0 -77.3, 0 -120" stroke="#f08c00" stroke-width="2" fill="none"></path></g><g transform="translate(49.83759321792604 133.93104673185917) rotate(0 0 -60)"><path d="M8.55 -96.51 C6.27 -102.78, 3.98 -109.06, 0 -120 M8.55 -96.51 C5.8 -104.07, 3.04 -111.64, 0 -120" stroke="#f08c00" stroke-width="2" fill="none"></path></g><g transform="translate(49.83759321792604 133.93104673185917) rotate(0 0 -60)"><path d="M-8.55 -96.51 C-6.27 -102.78, -3.98 -109.06, 0 -120 M-8.55 -96.51 C-5.8 -104.07, -3.04 -111.64, 0 -120" stroke="#f08c00" stroke-width="2" fill="none"></path></g></g><mask></mask><g stroke-linecap="round"><g transform="translate(49.83759321792604 133.93104673185917) rotate(0 100 -60)"><path d="M0 0 C73.3 -43.98, 146.59 -87.95, 200 -120 M0 0 C75.15 -45.09, 150.31 -90.18, 200 -120" stroke="#1e1e1e" stroke-width="2" fill="none"></path></g><g transform="translate(49.83759321792604 133.93104673185917) rotate(0 100 -60)"><path d="M184.25 -100.58 C190.03 -107.7, 195.8 -114.81, 200 -120 M184.25 -100.58 C190.17 -107.88, 196.09 -115.18, 200 -120" stroke="#1e1e1e" stroke-width="2" fill="none"></path></g><g transform="translate(49.83759321792604 133.93104673185917) rotate(0 100 -60)"><path d="M175.46 -115.25 C184.45 -116.99, 193.45 -118.73, 200 -120 M175.46 -115.25 C184.68 -117.03, 193.9 -118.82, 200 -120" stroke="#1e1e1e" stroke-width="2" fill="none"></path></g></g><mask></mask><g transform="translate(22.561832052500904 31.189761292416733) rotate(0 -5.263111789556206 3.8084818808029013)" stroke="none"><path d="M0 0 C-0.44 -0.25, -1.49 -1.28, -2.63 -1.49 C-3.77 -1.7, -5.63 -1.83, -6.84 -1.26 C-8.05 -0.69, -9.26 0.8, -9.88 1.93 C-10.49 3.07, -10.74 4.41, -10.53 5.53 C-10.31 6.65, -9.29 8.02, -8.6 8.65 C-7.91 9.28, -7.58 9.56, -6.37 9.31 C-5.17 9.05, -2.42 8, -1.37 7.12 C-0.32 6.24, -0.28 4.56, -0.07 4.05" stroke="none" stroke-width="0" fill="#ffffff" fill-rule="evenodd"></path><path fill="#f08c00" d="M -0.73,1.29 Q -0.73,1.29 -1.53,0.95 -2.33,0.60 -3.56,0.33 -4.78,0.06 -5.93,0.59 -7.09,1.12 -7.76,2.04 -8.44,2.96 -8.62,4.01 -8.80,5.06 -8.22,6.11 -7.64,7.16 -6.33,6.91 -5.02,6.65 -3.88,6.26 -2.75,5.86 -2.04,4.81 -1.34,3.76 -1.27,3.56 -1.19,3.37 -1.05,3.21 -0.91,3.04 -0.73,2.93 -0.55,2.83 -0.34,2.78 -0.13,2.74 0.07,2.76 0.28,2.78 0.47,2.87 0.67,2.96 0.82,3.11 0.98,3.25 1.07,3.44 1.17,3.63 1.21,3.84 1.24,4.05 1.21,4.26 1.17,4.47 1.07,4.66 0.97,4.84 0.82,4.99 0.66,5.14 0.47,5.22 0.28,5.31 0.07,5.34 -0.14,5.36 -0.34,5.31 -0.55,5.27 -0.73,5.16 -0.91,5.05 -1.05,4.88 -1.19,4.72 -1.27,4.52 -1.35,4.33 -1.36,4.11 -1.37,3.90 -1.31,3.70 -1.25,3.49 -1.13,3.32 -1.01,3.14 -0.84,3.01 -0.67,2.88 -0.47,2.82 -0.27,2.75 -0.06,2.75 0.14,2.75 0.34,2.82 0.55,2.89 0.71,3.02 0.88,3.15 1.00,3.32 1.12,3.50 1.18,3.70 1.23,3.91 1.22,4.12 1.21,4.33 1.21,4.33 1.21,4.33 0.08,6.64 -1.04,8.95 -2.27,9.63 -3.50,10.31 -4.69,10.62 -5.88,10.93 -6.94,10.87 -8.01,10.80 -9.10,10.10 -10.19,9.40 -10.88,8.36 -11.57,7.33 -11.88,6.13 -12.19,4.92 -11.98,3.55 -11.76,2.18 -11.09,0.99 -10.42,-0.19 -9.46,-1.13 -8.49,-2.06 -7.03,-2.64 -5.56,-3.21 -4.48,-3.20 -3.39,-3.18 -2.04,-2.75 -0.68,-2.32 0.02,-1.80 0.73,-1.29 0.87,-1.19 1.02,-1.08 1.13,-0.94 1.25,-0.80 1.33,-0.64 1.41,-0.48 1.44,-0.30 1.48,-0.13 1.47,0.04 1.47,0.22 1.42,0.39 1.37,0.57 1.28,0.72 1.19,0.88 1.07,1.01 0.95,1.14 0.80,1.24 0.65,1.34 0.48,1.40 0.31,1.45 0.13,1.47 -0.04,1.49 -0.22,1.46 -0.40,1.43 -0.56,1.36 -0.73,1.29 -0.73,1.29 L -0.73,1.29 Z"></path></g><g transform="translate(23.860815950769393 22.20538439169468) rotate(0 1.8700873448651691 8.153803767869249)" stroke="none"><path fill="#f08c00" d="M 1.55,0.13 Q 1.55,0.13 1.63,1.30 1.70,2.47 1.81,3.86 1.91,5.26 1.96,6.53 2.00,7.79 2.02,8.87 2.04,9.94 2.14,11.28 2.24,12.62 2.75,13.43 3.27,14.24 3.46,14.14 3.64,14.04 3.85,14.00 4.06,13.96 4.27,13.99 4.48,14.01 4.67,14.11 4.86,14.20 5.01,14.36 5.16,14.51 5.26,14.70 5.35,14.89 5.38,15.10 5.41,15.31 5.37,15.52 5.33,15.73 5.22,15.91 5.12,16.09 4.96,16.24 4.80,16.38 4.60,16.46 4.41,16.54 4.20,16.56 3.98,16.58 3.78,16.53 3.57,16.47 3.39,16.36 3.21,16.24 3.08,16.08 2.95,15.91 2.88,15.71 2.80,15.51 2.80,15.30 2.79,15.09 2.86,14.89 2.92,14.68 3.04,14.51 3.17,14.34 3.34,14.21 3.51,14.09 3.72,14.03 3.92,13.97 4.13,13.97 4.34,13.98 4.54,14.05 4.74,14.13 4.91,14.26 5.07,14.40 5.19,14.57 5.30,14.75 5.35,14.96 5.40,15.17 5.38,15.38 5.37,15.59 5.28,15.78 5.20,15.98 5.06,16.14 4.91,16.30 4.91,16.30 4.91,16.30 2.38,17.10 -0.15,17.90 -0.85,16.96 -1.55,16.03 -1.85,14.70 -2.16,13.36 -2.09,12.08 -2.03,10.80 -1.99,9.33 -1.94,7.87 -1.97,6.72 -2.00,5.57 -2.06,3.85 -2.12,2.13 -1.83,0.99 -1.55,-0.13 -1.51,-0.32 -1.47,-0.50 -1.39,-0.67 -1.31,-0.84 -1.19,-0.99 -1.07,-1.13 -0.92,-1.24 -0.77,-1.36 -0.59,-1.43 -0.42,-1.50 -0.23,-1.53 -0.04,-1.56 0.13,-1.54 0.32,-1.53 0.50,-1.46 0.68,-1.40 0.84,-1.30 1.00,-1.20 1.12,-1.06 1.25,-0.92 1.35,-0.76 1.44,-0.60 1.49,-0.41 1.54,-0.23 1.55,-0.04 1.55,0.13 1.55,0.13 L 1.55,0.13 Z"></path></g><g transform="translate(11.94602393810419 14.203516321133066) rotate(0 7.788289099929898 0.0050609973613973125)" stroke="none"><path fill="#f08c00" d="M -0.01,-1.68 Q -0.01,-1.68 1.44,-1.90 2.90,-2.12 4.00,-2.17 5.11,-2.22 7.12,-2.23 9.13,-2.24 12.35,-1.87 15.57,-1.49 15.78,-1.46 15.99,-1.42 16.18,-1.32 16.37,-1.22 16.51,-1.07 16.66,-0.91 16.75,-0.72 16.84,-0.53 16.86,-0.32 16.88,-0.11 16.84,0.09 16.79,0.30 16.68,0.48 16.57,0.66 16.41,0.80 16.25,0.94 16.05,1.02 15.85,1.10 15.64,1.11 15.43,1.12 15.23,1.06 15.02,1.00 14.84,0.89 14.67,0.77 14.54,0.60 14.41,0.43 14.34,0.23 14.28,0.03 14.28,-0.18 14.28,-0.39 14.34,-0.59 14.41,-0.79 14.54,-0.96 14.67,-1.13 14.84,-1.25 15.02,-1.37 15.22,-1.43 15.43,-1.48 15.64,-1.47 15.85,-1.46 16.05,-1.38 16.25,-1.30 16.41,-1.17 16.57,-1.03 16.68,-0.85 16.79,-0.66 16.84,-0.46 16.88,-0.25 16.86,-0.04 16.84,0.16 16.75,0.36 16.66,0.55 16.51,0.70 16.37,0.86 16.18,0.96 15.99,1.06 15.78,1.09 15.57,1.13 15.57,1.13 15.57,1.13 12.37,1.51 9.16,1.90 7.22,1.95 5.28,1.99 4.11,2.03 2.94,2.07 1.47,1.87 0.01,1.68 -0.18,1.65 -0.38,1.63 -0.57,1.56 -0.76,1.49 -0.93,1.38 -1.10,1.26 -1.23,1.11 -1.37,0.96 -1.47,0.78 -1.56,0.60 -1.61,0.41 -1.66,0.21 -1.66,0.01 -1.66,-0.18 -1.62,-0.38 -1.57,-0.58 -1.48,-0.76 -1.39,-0.94 -1.25,-1.09 -1.12,-1.24 -0.95,-1.36 -0.79,-1.48 -0.60,-1.55 -0.41,-1.62 -0.21,-1.65 -0.01,-1.68 -0.01,-1.68 L -0.01,-1.68 Z"></path></g><g transform="translate(24.958222439670863 10.010130131373444) rotate(0 2.2788239066676397 3.874319598083275)" stroke="none"><path d="M0 0 C0.8 0.72, 4.52 3, 4.83 4.29 C5.13 5.59, 2.33 7.18, 1.83 7.76" stroke="none" stroke-width="0" fill="#ffffff" fill-rule="evenodd"></path><path fill="#f08c00" d="M 1.14,-1.25 Q 1.14,-1.25 2.25,-0.81 3.35,-0.38 4.28,0.36 5.21,1.10 6.08,2.63 6.94,4.17 6.64,5.30 6.33,6.43 4.52,7.58 2.71,8.72 2.53,8.84 2.35,8.96 2.14,9.01 1.94,9.06 1.73,9.05 1.51,9.03 1.32,8.95 1.12,8.87 0.96,8.73 0.80,8.59 0.70,8.40 0.59,8.22 0.55,8.01 0.51,7.80 0.53,7.59 0.56,7.38 0.65,7.19 0.75,7.00 0.90,6.85 1.05,6.69 1.23,6.60 1.42,6.50 1.63,6.47 1.84,6.44 2.05,6.48 2.26,6.52 2.45,6.62 2.63,6.72 2.78,6.88 2.92,7.04 3.01,7.23 3.09,7.43 3.11,7.64 3.13,7.85 3.08,8.06 3.03,8.26 2.92,8.44 2.81,8.62 2.64,8.76 2.48,8.89 2.28,8.97 2.08,9.04 1.87,9.05 1.65,9.06 1.45,9.00 1.25,8.94 1.07,8.81 0.90,8.69 0.77,8.52 0.65,8.35 0.58,8.14 0.52,7.94 0.52,7.73 0.53,7.52 0.60,7.32 0.67,7.12 0.80,6.95 0.94,6.78 0.94,6.78 0.94,6.78 1.49,5.94 2.04,5.09 0.98,4.23 -0.08,3.37 -0.61,2.31 -1.14,1.25 -1.27,1.09 -1.41,0.94 -1.50,0.75 -1.59,0.57 -1.64,0.37 -1.68,0.17 -1.68,-0.02 -1.67,-0.23 -1.62,-0.42 -1.57,-0.62 -1.47,-0.80 -1.37,-0.98 -1.24,-1.13 -1.10,-1.28 -0.93,-1.40 -0.76,-1.51 -0.57,-1.58 -0.37,-1.65 -0.17,-1.67 0.02,-1.69 0.22,-1.66 0.43,-1.63 0.62,-1.56 0.81,-1.48 0.97,-1.36 1.14,-1.25 1.14,-1.25 L 1.14,-1.25 Z"></path></g><g transform="translate(19.094555764981124 101.15800221063364) rotate(0 -2.4864102722904136 3.1168914480203966)" stroke="none"><path d="M0 0 C-0.16 -0.38, -0.15 -2.05, -0.93 -2.31 C-1.72 -2.57, -3.73 -2.24, -4.69 -1.58 C-5.65 -0.93, -6.39 0.45, -6.67 1.6 C-6.96 2.75, -7.07 4.11, -6.42 5.3 C-5.78 6.49, -4.16 8.57, -2.8 8.74 C-1.44 8.91, 0.98 6.73, 1.74 6.32" stroke="none" stroke-width="0" fill="#ffffff" fill-rule="evenodd"></path><path fill="#f08c00" d="M -1.32,0.53 Q -1.32,0.53 -1.85,0.00 -2.38,-0.52 -3.26,0.14 -4.14,0.82 -4.48,2.03 -4.83,3.25 -4.53,4.34 -4.23,5.43 -3.27,6.12 -2.30,6.82 -0.68,6.05 0.93,5.28 1.11,5.18 1.30,5.08 1.51,5.04 1.72,5.01 1.93,5.04 2.14,5.07 2.33,5.17 2.52,5.27 2.66,5.42 2.81,5.57 2.90,5.77 2.99,5.96 3.02,6.17 3.04,6.38 3.00,6.59 2.95,6.80 2.85,6.98 2.74,7.16 2.58,7.30 2.42,7.44 2.22,7.52 2.02,7.60 1.81,7.61 1.60,7.63 1.39,7.57 1.19,7.52 1.01,7.40 0.84,7.28 0.71,7.11 0.58,6.94 0.51,6.74 0.44,6.54 0.43,6.33 0.43,6.12 0.50,5.92 0.57,5.71 0.69,5.54 0.82,5.37 0.99,5.25 1.17,5.13 1.37,5.07 1.58,5.01 1.79,5.02 2.00,5.03 2.20,5.11 2.40,5.19 2.56,5.32 2.72,5.46 2.84,5.64 2.95,5.82 2.99,6.03 3.04,6.24 3.02,6.45 3.00,6.66 2.91,6.85 2.82,7.05 2.68,7.20 2.53,7.36 2.53,7.36 2.53,7.36 0.76,8.89 -1.00,10.42 -2.53,10.34 -4.06,10.26 -5.02,9.62 -5.97,8.99 -6.84,7.90 -7.70,6.82 -8.03,5.59 -8.37,4.36 -8.37,2.78 -8.37,1.21 -7.98,0.17 -7.60,-0.87 -6.88,-1.78 -6.17,-2.69 -5.20,-3.31 -4.24,-3.93 -2.63,-4.03 -1.01,-4.14 0.14,-3.13 1.30,-2.12 1.31,-1.33 1.32,-0.53 1.37,-0.37 1.41,-0.20 1.42,-0.03 1.42,0.14 1.38,0.30 1.35,0.47 1.27,0.63 1.19,0.78 1.08,0.91 0.97,1.05 0.83,1.15 0.69,1.25 0.53,1.31 0.37,1.38 0.20,1.40 0.03,1.43 -0.14,1.41 -0.31,1.39 -0.47,1.34 -0.63,1.28 -0.78,1.18 -0.92,1.09 -1.04,0.96 -1.16,0.83 -1.24,0.68 -1.32,0.53 -1.32,0.53 L -1.32,0.53 Z"></path></g><g transform="translate(10 93.17325724634611) rotate(0 7.183857572093984 0.5735780610384609)" stroke="none"><path fill="#f08c00" d="M 0.18,-1.41 Q 0.18,-1.41 1.47,-1.49 2.75,-1.56 4.60,-1.47 6.45,-1.39 8.07,-1.30 9.69,-1.20 12.04,-0.68 14.40,-0.16 14.61,-0.12 14.82,-0.08 15.00,0.01 15.19,0.12 15.33,0.28 15.47,0.43 15.55,0.63 15.64,0.83 15.65,1.04 15.67,1.25 15.62,1.46 15.57,1.66 15.45,1.84 15.34,2.02 15.17,2.15 15.01,2.29 14.81,2.36 14.61,2.43 14.40,2.44 14.19,2.44 13.98,2.38 13.78,2.32 13.61,2.19 13.43,2.07 13.31,1.90 13.19,1.73 13.12,1.52 13.06,1.32 13.07,1.11 13.07,0.89 13.15,0.70 13.22,0.50 13.35,0.33 13.49,0.16 13.66,0.05 13.84,-0.05 14.05,-0.11 14.26,-0.16 14.47,-0.14 14.68,-0.12 14.88,-0.04 15.07,0.04 15.23,0.18 15.39,0.32 15.49,0.50 15.60,0.69 15.64,0.90 15.68,1.11 15.65,1.32 15.62,1.53 15.52,1.72 15.43,1.91 15.28,2.06 15.13,2.21 14.94,2.30 14.75,2.40 14.54,2.43 14.33,2.45 14.33,2.45 14.33,2.45 12.44,2.61 10.56,2.77 9.22,2.62 7.88,2.47 6.20,2.42 4.51,2.37 3.38,2.29 2.25,2.22 1.03,1.82 -0.18,1.41 -0.35,1.37 -0.52,1.33 -0.67,1.25 -0.82,1.17 -0.95,1.05 -1.08,0.93 -1.17,0.79 -1.27,0.65 -1.33,0.49 -1.39,0.32 -1.41,0.15 -1.43,-0.01 -1.40,-0.18 -1.38,-0.35 -1.32,-0.51 -1.26,-0.67 -1.16,-0.81 -1.06,-0.96 -0.93,-1.07 -0.80,-1.18 -0.64,-1.26 -0.49,-1.34 -0.32,-1.38 -0.15,-1.42 0.01,-1.42 0.18,-1.41 0.18,-1.41 L 0.18,-1.41 Z"></path></g><g transform="translate(23.09947773012209 90.75822746333324) rotate(0 1.9774468923069435 4.01499792685172)" stroke="none"><path fill="#f08c00" d="M 0.79,-1.20 Q 0.79,-1.20 1.60,-1.02 2.42,-0.83 3.78,-0.04 5.14,0.74 5.75,2.19 6.36,3.64 5.74,5.03 5.12,6.43 3.63,7.73 2.13,9.03 1.98,9.18 1.84,9.33 1.65,9.42 1.46,9.52 1.25,9.55 1.03,9.58 0.83,9.54 0.62,9.50 0.43,9.40 0.25,9.29 0.10,9.14 -0.03,8.98 -0.11,8.79 -0.20,8.59 -0.22,8.38 -0.24,8.17 -0.19,7.96 -0.14,7.75 -0.02,7.57 0.08,7.39 0.25,7.26 0.41,7.13 0.61,7.05 0.81,6.98 1.02,6.97 1.23,6.96 1.44,7.03 1.64,7.09 1.81,7.21 1.99,7.33 2.11,7.50 2.24,7.68 2.30,7.88 2.36,8.08 2.36,8.29 2.35,8.51 2.28,8.71 2.21,8.91 2.08,9.07 1.95,9.24 1.77,9.35 1.59,9.47 1.38,9.52 1.18,9.57 0.96,9.56 0.75,9.54 0.56,9.46 0.36,9.38 0.20,9.24 0.04,9.09 -0.05,8.91 -0.16,8.73 -0.20,8.52 -0.24,8.31 -0.21,8.10 -0.18,7.89 -0.09,7.70 -0.00,7.51 -0.00,7.51 -0.00,7.51 1.11,5.60 2.22,3.69 1.20,3.12 0.18,2.55 -0.30,1.88 -0.79,1.20 -0.92,1.09 -1.06,0.98 -1.16,0.84 -1.26,0.70 -1.33,0.53 -1.39,0.37 -1.42,0.20 -1.44,0.03 -1.42,-0.14 -1.41,-0.31 -1.35,-0.47 -1.29,-0.64 -1.19,-0.79 -1.10,-0.93 -0.97,-1.05 -0.84,-1.17 -0.69,-1.25 -0.54,-1.34 -0.37,-1.38 -0.20,-1.43 -0.03,-1.43 0.14,-1.43 0.31,-1.40 0.48,-1.36 0.63,-1.28 0.79,-1.20 0.79,-1.20 L 0.79,-1.20 Z"></path></g><g transform="translate(103.0166129835834 151.62961302971962) rotate(0 -1.9128627738537034 1.7436694284897385)" stroke="none"><path d="M0 0 C-0.19 -0.48, -0.42 -2.42, -1.14 -2.88 C-1.86 -3.33, -3.34 -3.27, -4.32 -2.73 C-5.3 -2.18, -6.44 -0.83, -7.03 0.38 C-7.62 1.58, -8.04 3.48, -7.86 4.49 C-7.68 5.51, -6.67 6.17, -5.94 6.47 C-5.21 6.78, -4.42 6.91, -3.49 6.32 C-2.56 5.73, -1 4.18, -0.38 2.93 C0.24 1.68, 0.22 -1.66, 0.24 -1.18 C0.26 -0.71, -0.63 4.5, -0.26 5.77 C0.12 7.04, 1.76 6.5, 2.48 6.43 C3.19 6.35, 3.77 5.52, 4.03 5.33" stroke="none" stroke-width="0" fill="#ffffff" fill-rule="evenodd"></path><path fill="#f08c00" d="M -1.46,0.28 Q -1.46,0.28 -1.82,-0.30 -2.19,-0.89 -3.38,-0.59 -4.58,-0.28 -5.22,0.80 -5.86,1.89 -6.03,2.98 -6.19,4.07 -5.09,4.25 -3.98,4.42 -3.16,3.58 -2.33,2.74 -2.00,1.68 -1.68,0.62 -1.61,-0.27 -1.55,-1.17 -1.52,-1.39 -1.50,-1.60 -1.42,-1.80 -1.34,-2.00 -1.22,-2.18 -1.09,-2.36 -0.93,-2.50 -0.77,-2.64 -0.57,-2.74 -0.38,-2.84 -0.17,-2.89 0.03,-2.94 0.25,-2.94 0.46,-2.94 0.67,-2.89 0.88,-2.83 1.07,-2.73 1.26,-2.63 1.42,-2.48 1.59,-2.34 1.71,-2.16 1.83,-1.98 1.90,-1.78 1.98,-1.57 2.00,-1.36 2.03,-1.14 2.05,0.00 2.07,1.15 2.00,2.32 1.93,3.49 2.60,3.87 3.27,4.26 3.46,4.17 3.65,4.07 3.86,4.04 4.07,4.02 4.28,4.06 4.49,4.10 4.67,4.20 4.86,4.31 5.00,4.47 5.14,4.63 5.22,4.82 5.30,5.02 5.32,5.23 5.34,5.44 5.28,5.65 5.23,5.85 5.12,6.03 5.00,6.21 4.84,6.34 4.67,6.48 4.47,6.55 4.27,6.62 4.06,6.62 3.84,6.63 3.64,6.57 3.44,6.50 3.27,6.38 3.10,6.25 2.97,6.08 2.85,5.91 2.79,5.70 2.73,5.50 2.73,5.29 2.74,5.07 2.81,4.88 2.89,4.68 3.02,4.51 3.16,4.35 3.34,4.23 3.52,4.12 3.72,4.07 3.93,4.02 4.14,4.04 4.35,4.06 4.55,4.14 4.74,4.23 4.90,4.37 5.06,4.51 5.16,4.70 5.26,4.88 5.30,5.09 5.34,5.30 5.31,5.51 5.28,5.72 5.19,5.91 5.09,6.10 4.94,6.25 4.79,6.40 4.79,6.40 4.79,6.40 2.63,7.40 0.47,8.41 -0.67,7.62 -1.83,6.83 -2.01,5.35 -2.20,3.87 -2.07,2.50 -1.93,1.13 -1.74,-0.01 -1.55,-1.17 -1.52,-1.39 -1.50,-1.60 -1.42,-1.80 -1.34,-2.00 -1.22,-2.18 -1.09,-2.36 -0.93,-2.50 -0.77,-2.64 -0.57,-2.74 -0.38,-2.84 -0.17,-2.89 0.03,-2.94 0.25,-2.94 0.46,-2.94 0.67,-2.89 0.88,-2.83 1.07,-2.73 1.26,-2.63 1.42,-2.48 1.59,-2.34 1.71,-2.16 1.83,-1.98 1.90,-1.78 1.98,-1.57 2.00,-1.36 2.03,-1.14 2.02,-0.74 2.01,-0.33 1.86,0.78 1.71,1.89 1.31,3.06 0.92,4.22 0.12,5.27 -0.67,6.32 -1.56,7.03 -2.45,7.73 -3.69,8.10 -4.92,8.46 -6.02,8.12 -7.12,7.77 -7.98,6.82 -8.85,5.87 -9.15,4.55 -9.45,3.24 -9.15,1.93 -8.85,0.61 -8.15,-0.62 -7.46,-1.87 -6.60,-2.82 -5.74,-3.76 -4.54,-4.29 -3.34,-4.82 -2.27,-4.83 -1.20,-4.83 -0.24,-4.24 0.71,-3.65 1.20,-2.65 1.68,-1.66 1.57,-0.97 1.46,-0.28 1.47,-0.10 1.48,0.07 1.45,0.24 1.42,0.42 1.35,0.59 1.28,0.75 1.17,0.89 1.06,1.04 0.92,1.15 0.78,1.26 0.62,1.34 0.46,1.41 0.28,1.45 0.10,1.48 -0.07,1.47 -0.25,1.46 -0.42,1.41 -0.59,1.36 -0.75,1.27 -0.90,1.18 -1.03,1.05 -1.16,0.93 -1.25,0.78 -1.35,0.62 -1.40,0.45 -1.46,0.28 -1.46,0.28 L -1.46,0.28 Z"></path></g><g transform="translate(97.23838730044372 141.49928570287557) rotate(0 5.148860141664045 0.40342393862101744)" stroke="none"><path fill="#f08c00" d="M 0.19,-1.32 Q 0.19,-1.32 1.10,-1.31 2.02,-1.30 3.42,-1.19 4.82,-1.08 5.97,-1.00 7.12,-0.92 8.58,-0.77 10.04,-0.62 10.26,-0.63 10.47,-0.63 10.67,-0.57 10.87,-0.51 11.05,-0.39 11.22,-0.26 11.34,-0.09 11.47,0.07 11.53,0.28 11.59,0.48 11.59,0.69 11.58,0.90 11.51,1.10 11.44,1.30 11.30,1.47 11.17,1.63 10.99,1.75 10.81,1.86 10.61,1.92 10.40,1.97 10.19,1.95 9.98,1.93 9.78,1.85 9.59,1.77 9.43,1.62 9.27,1.48 9.17,1.30 9.06,1.11 9.02,0.90 8.98,0.70 9.01,0.49 9.04,0.27 9.13,0.08 9.22,-0.10 9.38,-0.25 9.53,-0.40 9.72,-0.49 9.91,-0.59 10.12,-0.62 10.33,-0.64 10.54,-0.60 10.74,-0.56 10.93,-0.46 11.11,-0.36 11.26,-0.20 11.40,-0.04 11.48,0.14 11.57,0.34 11.58,0.55 11.60,0.76 11.55,0.97 11.50,1.18 11.39,1.35 11.27,1.53 11.11,1.67 10.94,1.80 10.74,1.87 10.54,1.95 10.54,1.95 10.54,1.95 8.73,2.16 6.92,2.36 5.73,2.28 4.54,2.20 3.05,2.01 1.57,1.82 0.69,1.57 -0.19,1.32 -0.34,1.28 -0.50,1.24 -0.64,1.16 -0.78,1.08 -0.90,0.97 -1.02,0.86 -1.11,0.73 -1.20,0.59 -1.25,0.44 -1.31,0.29 -1.32,0.13 -1.34,-0.02 -1.31,-0.18 -1.29,-0.34 -1.23,-0.49 -1.17,-0.64 -1.08,-0.78 -0.98,-0.91 -0.86,-1.01 -0.73,-1.12 -0.59,-1.19 -0.44,-1.26 -0.29,-1.30 -0.13,-1.33 0.02,-1.33 0.19,-1.32 0.19,-1.32 L 0.19,-1.32 Z"></path></g><g transform="translate(106.3764987109862 139.46425574119712) rotate(0 1.2240339884592686 3.0256543342102304)" stroke="none"><path d="M0 0 C0.44 0.37, 2.65 1.23, 2.67 2.24 C2.69 3.25, 0.54 5.42, 0.12 6.05" stroke="none" stroke-width="0" fill="#ffffff" fill-rule="evenodd"></path><path fill="#f08c00" d="M 0.82,-1.20 Q 0.82,-1.20 1.68,-0.97 2.55,-0.73 3.53,0.74 4.51,2.23 2.86,4.49 1.22,6.76 1.08,6.92 0.93,7.07 0.75,7.18 0.56,7.28 0.35,7.32 0.14,7.36 -0.06,7.33 -0.27,7.30 -0.46,7.21 -0.65,7.11 -0.80,6.96 -0.95,6.81 -1.04,6.62 -1.13,6.43 -1.16,6.22 -1.19,6.01 -1.15,5.80 -1.11,5.59 -1.00,5.40 -0.90,5.22 -0.74,5.08 -0.58,4.94 -0.38,4.85 -0.19,4.77 0.01,4.75 0.23,4.74 0.43,4.79 0.64,4.84 0.82,4.96 0.99,5.07 1.13,5.24 1.26,5.40 1.33,5.60 1.40,5.80 1.41,6.02 1.41,6.23 1.35,6.43 1.29,6.63 1.16,6.81 1.04,6.98 0.87,7.10 0.69,7.23 0.49,7.29 0.29,7.35 0.07,7.34 -0.13,7.34 -0.33,7.26 -0.53,7.19 -0.69,7.05 -0.86,6.92 -0.97,6.74 -1.08,6.56 -1.13,6.35 -1.19,6.15 -1.17,5.94 -1.15,5.72 -1.06,5.53 -0.98,5.33 -0.98,5.33 -0.98,5.34 -0.37,3.99 0.24,2.64 -0.29,1.92 -0.82,1.20 -0.95,1.09 -1.08,0.97 -1.19,0.83 -1.29,0.68 -1.35,0.52 -1.41,0.35 -1.43,0.18 -1.46,0.00 -1.44,-0.16 -1.42,-0.34 -1.35,-0.50 -1.29,-0.67 -1.19,-0.81 -1.09,-0.96 -0.96,-1.08 -0.83,-1.19 -0.68,-1.28 -0.52,-1.36 -0.35,-1.40 -0.18,-1.45 -0.00,-1.45 0.16,-1.45 0.34,-1.41 0.51,-1.36 0.66,-1.28 0.82,-1.20 0.82,-1.20 L 0.82,-1.20 Z"></path></g><g transform="translate(189.55116664336674 143.13987206566526) rotate(0 4.365863816302408 8.108735467764745)" stroke="none"><path fill="#f08c00" d="M 1.40,-0.07 Q 1.40,-0.07 1.60,0.77 1.80,1.63 1.88,3.05 1.96,4.47 1.97,5.56 1.99,6.65 2.01,7.73 2.02,8.80 1.94,9.96 1.86,11.12 1.81,12.25 1.75,13.37 1.98,14.48 2.20,15.59 2.23,15.81 2.26,16.04 2.24,16.26 2.22,16.48 2.15,16.69 2.08,16.90 1.96,17.09 1.84,17.27 1.68,17.43 1.52,17.58 1.33,17.69 1.14,17.80 0.93,17.86 0.71,17.92 0.49,17.93 0.27,17.94 0.05,17.90 -0.15,17.85 -0.35,17.76 -0.55,17.66 -0.73,17.52 -0.90,17.38 -1.03,17.20 -1.16,17.02 -1.25,16.82 -1.34,16.62 -1.37,16.40 -1.41,16.18 -1.37,15.11 -1.34,14.04 -1.26,12.77 -1.19,11.50 -0.80,10.40 -0.40,9.30 0.35,8.44 1.11,7.58 2.05,7.01 2.98,6.44 4.38,6.29 5.79,6.14 6.85,6.76 7.92,7.38 8.67,8.34 9.43,9.31 9.90,10.41 10.37,11.51 10.33,12.71 10.30,13.92 9.61,14.87 8.92,15.82 7.79,16.49 6.66,17.15 5.54,17.51 4.42,17.87 1.85,16.98 -0.70,16.08 -0.85,15.93 -1.00,15.78 -1.09,15.58 -1.18,15.39 -1.21,15.18 -1.24,14.97 -1.20,14.76 -1.15,14.55 -1.05,14.37 -0.94,14.19 -0.78,14.05 -0.62,13.91 -0.43,13.82 -0.23,13.74 -0.02,13.73 0.18,13.71 0.39,13.77 0.60,13.82 0.77,13.94 0.95,14.05 1.08,14.22 1.21,14.39 1.29,14.59 1.36,14.79 1.36,15.00 1.36,15.21 1.30,15.41 1.23,15.62 1.11,15.79 0.98,15.96 0.81,16.08 0.64,16.20 0.43,16.26 0.23,16.32 0.02,16.32 -0.19,16.31 -0.39,16.23 -0.58,16.16 -0.75,16.02 -0.91,15.89 -1.02,15.71 -1.14,15.53 -1.19,15.32 -1.24,15.11 -1.22,14.90 -1.20,14.69 -1.11,14.50 -1.02,14.30 -0.88,14.14 -0.74,13.99 -0.55,13.89 -0.37,13.78 -0.16,13.74 0.04,13.71 0.25,13.74 0.46,13.77 0.65,13.87 0.84,13.96 0.84,13.96 0.84,13.96 2.50,14.20 4.16,14.45 5.25,13.86 6.35,13.27 6.41,12.19 6.48,11.10 5.89,10.20 5.31,9.29 4.22,9.43 3.13,9.57 2.38,10.54 1.62,11.51 1.69,12.71 1.76,13.92 2.01,14.98 2.26,16.04 2.24,16.26 2.22,16.48 2.15,16.69 2.08,16.90 1.96,17.09 1.84,17.27 1.68,17.43 1.52,17.58 1.33,17.69 1.14,17.80 0.93,17.86 0.71,17.92 0.49,17.93 0.27,17.94 0.05,17.90 -0.15,17.85 -0.35,17.76 -0.55,17.66 -0.73,17.52 -0.90,17.38 -1.03,17.20 -1.16,17.03 -1.25,16.82 -1.34,16.62 -1.37,16.40 -1.41,16.18 -1.46,15.57 -1.50,14.95 -1.63,13.66 -1.75,12.36 -1.61,11.16 -1.47,9.96 -1.46,8.66 -1.46,7.35 -1.45,5.98 -1.45,4.60 -1.53,3.21 -1.60,1.82 -1.50,0.95 -1.40,0.07 -1.38,-0.09 -1.37,-0.25 -1.32,-0.42 -1.27,-0.58 -1.18,-0.72 -1.10,-0.86 -0.98,-0.98 -0.86,-1.10 -0.71,-1.19 -0.57,-1.28 -0.40,-1.33 -0.24,-1.38 -0.07,-1.39 0.09,-1.39 0.25,-1.36 0.42,-1.33 0.57,-1.26 0.73,-1.19 0.86,-1.09 0.99,-0.98 1.09,-0.85 1.20,-0.72 1.27,-0.56 1.34,-0.41 1.37,-0.24 1.40,-0.07 1.40,-0.07 L 1.40,-0.07 Z"></path></g><g transform="translate(186.32011674419846 139.02497525764738) rotate(0 6.650406072049009 0.32273771058498824)" stroke="none"><path fill="#f08c00" d="M 0.10,-1.33 Q 0.10,-1.33 0.82,-1.40 1.53,-1.47 2.73,-1.40 3.93,-1.32 5.44,-1.26 6.94,-1.20 8.26,-1.17 9.59,-1.14 11.35,-1.14 13.11,-1.14 13.27,-1.12 13.42,-1.10 13.57,-1.04 13.72,-0.99 13.85,-0.90 13.98,-0.81 14.08,-0.69 14.19,-0.57 14.26,-0.43 14.34,-0.29 14.37,-0.14 14.41,0.01 14.41,0.17 14.41,0.32 14.37,0.48 14.34,0.63 14.26,0.77 14.19,0.91 14.08,1.03 13.98,1.15 13.85,1.24 13.72,1.33 13.57,1.38 13.42,1.44 13.26,1.46 13.11,1.48 12.78,1.39 12.46,1.31 12.30,1.18 12.13,1.04 12.02,0.86 11.90,0.69 11.85,0.48 11.80,0.27 11.82,0.06 11.83,-0.14 11.92,-0.34 12.00,-0.53 12.14,-0.69 12.28,-0.85 12.47,-0.95 12.65,-1.06 12.86,-1.10 13.07,-1.14 13.28,-1.11 13.49,-1.08 13.68,-0.99 13.87,-0.89 14.02,-0.74 14.17,-0.59 14.27,-0.40 14.36,-0.21 14.39,-0.00 14.42,0.20 14.38,0.41 14.34,0.62 14.24,0.80 14.13,0.99 13.97,1.13 13.82,1.27 13.62,1.36 13.43,1.44 13.21,1.46 13.00,1.47 12.80,1.42 12.59,1.37 12.41,1.26 12.23,1.14 12.10,0.98 11.96,0.81 11.89,0.61 11.82,0.41 11.81,0.20 11.81,-0.00 11.87,-0.20 11.93,-0.41 12.05,-0.58 12.18,-0.75 12.35,-0.88 12.52,-1.00 12.73,-1.06 12.93,-1.13 13.14,-1.12 13.35,-1.11 13.23,-1.13 13.11,-1.14 13.27,-1.12 13.42,-1.10 13.57,-1.04 13.72,-0.99 13.85,-0.90 13.98,-0.81 14.08,-0.69 14.19,-0.57 14.26,-0.43 14.34,-0.29 14.37,-0.14 14.41,0.01 14.41,0.17 14.41,0.32 14.37,0.48 14.34,0.63 14.26,0.77 14.19,0.91 14.08,1.03 13.98,1.15 13.85,1.24 13.72,1.33 13.57,1.38 13.42,1.44 13.26,1.46 13.11,1.48 10.81,1.80 8.51,2.12 7.26,2.04 6.01,1.95 4.89,1.93 3.77,1.91 2.52,1.80 1.27,1.70 0.58,1.52 -0.10,1.33 -0.26,1.30 -0.42,1.27 -0.57,1.20 -0.71,1.13 -0.84,1.03 -0.96,0.93 -1.06,0.80 -1.16,0.67 -1.22,0.52 -1.29,0.37 -1.31,0.21 -1.34,0.05 -1.32,-0.10 -1.31,-0.26 -1.26,-0.42 -1.21,-0.57 -1.12,-0.71 -1.04,-0.84 -0.92,-0.96 -0.80,-1.07 -0.66,-1.15 -0.52,-1.23 -0.37,-1.28 -0.21,-1.32 -0.05,-1.33 0.10,-1.33 0.10,-1.33 L 0.10,-1.33 Z"></path></g><g transform="translate(198.21351449010035 137.74299755348147) rotate(0 0.9812119394691763 2.1695046078866653)" stroke="none"><path d="M0 0 C0.41 0.34, 2.55 1.28, 2.47 2.04 C2.38 2.79, -0.01 4.1, -0.51 4.51" stroke="none" stroke-width="0" fill="#ffffff" fill-rule="evenodd"></path><path fill="#f08c00" d="M 0.71,-1.28 Q 0.71,-1.28 1.35,-1.36 1.99,-1.44 3.09,-0.55 4.18,0.33 4.21,1.81 4.24,3.29 2.25,4.43 0.26,5.57 0.07,5.66 -0.11,5.76 -0.32,5.79 -0.53,5.82 -0.74,5.78 -0.95,5.74 -1.13,5.64 -1.32,5.53 -1.46,5.38 -1.60,5.22 -1.69,5.02 -1.77,4.83 -1.79,4.62 -1.81,4.41 -1.76,4.20 -1.71,3.99 -1.60,3.81 -1.48,3.63 -1.32,3.50 -1.15,3.37 -0.95,3.29 -0.76,3.22 -0.54,3.21 -0.33,3.20 -0.13,3.26 0.07,3.32 0.24,3.45 0.41,3.57 0.54,3.74 0.66,3.91 0.73,4.12 0.79,4.32 0.79,4.53 0.78,4.74 0.71,4.94 0.64,5.14 0.50,5.31 0.37,5.48 0.19,5.59 0.02,5.71 -0.18,5.76 -0.39,5.81 -0.60,5.80 -0.81,5.78 -1.01,5.70 -1.20,5.62 -1.36,5.47 -1.52,5.33 -1.62,5.15 -1.73,4.96 -1.77,4.76 -1.81,4.55 -1.79,4.34 -1.76,4.13 -1.67,3.94 -1.57,3.74 -1.42,3.59 -1.27,3.44 -1.27,3.44 -1.27,3.44 -0.73,2.95 -0.18,2.45 -0.45,1.87 -0.71,1.28 -0.86,1.18 -1.00,1.08 -1.12,0.94 -1.23,0.80 -1.31,0.64 -1.39,0.48 -1.43,0.31 -1.46,0.14 -1.46,-0.03 -1.46,-0.21 -1.41,-0.38 -1.36,-0.55 -1.28,-0.71 -1.19,-0.86 -1.07,-0.99 -0.95,-1.12 -0.80,-1.22 -0.65,-1.32 -0.48,-1.38 -0.31,-1.44 -0.13,-1.45 0.03,-1.47 0.21,-1.45 0.38,-1.42 0.55,-1.35 0.71,-1.28 0.71,-1.28 L 0.71,-1.28 Z"></path></g><g transform="translate(193.65848461210408 26.30725039812569) rotate(0 3.2423654083740985 1.6976237982398743)" stroke="none"><path fill="#1e1e1e" d="M 0.96,-1.05 Q 0.96,-1.05 1.59,-0.57 2.21,-0.09 3.50,0.20 4.80,0.50 5.42,-0.44 6.04,-1.39 4.92,-1.69 3.81,-2.00 2.72,-1.71 1.64,-1.42 0.80,-0.58 -0.03,0.24 -0.20,1.41 -0.36,2.57 0.27,3.57 0.91,4.57 1.89,5.00 2.88,5.44 5.28,4.94 7.69,4.45 7.88,4.35 8.07,4.26 8.28,4.23 8.49,4.21 8.70,4.25 8.91,4.29 9.09,4.40 9.28,4.50 9.42,4.66 9.56,4.82 9.64,5.02 9.72,5.21 9.74,5.43 9.75,5.64 9.70,5.84 9.65,6.05 9.53,6.23 9.41,6.40 9.25,6.54 9.08,6.67 8.88,6.74 8.68,6.81 8.47,6.82 8.26,6.82 8.05,6.76 7.85,6.69 7.68,6.57 7.51,6.44 7.39,6.27 7.26,6.09 7.20,5.89 7.14,5.69 7.15,5.47 7.16,5.26 7.23,5.06 7.31,4.86 7.44,4.70 7.58,4.54 7.76,4.42 7.94,4.31 8.14,4.26 8.35,4.21 8.56,4.23 8.77,4.25 8.97,4.33 9.16,4.42 9.32,4.56 9.47,4.71 9.58,4.89 9.68,5.08 9.72,5.29 9.76,5.50 9.73,5.71 9.70,5.92 9.60,6.11 9.50,6.30 9.35,6.44 9.20,6.59 9.20,6.59 9.20,6.59 7.38,7.56 5.56,8.54 4.41,8.60 3.25,8.67 1.88,8.41 0.51,8.15 -0.43,7.48 -1.38,6.81 -2.09,5.81 -2.80,4.81 -3.17,3.69 -3.53,2.56 -3.39,1.36 -3.24,0.16 -2.98,-0.90 -2.72,-1.98 -1.82,-2.88 -0.92,-3.78 0.11,-4.15 1.16,-4.52 2.37,-4.81 3.59,-5.10 4.72,-5.13 5.85,-5.16 7.03,-4.60 8.20,-4.04 8.71,-2.89 9.22,-1.74 8.72,-0.58 8.22,0.58 7.52,1.53 6.83,2.48 5.79,2.88 4.75,3.29 3.45,3.26 2.14,3.23 1.12,2.72 0.10,2.22 -0.42,1.63 -0.96,1.05 -1.08,0.92 -1.19,0.79 -1.26,0.63 -1.34,0.48 -1.38,0.31 -1.42,0.14 -1.42,-0.02 -1.41,-0.19 -1.37,-0.36 -1.33,-0.53 -1.24,-0.68 -1.16,-0.83 -1.04,-0.96 -0.93,-1.08 -0.78,-1.18 -0.64,-1.27 -0.48,-1.33 -0.31,-1.39 -0.14,-1.41 0.02,-1.43 0.19,-1.40 0.36,-1.38 0.52,-1.32 0.68,-1.25 0.82,-1.15 0.96,-1.05 0.96,-1.05 L 0.96,-1.05 Z"></path></g><g transform="translate(189.83759321792604 16.620469163972302) rotate(0 6.525124013322966 0.22513195034753153)" stroke="none"><path fill="#1e1e1e" d="M 0.20,-1.38 Q 0.20,-1.38 1.11,-1.38 2.03,-1.39 3.61,-1.32 5.19,-1.24 6.66,-1.23 8.12,-1.22 10.57,-1.24 13.01,-1.26 13.22,-1.23 13.43,-1.20 13.62,-1.11 13.81,-1.01 13.96,-0.86 14.11,-0.71 14.21,-0.52 14.30,-0.33 14.33,-0.12 14.36,0.08 14.32,0.29 14.28,0.50 14.17,0.68 14.07,0.87 13.91,1.01 13.75,1.15 13.55,1.24 13.36,1.32 13.15,1.34 12.93,1.35 12.73,1.30 12.52,1.25 12.34,1.13 12.17,1.02 12.03,0.85 11.90,0.69 11.83,0.49 11.75,0.29 11.75,0.07 11.74,-0.13 11.81,-0.33 11.87,-0.53 11.99,-0.71 12.12,-0.88 12.29,-1.00 12.47,-1.12 12.67,-1.19 12.87,-1.25 13.08,-1.24 13.30,-1.24 13.50,-1.16 13.70,-1.09 13.86,-0.95 14.03,-0.82 14.14,-0.64 14.25,-0.46 14.30,-0.26 14.35,-0.05 14.34,0.15 14.32,0.36 14.23,0.56 14.15,0.75 14.01,0.91 13.86,1.07 13.68,1.17 13.49,1.28 13.29,1.32 13.08,1.36 13.08,1.36 13.08,1.36 10.59,1.73 8.10,2.11 6.61,2.09 5.11,2.08 3.33,1.99 1.55,1.90 0.67,1.64 -0.20,1.38 -0.36,1.34 -0.52,1.29 -0.67,1.21 -0.82,1.13 -0.94,1.02 -1.07,0.90 -1.16,0.76 -1.25,0.62 -1.31,0.46 -1.36,0.30 -1.38,0.13 -1.40,-0.03 -1.37,-0.19 -1.35,-0.36 -1.29,-0.52 -1.22,-0.67 -1.12,-0.81 -1.02,-0.95 -0.89,-1.06 -0.77,-1.17 -0.61,-1.24 -0.46,-1.32 -0.30,-1.35 -0.13,-1.39 0.03,-1.39 0.20,-1.38 0.20,-1.38 L 0.20,-1.38 Z"></path></g><g transform="translate(201.4213296817743 13.931046731859169) rotate(0 1.9440936599667111 2.738098091370375)" stroke="none"><path d="M0 0 C0.65 0.45, 3.79 1.78, 3.89 2.69 C3.99 3.6, 1.16 5.01, 0.62 5.48" stroke="none" stroke-width="0" fill="#ffffff" fill-rule="evenodd"></path><path fill="#1e1e1e" d="M 0.79,-1.17 Q 0.79,-1.17 1.61,-0.76 2.44,-0.35 3.48,0.28 4.51,0.93 4.94,2.15 5.36,3.37 3.37,4.95 1.38,6.54 1.19,6.63 1.00,6.73 0.79,6.76 0.58,6.78 0.37,6.74 0.16,6.70 -0.02,6.60 -0.20,6.49 -0.34,6.34 -0.48,6.18 -0.57,5.98 -0.65,5.79 -0.67,5.57 -0.68,5.36 -0.63,5.16 -0.58,4.95 -0.47,4.77 -0.35,4.59 -0.19,4.46 -0.02,4.33 0.17,4.25 0.37,4.18 0.58,4.18 0.79,4.17 1.00,4.23 1.20,4.30 1.37,4.42 1.54,4.54 1.67,4.72 1.79,4.89 1.85,5.09 1.92,5.30 1.91,5.51 1.90,5.72 1.83,5.92 1.76,6.12 1.62,6.28 1.49,6.45 1.31,6.56 1.13,6.68 0.92,6.73 0.72,6.78 0.51,6.76 0.30,6.75 0.10,6.66 -0.09,6.58 -0.24,6.43 -0.40,6.29 -0.51,6.11 -0.61,5.92 -0.65,5.71 -0.69,5.50 -0.66,5.29 -0.63,5.08 -0.54,4.89 -0.44,4.70 -0.29,4.55 -0.14,4.40 -0.14,4.40 -0.14,4.40 1.22,4.04 2.58,3.68 1.58,3.04 0.57,2.40 -0.11,1.78 -0.79,1.17 -0.92,1.06 -1.05,0.94 -1.15,0.80 -1.24,0.66 -1.31,0.51 -1.37,0.35 -1.39,0.18 -1.41,0.01 -1.39,-0.15 -1.37,-0.32 -1.32,-0.48 -1.26,-0.64 -1.16,-0.78 -1.06,-0.93 -0.94,-1.04 -0.81,-1.15 -0.66,-1.24 -0.51,-1.32 -0.34,-1.36 -0.18,-1.40 -0.01,-1.40 0.15,-1.40 0.32,-1.36 0.49,-1.32 0.64,-1.25 0.79,-1.17 0.79,-1.17 L 0.79,-1.17 Z"></path></g></svg>