<svg version="1.1" xmlns="http://www.w3.org/2000/svg" viewBox="0 0 337.0143132423909 121.89347146772707" width="674.0286264847819" height="243.78694293545414"><!-- svg-source:excalidraw --><metadata></metadata><defs><style class="style-fonts">
      </style></defs><rect x="0" y="0" width="337.0143132423909" height="121.89347146772707" fill="#ffffff"></rect><g stroke-linecap="round"><g transform="translate(127.01431324239093 111.89347146772707) rotate(0 0 -50)"><path d="M0 0 C0 -27.26, 0 -54.52, 0 -100 M0 0 C0 -36.29, 0 -72.58, 0 -100" stroke="#f08c00" stroke-width="2" fill="none"></path></g><g transform="translate(127.01431324239093 111.89347146772707) rotate(0 0 -50)"><path d="M8.55 -76.51 C6.22 -82.91, 3.89 -89.32, 0 -100 M8.55 -76.51 C5.45 -85.03, 2.34 -93.56, 0 -100" stroke="#f08c00" stroke-width="2" fill="none"></path></g><g transform="translate(127.01431324239093 111.89347146772707) rotate(0 0 -50)"><path d="M-8.55 -76.51 C-6.22 -82.91, -3.89 -89.32, 0 -100 M-8.55 -76.51 C-5.45 -85.03, -2.34 -93.56, 0 -100" stroke="#f08c00" stroke-width="2" fill="none"></path></g></g><mask></mask><g stroke-linecap="round"><g transform="translate(127.01431324239093 111.89347146772707) rotate(0 -50 -50)"><path d="M0 0 C-26.1 -26.1, -52.2 -52.2, -100 -100 M0 0 C-33.43 -33.43, -66.87 -66.87, -100 -100" stroke="#f08c00" stroke-width="2" fill="none"></path></g><g transform="translate(127.01431324239093 111.89347146772707) rotate(0 -50 -50)"><path d="M-77.34 -89.43 C-83.26 -92.19, -89.17 -94.95, -100 -100 M-77.34 -89.43 C-84.92 -92.97, -92.49 -96.5, -100 -100" stroke="#f08c00" stroke-width="2" fill="none"></path></g><g transform="translate(127.01431324239093 111.89347146772707) rotate(0 -50 -50)"><path d="M-89.43 -77.34 C-92.19 -83.26, -94.95 -89.17, -100 -100 M-89.43 -77.34 C-92.97 -84.92, -96.5 -92.49, -100 -100" stroke="#f08c00" stroke-width="2" fill="none"></path></g></g><mask></mask><g stroke-linecap="round"><g transform="translate(127.01431324239093 111.89347146772707) rotate(0 50 -50)"><path d="M0 0 C36.11 -36.11, 72.22 -72.22, 100 -100 M0 0 C39.21 -39.21, 78.43 -78.43, 100 -100" stroke="#f08c00" stroke-width="2" fill="none"></path></g><g transform="translate(127.01431324239093 111.89347146772707) rotate(0 50 -50)"><path d="M89.43 -77.34 C93.25 -85.52, 97.07 -93.71, 100 -100 M89.43 -77.34 C93.58 -86.23, 97.72 -95.11, 100 -100" stroke="#f08c00" stroke-width="2" fill="none"></path></g><g transform="translate(127.01431324239093 111.89347146772707) rotate(0 50 -50)"><path d="M77.34 -89.43 C85.52 -93.25, 93.71 -97.07, 100 -100 M77.34 -89.43 C86.23 -93.58, 95.11 -97.72, 100 -100" stroke="#f08c00" stroke-width="2" fill="none"></path></g></g><mask></mask><g stroke-linecap="round"><g transform="translate(127.01431324239093 111.89347146772707) rotate(0 100 0)"><path d="M0 0 C75.29 0, 150.58 0, 200 0 M0 0 C61.7 0, 123.39 0, 200 0" stroke="#1e1e1e" stroke-width="2" fill="none"></path></g><g transform="translate(127.01431324239093 111.89347146772707) rotate(0 100 0)"><path d="M176.51 8.55 C185.35 5.33, 194.2 2.11, 200 0 M176.51 8.55 C183.75 5.91, 191 3.28, 200 0" stroke="#1e1e1e" stroke-width="2" fill="none"></path></g><g transform="translate(127.01431324239093 111.89347146772707) rotate(0 100 0)"><path d="M176.51 -8.55 C185.35 -5.33, 194.2 -2.11, 200 0 M176.51 -8.55 C183.75 -5.91, 191 -3.28, 200 0" stroke="#1e1e1e" stroke-width="2" fill="none"></path></g></g><mask></mask><g stroke-linecap="round"><g transform="translate(127.01431324239093 111.89347146772707) rotate(0 50 0)"><path d="M0 0 C33.2 0, 66.39 0, 100 0 M0 0 C20.03 0, 40.07 0, 100 0" stroke="#f08c00" stroke-width="2" fill="none"></path></g><g transform="translate(127.01431324239093 111.89347146772707) rotate(0 50 0)"><path d="M76.51 8.55 C84.31 5.71, 92.1 2.87, 100 0 M76.51 8.55 C81.21 6.84, 85.92 5.12, 100 0" stroke="#f08c00" stroke-width="2" fill="none"></path></g><g transform="translate(127.01431324239093 111.89347146772707) rotate(0 50 0)"><path d="M76.51 -8.55 C84.31 -5.71, 92.1 -2.87, 100 0 M76.51 -8.55 C81.21 -6.84, 85.92 -5.12, 100 0" stroke="#f08c00" stroke-width="2" fill="none"></path></g></g><mask></mask><g transform="translate(17.109895957788467 45.54456379317526) rotate(0 -0.3640915372470772 -0.6407149072701941)" stroke="none"><path fill="#f08c00" d="M -1.29,0.64 Q -1.29,0.64 -1.70,0.09 -2.11,-0.44 -3.26,-0.14 -4.40,0.16 -4.77,1.24 -5.14,2.33 -4.75,3.37 -4.36,4.42 -3.19,4.15 -2.02,3.88 -1.51,2.76 -1.00,1.64 -0.73,0.47 -0.47,-0.69 -0.21,-1.86 0.03,-3.03 0.07,-4.13 0.10,-5.22 0.29,-6.41 0.48,-7.59 0.67,-8.30 0.86,-9.02 0.97,-9.17 1.08,-9.32 1.23,-9.44 1.37,-9.56 1.54,-9.64 1.71,-9.72 1.89,-9.76 2.07,-9.80 2.26,-9.79 2.45,-9.78 2.63,-9.73 2.81,-9.68 2.97,-9.59 3.13,-9.50 3.27,-9.37 3.40,-9.24 3.50,-9.08 3.60,-8.92 3.66,-8.75 3.72,-8.57 3.74,-8.38 3.75,-8.20 3.72,-8.01 3.70,-7.83 3.62,-7.66 3.55,-7.48 3.62,-6.06 3.69,-4.63 3.79,-3.39 3.89,-2.15 4.09,-1.07 4.30,0.00 4.40,1.19 4.49,2.38 4.51,3.55 4.53,4.73 5.81,4.89 7.09,5.06 7.17,5.20 7.24,5.34 7.28,5.49 7.31,5.65 7.31,5.81 7.31,5.96 7.27,6.12 7.23,6.27 7.15,6.41 7.08,6.55 6.97,6.67 6.87,6.78 6.74,6.87 6.60,6.96 6.46,7.02 6.31,7.07 6.15,7.09 5.99,7.10 5.83,7.08 5.68,7.06 5.53,7.01 5.38,6.95 5.25,6.86 5.12,6.76 5.02,6.65 4.92,6.53 5.19,5.56 5.45,4.60 5.66,4.54 5.86,4.49 6.08,4.50 6.29,4.51 6.49,4.59 6.68,4.67 6.85,4.80 7.01,4.94 7.12,5.12 7.23,5.31 7.27,5.51 7.32,5.72 7.29,5.93 7.27,6.14 7.18,6.34 7.09,6.53 6.95,6.68 6.80,6.84 6.61,6.94 6.43,7.04 6.22,7.07 6.01,7.10 5.80,7.07 5.59,7.04 5.40,6.94 5.21,6.84 5.07,6.68 4.92,6.53 4.83,6.34 4.74,6.14 4.72,5.93 4.69,5.72 4.74,5.51 4.79,5.31 4.90,5.12 5.01,4.94 5.17,4.80 5.33,4.67 5.53,4.59 5.72,4.51 5.94,4.50 6.15,4.49 6.35,4.54 6.56,4.60 6.73,4.72 6.91,4.84 7.04,5.01 7.17,5.18 7.23,5.38 7.30,5.58 7.30,5.79 7.30,6.00 7.23,6.21 7.17,6.41 7.04,6.58 6.91,6.75 7.00,5.90 7.09,5.06 7.17,5.20 7.24,5.34 7.28,5.49 7.31,5.65 7.31,5.81 7.31,5.96 7.27,6.12 7.23,6.27 7.15,6.41 7.08,6.55 6.97,6.67 6.87,6.78 6.74,6.87 6.60,6.96 6.46,7.02 6.31,7.07 6.15,7.09 5.99,7.10 5.84,7.08 5.68,7.06 5.53,7.01 5.38,6.95 5.25,6.86 5.12,6.77 5.02,6.65 4.92,6.53 3.08,6.29 1.24,6.06 1.07,4.77 0.90,3.48 0.89,2.35 0.88,1.23 0.73,0.10 0.59,-1.02 0.48,-2.45 0.36,-3.89 0.45,-5.22 0.53,-6.56 0.69,-7.79 0.86,-9.02 0.97,-9.17 1.08,-9.32 1.23,-9.44 1.37,-9.56 1.54,-9.64 1.71,-9.72 1.89,-9.76 2.07,-9.80 2.26,-9.79 2.45,-9.78 2.63,-9.73 2.81,-9.68 2.97,-9.59 3.13,-9.50 3.27,-9.37 3.40,-9.24 3.50,-9.08 3.60,-8.92 3.66,-8.75 3.72,-8.57 3.74,-8.38 3.75,-8.20 3.72,-8.01 3.70,-7.83 3.62,-7.66 3.55,-7.48 3.56,-6.94 3.56,-6.40 3.52,-5.27 3.48,-4.13 3.43,-3.03 3.37,-1.93 3.02,-0.53 2.68,0.85 2.43,2.05 2.17,3.25 1.59,4.29 1.01,5.34 0.32,6.19 -0.36,7.05 -1.28,7.70 -2.21,8.35 -3.38,8.36 -4.54,8.37 -5.55,7.56 -6.57,6.75 -7.19,5.74 -7.82,4.73 -8.04,3.41 -8.26,2.08 -8.06,0.98 -7.87,-0.12 -7.26,-1.08 -6.65,-2.05 -5.84,-2.74 -5.02,-3.43 -3.88,-3.94 -2.73,-4.45 -1.61,-4.14 -0.49,-3.84 0.21,-2.90 0.91,-1.96 1.10,-1.30 1.29,-0.64 1.35,-0.48 1.41,-0.31 1.42,-0.14 1.44,0.02 1.42,0.20 1.39,0.37 1.33,0.53 1.26,0.69 1.16,0.84 1.06,0.98 0.93,1.09 0.79,1.20 0.64,1.28 0.48,1.36 0.31,1.40 0.14,1.43 -0.02,1.43 -0.20,1.43 -0.37,1.38 -0.54,1.34 -0.69,1.25 -0.84,1.17 -0.97,1.05 -1.10,0.93 -1.19,0.79 -1.29,0.64 -1.29,0.64 L -1.29,0.64 Z"></path></g><g transform="translate(10 32.03571529572946) rotate(0 6.626646840340072 0.22754037517643155)" stroke="none"><path fill="#f08c00" d="M 0.11,-1.42 Q 0.11,-1.42 1.30,-1.47 2.50,-1.51 3.98,-1.55 5.47,-1.59 6.74,-1.60 8.00,-1.61 9.16,-1.61 10.33,-1.61 11.45,-1.25 12.58,-0.90 12.77,-0.97 12.97,-1.05 13.18,-1.06 13.40,-1.07 13.60,-1.01 13.81,-0.96 13.98,-0.84 14.16,-0.72 14.28,-0.55 14.41,-0.38 14.48,-0.17 14.55,0.02 14.54,0.23 14.54,0.44 14.47,0.64 14.41,0.84 14.28,1.01 14.15,1.18 13.97,1.30 13.79,1.42 13.59,1.47 13.38,1.53 13.17,1.52 12.96,1.50 12.76,1.42 12.57,1.34 12.40,1.21 12.24,1.07 12.13,0.88 12.03,0.70 11.98,0.49 11.94,0.29 11.96,0.08 11.98,-0.13 12.07,-0.32 12.17,-0.51 12.31,-0.66 12.46,-0.82 12.65,-0.92 12.84,-1.01 13.05,-1.05 13.26,-1.08 13.46,-1.05 13.67,-1.01 13.86,-0.91 14.05,-0.81 14.19,-0.65 14.34,-0.50 14.43,-0.31 14.52,-0.11 14.54,0.09 14.56,0.30 14.51,0.51 14.47,0.72 14.36,0.90 14.24,1.08 14.08,1.21 13.92,1.35 13.92,1.35 13.92,1.35 12.12,1.58 10.33,1.80 9.17,1.80 8.01,1.80 6.77,1.81 5.52,1.82 3.88,1.85 2.23,1.89 1.06,1.65 -0.11,1.42 -0.28,1.39 -0.45,1.35 -0.60,1.28 -0.76,1.21 -0.89,1.10 -1.03,0.99 -1.13,0.85 -1.23,0.71 -1.30,0.56 -1.37,0.40 -1.40,0.23 -1.43,0.06 -1.41,-0.11 -1.40,-0.28 -1.34,-0.44 -1.29,-0.61 -1.20,-0.75 -1.11,-0.90 -0.98,-1.02 -0.86,-1.14 -0.71,-1.22 -0.56,-1.31 -0.39,-1.36 -0.23,-1.41 -0.06,-1.42 0.11,-1.42 0.11,-1.42 L 0.11,-1.42 Z"></path></g><g transform="translate(20.92303472769163 29.089629265277836) rotate(0 2.873096480880122 4.1077473729501435)" stroke="none"><path fill="#f08c00" d="M 0.72,-1.35 Q 0.72,-1.35 1.75,-0.96 2.79,-0.57 3.97,0.06 5.15,0.71 6.03,1.35 6.90,2.00 7.10,3.31 7.30,4.63 6.45,5.66 5.60,6.69 4.43,7.80 3.25,8.91 3.11,9.07 2.97,9.23 2.79,9.33 2.60,9.44 2.40,9.48 2.19,9.52 1.98,9.50 1.77,9.47 1.57,9.38 1.38,9.28 1.23,9.14 1.08,8.99 0.98,8.80 0.89,8.61 0.86,8.40 0.83,8.19 0.86,7.98 0.90,7.77 1.01,7.58 1.11,7.40 1.27,7.25 1.42,7.11 1.62,7.02 1.81,6.94 2.02,6.92 2.23,6.90 2.44,6.95 2.65,7.00 2.83,7.11 3.01,7.23 3.14,7.39 3.28,7.55 3.35,7.75 3.43,7.95 3.44,8.16 3.44,8.38 3.38,8.58 3.32,8.78 3.20,8.96 3.08,9.13 2.91,9.26 2.73,9.38 2.53,9.45 2.33,9.51 2.12,9.51 1.90,9.50 1.70,9.43 1.50,9.36 1.34,9.23 1.17,9.10 1.05,8.92 0.94,8.74 0.89,8.53 0.83,8.33 0.85,8.12 0.86,7.90 0.94,7.71 1.03,7.51 1.03,7.51 1.03,7.51 2.18,5.71 3.33,3.91 2.20,3.27 1.07,2.64 0.17,1.99 -0.72,1.35 -0.87,1.24 -1.02,1.14 -1.14,1.00 -1.26,0.86 -1.35,0.69 -1.43,0.53 -1.48,0.35 -1.52,0.17 -1.52,-0.01 -1.52,-0.19 -1.47,-0.37 -1.43,-0.55 -1.34,-0.71 -1.25,-0.88 -1.13,-1.01 -1.00,-1.15 -0.85,-1.26 -0.70,-1.36 -0.52,-1.42 -0.35,-1.49 -0.17,-1.51 0.01,-1.53 0.19,-1.51 0.37,-1.48 0.55,-1.42 0.72,-1.35 0.72,-1.35 L 0.72,-1.35 Z"></path></g><g transform="translate(109.11505586820931 19.84421897714492) rotate(0 -1.906569384951581 2.2634504744046353)" stroke="none"><path d="M0 0 C-0.43 -0.37, -1.62 -2.47, -2.56 -2.24 C-3.49 -2.01, -5.02 0.27, -5.59 1.35 C-6.16 2.43, -6.4 3.34, -5.97 4.24 C-5.54 5.14, -4.37 6.59, -3.02 6.73 C-1.66 6.87, 1.3 5.36, 2.16 5.09" stroke="none" stroke-width="0" fill="#ffffff" fill-rule="evenodd"></path><path fill="#f08c00" d="M -1.27,0.65 Q -1.27,0.65 -1.62,0.20 -1.97,-0.23 -2.86,0.65 -3.75,1.53 -3.99,2.73 -4.23,3.92 -3.31,4.45 -2.39,4.98 -0.55,4.55 1.27,4.11 1.45,4.00 1.63,3.88 1.84,3.83 2.04,3.78 2.25,3.79 2.47,3.81 2.66,3.89 2.86,3.98 3.02,4.12 3.17,4.26 3.28,4.44 3.38,4.63 3.43,4.84 3.47,5.04 3.44,5.26 3.41,5.47 3.32,5.66 3.22,5.85 3.07,6.00 2.92,6.15 2.73,6.24 2.54,6.34 2.33,6.37 2.12,6.40 1.91,6.36 1.70,6.32 1.52,6.22 1.33,6.11 1.19,5.95 1.05,5.80 0.96,5.60 0.88,5.41 0.86,5.19 0.84,4.98 0.89,4.78 0.94,4.57 1.06,4.39 1.17,4.21 1.34,4.08 1.50,3.94 1.70,3.87 1.90,3.80 2.11,3.79 2.33,3.78 2.53,3.84 2.73,3.91 2.91,4.03 3.08,4.15 3.20,4.33 3.33,4.50 3.39,4.70 3.45,4.90 3.45,5.12 3.44,5.33 3.37,5.53 3.30,5.73 3.17,5.89 3.03,6.06 3.03,6.06 3.03,6.06 0.92,7.21 -1.19,8.36 -2.68,8.30 -4.16,8.24 -5.17,7.54 -6.19,6.84 -6.82,5.86 -7.46,4.87 -7.52,3.76 -7.59,2.64 -7.18,1.41 -6.77,0.17 -6.08,-0.82 -5.38,-1.83 -4.34,-2.69 -3.30,-3.56 -1.98,-3.53 -0.66,-3.50 0.15,-2.61 0.96,-1.73 1.12,-1.19 1.27,-0.65 1.33,-0.48 1.39,-0.32 1.41,-0.15 1.43,0.01 1.40,0.18 1.38,0.35 1.32,0.51 1.26,0.68 1.16,0.82 1.06,0.96 0.93,1.07 0.79,1.18 0.64,1.26 0.49,1.34 0.32,1.38 0.15,1.42 -0.01,1.42 -0.18,1.41 -0.35,1.37 -0.52,1.33 -0.67,1.25 -0.82,1.16 -0.95,1.05 -1.08,0.93 -1.17,0.79 -1.27,0.65 -1.27,0.65 L -1.27,0.65 Z"></path></g><g transform="translate(100.77381360649997 13.041885415535944) rotate(0 5.865350541961561 -0.11377018758867052)" stroke="none"><path fill="#f08c00" d="M 0,-1.38 Q 0,-1.38 1.09,-1.49 2.18,-1.60 3.70,-1.61 5.22,-1.62 6.47,-1.62 7.73,-1.62 9.76,-1.48 11.79,-1.34 12.00,-1.30 12.21,-1.25 12.39,-1.14 12.57,-1.03 12.71,-0.87 12.85,-0.71 12.93,-0.51 13.01,-0.32 13.02,-0.10 13.03,0.10 12.98,0.30 12.92,0.51 12.80,0.68 12.68,0.86 12.51,0.99 12.34,1.12 12.14,1.19 11.94,1.25 11.73,1.26 11.52,1.26 11.32,1.19 11.11,1.12 10.94,0.99 10.77,0.86 10.65,0.69 10.54,0.51 10.48,0.31 10.42,0.10 10.43,-0.10 10.44,-0.31 10.52,-0.51 10.60,-0.71 10.74,-0.87 10.87,-1.03 11.05,-1.14 11.24,-1.25 11.44,-1.30 11.65,-1.34 11.86,-1.32 12.07,-1.30 12.27,-1.21 12.46,-1.12 12.61,-0.97 12.77,-0.83 12.87,-0.64 12.97,-0.45 13.00,-0.24 13.04,-0.03 13.01,0.17 12.97,0.38 12.87,0.56 12.77,0.75 12.62,0.90 12.47,1.04 12.27,1.13 12.08,1.22 11.87,1.25 11.66,1.27 11.66,1.27 11.66,1.27 9.69,1.44 7.73,1.62 6.47,1.62 5.22,1.62 3.70,1.61 2.18,1.60 1.09,1.49 0,1.38 -0.16,1.36 -0.33,1.34 -0.48,1.28 -0.64,1.22 -0.78,1.13 -0.92,1.03 -1.03,0.91 -1.14,0.78 -1.21,0.64 -1.29,0.49 -1.33,0.32 -1.37,0.16 -1.37,-0.00 -1.37,-0.16 -1.33,-0.32 -1.29,-0.49 -1.21,-0.64 -1.14,-0.78 -1.03,-0.91 -0.92,-1.03 -0.78,-1.13 -0.64,-1.22 -0.48,-1.28 -0.33,-1.34 -0.16,-1.36 0.00,-1.38 0.00,-1.38 L 0,-1.38 Z"></path></g><g transform="translate(111.14077321302102 10) rotate(0 1.588809424183637 2.502968177803268)" stroke="none"><path d="M0 0 C0.53 0.31, 3.03 1.01, 3.18 1.84 C3.33 2.68, 1.28 4.48, 0.9 5.01" stroke="none" stroke-width="0" fill="#ffffff" fill-rule="evenodd"></path><path fill="#f08c00" d="M 0.57,-1.39 Q 0.57,-1.39 1.43,-1.18 2.29,-0.97 3.26,-0.38 4.24,0.19 4.53,1.63 4.82,3.07 3.38,4.43 1.94,5.80 1.78,5.94 1.63,6.09 1.44,6.18 1.24,6.27 1.03,6.29 0.82,6.31 0.61,6.27 0.41,6.22 0.22,6.11 0.04,6.00 -0.08,5.84 -0.22,5.68 -0.30,5.48 -0.38,5.28 -0.39,5.07 -0.40,4.86 -0.34,4.65 -0.29,4.45 -0.17,4.27 -0.05,4.10 0.11,3.97 0.28,3.84 0.48,3.77 0.69,3.70 0.90,3.70 1.11,3.71 1.31,3.77 1.51,3.84 1.68,3.97 1.85,4.10 1.97,4.28 2.09,4.45 2.15,4.66 2.20,4.86 2.19,5.07 2.18,5.29 2.10,5.48 2.02,5.68 1.88,5.84 1.74,6.00 1.56,6.11 1.38,6.22 1.17,6.27 0.96,6.31 0.75,6.29 0.54,6.27 0.35,6.18 0.16,6.09 0.00,5.94 -0.14,5.79 -0.24,5.60 -0.34,5.42 -0.37,5.21 -0.41,5.00 -0.37,4.79 -0.34,4.58 -0.24,4.39 -0.14,4.20 -0.14,4.20 -0.14,4.20 0.38,3.26 0.92,2.31 0.17,1.85 -0.57,1.39 -0.73,1.30 -0.89,1.21 -1.02,1.08 -1.15,0.96 -1.25,0.80 -1.35,0.65 -1.41,0.48 -1.47,0.31 -1.48,0.13 -1.50,-0.04 -1.47,-0.22 -1.45,-0.40 -1.38,-0.57 -1.31,-0.74 -1.20,-0.88 -1.09,-1.03 -0.95,-1.14 -0.81,-1.26 -0.65,-1.34 -0.48,-1.42 -0.31,-1.46 -0.13,-1.49 0.04,-1.49 0.22,-1.48 0.40,-1.43 0.57,-1.39 0.57,-1.39 L 0.57,-1.39 Z"></path></g><g transform="translate(187.42998531629564 15.74844412224411) rotate(0 4.091176330490271 6.904126420976354)" stroke="none"><path fill="#f08c00" d="M 1.41,-0.12 Q 1.41,-0.12 1.69,0.82 1.97,1.77 2.11,3.19 2.24,4.62 2.35,5.78 2.46,6.94 2.51,8.10 2.55,9.26 2.56,10.43 2.56,11.60 2.57,12.46 2.58,13.33 2.55,13.56 2.52,13.78 2.44,14.00 2.36,14.21 2.23,14.40 2.10,14.59 1.93,14.74 1.76,14.89 1.56,15.00 1.36,15.10 1.13,15.16 0.91,15.21 0.68,15.21 0.46,15.21 0.23,15.16 0.01,15.10 -0.18,14.99 -0.38,14.89 -0.55,14.74 -0.72,14.59 -0.85,14.40 -0.98,14.21 -1.06,14.00 -1.15,13.78 -1.17,13.56 -1.20,13.33 -1.23,12.08 -1.26,10.83 -0.96,9.72 -0.67,8.61 0.14,7.75 0.96,6.88 1.94,6.34 2.91,5.80 4.06,5.54 5.21,5.28 6.39,5.93 7.57,6.57 8.30,7.49 9.03,8.41 9.41,9.50 9.78,10.58 9.42,12.13 9.06,13.67 7.95,14.44 6.83,15.21 5.68,15.31 4.53,15.41 2.81,14.20 1.09,12.99 0.96,12.82 0.83,12.66 0.76,12.46 0.69,12.26 0.69,12.04 0.68,11.83 0.75,11.63 0.81,11.43 0.94,11.26 1.07,11.09 1.24,10.96 1.42,10.84 1.62,10.79 1.83,10.73 2.04,10.74 2.25,10.75 2.45,10.82 2.65,10.90 2.81,11.04 2.97,11.17 3.09,11.35 3.20,11.53 3.24,11.74 3.29,11.95 3.27,12.16 3.25,12.37 3.16,12.56 3.07,12.76 2.93,12.91 2.79,13.07 2.60,13.17 2.41,13.27 2.20,13.31 1.99,13.34 1.78,13.31 1.57,13.28 1.38,13.18 1.20,13.08 1.05,12.93 0.90,12.78 0.81,12.59 0.72,12.39 0.69,12.18 0.67,11.97 0.71,11.76 0.76,11.56 0.86,11.37 0.97,11.19 1.13,11.05 1.29,10.91 1.49,10.83 1.69,10.75 1.90,10.74 2.11,10.72 2.32,10.78 2.52,10.83 2.70,10.95 2.88,11.07 2.88,11.07 2.88,11.07 3.90,11.51 4.92,11.95 5.72,11.19 6.52,10.43 5.92,9.39 5.33,8.35 4.32,8.69 3.31,9.03 2.68,9.97 2.05,10.91 2.32,12.12 2.58,13.33 2.55,13.56 2.52,13.78 2.44,14.00 2.36,14.21 2.23,14.40 2.10,14.59 1.93,14.74 1.76,14.89 1.56,14.99 1.36,15.10 1.13,15.16 0.91,15.21 0.68,15.21 0.46,15.21 0.23,15.16 0.01,15.10 -0.18,15.00 -0.38,14.89 -0.55,14.74 -0.72,14.59 -0.85,14.40 -0.98,14.21 -1.06,14.00 -1.15,13.78 -1.17,13.56 -1.20,13.33 -1.20,12.94 -1.20,12.55 -1.20,11.36 -1.19,10.17 -1.21,8.71 -1.22,7.25 -1.33,6.13 -1.43,5.01 -1.53,3.55 -1.62,2.09 -1.51,1.11 -1.41,0.12 -1.40,-0.04 -1.40,-0.21 -1.35,-0.37 -1.30,-0.54 -1.22,-0.69 -1.14,-0.84 -1.02,-0.96 -0.90,-1.08 -0.76,-1.18 -0.61,-1.27 -0.45,-1.33 -0.29,-1.38 -0.12,-1.40 0.04,-1.41 0.21,-1.39 0.38,-1.36 0.53,-1.29 0.69,-1.23 0.83,-1.13 0.97,-1.03 1.08,-0.90 1.19,-0.76 1.26,-0.61 1.34,-0.46 1.37,-0.29 1.41,-0.12 1.41,-0.12 L 1.41,-0.12 Z"></path></g><g transform="translate(184.46420644177306 12.431118638989574) rotate(0 5.96465173224442 0.08382686703498621)" stroke="none"><path fill="#f08c00" d="M 0.12,-1.44 Q 0.12,-1.44 1.19,-1.39 2.25,-1.34 3.86,-1.28 5.48,-1.21 6.80,-1.20 8.13,-1.19 10.03,-1.16 11.94,-1.14 12.15,-1.11 12.36,-1.08 12.55,-0.98 12.74,-0.89 12.89,-0.74 13.04,-0.58 13.13,-0.39 13.22,-0.20 13.25,0.00 13.28,0.21 13.23,0.42 13.19,0.63 13.09,0.81 12.98,0.99 12.82,1.13 12.66,1.28 12.47,1.36 12.27,1.44 12.06,1.46 11.85,1.47 11.64,1.42 11.44,1.36 11.26,1.25 11.08,1.13 10.95,0.97 10.82,0.80 10.74,0.60 10.67,0.40 10.67,0.19 10.66,-0.02 10.73,-0.22 10.79,-0.42 10.92,-0.59 11.04,-0.76 11.22,-0.89 11.39,-1.01 11.59,-1.07 11.80,-1.13 12.01,-1.12 12.22,-1.11 12.42,-1.04 12.62,-0.97 12.78,-0.83 12.95,-0.70 13.06,-0.52 13.17,-0.34 13.22,-0.13 13.27,0.07 13.25,0.28 13.24,0.49 13.15,0.68 13.06,0.88 12.92,1.04 12.78,1.19 12.59,1.30 12.41,1.40 12.20,1.44 11.99,1.48 11.99,1.48 11.99,1.48 10.05,1.67 8.11,1.87 6.76,1.86 5.41,1.85 3.70,1.78 1.99,1.71 0.93,1.57 -0.12,1.44 -0.29,1.40 -0.46,1.36 -0.62,1.29 -0.78,1.21 -0.91,1.10 -1.05,0.99 -1.15,0.85 -1.25,0.71 -1.32,0.55 -1.39,0.39 -1.41,0.22 -1.44,0.04 -1.43,-0.12 -1.41,-0.29 -1.35,-0.46 -1.30,-0.62 -1.20,-0.77 -1.11,-0.92 -0.98,-1.04 -0.86,-1.16 -0.70,-1.24 -0.55,-1.33 -0.39,-1.38 -0.22,-1.42 -0.04,-1.43 0.12,-1.44 0.12,-1.44 L 0.12,-1.44 Z"></path></g><g transform="translate(194.92386768262259 10.407181057811613) rotate(0 1.7013385874033702 2.425125164707424)" stroke="none"><path d="M0 0 C0.57 0.33, 3.33 1.17, 3.4 1.98 C3.48 2.78, 0.94 4.37, 0.45 4.85" stroke="none" stroke-width="0" fill="#ffffff" fill-rule="evenodd"></path><path fill="#f08c00" d="M 0.65,-1.18 Q 0.65,-1.18 1.41,-0.87 2.18,-0.56 3.36,0.12 4.54,0.81 4.66,2.06 4.78,3.31 3.05,4.57 1.31,5.83 1.14,5.94 0.96,6.06 0.75,6.11 0.54,6.15 0.33,6.14 0.12,6.12 -0.07,6.03 -0.26,5.95 -0.42,5.80 -0.57,5.66 -0.68,5.47 -0.78,5.29 -0.82,5.08 -0.86,4.87 -0.83,4.66 -0.80,4.45 -0.70,4.26 -0.61,4.07 -0.45,3.92 -0.30,3.77 -0.11,3.68 0.07,3.59 0.28,3.56 0.49,3.53 0.70,3.57 0.91,3.62 1.09,3.72 1.28,3.83 1.42,3.99 1.56,4.15 1.64,4.34 1.72,4.54 1.74,4.75 1.75,4.96 1.70,5.17 1.65,5.37 1.53,5.55 1.42,5.73 1.25,5.86 1.08,5.99 0.88,6.07 0.68,6.14 0.47,6.14 0.26,6.15 0.06,6.08 -0.14,6.02 -0.31,5.89 -0.48,5.77 -0.60,5.59 -0.73,5.42 -0.79,5.22 -0.85,5.01 -0.84,4.80 -0.83,4.59 -0.76,4.39 -0.68,4.19 -0.55,4.03 -0.41,3.86 -0.41,3.86 -0.41,3.86 0.13,3.00 0.68,2.14 0.01,1.66 -0.65,1.18 -0.79,1.09 -0.92,0.99 -1.02,0.87 -1.13,0.74 -1.20,0.60 -1.28,0.45 -1.31,0.29 -1.35,0.13 -1.34,-0.02 -1.34,-0.19 -1.30,-0.35 -1.25,-0.50 -1.17,-0.65 -1.10,-0.79 -0.98,-0.91 -0.87,-1.03 -0.74,-1.12 -0.60,-1.21 -0.45,-1.27 -0.29,-1.32 -0.13,-1.34 0.03,-1.35 0.19,-1.33 0.35,-1.31 0.50,-1.24 0.65,-1.18 0.65,-1.18 L 0.65,-1.18 Z"></path></g><g transform="translate(191.07099689219285 94.0830086923379) rotate(0 -1.429910203111831 2.79039038391511)" stroke="none"><path d="M0 0 C-0.48 -0.39, -1.86 -2.23, -2.86 -2.31 C-3.86 -2.4, -5.21 -1.35, -5.98 -0.5 C-6.76 0.35, -7.34 1.52, -7.52 2.78 C-7.7 4.04, -7.61 6.2, -7.04 7.05 C-6.48 7.91, -4.97 8.03, -4.12 7.92 C-3.26 7.8, -2.75 7.96, -1.92 6.37 C-1.09 4.78, 0.31 -1.64, 0.89 -1.6 C1.47 -1.57, 1.15 5.11, 1.56 6.59 C1.97 8.06, 2.84 7.36, 3.36 7.25 C3.88 7.13, 4.46 6.14, 4.67 5.92" stroke="none" stroke-width="0" fill="#ffffff" fill-rule="evenodd"></path><path fill="#f08c00" d="M -1.19,0.89 Q -1.19,0.89 -1.70,0.57 -2.22,0.26 -3.40,0.34 -4.57,0.43 -5.17,1.53 -5.76,2.63 -5.82,3.92 -5.88,5.21 -4.86,5.58 -3.84,5.95 -3.11,5.15 -2.38,4.35 -1.94,3.25 -1.49,2.15 -1.20,1.00 -0.91,-0.15 -0.90,-0.97 -0.89,-1.78 -0.84,-1.99 -0.78,-2.20 -0.68,-2.39 -0.57,-2.58 -0.43,-2.74 -0.28,-2.90 -0.10,-3.02 0.07,-3.14 0.27,-3.22 0.48,-3.29 0.69,-3.31 0.91,-3.33 1.12,-3.30 1.33,-3.27 1.54,-3.19 1.74,-3.11 1.91,-2.99 2.09,-2.86 2.23,-2.70 2.37,-2.53 2.47,-2.34 2.57,-2.15 2.61,-1.94 2.66,-1.73 2.66,-1.51 2.66,-1.29 2.70,0.20 2.75,1.71 3.05,3.07 3.35,4.42 3.52,4.73 3.69,5.04 3.85,4.91 4.02,4.77 4.21,4.70 4.41,4.62 4.63,4.62 4.84,4.61 5.04,4.67 5.24,4.73 5.42,4.85 5.59,4.98 5.72,5.15 5.84,5.32 5.91,5.52 5.97,5.73 5.96,5.94 5.96,6.15 5.89,6.35 5.82,6.55 5.68,6.72 5.55,6.88 5.37,7.00 5.20,7.11 4.99,7.17 4.78,7.22 4.57,7.20 4.36,7.19 4.16,7.10 3.97,7.02 3.81,6.88 3.65,6.74 3.54,6.56 3.44,6.37 3.40,6.16 3.36,5.95 3.38,5.74 3.41,5.53 3.50,5.34 3.60,5.15 3.75,5.00 3.90,4.85 4.09,4.75 4.28,4.66 4.49,4.63 4.70,4.60 4.91,4.64 5.11,4.68 5.30,4.78 5.49,4.88 5.63,5.04 5.77,5.20 5.86,5.39 5.94,5.59 5.96,5.80 5.98,6.01 5.93,6.22 5.88,6.42 5.76,6.60 5.65,6.78 5.65,6.78 5.65,6.78 2.78,7.40 -0.08,8.01 -0.52,6.63 -0.96,5.25 -1.10,4.05 -1.24,2.86 -1.27,1.70 -1.30,0.54 -1.09,-0.62 -0.89,-1.78 -0.84,-1.99 -0.78,-2.20 -0.68,-2.39 -0.57,-2.58 -0.43,-2.74 -0.28,-2.90 -0.10,-3.02 0.07,-3.14 0.27,-3.22 0.47,-3.29 0.69,-3.31 0.91,-3.33 1.12,-3.30 1.33,-3.28 1.54,-3.20 1.74,-3.12 1.91,-2.99 2.09,-2.86 2.23,-2.70 2.37,-2.53 2.47,-2.34 2.57,-2.15 2.61,-1.94 2.66,-1.73 2.66,-1.51 2.66,-1.29 2.51,-0.51 2.36,0.25 2.11,1.42 1.87,2.59 1.42,3.70 0.97,4.81 0.34,5.84 -0.27,6.86 -1.23,7.74 -2.19,8.61 -3.33,9.06 -4.47,9.51 -5.77,9.29 -7.08,9.06 -7.87,8.24 -8.67,7.41 -8.92,6.28 -9.16,5.16 -9.11,3.95 -9.07,2.75 -8.80,1.68 -8.53,0.61 -7.95,-0.34 -7.36,-1.31 -6.43,-2.14 -5.49,-2.97 -4.47,-3.49 -3.44,-4.01 -2.14,-3.69 -0.84,-3.36 0.00,-2.72 0.85,-2.07 1.02,-1.48 1.19,-0.89 1.28,-0.74 1.37,-0.58 1.42,-0.41 1.47,-0.24 1.47,-0.06 1.48,0.11 1.45,0.29 1.41,0.47 1.33,0.63 1.26,0.79 1.14,0.93 1.03,1.07 0.89,1.18 0.74,1.29 0.58,1.36 0.41,1.43 0.23,1.46 0.06,1.48 -0.11,1.47 -0.29,1.46 -0.46,1.40 -0.63,1.34 -0.78,1.25 -0.94,1.15 -1.06,1.02 -1.19,0.89 -1.19,0.89 L -1.19,0.89 Z"></path></g><g transform="translate(182.99456421813375 84.95734282538797) rotate(0 6.573686846878445 0.08383167720603524)" stroke="none"><path fill="#f08c00" d="M 0.06,-1.44 Q 0.06,-1.44 1.08,-1.65 2.09,-1.86 3.57,-1.83 5.05,-1.79 6.65,-1.77 8.26,-1.75 10.76,-1.45 13.26,-1.14 13.47,-1.11 13.68,-1.07 13.87,-0.97 14.06,-0.87 14.20,-0.72 14.35,-0.56 14.44,-0.37 14.53,-0.18 14.55,0.02 14.57,0.23 14.53,0.44 14.48,0.65 14.37,0.83 14.26,1.01 14.10,1.15 13.94,1.29 13.74,1.37 13.54,1.45 13.33,1.46 13.12,1.47 12.91,1.41 12.71,1.35 12.53,1.24 12.36,1.12 12.23,0.95 12.10,0.78 12.03,0.58 11.97,0.37 11.97,0.16 11.97,-0.04 12.03,-0.24 12.10,-0.44 12.23,-0.61 12.36,-0.78 12.53,-0.90 12.71,-1.02 12.92,-1.08 13.12,-1.13 13.33,-1.12 13.54,-1.11 13.74,-1.03 13.94,-0.95 14.10,-0.81 14.26,-0.68 14.37,-0.50 14.48,-0.31 14.53,-0.11 14.57,0.09 14.55,0.30 14.53,0.51 14.44,0.71 14.35,0.90 14.20,1.05 14.06,1.21 13.87,1.31 13.68,1.41 13.47,1.44 13.26,1.48 13.26,1.48 13.26,1.48 10.76,1.78 8.25,2.08 6.63,2.09 5.01,2.10 3.45,2.08 1.90,2.05 0.91,1.75 -0.06,1.44 -0.24,1.41 -0.41,1.38 -0.57,1.31 -0.73,1.24 -0.87,1.14 -1.01,1.03 -1.11,0.89 -1.22,0.76 -1.30,0.60 -1.37,0.44 -1.40,0.27 -1.44,0.10 -1.43,-0.06 -1.42,-0.24 -1.37,-0.41 -1.32,-0.57 -1.23,-0.72 -1.14,-0.87 -1.02,-1.00 -0.90,-1.12 -0.75,-1.22 -0.60,-1.31 -0.44,-1.36 -0.27,-1.42 -0.10,-1.43 0.06,-1.44 0.06,-1.44 L 0.06,-1.44 Z"></path></g><g transform="translate(194.63256366772657 81.77175833222645) rotate(0 1.4828990576052092 3.8742087133177847)" stroke="none"><path d="M0 0 C0.58 0.46, 3.57 1.44, 3.48 2.73 C3.4 4.02, 0.15 6.91, -0.52 7.75" stroke="none" stroke-width="0" fill="#ffffff" fill-rule="evenodd"></path><path fill="#f08c00" d="M 0.96,-1.21 Q 0.96,-1.21 1.72,-0.91 2.48,-0.62 3.45,-0.00 4.41,0.62 4.85,2.09 5.29,3.56 4.52,4.67 3.74,5.78 2.16,7.12 0.58,8.46 0.44,8.62 0.29,8.77 0.11,8.88 -0.07,8.98 -0.28,9.02 -0.49,9.06 -0.70,9.03 -0.91,9.00 -1.10,8.90 -1.29,8.80 -1.44,8.65 -1.58,8.50 -1.68,8.31 -1.77,8.12 -1.80,7.91 -1.82,7.70 -1.78,7.49 -1.74,7.28 -1.63,7.10 -1.53,6.91 -1.37,6.77 -1.21,6.63 -1.01,6.55 -0.82,6.47 -0.61,6.45 -0.39,6.44 -0.19,6.49 0.01,6.54 0.19,6.66 0.36,6.77 0.50,6.94 0.63,7.11 0.70,7.31 0.77,7.51 0.77,7.72 0.78,7.93 0.71,8.13 0.65,8.34 0.53,8.51 0.40,8.68 0.23,8.80 0.05,8.92 -0.14,8.99 -0.34,9.05 -0.56,9.04 -0.77,9.03 -0.97,8.96 -1.17,8.88 -1.33,8.75 -1.50,8.61 -1.61,8.43 -1.72,8.25 -1.77,8.05 -1.82,7.84 -1.80,7.63 -1.78,7.42 -1.70,7.22 -1.61,7.03 -1.61,7.03 -1.61,7.03 0.11,5.43 1.85,3.83 0.90,3.20 -0.03,2.56 -0.49,1.89 -0.96,1.21 -1.09,1.08 -1.22,0.94 -1.32,0.78 -1.41,0.62 -1.47,0.44 -1.52,0.27 -1.53,0.08 -1.54,-0.10 -1.51,-0.28 -1.47,-0.46 -1.39,-0.63 -1.32,-0.80 -1.20,-0.95 -1.08,-1.10 -0.94,-1.21 -0.79,-1.33 -0.62,-1.40 -0.45,-1.48 -0.26,-1.51 -0.08,-1.54 0.10,-1.53 0.28,-1.52 0.46,-1.46 0.64,-1.40 0.80,-1.31 0.96,-1.21 0.96,-1.21 L 0.96,-1.21 Z"></path></g><g transform="translate(284.12968066890426 90.8063003012594) rotate(0 3.005491654360412 2.4490702008060907)" stroke="none"><path fill="#1e1e1e" d="M 1.11,-0.79 Q 1.11,-0.79 1.65,-0.25 2.20,0.28 3.26,0.61 4.33,0.94 5.13,0.24 5.93,-0.46 4.92,-0.77 3.90,-1.08 2.84,-0.69 1.78,-0.29 0.98,0.45 0.19,1.20 0.04,2.29 -0.09,3.38 0.45,4.32 1.00,5.26 2.17,5.50 3.35,5.74 5.27,5.57 7.18,5.40 7.37,5.31 7.57,5.21 7.78,5.19 7.99,5.16 8.20,5.20 8.40,5.25 8.59,5.35 8.77,5.46 8.91,5.62 9.05,5.78 9.13,5.97 9.22,6.17 9.23,6.38 9.25,6.59 9.19,6.80 9.14,7.00 9.02,7.18 8.91,7.36 8.74,7.49 8.57,7.62 8.37,7.69 8.17,7.77 7.96,7.77 7.75,7.77 7.55,7.71 7.34,7.64 7.17,7.52 7.00,7.39 6.88,7.22 6.76,7.05 6.70,6.84 6.64,6.64 6.64,6.43 6.65,6.21 6.73,6.02 6.80,5.82 6.94,5.65 7.07,5.49 7.25,5.38 7.43,5.26 7.64,5.21 7.85,5.16 8.06,5.18 8.27,5.20 8.46,5.29 8.66,5.37 8.81,5.52 8.97,5.66 9.07,5.85 9.18,6.03 9.21,6.24 9.25,6.45 9.22,6.66 9.19,6.87 9.09,7.06 9.00,7.25 8.85,7.40 8.69,7.55 8.69,7.55 8.69,7.55 6.34,8.39 3.98,9.23 2.89,9.10 1.80,8.97 0.58,8.59 -0.62,8.22 -1.54,7.16 -2.46,6.11 -2.90,5.09 -3.35,4.07 -3.38,2.91 -3.41,1.74 -3.03,0.74 -2.64,-0.25 -1.81,-1.23 -0.98,-2.20 0.04,-2.88 1.07,-3.55 2.27,-3.89 3.47,-4.23 4.75,-4.13 6.03,-4.04 7.06,-3.33 8.10,-2.62 8.56,-1.61 9.03,-0.61 8.71,0.54 8.40,1.70 7.46,2.52 6.52,3.34 5.52,3.75 4.52,4.16 3.16,4.09 1.80,4.02 0.68,3.10 -0.43,2.17 -0.77,1.48 -1.11,0.79 -1.19,0.65 -1.27,0.50 -1.31,0.34 -1.35,0.18 -1.36,0.02 -1.36,-0.14 -1.32,-0.30 -1.29,-0.46 -1.21,-0.61 -1.14,-0.76 -1.03,-0.88 -0.92,-1.01 -0.79,-1.10 -0.65,-1.20 -0.50,-1.26 -0.35,-1.32 -0.18,-1.34 -0.02,-1.37 0.14,-1.35 0.30,-1.33 0.46,-1.28 0.61,-1.22 0.75,-1.13 0.89,-1.04 1.00,-0.92 1.11,-0.79 1.11,-0.79 L 1.11,-0.79 Z"></path></g><g transform="translate(282.20986407032797 82.25547884653315) rotate(0 6.163254112810137 0.4790402169683148)" stroke="none"><path fill="#1e1e1e" d="M 0.37,-1.32 Q 0.37,-1.32 1.38,-1.18 2.38,-1.05 3.79,-0.92 5.21,-0.79 6.53,-0.84 7.86,-0.90 10.02,-1.00 12.19,-1.10 12.40,-1.09 12.61,-1.08 12.81,-1.00 13.01,-0.93 13.17,-0.79 13.34,-0.65 13.45,-0.47 13.56,-0.29 13.61,-0.09 13.66,0.11 13.64,0.32 13.62,0.53 13.53,0.73 13.44,0.92 13.30,1.08 13.16,1.23 12.97,1.34 12.78,1.44 12.57,1.47 12.37,1.51 12.16,1.48 11.94,1.45 11.76,1.35 11.57,1.25 11.42,1.10 11.27,0.95 11.18,0.76 11.09,0.57 11.06,0.36 11.04,0.14 11.08,-0.05 11.12,-0.26 11.23,-0.45 11.34,-0.63 11.50,-0.77 11.66,-0.91 11.85,-0.99 12.05,-1.07 12.26,-1.08 12.47,-1.10 12.68,-1.04 12.88,-0.99 13.06,-0.87 13.24,-0.76 13.37,-0.59 13.50,-0.42 13.57,-0.22 13.64,-0.02 13.64,0.18 13.65,0.39 13.58,0.60 13.52,0.80 13.39,0.97 13.26,1.14 13.09,1.26 12.91,1.38 12.71,1.44 12.51,1.50 12.51,1.50 12.51,1.50 10.22,1.98 7.94,2.45 6.47,2.51 5.01,2.56 3.24,2.35 1.46,2.15 0.54,1.73 -0.37,1.32 -0.53,1.25 -0.68,1.19 -0.81,1.09 -0.94,0.99 -1.05,0.86 -1.15,0.73 -1.22,0.58 -1.30,0.43 -1.33,0.27 -1.36,0.11 -1.36,-0.05 -1.35,-0.21 -1.31,-0.37 -1.26,-0.53 -1.18,-0.67 -1.10,-0.82 -0.98,-0.94 -0.87,-1.06 -0.73,-1.14 -0.59,-1.23 -0.43,-1.29 -0.27,-1.34 -0.11,-1.35 0.05,-1.37 0.21,-1.34 0.37,-1.31 0.37,-1.31 L 0.37,-1.32 Z"></path></g><g transform="translate(292.4576853373328 80.05191020306302) rotate(0 1.674853780500598 3.1197236184598296)" stroke="none"><path d="M0 0 C0.6 0.26, 3.48 0.52, 3.63 1.56 C3.77 2.6, 1.32 5.46, 0.86 6.24" stroke="none" stroke-width="0" fill="#ffffff" fill-rule="evenodd"></path><path fill="#1e1e1e" d="M 0.61,-1.34 Q 0.61,-1.34 1.39,-1.11 2.18,-0.87 3.62,0.36 5.06,1.61 4.62,2.97 4.19,4.32 3.14,5.49 2.10,6.66 2.00,6.85 1.90,7.04 1.74,7.18 1.58,7.33 1.39,7.41 1.20,7.50 0.99,7.52 0.77,7.55 0.57,7.50 0.36,7.45 0.18,7.34 0.00,7.23 -0.13,7.07 -0.26,6.90 -0.34,6.70 -0.42,6.51 -0.43,6.29 -0.44,6.08 -0.38,5.88 -0.32,5.67 -0.20,5.50 -0.08,5.32 0.08,5.20 0.25,5.07 0.45,5.00 0.65,4.94 0.87,4.94 1.08,4.94 1.28,5.01 1.48,5.08 1.65,5.21 1.82,5.34 1.93,5.52 2.05,5.69 2.11,5.90 2.16,6.10 2.15,6.31 2.14,6.53 2.06,6.72 1.98,6.92 1.84,7.08 1.70,7.24 1.52,7.35 1.33,7.46 1.12,7.50 0.92,7.55 0.71,7.52 0.49,7.50 0.30,7.41 0.11,7.32 -0.03,7.17 -0.19,7.02 -0.28,6.83 -0.38,6.64 -0.41,6.43 -0.45,6.22 -0.41,6.01 -0.38,5.81 -0.38,5.81 -0.38,5.81 0.18,4.01 0.75,2.22 0.06,1.78 -0.61,1.34 -0.76,1.24 -0.91,1.15 -1.04,1.02 -1.16,0.90 -1.26,0.74 -1.35,0.59 -1.40,0.42 -1.45,0.25 -1.46,0.07 -1.47,-0.10 -1.43,-0.27 -1.40,-0.45 -1.33,-0.61 -1.25,-0.77 -1.14,-0.91 -1.03,-1.05 -0.89,-1.16 -0.75,-1.26 -0.59,-1.34 -0.42,-1.41 -0.25,-1.44 -0.07,-1.47 0.09,-1.46 0.27,-1.45 0.44,-1.39 0.61,-1.34 0.61,-1.34 L 0.61,-1.34 Z"></path></g></svg>