<svg version="1.1" xmlns="http://www.w3.org/2000/svg" viewBox="0 0 143.01262670158394 219.11934538417245" width="286.0252534031679" height="438.2386907683449"><!-- svg-source:excalidraw --><metadata></metadata><defs><style class="style-fonts">
      </style></defs><rect x="0" y="0" width="143.01262670158394" height="219.11934538417245" fill="#ffffff"></rect><g transform="translate(10.876241496784132 10.198147372744643) rotate(0 3.7848199702102647 -0.04403667959104496)" stroke="none"><path fill="#1e1e1e" d="M 0.04,-1.35 Q 0.04,-1.35 1.11,-1.52 2.19,-1.68 5.24,-1.59 8.30,-1.50 8.51,-1.48 8.72,-1.46 8.92,-1.38 9.11,-1.29 9.27,-1.15 9.43,-1.00 9.53,-0.82 9.63,-0.63 9.67,-0.42 9.71,-0.21 9.67,-0.00 9.64,0.20 9.55,0.39 9.45,0.58 9.30,0.72 9.15,0.87 8.95,0.96 8.76,1.06 8.55,1.08 8.34,1.11 8.13,1.07 7.92,1.02 7.74,0.92 7.56,0.81 7.42,0.65 7.28,0.49 7.20,0.29 7.11,0.10 7.10,-0.10 7.08,-0.32 7.14,-0.52 7.19,-0.73 7.31,-0.90 7.43,-1.08 7.59,-1.21 7.76,-1.34 7.96,-1.41 8.16,-1.49 8.37,-1.49 8.58,-1.49 8.79,-1.43 8.99,-1.36 9.16,-1.24 9.33,-1.11 9.45,-0.94 9.58,-0.76 9.64,-0.56 9.70,-0.35 9.69,-0.14 9.68,0.06 9.60,0.26 9.53,0.46 9.39,0.62 9.26,0.78 9.08,0.90 8.90,1.01 8.69,1.06 8.48,1.11 8.48,1.11 8.48,1.11 5.28,1.46 2.08,1.81 1.02,1.58 -0.04,1.35 -0.20,1.33 -0.36,1.30 -0.51,1.24 -0.66,1.18 -0.79,1.08 -0.93,0.98 -1.03,0.86 -1.13,0.73 -1.21,0.59 -1.28,0.44 -1.31,0.28 -1.35,0.12 -1.34,-0.03 -1.34,-0.20 -1.29,-0.36 -1.25,-0.51 -1.17,-0.66 -1.09,-0.80 -0.98,-0.92 -0.87,-1.04 -0.73,-1.13 -0.59,-1.22 -0.44,-1.27 -0.28,-1.32 -0.12,-1.34 0.04,-1.35 0.04,-1.35 L 0.04,-1.35 Z"></path></g><g transform="translate(10.073040757713898 11.276922224819828) rotate(0 0.5841315221678087 38.25239982741823)" stroke="none"><path fill="#1e1e1e" d="M 1.34,0 Q 1.34,0 1.45,0.98 1.56,1.96 1.56,3.18 1.56,4.40 1.80,5.87 2.05,7.35 2.14,8.44 2.23,9.54 2.23,10.61 2.23,11.69 2.24,12.78 2.25,13.86 2.25,15.08 2.26,16.29 2.26,17.49 2.26,18.70 2.26,19.88 2.26,21.06 2.44,22.35 2.61,23.64 2.51,24.83 2.41,26.03 2.44,27.12 2.47,28.22 2.49,29.29 2.52,30.36 2.28,31.76 2.04,33.17 2.09,34.31 2.15,35.45 2.16,36.59 2.16,37.72 2.17,38.80 2.18,39.88 2.17,41.15 2.16,42.42 1.95,43.66 1.74,44.89 1.76,46.08 1.79,47.28 1.79,48.45 1.79,49.63 1.86,50.72 1.93,51.81 2.17,53.02 2.42,54.22 2.43,55.33 2.44,56.45 2.44,57.60 2.44,58.76 2.44,59.87 2.45,60.98 2.45,62.09 2.45,63.19 2.62,64.36 2.79,65.53 2.79,66.67 2.79,67.82 2.79,68.90 2.79,69.98 2.79,71.14 2.79,72.30 2.67,74.40 2.55,76.50 2.52,76.71 2.48,76.92 2.38,77.11 2.28,77.29 2.13,77.44 1.97,77.59 1.78,77.68 1.59,77.77 1.38,77.79 1.17,77.81 0.96,77.77 0.75,77.72 0.57,77.61 0.39,77.50 0.25,77.34 0.11,77.18 0.03,76.98 -0.04,76.78 -0.05,76.57 -0.06,76.36 -0.00,76.15 0.04,75.95 0.16,75.77 0.28,75.60 0.45,75.47 0.62,75.34 0.82,75.27 1.02,75.20 1.24,75.20 1.45,75.20 1.65,75.27 1.85,75.34 2.02,75.47 2.19,75.60 2.31,75.77 2.43,75.95 2.49,76.15 2.54,76.36 2.53,76.57 2.52,76.78 2.44,76.98 2.36,77.18 2.22,77.34 2.09,77.50 1.90,77.61 1.72,77.72 1.51,77.77 1.31,77.81 1.10,77.79 0.88,77.77 0.69,77.68 0.50,77.59 0.34,77.44 0.19,77.29 0.09,77.11 -0.00,76.92 -0.03,76.71 -0.07,76.50 -0.07,76.50 -0.07,76.50 -0.53,74.16 -0.99,71.82 -0.99,70.64 -0.99,69.47 -1.00,68.35 -1.00,67.23 -0.95,66.14 -0.91,65.05 -1.12,63.48 -1.34,61.91 -1.33,60.77 -1.32,59.63 -1.32,58.53 -1.33,57.42 -1.32,56.29 -1.30,55.16 -1.41,54.03 -1.52,52.91 -1.72,51.43 -1.92,49.95 -1.93,48.83 -1.93,47.70 -1.93,46.45 -1.92,45.19 -1.73,44.00 -1.53,42.80 -1.53,41.61 -1.53,40.42 -1.52,39.32 -1.52,38.22 -1.52,37.07 -1.52,35.91 -1.49,34.78 -1.47,33.65 -1.25,32.52 -1.02,31.39 -1.00,30.32 -0.98,29.26 -0.96,27.96 -0.94,26.67 -0.71,25.57 -0.47,24.46 -0.71,22.98 -0.95,21.49 -0.95,20.33 -0.95,19.17 -0.95,17.96 -0.95,16.76 -0.94,15.55 -0.93,14.34 -0.92,13.25 -0.92,12.16 -0.93,10.89 -0.94,9.63 -1.02,8.44 -1.09,7.26 -1.33,5.83 -1.56,4.40 -1.56,3.18 -1.56,1.96 -1.45,0.98 -1.34,0 -1.32,-0.16 -1.30,-0.32 -1.24,-0.47 -1.18,-0.62 -1.09,-0.75 -1.00,-0.89 -0.88,-0.99 -0.76,-1.10 -0.61,-1.18 -0.47,-1.25 -0.31,-1.29 -0.16,-1.33 0.00,-1.33 0.16,-1.33 0.31,-1.29 0.47,-1.25 0.61,-1.18 0.76,-1.10 0.88,-0.99 1.00,-0.89 1.09,-0.75 1.18,-0.62 1.24,-0.47 1.30,-0.32 1.32,-0.16 1.34,0.00 1.34,0.00 L 1.34,0 Z"></path></g><g transform="translate(11.192668914951355 86.61487366839992) rotate(0 3.590085882268795 21.971747573455104)" stroke="none"><path fill="#1e1e1e" d="M 1.34,0 Q 1.34,0 1.44,0.89 1.54,1.79 1.55,2.99 1.56,4.19 1.57,5.34 1.57,6.49 1.51,7.69 1.45,8.89 1.35,9.99 1.26,11.08 1.26,12.17 1.27,13.25 1.28,14.39 1.29,15.52 1.29,16.77 1.29,18.02 1.29,19.26 1.29,20.50 1.29,21.76 1.30,23.02 1.31,24.26 1.31,25.50 1.35,26.70 1.38,27.89 1.38,28.99 1.38,30.10 1.38,31.32 1.38,32.54 1.41,33.73 1.43,34.92 1.67,36.04 1.91,37.17 1.94,38.37 1.97,39.57 1.96,40.70 1.96,41.83 3.21,41.99 4.46,42.15 6.05,42.39 7.64,42.63 7.85,42.66 8.06,42.69 8.24,42.79 8.43,42.89 8.58,43.05 8.72,43.20 8.81,43.39 8.90,43.59 8.93,43.80 8.95,44.01 8.90,44.22 8.86,44.42 8.75,44.61 8.64,44.79 8.48,44.93 8.31,45.06 8.12,45.14 7.92,45.22 7.71,45.23 7.50,45.24 7.29,45.19 7.09,45.13 6.91,45.01 6.73,44.89 6.61,44.72 6.48,44.55 6.41,44.35 6.34,44.15 6.34,43.94 6.34,43.73 6.41,43.52 6.48,43.32 6.61,43.15 6.73,42.98 6.91,42.87 7.09,42.75 7.29,42.69 7.50,42.63 7.71,42.64 7.92,42.66 8.12,42.73 8.31,42.81 8.48,42.95 8.64,43.09 8.75,43.27 8.86,43.45 8.90,43.66 8.95,43.87 8.93,44.08 8.90,44.29 8.81,44.48 8.72,44.68 8.58,44.83 8.43,44.98 8.24,45.08 8.06,45.18 7.85,45.22 7.64,45.25 7.64,45.25 7.64,45.25 5.96,45.47 4.27,45.68 2.95,45.61 1.63,45.54 0.57,45.39 -0.48,45.23 -1.19,43.53 -1.91,41.83 -1.91,40.70 -1.92,39.57 -1.90,38.41 -1.87,37.26 -2.11,36.09 -2.35,34.92 -2.33,33.73 -2.31,32.54 -2.31,31.32 -2.31,30.10 -2.31,28.99 -2.31,27.89 -2.27,26.70 -2.24,25.50 -2.23,24.26 -2.22,23.02 -2.22,21.76 -2.21,20.50 -2.21,19.26 -2.21,18.02 -2.21,16.77 -2.21,15.52 -2.20,14.39 -2.20,13.25 -2.19,12.17 -2.18,11.08 -2.13,10.02 -2.08,8.95 -1.83,7.72 -1.57,6.49 -1.57,5.34 -1.56,4.19 -1.55,2.99 -1.54,1.79 -1.44,0.89 -1.34,0 -1.32,-0.16 -1.30,-0.32 -1.24,-0.47 -1.18,-0.62 -1.09,-0.75 -1.00,-0.89 -0.88,-0.99 -0.76,-1.10 -0.61,-1.18 -0.47,-1.25 -0.31,-1.29 -0.16,-1.33 0.00,-1.33 0.16,-1.33 0.31,-1.29 0.47,-1.25 0.61,-1.18 0.76,-1.10 0.88,-0.99 1.00,-0.89 1.09,-0.75 1.18,-0.62 1.24,-0.47 1.30,-0.32 1.32,-0.16 1.34,0.00 1.34,0.00 L 1.34,0 Z"></path></g><g transform="translate(122.88733839935048 10.726516786177854) rotate(0 3.4927276810058174 -0.1981385300373404)" stroke="none"><path fill="#1e1e1e" d="M 0,-1.32 Q 0,-1.32 0.88,-1.35 1.76,-1.38 4.34,-1.54 6.91,-1.70 7.13,-1.68 7.34,-1.66 7.53,-1.57 7.72,-1.48 7.88,-1.33 8.03,-1.18 8.13,-0.99 8.23,-0.81 8.26,-0.60 8.29,-0.39 8.26,-0.18 8.22,0.02 8.12,0.21 8.02,0.40 7.87,0.54 7.71,0.69 7.52,0.78 7.33,0.87 7.12,0.89 6.90,0.91 6.70,0.86 6.49,0.82 6.31,0.71 6.13,0.60 5.99,0.43 5.85,0.27 5.77,0.07 5.70,-0.11 5.69,-0.33 5.68,-0.54 5.73,-0.74 5.79,-0.95 5.91,-1.12 6.03,-1.30 6.20,-1.43 6.37,-1.55 6.57,-1.62 6.77,-1.69 6.99,-1.69 7.20,-1.69 7.40,-1.62 7.60,-1.55 7.77,-1.42 7.94,-1.29 8.06,-1.11 8.17,-0.94 8.23,-0.73 8.29,-0.53 8.27,-0.32 8.26,-0.10 8.18,0.08 8.10,0.28 7.96,0.44 7.83,0.60 7.64,0.71 7.46,0.82 7.25,0.87 7.05,0.91 7.05,0.91 7.05,0.91 4.40,1.15 1.76,1.38 0.88,1.35 0,1.32 -0.15,1.30 -0.31,1.28 -0.46,1.22 -0.61,1.17 -0.74,1.08 -0.87,0.98 -0.98,0.87 -1.08,0.75 -1.16,0.61 -1.23,0.46 -1.27,0.31 -1.31,0.15 -1.31,-0.00 -1.31,-0.15 -1.27,-0.31 -1.23,-0.46 -1.16,-0.61 -1.08,-0.75 -0.98,-0.87 -0.87,-0.99 -0.74,-1.08 -0.61,-1.17 -0.46,-1.22 -0.31,-1.28 -0.15,-1.30 0.00,-1.32 0.00,-1.32 L 0,-1.32 Z"></path></g><g transform="translate(129.31301505357078 11.497070251945843) rotate(0 0.2190515314887307 20.650797511751534)" stroke="none"><path fill="#1e1e1e" d="M 1.32,0 Q 1.32,0 1.36,0.62 1.40,1.24 1.41,2.34 1.43,3.44 1.51,4.66 1.59,5.89 1.61,7.09 1.64,8.28 1.81,9.51 1.98,10.74 1.99,11.94 1.99,13.13 2.00,14.26 2.01,15.38 2.02,16.56 2.04,17.73 2.05,18.86 2.07,20.00 2.07,21.06 2.08,22.13 2.07,23.41 2.07,24.69 2.07,25.95 2.07,27.20 2.07,28.44 2.08,29.68 2.08,30.86 2.08,32.04 1.85,33.23 1.63,34.42 1.87,35.51 2.11,36.59 2.05,38.94 1.99,41.29 1.96,41.50 1.92,41.71 1.82,41.90 1.72,42.09 1.57,42.24 1.42,42.38 1.22,42.47 1.03,42.56 0.82,42.58 0.61,42.61 0.40,42.56 0.19,42.52 0.01,42.41 -0.16,42.30 -0.30,42.14 -0.44,41.98 -0.52,41.78 -0.60,41.58 -0.61,41.37 -0.62,41.16 -0.56,40.95 -0.51,40.75 -0.39,40.57 -0.27,40.40 -0.10,40.27 0.06,40.14 0.26,40.07 0.46,40.00 0.67,40.00 0.89,40.00 1.09,40.07 1.29,40.14 1.46,40.26 1.63,40.39 1.75,40.57 1.87,40.74 1.92,40.95 1.98,41.15 1.97,41.36 1.96,41.58 1.88,41.77 1.80,41.97 1.67,42.13 1.53,42.30 1.35,42.41 1.16,42.52 0.96,42.56 0.75,42.61 0.54,42.59 0.33,42.56 0.13,42.47 -0.05,42.38 -0.20,42.24 -0.36,42.09 -0.46,41.91 -0.56,41.72 -0.59,41.51 -0.63,41.30 -0.63,41.30 -0.63,41.30 -0.95,39.30 -1.27,37.30 -1.52,35.71 -1.77,34.12 -1.53,33.08 -1.30,32.04 -1.30,30.86 -1.30,29.68 -1.29,28.44 -1.29,27.20 -1.29,25.95 -1.29,24.69 -1.29,23.41 -1.30,22.13 -1.29,20.86 -1.27,19.60 -1.26,18.42 -1.24,17.25 -1.24,16.10 -1.23,14.96 -1.22,13.85 -1.21,12.74 -1.22,11.58 -1.22,10.42 -1.33,9.35 -1.45,8.29 -1.36,7.07 -1.27,5.86 -1.35,4.65 -1.43,3.44 -1.41,2.34 -1.40,1.24 -1.36,0.62 -1.32,0 -1.30,-0.15 -1.28,-0.31 -1.23,-0.46 -1.17,-0.61 -1.08,-0.74 -0.99,-0.88 -0.87,-0.98 -0.75,-1.09 -0.61,-1.16 -0.47,-1.24 -0.31,-1.28 -0.16,-1.31 0.00,-1.31 0.16,-1.31 0.31,-1.28 0.47,-1.24 0.61,-1.16 0.75,-1.09 0.87,-0.98 0.99,-0.88 1.08,-0.74 1.17,-0.61 1.23,-0.46 1.28,-0.31 1.30,-0.15 1.32,0.00 1.32,0.00 L 1.32,0 Z"></path></g><g transform="translate(130.18922117952752 52.24825983680694) rotate(0 0.5233113851754752 39.738460909466085)" stroke="none"><path fill="#1e1e1e" d="M 1.24,0.46 Q 1.24,0.46 1.17,0.86 1.10,1.26 1.34,2.37 1.59,3.48 1.60,4.72 1.62,5.97 1.63,7.12 1.65,8.27 1.71,9.37 1.78,10.46 1.79,11.61 1.81,12.76 1.82,13.84 1.83,14.93 1.87,16.11 1.91,17.29 1.91,18.50 1.91,19.70 1.91,20.88 1.92,22.06 1.91,23.32 1.91,24.58 1.91,25.70 1.92,26.83 1.93,27.93 1.93,29.03 1.93,30.12 1.93,31.22 1.94,32.32 1.95,33.42 1.95,34.54 1.95,35.66 1.93,36.87 1.92,38.07 2.23,39.23 2.54,40.38 2.89,41.52 3.24,42.65 3.27,43.82 3.30,45.00 3.28,46.10 3.26,47.20 3.15,48.27 3.03,49.33 3.03,50.53 3.03,51.73 3.03,52.89 3.03,54.06 3.16,55.17 3.28,56.28 3.35,57.49 3.42,58.70 3.43,59.85 3.44,61.00 3.44,62.09 3.44,63.19 3.42,64.34 3.39,65.49 3.39,66.69 3.40,67.89 3.22,68.98 3.04,70.08 3.03,71.18 3.03,72.29 3.03,73.50 3.03,74.72 2.74,77.09 2.45,79.47 2.42,79.68 2.38,79.89 2.28,80.08 2.18,80.27 2.03,80.41 1.88,80.56 1.68,80.65 1.49,80.74 1.28,80.76 1.07,80.78 0.86,80.74 0.65,80.69 0.47,80.58 0.29,80.47 0.15,80.31 0.01,80.15 -0.06,79.95 -0.13,79.75 -0.15,79.54 -0.16,79.33 -0.10,79.13 -0.04,78.92 0.07,78.74 0.19,78.57 0.35,78.44 0.52,78.31 0.73,78.24 0.93,78.18 1.14,78.18 1.35,78.18 1.55,78.24 1.75,78.31 1.92,78.44 2.09,78.57 2.21,78.74 2.33,78.92 2.39,79.13 2.44,79.33 2.43,79.54 2.42,79.75 2.34,79.95 2.26,80.15 2.13,80.31 1.99,80.47 1.81,80.58 1.62,80.69 1.42,80.74 1.21,80.78 1.00,80.76 0.79,80.74 0.59,80.65 0.40,80.56 0.25,80.41 0.09,80.27 -0.00,80.08 -0.10,79.89 -0.13,79.68 -0.16,79.47 -0.16,79.47 -0.16,79.47 -0.45,77.59 -0.75,75.70 -0.75,74.56 -0.75,73.43 -0.74,72.30 -0.73,71.18 -0.71,70.06 -0.69,68.95 -0.51,67.70 -0.33,66.45 -0.35,65.30 -0.37,64.15 -0.37,62.97 -0.37,61.80 -0.37,60.73 -0.37,59.67 -0.28,58.60 -0.18,57.53 -0.47,56.45 -0.76,55.37 -0.75,54.18 -0.75,52.99 -0.74,51.87 -0.73,50.75 -0.73,49.53 -0.73,48.31 -0.59,47.22 -0.45,46.12 -0.45,44.96 -0.46,43.79 -0.74,42.71 -1.02,41.64 -1.18,40.57 -1.34,39.51 -1.56,38.44 -1.79,37.37 -1.80,36.15 -1.80,34.92 -1.80,33.86 -1.80,32.79 -1.80,31.69 -1.79,30.59 -1.79,29.45 -1.79,28.31 -1.78,27.11 -1.77,25.91 -1.77,24.82 -1.76,23.72 -1.76,22.45 -1.76,21.19 -1.76,20.05 -1.76,18.91 -1.75,17.75 -1.73,16.59 -1.70,15.49 -1.67,14.40 -1.67,13.22 -1.66,12.05 -1.60,10.86 -1.54,9.67 -1.52,8.46 -1.50,7.25 -1.49,6.03 -1.47,4.81 -1.55,3.66 -1.62,2.50 -1.64,1.36 -1.66,0.23 -1.45,-0.11 -1.24,-0.46 -1.16,-0.60 -1.09,-0.75 -0.99,-0.87 -0.88,-0.99 -0.75,-1.08 -0.62,-1.17 -0.47,-1.23 -0.32,-1.28 -0.16,-1.30 -0.00,-1.32 0.15,-1.30 0.31,-1.29 0.46,-1.23 0.61,-1.17 0.74,-1.08 0.87,-0.99 0.98,-0.87 1.09,-0.75 1.16,-0.61 1.24,-0.47 1.27,-0.32 1.31,-0.16 1.31,-0.00 1.31,0.15 1.28,0.31 1.24,0.46 1.24,0.46 L 1.24,0.46 Z"></path></g><g transform="translate(122.47357046533398 130.55836881531013) rotate(0 5.269528118124981 -0.40729507267951703)" stroke="none"><path fill="#1e1e1e" d="M 0,-1.35 Q 0,-1.35 0.91,-1.46 1.83,-1.57 3.28,-1.58 4.73,-1.59 5.94,-1.72 7.16,-1.85 8.84,-1.99 10.53,-2.12 10.74,-2.09 10.95,-2.06 11.13,-1.96 11.32,-1.86 11.47,-1.71 11.62,-1.55 11.71,-1.36 11.80,-1.17 11.82,-0.96 11.85,-0.75 11.80,-0.54 11.76,-0.33 11.65,-0.15 11.54,0.02 11.38,0.16 11.22,0.30 11.02,0.38 10.82,0.46 10.61,0.47 10.40,0.49 10.19,0.43 9.99,0.38 9.81,0.26 9.64,0.14 9.51,-0.02 9.38,-0.19 9.31,-0.39 9.24,-0.59 9.24,-0.80 9.24,-1.01 9.30,-1.22 9.37,-1.42 9.50,-1.59 9.63,-1.76 9.80,-1.88 9.98,-2.00 10.18,-2.06 10.38,-2.11 10.60,-2.10 10.81,-2.09 11.01,-2.02 11.20,-1.94 11.37,-1.80 11.53,-1.67 11.64,-1.48 11.75,-1.30 11.80,-1.10 11.85,-0.89 11.82,-0.68 11.80,-0.47 11.71,-0.27 11.63,-0.08 11.48,0.07 11.33,0.22 11.15,0.32 10.96,0.42 10.75,0.46 10.54,0.49 10.54,0.49 10.54,0.49 9.16,0.88 7.78,1.27 6.26,1.43 4.73,1.59 3.28,1.58 1.83,1.57 0.91,1.46 0,1.35 -0.16,1.33 -0.32,1.31 -0.47,1.26 -0.63,1.20 -0.76,1.10 -0.90,1.01 -1.00,0.89 -1.11,0.77 -1.19,0.62 -1.26,0.48 -1.30,0.32 -1.34,0.16 -1.34,-0.00 -1.34,-0.16 -1.30,-0.32 -1.26,-0.48 -1.19,-0.62 -1.11,-0.77 -1.00,-0.89 -0.90,-1.01 -0.76,-1.10 -0.63,-1.20 -0.47,-1.26 -0.32,-1.31 -0.16,-1.33 0.00,-1.35 0.00,-1.35 L 0,-1.35 Z"></path></g><g transform="translate(68.87764191667702 59.49144472961143) rotate(0 -0.2555719103474985 8.938402517494069)" stroke="none"><path fill="#1e1e1e" d="M 1.33,0.39 Q 1.33,0.39 1.22,1.46 1.12,2.54 0.58,4.52 0.04,6.49 -0.27,7.51 -0.60,8.52 -1.31,10.35 -2.01,12.19 -2.75,13.93 -3.48,15.66 -3.81,16.80 -4.14,17.93 -4.21,18.16 -4.27,18.38 -4.39,18.58 -4.50,18.79 -4.66,18.96 -4.83,19.12 -5.02,19.25 -5.22,19.38 -5.44,19.45 -5.66,19.52 -5.90,19.54 -6.13,19.56 -6.36,19.53 -6.59,19.49 -6.80,19.40 -7.02,19.31 -7.21,19.17 -7.39,19.03 -7.54,18.85 -7.69,18.67 -7.79,18.46 -7.89,18.25 -7.94,18.02 -7.98,17.79 -7.98,17.56 -7.97,17.32 -7.30,16.02 -6.64,14.71 -6.34,13.39 -6.03,12.08 -5.63,10.04 -5.22,8.01 -4.64,6.17 -4.07,4.32 -3.37,2.73 -2.66,1.14 -1.93,-0.06 -1.20,-1.27 -0.53,-2.15 0.14,-3.03 0.47,-3.33 0.79,-3.64 0.93,-3.73 1.07,-3.83 1.22,-3.89 1.37,-3.95 1.54,-3.97 1.70,-3.99 1.87,-3.97 2.03,-3.95 2.19,-3.89 2.34,-3.84 2.48,-3.74 2.62,-3.65 2.73,-3.53 2.84,-3.41 2.91,-3.26 2.99,-3.11 3.03,-2.95 3.08,-2.79 3.08,-2.63 3.08,-2.46 3.04,-2.30 3.00,-2.14 2.93,-1.99 2.85,-1.85 2.74,-1.72 2.63,-1.60 3.16,-0.43 3.69,0.72 4.03,2.12 4.38,3.52 4.84,5.04 5.30,6.57 5.91,8.08 6.52,9.59 7.14,10.99 7.75,12.38 8.26,13.90 8.77,15.41 9.03,16.61 9.30,17.80 8.74,19.08 8.18,20.36 6.79,20.27 5.39,20.19 4.58,19.32 3.77,18.44 2.98,17.63 2.19,16.82 1.02,15.69 -0.14,14.57 -1.55,13.44 -2.96,12.31 -4.45,11.49 -5.94,10.67 -7.09,10.12 -8.24,9.58 -9.44,9.27 -10.63,8.96 -11.69,8.36 -12.74,7.77 -12.70,7.78 -12.67,7.80 -12.86,7.70 -13.06,7.59 -13.23,7.44 -13.39,7.29 -13.52,7.11 -13.64,6.93 -13.72,6.72 -13.80,6.51 -13.82,6.29 -13.85,6.06 -13.82,5.84 -13.79,5.62 -13.71,5.41 -13.63,5.20 -13.50,5.02 -13.37,4.84 -13.21,4.69 -13.04,4.54 -12.84,4.44 -12.64,4.34 -12.42,4.29 -12.21,4.24 -11.98,4.24 -11.76,4.24 -11.54,4.29 -11.33,4.35 -10.13,4.25 -8.93,4.16 -7.13,4.16 -5.32,4.17 -4.08,4.16 -2.83,4.16 -1.49,4.15 -0.14,4.15 1.53,4.16 3.21,4.17 4.66,4.16 6.12,4.15 7.26,4.15 8.39,4.15 9.61,4.15 10.83,4.15 11.02,4.16 11.22,4.17 11.44,4.20 11.67,4.22 11.88,4.30 12.09,4.38 12.28,4.51 12.46,4.64 12.61,4.81 12.77,4.98 12.87,5.18 12.98,5.38 13.03,5.60 13.08,5.82 13.08,6.05 13.08,6.28 13.03,6.50 12.98,6.72 12.87,6.92 12.77,7.12 12.61,7.29 12.46,7.46 12.28,7.59 12.09,7.71 11.88,7.79 11.67,7.88 11.44,7.90 11.22,7.93 9.89,8.52 8.56,9.12 7.05,10.32 5.55,11.52 4.69,12.23 3.84,12.93 2.11,14.42 0.39,15.90 -0.52,16.64 -1.44,17.37 -2.34,18.01 -3.25,18.64 -4.22,19.29 -5.18,19.93 -6.43,20.47 -7.67,21.01 -7.82,21.08 -7.96,21.15 -8.12,21.18 -8.27,21.21 -8.43,21.20 -8.59,21.19 -8.74,21.15 -8.89,21.10 -9.03,21.02 -9.16,20.94 -9.28,20.83 -9.39,20.72 -9.48,20.59 -9.56,20.45 -9.61,20.30 -9.66,20.15 -9.67,19.99 -9.68,19.83 -9.65,19.68 -9.63,19.52 -9.56,19.38 -9.50,19.23 -9.40,19.11 -9.31,18.98 -9.18,18.88 -9.06,18.78 -8.80,18.69 -8.54,18.59 -8.32,18.60 -8.11,18.61 -7.91,18.68 -7.71,18.76 -7.55,18.89 -7.38,19.03 -7.27,19.21 -7.16,19.39 -7.11,19.59 -7.06,19.80 -7.08,20.01 -7.10,20.22 -7.18,20.42 -7.27,20.61 -7.41,20.77 -7.55,20.93 -7.74,21.03 -7.92,21.13 -8.13,21.17 -8.34,21.21 -8.55,21.18 -8.76,21.15 -8.95,21.05 -9.14,20.96 -9.29,20.81 -9.44,20.66 -9.53,20.46 -9.63,20.27 -9.65,20.06 -9.68,19.85 -9.64,19.64 -9.60,19.43 -9.49,19.25 -9.38,19.07 -9.23,18.93 -9.07,18.79 -8.87,18.70 -8.67,18.62 -8.46,18.60 -8.25,18.59 -8.05,18.64 -7.84,18.69 -7.66,18.81 -7.48,18.93 -7.35,19.09 -7.22,19.26 -7.15,19.46 -7.08,19.66 -7.07,19.87 -7.07,20.08 -7.13,20.29 -7.20,20.49 -7.32,20.66 -7.45,20.83 -7.62,20.96 -7.79,21.08 -7.73,21.05 -7.67,21.01 -7.82,21.08 -7.96,21.15 -8.12,21.18 -8.27,21.21 -8.43,21.20 -8.59,21.19 -8.74,21.15 -8.89,21.10 -9.03,21.02 -9.16,20.94 -9.28,20.83 -9.39,20.72 -9.48,20.59 -9.56,20.45 -9.61,20.30 -9.66,20.15 -9.67,19.99 -9.68,19.83 -9.65,19.68 -9.63,19.52 -9.56,19.38 -9.50,19.23 -9.40,19.11 -9.31,18.98 -9.18,18.88 -9.06,18.78 -8.24,17.54 -7.41,16.30 -5.69,15.23 -3.97,14.15 -3.12,13.49 -2.27,12.83 -1.30,12.00 -0.34,11.16 0.51,10.48 1.36,9.80 2.22,9.15 3.08,8.50 4.72,7.22 6.36,5.93 7.57,5.27 8.79,4.61 10.00,4.39 11.22,4.17 11.44,4.20 11.67,4.22 11.88,4.30 12.09,4.38 12.28,4.51 12.46,4.64 12.61,4.81 12.77,4.98 12.87,5.18 12.98,5.38 13.03,5.60 13.08,5.82 13.08,6.05 13.08,6.28 13.03,6.50 12.98,6.72 12.87,6.92 12.77,7.12 12.61,7.29 12.46,7.46 12.28,7.59 12.09,7.71 11.88,7.79 11.67,7.88 11.44,7.90 11.22,7.93 11.02,7.94 10.83,7.94 9.61,7.94 8.39,7.94 7.26,7.94 6.12,7.94 4.66,7.94 3.21,7.93 1.53,7.94 -0.14,7.94 -1.49,7.94 -2.83,7.94 -4.08,7.94 -5.32,7.93 -6.44,7.93 -7.56,7.93 -8.81,7.93 -10.05,7.93 -11.36,7.87 -12.67,7.80 -12.86,7.70 -13.06,7.59 -13.23,7.44 -13.39,7.30 -13.52,7.11 -13.64,6.93 -13.72,6.72 -13.80,6.51 -13.82,6.29 -13.85,6.06 -13.82,5.84 -13.79,5.62 -13.71,5.41 -13.63,5.20 -13.50,5.02 -13.37,4.84 -13.21,4.69 -13.04,4.55 -12.84,4.44 -12.64,4.34 -12.42,4.29 -12.21,4.24 -11.98,4.24 -11.76,4.24 -11.54,4.29 -11.33,4.35 -11.06,4.45 -10.79,4.55 -9.72,5.14 -8.65,5.72 -7.45,5.91 -6.26,6.10 -5.16,6.58 -4.07,7.06 -2.31,8.07 -0.54,9.07 0.36,9.76 1.28,10.45 2.57,11.61 3.86,12.78 4.91,13.83 5.96,14.87 6.87,15.87 7.78,16.87 6.50,16.62 5.22,16.37 4.86,15.07 4.50,13.78 3.88,12.36 3.26,10.95 2.62,9.25 1.97,7.55 1.55,5.96 1.14,4.38 0.82,2.94 0.51,1.51 0.40,0.00 0.30,-1.49 0.55,-2.56 0.79,-3.64 0.93,-3.73 1.06,-3.83 1.22,-3.89 1.37,-3.95 1.54,-3.97 1.70,-3.99 1.87,-3.97 2.03,-3.95 2.19,-3.89 2.34,-3.84 2.48,-3.74 2.62,-3.65 2.73,-3.53 2.84,-3.41 2.91,-3.26 2.99,-3.11 3.03,-2.95 3.08,-2.79 3.08,-2.63 3.08,-2.46 3.04,-2.30 3.00,-2.14 2.93,-1.99 2.85,-1.85 2.74,-1.72 2.63,-1.60 2.54,-1.53 2.45,-1.46 1.76,-0.63 1.07,0.19 0.39,1.28 -0.27,2.36 -0.91,3.76 -1.56,5.16 -2.04,6.86 -2.53,8.55 -2.80,10.52 -3.08,12.49 -3.27,14.08 -3.45,15.68 -3.80,16.81 -4.14,17.93 -4.21,18.16 -4.27,18.38 -4.39,18.58 -4.50,18.79 -4.66,18.96 -4.83,19.12 -5.02,19.25 -5.22,19.38 -5.44,19.45 -5.66,19.52 -5.89,19.54 -6.13,19.56 -6.36,19.53 -6.59,19.49 -6.80,19.40 -7.02,19.31 -7.21,19.17 -7.39,19.03 -7.54,18.85 -7.69,18.67 -7.79,18.46 -7.89,18.25 -7.94,18.02 -7.98,17.79 -7.98,17.56 -7.97,17.32 -7.79,16.41 -7.62,15.50 -7.06,14.00 -6.51,12.50 -5.75,10.76 -4.99,9.03 -4.32,7.18 -3.64,5.34 -2.98,3.43 -2.32,1.52 -1.82,0.56 -1.33,-0.39 -1.26,-0.54 -1.19,-0.70 -1.09,-0.83 -0.99,-0.96 -0.86,-1.07 -0.73,-1.17 -0.58,-1.24 -0.43,-1.31 -0.26,-1.35 -0.10,-1.38 0.06,-1.37 0.22,-1.36 0.39,-1.32 0.55,-1.27 0.69,-1.18 0.83,-1.10 0.95,-0.98 1.07,-0.87 1.16,-0.73 1.25,-0.58 1.30,-0.42 1.36,-0.27 1.37,-0.10 1.38,0.06 1.35,0.22 1.33,0.39 1.33,0.39 L 1.33,0.39 Z"></path></g><g transform="translate(70.58141928149416 23.583723966483376) rotate(0 -1.058790334830519 5.536975783631078)" stroke="none"><path d="M0 0 C-0.22 -0.17, -0.73 -0.93, -1.29 -1.03 C-1.85 -1.14, -2.6 -1.68, -3.38 -0.62 C-4.16 0.45, -5.46 3.5, -5.96 5.35 C-6.46 7.2, -6.6 9.12, -6.38 10.5 C-6.16 11.88, -5.18 13.05, -4.65 13.65 C-4.11 14.25, -4.1 14.12, -3.16 14.11 C-2.23 14.1, -0.27 14.3, 0.95 13.61 C2.17 12.92, 3.59 11.36, 4.14 9.97 C4.69 8.59, 5.16 7.49, 4.26 5.31 C3.36 3.12, -0.56 -2.24, -1.27 -3.13 C-1.98 -4.01, -0.21 -0.52, 0 0" stroke="none" stroke-width="0" fill="#ffffff" fill-rule="evenodd"></path><path fill="#1e1e1e" d="M -0.61,1.27 Q -0.61,1.27 -1.29,1.11 -1.97,0.95 -2.64,2.11 -3.30,3.26 -3.67,4.75 -4.04,6.23 -4.14,7.75 -4.24,9.27 -3.74,10.60 -3.24,11.92 -1.85,11.91 -0.45,11.90 0.45,11.25 1.36,10.60 1.64,8.75 1.93,6.89 1.27,5.00 0.61,3.12 0.13,2.05 -0.34,0.97 -0.69,0.89 -1.03,0.80 -1.11,0.67 -1.19,0.53 -1.24,0.38 -1.29,0.23 -1.30,0.07 -1.31,-0.07 -1.28,-0.23 -1.25,-0.39 -1.18,-0.53 -1.12,-0.67 -1.02,-0.80 -0.92,-0.92 -0.80,-1.02 -0.67,-1.12 -0.53,-1.18 -0.39,-1.25 -0.23,-1.28 -0.07,-1.31 0.07,-1.30 0.23,-1.29 0.38,-1.24 0.53,-1.19 0.67,-1.11 0.81,-1.03 0.92,-0.92 1.03,-0.80 1.17,-0.36 1.31,0.07 1.26,0.28 1.21,0.48 1.10,0.67 0.99,0.85 0.83,0.99 0.67,1.12 0.47,1.20 0.27,1.28 0.06,1.29 -0.14,1.30 -0.35,1.24 -0.55,1.19 -0.73,1.07 -0.90,0.95 -1.03,0.78 -1.16,0.61 -1.22,0.41 -1.29,0.20 -1.29,-0.00 -1.29,-0.21 -1.22,-0.41 -1.15,-0.61 -1.02,-0.78 -0.90,-0.95 -0.72,-1.07 -0.54,-1.19 -0.34,-1.24 -0.13,-1.30 0.07,-1.29 0.28,-1.28 0.48,-1.20 0.68,-1.12 0.84,-0.98 1.00,-0.84 1.11,-0.66 1.22,-0.48 1.26,-0.27 1.31,-0.06 1.28,0.14 1.26,0.35 1.17,0.54 1.08,0.74 0.93,0.89 0.79,1.04 0.60,1.14 0.41,1.24 0.20,1.27 -0.00,1.31 -0.21,1.27 -0.42,1.24 -0.61,1.14 -0.79,1.04 -0.94,0.88 -1.08,0.73 -1.17,0.54 -1.26,0.34 -1.15,0.57 -1.03,0.81 -1.11,0.67 -1.19,0.53 -1.24,0.38 -1.29,0.23 -1.30,0.07 -1.31,-0.07 -1.28,-0.23 -1.25,-0.39 -1.18,-0.53 -1.12,-0.67 -1.02,-0.80 -0.92,-0.92 -0.80,-1.02 -0.67,-1.12 -0.53,-1.18 -0.39,-1.25 -0.23,-1.28 -0.07,-1.31 0.07,-1.30 0.23,-1.29 0.38,-1.24 0.53,-1.19 0.67,-1.11 0.80,-1.03 0.92,-0.92 1.03,-0.80 1.17,-1.71 1.31,-2.62 2.23,-1.79 3.15,-0.97 3.97,0.31 4.79,1.60 5.25,2.86 5.70,4.13 6.00,5.65 6.30,7.18 6.12,8.57 5.94,9.97 4.89,11.79 3.84,13.60 2.99,14.27 2.14,14.93 0.28,15.50 -1.57,16.07 -3.30,15.70 -5.03,15.32 -6.19,14.02 -7.34,12.72 -7.85,10.90 -8.35,9.08 -8.12,7.19 -7.88,5.30 -7.32,3.51 -6.76,1.73 -6.08,0.50 -5.39,-0.71 -4.31,-1.54 -3.22,-2.37 -1.85,-2.26 -0.48,-2.14 0.06,-1.71 0.61,-1.27 0.76,-1.18 0.90,-1.09 1.02,-0.96 1.13,-0.84 1.22,-0.69 1.30,-0.54 1.35,-0.38 1.40,-0.21 1.40,-0.04 1.41,0.12 1.37,0.29 1.34,0.45 1.26,0.61 1.19,0.76 1.08,0.89 0.97,1.02 0.83,1.13 0.70,1.23 0.54,1.29 0.38,1.36 0.21,1.39 0.04,1.41 -0.12,1.40 -0.29,1.38 -0.45,1.33 -0.61,1.27 -0.61,1.27 L -0.61,1.27 Z"></path></g><g transform="translate(64.59384569025315 107.79405827899882) rotate(0 6.48653216204093 2.025439665378144)" stroke="none"><path d="M0 0 C-0.02 0.83, -0.51 3.36, -0.1 4.98 C0.32 6.59, 1.22 8.66, 2.48 9.71 C3.74 10.76, 5.84 11.37, 7.47 11.29 C9.1 11.22, 11.43 10.99, 12.27 9.27 C13.11 7.55, 13.08 3.6, 12.51 0.99 C11.94 -1.62, 9.89 -5.03, 8.84 -6.41 C7.78 -7.78, 6.89 -7.22, 6.21 -7.24 C5.52 -7.26, 5.76 -7.72, 4.72 -6.52 C3.69 -5.31, 0.79 -1.09, 0 0" stroke="none" stroke-width="0" fill="#ffffff" fill-rule="evenodd"></path><path fill="#1e1e1e" d="M 1.47,-0.09 Q 1.47,-0.09 1.66,1.94 1.85,3.98 2.20,5.08 2.55,6.17 3.44,7.43 4.34,8.70 5.47,9.11 6.60,9.52 8.14,9.29 9.68,9.07 10.38,7.93 11.07,6.79 10.91,4.97 10.76,3.15 10.36,2.00 9.97,0.85 9.49,-0.35 9.02,-1.57 8.42,-2.55 7.82,-3.54 6.81,-3.93 5.80,-4.32 3.38,-1.72 0.97,0.87 0.81,1.00 0.64,1.14 0.44,1.21 0.25,1.28 0.03,1.29 -0.17,1.30 -0.37,1.23 -0.58,1.17 -0.75,1.05 -0.92,0.93 -1.05,0.75 -1.17,0.58 -1.23,0.38 -1.30,0.18 -1.29,-0.03 -1.29,-0.24 -1.21,-0.44 -1.14,-0.64 -1.01,-0.80 -0.87,-0.97 -0.70,-1.09 -0.52,-1.20 -0.31,-1.25 -0.10,-1.30 0.10,-1.29 0.31,-1.27 0.50,-1.19 0.70,-1.10 0.86,-0.96 1.02,-0.82 1.12,-0.64 1.23,-0.45 1.27,-0.24 1.31,-0.03 1.28,0.17 1.25,0.38 1.16,0.57 1.06,0.76 0.91,0.91 0.76,1.06 0.57,1.15 0.38,1.25 0.17,1.28 -0.03,1.31 -0.24,1.27 -0.45,1.23 -0.63,1.12 -0.82,1.02 -0.96,0.86 -1.10,0.70 -1.18,0.51 -1.27,0.31 -1.29,0.10 -1.30,-0.10 -1.25,-0.30 -1.20,-0.51 -1.09,-0.69 -0.97,-0.87 -0.97,-0.87 -0.97,-0.87 1.24,-3.84 3.46,-6.81 4.38,-7.69 5.31,-8.58 6.65,-8.68 8.00,-8.78 9.04,-8.21 10.08,-7.64 10.92,-6.69 11.77,-5.73 12.47,-4.33 13.17,-2.93 13.53,-1.59 13.88,-0.25 14.25,1.27 14.61,2.79 14.50,5.35 14.39,7.91 13.24,9.55 12.10,11.18 10.25,11.77 8.40,12.36 6.15,12.20 3.91,12.04 2.98,11.49 2.04,10.94 1.23,10.02 0.41,9.11 -0.05,8.09 -0.53,7.08 -0.92,5.64 -1.32,4.21 -1.39,2.15 -1.47,0.09 -1.46,-0.08 -1.45,-0.25 -1.40,-0.43 -1.34,-0.60 -1.25,-0.75 -1.16,-0.90 -1.04,-1.03 -0.91,-1.15 -0.76,-1.25 -0.61,-1.34 -0.44,-1.39 -0.27,-1.45 -0.09,-1.46 0.08,-1.47 0.25,-1.44 0.43,-1.41 0.59,-1.33 0.75,-1.26 0.89,-1.15 1.03,-1.04 1.14,-0.90 1.26,-0.76 1.33,-0.60 1.40,-0.44 1.44,-0.27 1.47,-0.09 1.47,-0.09 L 1.47,-0.09 Z"></path></g><g transform="translate(25.869475233022968 64.59911594347523) rotate(0 5.585955536292204 5.448902424449898)" stroke="none"><path fill="#1e1e1e" d="M 1.07,-1.07 Q 1.07,-1.07 2.50,-0.07 3.92,0.93 4.92,1.85 5.91,2.77 6.80,3.52 7.69,4.26 8.62,5.08 9.55,5.90 10.87,7.98 12.19,10.07 12.29,10.25 12.40,10.44 12.44,10.65 12.48,10.85 12.45,11.06 12.42,11.28 12.33,11.47 12.24,11.66 12.09,11.81 11.94,11.96 11.75,12.05 11.56,12.15 11.35,12.18 11.13,12.21 10.93,12.17 10.72,12.13 10.53,12.02 10.35,11.92 10.20,11.76 10.06,11.60 9.98,11.41 9.89,11.21 9.88,11.00 9.86,10.79 9.91,10.58 9.96,10.38 10.07,10.20 10.19,10.02 10.35,9.88 10.52,9.75 10.72,9.68 10.92,9.60 11.13,9.60 11.34,9.59 11.54,9.65 11.75,9.71 11.92,9.84 12.09,9.96 12.22,10.13 12.34,10.31 12.40,10.51 12.47,10.71 12.46,10.92 12.46,11.14 12.38,11.34 12.31,11.54 12.18,11.70 12.05,11.87 11.87,11.98 11.69,12.10 11.48,12.15 11.28,12.20 11.06,12.18 10.85,12.17 10.66,12.08 10.46,12.00 10.30,11.86 10.15,11.72 10.15,11.72 10.15,11.72 8.46,10.41 6.78,9.09 5.85,8.30 4.92,7.50 3.98,6.69 3.03,5.87 1.98,4.90 0.94,3.92 -0.06,2.50 -1.07,1.07 -1.18,0.93 -1.30,0.78 -1.37,0.62 -1.45,0.45 -1.48,0.27 -1.51,0.09 -1.50,-0.08 -1.49,-0.27 -1.44,-0.44 -1.38,-0.62 -1.29,-0.77 -1.19,-0.93 -1.06,-1.06 -0.93,-1.19 -0.78,-1.29 -0.62,-1.38 -0.45,-1.44 -0.27,-1.49 -0.09,-1.50 0.09,-1.51 0.27,-1.48 0.45,-1.45 0.61,-1.37 0.78,-1.30 0.92,-1.18 1.07,-1.07 1.07,-1.07 L 1.07,-1.07 Z"></path></g><g transform="translate(34.68041897549301 62.74978762563205) rotate(0 -3.517080495382288 6.714806636664434)" stroke="none"><path fill="#1e1e1e" d="M 1.43,0.82 Q 1.43,0.82 0.96,2.20 0.50,3.59 -0.14,4.84 -0.78,6.09 -1.62,7.59 -2.45,9.09 -3.30,10.21 -4.16,11.33 -5.01,12.68 -5.86,14.03 -5.99,14.20 -6.12,14.37 -6.29,14.49 -6.47,14.61 -6.67,14.67 -6.88,14.73 -7.09,14.72 -7.30,14.71 -7.50,14.63 -7.70,14.55 -7.86,14.42 -8.02,14.28 -8.14,14.10 -8.25,13.92 -8.29,13.71 -8.34,13.50 -8.32,13.29 -8.30,13.08 -8.21,12.89 -8.12,12.69 -7.98,12.54 -7.83,12.38 -7.64,12.28 -7.46,12.18 -7.25,12.15 -7.04,12.11 -6.83,12.14 -6.62,12.18 -6.43,12.28 -6.24,12.37 -6.09,12.53 -5.95,12.68 -5.86,12.87 -5.77,13.07 -5.74,13.28 -5.72,13.49 -5.76,13.70 -5.81,13.90 -5.91,14.09 -6.02,14.27 -6.18,14.41 -6.34,14.55 -6.54,14.63 -6.74,14.71 -6.95,14.72 -7.16,14.73 -7.37,14.68 -7.57,14.62 -7.75,14.50 -7.93,14.38 -8.06,14.22 -8.19,14.05 -8.25,13.85 -8.32,13.65 -8.33,13.43 -8.33,13.22 -8.26,13.02 -8.19,12.82 -8.19,12.82 -8.19,12.82 -7.61,11.35 -7.03,9.88 -6.63,8.52 -6.22,7.17 -5.49,5.58 -4.76,3.99 -4.06,2.69 -3.35,1.38 -2.39,0.28 -1.43,-0.82 -1.31,-0.98 -1.19,-1.13 -1.04,-1.26 -0.88,-1.39 -0.70,-1.47 -0.52,-1.56 -0.33,-1.60 -0.13,-1.64 0.06,-1.63 0.25,-1.63 0.45,-1.57 0.64,-1.52 0.81,-1.42 0.98,-1.32 1.13,-1.18 1.27,-1.04 1.38,-0.88 1.48,-0.71 1.55,-0.52 1.61,-0.33 1.63,-0.13 1.65,0.06 1.61,0.25 1.58,0.45 1.51,0.63 1.43,0.82 1.43,0.82 L 1.43,0.82 Z"></path></g><g transform="translate(25.723429088420744 27.08423322942508) rotate(0 4.697546475025774 4.51323793833717)" stroke="none"><path fill="#1e1e1e" d="M 1.04,-1.14 Q 1.04,-1.14 2.35,-0.33 3.66,0.46 4.60,1.40 5.54,2.34 7.01,3.88 8.48,5.42 9.31,6.68 10.14,7.94 10.29,8.09 10.44,8.23 10.54,8.42 10.64,8.61 10.67,8.82 10.70,9.03 10.67,9.24 10.63,9.45 10.53,9.64 10.43,9.82 10.27,9.97 10.12,10.11 9.92,10.20 9.73,10.29 9.52,10.31 9.31,10.33 9.10,10.28 8.89,10.24 8.71,10.13 8.53,10.02 8.40,9.85 8.26,9.69 8.18,9.49 8.11,9.29 8.10,9.08 8.09,8.87 8.14,8.66 8.20,8.46 8.32,8.29 8.44,8.11 8.61,7.98 8.78,7.86 8.99,7.79 9.19,7.72 9.40,7.73 9.61,7.73 9.81,7.80 10.01,7.87 10.18,8.00 10.35,8.13 10.47,8.30 10.59,8.48 10.64,8.68 10.70,8.89 10.68,9.10 10.67,9.31 10.59,9.51 10.51,9.71 10.37,9.87 10.23,10.03 10.05,10.14 9.87,10.25 9.66,10.29 9.45,10.33 9.24,10.31 9.03,10.28 8.84,10.19 8.64,10.10 8.64,10.10 8.64,10.10 7.05,9.25 5.45,8.40 3.96,6.88 2.47,5.36 1.62,4.48 0.78,3.60 -0.13,2.37 -1.04,1.14 -1.16,1.00 -1.28,0.85 -1.37,0.69 -1.45,0.52 -1.49,0.34 -1.54,0.16 -1.53,-0.02 -1.53,-0.21 -1.48,-0.39 -1.43,-0.57 -1.35,-0.73 -1.26,-0.90 -1.13,-1.03 -1.00,-1.17 -0.85,-1.28 -0.69,-1.38 -0.52,-1.44 -0.34,-1.51 -0.16,-1.53 0.02,-1.54 0.21,-1.52 0.39,-1.49 0.56,-1.42 0.74,-1.36 0.89,-1.25 1.04,-1.14 1.04,-1.14 L 1.04,-1.14 Z"></path></g><g transform="translate(34.04759950998596 25.741273670632836) rotate(0 -4.794922361702447 7.1000922122552765)" stroke="none"><path fill="#1e1e1e" d="M 1.25,1.00 Q 1.25,1.00 0.42,2.34 -0.39,3.68 -1.06,4.63 -1.74,5.58 -2.64,6.93 -3.54,8.29 -4.50,9.50 -5.46,10.72 -6.96,12.80 -8.47,14.88 -8.60,15.04 -8.74,15.20 -8.93,15.31 -9.11,15.42 -9.32,15.46 -9.52,15.51 -9.74,15.48 -9.95,15.46 -10.14,15.37 -10.33,15.28 -10.48,15.13 -10.64,14.98 -10.74,14.79 -10.83,14.60 -10.87,14.39 -10.90,14.18 -10.86,13.97 -10.83,13.77 -10.72,13.58 -10.62,13.39 -10.47,13.25 -10.31,13.10 -10.12,13.01 -9.93,12.93 -9.71,12.91 -9.50,12.88 -9.30,12.93 -9.09,12.98 -8.91,13.09 -8.73,13.20 -8.59,13.36 -8.45,13.53 -8.38,13.73 -8.30,13.92 -8.29,14.14 -8.28,14.35 -8.34,14.55 -8.40,14.76 -8.52,14.93 -8.64,15.11 -8.81,15.23 -8.98,15.36 -9.18,15.43 -9.38,15.49 -9.60,15.49 -9.81,15.49 -10.01,15.42 -10.21,15.35 -10.38,15.22 -10.55,15.09 -10.66,14.91 -10.78,14.74 -10.84,14.53 -10.89,14.33 -10.88,14.11 -10.86,13.90 -10.78,13.70 -10.70,13.51 -10.70,13.51 -10.70,13.51 -9.47,11.22 -8.23,8.93 -7.53,7.56 -6.83,6.20 -5.92,4.71 -5.01,3.21 -4.26,2.19 -3.52,1.17 -2.38,0.08 -1.25,-1.00 -1.11,-1.14 -0.97,-1.27 -0.80,-1.37 -0.63,-1.47 -0.45,-1.53 -0.26,-1.58 -0.07,-1.59 0.11,-1.60 0.30,-1.56 0.49,-1.52 0.67,-1.44 0.85,-1.36 1.00,-1.24 1.15,-1.12 1.27,-0.96 1.38,-0.81 1.46,-0.63 1.54,-0.45 1.57,-0.26 1.60,-0.07 1.59,0.11 1.57,0.31 1.51,0.49 1.45,0.68 1.35,0.84 1.25,1.00 1.25,1.00 L 1.25,1.00 Z"></path></g><g transform="translate(103.65901406544072 28.2070447610904) rotate(0 5.731983995480732 5.569985607910439)" stroke="none"><path fill="#1e1e1e" d="M 0.87,-1.19 Q 0.87,-1.19 2.22,-0.54 3.56,0.09 4.56,0.97 5.55,1.85 6.54,2.96 7.54,4.08 8.29,5.05 9.03,6.03 10.61,8.03 12.18,10.04 12.34,10.18 12.49,10.33 12.60,10.51 12.70,10.70 12.74,10.91 12.77,11.12 12.74,11.33 12.71,11.54 12.61,11.73 12.51,11.92 12.36,12.06 12.21,12.21 12.02,12.30 11.83,12.40 11.62,12.42 11.40,12.45 11.20,12.40 10.99,12.36 10.80,12.25 10.62,12.15 10.48,11.99 10.34,11.83 10.26,11.63 10.18,11.43 10.17,11.22 10.15,11.01 10.21,10.80 10.26,10.60 10.38,10.42 10.49,10.24 10.66,10.11 10.83,9.98 11.03,9.91 11.23,9.84 11.44,9.84 11.66,9.84 11.86,9.90 12.06,9.97 12.23,10.09 12.40,10.22 12.52,10.39 12.64,10.57 12.70,10.77 12.76,10.98 12.75,11.19 12.74,11.40 12.67,11.60 12.59,11.80 12.46,11.96 12.32,12.13 12.14,12.24 11.96,12.35 11.75,12.40 11.55,12.45 11.33,12.43 11.12,12.40 10.93,12.32 10.74,12.23 10.74,12.23 10.74,12.23 8.27,10.37 5.81,8.51 5.14,7.64 4.47,6.78 3.65,5.83 2.83,4.88 2.00,4.12 1.16,3.37 0.14,2.28 -0.87,1.19 -1.00,1.06 -1.13,0.94 -1.22,0.79 -1.32,0.64 -1.38,0.48 -1.44,0.31 -1.45,0.13 -1.47,-0.04 -1.44,-0.21 -1.42,-0.39 -1.35,-0.55 -1.28,-0.72 -1.18,-0.86 -1.07,-1.01 -0.94,-1.12 -0.80,-1.23 -0.64,-1.31 -0.48,-1.39 -0.30,-1.43 -0.13,-1.47 0.04,-1.46 0.21,-1.46 0.39,-1.41 0.56,-1.36 0.71,-1.27 0.87,-1.19 0.87,-1.19 L 0.87,-1.19 Z"></path></g><g transform="translate(113.97901877020195 27.10625156922015) rotate(0 -4.4176394357155 6.4616310998458175)" stroke="none"><path fill="#1e1e1e" d="M 1.29,0.84 Q 1.29,0.84 0.76,2.09 0.23,3.34 -0.54,4.68 -1.31,6.03 -2.23,7.33 -3.15,8.63 -4.15,9.68 -5.15,10.72 -6.46,12.21 -7.78,13.70 -7.93,13.85 -8.08,14.00 -8.27,14.09 -8.46,14.18 -8.67,14.20 -8.89,14.23 -9.09,14.19 -9.30,14.14 -9.48,14.04 -9.67,13.93 -9.81,13.77 -9.95,13.61 -10.03,13.41 -10.11,13.22 -10.12,13.00 -10.14,12.79 -10.08,12.59 -10.03,12.38 -9.91,12.20 -9.79,12.03 -9.63,11.90 -9.46,11.77 -9.26,11.70 -9.06,11.62 -8.85,11.62 -8.63,11.62 -8.43,11.69 -8.23,11.75 -8.06,11.88 -7.89,12.00 -7.77,12.18 -7.65,12.35 -7.59,12.56 -7.53,12.76 -7.54,12.97 -7.54,13.18 -7.62,13.38 -7.70,13.58 -7.83,13.75 -7.97,13.91 -8.15,14.02 -8.33,14.13 -8.54,14.18 -8.74,14.23 -8.95,14.21 -9.17,14.19 -9.36,14.10 -9.55,14.01 -9.71,13.87 -9.87,13.73 -9.97,13.54 -10.07,13.35 -10.11,13.14 -10.14,12.93 -10.11,12.72 -10.08,12.51 -9.98,12.33 -9.89,12.14 -9.89,12.14 -9.89,12.14 -8.84,10.44 -7.80,8.74 -7.13,7.55 -6.46,6.36 -5.65,5.15 -4.84,3.94 -3.99,2.54 -3.14,1.14 -2.22,0.14 -1.29,-0.84 -1.17,-0.98 -1.05,-1.13 -0.90,-1.24 -0.75,-1.35 -0.58,-1.42 -0.41,-1.49 -0.22,-1.52 -0.04,-1.54 0.14,-1.53 0.32,-1.51 0.50,-1.45 0.68,-1.39 0.83,-1.29 0.99,-1.18 1.12,-1.05 1.25,-0.91 1.34,-0.75 1.43,-0.58 1.48,-0.40 1.53,-0.22 1.53,-0.04 1.54,0.14 1.50,0.32 1.46,0.50 1.38,0.67 1.29,0.84 1.29,0.84 L 1.29,0.84 Z"></path></g><g transform="translate(105.9226055088784 64.9953930035499) rotate(0 4.356783927896686 5.492939104040488)" stroke="none"><path fill="#1e1e1e" d="M 0.93,-1.14 Q 0.93,-1.14 2.12,-0.43 3.31,0.27 4.19,1.15 5.08,2.02 5.83,3.14 6.58,4.26 7.47,5.97 8.36,7.67 8.96,8.82 9.55,9.97 9.69,10.13 9.83,10.29 9.91,10.49 9.99,10.68 10.00,10.90 10.02,11.11 9.96,11.31 9.91,11.52 9.79,11.70 9.67,11.87 9.50,12.00 9.34,12.13 9.14,12.20 8.94,12.27 8.72,12.28 8.51,12.28 8.31,12.21 8.11,12.15 7.94,12.02 7.77,11.89 7.64,11.72 7.52,11.55 7.46,11.34 7.40,11.14 7.41,10.93 7.42,10.71 7.50,10.51 7.58,10.32 7.71,10.15 7.85,9.99 8.03,9.88 8.21,9.77 8.42,9.72 8.62,9.67 8.83,9.69 9.05,9.71 9.24,9.80 9.43,9.89 9.59,10.03 9.75,10.17 9.85,10.36 9.95,10.55 9.99,10.76 10.02,10.97 9.99,11.18 9.96,11.39 9.86,11.58 9.76,11.76 9.61,11.91 9.46,12.06 9.27,12.15 9.07,12.24 8.86,12.27 8.65,12.29 8.44,12.25 8.24,12.21 8.05,12.10 7.87,11.99 7.87,11.99 7.87,11.99 6.48,10.70 5.09,9.41 4.21,7.90 3.34,6.38 2.13,4.78 0.93,3.19 0.00,2.16 -0.93,1.14 -1.05,1.01 -1.17,0.88 -1.26,0.73 -1.35,0.57 -1.40,0.40 -1.45,0.23 -1.46,0.06 -1.47,-0.11 -1.43,-0.29 -1.40,-0.46 -1.32,-0.62 -1.24,-0.78 -1.13,-0.92 -1.02,-1.06 -0.88,-1.17 -0.73,-1.27 -0.57,-1.34 -0.41,-1.41 -0.23,-1.44 -0.06,-1.47 0.11,-1.46 0.29,-1.44 0.46,-1.39 0.63,-1.33 0.78,-1.23 0.93,-1.14 0.93,-1.14 L 0.93,-1.14 Z"></path></g><g transform="translate(112.46995780791076 64.48902424449898) rotate(0 -4.514997636979388 5.503948273938022)" stroke="none"><path fill="#1e1e1e" d="M 1.17,0.98 Q 1.17,0.98 0.51,2.27 -0.14,3.56 -1.16,4.77 -2.17,5.97 -3.07,7.01 -3.96,8.05 -4.86,8.82 -5.76,9.59 -6.87,10.70 -7.98,11.80 -8.13,11.94 -8.29,12.09 -8.48,12.18 -8.68,12.27 -8.89,12.29 -9.10,12.31 -9.31,12.27 -9.51,12.22 -9.69,12.11 -9.88,12.00 -10.01,11.84 -10.15,11.68 -10.23,11.48 -10.31,11.28 -10.32,11.07 -10.33,10.86 -10.27,10.65 -10.22,10.45 -10.10,10.27 -9.98,10.10 -9.81,9.97 -9.64,9.84 -9.44,9.77 -9.24,9.71 -9.02,9.71 -8.81,9.71 -8.61,9.78 -8.41,9.84 -8.24,9.97 -8.07,10.10 -7.95,10.28 -7.83,10.45 -7.78,10.66 -7.72,10.86 -7.73,11.07 -7.74,11.29 -7.82,11.48 -7.90,11.68 -8.04,11.84 -8.18,12.00 -8.36,12.11 -8.54,12.22 -8.75,12.27 -8.96,12.31 -9.17,12.29 -9.38,12.27 -9.57,12.18 -9.76,12.09 -9.92,11.94 -10.07,11.80 -10.17,11.61 -10.27,11.42 -10.30,11.21 -10.34,11.00 -10.30,10.79 -10.27,10.58 -10.17,10.39 -10.07,10.21 -10.07,10.21 -10.07,10.21 -9.27,8.79 -8.47,7.37 -7.88,6.31 -7.28,5.25 -6.40,4.19 -5.52,3.12 -4.50,1.94 -3.49,0.75 -2.33,-0.11 -1.17,-0.98 -1.04,-1.11 -0.90,-1.24 -0.74,-1.33 -0.58,-1.42 -0.40,-1.46 -0.22,-1.51 -0.03,-1.52 0.14,-1.52 0.32,-1.48 0.50,-1.44 0.67,-1.36 0.83,-1.28 0.98,-1.16 1.12,-1.04 1.23,-0.89 1.34,-0.74 1.41,-0.57 1.48,-0.40 1.50,-0.22 1.53,-0.03 1.51,0.14 1.49,0.32 1.43,0.50 1.37,0.67 1.27,0.83 1.17,0.98 1.17,0.98 L 1.17,0.98 Z"></path></g><g transform="translate(28.765886141965893 102.46622135259622) rotate(0 5.1721699168620034 6.340556759091669)" stroke="none"><path fill="#1e1e1e" d="M 1.18,-1.02 Q 1.18,-1.02 2.25,-0.27 3.32,0.46 4.14,1.42 4.95,2.37 5.96,3.61 6.96,4.84 7.83,5.91 8.70,6.97 10.04,9.42 11.38,11.87 11.48,12.06 11.58,12.25 11.62,12.46 11.65,12.67 11.62,12.88 11.59,13.09 11.49,13.28 11.39,13.46 11.24,13.61 11.08,13.76 10.89,13.85 10.70,13.94 10.49,13.96 10.28,13.99 10.07,13.94 9.86,13.90 9.68,13.79 9.50,13.68 9.36,13.52 9.22,13.36 9.14,13.16 9.06,12.97 9.05,12.75 9.03,12.54 9.09,12.34 9.14,12.13 9.26,11.96 9.38,11.78 9.55,11.65 9.72,11.52 9.92,11.45 10.12,11.38 10.33,11.38 10.54,11.38 10.74,11.45 10.95,11.51 11.12,11.64 11.29,11.77 11.41,11.94 11.53,12.12 11.59,12.32 11.64,12.53 11.63,12.74 11.62,12.95 11.55,13.15 11.47,13.35 11.33,13.51 11.20,13.67 11.01,13.78 10.83,13.89 10.63,13.94 10.42,13.99 10.21,13.97 10.00,13.94 9.80,13.86 9.61,13.77 9.45,13.62 9.30,13.48 9.30,13.48 9.30,13.48 7.25,11.66 5.20,9.84 4.32,8.76 3.44,7.68 2.46,6.46 1.48,5.24 0.73,4.30 -0.02,3.35 -0.60,2.18 -1.18,1.02 -1.28,0.86 -1.39,0.70 -1.45,0.53 -1.52,0.35 -1.54,0.16 -1.56,-0.01 -1.53,-0.20 -1.51,-0.39 -1.44,-0.56 -1.37,-0.74 -1.26,-0.89 -1.15,-1.05 -1.01,-1.17 -0.87,-1.29 -0.70,-1.38 -0.53,-1.46 -0.35,-1.51 -0.16,-1.55 0.01,-1.55 0.20,-1.55 0.39,-1.50 0.57,-1.45 0.73,-1.36 0.90,-1.27 1.04,-1.14 1.18,-1.02 1.18,-1.02 L 1.18,-1.02 Z"></path></g><g transform="translate(36.481572226988646 101.14529781901365) rotate(0 -3.833507913548601 7.529387939316166)" stroke="none"><path fill="#1e1e1e" d="M 1.37,0.82 Q 1.37,0.82 0.85,2.32 0.33,3.81 -0.37,5.29 -1.09,6.78 -1.75,8.18 -2.41,9.58 -3.17,10.81 -3.93,12.04 -5.21,13.84 -6.49,15.65 -6.62,15.82 -6.74,15.99 -6.92,16.12 -7.09,16.24 -7.30,16.30 -7.50,16.36 -7.71,16.35 -7.93,16.34 -8.12,16.26 -8.32,16.19 -8.49,16.05 -8.65,15.92 -8.76,15.74 -8.87,15.56 -8.92,15.35 -8.97,15.14 -8.95,14.93 -8.93,14.72 -8.85,14.53 -8.76,14.33 -8.62,14.18 -8.47,14.02 -8.29,13.92 -8.10,13.82 -7.89,13.78 -7.68,13.74 -7.47,13.77 -7.26,13.80 -7.07,13.90 -6.88,14.00 -6.73,14.15 -6.59,14.30 -6.49,14.49 -6.40,14.68 -6.38,14.89 -6.35,15.11 -6.39,15.31 -6.44,15.52 -6.54,15.71 -6.65,15.89 -6.81,16.03 -6.97,16.17 -7.16,16.25 -7.36,16.33 -7.57,16.35 -7.79,16.36 -7.99,16.31 -8.20,16.25 -8.37,16.14 -8.55,16.02 -8.68,15.85 -8.81,15.69 -8.88,15.49 -8.95,15.28 -8.96,15.07 -8.96,14.86 -8.90,14.66 -8.83,14.46 -8.83,14.46 -8.83,14.46 -8.14,12.37 -7.45,10.29 -6.96,9.00 -6.48,7.71 -5.82,6.25 -5.16,4.79 -4.34,3.14 -3.52,1.50 -2.45,0.33 -1.37,-0.82 -1.25,-0.98 -1.14,-1.13 -0.98,-1.25 -0.83,-1.37 -0.65,-1.45 -0.48,-1.53 -0.29,-1.56 -0.10,-1.60 0.09,-1.59 0.28,-1.58 0.47,-1.52 0.65,-1.46 0.82,-1.36 0.98,-1.26 1.12,-1.13 1.26,-0.99 1.36,-0.83 1.46,-0.66 1.52,-0.47 1.58,-0.29 1.59,-0.10 1.60,0.09 1.57,0.28 1.53,0.47 1.45,0.65 1.37,0.82 1.37,0.82 L 1.37,0.82 Z"></path></g><g transform="translate(104.9246883672804 106.6712467473335) rotate(0 4.709714039507162 5.514948601128708)" stroke="none"><path fill="#1e1e1e" d="M 1.07,-1.11 Q 1.07,-1.11 2.18,-0.49 3.30,0.12 4.08,1.06 4.87,2.00 5.61,3.12 6.35,4.25 7.40,5.84 8.46,7.43 9.30,8.68 10.14,9.93 10.30,10.08 10.45,10.22 10.56,10.41 10.66,10.60 10.69,10.81 10.73,11.02 10.69,11.23 10.66,11.44 10.56,11.62 10.46,11.81 10.31,11.96 10.16,12.11 9.97,12.20 9.77,12.29 9.56,12.31 9.35,12.34 9.14,12.29 8.94,12.25 8.75,12.14 8.57,12.03 8.43,11.87 8.29,11.71 8.21,11.51 8.13,11.32 8.12,11.10 8.11,10.89 8.16,10.69 8.22,10.48 8.34,10.30 8.46,10.13 8.62,10.00 8.79,9.87 8.99,9.80 9.19,9.73 9.41,9.73 9.62,9.73 9.82,9.79 10.02,9.86 10.19,9.99 10.36,10.12 10.48,10.29 10.60,10.47 10.66,10.67 10.72,10.88 10.71,11.09 10.70,11.30 10.62,11.50 10.54,11.70 10.41,11.86 10.27,12.02 10.09,12.13 9.91,12.24 9.70,12.29 9.49,12.34 9.28,12.31 9.07,12.29 8.88,12.20 8.68,12.12 8.68,12.12 8.68,12.12 6.25,10.30 3.81,8.49 3.21,7.60 2.61,6.70 1.43,5.00 0.25,3.29 -0.41,2.20 -1.07,1.11 -1.19,0.97 -1.31,0.82 -1.39,0.65 -1.47,0.49 -1.50,0.30 -1.54,0.12 -1.53,-0.06 -1.52,-0.24 -1.47,-0.42 -1.42,-0.60 -1.33,-0.77 -1.23,-0.93 -1.10,-1.06 -0.97,-1.20 -0.82,-1.30 -0.66,-1.40 -0.48,-1.45 -0.30,-1.51 -0.12,-1.53 0.06,-1.54 0.24,-1.51 0.43,-1.48 0.60,-1.41 0.77,-1.34 0.92,-1.22 1.07,-1.11 1.07,-1.11 L 1.07,-1.11 Z"></path></g><g transform="translate(111.42337040838902 104.57973437715555) rotate(0 -4.843592619627998 7.859645350832125)" stroke="none"><path fill="#1e1e1e" d="M 1.33,0.76 Q 1.33,0.76 0.65,2.87 -0.01,4.97 -0.87,6.60 -1.73,8.23 -2.62,9.71 -3.51,11.19 -4.82,12.45 -6.13,13.71 -7.40,15.14 -8.66,16.56 -8.82,16.71 -8.98,16.85 -9.18,16.93 -9.37,17.01 -9.58,17.03 -9.80,17.04 -10.00,16.99 -10.21,16.94 -10.39,16.82 -10.56,16.71 -10.70,16.54 -10.83,16.38 -10.90,16.18 -10.97,15.98 -10.98,15.76 -10.98,15.55 -10.92,15.35 -10.86,15.15 -10.73,14.97 -10.61,14.80 -10.43,14.68 -10.26,14.56 -10.06,14.50 -9.85,14.43 -9.64,14.44 -9.43,14.45 -9.23,14.52 -9.03,14.60 -8.86,14.73 -8.70,14.86 -8.59,15.04 -8.47,15.22 -8.42,15.43 -8.37,15.64 -8.39,15.85 -8.41,16.06 -8.49,16.26 -8.58,16.45 -8.72,16.61 -8.87,16.76 -9.05,16.87 -9.24,16.97 -9.45,17.01 -9.65,17.05 -9.86,17.02 -10.07,16.99 -10.26,16.89 -10.45,16.80 -10.60,16.65 -10.75,16.50 -10.85,16.31 -10.94,16.11 -10.97,15.90 -10.99,15.69 -10.95,15.48 -10.91,15.28 -10.81,15.09 -10.70,14.91 -10.70,14.91 -10.70,14.91 -9.75,13.42 -8.81,11.93 -8.24,10.38 -7.68,8.83 -6.90,7.36 -6.11,5.89 -5.20,4.20 -4.29,2.51 -2.81,0.87 -1.33,-0.76 -1.21,-0.91 -1.10,-1.06 -0.96,-1.17 -0.82,-1.29 -0.65,-1.37 -0.48,-1.45 -0.30,-1.49 -0.12,-1.53 0.05,-1.52 0.24,-1.51 0.42,-1.46 0.59,-1.41 0.75,-1.32 0.92,-1.22 1.05,-1.10 1.18,-0.97 1.28,-0.81 1.38,-0.66 1.44,-0.48 1.50,-0.30 1.51,-0.12 1.53,0.05 1.50,0.24 1.47,0.42 1.40,0.59 1.33,0.76 1.33,0.76 L 1.33,0.76 Z"></path></g><g transform="translate(48.748740957020345 15.305800901193834) rotate(0 0.4989585707990045 14.45335996133008)" stroke="none"><path fill="#1971c2" d="M -1.38,0 Q -1.38,0 -1.52,-0.56 -1.65,-1.13 -1.54,-1.22 -1.44,-1.31 -1.41,-1.53 -1.39,-1.74 -1.31,-1.94 -1.24,-2.14 -1.11,-2.32 -0.99,-2.49 -0.83,-2.64 -0.67,-2.78 -0.48,-2.88 -0.29,-2.98 -0.08,-3.03 0.12,-3.08 0.33,-3.08 0.55,-3.08 0.75,-3.03 0.96,-2.98 1.15,-2.88 1.34,-2.78 1.50,-2.64 1.66,-2.49 1.79,-2.32 1.91,-2.14 1.98,-1.94 2.06,-1.74 2.09,-1.53 2.11,-1.31 2.36,-0.21 2.61,0.89 2.65,2.22 2.69,3.55 2.71,5.19 2.74,6.82 2.75,8.81 2.76,10.80 2.78,12.52 2.79,14.24 2.79,15.72 2.79,17.19 2.79,18.49 2.79,19.80 2.80,21.04 2.80,22.28 2.80,23.42 2.80,24.56 2.81,25.80 2.82,27.04 2.47,27.84 2.12,28.64 2.18,28.79 2.25,28.93 2.28,29.09 2.30,29.24 2.29,29.40 2.28,29.56 2.24,29.71 2.19,29.86 2.11,30.00 2.03,30.13 1.91,30.24 1.80,30.36 1.67,30.44 1.53,30.52 1.38,30.57 1.23,30.61 1.07,30.62 0.91,30.63 0.76,30.60 0.60,30.57 0.46,30.51 0.31,30.44 0.19,30.34 0.06,30.25 -0.02,30.12 -0.12,30.00 -0.18,29.45 -0.24,28.90 -0.14,28.71 -0.04,28.53 0.10,28.38 0.26,28.23 0.45,28.14 0.64,28.05 0.85,28.03 1.06,28.01 1.27,28.05 1.48,28.10 1.66,28.21 1.84,28.32 1.98,28.48 2.12,28.64 2.20,28.84 2.28,29.04 2.29,29.25 2.30,29.46 2.24,29.67 2.18,29.87 2.07,30.05 1.95,30.22 1.78,30.35 1.61,30.48 1.41,30.55 1.21,30.62 0.99,30.62 0.78,30.62 0.58,30.55 0.38,30.48 0.21,30.35 0.04,30.22 -0.07,30.05 -0.19,29.87 -0.25,29.67 -0.30,29.46 -0.29,29.25 -0.28,29.04 -0.20,28.84 -0.12,28.64 0.01,28.48 0.14,28.32 0.33,28.21 0.51,28.10 0.71,28.05 0.92,28.01 1.13,28.03 1.34,28.05 1.54,28.14 1.73,28.23 1.88,28.38 2.04,28.53 2.14,28.71 2.24,28.90 2.27,29.11 2.31,29.32 2.21,28.98 2.12,28.64 2.18,28.79 2.25,28.93 2.28,29.09 2.30,29.24 2.29,29.40 2.28,29.56 2.24,29.71 2.19,29.86 2.11,30.00 2.03,30.13 1.91,30.24 1.80,30.36 1.67,30.44 1.53,30.52 1.38,30.57 1.23,30.61 1.07,30.62 0.91,30.63 0.76,30.60 0.60,30.57 0.46,30.51 0.31,30.44 0.19,30.34 0.06,30.25 -0.02,30.12 -0.12,30.00 -0.62,29.78 -1.13,29.56 -1.39,28.30 -1.65,27.04 -1.64,25.80 -1.63,24.56 -1.63,23.42 -1.63,22.28 -1.63,21.04 -1.62,19.80 -1.62,18.49 -1.62,17.19 -1.62,15.72 -1.62,14.24 -1.61,12.52 -1.59,10.80 -1.58,8.81 -1.57,6.82 -1.55,5.19 -1.53,3.57 -1.50,2.28 -1.48,0.98 -1.46,-0.16 -1.44,-1.31 -1.41,-1.53 -1.39,-1.74 -1.31,-1.94 -1.24,-2.14 -1.11,-2.32 -0.99,-2.49 -0.83,-2.64 -0.67,-2.78 -0.48,-2.88 -0.29,-2.98 -0.08,-3.03 0.12,-3.08 0.33,-3.08 0.55,-3.08 0.75,-3.03 0.96,-2.98 1.15,-2.88 1.34,-2.78 1.50,-2.64 1.66,-2.49 1.79,-2.32 1.91,-2.14 1.98,-1.94 2.06,-1.74 2.09,-1.53 2.11,-1.31 1.88,-0.98 1.65,-0.66 1.52,-0.33 1.38,0 1.36,0.16 1.34,0.33 1.28,0.48 1.22,0.64 1.13,0.78 1.03,0.92 0.91,1.03 0.78,1.14 0.64,1.21 0.49,1.29 0.32,1.33 0.16,1.37 -0.00,1.37 -0.16,1.37 -0.32,1.33 -0.49,1.29 -0.64,1.21 -0.78,1.14 -0.91,1.03 -1.03,0.92 -1.13,0.78 -1.22,0.64 -1.28,0.48 -1.34,0.33 -1.36,0.16 -1.38,-0.00 -1.38,-0.00 L -1.38,0 Z"></path></g><g transform="translate(19.17607678938839 49.166063659149586) rotate(0 15.79643447530816 -2.24562306333155)" stroke="none"><path fill="#1971c2" d="M 0.03,-1.43 Q 0.03,-1.43 1.05,-1.71 2.08,-1.99 3.94,-2.00 5.81,-2.00 7.77,-2.08 9.73,-2.16 10.99,-2.21 12.25,-2.27 13.33,-2.28 14.41,-2.29 16.21,-2.30 18.00,-2.31 19.74,-2.32 21.49,-2.32 23.04,-2.33 24.60,-2.33 25.75,-2.33 26.90,-2.33 28.22,-2.33 29.55,-2.33 30.53,-2.33 31.52,-2.33 31.77,-2.30 32.02,-2.27 32.25,-2.18 32.49,-2.09 32.70,-1.94 32.90,-1.80 33.07,-1.61 33.24,-1.42 33.36,-1.20 33.47,-0.98 33.53,-0.73 33.59,-0.49 33.59,-0.24 33.59,0.00 33.53,0.25 33.47,0.49 33.36,0.72 33.24,0.94 33.07,1.13 32.90,1.32 32.70,1.46 32.49,1.60 32.25,1.69 32.02,1.78 31.77,1.81 31.52,1.84 30.26,1.21 29.00,0.58 29.07,-2.18 29.13,-4.96 29.16,-5.17 29.19,-5.38 29.29,-5.57 29.39,-5.75 29.54,-5.90 29.70,-6.05 29.89,-6.14 30.08,-6.23 30.29,-6.26 30.50,-6.28 30.71,-6.24 30.92,-6.20 31.10,-6.09 31.28,-5.98 31.42,-5.82 31.56,-5.66 31.64,-5.46 31.72,-5.27 31.74,-5.05 31.75,-4.84 31.70,-4.64 31.64,-4.43 31.52,-4.25 31.41,-4.08 31.24,-3.95 31.07,-3.82 30.87,-3.75 30.67,-3.68 30.46,-3.67 30.25,-3.67 30.04,-3.74 29.84,-3.80 29.67,-3.93 29.50,-4.06 29.38,-4.23 29.26,-4.41 29.20,-4.61 29.14,-4.81 29.15,-5.03 29.16,-5.24 29.23,-5.44 29.31,-5.64 29.45,-5.80 29.58,-5.96 29.76,-6.07 29.95,-6.19 30.15,-6.23 30.36,-6.28 30.57,-6.26 30.78,-6.24 30.98,-6.15 31.17,-6.07 31.33,-5.92 31.48,-5.78 31.58,-5.59 31.68,-5.40 31.72,-5.19 31.76,-4.98 31.76,-4.98 31.76,-4.98 31.64,-3.66 31.52,-2.33 31.77,-2.30 32.02,-2.27 32.25,-2.18 32.49,-2.09 32.70,-1.94 32.90,-1.80 33.07,-1.61 33.24,-1.42 33.36,-1.20 33.47,-0.98 33.53,-0.73 33.59,-0.49 33.59,-0.24 33.59,0.00 33.53,0.25 33.47,0.49 33.36,0.72 33.24,0.94 33.07,1.13 32.90,1.32 32.70,1.46 32.49,1.60 32.25,1.69 32.02,1.78 31.77,1.81 31.52,1.84 31.04,1.84 30.55,1.84 29.47,1.83 28.39,1.83 27.10,1.83 25.82,1.84 24.42,1.84 23.01,1.84 21.43,1.84 19.84,1.83 18.10,1.83 16.35,1.84 14.37,1.87 12.39,1.90 11.25,1.93 10.11,1.96 7.95,2.06 5.79,2.16 3.88,2.13 1.97,2.09 0.97,1.76 -0.03,1.43 -0.20,1.40 -0.37,1.38 -0.53,1.31 -0.69,1.25 -0.83,1.14 -0.97,1.04 -1.08,0.91 -1.19,0.78 -1.27,0.62 -1.35,0.47 -1.38,0.30 -1.42,0.13 -1.42,-0.03 -1.41,-0.20 -1.37,-0.37 -1.32,-0.54 -1.24,-0.69 -1.15,-0.84 -1.04,-0.96 -0.92,-1.09 -0.77,-1.18 -0.63,-1.28 -0.47,-1.34 -0.30,-1.39 -0.13,-1.41 0.03,-1.43 0.03,-1.43 L 0.03,-1.43 Z"></path></g><g transform="translate(90.8319958859629 14.755413147965555) rotate(0 0.6450047154012282 16.77601184311743)" stroke="none"><path fill="#1971c2" d="M 1.47,0 Q 1.47,0 1.72,1.24 1.96,2.49 2.01,4.31 2.06,6.13 2.22,7.77 2.38,9.41 2.67,11.08 2.96,12.75 3.11,14.28 3.26,15.80 3.29,17.08 3.32,18.36 3.34,19.90 3.36,21.44 3.37,22.88 3.38,24.32 3.39,25.54 3.40,26.75 3.39,28.24 3.37,29.72 2.69,31.51 2.01,33.30 1.96,33.45 1.91,33.60 1.83,33.73 1.75,33.87 1.63,33.98 1.52,34.09 1.38,34.17 1.25,34.25 1.09,34.29 0.94,34.34 0.78,34.34 0.63,34.35 0.47,34.32 0.32,34.29 0.17,34.22 0.03,34.15 -0.08,34.05 -0.21,33.95 -0.30,33.83 -0.40,33.70 -0.46,33.56 -0.52,33.41 -0.55,33.26 -0.58,33.10 -0.56,32.94 -0.55,32.78 -0.39,32.46 -0.22,32.14 -0.05,32.01 0.11,31.88 0.31,31.81 0.51,31.75 0.72,31.74 0.93,31.74 1.13,31.81 1.34,31.88 1.51,32.01 1.67,32.13 1.79,32.31 1.91,32.48 1.97,32.69 2.03,32.89 2.02,33.11 2.01,33.32 1.93,33.52 1.85,33.71 1.72,33.88 1.58,34.04 1.40,34.15 1.22,34.26 1.01,34.31 0.80,34.35 0.59,34.33 0.38,34.31 0.19,34.22 -0.00,34.13 -0.15,33.99 -0.31,33.84 -0.41,33.65 -0.51,33.47 -0.54,33.26 -0.58,33.05 -0.54,32.84 -0.51,32.63 -0.41,32.44 -0.31,32.25 -0.16,32.10 -0.01,31.96 0.18,31.87 0.37,31.78 0.58,31.75 0.79,31.73 1.00,31.77 1.21,31.82 1.39,31.93 1.57,32.04 1.71,32.20 1.85,32.36 1.93,32.56 2.01,32.75 2.02,32.97 2.03,33.18 1.98,33.38 1.92,33.59 1.97,33.44 2.01,33.30 1.96,33.45 1.91,33.60 1.83,33.73 1.75,33.87 1.63,33.98 1.52,34.09 1.38,34.17 1.25,34.25 1.09,34.29 0.94,34.34 0.78,34.34 0.63,34.35 0.47,34.32 0.32,34.29 0.17,34.22 0.03,34.15 -0.08,34.05 -0.21,33.95 -0.30,33.83 -0.40,33.70 -0.46,33.56 -0.52,33.41 -0.55,33.26 -0.58,33.10 -0.56,32.94 -0.55,32.78 -1.05,30.87 -1.55,28.96 -1.43,27.86 -1.30,26.75 -1.30,25.54 -1.29,24.32 -1.28,22.88 -1.27,21.44 -1.26,19.93 -1.25,18.41 -1.26,17.23 -1.28,16.04 -1.37,14.69 -1.46,13.34 -1.67,11.69 -1.88,10.05 -1.97,8.09 -2.06,6.13 -2.01,4.31 -1.96,2.49 -1.72,1.24 -1.47,0 -1.45,-0.17 -1.43,-0.35 -1.37,-0.51 -1.30,-0.68 -1.20,-0.83 -1.10,-0.97 -0.97,-1.09 -0.83,-1.21 -0.68,-1.29 -0.52,-1.38 -0.35,-1.42 -0.17,-1.46 0.00,-1.46 0.17,-1.46 0.35,-1.42 0.52,-1.38 0.68,-1.29 0.83,-1.21 0.97,-1.09 1.10,-0.97 1.20,-0.83 1.30,-0.68 1.37,-0.51 1.43,-0.35 1.45,-0.17 1.47,0.00 1.47,0.00 L 1.47,0 Z"></path></g><g transform="translate(91.12408817516734 49.6944330725828) rotate(0 15.467857178074155 -0.3632583930889268)" stroke="none"><path fill="#1971c2" d="M -0.11,-1.45 Q -0.11,-1.45 1.16,-1.91 2.44,-2.36 3.86,-2.50 5.27,-2.64 6.70,-2.74 8.13,-2.84 9.73,-2.88 11.32,-2.93 13.23,-2.94 15.14,-2.96 16.74,-2.96 18.34,-2.96 19.82,-2.82 21.29,-2.68 22.53,-2.62 23.77,-2.57 25.38,-2.53 26.99,-2.49 28.96,-2.02 30.93,-1.55 31.14,-1.52 31.35,-1.48 31.54,-1.38 31.73,-1.28 31.87,-1.13 32.02,-0.97 32.11,-0.78 32.20,-0.59 32.22,-0.38 32.24,-0.17 32.20,0.03 32.15,0.24 32.04,0.42 31.93,0.60 31.77,0.74 31.61,0.88 31.41,0.96 31.21,1.04 31.00,1.05 30.79,1.06 30.58,1.00 30.38,0.94 30.20,0.82 30.03,0.71 29.90,0.54 29.77,0.37 29.70,0.17 29.63,-0.03 29.63,-0.24 29.63,-0.45 29.70,-0.65 29.77,-0.85 29.90,-1.02 30.03,-1.19 30.20,-1.31 30.38,-1.43 30.59,-1.49 30.79,-1.54 31.00,-1.53 31.21,-1.52 31.41,-1.44 31.61,-1.36 31.77,-1.22 31.93,-1.09 32.04,-0.90 32.15,-0.72 32.20,-0.51 32.24,-0.31 32.22,-0.10 32.20,0.11 32.11,0.30 32.02,0.49 31.87,0.65 31.72,0.80 31.54,0.90 31.35,1.00 31.14,1.03 30.93,1.07 30.93,1.07 30.93,1.07 28.93,1.52 26.92,1.97 25.25,1.95 23.57,1.92 22.21,1.85 20.84,1.79 19.60,1.66 18.36,1.53 16.77,1.54 15.18,1.56 13.31,1.57 11.44,1.59 9.93,1.63 8.43,1.67 7.01,1.75 5.59,1.84 4.19,1.90 2.78,1.96 1.44,1.70 0.11,1.45 -0.06,1.44 -0.23,1.44 -0.40,1.39 -0.57,1.34 -0.72,1.25 -0.88,1.16 -1.00,1.04 -1.13,0.92 -1.22,0.77 -1.32,0.62 -1.37,0.45 -1.43,0.28 -1.44,0.11 -1.46,-0.06 -1.43,-0.23 -1.40,-0.41 -1.33,-0.57 -1.26,-0.73 -1.15,-0.87 -1.05,-1.01 -0.91,-1.12 -0.77,-1.23 -0.61,-1.31 -0.45,-1.38 -0.28,-1.42 -0.11,-1.45 -0.11,-1.45 L -0.11,-1.45 Z"></path></g><g transform="translate(23.65455404751083 90.1374012711376) rotate(0 12.973046638666347 16.54484580338658)" stroke="none"><path fill="#1971c2" d="M 0.03,-1.44 Q 0.03,-1.44 1.35,-1.70 2.68,-1.96 3.78,-1.96 4.89,-1.95 6.14,-2.06 7.39,-2.16 8.72,-2.21 10.04,-2.26 11.24,-2.34 12.45,-2.42 13.83,-2.50 15.21,-2.59 16.33,-2.67 17.44,-2.75 18.91,-2.83 20.37,-2.91 21.45,-2.94 22.53,-2.97 23.68,-2.98 24.83,-2.98 25.99,-2.50 27.15,-2.02 27.61,-0.91 28.06,0.19 27.91,1.32 27.77,2.44 27.74,3.56 27.71,4.67 27.84,5.90 27.96,7.12 28.07,8.81 28.17,10.49 28.20,12.15 28.22,13.82 28.26,15.45 28.29,17.09 28.31,18.60 28.32,20.11 28.34,21.46 28.36,22.80 28.36,24.00 28.37,25.20 28.38,26.31 28.38,27.41 28.39,28.50 28.41,29.59 27.76,31.80 27.11,34.01 27.07,34.22 27.04,34.43 26.94,34.62 26.84,34.80 26.69,34.95 26.53,35.10 26.34,35.19 26.15,35.27 25.94,35.30 25.72,35.32 25.52,35.28 25.31,35.23 25.13,35.12 24.94,35.01 24.81,34.85 24.67,34.69 24.59,34.49 24.51,34.29 24.50,34.08 24.49,33.87 24.55,33.66 24.60,33.46 24.72,33.28 24.84,33.11 25.01,32.98 25.18,32.85 25.38,32.78 25.58,32.71 25.80,32.71 26.01,32.71 26.21,32.78 26.41,32.85 26.58,32.98 26.75,33.11 26.87,33.28 26.99,33.46 27.04,33.66 27.10,33.87 27.09,34.08 27.08,34.29 27.00,34.49 26.92,34.69 26.78,34.85 26.65,35.01 26.46,35.12 26.28,35.23 26.07,35.28 25.87,35.32 25.65,35.30 25.44,35.27 25.25,35.19 25.06,35.10 24.90,34.95 24.75,34.80 24.65,34.62 24.55,34.43 24.52,34.22 24.48,34.01 24.48,34.01 24.48,34.01 23.83,31.80 23.18,29.59 23.20,28.50 23.21,27.41 23.22,26.31 23.22,25.20 23.23,24.00 23.23,22.80 23.25,21.46 23.27,20.11 23.28,18.60 23.30,17.09 23.33,15.47 23.36,13.84 23.36,12.22 23.36,10.60 23.33,9.22 23.30,7.84 23.22,6.20 23.13,4.57 23.20,3.45 23.26,2.33 23.55,1.10 23.84,-0.12 24.74,0.50 25.65,1.13 24.46,1.14 23.28,1.14 21.93,1.18 20.57,1.23 19.14,1.30 17.71,1.38 16.60,1.44 15.49,1.51 14.10,1.61 12.70,1.72 11.44,1.79 10.18,1.85 8.94,1.90 7.71,1.94 6.27,2.03 4.84,2.13 3.71,2.11 2.58,2.09 1.27,1.77 -0.03,1.44 -0.20,1.42 -0.37,1.39 -0.54,1.33 -0.70,1.26 -0.84,1.16 -0.98,1.05 -1.09,0.92 -1.21,0.79 -1.28,0.63 -1.36,0.48 -1.40,0.31 -1.44,0.13 -1.43,-0.03 -1.43,-0.20 -1.38,-0.37 -1.34,-0.54 -1.25,-0.69 -1.17,-0.85 -1.05,-0.97 -0.93,-1.10 -0.78,-1.20 -0.64,-1.29 -0.47,-1.35 -0.31,-1.41 -0.13,-1.42 0.03,-1.44 0.03,-1.44 L 0.03,-1.44 Z"></path></g><g transform="translate(92.02466480091607 89.32282881119227) rotate(0 14.871505035183873 -0.19815621545103568)" stroke="none"><path fill="#1971c2" d="M 0,-1.41 Q 0,-1.41 1.14,-1.72 2.28,-2.03 3.69,-2.15 5.11,-2.28 6.45,-2.33 7.78,-2.38 9.25,-2.41 10.71,-2.43 12.05,-2.44 13.39,-2.45 14.62,-2.45 15.85,-2.45 17.20,-2.42 18.56,-2.39 19.78,-2.29 21.00,-2.19 22.75,-2.13 24.50,-2.06 25.71,-2.01 26.92,-1.95 28.28,-1.62 29.64,-1.29 29.80,-1.26 29.95,-1.24 30.10,-1.17 30.25,-1.11 30.37,-1.02 30.50,-0.92 30.60,-0.80 30.70,-0.68 30.77,-0.54 30.84,-0.39 30.87,-0.24 30.90,-0.08 30.89,0.07 30.89,0.22 30.85,0.38 30.80,0.53 30.72,0.67 30.64,0.80 30.53,0.92 30.43,1.03 30.29,1.12 30.16,1.20 30.01,1.25 29.86,1.30 29.70,1.32 29.54,1.33 29.36,1.30 29.17,1.26 28.99,1.16 28.80,1.06 28.65,0.91 28.51,0.75 28.42,0.56 28.33,0.37 28.30,0.16 28.28,-0.04 28.33,-0.25 28.37,-0.46 28.48,-0.64 28.59,-0.82 28.75,-0.96 28.91,-1.10 29.11,-1.18 29.31,-1.26 29.52,-1.27 29.73,-1.28 29.94,-1.22 30.14,-1.16 30.32,-1.05 30.50,-0.93 30.62,-0.76 30.75,-0.59 30.82,-0.39 30.89,-0.19 30.89,0.02 30.89,0.23 30.82,0.43 30.75,0.63 30.62,0.80 30.50,0.97 30.32,1.09 30.14,1.21 29.94,1.27 29.73,1.32 29.52,1.31 29.31,1.30 29.11,1.22 28.91,1.14 28.75,1.00 28.59,0.87 28.48,0.68 28.37,0.50 28.33,0.30 28.28,0.09 28.30,-0.11 28.33,-0.32 28.42,-0.52 28.51,-0.71 28.65,-0.86 28.80,-1.02 28.99,-1.12 29.17,-1.22 29.38,-1.25 29.59,-1.29 29.62,-1.29 29.64,-1.29 29.80,-1.26 29.95,-1.24 30.10,-1.17 30.25,-1.11 30.37,-1.02 30.50,-0.92 30.60,-0.80 30.70,-0.68 30.77,-0.54 30.84,-0.39 30.87,-0.24 30.90,-0.08 30.89,0.07 30.89,0.22 30.85,0.38 30.80,0.53 30.72,0.67 30.64,0.80 30.53,0.92 30.43,1.03 30.29,1.12 30.16,1.20 30.01,1.25 29.86,1.30 29.70,1.32 29.54,1.33 28.16,1.63 26.77,1.94 25.61,1.87 24.44,1.80 22.57,1.76 20.69,1.71 19.63,1.64 18.56,1.56 17.21,1.59 15.86,1.63 14.64,1.63 13.42,1.64 12.10,1.65 10.77,1.66 9.36,1.68 7.95,1.70 6.69,1.75 5.44,1.80 3.86,1.91 2.28,2.03 1.14,1.72 0,1.41 -0.16,1.39 -0.33,1.37 -0.49,1.31 -0.65,1.25 -0.79,1.15 -0.93,1.06 -1.05,0.93 -1.16,0.80 -1.24,0.65 -1.32,0.50 -1.36,0.33 -1.40,0.17 -1.40,-0.00 -1.40,-0.17 -1.36,-0.33 -1.32,-0.50 -1.24,-0.65 -1.16,-0.80 -1.05,-0.93 -0.93,-1.06 -0.79,-1.15 -0.65,-1.25 -0.49,-1.31 -0.33,-1.37 -0.16,-1.39 0.00,-1.41 0.00,-1.41 L 0,-1.41 Z"></path></g><g transform="translate(92.14634044572813 88.86049673173147) rotate(0 -1.1682984151620985 15.70824616093978)" stroke="none"><path fill="#1971c2" d="M 1.16,0.97 Q 1.16,0.97 1.03,1.48 0.90,2.00 1.01,3.37 1.12,4.75 1.15,5.93 1.18,7.11 1.41,8.52 1.64,9.92 1.70,11.61 1.76,13.30 1.49,14.97 1.22,16.64 1.15,17.87 1.07,19.10 1.07,20.40 1.07,21.70 1.07,23.18 1.08,24.66 1.08,25.81 1.08,26.95 0.25,28.78 -0.58,30.61 -0.59,30.76 -0.60,30.92 -0.65,31.07 -0.70,31.22 -0.78,31.36 -0.86,31.50 -0.97,31.61 -1.08,31.72 -1.22,31.80 -1.36,31.88 -1.51,31.93 -1.66,31.98 -1.82,31.99 -1.97,32.00 -2.13,31.97 -2.29,31.94 -2.43,31.87 -2.57,31.81 -2.70,31.71 -2.82,31.61 -2.92,31.49 -3.02,31.36 -3.08,31.22 -3.15,31.07 -3.18,30.92 -3.20,30.76 -2.83,30.13 -2.46,29.50 -2.26,29.44 -2.06,29.38 -1.84,29.39 -1.63,29.40 -1.43,29.47 -1.23,29.55 -1.07,29.68 -0.91,29.82 -0.79,30.00 -0.68,30.18 -0.63,30.39 -0.58,30.59 -0.60,30.80 -0.62,31.02 -0.71,31.21 -0.80,31.40 -0.94,31.56 -1.08,31.72 -1.27,31.82 -1.45,31.92 -1.66,31.96 -1.87,32.00 -2.08,31.97 -2.29,31.94 -2.48,31.84 -2.67,31.74 -2.82,31.59 -2.97,31.44 -3.06,31.25 -3.15,31.06 -3.18,30.85 -3.21,30.63 -3.16,30.43 -3.12,30.22 -3.01,30.03 -2.91,29.85 -2.75,29.71 -2.59,29.57 -2.39,29.49 -2.20,29.41 -1.98,29.39 -1.77,29.38 -1.57,29.43 -1.36,29.48 -1.18,29.60 -1.01,29.72 -0.87,29.88 -0.74,30.05 -0.67,30.25 -0.60,30.45 -0.60,30.66 -0.59,30.88 -0.66,31.08 -0.72,31.28 -0.85,31.45 -0.98,31.62 -0.78,31.12 -0.58,30.61 -0.59,30.76 -0.60,30.92 -0.65,31.07 -0.70,31.22 -0.78,31.36 -0.86,31.50 -0.97,31.61 -1.08,31.72 -1.22,31.80 -1.36,31.88 -1.51,31.93 -1.66,31.98 -1.82,31.99 -1.97,32.00 -2.13,31.97 -2.29,31.94 -2.43,31.87 -2.57,31.81 -2.70,31.71 -2.82,31.61 -2.92,31.49 -3.02,31.36 -3.08,31.22 -3.15,31.07 -3.18,30.92 -3.20,30.76 -3.77,28.87 -4.35,26.97 -4.34,25.81 -4.33,24.65 -4.32,23.15 -4.31,21.64 -4.26,20.20 -4.21,18.76 -4.00,17.19 -3.79,15.62 -3.54,14.49 -3.30,13.35 -3.31,11.83 -3.31,10.30 -3.46,8.71 -3.60,7.11 -3.57,5.90 -3.53,4.68 -3.43,3.48 -3.33,2.29 -2.73,0.88 -2.13,-0.53 -1.65,-0.75 -1.16,-0.97 -1.03,-1.10 -0.89,-1.22 -0.73,-1.31 -0.57,-1.40 -0.40,-1.45 -0.22,-1.50 -0.04,-1.50 0.14,-1.51 0.32,-1.47 0.50,-1.43 0.66,-1.35 0.82,-1.27 0.97,-1.15 1.11,-1.03 1.21,-0.89 1.32,-0.74 1.39,-0.57 1.46,-0.40 1.49,-0.22 1.52,-0.04 1.50,0.14 1.48,0.32 1.42,0.49 1.36,0.67 1.26,0.82 1.16,0.97 1.16,0.97 L 1.16,0.97 Z"></path></g><g transform="translate(39.28177448654242 155.26878225208384) rotate(0 5.476429770546929 6.7037974667669005)" stroke="none"><path fill="#1e1e1e" d="M 1.19,-1.05 Q 1.19,-1.05 2.40,-0.08 3.61,0.88 4.46,1.79 5.32,2.70 6.17,3.63 7.03,4.55 7.99,5.71 8.95,6.87 9.70,7.89 10.45,8.90 11.26,10.80 12.06,12.71 12.14,12.90 12.23,13.10 12.24,13.31 12.26,13.52 12.20,13.73 12.15,13.93 12.03,14.11 11.92,14.29 11.75,14.42 11.58,14.55 11.38,14.62 11.18,14.69 10.97,14.70 10.76,14.70 10.55,14.64 10.35,14.57 10.18,14.45 10.01,14.32 9.89,14.15 9.77,13.97 9.70,13.77 9.64,13.57 9.65,13.35 9.66,13.14 9.74,12.94 9.81,12.74 9.95,12.58 10.08,12.42 10.26,12.30 10.44,12.19 10.65,12.14 10.86,12.09 11.07,12.11 11.28,12.13 11.47,12.22 11.67,12.30 11.82,12.45 11.98,12.59 12.08,12.78 12.19,12.96 12.22,13.17 12.26,13.38 12.23,13.59 12.20,13.80 12.10,13.99 12.01,14.18 11.85,14.33 11.70,14.48 11.51,14.57 11.32,14.66 11.11,14.69 10.90,14.71 10.69,14.67 10.48,14.63 10.30,14.52 10.11,14.42 9.97,14.26 9.83,14.10 9.83,14.10 9.83,14.10 8.43,12.77 7.03,11.45 6.35,10.53 5.66,9.62 4.75,8.54 3.85,7.46 3.01,6.54 2.18,5.62 1.29,4.65 0.41,3.69 -0.39,2.37 -1.19,1.05 -1.30,0.89 -1.41,0.73 -1.48,0.55 -1.54,0.37 -1.57,0.18 -1.59,-0.00 -1.56,-0.19 -1.54,-0.38 -1.47,-0.56 -1.40,-0.74 -1.29,-0.90 -1.18,-1.06 -1.04,-1.18 -0.90,-1.31 -0.73,-1.40 -0.55,-1.49 -0.37,-1.53 -0.18,-1.58 0.00,-1.58 0.19,-1.58 0.38,-1.53 0.57,-1.48 0.74,-1.39 0.91,-1.30 1.05,-1.18 1.19,-1.05 1.19,-1.05 L 1.19,-1.05 Z"></path></g><g transform="translate(47.581609779144856 156.01733506347045) rotate(0 -2.7990703930936434 4.942542508104907)" stroke="none"><path fill="#1e1e1e" d="M 1.30,1.01 Q 1.30,1.01 0.54,2.24 -0.20,3.47 -0.77,4.38 -1.33,5.30 -2.86,7.85 -4.39,10.40 -4.50,10.58 -4.62,10.76 -4.79,10.89 -4.95,11.03 -5.15,11.10 -5.35,11.17 -5.56,11.18 -5.78,11.18 -5.98,11.12 -6.18,11.05 -6.35,10.93 -6.53,10.80 -6.65,10.63 -6.77,10.46 -6.83,10.26 -6.90,10.05 -6.89,9.84 -6.88,9.63 -6.81,9.43 -6.73,9.23 -6.60,9.06 -6.47,8.90 -6.29,8.78 -6.11,8.67 -5.90,8.62 -5.69,8.57 -5.48,8.59 -5.27,8.61 -5.08,8.69 -4.88,8.78 -4.72,8.92 -4.57,9.06 -4.46,9.25 -4.36,9.43 -4.32,9.64 -4.28,9.85 -4.31,10.06 -4.34,10.27 -4.43,10.46 -4.53,10.65 -4.68,10.80 -4.83,10.95 -5.02,11.04 -5.21,11.14 -5.42,11.17 -5.63,11.19 -5.84,11.15 -6.05,11.11 -6.24,11.01 -6.42,10.90 -6.56,10.74 -6.70,10.58 -6.79,10.39 -6.87,10.19 -6.89,9.98 -6.90,9.77 -6.85,9.56 -6.80,9.36 -6.80,9.36 -6.80,9.36 -6.23,7.33 -5.67,5.31 -5.18,4.26 -4.69,3.21 -4.00,2.12 -3.32,1.03 -2.31,0.00 -1.30,-1.01 -1.16,-1.15 -1.01,-1.29 -0.84,-1.40 -0.67,-1.50 -0.48,-1.56 -0.29,-1.62 -0.09,-1.63 0.09,-1.64 0.29,-1.61 0.49,-1.57 0.67,-1.49 0.85,-1.41 1.01,-1.29 1.16,-1.16 1.29,-1.01 1.41,-0.85 1.49,-0.67 1.57,-0.49 1.61,-0.29 1.64,-0.10 1.63,0.09 1.62,0.29 1.56,0.48 1.50,0.67 1.40,0.84 1.30,1.01 1.30,1.01 L 1.30,1.01 Z"></path></g><g transform="translate(68.14861380178081 156.9639998767734) rotate(0 3.9186808649174054 5.757132653463486)" stroke="none"><path fill="#1e1e1e" d="M 1.12,-1.12 Q 1.12,-1.12 2.33,-0.29 3.54,0.52 4.50,1.76 5.46,2.99 6.28,4.24 7.11,5.50 8.09,8.28 9.07,11.06 9.11,11.27 9.15,11.48 9.12,11.69 9.09,11.90 8.99,12.09 8.89,12.28 8.74,12.43 8.59,12.58 8.40,12.67 8.21,12.77 8.00,12.79 7.79,12.82 7.58,12.78 7.37,12.74 7.19,12.63 7.00,12.53 6.86,12.37 6.72,12.21 6.64,12.01 6.56,11.82 6.54,11.61 6.52,11.39 6.58,11.19 6.63,10.98 6.74,10.80 6.86,10.63 7.03,10.49 7.19,10.36 7.39,10.29 7.59,10.22 7.81,10.21 8.02,10.21 8.22,10.27 8.42,10.34 8.59,10.46 8.77,10.59 8.89,10.76 9.01,10.93 9.07,11.14 9.13,11.34 9.13,11.55 9.12,11.76 9.05,11.96 8.97,12.16 8.84,12.33 8.70,12.49 8.52,12.61 8.34,12.72 8.14,12.77 7.93,12.82 7.72,12.80 7.51,12.78 7.31,12.70 7.12,12.61 6.96,12.47 6.80,12.33 6.70,12.14 6.60,11.95 6.60,11.95 6.60,11.95 5.08,9.91 3.57,7.87 2.79,6.73 2.02,5.60 1.26,4.57 0.50,3.54 -0.31,2.33 -1.12,1.12 -1.24,0.97 -1.36,0.82 -1.44,0.64 -1.52,0.47 -1.55,0.28 -1.59,0.09 -1.57,-0.09 -1.56,-0.29 -1.50,-0.47 -1.45,-0.65 -1.35,-0.82 -1.25,-0.98 -1.11,-1.12 -0.98,-1.25 -0.81,-1.35 -0.65,-1.45 -0.46,-1.51 -0.28,-1.56 -0.09,-1.57 0.09,-1.59 0.28,-1.55 0.47,-1.52 0.65,-1.44 0.82,-1.36 0.97,-1.24 1.12,-1.12 1.12,-1.12 L 1.12,-1.12 Z"></path></g><g transform="translate(73.96577074862944 157.29422191746198) rotate(0 -3.955183558360659 6.065354039771137)" stroke="none"><path fill="#1e1e1e" d="M 1.45,0.95 Q 1.45,0.95 0.35,2.81 -0.73,4.67 -1.84,6.20 -2.95,7.72 -3.90,8.91 -4.84,10.09 -5.83,11.48 -6.82,12.86 -6.96,13.01 -7.11,13.17 -7.30,13.27 -7.48,13.37 -7.69,13.40 -7.90,13.44 -8.11,13.41 -8.32,13.37 -8.51,13.27 -8.70,13.17 -8.84,13.02 -8.99,12.87 -9.08,12.67 -9.17,12.48 -9.19,12.27 -9.22,12.06 -9.17,11.85 -9.13,11.64 -9.02,11.46 -8.91,11.28 -8.75,11.14 -8.59,11.00 -8.39,10.92 -8.19,10.84 -7.98,10.83 -7.77,10.82 -7.56,10.88 -7.36,10.93 -7.18,11.05 -7.00,11.17 -6.88,11.34 -6.75,11.51 -6.68,11.71 -6.61,11.91 -6.61,12.12 -6.61,12.33 -6.68,12.54 -6.74,12.74 -6.87,12.91 -7.00,13.08 -7.18,13.20 -7.35,13.32 -7.56,13.37 -7.76,13.43 -7.97,13.42 -8.18,13.41 -8.38,13.33 -8.58,13.25 -8.74,13.12 -8.90,12.98 -9.01,12.80 -9.12,12.61 -9.17,12.41 -9.22,12.20 -9.19,11.99 -9.17,11.78 -9.08,11.58 -8.99,11.39 -8.99,11.39 -8.99,11.39 -8.09,9.98 -7.19,8.56 -6.51,7.24 -5.82,5.92 -4.91,4.22 -3.99,2.53 -2.72,0.79 -1.45,-0.95 -1.31,-1.11 -1.18,-1.27 -1.01,-1.39 -0.84,-1.51 -0.65,-1.59 -0.45,-1.67 -0.24,-1.70 -0.04,-1.73 0.16,-1.71 0.37,-1.69 0.57,-1.62 0.77,-1.55 0.94,-1.44 1.12,-1.32 1.26,-1.17 1.40,-1.02 1.50,-0.83 1.61,-0.65 1.66,-0.45 1.72,-0.25 1.72,-0.04 1.73,0.16 1.68,0.37 1.63,0.57 1.54,0.76 1.45,0.95 1.45,0.95 L 1.45,0.95 Z"></path></g><g transform="translate(39.47649088906837 188.24839984529444) rotate(0 4.490662508017522 5.0085975274914745)" stroke="none"><path fill="#1e1e1e" d="M 0.29,-1.52 Q 0.29,-1.52 1.12,-1.73 1.95,-1.95 3.02,-1.34 4.09,-0.74 4.89,0.11 5.69,0.97 6.35,1.99 7.02,3.00 7.67,4.08 8.33,5.17 9.12,7.13 9.92,9.10 10.04,9.27 10.16,9.44 10.22,9.65 10.28,9.85 10.27,10.06 10.26,10.28 10.19,10.47 10.11,10.67 9.98,10.84 9.84,11.00 9.66,11.11 9.48,11.23 9.27,11.27 9.07,11.32 8.85,11.30 8.64,11.28 8.45,11.20 8.26,11.11 8.10,10.97 7.94,10.82 7.84,10.64 7.74,10.45 7.70,10.24 7.66,10.03 7.69,9.82 7.73,9.61 7.82,9.42 7.92,9.23 8.07,9.08 8.22,8.94 8.42,8.84 8.61,8.75 8.82,8.73 9.03,8.70 9.24,8.74 9.44,8.79 9.63,8.89 9.81,9.00 9.95,9.16 10.09,9.32 10.17,9.52 10.25,9.71 10.27,9.92 10.28,10.14 10.23,10.34 10.18,10.55 10.06,10.72 9.94,10.90 9.78,11.03 9.61,11.16 9.41,11.23 9.21,11.31 8.99,11.31 8.78,11.31 8.58,11.25 8.38,11.18 8.21,11.06 8.04,10.93 8.04,10.93 8.04,10.93 6.16,9.26 4.29,7.60 3.67,6.57 3.05,5.54 1.99,4.02 0.92,2.50 0.31,2.01 -0.29,1.52 -0.47,1.46 -0.64,1.40 -0.80,1.30 -0.96,1.21 -1.09,1.07 -1.22,0.94 -1.32,0.78 -1.41,0.62 -1.47,0.44 -1.52,0.26 -1.53,0.07 -1.54,-0.10 -1.51,-0.29 -1.47,-0.47 -1.39,-0.64 -1.31,-0.81 -1.20,-0.96 -1.08,-1.10 -0.93,-1.22 -0.78,-1.33 -0.61,-1.40 -0.44,-1.48 -0.26,-1.51 -0.07,-1.54 0.10,-1.53 0.29,-1.52 0.29,-1.52 L 0.29,-1.52 Z"></path></g><g transform="translate(47.50856902143096 186.44310820704231) rotate(0 -3.9917039372185172 5.404874587566155)" stroke="none"><path fill="#1e1e1e" d="M 1.34,1.29 Q 1.34,1.29 0.07,2.95 -1.18,4.62 -2.08,5.83 -2.98,7.03 -3.79,8.01 -4.60,8.98 -5.70,10.40 -6.81,11.82 -6.93,11.99 -7.06,12.16 -7.23,12.28 -7.41,12.41 -7.61,12.47 -7.82,12.53 -8.03,12.52 -8.24,12.51 -8.44,12.43 -8.64,12.36 -8.80,12.22 -8.97,12.09 -9.08,11.91 -9.19,11.73 -9.24,11.52 -9.29,11.31 -9.27,11.10 -9.25,10.89 -9.16,10.70 -9.08,10.50 -8.93,10.35 -8.79,10.19 -8.60,10.09 -8.42,9.99 -8.21,9.95 -8.00,9.91 -7.79,9.94 -7.58,9.97 -7.39,10.07 -7.20,10.17 -7.05,10.32 -6.90,10.47 -6.81,10.66 -6.72,10.85 -6.69,11.06 -6.67,11.27 -6.71,11.48 -6.75,11.69 -6.86,11.87 -6.96,12.06 -7.12,12.20 -7.28,12.34 -7.48,12.42 -7.68,12.50 -7.89,12.52 -8.10,12.53 -8.31,12.48 -8.51,12.42 -8.69,12.31 -8.87,12.19 -9.00,12.02 -9.13,11.86 -9.20,11.66 -9.27,11.46 -9.27,11.24 -9.28,11.03 -9.21,10.83 -9.15,10.63 -9.15,10.63 -9.15,10.63 -8.55,8.78 -7.95,6.94 -7.34,5.59 -6.74,4.23 -5.66,2.79 -4.58,1.35 -2.96,0.02 -1.34,-1.29 -1.16,-1.43 -0.99,-1.57 -0.79,-1.67 -0.58,-1.77 -0.36,-1.81 -0.14,-1.86 0.07,-1.85 0.30,-1.84 0.51,-1.77 0.73,-1.71 0.93,-1.60 1.12,-1.48 1.28,-1.33 1.44,-1.17 1.56,-0.98 1.68,-0.79 1.75,-0.58 1.82,-0.36 1.84,-0.14 1.86,0.07 1.82,0.30 1.79,0.52 1.70,0.73 1.61,0.93 1.47,1.11 1.34,1.29 1.34,1.29 L 1.34,1.29 Z"></path></g><g transform="translate(69.43862323258145 188.27043587050412) rotate(0 3.9551835583615684 5.019597854681706)" stroke="none"><path fill="#1e1e1e" d="M 1.23,-1.00 Q 1.23,-1.00 2.61,0.23 3.99,1.48 4.85,2.57 5.71,3.66 6.40,4.55 7.08,5.43 8.02,7.33 8.95,9.24 9.05,9.42 9.15,9.61 9.18,9.82 9.22,10.03 9.18,10.24 9.15,10.45 9.05,10.64 8.95,10.83 8.80,10.97 8.64,11.12 8.45,11.21 8.26,11.30 8.05,11.32 7.84,11.35 7.63,11.30 7.42,11.26 7.24,11.15 7.06,11.04 6.92,10.88 6.78,10.71 6.70,10.52 6.62,10.32 6.61,10.11 6.60,9.90 6.66,9.69 6.71,9.49 6.83,9.31 6.95,9.13 7.12,9.00 7.29,8.88 7.49,8.81 7.69,8.74 7.90,8.74 8.12,8.74 8.32,8.81 8.52,8.87 8.69,9.00 8.86,9.13 8.98,9.30 9.10,9.48 9.15,9.68 9.21,9.89 9.20,10.10 9.19,10.31 9.11,10.51 9.03,10.71 8.89,10.87 8.76,11.03 8.58,11.14 8.39,11.25 8.19,11.30 7.98,11.35 7.77,11.32 7.56,11.30 7.36,11.21 7.17,11.12 7.02,10.98 6.86,10.83 6.86,10.83 6.86,10.83 5.25,9.47 3.63,8.11 2.95,7.23 2.26,6.34 1.44,5.28 0.62,4.21 -0.30,2.60 -1.23,1.00 -1.34,0.84 -1.44,0.67 -1.50,0.49 -1.56,0.31 -1.57,0.12 -1.59,-0.06 -1.56,-0.25 -1.52,-0.44 -1.45,-0.62 -1.37,-0.80 -1.26,-0.95 -1.14,-1.10 -0.99,-1.22 -0.84,-1.34 -0.67,-1.43 -0.49,-1.51 -0.31,-1.55 -0.12,-1.58 0.06,-1.58 0.26,-1.57 0.44,-1.51 0.62,-1.46 0.79,-1.36 0.96,-1.27 1.09,-1.13 1.23,-1.00 1.23,-1.00 L 1.23,-1.00 Z"></path></g><g transform="translate(76.54578961023253 186.70729291375937) rotate(0 -5.43990939168998 7.804590658637153)" stroke="none"><path fill="#1e1e1e" d="M 1.26,1.31 Q 1.26,1.31 0.36,2.59 -0.52,3.86 -1.36,5.17 -2.20,6.48 -3.04,7.88 -3.88,9.27 -4.78,10.60 -5.69,11.92 -7.74,14.13 -9.78,16.34 -9.93,16.49 -10.07,16.65 -10.26,16.75 -10.45,16.85 -10.66,16.88 -10.87,16.92 -11.08,16.88 -11.29,16.85 -11.48,16.75 -11.66,16.65 -11.81,16.50 -11.96,16.35 -12.05,16.15 -12.14,15.96 -12.16,15.75 -12.19,15.54 -12.14,15.33 -12.10,15.12 -11.99,14.94 -11.88,14.76 -11.72,14.62 -11.56,14.48 -11.36,14.40 -11.16,14.32 -10.95,14.31 -10.74,14.30 -10.53,14.35 -10.33,14.41 -10.15,14.53 -9.98,14.65 -9.85,14.81 -9.72,14.98 -9.65,15.18 -9.58,15.38 -9.58,15.60 -9.58,15.81 -9.64,16.01 -9.71,16.21 -9.84,16.38 -9.97,16.55 -10.14,16.67 -10.32,16.79 -10.52,16.85 -10.73,16.91 -10.94,16.90 -11.15,16.89 -11.35,16.81 -11.55,16.73 -11.71,16.60 -11.87,16.46 -11.98,16.28 -12.09,16.10 -12.14,15.89 -12.19,15.68 -12.16,15.47 -12.14,15.26 -12.05,15.07 -11.97,14.87 -11.97,14.87 -11.97,14.87 -10.82,12.18 -9.67,9.49 -8.91,8.09 -8.16,6.69 -7.23,5.16 -6.30,3.63 -5.10,2.00 -3.89,0.36 -2.58,-0.47 -1.26,-1.31 -1.08,-1.44 -0.90,-1.58 -0.70,-1.66 -0.50,-1.75 -0.28,-1.78 -0.06,-1.82 0.14,-1.80 0.36,-1.78 0.57,-1.71 0.78,-1.64 0.97,-1.52 1.15,-1.40 1.30,-1.25 1.46,-1.09 1.57,-0.90 1.67,-0.71 1.74,-0.49 1.80,-0.28 1.80,-0.06 1.81,0.15 1.77,0.36 1.72,0.58 1.63,0.78 1.53,0.97 1.39,1.14 1.26,1.31 1.26,1.31 L 1.26,1.31 Z"></path></g><g transform="translate(32.004226835326335 149.83090668294517) rotate(0 27.95409512500919 -0.5724237784370416)" stroke="none"><path fill="#1971c2" d="M 0,-1.38 Q 0,-1.38 1.00,-1.45 2.01,-1.52 4.45,-1.69 6.88,-1.86 8.12,-1.95 9.35,-2.03 10.55,-2.07 11.75,-2.12 13.19,-2.16 14.62,-2.21 16.84,-2.25 19.06,-2.30 20.42,-2.33 21.78,-2.35 22.94,-2.39 24.11,-2.43 25.20,-2.46 26.29,-2.49 27.50,-2.52 28.72,-2.56 30.71,-2.61 32.70,-2.66 34.43,-2.68 36.17,-2.70 37.48,-2.70 38.78,-2.70 39.99,-2.70 41.20,-2.69 42.48,-2.69 43.77,-2.69 44.90,-2.69 46.03,-2.69 47.63,-2.69 49.22,-2.69 50.42,-2.69 51.61,-2.69 53.99,-2.34 56.38,-1.99 56.56,-1.88 56.74,-1.77 56.88,-1.61 57.02,-1.45 57.10,-1.26 57.18,-1.06 57.20,-0.85 57.21,-0.64 57.15,-0.43 57.10,-0.22 56.98,-0.05 56.86,0.12 56.70,0.25 56.53,0.38 56.33,0.45 56.13,0.52 55.91,0.52 55.70,0.52 55.50,0.46 55.30,0.39 55.13,0.26 54.96,0.14 54.84,-0.03 54.72,-0.20 54.66,-0.41 54.60,-0.61 54.61,-0.82 54.62,-1.04 54.70,-1.23 54.77,-1.43 54.91,-1.60 55.04,-1.76 55.23,-1.87 55.41,-1.98 55.61,-2.03 55.82,-2.08 56.03,-2.06 56.24,-2.03 56.44,-1.95 56.63,-1.86 56.79,-1.71 56.94,-1.57 57.04,-1.38 57.14,-1.20 57.18,-0.99 57.22,-0.78 57.18,-0.57 57.15,-0.36 57.05,-0.17 56.96,0.01 56.80,0.16 56.65,0.31 56.46,0.40 56.27,0.49 56.05,0.51 55.84,0.54 55.64,0.49 55.43,0.45 55.43,0.45 55.43,0.45 53.52,0.42 51.61,0.40 50.42,0.40 49.22,0.40 47.63,0.40 46.03,0.40 44.90,0.40 43.77,0.40 42.48,0.40 41.20,0.40 39.99,0.41 38.79,0.42 37.49,0.42 36.19,0.42 34.49,0.44 32.79,0.46 30.80,0.51 28.81,0.56 27.59,0.59 26.37,0.63 25.29,0.66 24.21,0.69 23.03,0.73 21.84,0.76 20.48,0.79 19.11,0.82 16.92,0.85 14.72,0.88 13.29,0.93 11.86,0.97 10.70,1.01 9.53,1.06 8.33,1.12 7.13,1.19 5.71,1.30 4.29,1.41 3.15,1.46 2.01,1.52 1.00,1.45 0,1.38 -0.16,1.36 -0.33,1.34 -0.48,1.28 -0.64,1.22 -0.78,1.13 -0.92,1.03 -1.03,0.91 -1.14,0.78 -1.21,0.64 -1.29,0.49 -1.33,0.32 -1.37,0.16 -1.37,-0.00 -1.37,-0.16 -1.33,-0.32 -1.29,-0.49 -1.21,-0.64 -1.14,-0.78 -1.03,-0.91 -0.92,-1.03 -0.78,-1.13 -0.64,-1.22 -0.48,-1.28 -0.33,-1.34 -0.16,-1.36 0.00,-1.38 0.00,-1.38 L 0,-1.38 Z"></path></g><g transform="translate(87.91241708534471 149.69879664417385) rotate(0 0.45027062745975854 29.710274369999297)" stroke="none"><path fill="#1971c2" d="M 1.33,0.16 Q 1.33,0.16 1.36,1.19 1.40,2.23 1.36,3.40 1.33,4.57 1.34,5.66 1.36,6.76 1.39,7.83 1.42,8.90 1.46,10.12 1.49,11.33 1.51,12.72 1.52,14.11 1.53,15.44 1.55,16.78 1.81,17.88 2.07,18.98 2.33,20.54 2.59,22.09 2.71,23.44 2.83,24.79 2.94,26.07 3.05,27.35 3.18,28.58 3.30,29.80 3.38,31.10 3.45,32.39 3.48,33.53 3.50,34.67 3.51,35.78 3.52,36.89 3.52,38.38 3.52,39.87 3.38,41.28 3.24,42.70 3.09,43.81 2.94,44.93 2.71,46.07 2.48,47.22 2.28,48.63 2.08,50.05 1.99,51.38 1.90,52.72 1.89,53.80 1.88,54.89 1.37,57.15 0.87,59.42 0.84,59.63 0.80,59.83 0.70,60.02 0.60,60.21 0.45,60.36 0.29,60.50 0.10,60.59 -0.08,60.68 -0.29,60.70 -0.50,60.73 -0.71,60.68 -0.92,60.64 -1.10,60.53 -1.28,60.42 -1.42,60.25 -1.56,60.09 -1.64,59.90 -1.72,59.70 -1.73,59.49 -1.74,59.27 -1.68,59.07 -1.63,58.86 -1.51,58.69 -1.39,58.51 -1.22,58.38 -1.05,58.26 -0.85,58.19 -0.65,58.12 -0.43,58.12 -0.22,58.12 -0.02,58.19 0.17,58.26 0.34,58.38 0.51,58.51 0.63,58.69 0.75,58.86 0.81,59.07 0.86,59.27 0.85,59.49 0.84,59.70 0.76,59.90 0.68,60.09 0.54,60.25 0.41,60.42 0.22,60.53 0.04,60.64 -0.15,60.68 -0.36,60.73 -0.57,60.70 -0.78,60.68 -0.98,60.59 -1.17,60.50 -1.32,60.36 -1.48,60.21 -1.58,60.02 -1.68,59.83 -1.71,59.62 -1.75,59.42 -1.75,59.42 -1.75,59.42 -2.25,56.79 -2.74,54.16 -2.70,52.82 -2.65,51.49 -2.44,49.98 -2.24,48.47 -2.05,47.40 -1.87,46.33 -1.56,44.79 -1.25,43.24 -1.04,41.56 -0.84,39.87 -0.84,38.38 -0.84,36.89 -0.84,35.79 -0.83,34.70 -0.83,33.59 -0.82,32.49 -0.85,31.33 -0.87,30.17 -0.99,28.94 -1.10,27.70 -1.20,26.39 -1.30,25.08 -1.41,23.80 -1.52,22.53 -1.69,21.22 -1.85,19.91 -2.14,18.35 -2.42,16.79 -2.41,15.45 -2.40,14.11 -2.38,12.72 -2.37,11.33 -2.33,10.11 -2.30,8.89 -2.26,7.81 -2.22,6.73 -2.18,5.58 -2.14,4.43 -2.02,3.12 -1.90,1.81 -1.61,0.82 -1.33,-0.16 -1.29,-0.32 -1.25,-0.47 -1.17,-0.62 -1.10,-0.76 -0.99,-0.88 -0.88,-1.00 -0.75,-1.09 -0.62,-1.19 -0.46,-1.24 -0.31,-1.30 -0.15,-1.32 0.00,-1.34 0.16,-1.32 0.32,-1.30 0.47,-1.24 0.62,-1.18 0.76,-1.09 0.89,-1.00 1.00,-0.88 1.10,-0.75 1.18,-0.61 1.25,-0.47 1.29,-0.31 1.33,-0.15 1.33,0.00 1.33,0.16 1.33,0.16 L 1.33,0.16 Z"></path></g><g transform="translate(29.98402205234015 150.953682843784) rotate(0 0.9857672625303167 28.334296144221753)" stroke="none"><path fill="#1971c2" d="M 1.41,0 Q 1.41,0 1.60,1.27 1.79,2.55 1.80,3.67 1.80,4.79 2.10,6.53 2.40,8.27 2.55,9.44 2.71,10.62 2.81,11.72 2.92,12.81 3.06,14.99 3.20,17.17 3.25,19.13 3.29,21.10 3.31,22.89 3.33,24.67 3.47,26.11 3.62,27.56 3.65,29.11 3.69,30.67 3.69,32.06 3.70,33.45 3.85,35.09 4.00,36.72 4.03,38.20 4.06,39.67 4.07,40.93 4.07,42.19 4.08,43.25 4.08,44.31 4.11,45.81 4.14,47.31 4.17,48.71 4.20,50.10 4.20,51.34 4.20,52.58 3.74,54.36 3.28,56.14 3.26,56.29 3.24,56.45 3.19,56.60 3.13,56.75 3.04,56.88 2.95,57.01 2.83,57.11 2.71,57.22 2.57,57.29 2.43,57.36 2.28,57.40 2.12,57.44 1.97,57.44 1.81,57.44 1.65,57.40 1.50,57.36 1.36,57.29 1.22,57.22 1.10,57.11 0.98,57.01 0.89,56.88 0.80,56.75 0.75,56.60 0.69,56.45 0.67,56.29 0.65,56.14 0.69,55.93 0.72,55.72 0.82,55.53 0.92,55.34 1.08,55.19 1.23,55.05 1.42,54.96 1.62,54.87 1.83,54.85 2.04,54.82 2.25,54.87 2.45,54.92 2.63,55.02 2.82,55.13 2.95,55.30 3.09,55.46 3.17,55.66 3.25,55.85 3.26,56.07 3.27,56.28 3.22,56.48 3.16,56.69 3.04,56.86 2.92,57.04 2.75,57.17 2.58,57.30 2.38,57.36 2.18,57.43 1.97,57.43 1.75,57.43 1.55,57.36 1.35,57.30 1.18,57.17 1.01,57.04 0.89,56.86 0.77,56.69 0.72,56.48 0.66,56.28 0.67,56.06 0.68,55.85 0.76,55.66 0.84,55.46 0.98,55.30 1.12,55.13 1.30,55.02 1.48,54.92 1.69,54.87 1.90,54.82 2.11,54.85 2.32,54.87 2.51,54.96 2.70,55.05 2.86,55.19 3.01,55.34 3.11,55.53 3.21,55.72 3.25,55.93 3.28,56.14 3.28,56.14 3.28,56.14 3.26,56.29 3.24,56.45 3.19,56.60 3.13,56.75 3.04,56.88 2.95,57.01 2.83,57.11 2.71,57.22 2.57,57.29 2.43,57.36 2.28,57.40 2.12,57.44 1.97,57.44 1.81,57.44 1.65,57.40 1.50,57.36 1.36,57.29 1.22,57.22 1.10,57.11 0.98,57.01 0.89,56.88 0.80,56.75 0.75,56.60 0.69,56.45 0.67,56.29 0.65,56.14 0.19,54.70 -0.26,53.27 -0.26,52.16 -0.26,51.05 -0.24,49.69 -0.22,48.33 -0.19,46.90 -0.17,45.47 -0.15,44.31 -0.13,43.16 -0.13,42.00 -0.13,40.84 -0.13,39.67 -0.14,38.50 -0.19,37.34 -0.25,36.17 -0.34,34.81 -0.44,33.46 -0.45,32.09 -0.45,30.72 -0.47,29.27 -0.49,27.81 -0.65,26.25 -0.81,24.69 -0.80,22.92 -0.79,21.15 -0.82,19.27 -0.85,17.39 -0.96,15.28 -1.07,13.17 -1.16,12.10 -1.25,11.02 -1.43,8.98 -1.61,6.94 -1.71,5.87 -1.80,4.79 -1.80,3.67 -1.79,2.55 -1.60,1.27 -1.41,0 -1.39,-0.16 -1.37,-0.33 -1.31,-0.49 -1.25,-0.65 -1.15,-0.79 -1.06,-0.93 -0.93,-1.05 -0.80,-1.16 -0.65,-1.24 -0.50,-1.32 -0.33,-1.36 -0.17,-1.40 0.00,-1.40 0.17,-1.40 0.33,-1.36 0.50,-1.32 0.65,-1.24 0.80,-1.16 0.93,-1.05 1.06,-0.93 1.15,-0.79 1.25,-0.65 1.31,-0.49 1.37,-0.33 1.39,-0.16 1.41,0.00 1.41,0.00 L 1.41,0 Z"></path></g><g transform="translate(33.68366907118252 208.613011995948) rotate(0 28.7816309930422 -0.37429409110609413)" stroke="none"><path fill="#1971c2" d="M 0.06,-1.47 Q 0.06,-1.47 0.90,-1.73 1.73,-1.99 3.38,-2.17 5.03,-2.35 6.19,-2.56 7.35,-2.76 8.87,-2.87 10.39,-2.99 12.31,-3.04 14.23,-3.10 16.51,-3.12 18.78,-3.13 19.91,-3.13 21.04,-3.14 22.15,-3.14 23.26,-3.14 24.49,-3.14 25.72,-3.14 27.74,-3.14 29.76,-3.14 31.73,-3.14 33.70,-3.14 35.57,-3.14 37.44,-3.14 38.84,-3.14 40.23,-3.14 41.94,-3.14 43.66,-3.14 45.18,-3.15 46.69,-3.15 47.85,-3.15 49.00,-3.15 50.14,-2.99 51.27,-2.82 52.51,-2.79 53.74,-2.77 55.65,-2.28 57.56,-1.79 57.77,-1.76 57.98,-1.72 58.17,-1.62 58.35,-1.52 58.50,-1.37 58.65,-1.22 58.73,-1.02 58.82,-0.83 58.85,-0.62 58.87,-0.41 58.82,-0.20 58.78,0.00 58.67,0.18 58.56,0.36 58.40,0.50 58.23,0.64 58.04,0.72 57.84,0.79 57.63,0.80 57.42,0.82 57.21,0.76 57.01,0.70 56.83,0.58 56.65,0.46 56.53,0.29 56.40,0.12 56.33,-0.07 56.26,-0.27 56.26,-0.48 56.26,-0.69 56.33,-0.89 56.40,-1.10 56.53,-1.26 56.66,-1.43 56.83,-1.55 57.01,-1.67 57.21,-1.73 57.42,-1.79 57.63,-1.77 57.84,-1.76 58.04,-1.68 58.24,-1.60 58.40,-1.47 58.56,-1.33 58.67,-1.15 58.78,-0.96 58.82,-0.76 58.87,-0.55 58.85,-0.34 58.82,-0.13 58.73,0.06 58.64,0.25 58.50,0.40 58.35,0.56 58.16,0.66 57.98,0.76 57.77,0.79 57.56,0.82 57.56,0.82 57.56,0.82 54.86,1.29 52.16,1.76 50.57,1.57 48.98,1.39 47.84,1.39 46.69,1.39 45.18,1.38 43.66,1.38 41.94,1.38 40.23,1.38 38.84,1.38 37.44,1.38 35.57,1.38 33.70,1.38 31.73,1.38 29.76,1.38 27.74,1.38 25.72,1.38 24.49,1.38 23.26,1.38 22.15,1.38 21.05,1.38 19.92,1.38 18.80,1.39 16.57,1.40 14.34,1.42 13.24,1.45 12.14,1.47 10.69,1.51 9.24,1.54 7.92,1.67 6.60,1.79 5.53,1.91 4.46,2.03 3.00,2.09 1.54,2.14 0.73,1.81 -0.06,1.47 -0.24,1.44 -0.41,1.41 -0.58,1.34 -0.74,1.27 -0.88,1.16 -1.02,1.05 -1.14,0.92 -1.25,0.78 -1.32,0.62 -1.40,0.45 -1.43,0.28 -1.47,0.10 -1.46,-0.06 -1.45,-0.24 -1.40,-0.41 -1.35,-0.58 -1.26,-0.74 -1.17,-0.89 -1.05,-1.02 -0.92,-1.14 -0.77,-1.24 -0.62,-1.33 -0.45,-1.39 -0.28,-1.44 -0.10,-1.46 0.06,-1.47 0.06,-1.47 L 0.06,-1.47 Z"></path></g></svg>