<svg version="1.1" xmlns="http://www.w3.org/2000/svg" viewBox="0 0 342.01320940599544 205.60357339406437" width="684.0264188119909" height="411.20714678812874"><!-- svg-source:excalidraw --><metadata></metadata><defs><style class="style-fonts">
      </style></defs><rect x="0" y="0" width="342.01320940599544" height="205.60357339406437" fill="#ffffff"></rect><g transform="translate(11.57351511080924 11.379077328312633) rotate(0 -1.8189894035458565e-12 19.996621260545908)" stroke="none"><path fill="#1e1e1e" d="M 1.44,0.20 Q 1.44,0.20 1.61,1.64 1.77,3.08 1.73,4.38 1.68,5.67 1.66,6.82 1.65,7.97 1.65,9.24 1.64,10.52 1.67,12.45 1.70,14.39 1.74,16.23 1.77,18.08 1.77,20.02 1.78,21.97 1.79,23.53 1.80,25.10 1.82,26.71 1.84,28.32 1.87,30.02 1.89,31.72 1.90,33.05 1.92,34.37 2.16,35.43 2.40,36.48 2.06,36.80 1.72,37.12 1.81,37.25 1.89,37.39 1.93,37.54 1.98,37.69 1.99,37.85 1.99,38.01 1.97,38.16 1.94,38.32 1.87,38.46 1.80,38.61 1.70,38.73 1.61,38.86 1.48,38.95 1.36,39.05 1.21,39.11 1.07,39.18 0.91,39.20 0.75,39.23 0.60,39.22 0.44,39.21 0.29,39.16 0.14,39.11 0.00,39.03 -0.12,38.95 -0.23,38.83 -0.35,38.72 -0.39,37.98 -0.43,37.25 -0.30,37.08 -0.16,36.92 0.01,36.81 0.19,36.70 0.40,36.65 0.61,36.61 0.82,36.63 1.03,36.65 1.22,36.74 1.42,36.83 1.57,36.98 1.73,37.12 1.83,37.31 1.93,37.50 1.96,37.71 2.00,37.92 1.96,38.12 1.93,38.33 1.83,38.52 1.73,38.71 1.58,38.86 1.43,39.00 1.23,39.09 1.04,39.18 0.83,39.21 0.62,39.23 0.41,39.19 0.20,39.14 0.02,39.03 -0.15,38.92 -0.29,38.76 -0.43,38.60 -0.51,38.40 -0.59,38.21 -0.60,37.99 -0.61,37.78 -0.56,37.58 -0.50,37.37 -0.38,37.20 -0.26,37.02 -0.09,36.89 0.07,36.76 0.27,36.69 0.47,36.62 0.68,36.62 0.89,36.62 1.09,36.69 1.30,36.76 1.47,36.89 1.64,37.01 1.75,37.19 1.87,37.36 1.93,37.57 1.99,37.77 1.98,37.99 1.97,38.20 1.85,37.66 1.72,37.12 1.81,37.25 1.89,37.39 1.93,37.54 1.98,37.69 1.99,37.85 1.99,38.01 1.97,38.16 1.94,38.32 1.87,38.46 1.80,38.61 1.70,38.73 1.61,38.86 1.48,38.95 1.36,39.05 1.21,39.11 1.07,39.18 0.91,39.20 0.75,39.23 0.60,39.22 0.44,39.21 0.29,39.16 0.14,39.11 0.00,39.03 -0.12,38.95 -0.23,38.83 -0.35,38.72 -1.10,39.19 -1.85,39.65 -2.57,38.16 -3.29,36.67 -3.29,35.52 -3.30,34.37 -3.28,33.05 -3.27,31.72 -3.25,30.02 -3.22,28.32 -3.20,26.71 -3.18,25.10 -3.17,23.53 -3.16,21.96 -3.15,20.02 -3.14,18.07 -3.11,16.22 -3.08,14.37 -3.03,12.42 -2.98,10.46 -2.95,9.15 -2.92,7.83 -2.86,6.62 -2.81,5.40 -2.69,3.93 -2.57,2.46 -2.00,1.12 -1.44,-0.20 -1.40,-0.37 -1.35,-0.54 -1.27,-0.70 -1.18,-0.85 -1.06,-0.98 -0.94,-1.11 -0.79,-1.21 -0.65,-1.30 -0.48,-1.36 -0.31,-1.42 -0.14,-1.44 0.03,-1.46 0.20,-1.43 0.37,-1.41 0.54,-1.34 0.70,-1.27 0.84,-1.17 0.99,-1.07 1.10,-0.93 1.22,-0.80 1.29,-0.64 1.37,-0.48 1.41,-0.31 1.45,-0.14 1.45,0.03 1.44,0.20 1.44,0.20 L 1.44,0.20 Z"></path></g><g transform="translate(10.883976446650195 10.689538664155407) rotate(0 31.37400921913286 18.39800179102349)" stroke="none"><path fill="#1e1e1e" d="M 0,-1.43 Q 0,-1.43 1.38,-1.58 2.77,-1.73 5.11,-1.52 7.45,-1.31 8.67,-1.25 9.90,-1.18 11.21,-1.14 12.53,-1.10 14.18,-1.28 15.83,-1.47 17.41,-1.53 19.00,-1.60 20.36,-1.81 21.72,-2.02 23.41,-2.12 25.10,-2.22 26.40,-2.26 27.70,-2.30 28.85,-2.32 30.01,-2.34 31.29,-2.34 32.58,-2.34 34.51,-2.35 36.45,-2.36 38.69,-2.35 40.93,-2.34 42.05,-2.34 43.17,-2.34 44.23,-2.34 45.30,-2.34 46.91,-2.34 48.52,-2.34 50.22,-2.34 51.93,-2.34 53.73,-2.09 55.53,-1.85 57.04,-1.76 58.56,-1.67 59.98,-1.64 61.40,-1.60 61.79,-1.60 62.18,-1.59 62.37,-1.57 62.56,-1.54 62.74,-1.47 62.92,-1.40 63.07,-1.30 63.23,-1.19 63.36,-1.04 63.49,-0.90 63.57,-0.73 63.66,-0.56 63.71,-0.37 63.75,-0.18 63.75,0.00 63.75,0.19 63.71,0.38 63.66,0.56 63.57,0.73 63.48,0.90 63.35,1.05 63.23,1.19 63.07,1.30 62.91,1.41 62.73,1.48 62.55,1.54 62.36,1.57 62.17,1.59 62.41,2.74 62.66,3.90 62.66,5.23 62.66,6.55 62.72,8.02 62.77,9.49 63.00,11.36 63.23,13.22 63.34,14.37 63.46,15.52 63.71,17.15 63.96,18.78 64.09,19.92 64.23,21.06 64.31,22.91 64.39,24.76 64.40,26.79 64.42,28.82 64.43,30.49 64.44,32.15 64.44,33.30 64.44,34.45 62.87,35.84 61.30,37.23 61.28,37.39 61.26,37.54 61.20,37.69 61.15,37.84 61.06,37.97 60.97,38.10 60.85,38.21 60.73,38.31 60.59,38.38 60.45,38.46 60.30,38.50 60.14,38.53 59.98,38.53 59.83,38.53 59.67,38.50 59.52,38.46 59.38,38.38 59.24,38.31 59.12,38.21 59.00,38.10 58.91,37.97 58.82,37.84 58.77,37.69 58.71,37.54 58.69,37.39 58.67,37.23 59.07,37.83 59.47,38.44 59.29,38.32 59.11,38.21 58.98,38.04 58.84,37.88 58.77,37.68 58.70,37.48 58.69,37.27 58.68,37.05 58.75,36.85 58.81,36.65 58.93,36.48 59.06,36.30 59.23,36.18 59.40,36.05 59.60,35.99 59.81,35.93 60.02,35.93 60.23,35.94 60.43,36.01 60.63,36.09 60.80,36.22 60.96,36.35 61.08,36.53 61.19,36.71 61.24,36.92 61.29,37.12 61.28,37.33 61.26,37.55 61.18,37.74 61.09,37.94 60.95,38.09 60.81,38.25 60.62,38.36 60.44,38.46 60.23,38.50 60.02,38.54 59.81,38.51 59.60,38.49 59.41,38.39 59.22,38.30 59.07,38.15 58.92,38.00 58.82,37.81 58.73,37.62 58.70,37.41 58.67,37.20 58.71,36.99 58.75,36.78 58.86,36.59 58.96,36.41 59.12,36.27 59.28,36.12 59.47,36.04 59.67,35.96 59.88,35.94 60.09,35.92 60.69,36.58 61.30,37.23 61.28,37.39 61.26,37.54 61.20,37.69 61.15,37.84 61.06,37.97 60.97,38.10 60.85,38.21 60.73,38.31 60.59,38.38 60.45,38.46 60.30,38.50 60.14,38.53 59.99,38.53 59.83,38.53 59.67,38.50 59.52,38.46 59.38,38.38 59.24,38.31 59.12,38.21 59.00,38.10 58.91,37.97 58.82,37.84 58.77,37.69 58.71,37.54 58.69,37.39 58.67,37.23 59.17,35.36 59.67,33.49 59.68,32.19 59.68,30.89 59.68,28.85 59.67,26.81 59.66,24.92 59.66,23.03 59.59,21.40 59.52,19.77 59.28,18.63 59.05,17.48 58.98,15.76 58.91,14.04 58.75,11.75 58.59,9.47 58.66,7.96 58.74,6.46 58.85,4.79 58.96,3.11 59.38,1.74 59.80,0.37 60.99,-0.61 62.18,-1.59 62.37,-1.57 62.56,-1.54 62.74,-1.47 62.92,-1.40 63.07,-1.30 63.23,-1.19 63.36,-1.04 63.49,-0.90 63.57,-0.73 63.66,-0.56 63.71,-0.37 63.75,-0.18 63.75,0.00 63.75,0.19 63.71,0.38 63.66,0.56 63.57,0.73 63.48,0.90 63.35,1.05 63.23,1.19 63.07,1.30 62.91,1.41 62.73,1.47 62.55,1.54 62.36,1.57 62.17,1.59 61.34,1.59 60.50,1.60 58.94,1.60 57.37,1.61 55.92,1.44 54.46,1.26 53.19,1.11 51.93,0.96 50.22,0.96 48.52,0.96 46.91,0.96 45.30,0.96 44.23,0.96 43.17,0.96 42.05,0.96 40.94,0.96 38.69,0.97 36.45,0.99 34.52,0.99 32.59,0.98 31.33,1.00 30.06,1.01 28.93,1.03 27.81,1.05 26.56,1.09 25.30,1.13 23.78,1.22 22.25,1.32 20.72,1.58 19.18,1.83 17.68,1.92 16.19,2.01 14.31,2.19 12.44,2.37 11.05,2.34 9.67,2.31 8.28,2.21 6.89,2.11 4.83,1.92 2.77,1.73 1.38,1.58 0,1.43 -0.17,1.41 -0.34,1.39 -0.50,1.32 -0.66,1.26 -0.80,1.17 -0.94,1.07 -1.06,0.94 -1.17,0.81 -1.25,0.66 -1.33,0.50 -1.38,0.34 -1.42,0.17 -1.42,-0.00 -1.42,-0.17 -1.38,-0.34 -1.33,-0.50 -1.25,-0.66 -1.17,-0.81 -1.06,-0.94 -0.94,-1.07 -0.80,-1.17 -0.66,-1.26 -0.50,-1.32 -0.34,-1.39 -0.17,-1.41 0.00,-1.43 0.00,-1.43 L 0,-1.43 Z"></path></g><g transform="translate(10.883976446650195 52.061858513561674) rotate(0 32.063547883290084 -2.068615992470768)" stroke="none"><path fill="#1e1e1e" d="M 0,-1.37 Q 0,-1.37 1.98,-1.70 3.96,-2.03 5.68,-2.24 7.40,-2.45 9.84,-2.54 12.28,-2.63 14.50,-2.68 16.71,-2.72 19.04,-2.74 21.37,-2.75 24.15,-2.76 26.92,-2.76 29.20,-2.96 31.49,-3.16 33.73,-3.25 35.97,-3.33 38.32,-3.36 40.66,-3.40 42.65,-3.41 44.63,-3.43 46.15,-3.62 47.66,-3.82 49.01,-3.91 50.35,-4.01 52.15,-4.06 53.94,-4.11 55.40,-4.12 56.86,-4.13 58.34,-4.14 59.83,-4.15 61.02,-4.18 62.21,-4.21 62.82,-4.83 63.43,-5.45 63.59,-5.43 63.75,-5.41 63.89,-5.35 64.04,-5.30 64.17,-5.21 64.30,-5.12 64.41,-5.00 64.51,-4.88 64.59,-4.74 64.66,-4.60 64.70,-4.44 64.74,-4.29 64.74,-4.13 64.74,-3.97 64.70,-3.82 64.66,-3.67 64.59,-3.53 64.51,-3.39 64.41,-3.27 64.30,-3.15 64.17,-3.06 64.04,-2.97 63.89,-2.91 63.75,-2.86 63.59,-2.84 63.43,-2.82 62.79,-3.60 62.14,-4.38 62.22,-4.58 62.29,-4.78 62.42,-4.94 62.55,-5.11 62.73,-5.22 62.91,-5.34 63.12,-5.39 63.32,-5.44 63.54,-5.42 63.75,-5.41 63.94,-5.32 64.14,-5.24 64.30,-5.10 64.45,-4.96 64.56,-4.77 64.66,-4.59 64.70,-4.38 64.75,-4.17 64.72,-3.96 64.69,-3.75 64.59,-3.56 64.50,-3.37 64.35,-3.22 64.20,-3.07 64.01,-2.97 63.82,-2.88 63.61,-2.85 63.40,-2.82 63.19,-2.86 62.98,-2.90 62.80,-3.00 62.61,-3.11 62.47,-3.27 62.33,-3.42 62.24,-3.62 62.16,-3.81 62.14,-4.02 62.12,-4.24 62.17,-4.44 62.23,-4.65 62.34,-4.83 62.45,-5.01 62.62,-5.14 62.78,-5.27 62.98,-5.35 63.18,-5.42 63.40,-5.43 63.61,-5.43 63.81,-5.37 64.01,-5.31 64.19,-5.19 64.36,-5.06 64.48,-4.89 64.61,-4.72 64.67,-4.51 64.73,-4.31 64.08,-4.88 63.43,-5.45 63.59,-5.43 63.75,-5.41 63.89,-5.35 64.04,-5.30 64.17,-5.21 64.30,-5.12 64.41,-5.00 64.51,-4.88 64.59,-4.74 64.66,-4.60 64.70,-4.44 64.74,-4.29 64.74,-4.13 64.74,-3.97 64.70,-3.82 64.66,-3.67 64.59,-3.53 64.51,-3.39 64.41,-3.27 64.30,-3.15 64.17,-3.06 64.04,-2.97 63.89,-2.91 63.75,-2.86 63.59,-2.84 63.43,-2.82 62.82,-1.37 62.21,0.07 61.02,0.04 59.83,0.02 58.35,0.01 56.88,0.01 55.45,0.01 54.02,0.02 52.33,0.07 50.63,0.13 49.40,0.21 48.17,0.29 46.42,0.50 44.67,0.71 42.70,0.73 40.73,0.74 38.43,0.79 36.13,0.83 33.99,0.91 31.84,0.99 29.39,1.20 26.93,1.40 24.17,1.41 21.40,1.42 19.09,1.43 16.78,1.45 14.61,1.48 12.43,1.50 10.14,1.58 7.85,1.66 5.91,1.85 3.96,2.03 1.98,1.70 0,1.37 -0.16,1.35 -0.32,1.33 -0.48,1.27 -0.63,1.21 -0.77,1.12 -0.91,1.02 -1.02,0.90 -1.12,0.77 -1.20,0.63 -1.28,0.48 -1.32,0.32 -1.36,0.16 -1.36,-0.00 -1.36,-0.16 -1.32,-0.32 -1.28,-0.48 -1.20,-0.63 -1.12,-0.77 -1.02,-0.90 -0.91,-1.02 -0.77,-1.12 -0.63,-1.21 -0.48,-1.27 -0.32,-1.33 -0.16,-1.35 0.00,-1.37 0.00,-1.37 L 0,-1.37 Z"></path></g><g transform="translate(90.45258860087051 12.522945964652536) rotate(0 -0.27511683640295814 28.710311553432803)" stroke="none"><path fill="#1e1e1e" d="M 1.42,0.12 Q 1.42,0.12 1.54,1.49 1.65,2.85 1.64,3.92 1.64,4.98 1.67,6.17 1.70,7.35 1.71,8.45 1.72,9.55 1.90,11.65 2.08,13.75 2.13,15.69 2.18,17.63 2.20,18.72 2.23,19.80 2.24,21.73 2.26,23.65 2.12,24.87 1.97,26.08 1.83,27.87 1.68,29.65 1.63,31.15 1.59,32.65 1.60,34.63 1.62,36.61 1.62,38.14 1.62,39.68 1.62,40.96 1.63,42.24 1.96,43.63 2.29,45.02 2.54,46.57 2.80,48.12 2.61,49.94 2.43,51.76 2.17,53.18 1.91,54.60 1.78,55.70 1.65,56.79 1.64,57.09 1.64,57.38 1.59,57.69 1.53,57.99 1.41,58.27 1.29,58.55 1.10,58.79 0.92,59.03 0.68,59.23 0.44,59.42 0.17,59.55 -0.10,59.67 -0.40,59.73 -0.70,59.79 -1.01,59.78 -1.31,59.76 -1.61,59.67 -1.90,59.59 -2.16,59.43 -2.43,59.28 -2.64,59.06 -2.86,58.85 -3.02,58.59 -3.19,58.33 -3.28,58.04 -3.37,57.75 -3.40,57.44 -3.42,57.14 -2.28,55.42 -1.15,53.69 -1.05,53.50 -0.95,53.32 -0.80,53.17 -0.64,53.02 -0.45,52.94 -0.25,52.85 -0.04,52.83 0.16,52.80 0.37,52.85 0.57,52.90 0.75,53.01 0.94,53.12 1.07,53.28 1.21,53.44 1.29,53.64 1.37,53.84 1.38,54.05 1.39,54.26 1.33,54.47 1.27,54.67 1.15,54.85 1.03,55.02 0.86,55.15 0.69,55.28 0.49,55.34 0.29,55.41 0.08,55.41 -0.13,55.41 -0.33,55.34 -0.53,55.27 -0.70,55.14 -0.87,55.01 -0.98,54.84 -1.10,54.66 -1.16,54.46 -1.21,54.25 -1.20,54.04 -1.19,53.83 -1.11,53.63 -1.03,53.43 -0.89,53.27 -0.75,53.11 -0.57,53.00 -0.39,52.89 -0.18,52.85 0.02,52.80 0.23,52.83 0.44,52.85 0.63,52.94 0.82,53.03 0.98,53.18 1.13,53.32 1.23,53.51 1.33,53.70 1.36,53.91 1.40,54.12 1.36,54.33 1.32,54.54 1.32,54.54 1.32,54.54 1.48,55.96 1.64,57.38 1.59,57.69 1.53,57.99 1.41,58.27 1.29,58.55 1.10,58.79 0.92,59.03 0.68,59.23 0.44,59.42 0.17,59.55 -0.10,59.67 -0.40,59.73 -0.70,59.79 -1.01,59.78 -1.31,59.76 -1.61,59.67 -1.90,59.59 -2.16,59.43 -2.43,59.28 -2.64,59.06 -2.86,58.85 -3.02,58.59 -3.19,58.33 -3.28,58.04 -3.37,57.75 -3.40,57.45 -3.42,57.14 -3.35,56.36 -3.28,55.59 -3.04,54.25 -2.80,52.92 -2.48,51.48 -2.15,50.05 -2.18,48.89 -2.20,47.74 -2.42,46.35 -2.64,44.97 -2.86,43.61 -3.07,42.25 -3.07,40.96 -3.06,39.67 -3.06,38.13 -3.06,36.59 -3.04,35.48 -3.02,34.36 -2.98,32.49 -2.93,30.62 -2.79,29.07 -2.64,27.52 -2.42,25.58 -2.20,23.65 -2.19,21.73 -2.18,19.81 -2.16,17.86 -2.14,15.90 -2.20,13.88 -2.26,11.86 -2.38,10.69 -2.50,9.52 -2.47,8.40 -2.44,7.28 -2.37,6.04 -2.30,4.80 -2.21,3.67 -2.12,2.53 -1.77,1.20 -1.42,-0.12 -1.39,-0.29 -1.35,-0.46 -1.28,-0.61 -1.20,-0.77 -1.09,-0.90 -0.98,-1.03 -0.84,-1.14 -0.70,-1.24 -0.54,-1.31 -0.39,-1.37 -0.22,-1.40 -0.04,-1.43 0.12,-1.41 0.29,-1.40 0.45,-1.34 0.62,-1.29 0.76,-1.19 0.91,-1.10 1.03,-0.97 1.14,-0.85 1.23,-0.70 1.32,-0.55 1.36,-0.38 1.41,-0.22 1.42,-0.04 1.42,0.12 1.42,0.12 L 1.42,0.12 Z"></path></g><g transform="translate(92.30606044959131 71.54149412038896) rotate(0 39.618150153884926 -1.637222944846144)" stroke="none"><path fill="#1e1e1e" d="M 0,-1.43 Q 0,-1.43 1.12,-1.67 2.24,-1.92 4.26,-1.92 6.28,-1.93 7.51,-1.93 8.74,-1.93 9.98,-2.03 11.21,-2.12 12.32,-2.17 13.42,-2.22 15.55,-2.45 17.68,-2.68 18.86,-2.84 20.05,-3.00 21.37,-3.18 22.68,-3.36 23.78,-3.47 24.88,-3.58 26.90,-3.65 28.93,-3.72 31.01,-3.74 33.09,-3.75 34.46,-3.75 35.84,-3.75 37.16,-3.75 38.48,-3.75 39.75,-3.77 41.03,-3.79 42.47,-3.80 43.91,-3.81 45.11,-3.81 46.30,-3.81 48.49,-3.82 50.68,-3.82 52.55,-3.98 54.41,-4.13 56.29,-4.35 58.17,-4.57 59.60,-4.68 61.03,-4.78 62.31,-4.88 63.59,-4.97 65.66,-5.13 67.74,-5.30 69.68,-5.34 71.62,-5.38 72.90,-5.39 74.17,-5.39 76.70,-4.66 79.23,-3.93 79.44,-3.89 79.65,-3.86 79.84,-3.76 80.03,-3.66 80.17,-3.50 80.32,-3.35 80.41,-3.16 80.50,-2.96 80.52,-2.75 80.54,-2.54 80.50,-2.33 80.45,-2.13 80.34,-1.94 80.23,-1.76 80.07,-1.62 79.91,-1.49 79.71,-1.41 79.51,-1.33 79.30,-1.32 79.09,-1.31 78.88,-1.37 78.68,-1.42 78.50,-1.54 78.33,-1.66 78.20,-1.83 78.07,-2.00 78.00,-2.20 77.93,-2.41 77.94,-2.62 77.94,-2.83 78.00,-3.03 78.07,-3.23 78.20,-3.40 78.33,-3.57 78.51,-3.69 78.68,-3.81 78.89,-3.86 79.09,-3.92 79.30,-3.91 79.52,-3.90 79.71,-3.82 79.91,-3.74 80.07,-3.60 80.23,-3.46 80.34,-3.28 80.45,-3.10 80.50,-2.89 80.54,-2.68 80.52,-2.47 80.50,-2.26 80.41,-2.07 80.32,-1.87 80.17,-1.72 80.02,-1.57 79.84,-1.47 79.65,-1.37 79.44,-1.34 79.23,-1.30 79.23,-1.30 79.23,-1.30 76.70,-1.22 74.17,-1.14 72.92,-1.13 71.68,-1.12 69.85,-1.08 68.02,-1.05 66.00,-0.90 63.98,-0.76 62.63,-0.64 61.27,-0.53 59.88,-0.43 58.48,-0.33 56.72,-0.16 54.96,0.00 52.82,0.10 50.68,0.21 48.49,0.20 46.30,0.19 45.11,0.19 43.91,0.19 42.47,0.19 41.03,0.18 39.75,0.16 38.48,0.14 37.16,0.14 35.85,0.14 33.42,0.15 30.99,0.15 28.97,0.18 26.95,0.20 25.08,0.35 23.22,0.49 21.89,0.67 20.57,0.86 19.39,1.02 18.20,1.18 16.91,1.34 15.63,1.51 13.57,1.62 11.50,1.73 10.12,1.83 8.75,1.93 7.51,1.93 6.28,1.93 4.26,1.92 2.24,1.92 1.12,1.67 0,1.43 -0.17,1.41 -0.34,1.39 -0.50,1.32 -0.66,1.26 -0.80,1.17 -0.94,1.07 -1.06,0.94 -1.17,0.81 -1.25,0.66 -1.33,0.50 -1.38,0.34 -1.42,0.17 -1.42,-0.00 -1.42,-0.17 -1.38,-0.34 -1.33,-0.50 -1.25,-0.66 -1.17,-0.81 -1.06,-0.94 -0.94,-1.07 -0.80,-1.17 -0.66,-1.26 -0.50,-1.32 -0.34,-1.39 -0.17,-1.41 0.00,-1.43 0.00,-1.43 L 0,-1.43 Z"></path></g><g transform="translate(90.5394963975923 14.48761981138341) rotate(0 40.12492992832449 26.902818769077385)" stroke="none"><path fill="#1e1e1e" d="M -0.14,-1.32 Q -0.14,-1.32 0.79,-1.75 1.73,-2.19 2.96,-2.24 4.19,-2.29 5.65,-2.31 7.10,-2.33 8.72,-2.33 10.34,-2.34 12.40,-2.35 14.47,-2.35 16.36,-2.35 18.25,-2.35 20.04,-2.36 21.83,-2.37 23.67,-2.37 25.51,-2.37 26.90,-2.46 28.30,-2.56 29.43,-2.59 30.56,-2.62 31.95,-2.64 33.34,-2.66 34.71,-2.66 36.08,-2.67 37.20,-2.72 38.32,-2.77 39.57,-2.79 40.83,-2.81 41.93,-2.82 43.03,-2.83 45.16,-2.82 47.29,-2.82 49.09,-2.81 50.89,-2.80 52.68,-2.79 54.48,-2.78 55.90,-2.78 57.33,-2.78 58.47,-2.87 59.60,-2.96 61.30,-3.24 63.01,-3.52 64.22,-3.59 65.43,-3.66 66.87,-3.73 68.32,-3.81 69.39,-3.88 70.45,-3.96 71.94,-4.03 73.42,-4.10 74.49,-4.11 75.55,-4.11 77.22,-3.75 78.89,-3.38 79.40,-2.34 79.91,-1.29 80.01,0.12 80.10,1.54 80.14,2.69 80.18,3.83 80.20,4.97 80.21,6.10 80.22,7.25 80.23,8.40 80.23,9.56 80.24,10.72 80.25,12.21 80.27,13.70 80.27,15.16 80.28,16.62 80.30,18.46 80.32,20.30 80.32,22.00 80.33,23.70 80.34,25.24 80.34,26.77 80.34,28.14 80.34,29.51 80.34,30.91 80.34,32.30 80.35,33.44 80.35,34.58 80.78,36.17 81.20,37.75 81.74,39.33 82.28,40.91 82.61,42.11 82.94,43.32 83.12,44.88 83.30,46.45 83.32,47.67 83.34,48.89 83.13,50.04 82.92,51.20 82.88,52.31 82.84,53.43 82.62,54.34 82.40,55.25 82.38,55.40 82.36,55.56 82.30,55.71 82.24,55.86 82.15,55.99 82.06,56.12 81.94,56.22 81.83,56.33 81.69,56.40 81.54,56.47 81.39,56.51 81.24,56.55 81.08,56.55 80.92,56.54 80.77,56.51 80.61,56.47 80.47,56.39 80.33,56.32 80.22,56.21 80.10,56.11 80.01,55.98 79.92,55.85 79.86,55.70 79.81,55.55 79.79,55.39 79.77,55.24 79.91,54.84 80.04,54.44 80.20,54.30 80.35,54.15 80.54,54.06 80.74,53.97 80.95,53.95 81.16,53.93 81.37,53.98 81.57,54.02 81.76,54.13 81.94,54.24 82.08,54.41 82.21,54.57 82.29,54.77 82.37,54.96 82.38,55.18 82.39,55.39 82.33,55.59 82.27,55.80 82.15,55.97 82.04,56.15 81.87,56.28 81.70,56.40 81.49,56.47 81.29,56.54 81.08,56.54 80.87,56.54 80.67,56.47 80.47,56.40 80.30,56.27 80.13,56.14 80.01,55.96 79.89,55.79 79.83,55.58 79.78,55.38 79.79,55.17 79.80,54.95 79.88,54.76 79.96,54.56 80.10,54.40 80.24,54.24 80.42,54.13 80.60,54.02 80.81,53.97 81.02,53.93 81.23,53.95 81.44,53.98 81.63,54.07 81.83,54.16 81.98,54.30 82.13,54.45 82.23,54.64 82.33,54.83 82.36,55.04 82.40,55.25 82.36,55.46 82.33,55.67 82.36,55.46 82.40,55.25 82.38,55.40 82.36,55.56 82.30,55.71 82.24,55.86 82.15,55.99 82.06,56.12 81.94,56.22 81.83,56.33 81.69,56.40 81.55,56.47 81.39,56.51 81.24,56.55 81.08,56.55 80.92,56.54 80.77,56.51 80.61,56.47 80.47,56.39 80.33,56.32 80.22,56.21 80.10,56.11 80.01,55.98 79.92,55.85 79.86,55.70 79.81,55.55 79.79,55.39 79.77,55.24 78.68,54.32 77.60,53.41 77.64,51.96 77.69,50.51 77.88,49.15 78.06,47.79 78.03,46.51 78.00,45.22 77.69,43.88 77.39,42.53 76.89,40.87 76.39,39.21 76.07,38.08 75.75,36.96 75.57,35.78 75.39,34.59 75.39,33.45 75.40,32.30 75.40,30.91 75.40,29.51 75.40,28.14 75.40,26.77 75.40,25.24 75.41,23.70 75.42,22.00 75.42,20.30 75.44,18.46 75.46,16.62 75.47,15.16 75.47,13.70 75.49,12.21 75.50,10.72 75.51,9.56 75.51,8.40 75.52,7.25 75.53,6.10 75.54,4.97 75.55,3.84 75.62,1.70 75.69,-0.42 74.58,-0.43 73.47,-0.43 72.14,-0.25 70.81,-0.07 69.66,0.00 68.51,0.08 67.05,0.15 65.60,0.23 64.52,0.30 63.44,0.37 61.95,0.62 60.45,0.86 58.89,0.99 57.33,1.11 55.90,1.11 54.48,1.11 52.69,1.11 50.89,1.12 49.09,1.14 47.30,1.15 45.18,1.16 43.06,1.18 41.98,1.18 40.90,1.19 39.69,1.21 38.48,1.23 37.29,1.28 36.10,1.33 34.74,1.34 33.39,1.34 32.04,1.36 30.70,1.38 29.62,1.42 28.55,1.46 27.03,1.55 25.51,1.63 23.67,1.63 21.83,1.64 20.04,1.63 18.26,1.62 16.36,1.62 14.47,1.63 12.42,1.63 10.36,1.63 8.76,1.64 7.15,1.65 5.75,1.67 4.35,1.69 3.25,1.72 2.16,1.76 1.15,1.54 0.14,1.32 -0.01,1.31 -0.17,1.31 -0.33,1.27 -0.48,1.23 -0.62,1.15 -0.76,1.08 -0.88,0.97 -1.00,0.86 -1.09,0.73 -1.18,0.60 -1.23,0.45 -1.29,0.30 -1.31,0.14 -1.32,-0.01 -1.30,-0.17 -1.28,-0.33 -1.22,-0.48 -1.16,-0.63 -1.07,-0.76 -0.98,-0.89 -0.86,-0.99 -0.74,-1.10 -0.59,-1.17 -0.45,-1.24 -0.29,-1.28 -0.14,-1.32 -0.14,-1.32 L -0.14,-1.32 Z"></path></g><g transform="translate(205.33939301796636 26.223223611032154) rotate(0 3.142232406205949 0.1964579152991064)" stroke="none"><path fill="#1e1e1e" d="M 0.11,-1.41 Q 0.11,-1.41 1.73,-1.25 3.35,-1.09 4.78,-1.22 6.21,-1.35 6.42,-1.34 6.63,-1.33 6.83,-1.25 7.02,-1.17 7.19,-1.03 7.35,-0.89 7.45,-0.71 7.56,-0.52 7.61,-0.31 7.65,-0.11 7.62,0.09 7.60,0.31 7.51,0.50 7.42,0.69 7.27,0.84 7.12,1.00 6.93,1.09 6.75,1.19 6.54,1.22 6.33,1.26 6.12,1.22 5.91,1.18 5.72,1.08 5.53,0.98 5.39,0.83 5.24,0.67 5.16,0.48 5.07,0.28 5.05,0.07 5.03,-0.13 5.07,-0.34 5.12,-0.54 5.23,-0.73 5.34,-0.91 5.51,-1.04 5.67,-1.18 5.87,-1.26 6.07,-1.33 6.28,-1.34 6.49,-1.35 6.70,-1.29 6.90,-1.23 7.07,-1.11 7.25,-0.99 7.38,-0.82 7.50,-0.65 7.57,-0.45 7.64,-0.25 7.63,-0.04 7.63,0.17 7.56,0.37 7.49,0.57 7.36,0.74 7.23,0.90 7.05,1.02 6.88,1.14 6.67,1.19 6.47,1.25 6.47,1.25 6.47,1.25 4.80,1.43 3.14,1.60 1.51,1.51 -0.11,1.41 -0.27,1.37 -0.44,1.34 -0.60,1.27 -0.75,1.19 -0.88,1.09 -1.02,0.98 -1.12,0.84 -1.22,0.71 -1.29,0.55 -1.36,0.39 -1.38,0.22 -1.41,0.05 -1.40,-0.11 -1.38,-0.28 -1.33,-0.44 -1.28,-0.60 -1.19,-0.74 -1.09,-0.89 -0.97,-1.01 -0.85,-1.13 -0.70,-1.21 -0.55,-1.30 -0.39,-1.35 -0.22,-1.39 -0.05,-1.40 0.11,-1.41 0.11,-1.41 L 0.11,-1.41 Z"></path></g><g transform="translate(209.6255677111876 29.890585331324473) rotate(0 2.9829365172990947 0.6025046091353943)" stroke="none"><path d="M0 0 C-0.26 0.2, -2.79 1.1, -1.53 1.21 C-0.28 1.31, 5.99 0.72, 7.5 0.63" stroke="none" stroke-width="0" fill="#ffffff" fill-rule="evenodd"></path><path fill="#1e1e1e" d="M 0.38,-1.40 Q 0.38,-1.40 1.65,-1.10 2.92,-0.80 5.20,-0.74 7.48,-0.68 7.69,-0.65 7.90,-0.62 8.09,-0.52 8.28,-0.42 8.43,-0.27 8.58,-0.11 8.67,0.07 8.76,0.26 8.78,0.47 8.81,0.68 8.76,0.89 8.72,1.10 8.61,1.28 8.51,1.46 8.34,1.60 8.18,1.74 7.99,1.82 7.79,1.90 7.58,1.92 7.37,1.93 7.16,1.88 6.96,1.82 6.78,1.70 6.60,1.59 6.47,1.42 6.34,1.25 6.27,1.05 6.20,0.85 6.20,0.64 6.20,0.42 6.26,0.22 6.33,0.02 6.46,-0.14 6.58,-0.31 6.76,-0.43 6.93,-0.55 7.14,-0.61 7.34,-0.67 7.55,-0.66 7.77,-0.65 7.96,-0.58 8.16,-0.50 8.32,-0.36 8.49,-0.23 8.60,-0.05 8.71,0.13 8.76,0.33 8.81,0.54 8.79,0.75 8.76,0.96 8.68,1.16 8.59,1.35 8.45,1.51 8.30,1.66 8.11,1.76 7.93,1.86 7.72,1.90 7.51,1.94 7.51,1.94 7.51,1.94 4.82,2.06 2.13,2.18 0.87,1.79 -0.38,1.40 -0.54,1.34 -0.71,1.27 -0.85,1.17 -0.99,1.06 -1.11,0.93 -1.22,0.79 -1.30,0.64 -1.37,0.48 -1.41,0.31 -1.45,0.13 -1.45,-0.03 -1.44,-0.21 -1.39,-0.38 -1.35,-0.55 -1.26,-0.70 -1.18,-0.86 -1.06,-0.98 -0.94,-1.11 -0.79,-1.21 -0.64,-1.31 -0.47,-1.36 -0.31,-1.42 -0.13,-1.44 0.03,-1.46 0.21,-1.43 0.38,-1.40 0.38,-1.40 L 0.38,-1.40 Z"></path></g><g transform="translate(248.60655535250044 13.25642251732097) rotate(0 1.5204445385734289 19.8300286940339)" stroke="none"><path fill="#1e1e1e" d="M 1.21,-0.54 Q 1.21,-0.54 1.80,-0.03 2.39,0.47 2.61,1.53 2.84,2.60 3.15,4.54 3.47,6.49 3.64,7.65 3.81,8.82 3.95,9.91 4.09,10.99 4.40,13.14 4.72,15.28 4.94,17.22 5.17,19.15 5.21,20.27 5.26,21.39 5.31,23.16 5.36,24.92 5.38,26.23 5.40,27.54 5.43,28.67 5.46,29.81 5.48,30.92 5.50,32.03 5.51,33.38 5.52,34.72 5.27,36.01 5.02,37.29 4.66,38.70 4.29,40.11 4.23,40.58 4.16,41.04 4.09,41.34 4.02,41.64 3.89,41.92 3.75,42.19 3.55,42.43 3.35,42.66 3.10,42.84 2.85,43.02 2.57,43.13 2.28,43.25 1.98,43.29 1.67,43.33 1.37,43.30 1.06,43.27 0.77,43.17 0.48,43.06 0.23,42.89 -0.02,42.72 -0.23,42.50 -0.43,42.27 -0.58,42.00 -0.73,41.73 -0.81,41.44 -0.89,41.14 -0.89,40.83 -0.90,40.52 -0.29,38.83 0.30,37.14 0.34,36.93 0.37,36.72 0.47,36.53 0.57,36.35 0.72,36.20 0.88,36.05 1.07,35.96 1.26,35.88 1.48,35.85 1.69,35.83 1.89,35.87 2.10,35.92 2.28,36.03 2.47,36.14 2.60,36.30 2.74,36.46 2.82,36.66 2.90,36.86 2.91,37.07 2.92,37.28 2.87,37.49 2.81,37.69 2.69,37.87 2.57,38.04 2.40,38.17 2.23,38.30 2.03,38.37 1.83,38.44 1.62,38.44 1.41,38.44 1.20,38.37 1.00,38.30 0.83,38.17 0.66,38.04 0.54,37.87 0.43,37.69 0.37,37.49 0.31,37.28 0.32,37.07 0.33,36.86 0.41,36.66 0.49,36.46 0.63,36.30 0.77,36.14 0.95,36.03 1.13,35.92 1.34,35.87 1.54,35.83 1.76,35.85 1.97,35.87 2.16,35.96 2.35,36.05 2.51,36.20 2.66,36.34 2.76,36.53 2.86,36.72 2.90,36.93 2.93,37.14 2.93,37.14 2.93,37.14 3.55,39.09 4.16,41.04 4.09,41.34 4.02,41.64 3.89,41.92 3.75,42.19 3.55,42.43 3.35,42.66 3.10,42.84 2.85,43.02 2.57,43.13 2.28,43.25 1.98,43.29 1.67,43.33 1.37,43.30 1.06,43.27 0.77,43.17 0.48,43.06 0.23,42.89 -0.02,42.72 -0.23,42.50 -0.43,42.27 -0.58,42.00 -0.73,41.73 -0.81,41.44 -0.89,41.14 -0.89,40.83 -0.90,40.52 -0.87,40.26 -0.83,39.99 -0.56,38.91 -0.29,37.83 0.00,36.71 0.29,35.59 0.43,34.35 0.56,33.10 0.58,32.03 0.60,30.97 0.61,29.77 0.63,28.58 0.66,27.49 0.69,26.41 0.69,24.88 0.70,23.36 0.68,21.47 0.66,19.57 0.47,17.74 0.29,15.91 0.13,14.72 -0.01,13.54 -0.26,11.47 -0.51,9.39 -0.75,7.25 -0.99,5.10 -1.12,3.58 -1.25,2.05 -1.23,1.30 -1.21,0.54 -1.25,0.38 -1.30,0.23 -1.31,0.07 -1.32,-0.08 -1.29,-0.24 -1.26,-0.39 -1.20,-0.54 -1.13,-0.68 -1.03,-0.81 -0.93,-0.94 -0.81,-1.03 -0.68,-1.13 -0.53,-1.20 -0.39,-1.26 -0.23,-1.29 -0.07,-1.32 0.08,-1.31 0.24,-1.30 0.39,-1.25 0.54,-1.21 0.68,-1.12 0.82,-1.04 0.93,-0.93 1.04,-0.81 1.12,-0.67 1.21,-0.54 1.21,-0.54 L 1.21,-0.54 Z"></path></g><g transform="translate(248.60655535250044 12.496757888860884) rotate(0 40.41456646926417 19.26681672011091)" stroke="none"><path fill="#1e1e1e" d="M 0,-1.37 Q 0,-1.37 1.84,-1.71 3.69,-2.06 5.41,-2.06 7.13,-2.06 8.58,-2.06 10.04,-2.06 11.37,-2.06 12.71,-2.07 13.99,-2.07 15.27,-2.07 16.81,-2.07 18.34,-2.07 19.80,-2.07 21.25,-2.07 22.86,-2.08 24.48,-2.08 25.86,-2.08 27.24,-2.08 28.45,-2.08 29.66,-2.07 30.90,-2.07 32.13,-2.07 33.94,-2.16 35.74,-2.25 37.50,-2.49 39.26,-2.72 40.93,-2.80 42.60,-2.88 44.15,-2.90 45.70,-2.92 47.45,-2.78 49.20,-2.64 50.60,-2.37 52.00,-2.10 53.31,-1.98 54.62,-1.86 56.52,-1.83 58.43,-1.80 59.86,-1.80 61.30,-1.79 62.55,-1.96 63.80,-2.12 65.42,-2.15 67.04,-2.18 68.53,-2.19 70.03,-2.19 71.14,-2.20 72.26,-2.20 73.58,-2.19 74.90,-2.19 76.26,-2.64 77.62,-3.10 78.76,-3.13 79.90,-3.15 81.08,-2.58 82.25,-2.00 82.63,-0.65 83.01,0.68 82.90,2.13 82.80,3.58 82.81,4.87 82.83,6.16 82.84,8.31 82.85,10.46 82.86,11.67 82.86,12.88 82.88,14.03 82.90,15.18 82.90,16.54 82.91,17.90 82.92,19.17 82.92,20.44 82.92,21.90 82.92,23.37 82.92,24.65 82.92,25.94 82.93,27.07 82.93,28.21 82.93,29.35 82.93,30.50 82.94,32.09 82.95,33.68 82.70,35.31 82.45,36.94 81.04,38.60 79.63,40.25 79.51,40.43 79.39,40.60 79.22,40.73 79.05,40.85 78.84,40.92 78.64,40.98 78.43,40.98 78.22,40.97 78.02,40.90 77.82,40.83 77.65,40.70 77.48,40.57 77.37,40.39 77.25,40.21 77.20,40.01 77.14,39.80 77.16,39.59 77.17,39.38 77.25,39.18 77.33,38.99 77.48,38.83 77.62,38.67 77.80,38.56 77.98,38.45 78.19,38.41 78.40,38.37 78.61,38.40 78.82,38.42 79.01,38.51 79.20,38.61 79.36,38.75 79.51,38.90 79.60,39.09 79.70,39.28 79.73,39.49 79.76,39.70 79.72,39.91 79.69,40.12 79.58,40.31 79.48,40.49 79.33,40.64 79.17,40.78 78.97,40.87 78.78,40.95 78.57,40.97 78.36,40.99 78.15,40.94 77.94,40.89 77.76,40.78 77.58,40.67 77.45,40.50 77.31,40.34 77.24,40.14 77.16,39.94 77.15,39.73 77.15,39.52 77.21,39.31 77.27,39.11 77.27,39.11 77.27,39.11 77.33,37.83 77.40,36.55 77.59,35.11 77.77,33.68 77.78,32.09 77.79,30.50 77.79,29.35 77.79,28.21 77.79,27.07 77.80,25.94 77.80,24.65 77.80,23.37 77.80,21.90 77.80,20.44 77.81,19.17 77.81,17.90 77.82,16.54 77.83,15.18 77.85,14.02 77.87,12.87 77.87,11.65 77.88,10.44 77.90,9.17 77.92,7.91 78.00,6.10 78.08,4.29 77.95,2.49 77.82,0.70 76.41,1.23 75.01,1.77 73.63,1.77 72.26,1.78 71.15,1.78 70.03,1.78 68.56,1.79 67.08,1.79 65.59,1.82 64.10,1.84 62.70,2.00 61.30,2.15 59.85,2.15 58.40,2.15 56.42,2.13 54.44,2.11 52.93,2.03 51.42,1.94 49.97,1.69 48.52,1.45 47.12,1.35 45.72,1.25 44.21,1.26 42.70,1.26 41.23,1.32 39.75,1.39 37.97,1.62 36.19,1.86 34.16,1.97 32.13,2.07 30.90,2.07 29.66,2.07 28.45,2.08 27.24,2.08 25.86,2.08 24.48,2.08 22.86,2.08 21.25,2.07 19.80,2.07 18.34,2.07 16.81,2.07 15.27,2.07 13.99,2.07 12.71,2.07 11.37,2.06 10.04,2.06 8.58,2.06 7.13,2.06 5.41,2.06 3.69,2.06 1.84,1.71 0,1.37 -0.16,1.35 -0.32,1.33 -0.48,1.27 -0.63,1.21 -0.77,1.12 -0.91,1.02 -1.02,0.90 -1.12,0.77 -1.20,0.63 -1.28,0.48 -1.32,0.32 -1.36,0.16 -1.36,-0.00 -1.36,-0.16 -1.32,-0.32 -1.28,-0.48 -1.20,-0.63 -1.12,-0.77 -1.02,-0.90 -0.91,-1.02 -0.77,-1.12 -0.63,-1.21 -0.48,-1.27 -0.32,-1.33 -0.16,-1.35 0.00,-1.37 0.00,-1.37 L 0,-1.37 Z"></path></g><g transform="translate(249.41747032936473 54.14766667792537) rotate(0 41.297869538315354 -1.846790680329832)" stroke="none"><path fill="#1e1e1e" d="M 0.14,-1.37 Q 0.14,-1.37 1.36,-1.52 2.58,-1.66 3.66,-1.66 4.73,-1.65 5.90,-1.77 7.07,-1.89 8.99,-2.08 10.90,-2.26 12.90,-2.41 14.90,-2.57 16.95,-2.73 19.00,-2.89 21.61,-3.06 24.22,-3.23 26.59,-3.38 28.97,-3.53 31.24,-3.65 33.51,-3.77 36.06,-3.86 38.61,-3.96 40.76,-4.02 42.92,-4.09 44.83,-4.11 46.74,-4.13 48.68,-4.16 50.61,-4.20 52.21,-4.23 53.81,-4.27 55.25,-4.32 56.68,-4.38 58.17,-4.47 59.66,-4.56 60.89,-4.64 62.11,-4.72 64.25,-4.86 66.38,-5.01 68.11,-5.13 69.84,-5.25 71.36,-5.42 72.89,-5.59 74.31,-5.70 75.72,-5.81 77.04,-5.85 78.35,-5.89 80.20,-5.67 82.04,-5.45 82.20,-5.43 82.35,-5.41 82.50,-5.35 82.65,-5.30 82.78,-5.21 82.91,-5.12 83.02,-5.00 83.12,-4.88 83.19,-4.74 83.27,-4.60 83.31,-4.45 83.34,-4.29 83.34,-4.13 83.34,-3.98 83.31,-3.82 83.27,-3.67 83.19,-3.53 83.12,-3.39 83.02,-3.27 82.91,-3.15 82.78,-3.06 82.65,-2.97 82.50,-2.91 82.35,-2.86 82.20,-2.84 82.04,-2.82 81.39,-3.36 80.75,-3.91 80.74,-4.12 80.74,-4.33 80.81,-4.53 80.87,-4.74 81.00,-4.91 81.13,-5.08 81.30,-5.20 81.47,-5.32 81.68,-5.38 81.88,-5.44 82.10,-5.43 82.31,-5.42 82.51,-5.34 82.70,-5.27 82.87,-5.13 83.03,-5.00 83.14,-4.82 83.25,-4.63 83.30,-4.43 83.35,-4.22 83.33,-4.01 83.31,-3.80 83.22,-3.60 83.14,-3.41 82.99,-3.25 82.85,-3.10 82.66,-3.00 82.47,-2.89 82.27,-2.86 82.06,-2.82 81.85,-2.85 81.64,-2.88 81.45,-2.98 81.26,-3.08 81.11,-3.23 80.96,-3.38 80.87,-3.58 80.78,-3.77 80.75,-3.98 80.73,-4.19 80.77,-4.40 80.81,-4.61 80.92,-4.79 81.03,-4.97 81.19,-5.11 81.35,-5.25 81.55,-5.33 81.74,-5.41 81.96,-5.43 82.17,-5.44 82.37,-5.39 82.58,-5.33 82.76,-5.21 82.93,-5.10 83.06,-4.93 83.19,-4.76 82.62,-5.10 82.04,-5.45 82.20,-5.43 82.35,-5.41 82.50,-5.35 82.65,-5.30 82.78,-5.21 82.91,-5.12 83.02,-5.00 83.12,-4.88 83.19,-4.74 83.27,-4.60 83.31,-4.45 83.34,-4.29 83.34,-4.13 83.34,-3.98 83.31,-3.82 83.27,-3.67 83.19,-3.53 83.12,-3.39 83.02,-3.27 82.91,-3.15 82.78,-3.06 82.65,-2.97 82.50,-2.91 82.35,-2.86 82.20,-2.84 82.04,-2.82 80.20,-2.02 78.35,-1.23 77.09,-1.25 75.82,-1.28 74.57,-1.25 73.32,-1.22 71.72,-1.07 70.12,-0.92 68.39,-0.81 66.66,-0.70 64.53,-0.56 62.40,-0.42 61.16,-0.33 59.92,-0.25 58.38,-0.16 56.84,-0.07 55.38,-0.01 53.91,0.03 52.30,0.07 50.69,0.11 48.74,0.14 46.80,0.17 44.92,0.20 43.04,0.24 40.90,0.29 38.76,0.34 36.25,0.43 33.75,0.52 31.49,0.65 29.24,0.77 26.87,0.92 24.50,1.06 21.91,1.23 19.33,1.40 17.26,1.55 15.19,1.70 13.23,1.81 11.26,1.92 9.32,2.08 7.39,2.23 5.96,2.31 4.54,2.38 3.36,2.28 2.17,2.18 1.01,1.78 -0.14,1.37 -0.31,1.34 -0.47,1.30 -0.62,1.22 -0.77,1.15 -0.89,1.04 -1.02,0.93 -1.12,0.79 -1.21,0.66 -1.28,0.50 -1.34,0.35 -1.36,0.18 -1.38,0.01 -1.36,-0.14 -1.35,-0.31 -1.29,-0.47 -1.23,-0.62 -1.14,-0.76 -1.05,-0.90 -0.92,-1.01 -0.80,-1.13 -0.65,-1.21 -0.50,-1.29 -0.34,-1.33 -0.18,-1.37 -0.01,-1.37 0.14,-1.37 0.14,-1.37 L 0.14,-1.37 Z"></path></g><g transform="translate(253.76155549633404 92.96944260253076) rotate(0 -0.868804407564312 -0.35363897767547314)" stroke="none"><path d="M0 0 C-0.29 -0.12, -1.74 -0.71, -1.74 -0.71 C-1.74 -0.71, -0.29 -0.12, 0 0" stroke="none" stroke-width="0" fill="#ffffff" fill-rule="evenodd"></path><path fill="#1e1e1e" d="M -0.50,1.24 Q -0.50,1.24 -0.50,1.23 -0.49,1.21 -0.63,1.13 -0.77,1.06 -0.88,0.95 -1.00,0.84 -1.09,0.71 -1.17,0.58 -1.22,0.43 -1.28,0.28 -1.29,0.12 -1.31,-0.03 -1.29,-0.18 -1.26,-0.34 -1.20,-0.49 -1.14,-0.63 -1.05,-0.76 -0.96,-0.89 -0.84,-0.99 -0.71,-1.09 -0.57,-1.16 -0.43,-1.23 -0.28,-1.27 -0.12,-1.30 0.03,-1.30 0.18,-1.29 0.34,-1.25 0.49,-1.21 0.67,-1.10 0.85,-0.99 0.99,-0.83 1.13,-0.66 1.20,-0.47 1.28,-0.27 1.29,-0.06 1.30,0.15 1.24,0.35 1.18,0.56 1.06,0.73 0.94,0.91 0.77,1.03 0.60,1.16 0.40,1.23 0.20,1.29 -0.00,1.29 -0.22,1.29 -0.42,1.22 -0.62,1.15 -0.79,1.02 -0.96,0.89 -1.07,0.71 -1.19,0.54 -1.25,0.33 -1.30,0.13 -1.29,-0.07 -1.28,-0.29 -1.20,-0.48 -1.12,-0.68 -0.98,-0.84 -0.84,-1.00 -0.65,-1.11 -0.47,-1.22 -0.26,-1.26 -0.06,-1.31 0.14,-1.28 0.36,-1.26 0.55,-1.17 0.74,-1.08 0.89,-0.93 1.05,-0.78 1.14,-0.59 1.24,-0.40 1.28,-0.19 1.31,0.01 1.27,0.21 1.24,0.42 1.14,0.61 1.03,0.80 0.88,0.94 0.72,1.09 0.53,1.18 0.34,1.26 0.13,1.28 -0.08,1.31 -0.28,1.26 -0.49,1.21 -0.49,1.21 -0.49,1.21 -0.63,1.13 -0.77,1.06 -0.88,0.95 -1.00,0.84 -1.09,0.71 -1.17,0.58 -1.22,0.43 -1.28,0.28 -1.29,0.12 -1.31,-0.03 -1.29,-0.18 -1.26,-0.34 -1.20,-0.49 -1.14,-0.63 -1.05,-0.76 -0.96,-0.89 -0.84,-0.99 -0.71,-1.09 -0.57,-1.16 -0.43,-1.23 -0.28,-1.27 -0.12,-1.30 0.03,-1.30 0.18,-1.29 0.34,-1.25 0.49,-1.21 0.50,-1.23 0.50,-1.24 0.64,-1.16 0.78,-1.08 0.90,-0.97 1.02,-0.86 1.11,-0.73 1.20,-0.59 1.25,-0.44 1.31,-0.28 1.32,-0.12 1.34,0.03 1.31,0.19 1.29,0.35 1.23,0.50 1.17,0.65 1.07,0.78 0.98,0.91 0.85,1.01 0.73,1.12 0.59,1.19 0.44,1.26 0.28,1.30 0.12,1.33 -0.03,1.33 -0.19,1.32 -0.35,1.28 -0.50,1.24 -0.50,1.24 L -0.50,1.24 Z"></path></g><g transform="translate(251.87912841073558 91.86922777352811) rotate(0 0.08688675367375254 41.59852211595717)" stroke="none"><path fill="#1e1e1e" d="M 1.42,0.11 Q 1.42,0.11 1.65,1.52 1.87,2.93 1.86,4.36 1.84,5.79 1.84,7.22 1.83,8.65 1.84,10.19 1.84,11.73 1.98,13.18 2.12,14.63 2.20,16.42 2.27,18.21 2.37,19.65 2.47,21.08 2.51,22.42 2.56,23.77 2.65,25.13 2.74,26.48 2.78,27.66 2.82,28.83 2.85,30.92 2.88,33.01 2.89,35.01 2.89,37.00 2.76,38.28 2.63,39.57 2.57,41.57 2.52,43.58 2.51,44.76 2.50,45.94 2.49,47.88 2.49,49.82 2.52,51.68 2.55,53.55 2.55,55.31 2.56,57.08 2.37,58.73 2.18,60.38 1.98,61.89 1.79,63.40 1.89,64.84 1.99,66.29 2.20,67.38 2.40,68.46 2.67,70.10 2.94,71.74 3.00,73.27 3.07,74.79 3.33,76.34 3.59,77.89 3.61,79.27 3.64,80.65 2.94,80.82 2.24,80.99 2.22,81.15 2.20,81.30 2.14,81.45 2.09,81.60 2.00,81.73 1.91,81.86 1.79,81.97 1.67,82.07 1.53,82.14 1.39,82.22 1.24,82.26 1.08,82.30 0.92,82.30 0.77,82.30 0.61,82.26 0.46,82.22 0.32,82.15 0.18,82.07 0.06,81.97 -0.05,81.86 -0.14,81.73 -0.23,81.60 -0.29,81.46 -0.34,81.31 -0.36,81.15 -0.38,80.99 -0.35,80.78 -0.31,80.57 -0.21,80.38 -0.11,80.20 0.03,80.05 0.18,79.90 0.38,79.82 0.57,79.73 0.78,79.70 0.99,79.68 1.20,79.73 1.41,79.77 1.59,79.88 1.77,79.99 1.91,80.15 2.05,80.31 2.13,80.51 2.20,80.71 2.22,80.92 2.23,81.13 2.17,81.34 2.11,81.54 1.99,81.72 1.88,81.89 1.71,82.02 1.54,82.15 1.34,82.22 1.13,82.29 0.92,82.29 0.71,82.29 0.51,82.22 0.31,82.15 0.14,82.02 -0.02,81.89 -0.14,81.72 -0.26,81.54 -0.32,81.34 -0.37,81.13 -0.36,80.92 -0.35,80.71 -0.27,80.51 -0.19,80.31 -0.06,80.15 0.07,79.99 0.25,79.88 0.44,79.77 0.64,79.73 0.85,79.68 1.06,79.70 1.27,79.73 1.47,79.82 1.66,79.90 1.81,80.05 1.97,80.20 2.07,80.38 2.17,80.57 2.20,80.78 2.24,80.99 2.24,80.99 2.24,80.99 2.22,81.15 2.20,81.30 2.14,81.45 2.09,81.60 2.00,81.73 1.91,81.86 1.79,81.97 1.67,82.07 1.53,82.14 1.39,82.22 1.24,82.26 1.08,82.29 0.92,82.30 0.77,82.30 0.61,82.26 0.46,82.22 0.32,82.15 0.18,82.07 0.06,81.97 -0.05,81.86 -0.14,81.73 -0.23,81.60 -0.29,81.46 -0.34,81.31 -0.36,81.15 -0.38,80.99 -1.09,81.37 -1.79,81.75 -1.79,80.64 -1.79,79.53 -1.85,78.11 -1.90,76.70 -2.07,74.82 -2.24,72.94 -2.27,71.76 -2.30,70.57 -2.57,69.39 -2.84,68.20 -3.02,66.80 -3.20,65.41 -3.17,64.20 -3.13,62.99 -2.93,61.47 -2.74,59.96 -2.51,58.51 -2.27,57.06 -2.26,55.30 -2.26,53.55 -2.22,51.68 -2.19,49.81 -2.18,47.86 -2.18,45.91 -2.17,44.69 -2.16,43.48 -2.13,42.39 -2.10,41.31 -1.92,39.16 -1.73,37.00 -1.74,35.02 -1.74,33.04 -1.76,31.01 -1.77,28.98 -1.80,27.87 -1.83,26.76 -1.90,25.33 -1.98,23.91 -2.01,22.63 -2.04,21.36 -2.13,19.86 -2.22,18.37 -2.26,16.70 -2.30,15.02 -2.43,13.37 -2.57,11.71 -2.55,10.15 -2.53,8.59 -2.49,7.12 -2.46,5.65 -2.38,4.13 -2.31,2.60 -1.87,1.24 -1.42,-0.11 -1.39,-0.28 -1.35,-0.45 -1.28,-0.60 -1.21,-0.76 -1.10,-0.89 -0.99,-1.03 -0.85,-1.13 -0.71,-1.23 -0.56,-1.30 -0.40,-1.37 -0.23,-1.40 -0.06,-1.43 0.11,-1.41 0.28,-1.40 0.44,-1.34 0.61,-1.29 0.75,-1.20 0.90,-1.11 1.02,-0.98 1.14,-0.86 1.22,-0.71 1.31,-0.56 1.36,-0.39 1.41,-0.23 1.42,-0.06 1.42,0.11 1.42,0.11 L 1.42,0.11 Z"></path></g><g transform="translate(252.8058643350996 92.99564119984825) rotate(0 18.317554210667367 -0.17026983950836438)" stroke="none"><path fill="#1e1e1e" d="M 0,-1.41 Q 0,-1.41 1.33,-1.52 2.66,-1.63 4.86,-1.63 7.06,-1.63 8.14,-1.63 9.22,-1.63 11.18,-1.64 13.14,-1.65 14.88,-1.79 16.62,-1.92 18.38,-1.95 20.14,-1.98 21.69,-1.97 23.25,-1.97 24.44,-1.98 25.63,-1.99 26.75,-1.99 27.87,-1.99 29.32,-1.99 30.78,-1.99 32.07,-1.99 33.37,-1.99 35.24,-1.82 37.12,-1.65 37.33,-1.61 37.54,-1.58 37.73,-1.48 37.92,-1.38 38.06,-1.23 38.21,-1.07 38.30,-0.88 38.39,-0.69 38.41,-0.48 38.43,-0.26 38.39,-0.06 38.34,0.14 38.23,0.32 38.12,0.50 37.96,0.64 37.80,0.78 37.60,0.86 37.40,0.94 37.19,0.95 36.98,0.96 36.78,0.90 36.57,0.85 36.40,0.73 36.22,0.61 36.09,0.44 35.96,0.27 35.89,0.07 35.83,-0.12 35.83,-0.34 35.83,-0.55 35.89,-0.75 35.96,-0.95 36.09,-1.12 36.22,-1.29 36.40,-1.41 36.57,-1.53 36.78,-1.58 36.98,-1.64 37.19,-1.63 37.41,-1.62 37.60,-1.54 37.80,-1.46 37.96,-1.32 38.12,-1.19 38.23,-1.00 38.34,-0.82 38.39,-0.61 38.43,-0.41 38.41,-0.20 38.39,0.01 38.30,0.20 38.21,0.39 38.06,0.55 37.92,0.70 37.73,0.80 37.54,0.90 37.33,0.93 37.12,0.97 37.12,0.97 37.12,0.97 35.24,1.14 33.37,1.31 32.07,1.31 30.78,1.31 29.32,1.31 27.87,1.31 26.75,1.31 25.63,1.31 24.44,1.30 23.25,1.29 21.71,1.31 20.17,1.32 18.47,1.34 16.77,1.37 14.96,1.51 13.14,1.65 11.18,1.64 9.22,1.63 8.14,1.63 7.06,1.63 4.86,1.63 2.66,1.63 1.33,1.52 0,1.41 -0.16,1.39 -0.33,1.37 -0.49,1.31 -0.65,1.25 -0.79,1.15 -0.93,1.06 -1.05,0.93 -1.16,0.80 -1.24,0.65 -1.32,0.50 -1.36,0.33 -1.40,0.17 -1.40,-0.00 -1.40,-0.17 -1.36,-0.33 -1.32,-0.50 -1.24,-0.65 -1.16,-0.80 -1.05,-0.93 -0.93,-1.06 -0.79,-1.15 -0.65,-1.25 -0.49,-1.31 -0.33,-1.37 -0.16,-1.39 0.00,-1.41 0.00,-1.41 L 0,-1.41 Z"></path></g><g transform="translate(289.06451259097594 93.10043558911457) rotate(0 2.4182252260598034 37.642986346703765)" stroke="none"><path fill="#1e1e1e" d="M 1.09,-0.88 Q 1.09,-0.88 1.77,-0.57 2.45,-0.27 3.06,1.18 3.67,2.63 3.97,4.27 4.28,5.91 4.39,7.91 4.50,9.91 4.54,11.94 4.58,13.97 4.59,15.07 4.60,16.16 4.82,18.00 5.04,19.84 5.07,20.99 5.11,22.13 5.24,23.93 5.37,25.73 5.49,27.48 5.61,29.24 5.65,30.78 5.69,32.33 5.71,33.83 5.72,35.34 5.74,36.99 5.76,38.64 5.77,40.50 5.77,42.36 6.07,43.83 6.36,45.30 6.66,46.83 6.96,48.36 7.18,50.02 7.40,51.67 7.46,53.21 7.52,54.75 7.54,56.31 7.55,57.87 7.56,59.25 7.56,60.63 7.56,62.15 7.56,63.66 7.56,65.13 7.56,66.59 7.56,67.95 7.56,69.31 7.57,70.48 7.58,71.65 5.94,74.12 4.30,76.58 4.09,76.58 3.88,76.57 3.68,76.50 3.47,76.43 3.31,76.30 3.14,76.17 3.02,75.99 2.91,75.81 2.85,75.61 2.80,75.40 2.81,75.19 2.83,74.98 2.91,74.78 2.99,74.59 3.13,74.43 3.27,74.27 3.46,74.16 3.64,74.05 3.85,74.01 4.06,73.97 4.27,73.99 4.48,74.02 4.67,74.11 4.86,74.21 5.01,74.35 5.16,74.50 5.26,74.69 5.36,74.88 5.39,75.09 5.42,75.30 5.38,75.51 5.35,75.72 5.24,75.91 5.14,76.09 4.98,76.24 4.83,76.38 4.63,76.47 4.44,76.55 4.23,76.57 4.02,76.59 3.81,76.54 3.60,76.49 3.42,76.38 3.24,76.27 3.11,76.10 2.97,75.94 2.90,75.74 2.82,75.54 2.81,75.33 2.80,75.12 2.86,74.92 2.92,74.71 3.05,74.54 3.17,74.36 3.34,74.24 3.51,74.11 3.71,74.05 3.91,73.98 3.91,73.98 3.91,73.98 3.00,72.28 2.09,70.58 2.09,69.22 2.09,67.87 2.09,66.56 2.09,65.25 2.09,63.65 2.10,62.05 2.10,60.65 2.11,59.24 2.11,57.85 2.11,56.46 2.10,54.98 2.09,53.50 2.02,52.11 1.94,50.73 1.68,49.33 1.42,47.94 1.13,46.27 0.85,44.61 0.69,43.49 0.53,42.37 0.53,40.50 0.54,38.64 0.56,36.99 0.58,35.34 0.59,33.85 0.60,32.36 0.61,30.87 0.62,29.39 0.58,27.66 0.53,25.93 0.42,24.08 0.32,22.24 0.26,20.34 0.21,18.44 0.09,17.31 -0.03,16.18 -0.02,15.09 -0.02,14.01 -0.03,12.04 -0.04,10.08 -0.07,9.02 -0.11,7.95 -0.21,6.54 -0.31,5.13 -0.57,3.71 -0.82,2.29 -0.95,1.58 -1.09,0.88 -1.18,0.73 -1.27,0.59 -1.32,0.43 -1.37,0.27 -1.38,0.10 -1.40,-0.06 -1.37,-0.22 -1.34,-0.39 -1.27,-0.55 -1.21,-0.70 -1.10,-0.84 -1.00,-0.97 -0.87,-1.08 -0.74,-1.18 -0.59,-1.26 -0.43,-1.33 -0.27,-1.36 -0.10,-1.39 0.06,-1.39 0.23,-1.38 0.39,-1.33 0.55,-1.28 0.70,-1.20 0.84,-1.11 0.96,-0.99 1.09,-0.88 1.09,-0.88 L 1.09,-0.88 Z"></path></g><g transform="translate(261.3202611616907 171.94899665659796) rotate(0 12.930954257944904 -4.25676703076897)" stroke="none"><path fill="#1e1e1e" d="M -0.16,1.36 Q -0.16,1.36 -1.04,1.37 -1.92,1.38 -3.07,1.33 -4.21,1.29 -5.19,1.66 -6.17,2.02 -6.37,2.09 -6.57,2.15 -6.78,2.16 -6.99,2.18 -7.20,2.14 -7.40,2.10 -7.59,2.02 -7.79,1.93 -7.95,1.81 -8.12,1.68 -8.25,1.51 -8.38,1.35 -8.46,1.16 -8.55,0.97 -8.59,0.76 -8.63,0.56 -8.62,0.35 -8.60,0.14 -8.54,-0.05 -8.48,-0.25 -8.37,-0.43 -8.27,-0.61 -8.12,-0.76 -7.97,-0.91 -7.79,-1.02 -7.61,-1.13 -6.37,-1.33 -5.12,-1.53 -3.81,-1.61 -2.50,-1.68 -0.06,-1.70 2.37,-1.72 3.87,-1.74 5.37,-1.76 6.79,-1.77 8.22,-1.79 9.87,-1.81 11.52,-1.84 12.89,-1.85 14.27,-1.85 15.42,-1.85 16.57,-1.85 18.39,-1.86 20.21,-1.87 21.60,-1.77 23.00,-1.67 24.42,-1.63 25.85,-1.59 27.01,-1.58 28.17,-1.58 29.54,-1.59 30.91,-1.60 31.05,-3.20 31.20,-4.79 31.36,-7.07 31.52,-9.35 31.56,-9.56 31.59,-9.77 31.69,-9.96 31.79,-10.15 31.95,-10.29 32.10,-10.44 32.30,-10.53 32.49,-10.61 32.70,-10.64 32.91,-10.66 33.12,-10.61 33.33,-10.57 33.51,-10.45 33.69,-10.34 33.83,-10.18 33.96,-10.02 34.04,-9.82 34.12,-9.62 34.13,-9.41 34.14,-9.20 34.08,-9.00 34.03,-8.79 33.91,-8.62 33.79,-8.44 33.62,-8.31 33.45,-8.18 33.25,-8.12 33.04,-8.05 32.83,-8.05 32.62,-8.05 32.42,-8.12 32.22,-8.19 32.05,-8.32 31.88,-8.45 31.76,-8.62 31.64,-8.80 31.59,-9.00 31.53,-9.21 31.54,-9.42 31.55,-9.63 31.63,-9.83 31.71,-10.03 31.85,-10.19 31.99,-10.35 32.17,-10.46 32.36,-10.57 32.56,-10.61 32.77,-10.66 32.98,-10.63 33.19,-10.61 33.39,-10.52 33.58,-10.43 33.73,-10.28 33.89,-10.14 33.98,-9.95 34.08,-9.76 34.12,-9.55 34.15,-9.34 34.15,-9.34 34.15,-9.34 34.30,-7.06 34.44,-4.77 34.91,-2.97 35.37,-1.17 35.02,0.23 34.66,1.63 32.79,2.46 30.91,3.28 29.54,3.27 28.16,3.25 26.97,3.25 25.78,3.24 24.69,3.21 23.60,3.18 21.90,3.05 20.21,2.91 18.39,2.91 16.57,2.90 15.42,2.90 14.27,2.90 12.89,2.89 11.52,2.89 9.87,2.86 8.22,2.84 6.79,2.82 5.37,2.81 3.87,2.79 2.36,2.77 -0.45,2.75 -3.28,2.73 -4.73,2.38 -6.17,2.02 -6.37,2.09 -6.57,2.15 -6.78,2.16 -6.99,2.18 -7.20,2.14 -7.40,2.10 -7.59,2.02 -7.79,1.93 -7.95,1.81 -8.12,1.68 -8.25,1.51 -8.38,1.35 -8.46,1.16 -8.55,0.97 -8.59,0.76 -8.63,0.56 -8.62,0.35 -8.60,0.14 -8.54,-0.05 -8.48,-0.25 -8.37,-0.43 -8.27,-0.61 -8.12,-0.76 -7.97,-0.91 -7.79,-1.02 -7.61,-1.13 -7.39,-1.30 -7.17,-1.47 -5.76,-1.90 -4.35,-2.34 -2.94,-2.07 -1.53,-1.80 -0.68,-1.58 0.16,-1.36 0.32,-1.32 0.48,-1.28 0.63,-1.20 0.78,-1.12 0.90,-1.01 1.02,-0.91 1.12,-0.77 1.21,-0.63 1.27,-0.48 1.33,-0.32 1.35,-0.16 1.37,0.00 1.35,0.16 1.33,0.32 1.27,0.48 1.21,0.63 1.12,0.77 1.02,0.91 0.90,1.02 0.77,1.13 0.63,1.20 0.48,1.28 0.32,1.32 0.16,1.36 -0.00,1.36 -0.16,1.36 -0.16,1.36 L -0.16,1.36 Z"></path></g><g transform="translate(201.74827026801722 123.40865640913216) rotate(0 3.6924871220580826 -0.19645791530092538)" stroke="none"><path fill="#1e1e1e" d="M 0,-1.46 Q 0,-1.46 1.43,-1.44 2.86,-1.43 5.01,-1.56 7.17,-1.68 7.38,-1.68 7.59,-1.68 7.79,-1.62 7.99,-1.55 8.16,-1.42 8.33,-1.29 8.45,-1.12 8.57,-0.94 8.63,-0.74 8.69,-0.53 8.67,-0.32 8.66,-0.11 8.58,0.08 8.51,0.28 8.37,0.44 8.23,0.60 8.05,0.71 7.87,0.82 7.66,0.87 7.45,0.91 7.24,0.89 7.03,0.87 6.84,0.78 6.64,0.69 6.49,0.54 6.33,0.40 6.24,0.21 6.14,0.02 6.10,-0.18 6.07,-0.39 6.10,-0.60 6.14,-0.81 6.23,-0.99 6.33,-1.18 6.49,-1.33 6.64,-1.47 6.84,-1.56 7.03,-1.65 7.24,-1.68 7.45,-1.70 7.66,-1.65 7.87,-1.61 8.05,-1.50 8.23,-1.39 8.37,-1.23 8.51,-1.07 8.58,-0.87 8.66,-0.67 8.67,-0.46 8.69,-0.25 8.63,-0.04 8.57,0.15 8.45,0.33 8.33,0.50 8.16,0.63 8.00,0.76 7.79,0.83 7.59,0.90 7.59,0.90 7.59,0.90 5.23,1.16 2.86,1.43 1.43,1.44 0,1.46 -0.17,1.44 -0.34,1.41 -0.51,1.35 -0.67,1.29 -0.82,1.19 -0.96,1.09 -1.08,0.96 -1.20,0.83 -1.28,0.67 -1.36,0.51 -1.40,0.34 -1.45,0.17 -1.45,-0.00 -1.45,-0.17 -1.40,-0.34 -1.36,-0.51 -1.28,-0.67 -1.20,-0.83 -1.08,-0.96 -0.96,-1.09 -0.82,-1.19 -0.67,-1.29 -0.51,-1.35 -0.34,-1.41 -0.17,-1.44 0.00,-1.46 0.00,-1.46 L 0,-1.46 Z"></path></g><g transform="translate(204.38370185673193 127.7309409762438) rotate(0 3.7503975958061346 0.104773346217371)" stroke="none"><path fill="#1e1e1e" d="M 0.04,-1.53 Q 0.04,-1.53 1.94,-1.40 3.84,-1.26 5.68,-1.18 7.53,-1.10 7.74,-1.06 7.94,-1.02 8.13,-0.92 8.32,-0.81 8.46,-0.65 8.60,-0.50 8.68,-0.30 8.77,-0.11 8.79,0.10 8.81,0.31 8.75,0.51 8.70,0.72 8.59,0.90 8.48,1.08 8.31,1.21 8.15,1.35 7.95,1.42 7.75,1.49 7.53,1.50 7.32,1.51 7.12,1.44 6.92,1.38 6.74,1.26 6.57,1.14 6.45,0.96 6.32,0.79 6.26,0.59 6.20,0.39 6.20,0.17 6.21,-0.03 6.28,-0.23 6.35,-0.43 6.48,-0.59 6.62,-0.76 6.79,-0.88 6.97,-0.99 7.18,-1.04 7.39,-1.09 7.60,-1.08 7.81,-1.06 8.00,-0.98 8.20,-0.89 8.36,-0.75 8.52,-0.61 8.62,-0.43 8.73,-0.24 8.77,-0.03 8.81,0.17 8.78,0.38 8.75,0.59 8.66,0.78 8.56,0.97 8.41,1.12 8.26,1.27 8.07,1.36 7.88,1.46 7.67,1.49 7.46,1.52 7.46,1.52 7.46,1.52 5.61,1.51 3.75,1.50 1.85,1.52 -0.04,1.53 -0.23,1.50 -0.41,1.47 -0.58,1.40 -0.75,1.33 -0.90,1.22 -1.05,1.11 -1.17,0.97 -1.29,0.83 -1.37,0.66 -1.45,0.49 -1.49,0.31 -1.52,0.13 -1.52,-0.04 -1.51,-0.23 -1.46,-0.41 -1.41,-0.58 -1.32,-0.75 -1.23,-0.91 -1.10,-1.04 -0.98,-1.18 -0.82,-1.28 -0.66,-1.38 -0.49,-1.44 -0.31,-1.50 -0.13,-1.51 0.04,-1.53 0.04,-1.53 L 0.04,-1.53 Z"></path></g><g transform="translate(10.984646398108453 111.51588206863198) rotate(0 1.5059458770865604 40.27564025281117)" stroke="none"><path fill="#1e1e1e" d="M 1.31,-0.17 Q 1.31,-0.17 1.67,1.00 2.03,2.18 2.40,3.57 2.77,4.96 3.14,6.24 3.50,7.52 3.77,8.69 4.05,9.85 4.18,10.98 4.31,12.10 4.34,13.28 4.37,14.47 4.39,15.58 4.41,16.70 4.43,17.84 4.46,18.98 4.47,20.07 4.48,21.16 4.48,22.43 4.49,23.70 4.50,25.16 4.50,26.61 4.26,28.28 4.01,29.94 3.66,31.22 3.30,32.50 3.22,33.74 3.13,34.98 3.12,36.24 3.12,37.51 3.12,38.80 3.13,40.08 3.13,41.32 3.14,42.56 3.37,43.65 3.61,44.73 3.94,45.85 4.27,46.97 4.44,48.19 4.60,49.40 4.66,50.67 4.71,51.93 4.72,53.13 4.73,54.33 4.73,55.50 4.74,56.68 4.75,58.00 4.75,59.33 4.77,60.67 4.78,62.01 4.79,63.53 4.79,65.05 4.82,66.52 4.85,67.99 4.85,69.44 4.86,70.90 5.06,72.10 5.25,73.30 5.30,74.64 5.36,75.97 5.39,77.06 5.41,78.14 4.87,78.40 4.32,78.66 4.30,78.82 4.28,78.97 4.23,79.12 4.17,79.27 4.08,79.40 3.99,79.53 3.87,79.64 3.75,79.74 3.61,79.81 3.47,79.89 3.32,79.93 3.17,79.96 3.01,79.96 2.85,79.96 2.70,79.93 2.54,79.89 2.40,79.81 2.26,79.74 2.14,79.64 2.02,79.53 1.93,79.40 1.84,79.27 1.79,79.12 1.73,78.97 1.71,78.82 1.69,78.66 1.73,78.45 1.76,78.24 1.86,78.05 1.96,77.87 2.12,77.72 2.27,77.57 2.46,77.48 2.66,77.39 2.87,77.37 3.08,77.35 3.29,77.39 3.49,77.44 3.68,77.55 3.86,77.66 3.99,77.82 4.13,77.98 4.21,78.18 4.29,78.38 4.30,78.59 4.31,78.80 4.26,79.01 4.20,79.21 4.08,79.39 3.96,79.56 3.79,79.69 3.62,79.82 3.42,79.89 3.22,79.96 3.01,79.96 2.79,79.96 2.59,79.89 2.39,79.82 2.22,79.69 2.05,79.56 1.93,79.39 1.81,79.21 1.76,79.01 1.70,78.80 1.71,78.59 1.72,78.38 1.80,78.18 1.88,77.98 2.02,77.82 2.16,77.66 2.34,77.55 2.52,77.44 2.73,77.39 2.94,77.35 3.15,77.37 3.36,77.39 3.55,77.48 3.74,77.57 3.90,77.72 4.05,77.87 4.15,78.05 4.25,78.24 4.29,78.45 4.32,78.66 4.32,78.66 4.32,78.66 4.30,78.82 4.28,78.97 4.23,79.12 4.17,79.27 4.08,79.40 3.99,79.53 3.87,79.64 3.75,79.74 3.61,79.81 3.47,79.89 3.32,79.93 3.17,79.96 3.01,79.96 2.85,79.96 2.70,79.93 2.54,79.89 2.40,79.81 2.26,79.74 2.14,79.64 2.02,79.53 1.93,79.40 1.84,79.27 1.79,79.12 1.73,78.97 1.71,78.82 1.69,78.66 1.15,78.70 0.60,78.74 0.62,77.38 0.64,76.02 0.62,74.67 0.59,73.32 0.41,71.59 0.23,69.85 0.24,68.34 0.25,66.84 0.28,65.39 0.31,63.93 0.31,62.45 0.32,60.96 0.33,59.72 0.35,58.47 0.35,57.08 0.35,55.69 0.36,54.28 0.37,52.87 0.37,51.35 0.37,49.84 0.18,48.54 -0.00,47.24 -0.28,46.10 -0.56,44.96 -0.78,43.30 -1.00,41.64 -0.98,40.40 -0.97,39.17 -0.97,37.87 -0.97,36.57 -0.94,35.16 -0.92,33.75 -0.77,32.61 -0.62,31.47 -0.32,30.36 -0.02,29.24 0.19,27.93 0.41,26.61 0.42,25.15 0.42,23.70 0.43,22.43 0.44,21.16 0.44,20.07 0.45,18.98 0.48,17.84 0.50,16.71 0.51,15.61 0.53,14.51 0.49,13.00 0.45,11.50 0.22,9.96 0.00,8.43 -0.29,7.23 -0.59,6.03 -0.99,4.33 -1.40,2.63 -1.36,1.40 -1.31,0.17 -1.31,0.01 -1.32,-0.14 -1.28,-0.30 -1.24,-0.45 -1.17,-0.60 -1.10,-0.74 -0.99,-0.86 -0.89,-0.98 -0.75,-1.07 -0.62,-1.17 -0.47,-1.22 -0.33,-1.28 -0.17,-1.30 -0.01,-1.32 0.14,-1.31 0.30,-1.29 0.45,-1.23 0.60,-1.18 0.73,-1.09 0.87,-1.00 0.97,-0.88 1.08,-0.76 1.16,-0.62 1.23,-0.48 1.27,-0.32 1.31,-0.17 1.31,-0.17 L 1.31,-0.17 Z"></path></g><g transform="translate(10 111.93501753960118) rotate(0 28.309004806622397 1.113314127661397)" stroke="none"><path fill="#1e1e1e" d="M 1.28,-0.38 Q 1.28,-0.38 1.51,0.12 1.74,0.63 3.69,0.64 5.64,0.64 6.71,0.65 7.77,0.66 8.90,0.66 10.03,0.65 11.43,0.55 12.84,0.45 14.21,0.34 15.57,0.23 16.92,0.18 18.27,0.13 19.69,0.07 21.11,0.01 22.31,-0.05 23.51,-0.12 24.59,-0.17 25.67,-0.22 26.79,-0.28 27.91,-0.33 29.40,-0.41 30.90,-0.48 32.32,-0.55 33.75,-0.63 35.20,-0.83 36.64,-1.03 38.03,-0.81 39.43,-0.58 40.58,-0.32 41.73,-0.06 43.10,-0.24 44.47,-0.41 45.62,-0.43 46.77,-0.45 47.85,-0.37 48.92,-0.30 50.03,-0.31 51.14,-0.31 54.38,-0.09 57.61,0.11 57.72,0.29 57.83,0.48 57.88,0.68 57.92,0.89 57.90,1.10 57.88,1.31 57.79,1.51 57.70,1.70 57.56,1.85 57.41,2.01 57.22,2.11 57.03,2.21 56.82,2.24 56.61,2.28 56.41,2.24 56.20,2.21 56.01,2.11 55.82,2.01 55.67,1.86 55.53,1.70 55.44,1.51 55.35,1.32 55.32,1.11 55.30,0.90 55.35,0.69 55.39,0.48 55.50,0.30 55.61,0.12 55.77,-0.01 55.93,-0.15 56.13,-0.23 56.33,-0.31 56.54,-0.32 56.75,-0.33 56.96,-0.28 57.16,-0.22 57.34,-0.10 57.51,0.01 57.64,0.18 57.77,0.35 57.84,0.55 57.91,0.75 57.91,0.96 57.91,1.17 57.84,1.38 57.77,1.58 57.65,1.75 57.52,1.92 57.34,2.04 57.17,2.16 56.96,2.21 56.76,2.27 56.54,2.26 56.33,2.25 56.13,2.17 55.94,2.09 55.78,1.95 55.61,1.82 55.61,1.82 55.61,1.82 54.72,1.88 53.83,1.94 52.52,2.25 51.20,2.56 49.84,2.57 48.47,2.57 47.35,2.63 46.22,2.70 45.03,2.73 43.85,2.76 42.47,2.89 41.10,3.02 39.98,2.70 38.85,2.38 37.54,2.29 36.23,2.19 35.09,2.34 33.95,2.49 32.51,2.58 31.07,2.66 29.57,2.74 28.07,2.81 26.94,2.87 25.81,2.93 24.74,2.98 23.67,3.02 22.47,3.08 21.27,3.13 19.82,3.21 18.38,3.29 17.09,3.33 15.81,3.37 14.44,3.47 13.06,3.57 11.54,3.68 10.02,3.78 8.88,3.77 7.75,3.76 5.62,3.73 3.50,3.70 2.18,3.52 0.86,3.35 -0.12,2.42 -1.10,1.50 -1.19,0.94 -1.28,0.38 -1.31,0.22 -1.34,0.06 -1.32,-0.09 -1.31,-0.26 -1.26,-0.41 -1.21,-0.56 -1.13,-0.70 -1.04,-0.84 -0.92,-0.95 -0.81,-1.06 -0.67,-1.15 -0.53,-1.23 -0.37,-1.27 -0.22,-1.32 -0.06,-1.33 0.10,-1.33 0.25,-1.30 0.41,-1.27 0.56,-1.20 0.71,-1.13 0.83,-1.03 0.96,-0.93 1.06,-0.80 1.15,-0.67 1.22,-0.52 1.28,-0.38 1.28,-0.38 L 1.28,-0.38 Z"></path></g><g transform="translate(71.97573850129629 113.3233748529874) rotate(0 -0.04345389836089453 40.210164802569125)" stroke="none"><path fill="#1e1e1e" d="M 1.36,0.23 Q 1.36,0.23 1.49,1.21 1.62,2.19 1.44,3.56 1.26,4.94 1.15,6.54 1.03,8.14 1.07,9.39 1.11,10.65 1.14,12.16 1.16,13.66 1.21,15.23 1.26,16.81 1.30,18.35 1.35,19.89 1.39,21.88 1.43,23.87 1.44,25.61 1.45,27.34 1.47,29.19 1.49,31.04 1.60,32.52 1.71,34.00 1.87,35.57 2.03,37.13 2.27,38.51 2.51,39.88 2.78,41.29 3.06,42.71 3.21,43.91 3.37,45.11 3.48,46.32 3.60,47.53 3.64,49.09 3.67,50.64 3.68,51.96 3.68,53.29 3.69,54.71 3.70,56.13 3.53,57.99 3.36,59.84 3.11,61.46 2.86,63.08 2.77,64.53 2.68,65.98 2.66,67.49 2.64,68.99 2.64,70.31 2.64,71.62 2.64,72.73 2.65,73.85 2.65,75.02 2.65,76.20 1.65,77.98 0.64,79.76 0.62,79.92 0.60,80.07 0.55,80.22 0.49,80.37 0.40,80.50 0.31,80.63 0.19,80.74 0.07,80.84 -0.06,80.91 -0.20,80.99 -0.35,81.03 -0.50,81.06 -0.66,81.06 -0.82,81.06 -0.97,81.03 -1.13,80.99 -1.27,80.91 -1.41,80.84 -1.53,80.74 -1.64,80.63 -1.73,80.50 -1.82,80.37 -1.88,80.22 -1.94,80.07 -1.96,79.92 -1.97,79.76 -1.75,80.26 -1.52,80.75 -1.66,80.59 -1.79,80.42 -1.87,80.23 -1.95,80.03 -1.96,79.82 -1.96,79.60 -1.91,79.40 -1.85,79.19 -1.73,79.02 -1.60,78.85 -1.43,78.72 -1.26,78.59 -1.06,78.53 -0.86,78.46 -0.65,78.46 -0.43,78.47 -0.23,78.54 -0.03,78.61 0.13,78.74 0.29,78.87 0.41,79.05 0.53,79.22 0.58,79.43 0.64,79.63 0.62,79.85 0.61,80.06 0.53,80.25 0.45,80.45 0.31,80.61 0.17,80.77 -0.01,80.88 -0.19,80.99 -0.40,81.03 -0.61,81.07 -0.82,81.05 -1.03,81.02 -1.22,80.93 -1.41,80.84 -1.56,80.69 -1.72,80.54 -1.81,80.35 -1.91,80.16 -1.94,79.95 -1.97,79.74 -1.94,79.54 -1.90,79.33 -1.80,79.14 -1.70,78.95 -1.54,78.81 -1.38,78.66 -1.19,78.58 -1.00,78.49 -0.79,78.47 -0.57,78.45 -0.37,78.50 -0.16,78.55 0.24,79.15 0.64,79.76 0.62,79.92 0.60,80.07 0.55,80.22 0.49,80.37 0.40,80.50 0.31,80.63 0.19,80.74 0.08,80.84 -0.06,80.91 -0.20,80.99 -0.35,81.03 -0.50,81.06 -0.66,81.06 -0.82,81.06 -0.97,81.03 -1.13,80.99 -1.27,80.91 -1.41,80.84 -1.53,80.74 -1.64,80.63 -1.73,80.50 -1.82,80.37 -1.88,80.22 -1.94,80.07 -1.96,79.92 -1.97,79.76 -2.43,78.90 -2.89,78.04 -2.89,76.57 -2.88,75.09 -2.88,73.94 -2.88,72.79 -2.87,71.49 -2.86,70.19 -2.86,68.87 -2.85,67.55 -2.80,65.81 -2.75,64.08 -2.54,62.27 -2.33,60.46 -2.06,59.02 -1.78,57.59 -1.78,56.15 -1.79,54.72 -1.79,53.33 -1.79,51.94 -1.79,50.63 -1.79,49.31 -1.82,48.07 -1.84,46.83 -1.96,45.70 -2.08,44.57 -2.23,43.46 -2.39,42.35 -2.65,40.83 -2.91,39.30 -3.10,37.64 -3.30,35.98 -3.44,34.29 -3.59,32.61 -3.57,30.96 -3.55,29.32 -3.54,27.48 -3.52,25.64 -3.50,23.79 -3.47,21.93 -3.44,20.14 -3.41,18.35 -3.34,16.72 -3.27,15.10 -3.25,13.56 -3.22,12.01 -3.17,10.66 -3.13,9.31 -3.05,7.97 -2.97,6.63 -2.81,5.43 -2.65,4.23 -2.45,2.88 -2.25,1.53 -1.81,0.65 -1.36,-0.23 -1.32,-0.39 -1.27,-0.55 -1.18,-0.69 -1.10,-0.84 -0.98,-0.96 -0.87,-1.08 -0.72,-1.16 -0.58,-1.25 -0.42,-1.30 -0.26,-1.36 -0.10,-1.37 0.06,-1.38 0.23,-1.35 0.39,-1.33 0.54,-1.26 0.70,-1.19 0.83,-1.09 0.96,-0.99 1.07,-0.86 1.17,-0.73 1.24,-0.58 1.31,-0.43 1.35,-0.26 1.38,-0.10 1.37,0.06 1.36,0.23 1.36,0.23 L 1.36,0.23 Z"></path></g><g transform="translate(26.18896552554361 195.39402670162963) rotate(0 17.477768169128467 -1.768226452953968)" stroke="none"><path fill="#1e1e1e" d="M 0.04,1.37 Q 0.04,1.37 -1.18,1.49 -2.41,1.60 -3.99,1.69 -5.58,1.77 -6.76,1.82 -7.94,1.88 -9.01,1.74 -10.08,1.60 -11.17,1.61 -12.26,1.62 -12.65,1.75 -13.04,1.88 -13.30,1.84 -13.56,1.81 -13.81,1.71 -14.05,1.62 -14.26,1.47 -14.48,1.32 -14.65,1.12 -14.82,0.92 -14.94,0.69 -15.06,0.46 -15.12,0.20 -15.18,-0.04 -15.18,-0.30 -15.17,-0.57 -15.11,-0.82 -15.04,-1.07 -14.92,-1.30 -14.80,-1.53 -14.62,-1.73 -14.44,-1.92 -14.23,-2.07 -14.01,-2.21 -13.77,-2.30 -13.52,-2.39 -13.26,-2.42 -13.00,-2.45 -11.46,-2.36 -9.93,-2.27 -8.73,-2.25 -7.53,-2.24 -5.56,-2.25 -3.59,-2.26 -1.48,-2.26 0.62,-2.26 2.82,-2.27 5.02,-2.27 7.17,-2.27 9.33,-2.27 11.54,-2.28 13.75,-2.28 15.38,-2.42 17.00,-2.56 18.60,-2.72 20.20,-2.88 21.58,-2.96 22.96,-3.04 24.11,-3.08 25.26,-3.11 27.39,-3.14 29.52,-3.17 31.64,-3.17 33.76,-3.18 35.43,-3.33 37.11,-3.48 38.57,-3.64 40.02,-3.80 41.36,-3.90 42.70,-4.00 43.82,-4.01 44.94,-4.02 45.95,-4.01 46.96,-4.00 47.03,-4.20 47.10,-4.39 47.24,-4.56 47.37,-4.72 47.55,-4.84 47.73,-4.95 47.94,-5.00 48.14,-5.05 48.36,-5.03 48.57,-5.01 48.76,-4.93 48.96,-4.84 49.11,-4.70 49.27,-4.56 49.38,-4.37 49.48,-4.19 49.52,-3.98 49.56,-3.77 49.53,-3.56 49.50,-3.35 49.40,-3.16 49.31,-2.97 49.15,-2.82 49.00,-2.67 48.81,-2.58 48.62,-2.48 48.41,-2.46 48.20,-2.43 47.99,-2.47 47.78,-2.51 47.60,-2.62 47.41,-2.72 47.27,-2.88 47.13,-3.04 47.05,-3.24 46.97,-3.43 46.95,-3.64 46.94,-3.86 46.99,-4.06 47.04,-4.27 47.16,-4.45 47.27,-4.62 47.44,-4.76 47.60,-4.89 47.80,-4.96 48.00,-5.03 48.22,-5.04 48.43,-5.04 48.63,-4.98 48.83,-4.91 49.01,-4.79 49.18,-4.66 49.30,-4.49 49.42,-4.32 49.48,-4.11 49.55,-3.91 49.54,-3.70 49.53,-3.49 49.53,-3.49 49.53,-3.49 47.64,-1.17 45.75,1.13 44.55,1.13 43.35,1.13 42.13,1.19 40.90,1.24 39.42,1.42 37.93,1.60 35.84,1.74 33.76,1.88 31.65,1.87 29.55,1.87 27.47,1.88 25.40,1.90 24.32,1.92 23.23,1.94 21.98,2.01 20.72,2.08 19.06,2.26 17.40,2.44 15.57,2.57 13.75,2.70 11.54,2.70 9.32,2.69 7.17,2.69 5.02,2.69 2.81,2.68 0.60,2.67 -1.50,2.66 -3.62,2.65 -5.62,2.62 -7.63,2.59 -8.94,2.55 -10.24,2.50 -11.64,2.19 -13.04,1.88 -13.30,1.84 -13.56,1.81 -13.81,1.71 -14.05,1.62 -14.26,1.47 -14.48,1.32 -14.65,1.12 -14.82,0.92 -14.94,0.69 -15.06,0.46 -15.12,0.20 -15.18,-0.04 -15.18,-0.30 -15.17,-0.57 -15.11,-0.82 -15.04,-1.07 -14.92,-1.30 -14.80,-1.53 -14.62,-1.73 -14.44,-1.92 -14.23,-2.07 -14.01,-2.21 -13.77,-2.30 -13.52,-2.39 -13.26,-2.42 -13.00,-2.45 -12.75,-2.35 -12.50,-2.24 -11.31,-2.12 -10.11,-1.99 -9.03,-1.80 -7.95,-1.62 -6.78,-1.57 -5.61,-1.53 -4.06,-1.49 -2.51,-1.45 -1.27,-1.41 -0.04,-1.37 0.12,-1.35 0.28,-1.34 0.44,-1.28 0.60,-1.23 0.73,-1.14 0.87,-1.05 0.99,-0.93 1.10,-0.81 1.18,-0.66 1.26,-0.52 1.31,-0.36 1.35,-0.20 1.36,-0.04 1.36,0.12 1.33,0.28 1.29,0.44 1.22,0.59 1.15,0.74 1.04,0.87 0.94,0.99 0.80,1.09 0.67,1.19 0.52,1.25 0.36,1.32 0.20,1.34 0.04,1.37 0.04,1.37 L 0.04,1.37 Z"></path></g><g transform="translate(65.0251769824863 114.58076022284149) rotate(0 3.3015072520629474 -0.8906470935189645)" stroke="none"><path d="M0 0 C1.35 0, 8.33 0.3, 8.08 0 C7.83 -0.3, -0.13 -1.78, -1.48 -1.78 C-2.82 -1.78, -0.25 -0.3, 0 0" stroke="none" stroke-width="0" fill="#ffffff" fill-rule="evenodd"></path><path fill="#1e1e1e" d="M 0,-1.38 Q 0,-1.38 1.39,-1.57 2.79,-1.76 4.35,-1.76 5.91,-1.76 6.88,-1.85 7.85,-1.95 8.08,-1.92 8.31,-1.89 8.53,-1.81 8.75,-1.72 8.95,-1.59 9.14,-1.45 9.29,-1.28 9.45,-1.10 9.56,-0.89 9.67,-0.69 9.73,-0.46 9.78,-0.23 9.78,0.00 9.78,0.23 9.73,0.46 9.67,0.69 9.56,0.89 9.45,1.10 9.29,1.28 9.14,1.46 8.95,1.59 8.75,1.72 8.53,1.81 8.31,1.89 8.08,1.92 7.85,1.95 6.54,1.59 5.24,1.24 4.17,1.17 3.10,1.11 1.75,0.86 0.39,0.61 0.01,0.93 -0.36,1.26 -0.50,1.20 -0.65,1.13 -0.77,1.04 -0.90,0.95 -1.00,0.82 -1.10,0.70 -1.17,0.56 -1.24,0.42 -1.27,0.26 -1.30,0.11 -1.30,-0.04 -1.29,-0.20 -1.25,-0.35 -1.21,-0.51 -1.13,-0.64 -1.05,-0.78 -0.94,-0.89 -0.83,-1.01 -0.70,-1.09 -0.56,-1.18 -0.41,-1.23 -0.26,-1.28 -0.10,-1.29 0.04,-1.31 0.20,-1.28 0.36,-1.26 0.81,-0.78 1.27,-0.30 1.29,-0.09 1.30,0.11 1.25,0.32 1.20,0.52 1.08,0.70 0.97,0.88 0.80,1.01 0.63,1.14 0.43,1.21 0.23,1.29 0.02,1.29 -0.18,1.30 -0.38,1.23 -0.59,1.17 -0.76,1.04 -0.93,0.92 -1.05,0.74 -1.18,0.57 -1.24,0.37 -1.30,0.16 -1.29,-0.04 -1.28,-0.25 -1.21,-0.45 -1.13,-0.65 -1.00,-0.81 -0.87,-0.98 -0.69,-1.09 -0.51,-1.20 -0.30,-1.25 -0.09,-1.30 0.11,-1.29 0.32,-1.27 0.51,-1.18 0.71,-1.10 0.87,-0.95 1.02,-0.81 1.13,-0.63 1.23,-0.44 1.27,-0.23 1.31,-0.02 1.28,0.18 1.25,0.39 1.15,0.58 1.06,0.77 0.91,0.92 0.75,1.07 0.56,1.16 0.37,1.25 0.16,1.28 -0.04,1.31 -0.25,1.27 -0.46,1.22 -0.64,1.12 -0.82,1.01 -0.97,0.85 -1.11,0.69 -0.73,0.98 -0.36,1.26 -0.50,1.20 -0.65,1.13 -0.77,1.04 -0.90,0.95 -1.00,0.82 -1.10,0.70 -1.17,0.56 -1.24,0.42 -1.27,0.26 -1.30,0.11 -1.30,-0.04 -1.29,-0.20 -1.25,-0.35 -1.21,-0.51 -1.13,-0.64 -1.05,-0.78 -0.94,-0.89 -0.83,-1.01 -0.70,-1.09 -0.56,-1.18 -0.41,-1.23 -0.26,-1.28 -0.10,-1.29 0.04,-1.31 0.20,-1.28 0.36,-1.26 1.73,-1.68 3.10,-2.10 4.19,-2.16 5.29,-2.22 6.57,-2.08 7.85,-1.95 8.08,-1.92 8.31,-1.89 8.53,-1.81 8.75,-1.72 8.95,-1.59 9.14,-1.46 9.29,-1.28 9.45,-1.10 9.56,-0.89 9.67,-0.69 9.73,-0.46 9.78,-0.23 9.78,-0.00 9.78,0.23 9.73,0.46 9.67,0.69 9.56,0.89 9.45,1.10 9.29,1.28 9.14,1.45 8.95,1.59 8.75,1.72 8.53,1.81 8.31,1.89 8.08,1.92 7.85,1.95 6.88,1.85 5.91,1.76 4.35,1.76 2.79,1.76 1.39,1.57 0,1.38 -0.16,1.36 -0.33,1.34 -0.48,1.28 -0.64,1.22 -0.78,1.13 -0.92,1.03 -1.03,0.91 -1.14,0.78 -1.21,0.64 -1.29,0.49 -1.33,0.32 -1.37,0.16 -1.37,-0.00 -1.37,-0.16 -1.33,-0.32 -1.29,-0.49 -1.21,-0.64 -1.14,-0.78 -1.03,-0.91 -0.92,-1.03 -0.78,-1.13 -0.64,-1.22 -0.48,-1.28 -0.33,-1.34 -0.16,-1.36 0.00,-1.38 0.00,-1.38 L 0,-1.38 Z"></path></g><g transform="translate(89.69962618385034 112.66849409226961) rotate(0 1.7086746213026345 29.404495470888833)" stroke="none"><path fill="#1e1e1e" d="M 1.38,0 Q 1.38,0 1.71,1.32 2.04,2.64 2.44,4.52 2.84,6.40 3.08,7.65 3.32,8.91 3.74,10.92 4.17,12.93 4.38,14.07 4.60,15.22 4.84,17.19 5.08,19.17 5.15,20.28 5.22,21.39 5.31,23.29 5.40,25.18 5.48,27.12 5.57,29.06 5.60,30.76 5.63,32.46 5.44,34.14 5.25,35.81 5.19,36.91 5.13,38.01 5.01,39.36 4.89,40.71 4.87,41.79 4.85,42.86 4.85,44.34 4.85,45.82 5.16,47.37 5.47,48.91 5.52,50.21 5.57,51.51 5.58,52.73 5.60,53.96 5.82,55.25 6.04,56.55 6.08,57.62 6.12,58.69 6.08,59.02 6.04,59.34 5.93,59.65 5.81,59.95 5.63,60.22 5.44,60.49 5.20,60.71 4.96,60.93 4.67,61.08 4.38,61.23 4.06,61.31 3.74,61.39 3.42,61.39 3.09,61.39 2.77,61.31 2.46,61.23 2.17,61.08 1.88,60.93 1.63,60.71 1.39,60.50 1.20,60.23 1.02,59.96 0.90,59.66 0.78,59.35 0.74,59.03 0.70,58.70 0.59,56.86 0.48,55.01 0.49,53.07 0.49,51.13 0.27,48.74 0.05,46.35 0.06,46.14 0.07,45.93 0.15,45.73 0.23,45.53 0.36,45.37 0.50,45.21 0.68,45.10 0.86,44.99 1.07,44.94 1.28,44.89 1.49,44.91 1.70,44.94 1.90,45.03 2.09,45.11 2.24,45.26 2.40,45.40 2.50,45.59 2.60,45.78 2.63,45.99 2.67,46.20 2.64,46.41 2.60,46.62 2.50,46.81 2.41,46.99 2.25,47.14 2.10,47.29 1.91,47.38 1.71,47.47 1.50,47.49 1.29,47.52 1.08,47.47 0.88,47.43 0.69,47.32 0.51,47.21 0.37,47.05 0.23,46.89 0.15,46.69 0.07,46.49 0.06,46.28 0.05,46.07 0.11,45.86 0.16,45.66 0.28,45.48 0.40,45.30 0.57,45.18 0.74,45.05 0.94,44.98 1.14,44.91 1.35,44.91 1.56,44.91 1.76,44.97 1.97,45.04 2.14,45.17 2.31,45.30 2.43,45.47 2.55,45.65 2.60,45.85 2.66,46.06 2.66,46.06 2.66,46.06 2.97,48.33 3.28,50.60 4.00,52.42 4.72,54.24 5.13,55.26 5.53,56.27 5.83,57.48 6.12,58.69 6.08,59.02 6.04,59.34 5.93,59.65 5.81,59.95 5.63,60.22 5.44,60.49 5.20,60.71 4.96,60.93 4.67,61.08 4.38,61.23 4.06,61.31 3.74,61.39 3.42,61.39 3.09,61.39 2.77,61.31 2.46,61.23 2.17,61.08 1.88,60.93 1.63,60.71 1.39,60.50 1.20,60.23 1.02,59.96 0.90,59.66 0.78,59.35 0.74,59.03 0.70,58.70 0.75,57.77 0.79,56.84 0.54,55.40 0.30,53.96 0.31,52.75 0.32,51.54 0.33,50.44 0.34,49.34 0.08,48.15 -0.17,46.96 -0.16,45.42 -0.16,43.88 -0.14,42.79 -0.12,41.70 -0.06,40.25 0.00,38.80 0.11,37.59 0.23,36.37 0.45,35.15 0.67,33.92 0.67,32.33 0.67,30.74 0.69,29.08 0.72,27.41 0.68,25.47 0.64,23.52 0.59,21.57 0.55,19.62 0.33,17.83 0.12,16.03 -0.27,13.95 -0.66,11.87 -0.89,10.72 -1.13,9.58 -1.25,8.42 -1.37,7.27 -1.57,6.19 -1.76,5.12 -1.90,3.88 -2.04,2.65 -1.71,1.32 -1.38,0 -1.36,-0.16 -1.34,-0.33 -1.28,-0.48 -1.22,-0.64 -1.13,-0.78 -1.03,-0.92 -0.91,-1.03 -0.78,-1.14 -0.64,-1.21 -0.49,-1.29 -0.32,-1.33 -0.16,-1.37 0.00,-1.37 0.16,-1.37 0.32,-1.33 0.49,-1.29 0.64,-1.21 0.78,-1.14 0.91,-1.03 1.03,-0.92 1.13,-0.78 1.22,-0.64 1.28,-0.48 1.34,-0.33 1.36,-0.16 1.38,0.00 1.38,0.00 L 1.38,0 Z"></path></g><g transform="translate(90.85804608930266 113.84730471322291) rotate(0 20.47516126181472 27.84584727494348)" stroke="none"><path fill="#1e1e1e" d="M -0.31,-1.32 Q -0.31,-1.32 0.73,-1.78 1.78,-2.25 3.02,-2.43 4.27,-2.60 5.45,-2.70 6.64,-2.79 8.11,-2.83 9.59,-2.87 10.96,-2.88 12.33,-2.90 13.66,-2.90 15.00,-2.91 16.48,-2.91 17.96,-2.91 19.15,-2.92 20.34,-2.92 21.40,-2.79 22.46,-2.66 24.15,-2.51 25.83,-2.35 27.40,-2.32 28.96,-2.29 30.30,-2.29 31.65,-2.28 32.98,-2.28 34.31,-2.28 35.44,-2.12 36.56,-1.96 37.64,-1.91 38.72,-1.87 38.34,-0.48 37.96,0.89 37.40,0.09 36.84,-0.71 36.89,-0.94 36.95,-1.17 37.06,-1.38 37.17,-1.59 37.33,-1.77 37.49,-1.95 37.69,-2.08 37.89,-2.22 38.11,-2.30 38.33,-2.38 38.57,-2.41 38.81,-2.44 39.04,-2.41 39.28,-2.38 39.50,-2.29 39.73,-2.21 39.92,-2.07 40.12,-1.93 40.27,-1.76 40.43,-1.58 40.54,-1.36 40.65,-1.15 40.71,-0.92 40.76,-0.69 40.76,-0.45 40.76,-0.21 40.63,1.02 40.50,2.26 40.52,3.69 40.53,5.12 40.84,7.01 41.14,8.91 41.31,10.24 41.47,11.56 41.62,12.74 41.76,13.92 41.93,15.29 42.09,16.67 42.17,17.99 42.24,19.32 42.31,20.62 42.37,21.92 42.48,23.41 42.59,24.90 42.70,26.18 42.80,27.47 42.94,28.78 43.08,30.09 43.18,31.18 43.28,32.27 43.43,34.11 43.58,35.96 43.64,37.53 43.71,39.10 43.74,40.67 43.77,42.25 43.61,43.85 43.46,45.46 43.27,46.74 43.08,48.02 42.83,49.41 42.59,50.80 42.42,51.86 42.24,52.92 42.20,54.20 42.16,55.47 41.11,54.91 40.06,54.34 40.04,54.50 40.02,54.66 39.96,54.80 39.90,54.95 39.81,55.08 39.72,55.21 39.60,55.31 39.48,55.42 39.33,55.49 39.19,55.56 39.04,55.59 38.89,55.63 38.73,55.63 38.57,55.63 38.42,55.59 38.26,55.55 38.12,55.47 37.98,55.40 37.87,55.29 37.75,55.18 37.66,55.05 37.57,54.92 37.52,54.77 37.47,54.62 37.45,54.46 37.43,54.31 37.44,54.23 37.44,54.15 37.50,53.95 37.57,53.74 37.69,53.57 37.81,53.40 37.99,53.27 38.16,53.15 38.36,53.09 38.57,53.02 38.78,53.03 38.99,53.03 39.19,53.11 39.39,53.18 39.56,53.31 39.72,53.45 39.84,53.63 39.95,53.80 40.00,54.01 40.05,54.22 40.04,54.43 40.02,54.64 39.94,54.84 39.85,55.03 39.71,55.19 39.57,55.35 39.38,55.45 39.20,55.56 38.99,55.60 38.78,55.64 38.57,55.61 38.36,55.58 38.17,55.49 37.98,55.39 37.83,55.24 37.68,55.09 37.58,54.90 37.49,54.71 37.46,54.50 37.43,54.29 37.47,54.08 37.51,53.87 37.62,53.69 37.72,53.50 37.88,53.36 38.04,53.22 38.23,53.13 38.43,53.05 38.64,53.03 38.85,53.02 39.06,53.07 39.26,53.12 39.44,53.23 39.62,53.35 39.75,53.51 39.89,53.68 39.96,53.88 40.03,54.08 40.05,54.21 40.06,54.34 40.04,54.50 40.02,54.66 39.96,54.80 39.90,54.95 39.81,55.08 39.72,55.21 39.60,55.31 39.48,55.42 39.34,55.49 39.19,55.56 39.04,55.59 38.89,55.63 38.73,55.63 38.57,55.63 38.42,55.59 38.26,55.55 38.12,55.47 37.98,55.40 37.87,55.29 37.75,55.18 37.66,55.05 37.57,54.92 37.52,54.77 37.47,54.62 37.45,54.46 37.43,54.31 36.94,53.81 36.44,53.32 36.59,52.08 36.73,50.85 36.95,49.66 37.17,48.46 37.43,47.16 37.69,45.87 37.90,44.69 38.10,43.51 38.11,42.21 38.11,40.92 38.08,39.38 38.06,37.84 37.98,36.18 37.90,34.52 37.77,32.56 37.63,30.60 37.53,29.23 37.42,27.87 37.33,26.58 37.24,25.28 37.13,23.73 37.03,22.17 36.97,20.88 36.91,19.59 36.85,18.39 36.80,17.19 36.70,15.85 36.60,14.50 36.40,12.28 36.20,10.05 35.96,7.51 35.72,4.96 35.81,3.90 35.90,2.84 36.37,1.06 36.84,-0.71 36.89,-0.94 36.95,-1.17 37.06,-1.38 37.17,-1.59 37.33,-1.77 37.49,-1.95 37.69,-2.08 37.89,-2.22 38.11,-2.30 38.33,-2.38 38.57,-2.41 38.81,-2.44 39.04,-2.41 39.28,-2.38 39.50,-2.29 39.72,-2.21 39.92,-2.07 40.12,-1.93 40.27,-1.76 40.43,-1.58 40.54,-1.37 40.65,-1.15 40.71,-0.92 40.76,-0.69 40.76,-0.45 40.76,-0.21 40.59,0.03 40.42,0.29 38.82,1.00 37.22,1.71 36.11,1.63 35.00,1.55 33.83,1.47 32.66,1.39 31.57,1.38 30.49,1.38 28.82,1.37 27.14,1.36 25.52,1.27 23.89,1.18 22.11,0.95 20.34,0.72 19.15,0.72 17.97,0.72 16.49,0.73 15.01,0.73 13.69,0.73 12.37,0.74 11.03,0.76 9.68,0.77 8.29,0.80 6.90,0.84 4.75,1.02 2.61,1.20 1.46,1.26 0.31,1.32 0.15,1.33 -0.00,1.35 -0.17,1.33 -0.33,1.31 -0.48,1.25 -0.63,1.19 -0.77,1.10 -0.90,1.01 -1.01,0.88 -1.12,0.76 -1.19,0.61 -1.27,0.47 -1.31,0.31 -1.34,0.15 -1.34,-0.00 -1.34,-0.17 -1.30,-0.33 -1.26,-0.48 -1.18,-0.63 -1.11,-0.77 -1.00,-0.90 -0.89,-1.02 -0.75,-1.11 -0.62,-1.20 -0.47,-1.26 -0.31,-1.32 -0.31,-1.32 L -0.31,-1.32 Z"></path></g><g transform="translate(98.15611253669704 168.54357882337354) rotate(0 13.886645419177512 -1.3752685362542252)" stroke="none"><path fill="#1e1e1e" d="M 0.73,1.09 Q 0.73,1.09 0.24,1.50 -0.23,1.90 -1.21,2.44 -2.19,2.99 -2.95,3.33 -3.70,3.68 -3.93,3.70 -4.16,3.72 -4.39,3.68 -4.62,3.64 -4.83,3.55 -5.05,3.46 -5.23,3.32 -5.42,3.18 -5.56,3.00 -5.71,2.82 -5.81,2.61 -5.91,2.41 -5.96,2.18 -6.00,1.95 -5.99,1.72 -5.98,1.49 -5.92,1.27 -5.86,1.04 -5.74,0.84 -5.62,0.64 -5.46,0.47 -5.30,0.31 -5.11,0.18 -4.91,0.06 -4.69,-0.00 -4.47,-0.08 -3.21,-0.25 -1.94,-0.43 -0.11,-0.27 1.71,-0.12 2.82,-0.11 3.94,-0.11 5.38,-0.10 6.83,-0.10 8.17,-0.10 9.51,-0.09 10.77,-0.09 12.02,-0.09 13.16,0.07 14.30,0.23 15.57,0.29 16.83,0.34 18.87,0.37 20.90,0.41 22.50,0.41 24.11,0.40 25.33,0.39 26.55,0.38 27.85,0.64 29.14,0.91 30.26,0.91 31.37,0.91 30.47,1.92 29.56,2.93 29.80,0.92 30.03,-1.07 29.81,-3.48 29.59,-5.89 29.57,-6.10 29.56,-6.31 29.62,-6.52 29.67,-6.72 29.79,-6.90 29.91,-7.08 30.08,-7.21 30.25,-7.34 30.45,-7.40 30.65,-7.47 30.86,-7.47 31.07,-7.47 31.28,-7.41 31.48,-7.34 31.65,-7.21 31.82,-7.08 31.94,-6.91 32.06,-6.73 32.11,-6.53 32.17,-6.32 32.16,-6.11 32.15,-5.90 32.07,-5.70 31.99,-5.50 31.86,-5.34 31.72,-5.18 31.54,-5.07 31.36,-4.96 31.15,-4.91 30.94,-4.87 30.73,-4.89 30.52,-4.91 30.33,-5.00 30.13,-5.09 29.98,-5.23 29.82,-5.38 29.72,-5.57 29.62,-5.75 29.59,-5.96 29.55,-6.17 29.59,-6.38 29.62,-6.59 29.72,-6.78 29.82,-6.97 29.97,-7.11 30.13,-7.26 30.32,-7.35 30.51,-7.44 30.72,-7.47 30.93,-7.49 31.14,-7.44 31.35,-7.40 31.53,-7.29 31.71,-7.18 31.85,-7.02 31.99,-6.86 32.07,-6.66 32.15,-6.46 32.15,-6.46 32.15,-6.46 32.74,-3.98 33.33,-1.50 33.85,-0.13 34.37,1.23 34.28,2.57 34.20,3.92 32.94,4.95 31.67,5.97 30.52,5.90 29.36,5.82 27.95,5.54 26.54,5.27 25.32,5.26 24.09,5.24 22.47,5.22 20.85,5.20 18.73,5.16 16.61,5.12 14.31,4.91 12.00,4.69 10.75,4.69 9.49,4.69 8.14,4.68 6.79,4.68 5.31,4.66 3.83,4.65 2.65,4.60 1.46,4.55 0.20,4.46 -1.05,4.36 -2.37,4.02 -3.70,3.68 -3.93,3.70 -4.16,3.72 -4.39,3.68 -4.62,3.64 -4.83,3.55 -5.05,3.46 -5.23,3.32 -5.42,3.18 -5.56,3.00 -5.71,2.82 -5.81,2.61 -5.91,2.41 -5.96,2.18 -6.00,1.95 -5.99,1.72 -5.98,1.49 -5.92,1.27 -5.86,1.04 -5.74,0.84 -5.62,0.64 -5.46,0.47 -5.30,0.31 -5.11,0.18 -4.91,0.06 -4.69,-0.00 -4.47,-0.08 -4.35,-0.06 -4.23,-0.04 -3.04,-0.26 -1.85,-0.49 -1.29,-0.79 -0.73,-1.09 -0.59,-1.16 -0.45,-1.23 -0.30,-1.27 -0.14,-1.31 0.01,-1.30 0.17,-1.30 0.32,-1.26 0.48,-1.22 0.62,-1.15 0.76,-1.07 0.87,-0.97 0.99,-0.86 1.08,-0.73 1.17,-0.60 1.22,-0.45 1.28,-0.30 1.30,-0.14 1.31,0.01 1.29,0.17 1.27,0.32 1.21,0.47 1.16,0.62 1.06,0.75 0.97,0.88 0.85,0.98 0.73,1.09 0.73,1.09 L 0.73,1.09 Z"></path></g><g transform="translate(23.987988748234784 26.95670016370059) rotate(0 19.244332221129298 -2.7636363711662852)" stroke="none"><path fill="#1971c2" d="M -1.32,-0.19 Q -1.32,-0.19 -1.34,-1.13 -1.36,-2.07 -0.79,-3.29 -0.22,-4.51 1.09,-5.15 2.42,-5.79 3.80,-5.60 5.18,-5.42 6.86,-5.21 8.54,-5.00 10.25,-4.96 11.95,-4.91 13.39,-5.19 14.83,-5.46 16.15,-5.79 17.46,-6.11 18.61,-6.33 19.75,-6.56 21.12,-6.65 22.49,-6.74 23.78,-6.75 25.08,-6.76 26.95,-6.88 28.83,-7.00 30.39,-7.08 31.95,-7.15 33.32,-6.90 34.68,-6.65 36.64,-5.95 38.61,-5.26 38.81,-5.20 39.02,-5.15 39.20,-5.03 39.37,-4.92 39.51,-4.75 39.64,-4.58 39.71,-4.38 39.78,-4.18 39.78,-3.97 39.78,-3.76 39.72,-3.55 39.65,-3.35 39.53,-3.18 39.40,-3.01 39.22,-2.89 39.05,-2.77 38.85,-2.71 38.64,-2.65 38.43,-2.66 38.22,-2.66 38.02,-2.74 37.82,-2.82 37.66,-2.95 37.49,-3.09 37.38,-3.27 37.27,-3.45 37.22,-3.66 37.17,-3.86 37.19,-4.07 37.21,-4.29 37.30,-4.48 37.39,-4.67 37.53,-4.83 37.68,-4.99 37.86,-5.09 38.05,-5.19 38.26,-5.23 38.47,-5.26 38.68,-5.23 38.89,-5.20 39.08,-5.10 39.26,-5.01 39.41,-4.85 39.56,-4.70 39.65,-4.51 39.74,-4.32 39.77,-4.11 39.80,-3.90 39.75,-3.69 39.71,-3.48 39.60,-3.30 39.50,-3.11 39.34,-2.97 39.18,-2.83 38.98,-2.75 38.78,-2.67 38.57,-2.66 38.36,-2.64 38.36,-2.64 38.36,-2.64 35.21,-3.23 32.07,-3.82 30.67,-3.74 29.27,-3.67 28.21,-3.54 27.15,-3.41 25.40,-3.40 23.65,-3.39 22.36,-3.35 21.07,-3.32 19.72,-3.08 18.36,-2.84 16.94,-2.49 15.52,-2.14 13.71,-1.85 11.91,-1.55 10.11,-1.59 8.32,-1.62 6.60,-1.85 4.88,-2.07 3.39,-1.83 1.89,-1.59 1.61,-0.70 1.32,0.19 1.28,0.34 1.24,0.50 1.16,0.64 1.08,0.78 0.97,0.90 0.86,1.02 0.73,1.11 0.59,1.20 0.44,1.25 0.29,1.31 0.12,1.32 -0.03,1.34 -0.19,1.31 -0.35,1.29 -0.50,1.23 -0.65,1.17 -0.78,1.07 -0.91,0.98 -1.01,0.86 -1.12,0.73 -1.19,0.59 -1.26,0.44 -1.30,0.28 -1.33,0.13 -1.33,-0.03 -1.32,-0.19 -1.32,-0.19 L -1.32,-0.19 Z"></path></g><g transform="translate(121.38254737776879 20.014871510664307) rotate(0 1.4914682586495474 22.89490158747958)" stroke="none"><path fill="#1971c2" d="M 1.33,0.32 Q 1.33,0.32 1.25,1.59 1.17,2.86 1.03,4.21 0.88,5.56 1.69,6.54 2.50,7.53 3.38,8.65 4.26,9.78 4.45,11.69 4.65,13.60 4.23,14.72 3.82,15.84 3.05,17.49 2.27,19.14 2.87,20.43 3.46,21.72 4.46,23.21 5.46,24.70 5.54,26.04 5.62,27.39 5.33,28.51 5.04,29.63 4.39,30.74 3.75,31.84 3.10,32.69 2.46,33.54 2.17,34.70 1.89,35.86 2.20,37.21 2.50,38.57 2.66,39.98 2.82,41.40 3.19,43.39 3.56,45.37 3.59,45.58 3.63,45.79 3.59,46.00 3.55,46.21 3.45,46.40 3.35,46.59 3.20,46.73 3.04,46.88 2.85,46.97 2.65,47.05 2.44,47.07 2.23,47.10 2.02,47.05 1.82,47.00 1.64,46.89 1.45,46.78 1.32,46.62 1.18,46.45 1.10,46.26 1.03,46.06 1.02,45.85 1.01,45.63 1.07,45.43 1.12,45.22 1.24,45.05 1.37,44.87 1.54,44.75 1.71,44.62 1.91,44.55 2.11,44.49 2.32,44.49 2.53,44.49 2.74,44.56 2.94,44.63 3.10,44.76 3.27,44.89 3.39,45.07 3.51,45.24 3.56,45.45 3.62,45.65 3.61,45.86 3.59,46.08 3.51,46.27 3.43,46.47 3.29,46.63 3.15,46.79 2.97,46.90 2.79,47.01 2.58,47.05 2.37,47.10 2.16,47.07 1.95,47.05 1.76,46.96 1.57,46.87 1.41,46.72 1.26,46.57 1.16,46.38 1.06,46.19 1.06,46.19 1.06,46.19 0.12,44.21 -0.81,42.23 -1.49,40.13 -2.17,38.04 -2.28,36.63 -2.39,35.21 -2.16,34.02 -1.94,32.82 -0.94,31.18 0.05,29.53 0.67,28.33 1.29,27.12 0.94,25.92 0.59,24.71 -0.60,22.89 -1.80,21.08 -1.55,19.14 -1.30,17.21 -0.62,15.75 0.06,14.30 0.29,12.60 0.53,10.90 -0.39,9.85 -1.31,8.80 -2.06,7.10 -2.81,5.40 -2.59,3.69 -2.37,1.98 -1.85,0.82 -1.33,-0.32 -1.27,-0.48 -1.21,-0.63 -1.12,-0.77 -1.02,-0.91 -0.90,-1.02 -0.77,-1.13 -0.63,-1.20 -0.48,-1.28 -0.32,-1.32 -0.16,-1.36 0.00,-1.36 0.16,-1.36 0.32,-1.32 0.48,-1.28 0.63,-1.20 0.78,-1.12 0.90,-1.01 1.02,-0.90 1.12,-0.77 1.21,-0.63 1.27,-0.48 1.33,-0.32 1.35,-0.16 1.37,0.00 1.35,0.16 1.33,0.32 1.33,0.32 L 1.33,0.32 Z"></path></g><g transform="translate(278.9862383704967 21.167483534300118) rotate(0 2.6064763518425025 1.7812836655139108)" stroke="none"><path d="M0 0 C0.09 -0.27, -0.05 -1.28, 0.52 -1.62 C1.1 -1.97, 2.59 -2.46, 3.45 -2.07 C4.3 -1.68, 5.16 -0.29, 5.65 0.71 C6.13 1.71, 6.62 3.12, 6.37 3.93 C6.12 4.74, 5.11 5.37, 4.14 5.55 C3.18 5.74, 1.46 5.91, 0.58 5.06 C-0.3 4.2, -1.09 1.45, -1.16 0.45 C-1.23 -0.56, -0.47 -0.84, 0.17 -1 C0.82 -1.15, 2.75 -0.64, 2.72 -0.47 C2.69 -0.31, 0.45 -0.08, 0 0" stroke="none" stroke-width="0" fill="#ffffff" fill-rule="evenodd"></path><path fill="#1971c2" d="M -0.95,-0.91 Q -0.95,-0.91 -0.39,-1.51 0.17,-2.12 1.39,-2.67 2.61,-3.22 4.00,-2.54 5.39,-1.87 6.12,-0.86 6.86,0.15 7.26,1.19 7.67,2.23 7.51,3.47 7.36,4.70 6.27,5.75 5.19,6.81 3.74,6.99 2.30,7.18 0.92,6.53 -0.45,5.89 -1.11,5.02 -1.77,4.15 -2.22,2.61 -2.66,1.07 -2.13,-0.25 -1.60,-1.59 -0.38,-2.07 0.82,-2.55 0.39,-1.93 -0.03,-1.31 0.12,-1.29 0.28,-1.28 0.43,-1.22 0.58,-1.17 0.71,-1.09 0.84,-1.00 0.95,-0.88 1.06,-0.77 1.13,-0.63 1.21,-0.49 1.25,-0.34 1.29,-0.18 1.30,-0.03 1.30,0.12 1.27,0.28 1.23,0.43 1.16,0.57 1.09,0.72 0.99,0.84 0.89,0.96 0.76,1.05 0.63,1.14 0.49,1.20 0.34,1.26 0.18,1.29 0.03,1.31 -0.00,1.31 -0.04,1.31 -0.25,1.27 -0.46,1.22 -0.64,1.12 -0.82,1.01 -0.97,0.85 -1.11,0.69 -1.19,0.50 -1.27,0.30 -1.29,0.09 -1.30,-0.11 -1.25,-0.32 -1.20,-0.52 -1.08,-0.70 -0.97,-0.88 -0.80,-1.01 -0.63,-1.14 -0.43,-1.21 -0.23,-1.29 -0.02,-1.29 0.18,-1.30 0.38,-1.23 0.59,-1.17 0.76,-1.04 0.93,-0.92 1.05,-0.74 1.18,-0.57 1.24,-0.37 1.30,-0.16 1.29,0.04 1.28,0.25 1.21,0.45 1.13,0.65 1.00,0.81 0.87,0.98 0.69,1.09 0.51,1.20 0.30,1.25 0.09,1.30 -0.11,1.29 -0.32,1.27 -0.52,1.18 -0.71,1.10 -0.87,0.95 -1.02,0.81 -1.13,0.62 -1.23,0.44 -1.27,0.23 -1.31,0.02 -1.28,-0.18 -1.25,-0.39 -1.15,-0.58 -1.06,-0.77 -0.90,-0.92 -0.75,-1.07 -0.56,-1.16 -0.37,-1.25 -0.20,-1.28 -0.03,-1.31 0.12,-1.29 0.28,-1.28 0.43,-1.22 0.58,-1.17 0.71,-1.09 0.84,-1.00 0.95,-0.88 1.06,-0.77 1.13,-0.63 1.21,-0.49 1.25,-0.34 1.29,-0.18 1.30,-0.03 1.30,0.12 1.27,0.28 1.23,0.43 1.16,0.57 1.09,0.72 0.99,0.84 0.89,0.96 0.76,1.05 0.63,1.14 0.49,1.20 0.34,1.26 0.18,1.29 0.03,1.31 0.32,1.56 0.61,1.82 1.44,2.93 2.26,4.03 3.51,3.47 4.76,2.91 4.38,1.89 4.00,0.87 3.04,0.31 2.09,-0.25 1.52,0.32 0.95,0.91 0.83,1.01 0.71,1.11 0.56,1.18 0.42,1.25 0.26,1.28 0.11,1.31 -0.04,1.31 -0.20,1.30 -0.35,1.26 -0.51,1.21 -0.65,1.13 -0.78,1.05 -0.90,0.94 -1.01,0.83 -1.10,0.70 -1.19,0.57 -1.24,0.42 -1.29,0.27 -1.30,0.11 -1.31,-0.04 -1.29,-0.20 -1.27,-0.36 -1.20,-0.50 -1.14,-0.65 -1.05,-0.78 -0.95,-0.91 -0.95,-0.91 L -0.95,-0.91 Z"></path></g><g transform="translate(259.09028706140816 121.91552574952766) rotate(0 1.911424408570383 0.7727639271188309)" stroke="none"><path d="M0 0 C0.02 -0.45, -0.41 -2.23, 0.12 -2.67 C0.64 -3.12, 2.35 -2.88, 3.13 -2.67 C3.9 -2.46, 4.34 -2.23, 4.78 -1.41 C5.21 -0.6, 6.72 1.29, 5.73 2.23 C4.74 3.17, 0.01 4.92, -1.16 4.22 C-2.33 3.51, -1.5 -1.31, -1.3 -2.02 C-1.11 -2.72, -0.22 -0.34, 0 0" stroke="none" stroke-width="0" fill="#ffffff" fill-rule="evenodd"></path><path fill="#1971c2" d="M -1.46,-0.06 Q -1.46,-0.06 -1.68,-0.78 -1.90,-1.49 -1.19,-2.92 -0.47,-4.35 0.98,-4.48 2.45,-4.62 3.62,-4.21 4.79,-3.81 5.70,-2.91 6.61,-2.02 7.09,-0.80 7.56,0.40 6.93,2.13 6.29,3.86 5.19,4.47 4.09,5.09 2.84,5.46 1.60,5.84 0.47,5.91 -0.65,5.98 -1.93,4.86 -3.20,3.74 -3.27,2.03 -3.35,0.32 -2.33,0.20 -1.31,0.07 -1.30,-0.08 -1.29,-0.24 -1.24,-0.39 -1.19,-0.54 -1.11,-0.67 -1.03,-0.81 -0.91,-0.92 -0.80,-1.03 -0.67,-1.11 -0.53,-1.19 -0.38,-1.24 -0.23,-1.29 -0.07,-1.30 0.08,-1.31 0.23,-1.28 0.39,-1.25 0.53,-1.18 0.68,-1.12 0.80,-1.02 0.93,-0.92 1.02,-0.80 1.12,-0.67 1.19,-0.53 1.25,-0.38 1.28,-0.23 1.31,-0.07 1.17,-0.43 1.04,-0.79 1.14,-0.60 1.24,-0.41 1.27,-0.20 1.31,0.00 1.27,0.21 1.24,0.42 1.14,0.61 1.04,0.79 0.88,0.94 0.73,1.08 0.53,1.17 0.34,1.26 0.13,1.28 -0.07,1.31 -0.28,1.26 -0.49,1.21 -0.67,1.10 -0.85,0.99 -0.99,0.83 -1.12,0.67 -1.20,0.47 -1.28,0.27 -1.29,0.06 -1.30,-0.14 -1.24,-0.35 -1.18,-0.55 -1.06,-0.73 -0.94,-0.90 -0.78,-1.03 -0.61,-1.16 -0.40,-1.22 -0.20,-1.29 0.00,-1.29 0.21,-1.29 0.41,-1.22 0.62,-1.15 0.78,-1.02 0.95,-0.89 1.07,-0.72 1.19,-0.54 1.25,-0.34 1.30,-0.13 1.29,0.07 1.28,0.28 1.20,0.48 1.12,0.68 0.98,0.84 0.84,1.00 0.66,1.11 0.48,1.22 0.27,1.26 0.06,1.31 -0.14,1.28 -0.35,1.26 -0.54,1.17 -0.74,1.08 -1.02,0.57 -1.31,0.07 -1.30,-0.08 -1.29,-0.24 -1.24,-0.39 -1.19,-0.54 -1.11,-0.67 -1.03,-0.81 -0.91,-0.92 -0.80,-1.03 -0.67,-1.11 -0.53,-1.19 -0.38,-1.24 -0.23,-1.29 -0.07,-1.30 0.08,-1.31 0.23,-1.28 0.39,-1.25 0.53,-1.18 0.68,-1.12 0.80,-1.02 0.93,-0.92 1.02,-0.80 1.12,-0.67 1.19,-0.53 1.25,-0.38 1.28,-0.23 1.31,-0.07 0.48,0.05 -0.34,0.19 0.63,1.14 1.61,2.10 2.57,1.30 3.52,0.49 2.78,-0.40 2.04,-1.30 1.75,-0.61 1.46,0.06 1.43,0.24 1.40,0.41 1.33,0.57 1.26,0.74 1.15,0.88 1.04,1.02 0.90,1.13 0.77,1.24 0.61,1.31 0.45,1.38 0.27,1.42 0.10,1.45 -0.06,1.44 -0.24,1.44 -0.41,1.39 -0.58,1.34 -0.73,1.25 -0.88,1.16 -1.01,1.03 -1.13,0.91 -1.23,0.76 -1.32,0.61 -1.37,0.44 -1.43,0.28 -1.44,0.10 -1.46,-0.06 -1.46,-0.06 L -1.46,-0.06 Z"></path></g><g transform="translate(102.5871055003845 123.19910971669742) rotate(0 2.331338472389689 20.052679945888485)" stroke="none"><path fill="#1971c2" d="M 1.26,-0.43 Q 1.26,-0.43 1.77,0.33 2.27,1.10 2.60,2.21 2.92,3.32 3.38,4.29 3.85,5.27 4.37,6.49 4.89,7.71 5.10,9.04 5.32,10.38 5.17,11.80 5.02,13.21 4.69,14.51 4.36,15.80 4.22,17.05 4.08,18.30 4.36,19.39 4.63,20.48 4.85,21.99 5.07,23.50 4.71,25.32 4.34,27.14 4.06,28.66 3.78,30.19 3.55,31.26 3.32,32.33 3.75,33.58 4.17,34.84 5.06,37.34 5.95,39.84 5.95,40.06 5.96,40.27 5.90,40.47 5.84,40.68 5.72,40.85 5.59,41.02 5.42,41.15 5.25,41.27 5.05,41.34 4.84,41.40 4.63,41.40 4.42,41.39 4.22,41.32 4.02,41.25 3.85,41.12 3.69,40.98 3.57,40.81 3.45,40.63 3.40,40.42 3.35,40.22 3.37,40.00 3.38,39.79 3.46,39.60 3.55,39.40 3.69,39.24 3.83,39.08 4.01,38.98 4.20,38.87 4.41,38.83 4.61,38.79 4.82,38.82 5.03,38.84 5.23,38.94 5.42,39.03 5.57,39.18 5.72,39.33 5.81,39.52 5.91,39.71 5.94,39.92 5.97,40.13 5.93,40.34 5.89,40.55 5.79,40.73 5.69,40.92 5.53,41.06 5.37,41.20 5.18,41.29 4.98,41.37 4.77,41.39 4.56,41.41 4.35,41.36 4.15,41.31 3.97,41.20 3.79,41.08 3.65,40.92 3.52,40.75 3.44,40.56 3.37,40.36 3.37,40.36 3.37,40.36 2.33,39.07 1.28,37.77 0.44,36.22 -0.40,34.67 -0.56,33.46 -0.73,32.26 -0.45,30.87 -0.17,29.49 0.14,27.83 0.45,26.17 0.76,24.93 1.07,23.69 0.79,22.31 0.52,20.92 0.34,19.46 0.17,18.00 0.36,16.45 0.56,14.91 0.88,13.59 1.21,12.27 1.31,11.02 1.42,9.78 1.06,8.44 0.69,7.10 0.20,6.16 -0.28,5.22 -0.70,3.74 -1.11,2.27 -1.19,1.35 -1.26,0.43 -1.30,0.28 -1.33,0.12 -1.33,-0.03 -1.32,-0.20 -1.28,-0.35 -1.24,-0.51 -1.16,-0.65 -1.08,-0.79 -0.97,-0.91 -0.86,-1.03 -0.72,-1.11 -0.58,-1.20 -0.43,-1.26 -0.28,-1.31 -0.12,-1.32 0.04,-1.34 0.20,-1.31 0.36,-1.29 0.50,-1.23 0.65,-1.17 0.78,-1.07 0.92,-0.97 1.02,-0.85 1.12,-0.72 1.19,-0.58 1.26,-0.43 1.26,-0.43 L 1.26,-0.43 Z"></path></g><g transform="translate(22.510977064972394 141.82412393169943) rotate(0 17.854228334588697 -1.2704741469869987)" stroke="none"><path fill="#1971c2" d="M -0.44,-1.25 Q -0.44,-1.25 0.41,-1.70 1.27,-2.16 2.41,-2.13 3.55,-2.09 5.16,-1.59 6.78,-1.09 7.82,-0.87 8.86,-0.65 9.73,-1.33 10.60,-2.01 12.09,-2.55 13.58,-3.08 14.75,-3.11 15.93,-3.14 17.46,-3.15 18.99,-3.17 20.16,-3.64 21.33,-4.11 22.56,-4.25 23.79,-4.39 24.95,-3.67 26.11,-2.95 27.34,-2.31 28.56,-1.66 30.21,-2.23 31.87,-2.80 33.43,-3.74 34.98,-4.68 35.17,-4.77 35.37,-4.85 35.58,-4.87 35.79,-4.89 36.00,-4.85 36.20,-4.80 36.38,-4.69 36.56,-4.58 36.70,-4.41 36.84,-4.25 36.91,-4.05 36.99,-3.85 37.00,-3.64 37.01,-3.43 36.95,-3.22 36.89,-3.02 36.77,-2.84 36.65,-2.67 36.48,-2.54 36.31,-2.42 36.10,-2.35 35.90,-2.29 35.69,-2.29 35.48,-2.29 35.28,-2.36 35.08,-2.43 34.91,-2.56 34.74,-2.69 34.62,-2.87 34.51,-3.05 34.45,-3.25 34.40,-3.46 34.41,-3.67 34.42,-3.88 34.51,-4.08 34.59,-4.27 34.73,-4.43 34.86,-4.59 35.05,-4.70 35.23,-4.81 35.44,-4.85 35.65,-4.90 35.86,-4.87 36.07,-4.85 36.26,-4.75 36.45,-4.66 36.61,-4.51 36.76,-4.37 36.86,-4.18 36.95,-3.99 36.98,-3.78 37.02,-3.57 36.98,-3.36 36.94,-3.15 36.84,-2.96 36.74,-2.78 36.58,-2.63 36.43,-2.49 36.43,-2.49 36.43,-2.49 34.79,-1.40 33.15,-0.30 31.90,0.34 30.65,1.00 29.32,1.21 27.99,1.42 26.51,0.81 25.03,0.20 23.78,-0.54 22.53,-1.29 21.41,-0.81 20.30,-0.34 19.16,-0.21 18.03,-0.08 16.49,-0.06 14.95,-0.04 13.61,0.38 12.27,0.80 11.21,1.49 10.15,2.18 8.64,2.25 7.14,2.32 5.80,1.86 4.46,1.39 3.35,1.15 2.25,0.90 1.34,1.07 0.44,1.25 0.29,1.28 0.13,1.32 -0.02,1.31 -0.18,1.31 -0.33,1.27 -0.49,1.23 -0.63,1.15 -0.77,1.07 -0.89,0.97 -1.01,0.86 -1.09,0.72 -1.18,0.59 -1.24,0.44 -1.29,0.29 -1.31,0.13 -1.32,-0.02 -1.30,-0.18 -1.28,-0.34 -1.22,-0.49 -1.16,-0.63 -1.07,-0.76 -0.97,-0.89 -0.85,-1.00 -0.73,-1.10 -0.59,-1.17 -0.44,-1.25 -0.44,-1.25 L -0.44,-1.25 Z"></path></g><g transform="translate(58.798622643822455 139.09978545650847) rotate(0 3.301528295112803 0.8906576150438923)" stroke="none"><path fill="#1971c2" d="M 0.42,-1.36 Q 0.42,-1.36 1.65,-1.16 2.88,-0.96 4.83,-0.23 6.79,0.48 6.99,0.54 7.19,0.61 7.37,0.73 7.54,0.86 7.66,1.03 7.78,1.21 7.84,1.41 7.90,1.61 7.89,1.83 7.88,2.04 7.81,2.24 7.73,2.44 7.60,2.60 7.46,2.76 7.28,2.88 7.10,2.99 6.90,3.04 6.69,3.09 6.48,3.07 6.27,3.05 6.07,2.96 5.88,2.87 5.72,2.73 5.57,2.59 5.46,2.40 5.36,2.22 5.32,2.01 5.28,1.80 5.32,1.59 5.35,1.38 5.44,1.19 5.54,1.00 5.69,0.85 5.84,0.70 6.04,0.61 6.23,0.52 6.44,0.49 6.65,0.46 6.86,0.51 7.07,0.55 7.25,0.66 7.43,0.76 7.57,0.92 7.71,1.08 7.79,1.28 7.88,1.47 7.89,1.69 7.91,1.90 7.85,2.10 7.80,2.31 7.68,2.49 7.57,2.66 7.40,2.80 7.23,2.93 7.03,3.00 6.83,3.07 6.62,3.07 6.41,3.08 6.41,3.08 6.41,3.08 4.11,2.75 1.81,2.43 0.69,1.90 -0.42,1.36 -0.58,1.29 -0.74,1.22 -0.87,1.11 -1.01,1.01 -1.12,0.87 -1.22,0.73 -1.29,0.58 -1.36,0.42 -1.39,0.25 -1.42,0.08 -1.41,-0.08 -1.40,-0.26 -1.35,-0.42 -1.30,-0.59 -1.21,-0.73 -1.12,-0.88 -1.00,-1.00 -0.88,-1.12 -0.73,-1.21 -0.58,-1.30 -0.41,-1.35 -0.25,-1.40 -0.08,-1.41 0.09,-1.42 0.25,-1.39 0.42,-1.36 0.42,-1.36 L 0.42,-1.36 Z"></path></g></svg>