<svg xmlns="http://www.w3.org/2000/svg" direction="ltr" width="663.475356071888" height="375.5558642502009" viewBox="579.2953432934182 -156.52061705419973 663.475356071888 375.5558642502009" stroke-linecap="round" stroke-linejoin="round" data-color-mode="light" class="tl-container tl-theme__force-sRGB tl-theme__light" style="background-color: rgb(249, 250, 251);"><defs/><g transform="matrix(1, 0, 0, 1, 626.0919, -42.7125)" opacity="1"><g transform="scale(1)"><path d="M3.675,-0.57 T3.6692,1.8462 3.4353,6.2628 3.0996,14.1722 3.1807,24.529 3.4907,32.5679 3.8252,39.2195 4.2248,45.4536 4.4113,48.6271 A4.0805,4.0805 0 0 1 -3.7421,48.9815 T-3.8298,45.8472 -4.045,39.5144 -4.1948,32.7605 -4.3015,24.5885 -4.2814,15.883 -3.8402,8.0252 -3.5092,1.8431 -3.515,-0.57 A3.595,3.595 0 0 1 3.675,-0.57 ZM0.5831,52.8773 T-0.1214,52.8843 -0.8259,52.8914 A4.0088,4.0088 0 0 1 -1.3141,44.8886 T-0.614,44.81 0.0861,44.7313 A4.0805,4.0805 0 0 1 0.5831,52.8773 Z" stroke-linecap="round" fill="#1d1d1d"/></g></g><g transform="matrix(1, 0, 0, 1, 1001.8527, -47.4637)" opacity="1"><g transform="scale(1)"><path d="M3.675,-0.57 T3.6692,1.8462 3.4353,6.2628 3.0996,14.1722 3.1807,24.529 3.4907,32.5679 3.8252,39.2195 4.2248,45.4536 4.4113,48.6271 A4.0805,4.0805 0 0 1 -3.7421,48.9815 T-3.8298,45.8472 -4.045,39.5144 -4.1948,32.7605 -4.3015,24.5885 -4.2814,15.883 -3.8402,8.0252 -3.5092,1.8431 -3.515,-0.57 A3.595,3.595 0 0 1 3.675,-0.57 ZM0.5831,52.8773 T-0.1214,52.8843 -0.8259,52.8914 A4.0088,4.0088 0 0 1 -1.3141,44.8886 T-0.614,44.81 0.0861,44.7313 A4.0805,4.0805 0 0 1 0.5831,52.8773 Z" stroke-linecap="round" fill="#1d1d1d"/></g></g><g transform="matrix(1, 0, 0, 1, 699.5109, -37.3038)" opacity="1"><g transform="scale(1)"><path d="M-3.0678,-0.7818 T-2.5613,-2.7601 -0.9389,-6.5411 1.8134,-9.5864 5.5235,-11.5037 11.178,-12.0111 17.0159,-10.0326 20.6128,-5.9468 22.7026,-0.4605 23.5178,5.7984 23.3343,11.5677 22.1301,16.9696 19.4968,22.2121 16.0328,26.7403 12.5006,30.221 9.0251,33.0171 6.2916,35.2139 5.2874,36.1294 A3.4528,3.4528 0 0 1 0.7662,30.9098 T2.045,29.8478 6.3515,26.48 10.8718,22.6126 13.7126,19.1643 15.8266,15.4372 16.8363,11.2506 17.0931,6.4812 15.9569,0.2178 12.0575,-4.8263 6.6743,-4.5434 3.5546,-1.1374 3.0678,0.7818 A3.1658,3.1658 0 0 1 -3.0678,-0.7818 ZM3.205,30.0714 T4.8872,30.1166 8.9921,29.9326 13.9965,29.5626 19.0801,29.2624 23.7729,29.2413 28.2284,29.5218 30.4928,29.6642 A3.5779,3.5779 0 0 1 30.2472,36.8158 T26.1007,36.8009 19.4012,36.8733 14.3888,37.0001 9.4711,37.153 4.9308,37.1171 2.8487,36.9678 A3.4528,3.4528 0 0 1 3.205,30.0714 Z" stroke-linecap="round" fill="#1d1d1d"/></g></g><g transform="matrix(1, 0, 0, 1, 1075.2716, -42.0549)" opacity="1"><g transform="scale(1)"><path d="M-3.0678,-0.7818 T-2.5613,-2.7601 -0.9389,-6.5411 1.8134,-9.5864 5.5235,-11.5037 11.178,-12.0111 17.0159,-10.0326 20.6128,-5.9468 22.7026,-0.4605 23.5178,5.7984 23.3343,11.5677 22.1301,16.9696 19.4968,22.2121 16.0328,26.7403 12.5006,30.221 9.0251,33.0171 6.2916,35.2139 5.2874,36.1294 A3.4528,3.4528 0 0 1 0.7662,30.9098 T2.045,29.8478 6.3515,26.48 10.8718,22.6126 13.7126,19.1643 15.8266,15.4372 16.8363,11.2506 17.0931,6.4812 15.9569,0.2178 12.0575,-4.8263 6.6743,-4.5434 3.5546,-1.1374 3.0678,0.7818 A3.1658,3.1658 0 0 1 -3.0678,-0.7818 ZM3.205,30.0714 T4.8872,30.1166 8.9921,29.9326 13.9965,29.5626 19.0801,29.2624 23.7729,29.2413 28.2284,29.5218 30.4928,29.6642 A3.5779,3.5779 0 0 1 30.2472,36.8158 T26.1007,36.8009 19.4012,36.8733 14.3888,37.0001 9.4711,37.153 4.9308,37.1171 2.8487,36.9678 A3.4528,3.4528 0 0 1 3.205,30.0714 Z" stroke-linecap="round" fill="#1d1d1d"/></g></g><g transform="matrix(1, 0, 0, 1, 804.8081, -41.3514)" opacity="1"><g transform="scale(1)"><path d="M-2.4993,-2.7724 T-1.0804,-4.2978 2.3002,-7.0598 7.9325,-9.0755 13.612,-8.8054 16.8506,-6.0606 18.7029,-2.2341 19.0506,2.6517 18.3305,7.4615 16.5145,12.3604 15.1434,15.2046 A2.9655,2.9655 0 0 1 9.9944,12.2611 T10.4937,11.4118 11.9714,7.5772 13.0438,1.6564 11.4079,-2.7003 7.1195,-2.9712 3.1701,-0.3141 1.7793,1.1924 A2.9166,2.9166 0 0 1 -2.4993,-2.7724 ZM11.7077,10.8951 T12.6956,10.6055 16.4425,9.2247 21.5356,8.1874 25.8694,9.0361 29.5676,11.5997 32.1705,15.3361 33.1884,19.5689 31.964,24.2669 28.7169,28.3698 24.4263,31.1876 19.3093,32.9551 14.2669,33.5862 9.9118,32.8716 6.1617,31.4506 4.4601,30.7559 A3.0018,3.0018 0 0 1 6.5399,25.1241 T8.2846,25.7022 12.6443,26.7214 18.9931,26.0856 24.9488,22.3061 26.1438,17.4911 23.0348,14.676 18.7331,14.7939 14.9718,16.0925 13.4301,16.5705 A2.9655,2.9655 0 0 1 11.7077,10.8951 Z" stroke-linecap="round" fill="#1d1d1d"/></g></g><g transform="matrix(1, 0, 0, 1, 1180.5688, -46.1025)" opacity="1"><g transform="scale(1)"><path d="M-2.4993,-2.7724 T-1.0804,-4.2978 2.3002,-7.0598 7.9325,-9.0755 13.612,-8.8054 16.8506,-6.0606 18.7029,-2.2341 19.0506,2.6517 18.3305,7.4615 16.5145,12.3604 15.1434,15.2046 A2.9655,2.9655 0 0 1 9.9944,12.2611 T10.4937,11.4118 11.9714,7.5772 13.0438,1.6564 11.4079,-2.7003 7.1195,-2.9712 3.1701,-0.3141 1.7793,1.1924 A2.9166,2.9166 0 0 1 -2.4993,-2.7724 ZM11.7077,10.8951 T12.6956,10.6055 16.4425,9.2247 21.5356,8.1874 25.8694,9.0361 29.5676,11.5997 32.1705,15.3361 33.1884,19.5689 31.964,24.2669 28.7169,28.3698 24.4263,31.1876 19.3093,32.9551 14.2669,33.5862 9.9118,32.8716 6.1617,31.4506 4.4601,30.7559 A3.0018,3.0018 0 0 1 6.5399,25.1241 T8.2846,25.7022 12.6443,26.7214 18.9931,26.0856 24.9488,22.3061 26.1438,17.4911 23.0348,14.676 18.7331,14.7939 14.9718,16.0925 13.4301,16.5705 A2.9655,2.9655 0 0 1 11.7077,10.8951 Z" stroke-linecap="round" fill="#1d1d1d"/></g></g><g transform="matrix(1, 0, 0, 1, 631.438, 50.6685)" opacity="1"><g transform="scale(1)"><path d="M2.4657,0.8836 T0.0589,3.9256 -4.6514,9.7585 -9.4303,15.2305 -13.7685,19.8105 -16.7834,23.264 -17.9354,24.8185 A2.7119,2.7119 0 0 1 -22.2198,21.4927 T-20.8063,19.7424 -17.5687,16.1667 -13.3509,11.7869 -8.6798,6.4951 -3.994,0.7172 -1.5857,-2.3236 A2.5836,2.5836 0 0 1 2.4657,0.8836 ZM-20.1478,20.4446 T-17.6043,20.3408 -13.011,20.0789 -7.1734,19.7616 -0.1728,19.6332 3.04,19.664 A2.4377,2.4377 0 0 1 3.22,24.536 T0.0511,24.8027 -6.8558,25.3298 -12.6345,25.6973 -17.3413,25.8356 -20.0074,25.8666 A2.7119,2.7119 0 0 1 -20.1478,20.4446 Z" stroke-linecap="round" fill="#1d1d1d"/></g></g><g transform="matrix(1, 0, 0, 1, 1007.1987, 45.9174)" opacity="1"><g transform="scale(1)"><path d="M2.4657,0.8836 T0.0589,3.9256 -4.6514,9.7585 -9.4303,15.2305 -13.7685,19.8105 -16.7834,23.264 -17.9354,24.8185 A2.7119,2.7119 0 0 1 -22.2198,21.4927 T-20.8063,19.7424 -17.5687,16.1667 -13.3509,11.7869 -8.6798,6.4951 -3.994,0.7172 -1.5857,-2.3236 A2.5836,2.5836 0 0 1 2.4657,0.8836 ZM-20.1478,20.4446 T-17.6043,20.3408 -13.011,20.0789 -7.1734,19.7616 -0.1728,19.6332 3.04,19.664 A2.4377,2.4377 0 0 1 3.22,24.536 T0.0511,24.8027 -6.8558,25.3298 -12.6345,25.6973 -17.3413,25.8356 -20.0074,25.8666 A2.7119,2.7119 0 0 1 -20.1478,20.4446 Z" stroke-linecap="round" fill="#1d1d1d"/></g></g><g transform="matrix(1, 0, 0, 1, 633.7744, 62.9546)" opacity="1"><g transform="scale(1)"><path d="M-3.3211,1.1969 T-3.9629,-0.7442 -5.3768,-4.5789 -6.1489,-6.4726 A3.4026,3.4026 0 0 1 0.1429,-9.0657 T0.9879,-7.0357 2.577,-3.1013 3.3211,-1.1969 A3.5302,3.5302 0 0 1 -3.3211,1.1969 ZM0.3635,-7.2747 T0.0319,-4.7913 -0.3148,0.6709 -0.3213,6.7692 -0.1153,12.779 0.3861,18.7088 0.5248,24.7715 0.2234,31.011 0.0873,34.2272 A3.0177,3.0177 0 0 1 -5.9473,34.3328 T-6.1958,31.1233 -6.7104,25.1699 -7.223,19.2518 -7.5984,12.9309 -7.6289,6.6174 -7.3754,0.2639 -6.7948,-5.5933 -6.3695,-8.2636 A3.4026,3.4026 0 0 1 0.3635,-7.2747 Z" stroke-linecap="round" fill="#1d1d1d"/></g></g><g transform="matrix(1, 0, 0, 1, 1009.5352, 58.2034)" opacity="1"><g transform="scale(1)"><path d="M-3.3211,1.1969 T-3.9629,-0.7442 -5.3768,-4.5789 -6.1489,-6.4726 A3.4026,3.4026 0 0 1 0.1429,-9.0657 T0.9879,-7.0357 2.577,-3.1013 3.3211,-1.1969 A3.5302,3.5302 0 0 1 -3.3211,1.1969 ZM0.3635,-7.2747 T0.0319,-4.7913 -0.3148,0.6709 -0.3213,6.7692 -0.1153,12.779 0.3861,18.7088 0.5248,24.7715 0.2234,31.011 0.0873,34.2272 A3.0177,3.0177 0 0 1 -5.9473,34.3328 T-6.1958,31.1233 -6.7104,25.1699 -7.223,19.2518 -7.5984,12.9309 -7.6289,6.6174 -7.3754,0.2639 -6.7948,-5.5933 -6.3695,-8.2636 A3.4026,3.4026 0 0 1 0.3635,-7.2747 Z" stroke-linecap="round" fill="#1d1d1d"/></g></g><g transform="matrix(1, 0, 0, 1, 713.0146, 52.4953)" opacity="1"><g transform="scale(1)"><path d="M1.1726,2.7853 T-1.0928,3.7168 -5.5335,7.4417 -7.2208,12.3449 -4.0053,16.6544 0.6574,20.1656 4.2142,22.6843 7.9141,26.465 9.9924,29.0386 A3.2994,3.2994 0 0 1 4.2087,32.2154 T3.9251,31.5477 1.2722,28.8398 -3.113,25.3725 -7.0671,22.4251 -10.6844,18.9542 -13.1806,14.4704 -13.477,9.6222 -11.4829,4.9516 -7.8759,0.8895 -3.4574,-1.8012 -1.1726,-2.7853 A3.0221,3.0221 0 0 1 1.1726,2.7853 ZM10.0172,32.1694 T9.5125,33.0907 7.4599,35.2964 3.8427,37.4311 -0.5438,38.4505 -4.9737,38.7168 -7.0866,38.8139 A2.8679,2.8679 0 0 1 -7.6534,33.1061 T-4.1068,32.5804 1.4129,31.3573 3.7849,29.8723 4.1839,29.0847 A3.2994,3.2994 0 0 1 10.0172,32.1694 Z" stroke-linecap="round" fill="#1d1d1d"/></g></g><g transform="matrix(1, 0, 0, 1, 1088.7753, 47.7442)" opacity="1"><g transform="scale(1)"><path d="M1.1726,2.7853 T-1.0928,3.7168 -5.5335,7.4417 -7.2208,12.3449 -4.0053,16.6544 0.6574,20.1656 4.2142,22.6843 7.9141,26.465 9.9924,29.0386 A3.2994,3.2994 0 0 1 4.2087,32.2154 T3.9251,31.5477 1.2722,28.8398 -3.113,25.3725 -7.0671,22.4251 -10.6844,18.9542 -13.1806,14.4704 -13.477,9.6222 -11.4829,4.9516 -7.8759,0.8895 -3.4574,-1.8012 -1.1726,-2.7853 A3.0221,3.0221 0 0 1 1.1726,2.7853 ZM10.0172,32.1694 T9.5125,33.0907 7.4599,35.2964 3.8427,37.4311 -0.5438,38.4505 -4.9737,38.7168 -7.0866,38.8139 A2.8679,2.8679 0 0 1 -7.6534,33.1061 T-4.1068,32.5804 1.4129,31.3573 3.7849,29.8723 4.1839,29.0847 A3.2994,3.2994 0 0 1 10.0172,32.1694 Z" stroke-linecap="round" fill="#1d1d1d"/></g></g><g transform="matrix(1, 0, 0, 1, 709.2526, 52.8177)" opacity="1"><g transform="scale(1)"><path d="M-0.8115,-3.6589 T1.3744,-4.3093 6.4903,-5.5878 12.1966,-6.6064 17.4738,-7.2086 22.5992,-6.8742 27.6956,-5.7631 30.1673,-5.1981 A2.8118,2.8118 0 0 1 29.0727,0.3181 T24.7346,-0.4431 18.0914,-1.041 13.2131,-0.5569 7.9245,0.2884 3.0103,1.4159 0.8115,2.0189 A2.9526,2.9526 0 0 1 -0.8115,-3.6589 Z" stroke-linecap="round" fill="#1d1d1d"/></g></g><g transform="matrix(1, 0, 0, 1, 1085.0133, 48.0666)" opacity="1"><g transform="scale(1)"><path d="M-0.8115,-3.6589 T1.3744,-4.3093 6.4903,-5.5878 12.1966,-6.6064 17.4738,-7.2086 22.5992,-6.8742 27.6956,-5.7631 30.1673,-5.1981 A2.8118,2.8118 0 0 1 29.0727,0.3181 T24.7346,-0.4431 18.0914,-1.041 13.2131,-0.5569 7.9245,0.2884 3.0103,1.4159 0.8115,2.0189 A2.9526,2.9526 0 0 1 -0.8115,-3.6589 Z" stroke-linecap="round" fill="#1d1d1d"/></g></g><g transform="matrix(1, 0, 0, 1, 815.0645, 45.7971)" opacity="1"><g transform="scale(1)"><path d="M1.2113,2.1602 T-1.1356,3.0957 -5.1333,5.2927 -8.1554,8.2365 -10.635,12.3664 -12.4953,17.3056 -13.6703,22.1652 -14.0065,26.7827 -12.5996,32.0081 -8.3821,36.6202 -2.1021,38.4133 3.5294,37.6351 3.0708,35.9292 -1.8795,35.1163 -6.3348,35.8334 -11.7436,37.6503 -14.9397,38.7079 A2.843,2.843 0 0 1 -17.0603,33.4321 T-14.0215,31.9835 -7.5992,29.0447 -0.9557,27.6151 5.4962,28.7595 10.3898,31.8027 12.2495,36.1522 11.0056,40.6116 7.8206,43.6168 3.8931,45.0746 -0.9802,45.6898 -6.0581,45.1899 -10.6848,43.4633 -15.0496,40.452 -18.3334,36.3978 -20.1222,31.7005 -20.7055,26.2372 -20.137,20.5419 -18.608,14.8709 -16.0463,8.8571 -12.5137,3.584 -8.2471,-0.2212 -3.566,-2.8248 -1.2113,-3.8002 A3.2169,3.2169 0 0 1 1.2113,2.1602 Z" stroke-linecap="round" fill="#1d1d1d"/></g></g><g transform="matrix(1, 0, 0, 1, 1190.8253, 41.046)" opacity="1"><g transform="scale(1)"><path d="M1.2113,2.1602 T-1.1356,3.0957 -5.1333,5.2927 -8.1554,8.2365 -10.635,12.3664 -12.4953,17.3056 -13.6703,22.1652 -14.0065,26.7827 -12.5996,32.0081 -8.3821,36.6202 -2.1021,38.4133 3.5294,37.6351 3.0708,35.9292 -1.8795,35.1163 -6.3348,35.8334 -11.7436,37.6503 -14.9397,38.7079 A2.843,2.843 0 0 1 -17.0603,33.4321 T-14.0215,31.9835 -7.5992,29.0447 -0.9557,27.6151 5.4962,28.7595 10.3898,31.8027 12.2495,36.1522 11.0056,40.6116 7.8206,43.6168 3.8931,45.0746 -0.9802,45.6898 -6.0581,45.1899 -10.6848,43.4633 -15.0496,40.452 -18.3334,36.3978 -20.1222,31.7005 -20.7055,26.2372 -20.137,20.5419 -18.608,14.8709 -16.0463,8.8571 -12.5137,3.584 -8.2471,-0.2212 -3.566,-2.8248 -1.2113,-3.8002 A3.2169,3.2169 0 0 1 1.2113,2.1602 Z" stroke-linecap="round" fill="#1d1d1d"/></g></g><g transform="matrix(1, 0, 0, 1, 616.5483, 144.5152)" opacity="1"><g transform="scale(1)"><path d="M0,-3.2515 T2.6228,-3.2363 7.7792,-3.2097 12.7106,-3.3764 18.2608,-3.7108 23.8094,-2.3966 26.204,2.8971 25.6737,9.6386 24.6864,15.5117 23.8833,21.3343 23.2424,27.214 22.6802,32.7313 21.6722,37.3281 20.1956,41.4232 19.461,43.4269 A3.3078,3.3078 0 0 1 13.099,41.6131 T13.8369,37.9407 14.9143,31.7944 15.6755,26.2324 16.5855,20.1537 17.702,14.1539 19.9503,6.8314 18.5756,2.6628 12.9475,3.0028 7.7799,3.2097 2.6228,3.2363 0,3.2515 A3.2515,3.2515 0 0 1 0,-3.2515 Z" stroke-linecap="round" fill="#1d1d1d"/></g></g><g transform="matrix(1, 0, 0, 1, 992.309, 139.7641)" opacity="1"><g transform="scale(1)"><path d="M0,-3.2515 T2.6228,-3.2363 7.7792,-3.2097 12.7106,-3.3764 18.2608,-3.7108 23.8094,-2.3966 26.204,2.8971 25.6737,9.6386 24.6864,15.5117 23.8833,21.3343 23.2424,27.214 22.6802,32.7313 21.6722,37.3281 20.1956,41.4232 19.461,43.4269 A3.3078,3.3078 0 0 1 13.099,41.6131 T13.8369,37.9407 14.9143,31.7944 15.6755,26.2324 16.5855,20.1537 17.702,14.1539 19.9503,6.8314 18.5756,2.6628 12.9475,3.0028 7.7799,3.2097 2.6228,3.2363 0,3.2515 A3.2515,3.2515 0 0 1 0,-3.2515 Z" stroke-linecap="round" fill="#1d1d1d"/></g></g><g transform="matrix(1, 0, 0, 1, 716.8558, 145.6973)" opacity="1"><g transform="scale(1)"><path d="M-2.7277,-0.1937 T-2.5783,-2.1007 -4.0416,-5.2248 -7.3949,-5.2767 -8.9767,-2.1159 -5.2445,2.3655 0.8182,6.2 5.6942,8.9193 10.1914,11.7779 14.1321,15.3643 17.0394,19.7531 17.9039,24.7644 16.524,29.603 13.6066,33.2989 9.5434,35.9308 5.0378,37.2484 0.6168,36.6988 -3.1823,33.484 -5.1042,27.905 -4.9094,21.1784 -3.0473,13.6732 -0.4383,6.771 1.9857,1.799 4.3077,-2.3889 5.4982,-4.5503 A3.0116,3.0116 0 0 1 10.9018,-1.8897 T9.9145,0.3718 8.1043,4.5765 6.1842,9.276 3.898,15.4572 2.1526,21.6218 2.1188,27.6661 5.2538,30.4794 9.7134,28.156 11.363,23.8626 9.92,19.8213 6.8349,16.8966 2.6946,14.1767 -2.2047,11.3278 -7.5949,8.0181 -12.1159,4.2778 -14.6769,0.0598 -13.8897,-5.4298 -10.3892,-9.7834 -6.4141,-11.2846 -1.3556,-9.7351 2.2983,-5.8578 2.8574,-1.8299 2.7277,0.1937 A2.7346,2.7346 0 0 1 -2.7277,-0.1937 Z" stroke-linecap="round" fill="#1d1d1d"/></g></g><g transform="matrix(1, 0, 0, 1, 1092.6165, 140.9461)" opacity="1"><g transform="scale(1)"><path d="M-2.7277,-0.1937 T-2.5783,-2.1007 -4.0416,-5.2248 -7.3949,-5.2767 -8.9767,-2.1159 -5.2445,2.3655 0.8182,6.2 5.6942,8.9193 10.1914,11.7779 14.1321,15.3643 17.0394,19.7531 17.9039,24.7644 16.524,29.603 13.6066,33.2989 9.5434,35.9308 5.0378,37.2484 0.6168,36.6988 -3.1823,33.484 -5.1042,27.905 -4.9094,21.1784 -3.0473,13.6732 -0.4383,6.771 1.9857,1.799 4.3077,-2.3889 5.4982,-4.5503 A3.0116,3.0116 0 0 1 10.9018,-1.8897 T9.9145,0.3718 8.1043,4.5765 6.1842,9.276 3.898,15.4572 2.1526,21.6218 2.1188,27.6661 5.2538,30.4794 9.7134,28.156 11.363,23.8626 9.92,19.8213 6.8349,16.8966 2.6946,14.1767 -2.2047,11.3278 -7.5949,8.0181 -12.1159,4.2778 -14.6769,0.0598 -13.8897,-5.4298 -10.3892,-9.7834 -6.4141,-11.2846 -1.3556,-9.7351 2.2983,-5.8578 2.8574,-1.8299 2.7277,0.1937 A2.7346,2.7346 0 0 1 -2.7277,-0.1937 Z" stroke-linecap="round" fill="#1d1d1d"/></g></g><g transform="matrix(1, 0, 0, 1, 815.3813, 142.975)" opacity="1"><g transform="scale(1)"><path d="M-0.8743,1.9662 T-2.5638,1.0457 -7.5172,0.3899 -12.4715,2.0733 -14.2968,6.0034 -11.9027,9.3312 -6.8223,9.2415 -3.3942,5.6429 -2.471,1.9912 -2.4246,1.032 A3.3556,3.3556 0 0 1 4.2573,1.6578 T4.0939,2.9379 2.6003,7.739 -0.2396,12.5762 -3.6679,14.644 -8.2437,15.6617 -13.1998,15.1508 -18.0893,10.7 -19.7288,3.3525 -17.2367,-1.9616 -13.8014,-4.415 -9.5033,-5.6141 -4.3354,-5.6064 0.2014,-4.2693 1.9743,-3.3262 A3.0052,3.0052 0 0 1 -0.8743,1.9662 ZM2.6853,-1.5065 T4.5304,-0.3826 7.8275,2.5184 10.8759,7.1033 13.501,12.8906 14.6878,19.0702 13.4132,25.715 9.676,31.7106 5.0787,35.9215 -0.7536,38.9317 -6.7853,40.5593 -11.6953,41.0857 -14.1131,41.3347 A3.2759,3.2759 0 0 1 -15.2669,34.8853 T-11.1216,33.7917 -4.3452,31.8497 -0.0075,29.8708 3.3574,27.1907 6.1304,23.8442 7.2913,20.0591 6.6643,15.7101 3.8529,9.5901 0.431,5.0135 -0.8527,4.1963 A3.3556,3.3556 0 0 1 2.6853,-1.5065 Z" stroke-linecap="round" fill="#1d1d1d"/></g></g><g transform="matrix(1, 0, 0, 1, 1191.1421, 138.2239)" opacity="1"><g transform="scale(1)"><path d="M-0.8743,1.9662 T-2.5638,1.0457 -7.5172,0.3899 -12.4715,2.0733 -14.2968,6.0034 -11.9027,9.3312 -6.8223,9.2415 -3.3942,5.6429 -2.471,1.9912 -2.4246,1.032 A3.3556,3.3556 0 0 1 4.2573,1.6578 T4.0939,2.9379 2.6003,7.739 -0.2396,12.5762 -3.6679,14.644 -8.2437,15.6617 -13.1998,15.1508 -18.0893,10.7 -19.7288,3.3525 -17.2367,-1.9616 -13.8014,-4.415 -9.5033,-5.6141 -4.3354,-5.6064 0.2014,-4.2693 1.9743,-3.3262 A3.0052,3.0052 0 0 1 -0.8743,1.9662 ZM2.6853,-1.5065 T4.5304,-0.3826 7.8275,2.5184 10.8759,7.1033 13.501,12.8906 14.6878,19.0702 13.4132,25.715 9.676,31.7106 5.0787,35.9215 -0.7536,38.9317 -6.7853,40.5593 -11.6953,41.0857 -14.1131,41.3347 A3.2759,3.2759 0 0 1 -15.2669,34.8853 T-11.1216,33.7917 -4.3452,31.8497 -0.0075,29.8708 3.3574,27.1907 6.1304,23.8442 7.2913,20.0591 6.6643,15.7101 3.8529,9.5901 0.431,5.0135 -0.8527,4.1963 A3.3556,3.3556 0 0 1 2.6853,-1.5065 Z" stroke-linecap="round" fill="#1d1d1d"/></g></g><g transform="matrix(1, 0, 0, 1, 636.9424, -7.6454)" opacity="1"><g transform="scale(1)"><path d="M2.3535,-2.2504 T4.1559,-0.3565 7.7447,3.5144 11.1475,7.3084 14.4201,10.8724 18.129,14.6905 22.1461,18.6077 25.9426,22.1068 29.3982,25.2535 32.5746,28.3443 36.4342,32.5439 40.3363,37.0455 43.3835,40.484 46.3208,43.5546 50.0629,46.9509 54.5792,50.4902 57.6472,52.8326 58.4551,53.5012 A3.6822,3.6822 0 0 1 53.7649,59.1788 T51.672,57.5282 47.7597,54.5336 44.272,51.6662 41.1425,48.594 38.0584,45.2711 34.886,41.5998 31.2135,37.232 27.6987,33.2809 24.73,30.3089 21.2907,27.0943 17.3984,23.414 13.297,19.2998 9.5347,15.3006 6.2685,11.6513 2.9812,7.9325 -0.5422,4.1358 -2.3535,2.2504 A3.2562,3.2562 0 0 1 2.3535,-2.2504 Z" stroke-linecap="round" fill="#f87777"/></g></g><g transform="matrix(1, 0, 0, 1, 734.1611, 85.6641)" opacity="1"><g transform="scale(1)"><path d="M2.4552,-2.4022 T4.1682,-0.6482 7.4366,2.548 10.7341,5.6037 14.1688,8.7854 18.0104,12.2174 22.3107,15.8291 28.4446,20.7556 34.496,25.6879 38.2284,29.0283 41.3505,32.169 44.9874,36.0373 49.1625,40.3041 52.8429,44.1809 55.7945,47.7174 58.9789,50.6161 60.8955,51.9023 A3.3984,3.3984 0 0 1 57.3445,57.6977 T55.9839,56.9818 52.2538,54.3737 48.6015,50.7974 45.7075,47.4093 41.8941,43.4539 37.2525,38.5401 33.3196,34.4184 29.8611,31.2487 23.9299,26.2987 17.7382,21.215 13.3046,17.4079 9.4227,13.8617 6.0197,10.6505 2.6339,7.4631 -0.7389,4.1531 -2.4552,2.4022 A3.4349,3.4349 0 0 1 2.4552,-2.4022 Z" stroke-linecap="round" fill="#f87777"/></g></g><g transform="matrix(1, 0, 0, 1, 645.6941, 85.8431)" opacity="1"><g transform="scale(1)"><path d="M2.0171,-2.2094 T3.918,-0.4732 7.4132,2.5398 11.8968,5.763 16.3997,8.9295 20.8698,12.6639 26.2281,17.3103 31.1727,21.3446 35.8605,25.1809 40.0931,28.7444 44.1927,31.7375 48.3277,34.4184 52.3082,37.476 55.627,40.4794 56.988,41.7424 A3.2589,3.2589 0 0 1 52.552,46.5176 T50.6424,44.6869 46.852,41.3577 42.6656,38.4035 38.1465,35.2793 33.8554,31.7428 29.6206,28.0902 24.8594,24.1642 19.5641,19.599 14.1638,14.939 8.3599,10.5912 3.5259,7.0802 -0.1151,3.945 -2.0171,2.2094 A2.9917,2.9917 0 0 1 2.0171,-2.2094 Z" stroke-linecap="round" fill="#4cb05e"/></g></g><g transform="matrix(1, 0, 0, 1, 644.5457, 53.8923)" opacity="1"><g transform="scale(1)"><path d="M0.0832,-2.292 T2.734,-3.1419 7.4986,-4.7767 11.5022,-6.2773 17.0884,-8.4426 24.0968,-11.0897 29.9289,-13.1164 35.1259,-14.9459 41.1431,-17.3523 47.6956,-20.1991 52.7571,-22.4093 57.8962,-24.4849 64.5935,-27.0931 71.3823,-29.7749 78.0738,-32.701 83.1723,-35.1592 87.9876,-37.7046 93.9195,-40.9822 99.3757,-44.1894 104.6471,-47.0831 109.9592,-49.4873 115.1612,-51.768 120.3498,-54.0982 125.3099,-56.2651 130.1856,-58.4881 134.5534,-60.6694 138.6758,-62.5975 142.7833,-64.4709 144.6419,-65.418 A1.8624,1.8624 0 0 1 146.3381,-62.102 T144.393,-61.1034 140.2871,-59.1932 136.2672,-57.2549 131.8725,-54.9819 126.9521,-52.6335 122.0594,-50.37 116.9266,-47.9265 111.731,-45.5497 106.7287,-43.2384 101.6977,-40.369 96.1846,-37.0257 90.1753,-33.6361 85.2508,-30.9939 80.0213,-28.4377 74.7712,-26.0228 69.6949,-23.9397 63.1447,-21.3305 56.3664,-18.5855 49.6724,-15.7093 43.0006,-12.807 36.7836,-10.3251 31.4978,-8.4642 25.7938,-6.4854 18.8599,-3.8673 13.2219,-1.6844 9.0977,-0.1438 4.2283,1.5238 1.5768,2.372 A2.4487,2.4487 0 0 1 0.0832,-2.292 Z" stroke-linecap="round" fill="#4cb05e"/></g></g><g transform="matrix(1, 0, 0, 1, 795.9772, -1.771)" opacity="1"><g transform="scale(1)"><path d="M1.6555,0.9679 T1.0334,2.5766 -0.3393,6.2719 -1.6181,10.4177 -2.9529,15.4534 -4.7624,21.2454 -6.7754,26.6113 -8.6938,31.5731 -10.3206,36.2358 -12.0192,41.3202 -13.9907,46.9162 -15.7828,51.8301 -17.1221,56.1244 -18.3232,61.003 -19.8335,66.2152 -21.6409,71.1282 -23.4454,75.8662 -25.0813,80.3121 -26.5767,85.3278 -27.7285,90.3632 -28.7067,94.7094 -30.1889,99.6692 -31.8345,104.4646 -33.2514,108.4922 -34.8957,112.7125 -36.8672,117.1054 -38.7701,121.1881 -40.4671,125.0966 -42.1311,128.9198 -43.7548,133.2217 -45.2168,138.4732 -46.7583,143.8016 -48.401,149.2125 -49.732,154.684 -50.5888,158.3982 -50.8739,159.4884 A3.0446,3.0446 0 0 1 -56.7661,157.9516 T-56.4825,156.861 -55.6325,153.1483 -54.5495,148.4916 -53.3997,144.429 -52.0393,140.184 -50.8795,136.0122 -49.5099,131.1905 -47.3508,125.5682 -45.2349,120.7341 -43.325,116.5577 -41.4224,112.484 -39.747,108.5024 -38.2838,104.6168 -36.838,100.5401 -35.3007,95.9346 -34.043,91.3605 -33.0855,86.917 -31.9989,82.5321 -30.5719,78.3023 -28.8642,73.7987 -27.01,69.0715 -25.2743,64.5072 -23.8379,59.6521 -22.5373,54.5433 -21.077,49.9244 -19.2567,45.0168 -17.2958,39.5632 -15.546,34.4575 -13.8083,29.5913 -11.8432,24.6146 -9.8788,19.5088 -8.1479,14.0467 -6.7672,8.9068 -5.3981,4.4515 -4.0079,0.6445 -3.3955,-0.9679 A2.7046,2.7046 0 0 1 1.6555,0.9679 Z" stroke-linecap="round" fill="#4cb05e"/></g></g><g transform="matrix(1, 0, 0, 1, 722.1226, 3.3154)" opacity="1"><g transform="scale(1)"><path d="M2.1548,-2.0448 T3.5346,-1.0029 6.9064,1.7968 10.5733,5.3318 13.776,8.8521 17.2265,12.6179 20.9654,16.116 24.496,18.9492 27.9326,21.5638 31.8157,24.4859 35.7889,27.5894 39.9781,30.2441 44.5928,33.1613 48.3886,36.5288 51.4608,39.5411 55.112,42.3411 59.0056,45.393 62.7795,48.6623 64.7972,50.3337 A2.8519,2.8519 0 0 1 61.2828,54.8263 T60.5718,54.2581 57.944,51.8981 54.4007,48.6665 50.5349,45.6853 46.7015,42.5069 43.7215,39.3883 40.3628,36.6214 36.5084,34.3444 32.6131,31.7287 28.6439,28.5781 24.7827,25.6375 21.2961,22.9559 17.6486,19.9785 13.5176,16.0736 9.9862,12.1903 6.9938,8.8753 3.6789,5.6718 0.4971,3.07 -0.8948,2.0448 A2.5507,2.5507 0 0 1 2.1548,-2.0448 Z" stroke-linecap="round" fill="#4ba1f1"/></g></g><g transform="matrix(1, 0, 0, 1, 691.9076, 3.7094)" opacity="1"><g transform="scale(1)"><path d="M2.4514,1.1698 T2.1657,3.3202 1.3111,8.5003 0.1036,13.7778 -1.0036,17.9539 -1.8533,21.9728 -2.7215,26.7941 -3.7334,31.5467 -5.07,36.4158 -6.6129,42.1608 -8.219,47.8438 -9.8886,52.8048 -11.5817,57.3704 -13.2821,62.2268 -14.6751,66.8255 -15.8212,71.1528 -16.858,75.6254 -18.0379,80.4133 -19.74,85.8023 -21.4792,90.7464 -22.8461,94.8521 -24.183,98.9889 -25.6771,103.7224 -26.8704,109.1496 -27.7206,114.3373 -28.6206,118.7773 -29.4892,122.9018 -30.5647,127.5755 -31.8865,132.7516 -33.2225,137.5973 -34.4476,142.8355 -34.9977,145.8118 A2.9831,2.9831 0 0 1 -40.8823,144.8282 T-40.364,142.0258 -39.1648,137.2555 -37.9153,133.1817 -36.8086,129.0909 -35.7195,124.7385 -34.7236,120.3071 -33.8098,116.2321 -32.9673,111.8478 -32.2341,107.2845 -30.9942,102.1944 -29.4236,97.3094 -28.0365,93.1521 -26.5834,88.9135 -25.084,84.8415 -23.6681,80.7089 -22.4706,76.4969 -21.4261,72.1406 -20.3081,67.6798 -18.945,62.9646 -17.2477,57.893 -15.4834,53.215 -13.939,49.0128 -12.4605,44.3297 -11.1886,39.7504 -9.8773,35.0448 -8.5459,30.3487 -7.5449,25.8248 -6.6478,21.0181 -5.7242,16.7536 -4.5839,12.5021 -3.4564,7.5666 -2.7096,2.7041 -2.4514,0.5502 A2.4709,2.4709 0 0 1 2.4514,1.1698 Z" stroke-linecap="round" fill="#4ba1f1"/></g></g><g transform="matrix(1, 0, 0, 1, 658.7622, 153.6134)" opacity="1"><g transform="scale(1)"><path d="M-0.2876,-1.9237 T1.3064,-2.8774 5.4725,-5.3837 10.4732,-8.3984 15.3428,-11.0797 20.4559,-13.6427 26.4289,-16.8741 32.6918,-20.634 38.3737,-24.1901 43.7646,-27.5685 49.6653,-31.2344 55.9223,-34.902 61.7317,-38.0618 67.5265,-41.208 73.4968,-44.5916 79.3067,-47.9816 84.7506,-51.2505 90.0312,-54.4138 95.1492,-57.2418 99.7383,-59.712 104.0018,-62.1418 108.2242,-64.5457 112.5914,-66.9247 116.9828,-69.3141 120.9545,-71.5804 124.599,-74.2188 126.415,-75.8012 A2.6824,2.6824 0 0 1 129.965,-71.7788 T127.7074,-69.9867 123.544,-67.1375 119.4072,-64.8338 114.9863,-62.4487 110.7162,-60.1357 106.506,-57.7587 102.1171,-55.2862 97.512,-52.8275 92.5321,-50.1055 87.2898,-47.0059 81.7949,-43.7466 75.9034,-40.3487 69.8275,-36.9414 63.9985,-33.794 58.277,-30.7242 52.0988,-27.2185 46.16,-23.6611 40.7604,-20.3413 35.0404,-16.7832 28.5942,-12.9379 22.4328,-9.6326 17.4146,-7.1351 12.7532,-4.5659 7.7785,-1.5599 3.6168,0.9618 2.0276,1.9237 A2.2451,2.2451 0 0 1 -0.2876,-1.9237 Z" stroke-linecap="round" fill="#4ba1f1"/></g></g><g transform="matrix(1, 0, 0, 1, 1017.3994, 130.0812)" opacity="1"><g transform="scale(1)"><path d="M0.04,-0.75 Q4.103,-3.6593 5.8214,-4.8587 T9.3684,-7.324 12.6341,-9.6044 15.2428,-11.5541 17.6013,-13.529 19.8306,-15.5427 21.9097,-17.3974 24.0439,-19.2317 26.1169,-21.1028 28.2022,-23.0441 30.3399,-25.0076 32.3691,-26.8258 34.3394,-28.5332 36.3689,-30.2622 38.4032,-31.9393 40.3762,-33.4399 42.2339,-34.7213 43.8669,-35.8014 45.4164,-36.8861 46.8111,-37.9435 47.9757,-38.8699 49.0242,-39.7067 50.1896,-40.6521 51.3389,-41.6088 52.4977,-42.6604 53.9694,-44.0526 L54.77,-44.81 " stroke-linecap="round" fill="none" stroke="#f87777" stroke-width="4.5" stroke-dasharray="9 9" stroke-dashoffset="0"/></g></g><g transform="matrix(1, 0, 0, 1, 1121.7857, 35.6972)" opacity="1"><g transform="scale(1)"><path d="M-0.44,0.72 Q3.9695,-2.1574 5.8096,-3.355 T9.2366,-5.6464 12.2842,-7.7844 14.9271,-9.7227 17.8901,-11.9445 21.497,-14.7286 24.9024,-17.5496 27.8744,-20.1718 30.6472,-22.7268 33.1679,-25.1793 35.2619,-27.3525 37.2036,-29.3007 39.0829,-31.015 40.8281,-32.5289 42.4546,-33.9407 44.0531,-35.3289 45.5907,-36.6222 47.0678,-37.7908 48.5394,-38.8757 49.8986,-39.8011 51.1601,-40.6487 52.2977,-41.4359 53.3772,-42.1651 54.498,-42.865 56.0561,-43.8021 58.2219,-45.1285 L59.4,-45.85 " stroke-linecap="round" fill="none" stroke="#f87777" stroke-width="4.5" stroke-dasharray="9 9" stroke-dashoffset="0"/></g></g><g transform="matrix(1, 0, 0, 1, 1113.034, 134.7377)" opacity="1"><g transform="scale(1)"><path d="M0.51,-0.57 Q4.1398,-3.4291 5.6606,-4.64 T8.6494,-7.0158 11.3765,-9.2156 13.7721,-11.2058 15.9964,-13.1047 18.3715,-15.1249 20.856,-17.2271 23.2997,-19.3921 25.6118,-21.5252 27.6014,-23.3788 29.4339,-25.0825 31.2174,-26.6546 32.9924,-28.082 34.9772,-29.6338 37.0761,-31.3193 39.0295,-32.9156 40.8697,-34.395 42.4408,-35.7129 43.6283,-36.8219 44.8603,-37.8835 46.2897,-38.8783 47.5279,-39.5585 48.7258,-40.2067 50.2052,-41.1026 L51.01,-41.59 " stroke-linecap="round" fill="none" stroke="#4cb05e" stroke-width="4.5" stroke-dasharray="9 9" stroke-dashoffset="0"/></g></g><g transform="matrix(1, 0, 0, 1, 1011.2613, 12.0206)" opacity="1"><g transform="scale(1)"><path d="M0,0 Q1.7328,2.2846 2.5302,3.3962 T4.1124,5.6118 5.8122,7.9685 7.585,10.37 9.2357,12.5748 10.6672,14.5083 11.8427,16.1666 13.1228,18.2202 14.5055,20.7577 15.7365,23.1094 16.9123,25.1891 18.1379,27.2027 19.3997,29.1554 20.7017,31.1411 22.0074,33.1447 23.2398,34.9529 24.4597,36.8189 25.5747,38.8053 26.5256,40.766 27.4943,42.6898 28.6802,44.71 30.0208,46.8874 31.4454,49.1321 33.0709,51.5457 34.7394,53.9371 36.3425,56.1933 37.8553,58.3122 39.1548,60.1762 40.3314,61.9085 41.6395,63.8061 43.1285,66.0377 44.5998,68.3621 45.9063,70.4268 47.032,72.2773 48.0229,74.0114 48.8766,75.609 49.7195,77.2625 50.5929,78.9029 51.4215,80.3836 52.2348,81.7294 53.0648,83.1228 53.831,84.5921 54.4917,86.0937 55.0701,87.6447 55.5648,89.1245 56.0414,90.6159 56.5082,92.0815 56.9604,93.4009 57.4596,94.6978 57.9933,95.9916 58.5185,97.2517 59.1279,98.6075 59.7855,99.9812 60.3872,101.2187 61.0748,102.7081 61.9396,104.6912 L62.41,105.77 " stroke-linecap="round" fill="none" stroke="#4cb05e" stroke-width="4.5" stroke-dasharray="9 9" stroke-dashoffset="0"/></g></g><g transform="matrix(1, 0, 0, 1, 1016.449, 2.1345)" opacity="1"><g transform="scale(1)"><path d="M0,0 Q2.9777,1.6644 4.6107,2.5594 T7.8548,4.2674 11.1176,5.8418 14.5432,7.3754 17.8797,8.8139 20.9236,10.0707 24.1938,11.3016 27.6691,12.5115 30.9595,13.644 34.3569,14.8141 37.8125,15.9477 41.0102,16.9474 44.1862,17.8925 47.2864,18.7578 50.1654,19.5294 53.3299,20.2844 56.8571,20.9892 60.3742,21.6257 63.8926,22.2911 67.1336,22.9632 69.8999,23.5819 72.7408,24.2126 75.7478,24.8407 78.6033,25.4195 81.4678,26.0034 84.2709,26.5992 86.7967,27.1947 89.2834,27.8948 91.8104,28.6746 94.3296,29.434 97.1456,30.1823 100.1412,30.8903 102.9884,31.5195 105.8916,32.1148 108.7545,32.6917 111.3403,33.2587 113.9188,33.8544 116.4684,34.4406 118.642,34.9556 120.5928,35.4638 122.5477,36.0571 124.4776,36.6672 126.3757,37.2613 128.1219,37.8603 129.6691,38.4484 131.2701,39.0556 132.9436,39.639 134.5311,40.1935 136.0901,40.7551 137.5607,41.2794 138.8394,41.7448 140.1484,42.2921 141.41,42.8931 142.4314,43.3112 143.6551,43.8236 145.3034,44.6244 L146.2,45.06 " stroke-linecap="round" fill="none" stroke="#4cb05e" stroke-width="4.5" stroke-dasharray="9 9" stroke-dashoffset="0"/></g></g><g transform="matrix(1, 0, 0, 1, 1075.5325, 119.2637)" opacity="1"><g transform="scale(1)"><path d="M0,0.64 Q0.5974,2.6327 0.9673,3.5031 T1.6822,5.084 2.3675,6.4091 3.0207,7.586 3.7386,8.5933 4.3639,8.9042 4.8471,8.61 L5.11,8.45 " stroke-linecap="round" fill="none" stroke="#4cb05e" stroke-width="4.5" stroke-dasharray="9 9" stroke-dashoffset="0"/></g></g><g transform="matrix(1, 0, 0, 1, 1018.3894, 65.3556)" opacity="1"><g transform="scale(1)"><path d="M-0.32,-0.5 Q1.7776,-2.7207 2.6993,-3.669 T4.665,-5.6645 7.116,-8.1385 9.6395,-10.7498 11.8513,-12.9706 13.9324,-14.8559 15.8146,-16.5336 17.7322,-18.3035 19.5689,-19.9937 21.496,-21.6085 23.8987,-23.4172 26.4164,-25.2493 28.7984,-26.9665 31.1156,-28.6439 33.2334,-30.2586 35.0171,-31.7572 36.8812,-33.4297 38.9782,-35.2949 40.9763,-37.0597 43.0026,-38.861 44.9919,-40.6184 46.7147,-42.2539 48.2196,-43.8048 49.4989,-45.1205 50.6827,-46.3081 51.7234,-47.3806 52.6316,-48.3904 53.5223,-49.4208 54.4401,-50.4533 55.4273,-51.553 56.5982,-52.8467 57.9214,-54.2527 59.1998,-55.5807 60.4015,-56.8025 61.4336,-57.8843 62.4375,-59.0201 63.6265,-60.217 65.2492,-61.3265 67.4129,-62.5334 L68.59,-63.19 " stroke-linecap="round" fill="none" stroke="#4ba1f1" stroke-width="4.5" stroke-dasharray="9 9" stroke-dashoffset="0"/></g></g><g transform="matrix(1, 0, 0, 1, 1020.4485, 78.7162)" opacity="1"><g transform="scale(1)"><path d="M0.16,0.75 Q2.9963,2.957 4.7322,4.0065 T8.2629,5.937 11.6565,7.5093 14.7749,8.7727 18.0148,9.9411 21.3847,11.0578 24.6635,12.0734 28.1526,13.0842 31.747,14.0353 35.1022,14.9038 38.5075,15.9327 41.9674,17.2037 45.286,18.5472 48.8879,19.8891 52.6965,21.1595 56.3028,22.3248 59.8811,23.4808 63.2003,24.6068 65.9909,25.6525 68.7288,26.6546 71.5634,27.5918 74.3047,28.4369 77.1685,29.2865 80.0557,30.1248 82.691,30.875 85.4334,31.6662 88.3981,32.4887 91.3379,33.2805 94.3895,34.0874 97.413,34.8273 100.159,35.476 102.7997,36.1071 105.3466,36.6853 107.7878,37.1959 110.445,37.7039 113.1103,38.1855 115.2807,38.6185 117.1021,39.0569 118.7086,39.5006 120.3143,40.0202 121.8924,40.5468 123.2023,40.9792 124.4917,41.3854 125.9866,41.8116 127.7027,42.3125 129.3317,42.8061 130.724,43.2707 132.1403,43.7674 133.5697,44.2428 134.8353,44.6884 136.0116,45.1018 137.3105,45.2059 138.8646,45.0207 L139.71,44.92 " stroke-linecap="round" fill="none" stroke="#4ba1f1" stroke-width="4.5" stroke-dasharray="9 9" stroke-dashoffset="0"/></g></g><g transform="matrix(1, 0, 0, 1, 1096.0851, 2.3852)" opacity="1"><g transform="scale(1)"><path d="M1.66,0.79 Q4.0814,3.339 5.2644,4.7164 T7.6131,7.6433 9.7936,10.624 11.657,13.4152 13.3752,16.3061 15.0327,19.2491 16.7095,22.1976 18.4517,25.1011 20.1495,27.693 21.7868,30.0514 23.4344,32.365 25.0535,34.6359 26.6023,36.8995 28.1038,39.1752 29.5453,41.3023 31.0796,43.3738 32.5914,45.4172 33.9474,47.4203 35.3713,49.6204 36.9029,51.9344 38.3767,54.1144 39.8374,56.2898 41.1815,58.3806 42.2752,60.2203 43.4949,62.0533 44.9701,63.9328 46.5569,65.7236 48.3687,67.571 50.1933,69.3444 51.7901,70.8882 53.3017,72.4303 54.6757,74.0057 55.8747,75.533 57.1129,77.0911 58.345,78.5909 59.4394,79.9448 60.4406,81.2445 61.464,82.7199 62.454,84.357 63.3368,86.1117 64.1249,87.9395 64.7975,89.5722 65.4895,91.0806 66.2262,92.5942 66.9324,94.1131 67.6404,95.5595 68.3698,96.9505 69.0562,98.2636 69.7077,99.5159 70.3152,100.7353 70.8715,101.8569 71.4818,102.9664 72.2129,104.1742 73.1509,105.5425 74.1218,106.841 75.0033,107.9965 75.8614,109.2795 76.6701,110.5975 77.4612,111.9097 78.0717,113.3006 78.4038,114.4586 78.8102,115.3005 79.0495,115.6104 78.9397,115.4547 L78.88,115.37 " stroke-linecap="round" fill="none" stroke="#4ba1f1" stroke-width="4.5" stroke-dasharray="9 9" stroke-dashoffset="0"/></g></g><g transform="matrix(1, 0, 0, 1, 661.2343, -103.1744)" opacity="1"><g transform="scale(1)"><path d="M0.1374,-2.4261 T3.1526,-2.4201 8.9769,-2.4389 14.3266,-2.4071 19.0239,-2.1381 23.6206,-1.7162 26.0605,-1.5064 A2.5777,2.5777 0 0 1 25.8995,3.6464 T23.4513,3.7034 18.7727,3.8355 14.0698,3.7073 8.7266,3.2995 2.8592,2.7606 -0.1374,2.4261 A2.43,2.43 0 0 1 0.1374,-2.4261 Z" stroke-linecap="round" fill="#099268"/></g></g><g transform="matrix(1, 0, 0, 1, 673.2332, -111.1622)" opacity="1"><g transform="scale(1)"><path d="M2.9365,-0.733 T3.0435,2.6637 3.42,9.1419 3.8363,14.6856 4.0646,21.1289 4.1462,25.11 A3.1262,3.1262 0 0 1 -2.0862,25.61 T-2.3726,23.4917 -2.9387,19.3986 -3.2581,15.0174 -3.382,9.3177 -3.3213,2.6286 -3.1765,-0.767 A3.0566,3.0566 0 0 1 2.9365,-0.733 Z" stroke-linecap="round" fill="#099268"/></g></g><g transform="matrix(1, 0, 0, 1, 696.0034, -113.7053)" opacity="1"><g transform="scale(1)"><path d="M3.5054,-1.6928 T4.8402,0.5126 7.6263,4.9741 10.349,9.2338 12.6752,12.9595 14.2981,12.2273 16.1474,5.5521 18.2525,-1.3562 19.0762,-4.0435 A4.1818,4.1818 0 0 1 27.1038,-1.6965 T26.3502,1.0113 24.9154,6.1949 23.5576,10.7001 21.829,15.3757 17.391,21.0103 11.902,23.2687 7.374,19.0396 3.6666,13.5852 0.8385,9.3264 -2.1062,4.8579 -3.5054,2.6928 A4.1348,4.1348 0 0 1 3.5054,-1.6928 Z" stroke-linecap="round" fill="#099268"/></g></g><g transform="matrix(1, 0, 0, 1, 735.2869, -105.1445)" opacity="1"><g transform="scale(1)"><path d="M0.1769,-2.8895 T1.918,-2.5839 6.7584,-2.9152 11.2566,-5.2188 10.8233,-7.8669 7.1606,-7.3647 3.4519,-3.2342 1.1646,2.254 2.0642,6.9711 5.9665,10.0253 12.1957,10.9975 19.3766,9.7509 22.9222,8.7106 A2.9762,2.9762 0 0 1 24.9978,14.2894 T23.0687,15.1586 19.1053,16.912 14.4604,18.3405 8.898,18.7109 3.6443,17.5948 -0.5908,15.1556 -4.0589,11.4576 -6.0853,7.0322 -6.3613,2.5408 -5.2752,-2.0484 -3.222,-6.1381 -0.6654,-9.4572 4.029,-13.2386 11.0567,-15.2831 16.7132,-12.9439 18.7068,-7.521 16.7359,-1.4533 11.3356,2.6085 5.3093,4.1327 0.8858,4.142 -0.8969,3.8895 A3.4317,3.4317 0 0 1 0.1769,-2.8895 Z" stroke-linecap="round" fill="#099268"/></g></g><g transform="matrix(1, 0, 0, 1, 1034.8235, -109.4786)" opacity="1"><g transform="scale(1)"><path d="M0.1438,-2.8593 T2.4981,-2.8107 8.5133,-2.4496 12.1742,-2.137 A2.6387,2.6387 0 0 1 11.9858,3.137 T8.2683,3.1861 2.2035,3.0472 -0.1438,2.8593 A2.8629,2.8629 0 0 1 0.1438,-2.8593 Z" stroke-linecap="round" fill="#e03131"/></g></g><g transform="matrix(1, 0, 0, 1, 1058.2273, -124.3795)" opacity="1"><g transform="scale(1)"><path d="M3.5777,-1.3067 T4.7655,0.8161 7.379,5.1259 10.2219,9.4344 12.8147,13.2956 15.5524,17.4202 18.3638,21.7865 20.6103,25.595 22.1252,28.1906 22.6428,28.9593 A4.2531,4.2531 0 0 1 15.4411,33.4861 T13.9725,30.8354 11.3193,26.2499 8.6405,21.9698 5.9688,17.8549 3.3769,13.9261 0.4028,9.3673 -2.3674,4.8572 -3.5777,2.7467 A4.1118,4.1118 0 0 1 3.5777,-1.3067 ZM15.4452,28.9528 T16.443,27.3378 18.2699,23.5201 19.8166,18.9021 21.2415,14.0093 22.515,9.3601 24.1139,4.9257 25.1468,2.6633 A4.4439,4.4439 0 0 1 33.2932,6.2167 T32.6053,7.8992 31.289,11.8481 29.8824,16.6482 28.2144,21.8775 26.3783,26.8537 24.0354,31.3135 22.6387,33.4926 A4.2531,4.2531 0 0 1 15.4452,28.9528 Z" stroke-linecap="round" fill="#e03131"/></g></g><g transform="matrix(1, 0, 0, 1, 1106.5396, -111.0189)" opacity="1"><g transform="scale(1)"><path d="M0.4276,-3.0934 T2.4241,-2.6524 7.0537,-2.2472 11.7036,-3.5442 14.2108,-7.3691 12.1663,-9.5643 7.5265,-7.7557 3.2934,-3.7434 0.4231,1.9388 0.6612,6.9667 3.8656,10.1369 8.1494,11.6438 12.3261,11.5452 16.8282,10.2581 20.9925,7.9826 25.3476,4.7065 27.9234,2.7721 A3.3132,3.3132 0 0 1 32.2766,7.7679 T30.0078,10.0548 25.1703,14.7886 19.0873,18.7072 12.1417,20.4675 5.4383,20.0392 -0.101,18.0445 -4.0619,15.0186 -6.8711,10.999 -8.2227,6.1172 -7.9386,1.3253 -6.3889,-3.3124 -3.9447,-7.6451 -0.8355,-11.0981 4.6158,-14.7496 12.0899,-16.9829 17.7238,-16.2577 20.8979,-12.2295 21.5372,-6.1236 18.9505,-0.3363 13.951,3.7247 6.9407,5.0602 0.947,4.8071 -1.0676,4.4534 A3.8468,3.8468 0 0 1 0.4276,-3.0934 Z" stroke-linecap="round" fill="#e03131"/></g></g></svg>