<svg xmlns="http://www.w3.org/2000/svg" direction="ltr" width="474.91965890282904" height="302.2456962675495" viewBox="576.3328330018335 257.4782344607043 474.91965890282904 302.2456962675495" stroke-linecap="round" stroke-linejoin="round" data-color-mode="light" class="tl-container tl-theme__force-sRGB tl-theme__light" style="background-color: rgb(249, 250, 251);"><defs/><g transform="matrix(1, 0, 0, 1, 623.1294, 297.9762)" opacity="1"><g transform="scale(1)"><path d="M3.675,-0.57 T3.6692,1.8462 3.4353,6.2628 3.0996,14.1722 3.1807,24.529 3.4907,32.5679 3.8252,39.2195 4.2248,45.4536 4.4113,48.6271 A4.0805,4.0805 0 0 1 -3.7421,48.9815 T-3.8298,45.8472 -4.045,39.5144 -4.1948,32.7605 -4.3015,24.5885 -4.2814,15.883 -3.8402,8.0252 -3.5092,1.8431 -3.515,-0.57 A3.595,3.595 0 0 1 3.675,-0.57 ZM0.5831,52.8773 T-0.1214,52.8843 -0.8259,52.8914 A4.0088,4.0088 0 0 1 -1.3141,44.8886 T-0.614,44.81 0.0861,44.7313 A4.0805,4.0805 0 0 1 0.5831,52.8773 Z" stroke-linecap="round" fill="#1d1d1d"/></g></g><g transform="matrix(1, 0, 0, 1, 696.5483, 303.3849)" opacity="1"><g transform="scale(1)"><path d="M-3.0678,-0.7818 T-2.5613,-2.7601 -0.9389,-6.5411 1.8134,-9.5864 5.5235,-11.5037 11.178,-12.0111 17.0159,-10.0326 20.6128,-5.9468 22.7026,-0.4605 23.5178,5.7984 23.3343,11.5677 22.1301,16.9696 19.4968,22.2121 16.0328,26.7403 12.5006,30.221 9.0251,33.0171 6.2916,35.2139 5.2874,36.1294 A3.4528,3.4528 0 0 1 0.7662,30.9098 T2.045,29.8478 6.3515,26.48 10.8718,22.6126 13.7126,19.1643 15.8266,15.4372 16.8363,11.2506 17.0931,6.4812 15.9569,0.2178 12.0575,-4.8263 6.6743,-4.5434 3.5546,-1.1374 3.0678,0.7818 A3.1658,3.1658 0 0 1 -3.0678,-0.7818 ZM3.205,30.0714 T4.8872,30.1166 8.9921,29.9326 13.9965,29.5626 19.0801,29.2624 23.7729,29.2413 28.2284,29.5218 30.4928,29.6642 A3.5779,3.5779 0 0 1 30.2472,36.8158 T26.1007,36.8009 19.4012,36.8733 14.3888,37.0001 9.4711,37.153 4.9308,37.1171 2.8487,36.9678 A3.4528,3.4528 0 0 1 3.205,30.0714 Z" stroke-linecap="round" fill="#1d1d1d"/></g></g><g transform="matrix(1, 0, 0, 1, 801.8455, 299.3373)" opacity="1"><g transform="scale(1)"><path d="M-2.4993,-2.7724 T-1.0804,-4.2978 2.3002,-7.0598 7.9325,-9.0755 13.612,-8.8054 16.8506,-6.0606 18.7029,-2.2341 19.0506,2.6517 18.3305,7.4615 16.5145,12.3604 15.1434,15.2046 A2.9655,2.9655 0 0 1 9.9944,12.2611 T10.4937,11.4118 11.9714,7.5772 13.0438,1.6564 11.4079,-2.7003 7.1195,-2.9712 3.1701,-0.3141 1.7793,1.1924 A2.9166,2.9166 0 0 1 -2.4993,-2.7724 ZM11.7077,10.8951 T12.6956,10.6055 16.4425,9.2247 21.5356,8.1874 25.8694,9.0361 29.5676,11.5997 32.1705,15.3361 33.1884,19.5689 31.964,24.2669 28.7169,28.3698 24.4263,31.1876 19.3093,32.9551 14.2669,33.5862 9.9118,32.8716 6.1617,31.4506 4.4601,30.7559 A3.0018,3.0018 0 0 1 6.5399,25.1241 T8.2846,25.7022 12.6443,26.7214 18.9931,26.0856 24.9488,22.3061 26.1438,17.4911 23.0348,14.676 18.7331,14.7939 14.9718,16.0925 13.4301,16.5705 A2.9655,2.9655 0 0 1 11.7077,10.8951 Z" stroke-linecap="round" fill="#1d1d1d"/></g></g><g transform="matrix(1, 0, 0, 1, 628.4755, 391.3572)" opacity="1"><g transform="scale(1)"><path d="M2.4657,0.8836 T0.0589,3.9256 -4.6514,9.7585 -9.4303,15.2305 -13.7685,19.8105 -16.7834,23.264 -17.9354,24.8185 A2.7119,2.7119 0 0 1 -22.2198,21.4927 T-20.8063,19.7424 -17.5687,16.1667 -13.3509,11.7869 -8.6798,6.4951 -3.994,0.7172 -1.5857,-2.3236 A2.5836,2.5836 0 0 1 2.4657,0.8836 ZM-20.1478,20.4446 T-17.6043,20.3408 -13.011,20.0789 -7.1734,19.7616 -0.1728,19.6332 3.04,19.664 A2.4377,2.4377 0 0 1 3.22,24.536 T0.0511,24.8027 -6.8558,25.3298 -12.6345,25.6973 -17.3413,25.8356 -20.0074,25.8666 A2.7119,2.7119 0 0 1 -20.1478,20.4446 Z" stroke-linecap="round" fill="#1d1d1d"/></g></g><g transform="matrix(1, 0, 0, 1, 630.8119, 403.6433)" opacity="1"><g transform="scale(1)"><path d="M-3.3211,1.1969 T-3.9629,-0.7442 -5.3768,-4.5789 -6.1489,-6.4726 A3.4026,3.4026 0 0 1 0.1429,-9.0657 T0.9879,-7.0357 2.577,-3.1013 3.3211,-1.1969 A3.5302,3.5302 0 0 1 -3.3211,1.1969 ZM0.3635,-7.2747 T0.0319,-4.7913 -0.3148,0.6709 -0.3213,6.7692 -0.1153,12.779 0.3861,18.7088 0.5248,24.7715 0.2234,31.011 0.0873,34.2272 A3.0177,3.0177 0 0 1 -5.9473,34.3328 T-6.1958,31.1233 -6.7104,25.1699 -7.223,19.2518 -7.5984,12.9309 -7.6289,6.6174 -7.3754,0.2639 -6.7948,-5.5933 -6.3695,-8.2636 A3.4026,3.4026 0 0 1 0.3635,-7.2747 Z" stroke-linecap="round" fill="#1d1d1d"/></g></g><g transform="matrix(1, 0, 0, 1, 710.0521, 393.184)" opacity="1"><g transform="scale(1)"><path d="M1.1726,2.7853 T-1.0928,3.7168 -5.5335,7.4417 -7.2208,12.3449 -4.0053,16.6544 0.6574,20.1656 4.2142,22.6843 7.9141,26.465 9.9924,29.0386 A3.2994,3.2994 0 0 1 4.2087,32.2154 T3.9251,31.5477 1.2722,28.8398 -3.113,25.3725 -7.0671,22.4251 -10.6844,18.9542 -13.1806,14.4704 -13.477,9.6222 -11.4829,4.9516 -7.8759,0.8895 -3.4574,-1.8012 -1.1726,-2.7853 A3.0221,3.0221 0 0 1 1.1726,2.7853 ZM10.0172,32.1694 T9.5125,33.0907 7.4599,35.2964 3.8427,37.4311 -0.5438,38.4505 -4.9737,38.7168 -7.0866,38.8139 A2.8679,2.8679 0 0 1 -7.6534,33.1061 T-4.1068,32.5804 1.4129,31.3573 3.7849,29.8723 4.1839,29.0847 A3.2994,3.2994 0 0 1 10.0172,32.1694 Z" stroke-linecap="round" fill="#1d1d1d"/></g></g><g transform="matrix(1, 0, 0, 1, 706.29, 393.5064)" opacity="1"><g transform="scale(1)"><path d="M-0.8115,-3.6589 T1.3744,-4.3093 6.4903,-5.5878 12.1966,-6.6064 17.4738,-7.2086 22.5992,-6.8742 27.6956,-5.7631 30.1673,-5.1981 A2.8118,2.8118 0 0 1 29.0727,0.3181 T24.7346,-0.4431 18.0914,-1.041 13.2131,-0.5569 7.9245,0.2884 3.0103,1.4159 0.8115,2.0189 A2.9526,2.9526 0 0 1 -0.8115,-3.6589 Z" stroke-linecap="round" fill="#1d1d1d"/></g></g><g transform="matrix(1, 0, 0, 1, 812.102, 386.4858)" opacity="1"><g transform="scale(1)"><path d="M1.2113,2.1602 T-1.1356,3.0957 -5.1333,5.2927 -8.1554,8.2365 -10.635,12.3664 -12.4953,17.3056 -13.6703,22.1652 -14.0065,26.7827 -12.5996,32.0081 -8.3821,36.6202 -2.1021,38.4133 3.5294,37.6351 3.0708,35.9292 -1.8795,35.1163 -6.3348,35.8334 -11.7436,37.6503 -14.9397,38.7079 A2.843,2.843 0 0 1 -17.0603,33.4321 T-14.0215,31.9835 -7.5992,29.0447 -0.9557,27.6151 5.4962,28.7595 10.3898,31.8027 12.2495,36.1522 11.0056,40.6116 7.8206,43.6168 3.8931,45.0746 -0.9802,45.6898 -6.0581,45.1899 -10.6848,43.4633 -15.0496,40.452 -18.3334,36.3978 -20.1222,31.7005 -20.7055,26.2372 -20.137,20.5419 -18.608,14.8709 -16.0463,8.8571 -12.5137,3.584 -8.2471,-0.2212 -3.566,-2.8248 -1.2113,-3.8002 A3.2169,3.2169 0 0 1 1.2113,2.1602 Z" stroke-linecap="round" fill="#1d1d1d"/></g></g><g transform="matrix(1, 0, 0, 1, 613.5858, 485.2039)" opacity="1"><g transform="scale(1)"><path d="M0,-3.2515 T2.6228,-3.2363 7.7792,-3.2097 12.7106,-3.3764 18.2608,-3.7108 23.8094,-2.3966 26.204,2.8971 25.6737,9.6386 24.6864,15.5117 23.8833,21.3343 23.2424,27.214 22.6802,32.7313 21.6722,37.3281 20.1956,41.4232 19.461,43.4269 A3.3078,3.3078 0 0 1 13.099,41.6131 T13.8369,37.9407 14.9143,31.7944 15.6755,26.2324 16.5855,20.1537 17.702,14.1539 19.9503,6.8314 18.5756,2.6628 12.9475,3.0028 7.7799,3.2097 2.6228,3.2363 0,3.2515 A3.2515,3.2515 0 0 1 0,-3.2515 Z" stroke-linecap="round" fill="#1d1d1d"/></g></g><g transform="matrix(1, 0, 0, 1, 713.8933, 486.386)" opacity="1"><g transform="scale(1)"><path d="M-2.7277,-0.1937 T-2.5783,-2.1007 -4.0416,-5.2248 -7.3949,-5.2767 -8.9767,-2.1159 -5.2445,2.3655 0.8182,6.2 5.6942,8.9193 10.1914,11.7779 14.1321,15.3643 17.0394,19.7531 17.9039,24.7644 16.524,29.603 13.6066,33.2989 9.5434,35.9308 5.0378,37.2484 0.6168,36.6988 -3.1823,33.484 -5.1042,27.905 -4.9094,21.1784 -3.0473,13.6732 -0.4383,6.771 1.9857,1.799 4.3077,-2.3889 5.4982,-4.5503 A3.0116,3.0116 0 0 1 10.9018,-1.8897 T9.9145,0.3718 8.1043,4.5765 6.1842,9.276 3.898,15.4572 2.1526,21.6218 2.1188,27.6661 5.2538,30.4794 9.7134,28.156 11.363,23.8626 9.92,19.8213 6.8349,16.8966 2.6946,14.1767 -2.2047,11.3278 -7.5949,8.0181 -12.1159,4.2778 -14.6769,0.0598 -13.8897,-5.4298 -10.3892,-9.7834 -6.4141,-11.2846 -1.3556,-9.7351 2.2983,-5.8578 2.8574,-1.8299 2.7277,0.1937 A2.7346,2.7346 0 0 1 -2.7277,-0.1937 Z" stroke-linecap="round" fill="#1d1d1d"/></g></g><g transform="matrix(1, 0, 0, 1, 812.4188, 483.6637)" opacity="1"><g transform="scale(1)"><path d="M-0.8743,1.9662 T-2.5638,1.0457 -7.5172,0.3899 -12.4715,2.0733 -14.2968,6.0034 -11.9027,9.3312 -6.8223,9.2415 -3.3942,5.6429 -2.471,1.9912 -2.4246,1.032 A3.3556,3.3556 0 0 1 4.2573,1.6578 T4.0939,2.9379 2.6003,7.739 -0.2396,12.5762 -3.6679,14.644 -8.2437,15.6617 -13.1998,15.1508 -18.0893,10.7 -19.7288,3.3525 -17.2367,-1.9616 -13.8014,-4.415 -9.5033,-5.6141 -4.3354,-5.6064 0.2014,-4.2693 1.9743,-3.3262 A3.0052,3.0052 0 0 1 -0.8743,1.9662 ZM2.6853,-1.5065 T4.5304,-0.3826 7.8275,2.5184 10.8759,7.1033 13.501,12.8906 14.6878,19.0702 13.4132,25.715 9.676,31.7106 5.0787,35.9215 -0.7536,38.9317 -6.7853,40.5593 -11.6953,41.0857 -14.1131,41.3347 A3.2759,3.2759 0 0 1 -15.2669,34.8853 T-11.1216,33.7917 -4.3452,31.8497 -0.0075,29.8708 3.3574,27.1907 6.1304,23.8442 7.2913,20.0591 6.6643,15.7101 3.8529,9.5901 0.431,5.0135 -0.8527,4.1963 A3.3556,3.3556 0 0 1 2.6853,-1.5065 Z" stroke-linecap="round" fill="#1d1d1d"/></g></g><g transform="matrix(1, 0, 0, 1, 906.3575, 292.6751)" opacity="1"><g transform="scale(1)"><path d="M3.7431,-1.1079 T4.0216,2.1224 4.6407,8.221 5.279,13.4844 5.9851,19.3016 6.7456,25.6735 7.4879,31.319 8.1853,36.0137 8.7667,39.0557 9.041,40.0988 A4.1184,4.1184 0 0 1 1.0256,41.9955 T0.7195,40.5857 0.1397,37.1308 -0.4779,32.2888 -1.1178,26.5337 -1.7505,20.1671 -2.3416,14.3421 -2.8994,8.9576 -3.4729,2.7588 -3.7431,-0.4721 A3.7566,3.7566 0 0 1 3.7431,-1.1079 ZM5.9217,37.0257 T6.2385,37.1268 6.5554,37.2279 A4.0577,4.0577 0 0 1 4.8046,45.1521 T4.4748,45.1103 4.1449,45.0685 A4.1184,4.1184 0 0 1 5.9217,37.0257 Z" stroke-linecap="round" fill="#9fa8b2"/></g></g><g transform="matrix(1, 0, 0, 1, 908.6387, 385.9379)" opacity="1"><g transform="scale(1)"><path d="M2.1345,1.7009 T1.2388,2.3853 -1.2999,4.9832 -4.8411,9.1548 -8.6191,13.6794 -12.3069,18.2238 -15.4698,22.2345 -17.8256,25.7896 -18.8267,27.612 A3.3992,3.3992 0 0 1 -24.7164,24.2163 T-23.3996,22.0185 -20.6855,18.0746 -17.3999,14.0247 -13.5815,9.4668 -9.6682,4.932 -5.571,0.3677 -2.5456,-2.5984 -1.6345,-3.2809 A3.1235,3.1235 0 0 1 2.1345,1.7009 ZM-21.014,22.6004 T-19.4185,22.9467 -13.2061,23.2593 -5.6171,23.2278 -0.264,23.2435 4.3717,23.3434 9.14,23.509 11.6537,23.5881 A3.2019,3.2019 0 0 1 11.6463,29.9919 T9.1323,30.0652 4.3603,30.2196 -0.2827,30.3042 -5.6522,30.2908 -11.3265,30.2348 -16.67,30.0966 -20.9264,29.6128 -22.5291,29.2279 A3.3992,3.3992 0 0 1 -21.014,22.6004 Z" stroke-linecap="round" fill="#9fa8b2"/></g></g><g transform="matrix(1, 0, 0, 1, 910.588, 396.3296)" opacity="1"><g transform="scale(1)"><path d="M-3.9656,0.6971 T-4.7724,-1.472 -5.5793,-3.641 A3.8918,3.8918 0 0 1 1.6899,-6.4238 T2.5377,-4.2705 3.3856,-2.1171 A3.9357,3.9357 0 0 1 -3.9656,0.6971 ZM1.8794,-4.3095 T1.5488,-2.5351 1.1822,1.2624 1.3785,6.6407 1.7445,13.2225 2.1179,20.4749 2.7109,28.1933 3.2553,35.0489 3.7111,41.7592 3.9758,45.3065 A3.7455,3.7455 0 0 1 -3.4758,46.0735 T-3.9392,42.5466 -4.8651,35.8332 -5.6579,28.7969 -6.1841,20.8267 -6.4444,13.5673 -6.6527,6.7219 -6.6847,0.7308 -6.1708,-3.6546 -5.7688,-5.7553 A3.8918,3.8918 0 0 1 1.8794,-4.3095 Z" stroke-linecap="round" fill="#9fa8b2"/></g></g><g transform="matrix(1, 0, 0, 1, 890.3896, 476.1995)" opacity="1"><g transform="scale(1)"><path d="M0.458,-3.1451 T2.5343,-2.8447 6.7235,-2.5804 11.5837,-2.6278 16.5642,-2.768 22.8526,-3.022 26.9079,-3.1469 A3.207,3.207 0 0 1 26.8034,3.2662 T22.9796,3.372 16.7547,3.6093 11.619,3.7485 6.2946,3.7556 1.6233,3.4501 -0.458,3.1451 A3.1783,3.1783 0 0 1 0.458,-3.1451 ZM29.9179,1.0122 T29.4498,2.5322 27.9612,6.7603 26.0734,11.7523 24.2654,16.4308 22.3908,21.2069 20.36,26.3083 18.2798,31.4154 16.4854,35.8818 14.8221,40.0456 13.1242,44.4035 12.2784,46.6769 A4.2522,4.2522 0 0 1 4.3529,43.5928 T5.3205,41.2061 7.1944,36.8242 9.0284,32.7034 11.0429,28.2531 13.354,23.3065 15.635,18.3508 17.7418,13.7098 19.7638,9.2071 21.8738,4.3002 23.4027,0.3479 23.7934,-0.8929 A3.207,3.207 0 0 1 29.9179,1.0122 ZM6.8329,41.1495 T6.9771,41.0999 7.1213,41.0502 A4.2447,4.2447 0 0 1 10.0817,49.0068 T9.94,49.0635 9.7984,49.1202 A4.2522,4.2522 0 0 1 6.8329,41.1495 ZM4.5763,43.6811 T5.4392,41.73 6.3021,39.7789 A3.8468,3.8468 0 0 1 13.5979,42.2211 T13.1123,44.2985 12.6267,46.3759 A4.2447,4.2447 0 0 1 4.5763,43.6811 Z" stroke-linecap="round" fill="#9fa8b2"/></g></g><g transform="matrix(1, 0, 0, 1, 980.7225, 301.3786)" opacity="1"><g transform="scale(1)"><path d="M-2.6374,1.3131 T-3.4725,-0.3649 -5.0883,-4.6306 -4.7244,-9.8757 -0.4678,-13.6607 6.0487,-13.5104 11.7397,-8.9015 14.5454,-3.5837 15.0832,0.6408 13.5524,7.712 10.7392,15.0919 8.0692,20.1676 5.6656,24.4659 4.0154,27.4704 3.3628,28.7055 A3.3206,3.3206 0 0 1 -2.4403,25.4758 T-1.7095,24.2254 0.0472,21.2395 2.4658,17.1327 5.1137,12.3896 7.7298,6.3944 8.8306,-0.2025 7.4372,-5.1922 3.9648,-7.9798 1.2971,-6.7076 1.8028,-2.9887 2.6374,-1.3131 A2.9462,2.9462 0 0 1 -2.6374,1.3131 ZM3.476,25.6986 T3.8001,26.3435 4.1242,26.9885 A3.3684,3.3684 0 0 1 -1.992,29.8126 T-2.2728,29.1477 -2.5535,28.4827 A3.3206,3.3206 0 0 1 3.476,25.6986 ZM1.0658,25.0321 T2.6326,24.9839 6.458,24.4418 12.1972,23.3133 20.2257,22.1243 28.3323,21.2498 34.2058,20.7855 38.0516,21.0603 39.5827,21.4794 A3.6938,3.6938 0 0 1 37.4773,28.5606 T37.1854,28.4377 34.7089,28.4918 29.0712,28.9225 21.2497,29.6118 13.4237,30.5465 7.0921,31.4552 2.6422,31.817 1.0664,31.769 A3.3684,3.3684 0 0 1 1.0658,25.0321 Z" stroke-linecap="round" fill="#9fa8b2"/></g></g><g transform="matrix(1, 0, 0, 1, 989.9299, 381.0985)" opacity="1"><g transform="scale(1)"><path d="M0,-2.2156 T3.2471,-2.224 9.0511,-2.3479 15.2978,-2.5872 19.2594,-2.6892 19.7901,-2.5812 20.2795,-2.3493 20.6992,-2.007 21.0248,-1.5743 21.2373,-1.0762 21.3245,-0.5417 21.2812,-0.0018 21.11,0.5119 20.8208,0.9698 20.4304,1.3452 19.9615,1.6162 19.4414,1.7671 15.8882,2.0846 8.7395,2.7356 2.5053,3.4826 0.6304,5.9559 1.469,12.1303 1.9354,18.3004 2.2237,23.8522 2.429,28.539 2.4686,29.7735 A3.469,3.469 0 0 1 -4.4686,29.8665 T-4.4623,28.6177 -4.3768,23.9668 -4.2826,18.5199 -4.2771,14.1948 -4.3128,8.4837 -2.8985,2.2637 1.494,-0.9723 6.499,-1.6084 11.1332,-1.7824 16.3511,-2.2391 19.2594,-2.6892 19.7901,-2.5812 20.2795,-2.3493 20.6992,-2.007 21.0248,-1.5743 21.2373,-1.0762 21.3245,-0.5417 21.2812,-0.0018 21.11,0.5119 20.8208,0.9698 20.4304,1.3452 19.9615,1.6162 19.4414,1.7671 15.4821,1.9244 9.1432,2.1351 3.2472,2.224 0,2.2156 A2.2156,2.2156 0 0 1 0,-2.2156 ZM-4.3477,28.9108 T-3.8156,27.2625 -0.2906,23.1093 4.691,19.6907 8.9684,18.1793 13.5478,17.5459 18.1525,18.2231 22.7315,20.6821 26.5249,24.4699 28.9479,28.9629 29.2951,34.6009 27.0026,40.3447 22.844,44.8149 17.5317,47.9801 12.2293,49.7099 7.455,50.6465 5.0844,51.1056 A3.3852,3.3852 0 0 1 3.3756,44.5544 T7.4502,43.1827 13.5525,40.9917 18.2846,37.8352 21.2059,33.2985 19.5207,28.7092 15.2847,25.7229 9.7906,26.0084 4.5578,28.2454 2.4166,30.1647 2.3477,30.7292 A3.469,3.469 0 0 1 -4.3477,28.9108 Z" stroke-linecap="round" fill="#9fa8b2"/></g></g><g transform="matrix(1, 0, 0, 1, 996.483, 481.3016)" opacity="1"><g transform="scale(1)"><path d="M-2.9926,-1.5073 T-2.3382,-2.7854 -1.8394,-6.076 -4.2185,-8.3765 -8.6205,-7.7164 -11.7036,-4.7059 -11.6989,-0.7171 -8.2551,3.8523 -3.8557,7.8065 -0.0568,10.394 5.3975,14.1748 10.4057,18.0299 13.9644,22.4372 16.8428,28.243 17.3381,34.0692 14.8333,39.9713 9.3478,44.3108 3.7645,46.1818 -0.6922,46.4728 -5.0076,45.6464 -8.9485,43.3028 -11.8319,39.8009 -13.4849,35.6571 -13.8223,30.4148 -11.5299,22.5334 -7.6199,14.0786 -4.3637,7.7505 -2.0837,3.0499 0.1267,-2.3885 1.4715,-5.8636 A3.3842,3.3842 0 0 1 7.9885,-4.0364 T7.6012,-1.9775 6.8078,2.1733 5.5007,6.5258 3.2544,11.5685 0.2285,17.7692 -3.1237,24.8396 -4.9014,31.2173 -3.6382,35.825 0.5732,37.6497 6.13,36.3685 9.0024,33.1301 8.4757,29.1586 5.8684,25.0892 0.7083,20.5193 -4.5315,16.6245 -8.7192,13.4664 -12.4905,10.1003 -15.5025,6.5916 -18.1204,2.1328 -19.1793,-2.7019 -18.1995,-6.9429 -15.7518,-10.7617 -12.2442,-13.5375 -8.0663,-14.9174 -3.288,-14.9239 1.3843,-12.9987 4.4234,-9.4505 4.7865,-4.2479 3.6342,0.2123 2.9926,1.5073 A3.3508,3.3508 0 0 1 -2.9926,-1.5073 Z" stroke-linecap="round" fill="#9fa8b2"/></g></g><g transform="matrix(1, 0, 0, 1, 636.6032, 344.7087)" opacity="1"><g transform="scale(1)"><path d="M1.6396,-4.301 T3.142,-3.5218 6.7791,-1.4504 11.103,1.7658 14.8716,5.2705 18.5515,8.7347 23.2215,12.9611 28.4767,17.8276 33.5248,22.6104 37.9818,26.8274 42.0512,30.4056 46.3852,33.9097 51.2304,37.7688 53.7161,39.7444 A4.3609,4.3609 0 0 1 48.3344,46.6078 T47.0347,45.5786 43.726,42.9104 40.0952,39.917 36.3852,36.7861 32.1653,32.9431 27.6777,28.5184 22.8528,23.7282 17.8536,18.899 13.1479,14.4974 9.3555,10.8462 6.2119,7.8426 2.8729,5.4272 -0.4595,3.6248 -1.9796,2.881 A4.0212,4.0212 0 0 1 1.6396,-4.301 ZM46.7193,42.4859 T46.9733,41.4875 47.2274,40.4892 A4.1753,4.1753 0 0 1 55.4726,41.8108 T55.4019,42.8386 55.3312,43.8663 A4.3609,4.3609 0 0 1 46.7193,42.4859 Z" stroke-linecap="round" fill="#4cb05e"/></g></g><g transform="matrix(1, 0, 0, 1, 724.3231, 419.439)" opacity="1"><g transform="scale(1)"><path d="M3.1255,-1.8309 T4.7581,0.0995 7.9167,3.6512 11.078,6.8781 14.7723,10.2408 18.7821,13.54 22.8305,16.6908 26.7556,19.7781 30.1266,22.5083 34.4644,26.0096 39.5277,30.2075 43.7644,33.5457 47.8488,36.117 52.1079,38.8521 55.7726,41.9323 58.8479,44.7369 61.5476,46.7831 62.6941,47.5511 A4.8929,4.8929 0 0 1 57.0674,55.5576 T54.5254,53.5349 50.5449,50.135 47.229,47.1001 42.9011,43.9671 38.1257,40.7234 33.721,37.0759 28.8486,32.8631 24.5415,29.245 21.3228,26.5122 17.5098,23.3709 13.3549,19.9891 9.0959,16.3137 5.1775,12.5989 1.8187,9.1005 -1.4802,5.4107 -3.1255,3.4909 A4.1047,4.1047 0 0 1 3.1255,-1.8309 ZM55.3323,49.7508 T55.6626,49.1386 55.9928,48.5264 A4.7303,4.7303 0 0 1 64.7872,52.0136 T64.6082,52.6857 64.4291,53.3579 A4.8929,4.8929 0 0 1 55.3323,49.7508 Z" stroke-linecap="round" fill="#4cb05e"/></g></g><g transform="matrix(1, 0, 0, 1, 732.4108, 346.2093)" opacity="1"><g transform="scale(1)"><path d="M1.2575,-2.8205 T3.6159,-1.303 8.6882,2.0458 13.7373,5.5798 18.5201,9.2057 23.1019,12.9243 27.2189,16.5641 31.3211,20.5799 36.5059,25.9297 41.2989,30.8236 44.4775,34.1222 47.3132,37.2716 50.2507,40.092 53.3096,42.0408 54.8158,42.7355 A4.0263,4.0263 0 0 1 51.5242,50.0845 T50.5156,49.6664 46.8441,47.5556 42.7544,44.39 39.3056,40.5574 35.5517,36.4021 30.8195,31.3465 25.9,26.0024 22.1679,22.1668 18.3387,18.654 14.0265,14.9934 9.5347,11.4112 4.7308,7.8647 -0.1874,4.4106 -2.4975,2.8205 A3.3883,3.3883 0 0 1 1.2575,-2.8205 Z" stroke-linecap="round" fill="#4cb05e"/></g></g><g transform="matrix(1, 0, 0, 1, 831.9096, 433.3947)" opacity="1"><g transform="scale(1)"><path d="M1.9676,-2.5845 T3.1083,-1.3386 5.8292,1.2571 10.8295,5.2552 16.2448,9.3901 20.21,12.3773 24.4008,15.6303 28.6183,19.0049 32.522,22.3269 36.4635,26.0735 41.5738,31.1589 46.3949,35.7123 50.5862,39.4001 54.5538,43.1238 57.1996,45.6727 58.3238,46.6713 A4.7226,4.7226 0 0 1 51.9504,53.6419 T49.2685,50.9563 44.3147,46.1481 40.1815,42.3052 35.2516,37.3771 30.4213,32.2527 26.9356,28.7169 23.2978,25.4546 19.2725,22.0343 15.2719,18.7215 11.4392,15.6401 5.9534,11.2242 0.5452,6.7067 -2.4742,3.8219 -3.6276,2.5845 A3.8087,3.8087 0 0 1 1.9676,-2.5845 ZM50.9319,48.0074 T51.199,47.5975 51.4661,47.1875 A4.62,4.62 0 0 1 59.6939,51.3925 T59.5181,51.8491 59.3423,52.3057 A4.7226,4.7226 0 0 1 50.9319,48.0074 Z" stroke-linecap="round" fill="#4cb05e"/></g></g><g transform="matrix(1, 0, 0, 1, 830.6654, 342.0826)" opacity="1"><g transform="scale(1)"><path d="M3.2397,-2.1053 T4.1291,-0.7573 8.5723,3.914 14.1867,8.9967 18.0299,12.3032 21.6171,15.4266 26.3831,19.6721 31.994,24.6913 36.6513,28.916 40.2364,32.3103 43.4662,35.4954 46.833,38.6235 50.8057,41.2986 53.0642,42.5112 A4.5643,4.5643 0 0 1 48.5558,50.4488 T47.2188,49.6725 43.3656,47.1459 38.9689,43.5888 35.6024,40.2443 32.4725,37.093 28.6202,33.4271 24.9475,30.0127 20.6385,25.9808 16.0241,21.6988 12.5308,18.5084 8.7455,15.0578 4.1307,10.7662 0.0438,6.5933 -2.3648,3.4723 -3.2397,2.1053 A3.8637,3.8637 0 0 1 3.2397,-2.1053 Z" stroke-linecap="round" fill="#4cb05e"/></g></g><g transform="matrix(1, 0, 0, 1, 928.92, 427.1671)" opacity="1"><g transform="scale(1)"><path d="M3.2004,-2.6747 T5.1113,-0.3834 8.6379,3.7351 12.0041,7.3429 16.5076,11.5534 20.8843,15.2851 24.976,18.7236 29.3159,22.629 32.7683,25.6925 36.3061,28.3809 40.5081,31.3407 43.9823,33.733 45.2122,34.559 A4.4951,4.4951 0 0 1 40.2278,42.041 T37.8608,40.4774 33.771,37.6611 30.4658,35.2024 26.9951,32.3743 23.3776,29.049 19.364,25.2913 15.4402,21.8745 10.7591,17.7467 5.8475,13.0301 2.3042,9.1642 -1.2848,4.9621 -3.2004,2.6747 A4.1709,4.1709 0 0 1 3.2004,-2.6747 Z" stroke-linecap="round" fill="#4cb05e"/></g></g><g transform="matrix(1, 0, 0, 1, 791.4714, 324.9382)" opacity="1"><g transform="scale(1)"><path d="M0,0 Q-1.3406,2.736 -1.9151,3.747 T-3.3879,6.0945 -5.1901,8.7646 -7.2398,11.6695 -9.3192,14.5083 -11.1299,17.0627 -12.8536,19.5193 -14.5871,21.7791 -16.6267,24.0709 -18.8512,26.3368 -20.9323,28.3652 -22.8875,30.2552 -24.8586,32.2228 -26.8291,34.2005 -28.8177,36.0973 -30.7795,37.8632 -32.508,39.3985 -34.1368,41.0043 -35.6659,42.6987 -37.038,44.2611 -38.391,45.7357 -39.6559,47.1034 -40.7499,48.3695 -41.7417,49.5964 -42.8103,50.8862 -44.2237,52.5045 -45.6562,54.062 -46.8982,55.3538 -48.2351,56.5263 -49.7927,57.6492 L-50.64,58.26 " stroke-linecap="round" fill="none" stroke="#f87777" stroke-width="4.5" stroke-dasharray="9 9" stroke-dashoffset="0"/></g></g><g transform="matrix(1, 0, 0, 1, 695.7053, 431.6314)" opacity="1"><g transform="scale(1)"><path d="M0,0 Q-1.8514,2.5673 -2.6878,3.6327 T-4.5835,5.9867 -6.8528,8.7721 -9.355,11.8697 -12.0864,15.267 -14.726,18.5789 -16.9941,21.4568 -19.0215,24.0483 -20.7969,26.4157 -22.4627,28.969 -24.2194,32.0269 -25.9889,35.12 -27.5945,37.8469 -29.0357,40.2195 -30.4262,42.3743 -31.6728,44.2739 -32.7386,45.8795 -33.6695,47.266 -34.5635,48.5423 -35.4465,49.8089 -36.3054,50.9927 -37.085,52.1497 -37.7644,53.2169 -38.4373,54.201 -39.143,55.1285 -39.9032,56.0343 -40.6473,56.9649 -41.3644,57.8313 -42.1331,58.7199 -43.1098,59.7938 -44.2841,61.0712 -45.518,62.3725 -46.6042,63.4566 -47.4892,64.336 -48.4152,65.243 -49.4297,66.3018 -50.0591,67.2289 -49.8064,67.4848 -48.9797,67.268 L-48.53,67.15 " stroke-linecap="round" fill="none" stroke="#f87777" stroke-width="4.5" stroke-dasharray="9 9" stroke-dashoffset="0"/></g></g><g transform="matrix(1, 0, 0, 1, 894.4541, 328.052)" opacity="1"><g transform="scale(1)"><path d="M0,-0.71 Q-3.0461,2.7966 -4.4515,4.4436 T-7.1412,7.6704 -9.6053,10.7505 -12.0904,13.8625 -14.6164,16.9165 -17.2104,19.8776 -19.887,22.7788 -22.2322,25.2463 -24.3311,27.3935 -26.4738,29.5625 -28.5583,31.7843 -30.5153,33.9096 -32.2981,35.8113 -33.9588,37.6073 -35.7697,39.6104 -37.6622,41.7078 -39.4396,43.6195 -41.1908,45.4802 -42.8891,47.2881 -44.579,49.0765 -46.2849,50.836 -47.8467,52.4338 -49.2823,53.9095 -50.7633,55.3986 -52.2871,56.8767 -53.7111,58.2439 -55.1105,59.6284 -56.4487,60.9812 -57.6668,62.1867 -59.0203,63.4331 -60.5227,64.8567 -61.8416,66.4177 -62.8897,67.8916 -63.8474,69.1882 -65.0114,70.4658 -66.5001,71.8675 L-67.31,72.63 " stroke-linecap="round" fill="none" stroke="#f87777" stroke-width="4.5" stroke-dasharray="9 9" stroke-dashoffset="0"/></g></g><g transform="matrix(1, 0, 0, 1, 789.7709, 434.295)" opacity="1"><g transform="scale(1)"><path d="M0,0 Q-2.1386,2.3256 -3.1444,3.5487 T-4.8501,5.6081 -6.6855,7.8662 -9.0815,10.8479 -11.4931,13.7946 -13.742,16.5011 -15.996,19.2138 -18.1502,21.8455 -20.0972,24.1686 -22.1003,26.3717 -24.0975,28.4936 -25.8747,30.3593 -27.4275,31.9898 -28.8582,33.595 -30.2225,35.1864 -31.5506,36.6929 -32.8408,38.0778 -34.0169,39.2849 -35.1971,40.4614 -36.4251,41.6145 -37.7246,42.7638 -39.0449,43.893 -40.2192,44.9108 -41.2273,45.8156 -42.2477,46.7684 -43.2953,47.8339 -44.3667,48.9789 -45.3942,50.0738 -46.302,51.0274 -47.1743,51.9223 -48.0091,52.8128 -48.974,53.8785 -49.9343,54.928 -50.9196,55.9253 -51.9845,57.0492 -52.7713,58.2078 -53.2176,59.1208 -53.1777,59.4054 -52.7452,59.2983 L-52.51,59.24 " stroke-linecap="round" fill="none" stroke="#f87777" stroke-width="4.5" stroke-dasharray="9 9" stroke-dashoffset="0"/></g></g><g transform="matrix(1, 0, 0, 1, 966.5794, 338.4812)" opacity="1"><g transform="scale(1)"><path d="M0,0 Q-2.5536,2.1569 -3.8524,3.2908 T-7.9963,7.0934 -12.9456,11.7955 -16.7917,15.5596 -20.3979,19.0185 -23.853,22.2522 -26.7815,25.0989 -29.3298,27.8879 -31.5597,30.6271 -33.4545,33.0658 -35.1944,35.4526 -36.7929,37.7952 -38.1733,39.8654 -39.3209,41.5387 -40.3419,43.0304 -41.2667,44.4758 -42.1187,45.93 -43.045,47.4394 -43.9182,48.8419 -44.5529,49.9217 -44.9255,50.1672 -45.2134,49.8452 L-45.37,49.67 " stroke-linecap="round" fill="none" stroke="#f87777" stroke-width="4.5" stroke-dasharray="9 9" stroke-dashoffset="0"/></g></g><g transform="matrix(1, 0, 0, 1, 889.6016, 424.5036)" opacity="1"><g transform="scale(1)"><path d="M0.33,-0.71 Q-1.8451,2.897 -2.9657,4.4868 T-5.1017,7.4021 -7.2761,10.0733 -9.5009,12.63 -11.6277,14.9533 -13.8153,17.3048 -15.9424,19.635 -17.8542,21.7326 -19.7265,23.7811 -21.5589,25.7665 -23.2261,27.5556 -24.9561,29.2813 -26.8047,30.9223 -28.6151,32.4055 -30.5189,33.828 -32.3958,35.0647 -33.955,36.141 -35.2751,37.2897 -36.447,38.4344 -37.4903,39.4675 -38.4934,40.5858 -39.4084,41.803 -40.2185,42.9279 -41.0195,43.9663 -41.804,44.9507 -42.5614,45.8555 -43.4363,46.8858 -44.4138,48.087 -45.3355,49.1851 -46.1857,50.1426 -46.9583,51.0489 -47.7867,52.0708 -48.5794,53.1147 -49.3594,54.1363 -50.3606,55.2301 -51.3681,56.2446 -52.2946,57.1978 -53.2342,58.177 -54.2651,59.2226 -55.3549,60.3135 -56.4767,61.3014 -57.5224,62.1809 -58.4698,63.0947 -59.5515,64.1409 L-60.14,64.71 " stroke-linecap="round" fill="none" stroke="#f87777" stroke-width="4.5" stroke-dasharray="9 9" stroke-dashoffset="0"/></g></g></svg>