<svg width="622" height="442" viewBox="0 0 622 442" fill="none" xmlns="http://www.w3.org/2000/svg">
<g id="Desktop - 1">
<rect width="622" height="442" fill="white"/>
<g id="matrix">
<g id="row">
<g id="x">
<path id="frontslash" d="M26 53.2383C26.2596 55.3147 30.4385 56.9532 31.7 58.355C33.2145 60.0378 34.9239 61.2622 36.5 62.8383C37.1202 63.4585 40.8381 67.8002 41 67.6383" stroke="#1E1E1E" stroke-width="4" stroke-linecap="round" stroke-linejoin="round"/>
<path id="backslash" d="M26.4307 68C28.5071 67.7404 30.1456 63.5615 31.5473 62.3C33.2301 60.7855 34.4545 59.0761 36.0307 57.5C36.6509 56.8798 40.9926 53.1619 40.8307 53" stroke="#1E1E1E" stroke-width="4" stroke-linecap="round" stroke-linejoin="round"/>
</g>
<g id="x_2">
<path id="frontslash_2" d="M56 53.2383C56.2596 55.3147 60.4385 56.9532 61.7 58.355C63.2145 60.0378 64.9239 61.2622 66.5 62.8383C67.1202 63.4585 70.8381 67.8002 71 67.6383" stroke="#1E1E1E" stroke-width="4" stroke-linecap="round" stroke-linejoin="round"/>
<path id="backslash_2" d="M56.4306 68C58.5071 67.7404 60.1456 63.5615 61.5473 62.3C63.2301 60.7855 64.4545 59.0761 66.0306 57.5C66.6509 56.8798 70.9926 53.1619 70.8306 53" stroke="#1E1E1E" stroke-width="4" stroke-linecap="round" stroke-linejoin="round"/>
</g>
<g id="x_3">
<path id="frontslash_3" d="M86 53.2383C86.2596 55.3147 90.4385 56.9532 91.7 58.355C93.2145 60.0378 94.9239 61.2622 96.5 62.8383C97.1202 63.4585 100.838 67.8002 101 67.6383" stroke="#1E1E1E" stroke-width="4" stroke-linecap="round" stroke-linejoin="round"/>
<path id="backslash_3" d="M86.4306 68C88.5071 67.7404 90.1456 63.5615 91.5473 62.3C93.2301 60.7855 94.4545 59.0761 96.0306 57.5C96.6509 56.8798 100.993 53.1619 100.831 53" stroke="#1E1E1E" stroke-width="4" stroke-linecap="round" stroke-linejoin="round"/>
</g>
<g id="x_4">
<path id="frontslash_4" d="M116 53.2383C116.26 55.3147 120.438 56.9532 121.7 58.355C123.215 60.0378 124.924 61.2622 126.5 62.8383C127.12 63.4585 130.838 67.8002 131 67.6383" stroke="#1E1E1E" stroke-width="4" stroke-linecap="round" stroke-linejoin="round"/>
<path id="backslash_4" d="M116.431 68C118.507 67.7404 120.146 63.5615 121.547 62.3C123.23 60.7855 124.455 59.0761 126.031 57.5C126.651 56.8798 130.993 53.1619 130.831 53" stroke="#1E1E1E" stroke-width="4" stroke-linecap="round" stroke-linejoin="round"/>
</g>
<g id="x_5">
<path id="frontslash_5" d="M146 53.2383C146.26 55.3147 150.438 56.9532 151.7 58.355C153.215 60.0378 154.924 61.2622 156.5 62.8383C157.12 63.4585 160.838 67.8002 161 67.6383" stroke="#1E1E1E" stroke-width="4" stroke-linecap="round" stroke-linejoin="round"/>
<path id="backslash_5" d="M146.431 68C148.507 67.7404 150.146 63.5615 151.547 62.3C153.23 60.7855 154.455 59.0761 156.031 57.5C156.651 56.8798 160.993 53.1619 160.831 53" stroke="#1E1E1E" stroke-width="4" stroke-linecap="round" stroke-linejoin="round"/>
</g>
</g>
<g id="row_2">
<g id="x_6">
<path id="frontslash_6" d="M26 83.2383C26.2596 85.3147 30.4385 86.9532 31.7 88.355C33.2145 90.0378 34.9239 91.2622 36.5 92.8383C37.1202 93.4585 40.8381 97.8002 41 97.6383" stroke="#1E1E1E" stroke-width="4" stroke-linecap="round" stroke-linejoin="round"/>
<path id="backslash_6" d="M26.4307 98C28.5071 97.7404 30.1456 93.5615 31.5473 92.3C33.2301 90.7855 34.4545 89.0761 36.0307 87.5C36.6509 86.8798 40.9926 83.1619 40.8307 83" stroke="#1E1E1E" stroke-width="4" stroke-linecap="round" stroke-linejoin="round"/>
</g>
<g id="x_7">
<path id="frontslash_7" d="M56 83.2383C56.2596 85.3147 60.4385 86.9532 61.7 88.355C63.2145 90.0378 64.9239 91.2622 66.5 92.8383C67.1202 93.4585 70.8381 97.8002 71 97.6383" stroke="#1E1E1E" stroke-width="4" stroke-linecap="round" stroke-linejoin="round"/>
<path id="backslash_7" d="M56.4306 98C58.5071 97.7404 60.1456 93.5615 61.5473 92.3C63.2301 90.7855 64.4545 89.0761 66.0306 87.5C66.6509 86.8798 70.9926 83.1619 70.8306 83" stroke="#1E1E1E" stroke-width="4" stroke-linecap="round" stroke-linejoin="round"/>
</g>
<g id="x_8">
<path id="frontslash_8" d="M86 83.2383C86.2596 85.3147 90.4385 86.9532 91.7 88.355C93.2145 90.0378 94.9239 91.2622 96.5 92.8383C97.1202 93.4585 100.838 97.8002 101 97.6383" stroke="#1E1E1E" stroke-width="4" stroke-linecap="round" stroke-linejoin="round"/>
<path id="backslash_8" d="M86.4306 98C88.5071 97.7404 90.1456 93.5615 91.5473 92.3C93.2301 90.7855 94.4545 89.0761 96.0306 87.5C96.6509 86.8798 100.993 83.1619 100.831 83" stroke="#1E1E1E" stroke-width="4" stroke-linecap="round" stroke-linejoin="round"/>
</g>
<g id="x_9">
<path id="frontslash_9" d="M116 83.2383C116.26 85.3147 120.438 86.9532 121.7 88.355C123.215 90.0378 124.924 91.2622 126.5 92.8383C127.12 93.4585 130.838 97.8002 131 97.6383" stroke="#1E1E1E" stroke-width="4" stroke-linecap="round" stroke-linejoin="round"/>
<path id="backslash_9" d="M116.431 98C118.507 97.7404 120.146 93.5615 121.547 92.3C123.23 90.7855 124.455 89.0761 126.031 87.5C126.651 86.8798 130.993 83.1619 130.831 83" stroke="#1E1E1E" stroke-width="4" stroke-linecap="round" stroke-linejoin="round"/>
</g>
<g id="x_10">
<path id="frontslash_10" d="M146 83.2383C146.26 85.3147 150.438 86.9532 151.7 88.355C153.215 90.0378 154.924 91.2622 156.5 92.8383C157.12 93.4585 160.838 97.8002 161 97.6383" stroke="#1E1E1E" stroke-width="4" stroke-linecap="round" stroke-linejoin="round"/>
<path id="backslash_10" d="M146.431 98C148.507 97.7404 150.146 93.5615 151.547 92.3C153.23 90.7855 154.455 89.0761 156.031 87.5C156.651 86.8798 160.993 83.1619 160.831 83" stroke="#1E1E1E" stroke-width="4" stroke-linecap="round" stroke-linejoin="round"/>
</g>
</g>
<g id="row_3">
<g id="x_11">
<path id="frontslash_11" d="M26 113.238C26.2596 115.315 30.4385 116.953 31.7 118.355C33.2145 120.038 34.9239 121.262 36.5 122.838C37.1202 123.459 40.8381 127.8 41 127.638" stroke="#1E1E1E" stroke-width="4" stroke-linecap="round" stroke-linejoin="round"/>
<path id="backslash_11" d="M26.4307 128C28.5071 127.74 30.1456 123.562 31.5473 122.3C33.2301 120.785 34.4545 119.076 36.0307 117.5C36.6509 116.88 40.9926 113.162 40.8307 113" stroke="#1E1E1E" stroke-width="4" stroke-linecap="round" stroke-linejoin="round"/>
</g>
<g id="x_12">
<path id="frontslash_12" d="M56 113.238C56.2596 115.315 60.4385 116.953 61.7 118.355C63.2145 120.038 64.9239 121.262 66.5 122.838C67.1202 123.459 70.8381 127.8 71 127.638" stroke="#1E1E1E" stroke-width="4" stroke-linecap="round" stroke-linejoin="round"/>
<path id="backslash_12" d="M56.4306 128C58.5071 127.74 60.1456 123.562 61.5473 122.3C63.2301 120.785 64.4545 119.076 66.0306 117.5C66.6509 116.88 70.9926 113.162 70.8306 113" stroke="#1E1E1E" stroke-width="4" stroke-linecap="round" stroke-linejoin="round"/>
</g>
<g id="x_13">
<path id="frontslash_13" d="M86 113.238C86.2596 115.315 90.4385 116.953 91.7 118.355C93.2145 120.038 94.9239 121.262 96.5 122.838C97.1202 123.459 100.838 127.8 101 127.638" stroke="#1E1E1E" stroke-width="4" stroke-linecap="round" stroke-linejoin="round"/>
<path id="backslash_13" d="M86.4306 128C88.5071 127.74 90.1456 123.562 91.5473 122.3C93.2301 120.785 94.4545 119.076 96.0306 117.5C96.6509 116.88 100.993 113.162 100.831 113" stroke="#1E1E1E" stroke-width="4" stroke-linecap="round" stroke-linejoin="round"/>
</g>
<g id="x_14">
<path id="frontslash_14" d="M116 113.238C116.26 115.315 120.438 116.953 121.7 118.355C123.215 120.038 124.924 121.262 126.5 122.838C127.12 123.459 130.838 127.8 131 127.638" stroke="#1E1E1E" stroke-width="4" stroke-linecap="round" stroke-linejoin="round"/>
<path id="backslash_14" d="M116.431 128C118.507 127.74 120.146 123.562 121.547 122.3C123.23 120.785 124.455 119.076 126.031 117.5C126.651 116.88 130.993 113.162 130.831 113" stroke="#1E1E1E" stroke-width="4" stroke-linecap="round" stroke-linejoin="round"/>
</g>
<g id="x_15">
<path id="frontslash_15" d="M146 113.238C146.26 115.315 150.438 116.953 151.7 118.355C153.215 120.038 154.924 121.262 156.5 122.838C157.12 123.459 160.838 127.8 161 127.638" stroke="#1E1E1E" stroke-width="4" stroke-linecap="round" stroke-linejoin="round"/>
<path id="backslash_15" d="M146.431 128C148.507 127.74 150.146 123.562 151.547 122.3C153.23 120.785 154.455 119.076 156.031 117.5C156.651 116.88 160.993 113.162 160.831 113" stroke="#1E1E1E" stroke-width="4" stroke-linecap="round" stroke-linejoin="round"/>
</g>
</g>
<g id="row_4">
<g id="x_16">
<path id="frontslash_16" d="M26 143.238C26.2596 145.315 30.4385 146.953 31.7 148.355C33.2145 150.038 34.9239 151.262 36.5 152.838C37.1202 153.458 40.8381 157.8 41 157.638" stroke="#1E1E1E" stroke-width="4" stroke-linecap="round" stroke-linejoin="round"/>
<path id="backslash_16" d="M26.4307 158C28.5071 157.74 30.1456 153.562 31.5473 152.3C33.2301 150.785 34.4545 149.076 36.0307 147.5C36.6509 146.88 40.9926 143.162 40.8307 143" stroke="#1E1E1E" stroke-width="4" stroke-linecap="round" stroke-linejoin="round"/>
</g>
<g id="x_17">
<path id="frontslash_17" d="M56 143.238C56.2596 145.315 60.4385 146.953 61.7 148.355C63.2145 150.038 64.9239 151.262 66.5 152.838C67.1202 153.458 70.8381 157.8 71 157.638" stroke="#1E1E1E" stroke-width="4" stroke-linecap="round" stroke-linejoin="round"/>
<path id="backslash_17" d="M56.4306 158C58.5071 157.74 60.1456 153.562 61.5473 152.3C63.2301 150.785 64.4545 149.076 66.0306 147.5C66.6509 146.88 70.9926 143.162 70.8306 143" stroke="#1E1E1E" stroke-width="4" stroke-linecap="round" stroke-linejoin="round"/>
</g>
<g id="x_18">
<path id="frontslash_18" d="M86 143.238C86.2596 145.315 90.4385 146.953 91.7 148.355C93.2145 150.038 94.9239 151.262 96.5 152.838C97.1202 153.458 100.838 157.8 101 157.638" stroke="#1E1E1E" stroke-width="4" stroke-linecap="round" stroke-linejoin="round"/>
<path id="backslash_18" d="M86.4306 158C88.5071 157.74 90.1456 153.562 91.5473 152.3C93.2301 150.785 94.4545 149.076 96.0306 147.5C96.6509 146.88 100.993 143.162 100.831 143" stroke="#1E1E1E" stroke-width="4" stroke-linecap="round" stroke-linejoin="round"/>
</g>
<g id="x_19">
<path id="frontslash_19" d="M116 143.238C116.26 145.315 120.438 146.953 121.7 148.355C123.215 150.038 124.924 151.262 126.5 152.838C127.12 153.458 130.838 157.8 131 157.638" stroke="#1E1E1E" stroke-width="4" stroke-linecap="round" stroke-linejoin="round"/>
<path id="backslash_19" d="M116.431 158C118.507 157.74 120.146 153.562 121.547 152.3C123.23 150.785 124.455 149.076 126.031 147.5C126.651 146.88 130.993 143.162 130.831 143" stroke="#1E1E1E" stroke-width="4" stroke-linecap="round" stroke-linejoin="round"/>
</g>
<g id="x_20">
<path id="frontslash_20" d="M146 143.238C146.26 145.315 150.438 146.953 151.7 148.355C153.215 150.038 154.924 151.262 156.5 152.838C157.12 153.458 160.838 157.8 161 157.638" stroke="#1E1E1E" stroke-width="4" stroke-linecap="round" stroke-linejoin="round"/>
<path id="backslash_20" d="M146.431 158C148.507 157.74 150.146 153.562 151.547 152.3C153.23 150.785 154.455 149.076 156.031 147.5C156.651 146.88 160.993 143.162 160.831 143" stroke="#1E1E1E" stroke-width="4" stroke-linecap="round" stroke-linejoin="round"/>
</g>
</g>
<g id="row_5">
<g id="x_21">
<path id="frontslash_21" d="M26 173.238C26.2596 175.315 30.4385 176.953 31.7 178.355C33.2145 180.038 34.9239 181.262 36.5 182.838C37.1202 183.458 40.8381 187.8 41 187.638" stroke="#1E1E1E" stroke-width="4" stroke-linecap="round" stroke-linejoin="round"/>
<path id="backslash_21" d="M26.4307 188C28.5071 187.74 30.1456 183.562 31.5473 182.3C33.2301 180.785 34.4545 179.076 36.0307 177.5C36.6509 176.88 40.9926 173.162 40.8307 173" stroke="#1E1E1E" stroke-width="4" stroke-linecap="round" stroke-linejoin="round"/>
</g>
<g id="x_22">
<path id="frontslash_22" d="M56 173.238C56.2596 175.315 60.4385 176.953 61.7 178.355C63.2145 180.038 64.9239 181.262 66.5 182.838C67.1202 183.458 70.8381 187.8 71 187.638" stroke="#1E1E1E" stroke-width="4" stroke-linecap="round" stroke-linejoin="round"/>
<path id="backslash_22" d="M56.4306 188C58.5071 187.74 60.1456 183.562 61.5473 182.3C63.2301 180.785 64.4545 179.076 66.0306 177.5C66.6509 176.88 70.9926 173.162 70.8306 173" stroke="#1E1E1E" stroke-width="4" stroke-linecap="round" stroke-linejoin="round"/>
</g>
<g id="x_23">
<path id="frontslash_23" d="M86 173.238C86.2596 175.315 90.4385 176.953 91.7 178.355C93.2145 180.038 94.9239 181.262 96.5 182.838C97.1202 183.458 100.838 187.8 101 187.638" stroke="#1E1E1E" stroke-width="4" stroke-linecap="round" stroke-linejoin="round"/>
<path id="backslash_23" d="M86.4306 188C88.5071 187.74 90.1456 183.562 91.5473 182.3C93.2301 180.785 94.4545 179.076 96.0306 177.5C96.6509 176.88 100.993 173.162 100.831 173" stroke="#1E1E1E" stroke-width="4" stroke-linecap="round" stroke-linejoin="round"/>
</g>
<g id="x_24">
<path id="frontslash_24" d="M116 173.238C116.26 175.315 120.438 176.953 121.7 178.355C123.215 180.038 124.924 181.262 126.5 182.838C127.12 183.458 130.838 187.8 131 187.638" stroke="#1E1E1E" stroke-width="4" stroke-linecap="round" stroke-linejoin="round"/>
<path id="backslash_24" d="M116.431 188C118.507 187.74 120.146 183.562 121.547 182.3C123.23 180.785 124.455 179.076 126.031 177.5C126.651 176.88 130.993 173.162 130.831 173" stroke="#1E1E1E" stroke-width="4" stroke-linecap="round" stroke-linejoin="round"/>
</g>
<g id="x_25">
<path id="frontslash_25" d="M146 173.238C146.26 175.315 150.438 176.953 151.7 178.355C153.215 180.038 154.924 181.262 156.5 182.838C157.12 183.458 160.838 187.8 161 187.638" stroke="#1E1E1E" stroke-width="4" stroke-linecap="round" stroke-linejoin="round"/>
<path id="backslash_25" d="M146.431 188C148.507 187.74 150.146 183.562 151.547 182.3C153.23 180.785 154.455 179.076 156.031 177.5C156.651 176.88 160.993 173.162 160.831 173" stroke="#1E1E1E" stroke-width="4" stroke-linecap="round" stroke-linejoin="round"/>
</g>
</g>
</g>
<g id="matrix_2">
<g id="row_6">
<g id="x_26">
<path id="frontslash_26" d="M461 53.2383C461.26 55.3147 465.438 56.9532 466.7 58.355C468.215 60.0378 469.924 61.2622 471.5 62.8383C472.12 63.4585 475.838 67.8002 476 67.6383" stroke="#1E1E1E" stroke-width="4" stroke-linecap="round" stroke-linejoin="round"/>
<path id="backslash_26" d="M461.431 68C463.507 67.7404 465.146 63.5615 466.547 62.3C468.23 60.7855 469.455 59.0761 471.031 57.5C471.651 56.8798 475.993 53.1619 475.831 53" stroke="#1E1E1E" stroke-width="4" stroke-linecap="round" stroke-linejoin="round"/>
<path id="pivot" d="M460.31 74.4394C460.597 74.4075 461.006 74.1275 461.277 73.9999C461.728 73.7867 462.292 73.7141 462.771 73.5605C464.313 73.0658 466.238 73.2265 467.82 73.4042C469.485 73.5913 471.266 73.7943 472.879 74.2636C474.305 74.6784 475.653 74.3644 477.01 73.912" stroke="#FF7E7E" stroke-width="3" stroke-linecap="round"/>
</g>
<g id="x_27">
<path id="frontslash_27" d="M491 53.2383C491.26 55.3147 495.438 56.9532 496.7 58.355C498.215 60.0378 499.924 61.2622 501.5 62.8383C502.12 63.4585 505.838 67.8002 506 67.6383" stroke="#1E1E1E" stroke-width="4" stroke-linecap="round" stroke-linejoin="round"/>
<path id="backslash_27" d="M491.431 68C493.507 67.7404 495.146 63.5615 496.547 62.3C498.23 60.7855 499.455 59.0761 501.031 57.5C501.651 56.8798 505.993 53.1619 505.831 53" stroke="#1E1E1E" stroke-width="4" stroke-linecap="round" stroke-linejoin="round"/>
</g>
<g id="x_28">
<path id="frontslash_28" d="M521 53.2383C521.26 55.3147 525.438 56.9532 526.7 58.355C528.215 60.0378 529.924 61.2622 531.5 62.8383C532.12 63.4585 535.838 67.8002 536 67.6383" stroke="#1E1E1E" stroke-width="4" stroke-linecap="round" stroke-linejoin="round"/>
<path id="backslash_28" d="M521.431 68C523.507 67.7404 525.146 63.5615 526.547 62.3C528.23 60.7855 529.455 59.0761 531.031 57.5C531.651 56.8798 535.993 53.1619 535.831 53" stroke="#1E1E1E" stroke-width="4" stroke-linecap="round" stroke-linejoin="round"/>
</g>
<g id="x_29">
<path id="frontslash_29" d="M551 53.2383C551.26 55.3147 555.438 56.9532 556.7 58.355C558.215 60.0378 559.924 61.2622 561.5 62.8383C562.12 63.4585 565.838 67.8002 566 67.6383" stroke="#1E1E1E" stroke-width="4" stroke-linecap="round" stroke-linejoin="round"/>
<path id="backslash_29" d="M551.431 68C553.507 67.7404 555.146 63.5615 556.547 62.3C558.23 60.7855 559.455 59.0761 561.031 57.5C561.651 56.8798 565.993 53.1619 565.831 53" stroke="#1E1E1E" stroke-width="4" stroke-linecap="round" stroke-linejoin="round"/>
</g>
<g id="x_30">
<path id="frontslash_30" d="M581 53.2383C581.26 55.3147 585.438 56.9532 586.7 58.355C588.215 60.0378 589.924 61.2622 591.5 62.8383C592.12 63.4585 595.838 67.8002 596 67.6383" stroke="#1E1E1E" stroke-width="4" stroke-linecap="round" stroke-linejoin="round"/>
<path id="backslash_30" d="M581.431 68C583.507 67.7404 585.146 63.5615 586.547 62.3C588.23 60.7855 589.455 59.0761 591.031 57.5C591.651 56.8798 595.993 53.1619 595.831 53" stroke="#1E1E1E" stroke-width="4" stroke-linecap="round" stroke-linejoin="round"/>
</g>
</g>
<g id="row_7">
<g id="x_31">
<path id="frontslash_31" d="M491 83.2383C491.26 85.3147 495.438 86.9532 496.7 88.355C498.215 90.0378 499.924 91.2622 501.5 92.8383C502.12 93.4585 505.838 97.8002 506 97.6383" stroke="#1E1E1E" stroke-width="4" stroke-linecap="round" stroke-linejoin="round"/>
<path id="backslash_31" d="M491.431 98C493.507 97.7404 495.146 93.5615 496.547 92.3C498.23 90.7855 499.455 89.0761 501.031 87.5C501.651 86.8798 505.993 83.1619 505.831 83" stroke="#1E1E1E" stroke-width="4" stroke-linecap="round" stroke-linejoin="round"/>
<path id="pivot_2" d="M491 103.209C491.287 103.177 491.697 102.897 491.967 102.77C492.418 102.556 492.982 102.484 493.461 102.33C495.003 101.836 496.928 101.996 498.51 102.174C500.176 102.361 501.956 102.564 503.569 103.033C504.995 103.448 506.343 103.134 507.7 102.682" stroke="#FF7E7E" stroke-width="3" stroke-linecap="round"/>
</g>
<g id="x_32">
<path id="frontslash_32" d="M521 83.2383C521.26 85.3147 525.438 86.9532 526.7 88.355C528.215 90.0378 529.924 91.2622 531.5 92.8383C532.12 93.4585 535.838 97.8002 536 97.6383" stroke="#1E1E1E" stroke-width="4" stroke-linecap="round" stroke-linejoin="round"/>
<path id="backslash_32" d="M521.431 98C523.507 97.7404 525.146 93.5615 526.547 92.3C528.23 90.7855 529.455 89.0761 531.031 87.5C531.651 86.8798 535.993 83.1619 535.831 83" stroke="#1E1E1E" stroke-width="4" stroke-linecap="round" stroke-linejoin="round"/>
</g>
<g id="x_33">
<path id="frontslash_33" d="M551 83.2383C551.26 85.3147 555.438 86.9532 556.7 88.355C558.215 90.0378 559.924 91.2622 561.5 92.8383C562.12 93.4585 565.838 97.8002 566 97.6383" stroke="#1E1E1E" stroke-width="4" stroke-linecap="round" stroke-linejoin="round"/>
<path id="backslash_33" d="M551.431 98C553.507 97.7404 555.146 93.5615 556.547 92.3C558.23 90.7855 559.455 89.0761 561.031 87.5C561.651 86.8798 565.993 83.1619 565.831 83" stroke="#1E1E1E" stroke-width="4" stroke-linecap="round" stroke-linejoin="round"/>
</g>
<g id="x_34">
<path id="frontslash_34" d="M581 83.2383C581.26 85.3147 585.438 86.9532 586.7 88.355C588.215 90.0378 589.924 91.2622 591.5 92.8383C592.12 93.4585 595.838 97.8002 596 97.6383" stroke="#1E1E1E" stroke-width="4" stroke-linecap="round" stroke-linejoin="round"/>
<path id="backslash_34" d="M581.431 98C583.507 97.7404 585.146 93.5615 586.547 92.3C588.23 90.7855 589.455 89.0761 591.031 87.5C591.651 86.8798 595.993 83.1619 595.831 83" stroke="#1E1E1E" stroke-width="4" stroke-linecap="round" stroke-linejoin="round"/>
</g>
</g>
<g id="row_8">
<g id="x_35">
<path id="frontslash_35" d="M521 113.238C521.26 115.315 525.438 116.953 526.7 118.355C528.215 120.038 529.924 121.262 531.5 122.838C532.12 123.459 535.838 127.8 536 127.638" stroke="#1E1E1E" stroke-width="4" stroke-linecap="round" stroke-linejoin="round"/>
<path id="backslash_35" d="M521.431 128C523.507 127.74 525.146 123.562 526.547 122.3C528.23 120.785 529.455 119.076 531.031 117.5C531.651 116.88 535.993 113.162 535.831 113" stroke="#1E1E1E" stroke-width="4" stroke-linecap="round" stroke-linejoin="round"/>
<path id="pivot_3" d="M521 133.209C521.287 133.177 521.697 132.897 521.967 132.77C522.418 132.556 522.982 132.484 523.461 132.33C525.003 131.836 526.928 131.996 528.51 132.174C530.176 132.361 531.956 132.564 533.569 133.033C534.995 133.448 536.343 133.134 537.7 132.682" stroke="#FF7E7E" stroke-width="3" stroke-linecap="round"/>
</g>
<g id="x_36">
<path id="frontslash_36" d="M551 113.238C551.26 115.315 555.438 116.953 556.7 118.355C558.215 120.038 559.924 121.262 561.5 122.838C562.12 123.459 565.838 127.8 566 127.638" stroke="#1E1E1E" stroke-width="4" stroke-linecap="round" stroke-linejoin="round"/>
<path id="backslash_36" d="M551.431 128C553.507 127.74 555.146 123.562 556.547 122.3C558.23 120.785 559.455 119.076 561.031 117.5C561.651 116.88 565.993 113.162 565.831 113" stroke="#1E1E1E" stroke-width="4" stroke-linecap="round" stroke-linejoin="round"/>
</g>
<g id="x_37">
<path id="frontslash_37" d="M581 113.238C581.26 115.315 585.438 116.953 586.7 118.355C588.215 120.038 589.924 121.262 591.5 122.838C592.12 123.459 595.838 127.8 596 127.638" stroke="#1E1E1E" stroke-width="4" stroke-linecap="round" stroke-linejoin="round"/>
<path id="backslash_37" d="M581.431 128C583.507 127.74 585.146 123.562 586.547 122.3C588.23 120.785 589.455 119.076 591.031 117.5C591.651 116.88 595.993 113.162 595.831 113" stroke="#1E1E1E" stroke-width="4" stroke-linecap="round" stroke-linejoin="round"/>
</g>
</g>
<g id="row_9">
<g id="x_38">
<path id="frontslash_38" d="M551 143.238C551.26 145.315 555.438 146.953 556.7 148.355C558.215 150.038 559.924 151.262 561.5 152.838C562.12 153.458 565.838 157.8 566 157.638" stroke="#1E1E1E" stroke-width="4" stroke-linecap="round" stroke-linejoin="round"/>
<path id="backslash_38" d="M551.431 158C553.507 157.74 555.146 153.562 556.547 152.3C558.23 150.785 559.455 149.076 561.031 147.5C561.651 146.88 565.993 143.162 565.831 143" stroke="#1E1E1E" stroke-width="4" stroke-linecap="round" stroke-linejoin="round"/>
<path id="pivot_4" d="M551 163.209C551.287 163.177 551.697 162.897 551.967 162.77C552.418 162.556 552.982 162.484 553.461 162.33C555.003 161.836 556.928 161.996 558.51 162.174C560.176 162.361 561.956 162.564 563.569 163.033C564.995 163.448 566.343 163.134 567.7 162.682" stroke="#FF7E7E" stroke-width="3" stroke-linecap="round"/>
</g>
<g id="x_39">
<path id="frontslash_39" d="M581 143.238C581.26 145.315 585.438 146.953 586.7 148.355C588.215 150.038 589.924 151.262 591.5 152.838C592.12 153.458 595.838 157.8 596 157.638" stroke="#1E1E1E" stroke-width="4" stroke-linecap="round" stroke-linejoin="round"/>
<path id="backslash_39" d="M581.431 158C583.507 157.74 585.146 153.562 586.547 152.3C588.23 150.785 589.455 149.076 591.031 147.5C591.651 146.88 595.993 143.162 595.831 143" stroke="#1E1E1E" stroke-width="4" stroke-linecap="round" stroke-linejoin="round"/>
</g>
</g>
<g id="row_10">
<g id="x_40">
<path id="frontslash_40" d="M581 173.238C581.26 175.315 585.438 176.953 586.7 178.355C588.215 180.038 589.924 181.262 591.5 182.838C592.12 183.458 595.838 187.8 596 187.638" stroke="#1E1E1E" stroke-width="4" stroke-linecap="round" stroke-linejoin="round"/>
<path id="backslash_40" d="M581.431 188C583.507 187.74 585.146 183.562 586.547 182.3C588.23 180.785 589.455 179.076 591.031 177.5C591.651 176.88 595.993 173.162 595.831 173" stroke="#1E1E1E" stroke-width="4" stroke-linecap="round" stroke-linejoin="round"/>
<path id="pivot_5" d="M581 193.209C581.287 193.177 581.697 192.897 581.967 192.77C582.418 192.556 582.982 192.484 583.461 192.33C585.003 191.836 586.928 191.996 588.51 192.174C590.176 192.361 591.956 192.564 593.569 193.033C594.995 193.448 596.343 193.134 597.7 192.682" stroke="#FF7E7E" stroke-width="3" stroke-linecap="round"/>
</g>
</g>
</g>
<g id="matrix_3">
<g id="row_11">
<g id="x_41">
<path id="frontslash_41" d="M461 250.238C461.26 252.315 465.438 253.953 466.7 255.355C468.215 257.038 469.924 258.262 471.5 259.838C472.12 260.458 475.838 264.8 476 264.638" stroke="#1E1E1E" stroke-width="4" stroke-linecap="round" stroke-linejoin="round"/>
<path id="backslash_41" d="M461.431 265C463.507 264.74 465.146 260.562 466.547 259.3C468.23 257.785 469.455 256.076 471.031 254.5C471.651 253.88 475.993 250.162 475.831 250" stroke="#1E1E1E" stroke-width="4" stroke-linecap="round" stroke-linejoin="round"/>
<path id="pivot_6" d="M460.31 271.439C460.597 271.408 461.006 271.128 461.277 271C461.728 270.787 462.292 270.714 462.771 270.56C464.313 270.066 466.238 270.226 467.82 270.404C469.485 270.591 471.266 270.794 472.879 271.264C474.305 271.678 475.653 271.364 477.01 270.912" stroke="#FF7E7E" stroke-width="3" stroke-linecap="round"/>
</g>
<g id="x_42">
<path id="frontslash_42" d="M491 250.238C491.26 252.315 495.438 253.953 496.7 255.355C498.215 257.038 499.924 258.262 501.5 259.838C502.12 260.458 505.838 264.8 506 264.638" stroke="#1E1E1E" stroke-width="4" stroke-linecap="round" stroke-linejoin="round"/>
<path id="backslash_42" d="M491.431 265C493.507 264.74 495.146 260.562 496.547 259.3C498.23 257.785 499.455 256.076 501.031 254.5C501.651 253.88 505.993 250.162 505.831 250" stroke="#1E1E1E" stroke-width="4" stroke-linecap="round" stroke-linejoin="round"/>
</g>
<g id="x_43">
<path id="frontslash_43" d="M521 250.238C521.26 252.315 525.438 253.953 526.7 255.355C528.215 257.038 529.924 258.262 531.5 259.838C532.12 260.458 535.838 264.8 536 264.638" stroke="#1E1E1E" stroke-width="4" stroke-linecap="round" stroke-linejoin="round"/>
<path id="backslash_43" d="M521.431 265C523.507 264.74 525.146 260.562 526.547 259.3C528.23 257.785 529.455 256.076 531.031 254.5C531.651 253.88 535.993 250.162 535.831 250" stroke="#1E1E1E" stroke-width="4" stroke-linecap="round" stroke-linejoin="round"/>
</g>
<g id="x_44">
<path id="frontslash_44" d="M551 250.238C551.26 252.315 555.438 253.953 556.7 255.355C558.215 257.038 559.924 258.262 561.5 259.838C562.12 260.458 565.838 264.8 566 264.638" stroke="#1E1E1E" stroke-width="4" stroke-linecap="round" stroke-linejoin="round"/>
<path id="backslash_44" d="M551.431 265C553.507 264.74 555.146 260.562 556.547 259.3C558.23 257.785 559.455 256.076 561.031 254.5C561.651 253.88 565.993 250.162 565.831 250" stroke="#1E1E1E" stroke-width="4" stroke-linecap="round" stroke-linejoin="round"/>
</g>
<g id="x_45">
<path id="frontslash_45" d="M581 250.238C581.26 252.315 585.438 253.953 586.7 255.355C588.215 257.038 589.924 258.262 591.5 259.838C592.12 260.458 595.838 264.8 596 264.638" stroke="#1E1E1E" stroke-width="4" stroke-linecap="round" stroke-linejoin="round"/>
<path id="backslash_45" d="M581.431 265C583.507 264.74 585.146 260.562 586.547 259.3C588.23 257.785 589.455 256.076 591.031 254.5C591.651 253.88 595.993 250.162 595.831 250" stroke="#1E1E1E" stroke-width="4" stroke-linecap="round" stroke-linejoin="round"/>
</g>
</g>
<g id="row_12">
<g id="x_46">
<path id="frontslash_46" d="M491 280.238C491.26 282.315 495.438 283.953 496.7 285.355C498.215 287.038 499.924 288.262 501.5 289.838C502.12 290.458 505.838 294.8 506 294.638" stroke="#1E1E1E" stroke-width="4" stroke-linecap="round" stroke-linejoin="round"/>
<path id="backslash_46" d="M491.431 295C493.507 294.74 495.146 290.562 496.547 289.3C498.23 287.785 499.455 286.076 501.031 284.5C501.651 283.88 505.993 280.162 505.831 280" stroke="#1E1E1E" stroke-width="4" stroke-linecap="round" stroke-linejoin="round"/>
<path id="pivot_7" d="M491 300.209C491.287 300.177 491.697 299.897 491.967 299.77C492.418 299.556 492.982 299.484 493.461 299.33C495.003 298.836 496.928 298.996 498.51 299.174C500.176 299.361 501.956 299.564 503.569 300.033C504.995 300.448 506.343 300.134 507.7 299.682" stroke="#FF7E7E" stroke-width="3" stroke-linecap="round"/>
</g>
<g id="x_47">
<path id="frontslash_47" d="M521 280.238C521.26 282.315 525.438 283.953 526.7 285.355C528.215 287.038 529.924 288.262 531.5 289.838C532.12 290.458 535.838 294.8 536 294.638" stroke="#1E1E1E" stroke-width="4" stroke-linecap="round" stroke-linejoin="round"/>
<path id="backslash_47" d="M521.431 295C523.507 294.74 525.146 290.562 526.547 289.3C528.23 287.785 529.455 286.076 531.031 284.5C531.651 283.88 535.993 280.162 535.831 280" stroke="#1E1E1E" stroke-width="4" stroke-linecap="round" stroke-linejoin="round"/>
</g>
<g id="x_48">
<path id="frontslash_48" d="M551 280.238C551.26 282.315 555.438 283.953 556.7 285.355C558.215 287.038 559.924 288.262 561.5 289.838C562.12 290.458 565.838 294.8 566 294.638" stroke="#1E1E1E" stroke-width="4" stroke-linecap="round" stroke-linejoin="round"/>
<path id="backslash_48" d="M551.431 295C553.507 294.74 555.146 290.562 556.547 289.3C558.23 287.785 559.455 286.076 561.031 284.5C561.651 283.88 565.993 280.162 565.831 280" stroke="#1E1E1E" stroke-width="4" stroke-linecap="round" stroke-linejoin="round"/>
</g>
<g id="x_49">
<path id="frontslash_49" d="M581 280.238C581.26 282.315 585.438 283.953 586.7 285.355C588.215 287.038 589.924 288.262 591.5 289.838C592.12 290.458 595.838 294.8 596 294.638" stroke="#1E1E1E" stroke-width="4" stroke-linecap="round" stroke-linejoin="round"/>
<path id="backslash_49" d="M581.431 295C583.507 294.74 585.146 290.562 586.547 289.3C588.23 287.785 589.455 286.076 591.031 284.5C591.651 283.88 595.993 280.162 595.831 280" stroke="#1E1E1E" stroke-width="4" stroke-linecap="round" stroke-linejoin="round"/>
</g>
</g>
<g id="row_13">
<g id="x_50">
<path id="pivot_8" d="M521 330.209C521.287 330.177 521.697 329.897 521.967 329.77C522.418 329.556 522.982 329.484 523.461 329.33C525.003 328.836 526.928 328.996 528.51 329.174C530.176 329.361 531.956 329.564 533.569 330.033C534.995 330.448 536.343 330.134 537.7 329.682" stroke="#FF7E7E" stroke-width="3" stroke-linecap="round"/>
</g>
<g id="x_51">
<path id="frontslash_50" d="M551 310.238C551.26 312.315 555.438 313.953 556.7 315.355C558.215 317.038 559.924 318.262 561.5 319.838C562.12 320.458 565.838 324.8 566 324.638" stroke="#1E1E1E" stroke-width="4" stroke-linecap="round" stroke-linejoin="round"/>
<path id="backslash_50" d="M551.431 325C553.507 324.74 555.146 320.562 556.547 319.3C558.23 317.785 559.455 316.076 561.031 314.5C561.651 313.88 565.993 310.162 565.831 310" stroke="#1E1E1E" stroke-width="4" stroke-linecap="round" stroke-linejoin="round"/>
</g>
<g id="x_52">
<path id="frontslash_51" d="M581 310.238C581.26 312.315 585.438 313.953 586.7 315.355C588.215 317.038 589.924 318.262 591.5 319.838C592.12 320.458 595.838 324.8 596 324.638" stroke="#1E1E1E" stroke-width="4" stroke-linecap="round" stroke-linejoin="round"/>
<path id="backslash_51" d="M581.431 325C583.507 324.74 585.146 320.562 586.547 319.3C588.23 317.785 589.455 316.076 591.031 314.5C591.651 313.88 595.993 310.162 595.831 310" stroke="#1E1E1E" stroke-width="4" stroke-linecap="round" stroke-linejoin="round"/>
</g>
</g>
<g id="row_14">
<g id="x_53">
<path id="pivot_9" d="M551 360.209C551.287 360.177 551.697 359.897 551.967 359.77C552.418 359.556 552.982 359.484 553.461 359.33C555.003 358.836 556.928 358.996 558.51 359.174C560.176 359.361 561.956 359.564 563.569 360.033C564.995 360.448 566.343 360.134 567.7 359.682" stroke="#FF7E7E" stroke-width="3" stroke-linecap="round"/>
</g>
<g id="x_54">
<path id="frontslash_52" d="M581 340.238C581.26 342.315 585.438 343.953 586.7 345.355C588.215 347.038 589.924 348.262 591.5 349.838C592.12 350.458 595.838 354.8 596 354.638" stroke="#1E1E1E" stroke-width="4" stroke-linecap="round" stroke-linejoin="round"/>
<path id="backslash_52" d="M581.431 355C583.507 354.74 585.146 350.562 586.547 349.3C588.23 347.785 589.455 346.076 591.031 344.5C591.651 343.88 595.993 340.162 595.831 340" stroke="#1E1E1E" stroke-width="4" stroke-linecap="round" stroke-linejoin="round"/>
</g>
</g>
<g id="row_15">
<g id="x_55">
<path id="pivot_10" d="M581 390.209C581.287 390.177 581.697 389.897 581.967 389.77C582.418 389.556 582.982 389.484 583.461 389.33C585.003 388.836 586.928 388.996 588.51 389.174C590.176 389.361 591.956 389.564 593.569 390.033C594.995 390.448 596.343 390.134 597.7 389.682" stroke="#FF7E7E" stroke-width="3" stroke-linecap="round"/>
</g>
</g>
</g>
<path id="Arrow 1" d="M427.061 123.061C427.646 122.475 427.646 121.525 427.061 120.939L417.515 111.393C416.929 110.808 415.979 110.808 415.393 111.393C414.808 111.979 414.808 112.929 415.393 113.515L423.879 122L415.393 130.485C414.808 131.071 414.808 132.021 415.393 132.607C415.979 133.192 416.929 133.192 417.515 132.607L427.061 123.061ZM427.061 319.061C427.646 318.475 427.646 317.525 427.061 316.939L417.515 307.393C416.929 306.808 415.979 306.808 415.393 307.393C414.808 307.979 414.808 308.929 415.393 309.515L423.879 318L415.393 326.485C414.808 327.071 414.808 328.021 415.393 328.607C415.979 329.192 416.929 329.192 417.515 328.607L427.061 319.061ZM263.5 122V123.5L263.509 123.5L263.5 122ZM346.5 318V316.5H346.492L346.484 316.5L346.5 318ZM307.5 279H306V279.038L306.002 279.076L307.5 279ZM307.5 156L306 155.989V156H307.5ZM216 123.5L263.5 123.5V120.5L216 120.5V123.5ZM346.5 318C346.5 319.5 346.5 319.5 346.501 319.5C346.501 319.5 346.501 319.5 346.502 319.5C346.503 319.5 346.504 319.5 346.505 319.5C346.506 319.5 346.507 319.5 346.509 319.5C346.51 319.5 346.512 319.5 346.514 319.5C346.516 319.5 346.518 319.5 346.52 319.5C346.522 319.5 346.524 319.5 346.527 319.5C346.53 319.5 346.532 319.5 346.535 319.5C346.538 319.5 346.541 319.5 346.545 319.5C346.548 319.5 346.551 319.5 346.555 319.5C346.559 319.5 346.562 319.5 346.566 319.5C346.57 319.5 346.575 319.5 346.579 319.5C346.583 319.5 346.588 319.5 346.593 319.5C346.597 319.5 346.602 319.5 346.607 319.5C346.612 319.5 346.618 319.5 346.623 319.5C346.629 319.5 346.634 319.5 346.64 319.5C346.646 319.5 346.652 319.5 346.658 319.5C346.664 319.5 346.67 319.5 346.677 319.5C346.683 319.5 346.69 319.5 346.697 319.5C346.704 319.5 346.711 319.5 346.718 319.5C346.725 319.5 346.732 319.5 346.74 319.5C346.748 319.5 346.755 319.5 346.763 319.5C346.771 319.5 346.779 319.5 346.787 319.5C346.796 319.5 346.804 319.5 346.813 319.5C346.821 319.5 346.83 319.5 346.839 319.5C346.848 319.5 346.857 319.5 346.866 319.5C346.876 319.5 346.885 319.5 346.895 319.5C346.904 319.5 346.914 319.5 346.924 319.5C346.934 319.5 346.944 319.5 346.954 319.5C346.965 319.5 346.975 319.5 346.986 319.5C346.996 319.5 347.007 319.5 347.018 319.5C347.029 319.5 347.04 319.5 347.052 319.5C347.063 319.5 347.075 319.5 347.086 319.5C347.098 319.5 347.11 319.5 347.122 319.5C347.134 319.5 347.146 319.5 347.158 319.5C347.171 319.5 347.183 319.5 347.196 319.5C347.208 319.5 347.221 319.5 347.234 319.5C347.247 319.5 347.26 319.5 347.274 319.5C347.287 319.5 347.301 319.5 347.314 319.5C347.328 319.5 347.342 319.5 347.356 319.5C347.37 319.5 347.384 319.5 347.398 319.5C347.413 319.5 347.427 319.5 347.442 319.5C347.456 319.5 347.471 319.5 347.486 319.5C347.501 319.5 347.516 319.5 347.532 319.5C347.547 319.5 347.563 319.5 347.578 319.5C347.594 319.5 347.61 319.5 347.626 319.5C347.642 319.5 347.658 319.5 347.674 319.5C347.69 319.5 347.707 319.5 347.723 319.5C347.74 319.5 347.757 319.5 347.774 319.5C347.791 319.5 347.808 319.5 347.825 319.5C347.842 319.5 347.86 319.5 347.877 319.5C347.895 319.5 347.912 319.5 347.93 319.5C347.948 319.5 347.966 319.5 347.985 319.5C348.003 319.5 348.021 319.5 348.04 319.5C348.058 319.5 348.077 319.5 348.096 319.5C348.115 319.5 348.134 319.5 348.153 319.5C348.172 319.5 348.191 319.5 348.211 319.5C348.23 319.5 348.25 319.5 348.27 319.5C348.289 319.5 348.309 319.5 348.329 319.5C348.35 319.5 348.37 319.5 348.39 319.5C348.411 319.5 348.431 319.5 348.452 319.5C348.473 319.5 348.494 319.5 348.515 319.5C348.536 319.5 348.557 319.5 348.578 319.5C348.599 319.5 348.621 319.5 348.643 319.5C348.664 319.5 348.686 319.5 348.708 319.5C348.73 319.5 348.752 319.5 348.774 319.5C348.797 319.5 348.819 319.5 348.842 319.5C348.864 319.5 348.887 319.5 348.91 319.5C348.933 319.5 348.956 319.5 348.979 319.5C349.002 319.5 349.025 319.5 349.049 319.5C349.072 319.5 349.096 319.5 349.12 319.5C349.143 319.5 349.167 319.5 349.191 319.5C349.215 319.5 349.24 319.5 349.264 319.5C349.288 319.5 349.313 319.5 349.338 319.5C349.362 319.5 349.387 319.5 349.412 319.5C349.437 319.5 349.462 319.5 349.487 319.5C349.513 319.5 349.538 319.5 349.564 319.5C349.589 319.5 349.615 319.5 349.641 319.5C349.667 319.5 349.693 319.5 349.719 319.5C349.745 319.5 349.771 319.5 349.798 319.5C349.824 319.5 349.851 319.5 349.877 319.5C349.904 319.5 349.931 319.5 349.958 319.5C349.985 319.5 350.012 319.5 350.039 319.5C350.067 319.5 350.094 319.5 350.122 319.5C350.149 319.5 350.177 319.5 350.205 319.5C350.233 319.5 350.261 319.5 350.289 319.5C350.317 319.5 350.345 319.5 350.374 319.5C350.402 319.5 350.431 319.5 350.46 319.5C350.488 319.5 350.517 319.5 350.546 319.5C350.575 319.5 350.604 319.5 350.634 319.5C350.663 319.5 350.692 319.5 350.722 319.5C350.752 319.5 350.781 319.5 350.811 319.5C350.841 319.5 350.871 319.5 350.901 319.5C350.931 319.5 350.962 319.5 350.992 319.5C351.022 319.5 351.053 319.5 351.084 319.5C351.114 319.5 351.145 319.5 351.176 319.5C351.207 319.5 351.238 319.5 351.269 319.5C351.301 319.5 351.332 319.5 351.364 319.5C351.395 319.5 351.427 319.5 351.459 319.5C351.49 319.5 351.522 319.5 351.554 319.5C351.586 319.5 351.619 319.5 351.651 319.5C351.683 319.5 351.716 319.5 351.748 319.5C351.781 319.5 351.814 319.5 351.847 319.5C351.879 319.5 351.912 319.5 351.946 319.5C351.979 319.5 352.012 319.5 352.045 319.5C352.079 319.5 352.112 319.5 352.146 319.5C352.18 319.5 352.213 319.5 352.247 319.5C352.281 319.5 352.315 319.5 352.35 319.5C352.384 319.5 352.418 319.5 352.453 319.5C352.487 319.5 352.522 319.5 352.556 319.5C352.591 319.5 352.626 319.5 352.661 319.5C352.696 319.5 352.731 319.5 352.766 319.5C352.802 319.5 352.837 319.5 352.872 319.5C352.908 319.5 352.944 319.5 352.979 319.5C353.015 319.5 353.051 319.5 353.087 319.5C353.123 319.5 353.159 319.5 353.195 319.5C353.232 319.5 353.268 319.5 353.305 319.5C353.341 319.5 353.378 319.5 353.415 319.5C353.451 319.5 353.488 319.5 353.525 319.5C353.562 319.5 353.6 319.5 353.637 319.5C353.674 319.5 353.712 319.5 353.749 319.5C353.787 319.5 353.824 319.5 353.862 319.5C353.9 319.5 353.938 319.5 353.976 319.5C354.014 319.5 354.052 319.5 354.09 319.5C354.129 319.5 354.167 319.5 354.206 319.5C354.244 319.5 354.283 319.5 354.322 319.5C354.361 319.5 354.399 319.5 354.438 319.5C354.478 319.5 354.517 319.5 354.556 319.5C354.595 319.5 354.635 319.5 354.674 319.5C354.714 319.5 354.753 319.5 354.793 319.5C354.833 319.5 354.873 319.5 354.913 319.5C354.953 319.5 354.993 319.5 355.033 319.5C355.073 319.5 355.114 319.5 355.154 319.5C355.195 319.5 355.235 319.5 355.276 319.5C355.317 319.5 355.358 319.5 355.399 319.5C355.44 319.5 355.481 319.5 355.522 319.5C355.563 319.5 355.604 319.5 355.646 319.5C355.687 319.5 355.729 319.5 355.77 319.5C355.812 319.5 355.854 319.5 355.896 319.5C355.938 319.5 355.98 319.5 356.022 319.5C356.064 319.5 356.106 319.5 356.149 319.5C356.191 319.5 356.233 319.5 356.276 319.5C356.319 319.5 356.361 319.5 356.404 319.5C356.447 319.5 356.49 319.5 356.533 319.5C356.576 319.5 356.619 319.5 356.663 319.5C356.706 319.5 356.749 319.5 356.793 319.5C356.836 319.5 356.88 319.5 356.924 319.5C356.967 319.5 357.011 319.5 357.055 319.5C357.099 319.5 357.143 319.5 357.187 319.5C357.232 319.5 357.276 319.5 357.32 319.5C357.365 319.5 357.409 319.5 357.454 319.5C357.498 319.5 357.543 319.5 357.588 319.5C357.633 319.5 357.678 319.5 357.723 319.5C357.768 319.5 357.813 319.5 357.858 319.5C357.904 319.5 357.949 319.5 357.995 319.5C358.04 319.5 358.086 319.5 358.132 319.5C358.177 319.5 358.223 319.5 358.269 319.5C358.315 319.5 358.361 319.5 358.407 319.5C358.453 319.5 358.5 319.5 358.546 319.5C358.592 319.5 358.639 319.5 358.685 319.5C358.732 319.5 358.779 319.5 358.825 319.5C358.872 319.5 358.919 319.5 358.966 319.5C359.013 319.5 359.06 319.5 359.108 319.5C359.155 319.5 359.202 319.5 359.25 319.5C359.297 319.5 359.344 319.5 359.392 319.5C359.44 319.5 359.487 319.5 359.535 319.5C359.583 319.5 359.631 319.5 359.679 319.5C359.727 319.5 359.775 319.5 359.824 319.5C359.872 319.5 359.92 319.5 359.969 319.5C360.017 319.5 360.066 319.5 360.114 319.5C360.163 319.5 360.212 319.5 360.261 319.5C360.31 319.5 360.359 319.5 360.408 319.5C360.457 319.5 360.506 319.5 360.555 319.5C360.604 319.5 360.654 319.5 360.703 319.5C360.753 319.5 360.802 319.5 360.852 319.5C360.902 319.5 360.951 319.5 361.001 319.5C361.051 319.5 361.101 319.5 361.151 319.5C361.201 319.5 361.251 319.5 361.302 319.5C361.352 319.5 361.402 319.5 361.453 319.5C361.503 319.5 361.554 319.5 361.604 319.5C361.655 319.5 361.706 319.5 361.756 319.5C361.807 319.5 361.858 319.5 361.909 319.5C361.96 319.5 362.011 319.5 362.063 319.5C362.114 319.5 362.165 319.5 362.217 319.5C362.268 319.5 362.319 319.5 362.371 319.5C362.423 319.5 362.474 319.5 362.526 319.5C362.578 319.5 362.63 319.5 362.682 319.5C362.734 319.5 362.786 319.5 362.838 319.5C362.89 319.5 362.942 319.5 362.995 319.5C363.047 319.5 363.099 319.5 363.152 319.5C363.204 319.5 363.257 319.5 363.31 319.5C363.362 319.5 363.415 319.5 363.468 319.5C363.521 319.5 363.574 319.5 363.627 319.5C363.68 319.5 363.733 319.5 363.787 319.5C363.84 319.5 363.893 319.5 363.947 319.5C364 319.5 364.054 319.5 364.107 319.5C364.161 319.5 364.214 319.5 364.268 319.5C364.322 319.5 364.376 319.5 364.43 319.5C364.484 319.5 364.538 319.5 364.592 319.5C364.646 319.5 364.7 319.5 364.755 319.5C364.809 319.5 364.863 319.5 364.918 319.5C364.972 319.5 365.027 319.5 365.081 319.5C365.136 319.5 365.191 319.5 365.246 319.5C365.301 319.5 365.355 319.5 365.41 319.5C365.465 319.5 365.52 319.5 365.576 319.5C365.631 319.5 365.686 319.5 365.741 319.5C365.797 319.5 365.852 319.5 365.908 319.5C365.963 319.5 366.019 319.5 366.074 319.5C366.13 319.5 366.186 319.5 366.242 319.5C366.297 319.5 366.353 319.5 366.409 319.5C366.465 319.5 366.521 319.5 366.578 319.5C366.634 319.5 366.69 319.5 366.746 319.5C366.803 319.5 366.859 319.5 366.915 319.5C366.972 319.5 367.028 319.5 367.085 319.5C367.142 319.5 367.198 319.5 367.255 319.5C367.312 319.5 367.369 319.5 367.426 319.5C367.483 319.5 367.54 319.5 367.597 319.5C367.654 319.5 367.711 319.5 367.769 319.5C367.826 319.5 367.883 319.5 367.941 319.5C367.998 319.5 368.056 319.5 368.113 319.5C368.171 319.5 368.228 319.5 368.286 319.5C368.344 319.5 368.402 319.5 368.459 319.5C368.517 319.5 368.575 319.5 368.633 319.5C368.691 319.5 368.749 319.5 368.808 319.5C368.866 319.5 368.924 319.5 368.982 319.5C369.041 319.5 369.099 319.5 369.158 319.5C369.216 319.5 369.275 319.5 369.333 319.5C369.392 319.5 369.451 319.5 369.509 319.5C369.568 319.5 369.627 319.5 369.686 319.5C369.745 319.5 369.804 319.5 369.863 319.5C369.922 319.5 369.981 319.5 370.04 319.5C370.1 319.5 370.159 319.5 370.218 319.5C370.278 319.5 370.337 319.5 370.397 319.5C370.456 319.5 370.516 319.5 370.575 319.5C370.635 319.5 370.695 319.5 370.754 319.5C370.814 319.5 370.874 319.5 370.934 319.5C370.994 319.5 371.054 319.5 371.114 319.5C371.174 319.5 371.234 319.5 371.294 319.5C371.354 319.5 371.415 319.5 371.475 319.5C371.535 319.5 371.596 319.5 371.656 319.5C371.717 319.5 371.777 319.5 371.838 319.5C371.898 319.5 371.959 319.5 372.02 319.5C372.08 319.5 372.141 319.5 372.202 319.5C372.263 319.5 372.324 319.5 372.385 319.5C372.446 319.5 372.507 319.5 372.568 319.5C372.629 319.5 372.69 319.5 372.751 319.5C372.813 319.5 372.874 319.5 372.935 319.5C372.997 319.5 373.058 319.5 373.12 319.5C373.181 319.5 373.243 319.5 373.304 319.5C373.366 319.5 373.428 319.5 373.489 319.5C373.551 319.5 373.613 319.5 373.675 319.5C373.737 319.5 373.799 319.5 373.861 319.5C373.923 319.5 373.985 319.5 374.047 319.5C374.109 319.5 374.171 319.5 374.233 319.5C374.296 319.5 374.358 319.5 374.42 319.5C374.483 319.5 374.545 319.5 374.607 319.5C374.67 319.5 374.733 319.5 374.795 319.5C374.858 319.5 374.92 319.5 374.983 319.5C375.046 319.5 375.109 319.5 375.171 319.5C375.234 319.5 375.297 319.5 375.36 319.5C375.423 319.5 375.486 319.5 375.549 319.5C375.612 319.5 375.675 319.5 375.738 319.5C375.802 319.5 375.865 319.5 375.928 319.5C375.991 319.5 376.055 319.5 376.118 319.5C376.181 319.5 376.245 319.5 376.308 319.5C376.372 319.5 376.435 319.5 376.499 319.5C376.563 319.5 376.626 319.5 376.69 319.5C376.754 319.5 376.818 319.5 376.881 319.5C376.945 319.5 377.009 319.5 377.073 319.5C377.137 319.5 377.201 319.5 377.265 319.5C377.329 319.5 377.393 319.5 377.457 319.5C377.521 319.5 377.586 319.5 377.65 319.5C377.714 319.5 377.778 319.5 377.843 319.5C377.907 319.5 377.972 319.5 378.036 319.5C378.1 319.5 378.165 319.5 378.229 319.5C378.294 319.5 378.359 319.5 378.423 319.5C378.488 319.5 378.553 319.5 378.617 319.5C378.682 319.5 378.747 319.5 378.812 319.5C378.877 319.5 378.941 319.5 379.006 319.5C379.071 319.5 379.136 319.5 379.201 319.5C379.266 319.5 379.332 319.5 379.397 319.5C379.462 319.5 379.527 319.5 379.592 319.5C379.657 319.5 379.723 319.5 379.788 319.5C379.853 319.5 379.919 319.5 379.984 319.5C380.049 319.5 380.115 319.5 380.18 319.5C380.246 319.5 380.311 319.5 380.377 319.5C380.443 319.5 380.508 319.5 380.574 319.5C380.64 319.5 380.705 319.5 380.771 319.5C380.837 319.5 380.903 319.5 380.969 319.5C381.034 319.5 381.1 319.5 381.166 319.5C381.232 319.5 381.298 319.5 381.364 319.5C381.43 319.5 381.496 319.5 381.562 319.5C381.628 319.5 381.695 319.5 381.761 319.5C381.827 319.5 381.893 319.5 381.959 319.5C382.026 319.5 382.092 319.5 382.158 319.5C382.225 319.5 382.291 319.5 382.358 319.5C382.424 319.5 382.49 319.5 382.557 319.5C382.624 319.5 382.69 319.5 382.757 319.5C382.823 319.5 382.89 319.5 382.957 319.5C383.023 319.5 383.09 319.5 383.157 319.5C383.223 319.5 383.29 319.5 383.357 319.5C383.424 319.5 383.491 319.5 383.557 319.5C383.624 319.5 383.691 319.5 383.758 319.5C383.825 319.5 383.892 319.5 383.959 319.5C384.026 319.5 384.093 319.5 384.16 319.5C384.228 319.5 384.295 319.5 384.362 319.5C384.429 319.5 384.496 319.5 384.563 319.5C384.631 319.5 384.698 319.5 384.765 319.5C384.833 319.5 384.9 319.5 384.967 319.5C385.035 319.5 385.102 319.5 385.17 319.5C385.237 319.5 385.304 319.5 385.372 319.5C385.439 319.5 385.507 319.5 385.575 319.5C385.642 319.5 385.71 319.5 385.777 319.5C385.845 319.5 385.913 319.5 385.98 319.5C386.048 319.5 386.116 319.5 386.184 319.5C386.251 319.5 386.319 319.5 386.387 319.5C386.455 319.5 386.523 319.5 386.59 319.5C386.658 319.5 386.726 319.5 386.794 319.5C386.862 319.5 386.93 319.5 386.998 319.5C387.066 319.5 387.134 319.5 387.202 319.5C387.27 319.5 387.338 319.5 387.406 319.5C387.474 319.5 387.543 319.5 387.611 319.5C387.679 319.5 387.747 319.5 387.815 319.5C387.884 319.5 387.952 319.5 388.02 319.5C388.088 319.5 388.157 319.5 388.225 319.5C388.293 319.5 388.362 319.5 388.43 319.5C388.498 319.5 388.567 319.5 388.635 319.5C388.703 319.5 388.772 319.5 388.84 319.5C388.909 319.5 388.977 319.5 389.046 319.5C389.114 319.5 389.183 319.5 389.251 319.5C389.32 319.5 389.389 319.5 389.457 319.5C389.526 319.5 389.594 319.5 389.663 319.5C389.732 319.5 389.8 319.5 389.869 319.5C389.938 319.5 390.006 319.5 390.075 319.5C390.144 319.5 390.213 319.5 390.281 319.5C390.35 319.5 390.419 319.5 390.488 319.5C390.557 319.5 390.625 319.5 390.694 319.5C390.763 319.5 390.832 319.5 390.901 319.5C390.97 319.5 391.039 319.5 391.108 319.5C391.177 319.5 391.245 319.5 391.314 319.5C391.383 319.5 391.452 319.5 391.521 319.5C391.59 319.5 391.659 319.5 391.728 319.5C391.797 319.5 391.866 319.5 391.936 319.5C392.005 319.5 392.074 319.5 392.143 319.5C392.212 319.5 392.281 319.5 392.35 319.5C392.419 319.5 392.488 319.5 392.558 319.5C392.627 319.5 392.696 319.5 392.765 319.5C392.834 319.5 392.904 319.5 392.973 319.5C393.042 319.5 393.111 319.5 393.18 319.5C393.25 319.5 393.319 319.5 393.388 319.5C393.457 319.5 393.527 319.5 393.596 319.5C393.665 319.5 393.735 319.5 393.804 319.5C393.873 319.5 393.943 319.5 394.012 319.5C394.081 319.5 394.151 319.5 394.22 319.5C394.289 319.5 394.359 319.5 394.428 319.5C394.498 319.5 394.567 319.5 394.636 319.5C394.706 319.5 394.775 319.5 394.845 319.5C394.914 319.5 394.984 319.5 395.053 319.5C395.123 319.5 395.192 319.5 395.261 319.5C395.331 319.5 395.4 319.5 395.47 319.5C395.539 319.5 395.609 319.5 395.678 319.5C395.748 319.5 395.817 319.5 395.887 319.5C395.956 319.5 396.026 319.5 396.095 319.5C396.165 319.5 396.235 319.5 396.304 319.5C396.374 319.5 396.443 319.5 396.513 319.5C396.582 319.5 396.652 319.5 396.721 319.5C396.791 319.5 396.861 319.5 396.93 319.5C397 319.5 397.069 319.5 397.139 319.5C397.208 319.5 397.278 319.5 397.348 319.5C397.417 319.5 397.487 319.5 397.556 319.5C397.626 319.5 397.696 319.5 397.765 319.5C397.835 319.5 397.904 319.5 397.974 319.5C398.044 319.5 398.113 319.5 398.183 319.5C398.253 319.5 398.322 319.5 398.392 319.5C398.461 319.5 398.531 319.5 398.601 319.5C398.67 319.5 398.74 319.5 398.81 319.5C398.879 319.5 398.949 319.5 399.018 319.5C399.088 319.5 399.158 319.5 399.227 319.5C399.297 319.5 399.367 319.5 399.436 319.5C399.506 319.5 399.575 319.5 399.645 319.5C399.715 319.5 399.784 319.5 399.854 319.5C399.923 319.5 399.993 319.5 400.063 319.5C400.132 319.5 400.202 319.5 400.272 319.5C400.341 319.5 400.411 319.5 400.48 319.5C400.55 319.5 400.619 319.5 400.689 319.5C400.759 319.5 400.828 319.5 400.898 319.5C400.967 319.5 401.037 319.5 401.107 319.5C401.176 319.5 401.246 319.5 401.315 319.5C401.385 319.5 401.454 319.5 401.524 319.5C401.593 319.5 401.663 319.5 401.733 319.5C401.802 319.5 401.872 319.5 401.941 319.5C402.011 319.5 402.08 319.5 402.15 319.5C402.219 319.5 402.289 319.5 402.358 319.5C402.428 319.5 402.497 319.5 402.567 319.5C402.636 319.5 402.706 319.5 402.775 319.5C402.845 319.5 402.914 319.5 402.983 319.5C403.053 319.5 403.122 319.5 403.192 319.5C403.261 319.5 403.331 319.5 403.4 319.5C403.469 319.5 403.539 319.5 403.608 319.5C403.677 319.5 403.747 319.5 403.816 319.5C403.886 319.5 403.955 319.5 404.024 319.5C404.094 319.5 404.163 319.5 404.232 319.5C404.302 319.5 404.371 319.5 404.44 319.5C404.509 319.5 404.579 319.5 404.648 319.5C404.717 319.5 404.786 319.5 404.856 319.5C404.925 319.5 404.994 319.5 405.063 319.5C405.132 319.5 405.202 319.5 405.271 319.5C405.34 319.5 405.409 319.5 405.478 319.5C405.547 319.5 405.617 319.5 405.686 319.5C405.755 319.5 405.824 319.5 405.893 319.5C405.962 319.5 406.031 319.5 406.1 319.5C406.169 319.5 406.238 319.5 406.307 319.5C406.376 319.5 406.445 319.5 406.514 319.5C406.583 319.5 406.652 319.5 406.721 319.5C406.79 319.5 406.859 319.5 406.928 319.5C406.997 319.5 407.066 319.5 407.135 319.5C407.203 319.5 407.272 319.5 407.341 319.5C407.41 319.5 407.479 319.5 407.547 319.5C407.616 319.5 407.685 319.5 407.754 319.5C407.823 319.5 407.891 319.5 407.96 319.5C408.029 319.5 408.097 319.5 408.166 319.5C408.235 319.5 408.303 319.5 408.372 319.5C408.441 319.5 408.509 319.5 408.578 319.5C408.646 319.5 408.715 319.5 408.783 319.5C408.852 319.5 408.92 319.5 408.989 319.5C409.057 319.5 409.126 319.5 409.194 319.5C409.263 319.5 409.331 319.5 409.399 319.5C409.468 319.5 409.536 319.5 409.604 319.5C409.673 319.5 409.741 319.5 409.809 319.5C409.878 319.5 409.946 319.5 410.014 319.5C410.082 319.5 410.151 319.5 410.219 319.5C410.287 319.5 410.355 319.5 410.423 319.5C410.491 319.5 410.559 319.5 410.627 319.5C410.696 319.5 410.764 319.5 410.832 319.5C410.9 319.5 410.968 319.5 411.036 319.5C411.104 319.5 411.171 319.5 411.239 319.5C411.307 319.5 411.375 319.5 411.443 319.5C411.511 319.5 411.579 319.5 411.646 319.5C411.714 319.5 411.782 319.5 411.85 319.5C411.917 319.5 411.985 319.5 412.053 319.5C412.12 319.5 412.188 319.5 412.256 319.5C412.323 319.5 412.391 319.5 412.458 319.5C412.526 319.5 412.593 319.5 412.661 319.5C412.728 319.5 412.796 319.5 412.863 319.5C412.93 319.5 412.998 319.5 413.065 319.5C413.132 319.5 413.2 319.5 413.267 319.5C413.334 319.5 413.402 319.5 413.469 319.5C413.536 319.5 413.603 319.5 413.67 319.5C413.737 319.5 413.804 319.5 413.871 319.5C413.939 319.5 414.006 319.5 414.073 319.5C414.14 319.5 414.206 319.5 414.273 319.5C414.34 319.5 414.407 319.5 414.474 319.5C414.541 319.5 414.608 319.5 414.674 319.5C414.741 319.5 414.808 319.5 414.875 319.5C414.941 319.5 415.008 319.5 415.075 319.5C415.141 319.5 415.208 319.5 415.274 319.5C415.341 319.5 415.407 319.5 415.474 319.5C415.54 319.5 415.607 319.5 415.673 319.5C415.739 319.5 415.806 319.5 415.872 319.5C415.938 319.5 416.005 319.5 416.071 319.5C416.137 319.5 416.203 319.5 416.269 319.5C416.335 319.5 416.402 319.5 416.468 319.5C416.534 319.5 416.6 319.5 416.666 319.5C416.732 319.5 416.798 319.5 416.863 319.5C416.929 319.5 416.995 319.5 417.061 319.5C417.127 319.5 417.192 319.5 417.258 319.5C417.324 319.5 417.39 319.5 417.455 319.5C417.521 319.5 417.586 319.5 417.652 319.5C417.717 319.5 417.783 319.5 417.848 319.5C417.914 319.5 417.979 319.5 418.045 319.5C418.11 319.5 418.175 319.5 418.24 319.5C418.306 319.5 418.371 319.5 418.436 319.5C418.501 319.5 418.566 319.5 418.631 319.5C418.697 319.5 418.762 319.5 418.827 319.5C418.892 319.5 418.956 319.5 419.021 319.5C419.086 319.5 419.151 319.5 419.216 319.5C419.281 319.5 419.345 319.5 419.41 319.5C419.475 319.5 419.539 319.5 419.604 319.5C419.669 319.5 419.733 319.5 419.798 319.5C419.862 319.5 419.926 319.5 419.991 319.5C420.055 319.5 420.12 319.5 420.184 319.5C420.248 319.5 420.312 319.5 420.377 319.5C420.441 319.5 420.505 319.5 420.569 319.5C420.633 319.5 420.697 319.5 420.761 319.5C420.825 319.5 420.889 319.5 420.953 319.5C421.017 319.5 421.08 319.5 421.144 319.5C421.208 319.5 421.272 319.5 421.335 319.5C421.399 319.5 421.463 319.5 421.526 319.5C421.59 319.5 421.653 319.5 421.717 319.5C421.78 319.5 421.843 319.5 421.907 319.5C421.97 319.5 422.033 319.5 422.096 319.5C422.16 319.5 422.223 319.5 422.286 319.5C422.349 319.5 422.412 319.5 422.475 319.5C422.538 319.5 422.601 319.5 422.664 319.5C422.727 319.5 422.79 319.5 422.852 319.5C422.915 319.5 422.978 319.5 423.04 319.5C423.103 319.5 423.166 319.5 423.228 319.5C423.291 319.5 423.353 319.5 423.416 319.5C423.478 319.5 423.54 319.5 423.603 319.5C423.665 319.5 423.727 319.5 423.789 319.5C423.851 319.5 423.913 319.5 423.975 319.5C424.038 319.5 424.1 319.5 424.161 319.5C424.223 319.5 424.285 319.5 424.347 319.5C424.409 319.5 424.471 319.5 424.532 319.5C424.594 319.5 424.655 319.5 424.717 319.5C424.779 319.5 424.84 319.5 424.901 319.5C424.963 319.5 425.024 319.5 425.086 319.5C425.147 319.5 425.208 319.5 425.269 319.5C425.33 319.5 425.391 319.5 425.452 319.5C425.514 319.5 425.574 319.5 425.635 319.5C425.696 319.5 425.757 319.5 425.818 319.5C425.879 319.5 425.939 319.5 426 319.5V316.5C425.939 316.5 425.879 316.5 425.818 316.5C425.757 316.5 425.696 316.5 425.635 316.5C425.574 316.5 425.514 316.5 425.452 316.5C425.391 316.5 425.33 316.5 425.269 316.5C425.208 316.5 425.147 316.5 425.086 316.5C425.024 316.5 424.963 316.5 424.901 316.5C424.84 316.5 424.779 316.5 424.717 316.5C424.655 316.5 424.594 316.5 424.532 316.5C424.471 316.5 424.409 316.5 424.347 316.5C424.285 316.5 424.223 316.5 424.161 316.5C424.1 316.5 424.038 316.5 423.975 316.5C423.913 316.5 423.851 316.5 423.789 316.5C423.727 316.5 423.665 316.5 423.603 316.5C423.54 316.5 423.478 316.5 423.416 316.5C423.353 316.5 423.291 316.5 423.228 316.5C423.166 316.5 423.103 316.5 423.04 316.5C422.978 316.5 422.915 316.5 422.852 316.5C422.79 316.5 422.727 316.5 422.664 316.5C422.601 316.5 422.538 316.5 422.475 316.5C422.412 316.5 422.349 316.5 422.286 316.5C422.223 316.5 422.16 316.5 422.096 316.5C422.033 316.5 421.97 316.5 421.907 316.5C421.843 316.5 421.78 316.5 421.717 316.5C421.653 316.5 421.59 316.5 421.526 316.5C421.463 316.5 421.399 316.5 421.335 316.5C421.272 316.5 421.208 316.5 421.144 316.5C421.08 316.5 421.017 316.5 420.953 316.5C420.889 316.5 420.825 316.5 420.761 316.5C420.697 316.5 420.633 316.5 420.569 316.5C420.505 316.5 420.441 316.5 420.377 316.5C420.312 316.5 420.248 316.5 420.184 316.5C420.12 316.5 420.055 316.5 419.991 316.5C419.926 316.5 419.862 316.5 419.798 316.5C419.733 316.5 419.669 316.5 419.604 316.5C419.539 316.5 419.475 316.5 419.41 316.5C419.345 316.5 419.281 316.5 419.216 316.5C419.151 316.5 419.086 316.5 419.021 316.5C418.956 316.5 418.892 316.5 418.827 316.5C418.762 316.5 418.697 316.5 418.631 316.5C418.566 316.5 418.501 316.5 418.436 316.5C418.371 316.5 418.306 316.5 418.24 316.5C418.175 316.5 418.11 316.5 418.045 316.5C417.979 316.5 417.914 316.5 417.848 316.5C417.783 316.5 417.717 316.5 417.652 316.5C417.586 316.5 417.521 316.5 417.455 316.5C417.39 316.5 417.324 316.5 417.258 316.5C417.192 316.5 417.127 316.5 417.061 316.5C416.995 316.5 416.929 316.5 416.863 316.5C416.798 316.5 416.732 316.5 416.666 316.5C416.6 316.5 416.534 316.5 416.468 316.5C416.402 316.5 416.335 316.5 416.269 316.5C416.203 316.5 416.137 316.5 416.071 316.5C416.005 316.5 415.938 316.5 415.872 316.5C415.806 316.5 415.739 316.5 415.673 316.5C415.607 316.5 415.54 316.5 415.474 316.5C415.407 316.5 415.341 316.5 415.274 316.5C415.208 316.5 415.141 316.5 415.075 316.5C415.008 316.5 414.941 316.5 414.875 316.5C414.808 316.5 414.741 316.5 414.674 316.5C414.608 316.5 414.541 316.5 414.474 316.5C414.407 316.5 414.34 316.5 414.273 316.5C414.206 316.5 414.14 316.5 414.073 316.5C414.006 316.5 413.939 316.5 413.871 316.5C413.804 316.5 413.737 316.5 413.67 316.5C413.603 316.5 413.536 316.5 413.469 316.5C413.402 316.5 413.334 316.5 413.267 316.5C413.2 316.5 413.132 316.5 413.065 316.5C412.998 316.5 412.93 316.5 412.863 316.5C412.796 316.5 412.728 316.5 412.661 316.5C412.593 316.5 412.526 316.5 412.458 316.5C412.391 316.5 412.323 316.5 412.256 316.5C412.188 316.5 412.12 316.5 412.053 316.5C411.985 316.5 411.917 316.5 411.85 316.5C411.782 316.5 411.714 316.5 411.646 316.5C411.579 316.5 411.511 316.5 411.443 316.5C411.375 316.5 411.307 316.5 411.239 316.5C411.171 316.5 411.104 316.5 411.036 316.5C410.968 316.5 410.9 316.5 410.832 316.5C410.764 316.5 410.696 316.5 410.627 316.5C410.559 316.5 410.491 316.5 410.423 316.5C410.355 316.5 410.287 316.5 410.219 316.5C410.151 316.5 410.082 316.5 410.014 316.5C409.946 316.5 409.878 316.5 409.809 316.5C409.741 316.5 409.673 316.5 409.604 316.5C409.536 316.5 409.468 316.5 409.399 316.5C409.331 316.5 409.263 316.5 409.194 316.5C409.126 316.5 409.057 316.5 408.989 316.5C408.92 316.5 408.852 316.5 408.783 316.5C408.715 316.5 408.646 316.5 408.578 316.5C408.509 316.5 408.441 316.5 408.372 316.5C408.303 316.5 408.235 316.5 408.166 316.5C408.097 316.5 408.029 316.5 407.96 316.5C407.891 316.5 407.823 316.5 407.754 316.5C407.685 316.5 407.616 316.5 407.547 316.5C407.479 316.5 407.41 316.5 407.341 316.5C407.272 316.5 407.203 316.5 407.135 316.5C407.066 316.5 406.997 316.5 406.928 316.5C406.859 316.5 406.79 316.5 406.721 316.5C406.652 316.5 406.583 316.5 406.514 316.5C406.445 316.5 406.376 316.5 406.307 316.5C406.238 316.5 406.169 316.5 406.1 316.5C406.031 316.5 405.962 316.5 405.893 316.5C405.824 316.5 405.755 316.5 405.686 316.5C405.617 316.5 405.547 316.5 405.478 316.5C405.409 316.5 405.34 316.5 405.271 316.5C405.202 316.5 405.132 316.5 405.063 316.5C404.994 316.5 404.925 316.5 404.856 316.5C404.786 316.5 404.717 316.5 404.648 316.5C404.579 316.5 404.509 316.5 404.44 316.5C404.371 316.5 404.302 316.5 404.232 316.5C404.163 316.5 404.094 316.5 404.024 316.5C403.955 316.5 403.886 316.5 403.816 316.5C403.747 316.5 403.677 316.5 403.608 316.5C403.539 316.5 403.469 316.5 403.4 316.5C403.331 316.5 403.261 316.5 403.192 316.5C403.122 316.5 403.053 316.5 402.983 316.5C402.914 316.5 402.845 316.5 402.775 316.5C402.706 316.5 402.636 316.5 402.567 316.5C402.497 316.5 402.428 316.5 402.358 316.5C402.289 316.5 402.219 316.5 402.15 316.5C402.08 316.5 402.011 316.5 401.941 316.5C401.872 316.5 401.802 316.5 401.733 316.5C401.663 316.5 401.593 316.5 401.524 316.5C401.454 316.5 401.385 316.5 401.315 316.5C401.246 316.5 401.176 316.5 401.107 316.5C401.037 316.5 400.967 316.5 400.898 316.5C400.828 316.5 400.759 316.5 400.689 316.5C400.619 316.5 400.55 316.5 400.48 316.5C400.411 316.5 400.341 316.5 400.272 316.5C400.202 316.5 400.132 316.5 400.063 316.5C399.993 316.5 399.923 316.5 399.854 316.5C399.784 316.5 399.715 316.5 399.645 316.5C399.575 316.5 399.506 316.5 399.436 316.5C399.367 316.5 399.297 316.5 399.227 316.5C399.158 316.5 399.088 316.5 399.018 316.5C398.949 316.5 398.879 316.5 398.81 316.5C398.74 316.5 398.67 316.5 398.601 316.5C398.531 316.5 398.461 316.5 398.392 316.5C398.322 316.5 398.253 316.5 398.183 316.5C398.113 316.5 398.044 316.5 397.974 316.5C397.904 316.5 397.835 316.5 397.765 316.5C397.696 316.5 397.626 316.5 397.556 316.5C397.487 316.5 397.417 316.5 397.348 316.5C397.278 316.5 397.208 316.5 397.139 316.5C397.069 316.5 397 316.5 396.93 316.5C396.861 316.5 396.791 316.5 396.721 316.5C396.652 316.5 396.582 316.5 396.513 316.5C396.443 316.5 396.374 316.5 396.304 316.5C396.235 316.5 396.165 316.5 396.095 316.5C396.026 316.5 395.956 316.5 395.887 316.5C395.817 316.5 395.748 316.5 395.678 316.5C395.609 316.5 395.539 316.5 395.47 316.5C395.4 316.5 395.331 316.5 395.261 316.5C395.192 316.5 395.123 316.5 395.053 316.5C394.984 316.5 394.914 316.5 394.845 316.5C394.775 316.5 394.706 316.5 394.636 316.5C394.567 316.5 394.498 316.5 394.428 316.5C394.359 316.5 394.289 316.5 394.22 316.5C394.151 316.5 394.081 316.5 394.012 316.5C393.943 316.5 393.873 316.5 393.804 316.5C393.735 316.5 393.665 316.5 393.596 316.5C393.527 316.5 393.457 316.5 393.388 316.5C393.319 316.5 393.25 316.5 393.18 316.5C393.111 316.5 393.042 316.5 392.973 316.5C392.904 316.5 392.834 316.5 392.765 316.5C392.696 316.5 392.627 316.5 392.558 316.5C392.488 316.5 392.419 316.5 392.35 316.5C392.281 316.5 392.212 316.5 392.143 316.5C392.074 316.5 392.005 316.5 391.936 316.5C391.866 316.5 391.797 316.5 391.728 316.5C391.659 316.5 391.59 316.5 391.521 316.5C391.452 316.5 391.383 316.5 391.314 316.5C391.245 316.5 391.177 316.5 391.108 316.5C391.039 316.5 390.97 316.5 390.901 316.5C390.832 316.5 390.763 316.5 390.694 316.5C390.625 316.5 390.557 316.5 390.488 316.5C390.419 316.5 390.35 316.5 390.281 316.5C390.213 316.5 390.144 316.5 390.075 316.5C390.006 316.5 389.938 316.5 389.869 316.5C389.8 316.5 389.732 316.5 389.663 316.5C389.594 316.5 389.526 316.5 389.457 316.5C389.389 316.5 389.32 316.5 389.251 316.5C389.183 316.5 389.114 316.5 389.046 316.5C388.977 316.5 388.909 316.5 388.84 316.5C388.772 316.5 388.703 316.5 388.635 316.5C388.567 316.5 388.498 316.5 388.43 316.5C388.362 316.5 388.293 316.5 388.225 316.5C388.157 316.5 388.088 316.5 388.02 316.5C387.952 316.5 387.884 316.5 387.815 316.5C387.747 316.5 387.679 316.5 387.611 316.5C387.543 316.5 387.474 316.5 387.406 316.5C387.338 316.5 387.27 316.5 387.202 316.5C387.134 316.5 387.066 316.5 386.998 316.5C386.93 316.5 386.862 316.5 386.794 316.5C386.726 316.5 386.658 316.5 386.59 316.5C386.523 316.5 386.455 316.5 386.387 316.5C386.319 316.5 386.251 316.5 386.184 316.5C386.116 316.5 386.048 316.5 385.98 316.5C385.913 316.5 385.845 316.5 385.777 316.5C385.71 316.5 385.642 316.5 385.575 316.5C385.507 316.5 385.439 316.5 385.372 316.5C385.304 316.5 385.237 316.5 385.17 316.5C385.102 316.5 385.035 316.5 384.967 316.5C384.9 316.5 384.833 316.5 384.765 316.5C384.698 316.5 384.631 316.5 384.563 316.5C384.496 316.5 384.429 316.5 384.362 316.5C384.295 316.5 384.228 316.5 384.16 316.5C384.093 316.5 384.026 316.5 383.959 316.5C383.892 316.5 383.825 316.5 383.758 316.5C383.691 316.5 383.624 316.5 383.557 316.5C383.491 316.5 383.424 316.5 383.357 316.5C383.29 316.5 383.223 316.5 383.157 316.5C383.09 316.5 383.023 316.5 382.957 316.5C382.89 316.5 382.823 316.5 382.757 316.5C382.69 316.5 382.624 316.5 382.557 316.5C382.49 316.5 382.424 316.5 382.358 316.5C382.291 316.5 382.225 316.5 382.158 316.5C382.092 316.5 382.026 316.5 381.959 316.5C381.893 316.5 381.827 316.5 381.761 316.5C381.695 316.5 381.628 316.5 381.562 316.5C381.496 316.5 381.43 316.5 381.364 316.5C381.298 316.5 381.232 316.5 381.166 316.5C381.1 316.5 381.034 316.5 380.969 316.5C380.903 316.5 380.837 316.5 380.771 316.5C380.705 316.5 380.64 316.5 380.574 316.5C380.508 316.5 380.443 316.5 380.377 316.5C380.311 316.5 380.246 316.5 380.18 316.5C380.115 316.5 380.049 316.5 379.984 316.5C379.919 316.5 379.853 316.5 379.788 316.5C379.723 316.5 379.657 316.5 379.592 316.5C379.527 316.5 379.462 316.5 379.397 316.5C379.332 316.5 379.266 316.5 379.201 316.5C379.136 316.5 379.071 316.5 379.006 316.5C378.941 316.5 378.877 316.5 378.812 316.5C378.747 316.5 378.682 316.5 378.617 316.5C378.553 316.5 378.488 316.5 378.423 316.5C378.359 316.5 378.294 316.5 378.229 316.5C378.165 316.5 378.1 316.5 378.036 316.5C377.972 316.5 377.907 316.5 377.843 316.5C377.778 316.5 377.714 316.5 377.65 316.5C377.586 316.5 377.521 316.5 377.457 316.5C377.393 316.5 377.329 316.5 377.265 316.5C377.201 316.5 377.137 316.5 377.073 316.5C377.009 316.5 376.945 316.5 376.881 316.5C376.818 316.5 376.754 316.5 376.69 316.5C376.626 316.5 376.563 316.5 376.499 316.5C376.435 316.5 376.372 316.5 376.308 316.5C376.245 316.5 376.181 316.5 376.118 316.5C376.055 316.5 375.991 316.5 375.928 316.5C375.865 316.5 375.802 316.5 375.738 316.5C375.675 316.5 375.612 316.5 375.549 316.5C375.486 316.5 375.423 316.5 375.36 316.5C375.297 316.5 375.234 316.5 375.171 316.5C375.109 316.5 375.046 316.5 374.983 316.5C374.92 316.5 374.858 316.5 374.795 316.5C374.733 316.5 374.67 316.5 374.607 316.5C374.545 316.5 374.483 316.5 374.42 316.5C374.358 316.5 374.296 316.5 374.233 316.5C374.171 316.5 374.109 316.5 374.047 316.5C373.985 316.5 373.923 316.5 373.861 316.5C373.799 316.5 373.737 316.5 373.675 316.5C373.613 316.5 373.551 316.5 373.489 316.5C373.428 316.5 373.366 316.5 373.304 316.5C373.243 316.5 373.181 316.5 373.12 316.5C373.058 316.5 372.997 316.5 372.935 316.5C372.874 316.5 372.813 316.5 372.751 316.5C372.69 316.5 372.629 316.5 372.568 316.5C372.507 316.5 372.446 316.5 372.385 316.5C372.324 316.5 372.263 316.5 372.202 316.5C372.141 316.5 372.08 316.5 372.02 316.5C371.959 316.5 371.898 316.5 371.838 316.5C371.777 316.5 371.717 316.5 371.656 316.5C371.596 316.5 371.535 316.5 371.475 316.5C371.415 316.5 371.354 316.5 371.294 316.5C371.234 316.5 371.174 316.5 371.114 316.5C371.054 316.5 370.994 316.5 370.934 316.5C370.874 316.5 370.814 316.5 370.754 316.5C370.695 316.5 370.635 316.5 370.575 316.5C370.516 316.5 370.456 316.5 370.397 316.5C370.337 316.5 370.278 316.5 370.218 316.5C370.159 316.5 370.1 316.5 370.04 316.5C369.981 316.5 369.922 316.5 369.863 316.5C369.804 316.5 369.745 316.5 369.686 316.5C369.627 316.5 369.568 316.5 369.509 316.5C369.451 316.5 369.392 316.5 369.333 316.5C369.275 316.5 369.216 316.5 369.158 316.5C369.099 316.5 369.041 316.5 368.982 316.5C368.924 316.5 368.866 316.5 368.808 316.5C368.749 316.5 368.691 316.5 368.633 316.5C368.575 316.5 368.517 316.5 368.459 316.5C368.402 316.5 368.344 316.5 368.286 316.5C368.228 316.5 368.171 316.5 368.113 316.5C368.056 316.5 367.998 316.5 367.941 316.5C367.883 316.5 367.826 316.5 367.769 316.5C367.711 316.5 367.654 316.5 367.597 316.5C367.54 316.5 367.483 316.5 367.426 316.5C367.369 316.5 367.312 316.5 367.255 316.5C367.198 316.5 367.142 316.5 367.085 316.5C367.028 316.5 366.972 316.5 366.915 316.5C366.859 316.5 366.803 316.5 366.746 316.5C366.69 316.5 366.634 316.5 366.578 316.5C366.521 316.5 366.465 316.5 366.409 316.5C366.353 316.5 366.297 316.5 366.242 316.5C366.186 316.5 366.13 316.5 366.074 316.5C366.019 316.5 365.963 316.5 365.908 316.5C365.852 316.5 365.797 316.5 365.741 316.5C365.686 316.5 365.631 316.5 365.576 316.5C365.52 316.5 365.465 316.5 365.41 316.5C365.355 316.5 365.301 316.5 365.246 316.5C365.191 316.5 365.136 316.5 365.081 316.5C365.027 316.5 364.972 316.5 364.918 316.5C364.863 316.5 364.809 316.5 364.755 316.5C364.7 316.5 364.646 316.5 364.592 316.5C364.538 316.5 364.484 316.5 364.43 316.5C364.376 316.5 364.322 316.5 364.268 316.5C364.214 316.5 364.161 316.5 364.107 316.5C364.054 316.5 364 316.5 363.947 316.5C363.893 316.5 363.84 316.5 363.787 316.5C363.733 316.5 363.68 316.5 363.627 316.5C363.574 316.5 363.521 316.5 363.468 316.5C363.415 316.5 363.362 316.5 363.31 316.5C363.257 316.5 363.204 316.5 363.152 316.5C363.099 316.5 363.047 316.5 362.995 316.5C362.942 316.5 362.89 316.5 362.838 316.5C362.786 316.5 362.734 316.5 362.682 316.5C362.63 316.5 362.578 316.5 362.526 316.5C362.474 316.5 362.423 316.5 362.371 316.5C362.319 316.5 362.268 316.5 362.217 316.5C362.165 316.5 362.114 316.5 362.063 316.5C362.011 316.5 361.96 316.5 361.909 316.5C361.858 316.5 361.807 316.5 361.756 316.5C361.706 316.5 361.655 316.5 361.604 316.5C361.554 316.5 361.503 316.5 361.453 316.5C361.402 316.5 361.352 316.5 361.302 316.5C361.251 316.5 361.201 316.5 361.151 316.5C361.101 316.5 361.051 316.5 361.001 316.5C360.951 316.5 360.902 316.5 360.852 316.5C360.802 316.5 360.753 316.5 360.703 316.5C360.654 316.5 360.604 316.5 360.555 316.5C360.506 316.5 360.457 316.5 360.408 316.5C360.359 316.5 360.31 316.5 360.261 316.5C360.212 316.5 360.163 316.5 360.114 316.5C360.066 316.5 360.017 316.5 359.969 316.5C359.92 316.5 359.872 316.5 359.824 316.5C359.775 316.5 359.727 316.5 359.679 316.5C359.631 316.5 359.583 316.5 359.535 316.5C359.487 316.5 359.44 316.5 359.392 316.5C359.344 316.5 359.297 316.5 359.25 316.5C359.202 316.5 359.155 316.5 359.108 316.5C359.06 316.5 359.013 316.5 358.966 316.5C358.919 316.5 358.872 316.5 358.825 316.5C358.779 316.5 358.732 316.5 358.685 316.5C358.639 316.5 358.592 316.5 358.546 316.5C358.5 316.5 358.453 316.5 358.407 316.5C358.361 316.5 358.315 316.5 358.269 316.5C358.223 316.5 358.177 316.5 358.132 316.5C358.086 316.5 358.04 316.5 357.995 316.5C357.949 316.5 357.904 316.5 357.858 316.5C357.813 316.5 357.768 316.5 357.723 316.5C357.678 316.5 357.633 316.5 357.588 316.5C357.543 316.5 357.498 316.5 357.454 316.5C357.409 316.5 357.365 316.5 357.32 316.5C357.276 316.5 357.232 316.5 357.187 316.5C357.143 316.5 357.099 316.5 357.055 316.5C357.011 316.5 356.967 316.5 356.924 316.5C356.88 316.5 356.836 316.5 356.793 316.5C356.749 316.5 356.706 316.5 356.663 316.5C356.619 316.5 356.576 316.5 356.533 316.5C356.49 316.5 356.447 316.5 356.404 316.5C356.361 316.5 356.319 316.5 356.276 316.5C356.233 316.5 356.191 316.5 356.149 316.5C356.106 316.5 356.064 316.5 356.022 316.5C355.98 316.5 355.938 316.5 355.896 316.5C355.854 316.5 355.812 316.5 355.77 316.5C355.729 316.5 355.687 316.5 355.646 316.5C355.604 316.5 355.563 316.5 355.522 316.5C355.481 316.5 355.44 316.5 355.399 316.5C355.358 316.5 355.317 316.5 355.276 316.5C355.235 316.5 355.195 316.5 355.154 316.5C355.114 316.5 355.073 316.5 355.033 316.5C354.993 316.5 354.953 316.5 354.913 316.5C354.873 316.5 354.833 316.5 354.793 316.5C354.753 316.5 354.714 316.5 354.674 316.5C354.635 316.5 354.595 316.5 354.556 316.5C354.517 316.5 354.478 316.5 354.438 316.5C354.399 316.5 354.361 316.5 354.322 316.5C354.283 316.5 354.244 316.5 354.206 316.5C354.167 316.5 354.129 316.5 354.09 316.5C354.052 316.5 354.014 316.5 353.976 316.5C353.938 316.5 353.9 316.5 353.862 316.5C353.824 316.5 353.787 316.5 353.749 316.5C353.712 316.5 353.674 316.5 353.637 316.5C353.6 316.5 353.562 316.5 353.525 316.5C353.488 316.5 353.451 316.5 353.415 316.5C353.378 316.5 353.341 316.5 353.305 316.5C353.268 316.5 353.232 316.5 353.195 316.5C353.159 316.5 353.123 316.5 353.087 316.5C353.051 316.5 353.015 316.5 352.979 316.5C352.944 316.5 352.908 316.5 352.872 316.5C352.837 316.5 352.802 316.5 352.766 316.5C352.731 316.5 352.696 316.5 352.661 316.5C352.626 316.5 352.591 316.5 352.556 316.5C352.522 316.5 352.487 316.5 352.453 316.5C352.418 316.5 352.384 316.5 352.35 316.5C352.315 316.5 352.281 316.5 352.247 316.5C352.213 316.5 352.18 316.5 352.146 316.5C352.112 316.5 352.079 316.5 352.045 316.5C352.012 316.5 351.979 316.5 351.946 316.5C351.912 316.5 351.879 316.5 351.847 316.5C351.814 316.5 351.781 316.5 351.748 316.5C351.716 316.5 351.683 316.5 351.651 316.5C351.619 316.5 351.586 316.5 351.554 316.5C351.522 316.5 351.49 316.5 351.459 316.5C351.427 316.5 351.395 316.5 351.364 316.5C351.332 316.5 351.301 316.5 351.269 316.5C351.238 316.5 351.207 316.5 351.176 316.5C351.145 316.5 351.114 316.5 351.084 316.5C351.053 316.5 351.022 316.5 350.992 316.5C350.962 316.5 350.931 316.5 350.901 316.5C350.871 316.5 350.841 316.5 350.811 316.5C350.781 316.5 350.752 316.5 350.722 316.5C350.692 316.5 350.663 316.5 350.634 316.5C350.604 316.5 350.575 316.5 350.546 316.5C350.517 316.5 350.488 316.5 350.46 316.5C350.431 316.5 350.402 316.5 350.374 316.5C350.345 316.5 350.317 316.5 350.289 316.5C350.261 316.5 350.233 316.5 350.205 316.5C350.177 316.5 350.149 316.5 350.122 316.5C350.094 316.5 350.067 316.5 350.039 316.5C350.012 316.5 349.985 316.5 349.958 316.5C349.931 316.5 349.904 316.5 349.877 316.5C349.851 316.5 349.824 316.5 349.798 316.5C349.771 316.5 349.745 316.5 349.719 316.5C349.693 316.5 349.667 316.5 349.641 316.5C349.615 316.5 349.589 316.5 349.564 316.5C349.538 316.5 349.513 316.5 349.487 316.5C349.462 316.5 349.437 316.5 349.412 316.5C349.387 316.5 349.362 316.5 349.338 316.5C349.313 316.5 349.288 316.5 349.264 316.5C349.24 316.5 349.215 316.5 349.191 316.5C349.167 316.5 349.143 316.5 349.12 316.5C349.096 316.5 349.072 316.5 349.049 316.5C349.025 316.5 349.002 316.5 348.979 316.5C348.956 316.5 348.933 316.5 348.91 316.5C348.887 316.5 348.864 316.5 348.842 316.5C348.819 316.5 348.797 316.5 348.774 316.5C348.752 316.5 348.73 316.5 348.708 316.5C348.686 316.5 348.664 316.5 348.643 316.5C348.621 316.5 348.599 316.5 348.578 316.5C348.557 316.5 348.536 316.5 348.515 316.5C348.494 316.5 348.473 316.5 348.452 316.5C348.431 316.5 348.411 316.5 348.39 316.5C348.37 316.5 348.35 316.5 348.329 316.5C348.309 316.5 348.289 316.5 348.27 316.5C348.25 316.5 348.23 316.5 348.211 316.5C348.191 316.5 348.172 316.5 348.153 316.5C348.134 316.5 348.115 316.5 348.096 316.5C348.077 316.5 348.058 316.5 348.04 316.5C348.021 316.5 348.003 316.5 347.985 316.5C347.966 316.5 347.948 316.5 347.93 316.5C347.912 316.5 347.895 316.5 347.877 316.5C347.86 316.5 347.842 316.5 347.825 316.5C347.808 316.5 347.791 316.5 347.774 316.5C347.757 316.5 347.74 316.5 347.723 316.5C347.707 316.5 347.69 316.5 347.674 316.5C347.658 316.5 347.642 316.5 347.626 316.5C347.61 316.5 347.594 316.5 347.578 316.5C347.563 316.5 347.547 316.5 347.532 316.5C347.516 316.5 347.501 316.5 347.486 316.5C347.471 316.5 347.456 316.5 347.442 316.5C347.427 316.5 347.413 316.5 347.398 316.5C347.384 316.5 347.37 316.5 347.356 316.5C347.342 316.5 347.328 316.5 347.314 316.5C347.301 316.5 347.287 316.5 347.274 316.5C347.26 316.5 347.247 316.5 347.234 316.5C347.221 316.5 347.208 316.5 347.196 316.5C347.183 316.5 347.171 316.5 347.158 316.5C347.146 316.5 347.134 316.5 347.122 316.5C347.11 316.5 347.098 316.5 347.086 316.5C347.075 316.5 347.063 316.5 347.052 316.5C347.04 316.5 347.029 316.5 347.018 316.5C347.007 316.5 346.996 316.5 346.986 316.5C346.975 316.5 346.965 316.5 346.954 316.5C346.944 316.5 346.934 316.5 346.924 316.5C346.914 316.5 346.904 316.5 346.895 316.5C346.885 316.5 346.876 316.5 346.866 316.5C346.857 316.5 346.848 316.5 346.839 316.5C346.83 316.5 346.821 316.5 346.813 316.5C346.804 316.5 346.796 316.5 346.787 316.5C346.779 316.5 346.771 316.5 346.763 316.5C346.755 316.5 346.748 316.5 346.74 316.5C346.732 316.5 346.725 316.5 346.718 316.5C346.711 316.5 346.704 316.5 346.697 316.5C346.69 316.5 346.683 316.5 346.677 316.5C346.67 316.5 346.664 316.5 346.658 316.5C346.652 316.5 346.646 316.5 346.64 316.5C346.634 316.5 346.629 316.5 346.623 316.5C346.618 316.5 346.612 316.5 346.607 316.5C346.602 316.5 346.597 316.5 346.593 316.5C346.588 316.5 346.583 316.5 346.579 316.5C346.575 316.5 346.57 316.5 346.566 316.5C346.562 316.5 346.559 316.5 346.555 316.5C346.551 316.5 346.548 316.5 346.545 316.5C346.541 316.5 346.538 316.5 346.535 316.5C346.532 316.5 346.53 316.5 346.527 316.5C346.524 316.5 346.522 316.5 346.52 316.5C346.518 316.5 346.516 316.5 346.514 316.5C346.512 316.5 346.51 316.5 346.509 316.5C346.507 316.5 346.506 316.5 346.505 316.5C346.504 316.5 346.503 316.5 346.502 316.5C346.501 316.5 346.501 316.5 346.501 316.5C346.5 316.5 346.5 316.5 346.5 318ZM216 123.5L296 123.5V120.5L216 120.5V123.5ZM296 123.5L426 123.5V120.5L296 120.5V123.5ZM306.002 279.076C306.769 294.13 309.128 304.48 315.414 310.943C321.738 317.445 331.671 319.655 346.516 319.5L346.484 316.5C331.767 316.654 322.966 314.406 317.564 308.851C312.124 303.258 309.764 293.953 308.998 278.924L306.002 279.076ZM263.509 123.5C281.262 123.396 291.809 125.408 297.944 130.311C303.955 135.113 306.099 143.021 306 155.989L309 156.011C309.1 142.89 306.985 133.694 299.817 127.967C292.774 122.339 281.22 120.396 263.491 120.5L263.509 123.5ZM306 156L306 279H309L309 156H306Z" fill="#1E1E1E"/>
<path id="L.I." d="M347.296 109.152C346.784 109.152 346.248 109.024 345.688 108.768C345.144 108.528 344.68 108.128 344.296 107.568C343.928 106.992 343.744 106.232 343.744 105.288C343.744 104.184 343.84 103.016 344.032 101.784C344.224 100.552 344.472 99.32 344.776 98.088C345.096 96.84 345.448 95.656 345.832 94.536C346.216 93.416 346.6 92.416 346.984 91.536C347.384 90.656 347.752 89.968 348.088 89.472C348.424 88.96 348.704 88.704 348.928 88.704C349.232 88.704 349.488 88.824 349.696 89.064C349.92 89.304 350.032 89.64 350.032 90.072C350.032 90.248 349.928 90.664 349.72 91.32C349.512 91.96 349.248 92.768 348.928 93.744C348.608 94.72 348.264 95.776 347.896 96.912C347.544 98.048 347.208 99.192 346.888 100.344C346.568 101.496 346.304 102.584 346.096 103.608C345.888 104.632 345.784 105.504 345.784 106.224C345.784 106.432 345.84 106.632 345.952 106.824C346.064 107 346.248 107.088 346.504 107.088C346.856 107.088 347.36 107.008 348.016 106.848C348.688 106.688 349.416 106.496 350.2 106.272C350.984 106.032 351.736 105.8 352.456 105.576C353.176 105.352 353.784 105.16 354.28 105C354.776 104.84 355.056 104.76 355.12 104.76C355.312 104.76 355.472 104.816 355.6 104.928C355.728 105.024 355.792 105.176 355.792 105.384C355.792 105.64 355.6 105.936 355.216 106.272C354.848 106.608 354.352 106.944 353.728 107.28C353.12 107.616 352.44 107.92 351.688 108.192C350.936 108.48 350.176 108.712 349.408 108.888C348.656 109.064 347.952 109.152 347.296 109.152ZM360.129 108.36C359.777 108.36 359.433 108.248 359.097 108.024C358.777 107.8 358.617 107.432 358.617 106.92C358.617 106.504 358.721 106.168 358.929 105.912C359.137 105.656 359.377 105.472 359.649 105.36C359.921 105.232 360.161 105.168 360.369 105.168C360.577 105.168 360.809 105.216 361.065 105.312C361.337 105.408 361.569 105.576 361.761 105.816C361.953 106.04 362.049 106.376 362.049 106.824C362.049 107.272 361.857 107.64 361.473 107.928C361.089 108.216 360.641 108.36 360.129 108.36ZM370.419 94.176C369.731 94.176 369.267 94.08 369.027 93.888C368.803 93.696 368.691 93.512 368.691 93.336C368.691 93.08 368.819 92.848 369.075 92.64C369.347 92.432 369.675 92.288 370.059 92.208C370.523 92.112 371.083 92.016 371.739 91.92C372.411 91.808 373.107 91.712 373.827 91.632C374.547 91.536 375.251 91.464 375.939 91.416C376.627 91.368 377.227 91.344 377.739 91.344C378.411 91.344 378.923 91.472 379.275 91.728C379.643 91.968 379.827 92.192 379.827 92.4C379.827 92.416 379.827 92.448 379.827 92.496C379.827 92.624 379.803 92.736 379.755 92.832C379.707 92.928 379.547 93.024 379.275 93.12C379.019 93.2 378.579 93.288 377.955 93.384C377.347 93.464 376.483 93.552 375.363 93.648C375.139 93.664 374.891 93.688 374.619 93.72C374.555 94.152 374.459 94.72 374.331 95.424C374.203 96.128 374.059 96.912 373.899 97.776C373.739 98.64 373.571 99.528 373.395 100.44C373.219 101.336 373.043 102.192 372.867 103.008C372.707 103.824 372.563 104.544 372.435 105.168C372.323 105.792 372.235 106.264 372.171 106.584C373.003 106.472 373.739 106.4 374.379 106.368C375.035 106.32 375.475 106.296 375.699 106.296C376.291 106.296 376.587 106.52 376.587 106.968C376.587 107.096 376.315 107.28 375.771 107.52C375.227 107.76 374.531 108.008 373.683 108.264C372.835 108.52 371.955 108.76 371.043 108.984C370.291 109.16 369.547 109.296 368.811 109.392C368.091 109.488 367.571 109.536 367.251 109.536C366.899 109.536 366.651 109.472 366.507 109.344C366.363 109.232 366.291 109.064 366.291 108.84C366.291 108.616 366.355 108.392 366.483 108.168C366.627 107.944 366.819 107.784 367.059 107.688C367.491 107.528 367.971 107.384 368.499 107.256C369.027 107.112 369.563 106.984 370.107 106.872C370.107 106.792 370.107 106.696 370.107 106.584C370.107 106.36 370.147 105.936 370.227 105.312C370.323 104.688 370.443 103.944 370.587 103.08C370.731 102.2 370.891 101.288 371.067 100.344C371.243 99.384 371.411 98.472 371.571 97.608C371.731 96.728 371.875 95.968 372.003 95.328C372.131 94.672 372.227 94.232 372.291 94.008C371.891 94.056 371.531 94.096 371.211 94.128C370.891 94.16 370.627 94.176 370.419 94.176ZM384.949 108.36C384.597 108.36 384.253 108.248 383.917 108.024C383.597 107.8 383.437 107.432 383.437 106.92C383.437 106.504 383.541 106.168 383.749 105.912C383.957 105.656 384.197 105.472 384.469 105.36C384.741 105.232 384.981 105.168 385.189 105.168C385.397 105.168 385.629 105.216 385.885 105.312C386.157 105.408 386.389 105.576 386.581 105.816C386.773 106.04 386.869 106.376 386.869 106.824C386.869 107.272 386.677 107.64 386.293 107.928C385.909 108.216 385.461 108.36 384.949 108.36Z" fill="black"/>
<path id="G.E." d="M223.32 158.856C222.456 158.856 221.64 158.656 220.872 158.256C220.104 157.856 219.48 157.296 219 156.576C218.52 155.84 218.28 154.968 218.28 153.96C218.28 153.112 218.488 152.208 218.904 151.248C219.336 150.272 219.888 149.288 220.56 148.296C221.248 147.288 221.992 146.336 222.792 145.44C223.592 144.528 224.376 143.72 225.144 143.016C225.912 142.296 226.592 141.728 227.184 141.312C227.776 140.896 228.192 140.688 228.432 140.688C228.736 140.688 229 140.776 229.224 140.952C229.464 141.112 229.592 141.36 229.608 141.696C229.608 141.856 229.552 142.04 229.44 142.248C229.328 142.44 229.112 142.64 228.792 142.848C228.44 143.072 227.992 143.408 227.448 143.856C226.904 144.304 226.32 144.84 225.696 145.464C225.072 146.072 224.456 146.736 223.848 147.456C223.24 148.16 222.68 148.888 222.168 149.64C221.656 150.376 221.248 151.096 220.944 151.8C220.64 152.504 220.488 153.16 220.488 153.768C220.488 154.712 220.752 155.432 221.28 155.928C221.808 156.424 222.536 156.672 223.464 156.672C223.944 156.672 224.512 156.536 225.168 156.264C225.824 155.992 226.496 155.632 227.184 155.184C227.888 154.736 228.56 154.248 229.2 153.72C229.84 153.176 230.384 152.64 230.832 152.112C231.296 151.584 231.6 151.104 231.744 150.672C231.344 150.768 230.84 150.872 230.232 150.984C229.624 151.096 228.992 151.2 228.336 151.296C227.696 151.392 227.112 151.472 226.584 151.536C226.056 151.6 225.672 151.632 225.432 151.632C224.936 151.632 224.544 151.504 224.256 151.248C223.984 150.992 223.848 150.736 223.848 150.48C223.848 150.304 223.92 150.136 224.064 149.976C224.208 149.816 224.432 149.712 224.736 149.664C225.088 149.616 225.552 149.544 226.128 149.448C226.72 149.336 227.336 149.232 227.976 149.136C228.632 149.024 229.232 148.928 229.776 148.848C230.336 148.768 230.76 148.728 231.048 148.728C231.88 148.728 232.496 148.976 232.896 149.472C233.296 149.952 233.496 150.64 233.496 151.536C233.496 151.968 233.28 152.496 232.848 153.12C232.416 153.744 231.832 154.392 231.096 155.064C230.376 155.72 229.568 156.336 228.672 156.912C227.792 157.488 226.888 157.96 225.96 158.328C225.032 158.68 224.152 158.856 223.32 158.856ZM237.816 159.36C237.464 159.36 237.12 159.248 236.784 159.024C236.464 158.8 236.304 158.432 236.304 157.92C236.304 157.504 236.408 157.168 236.616 156.912C236.824 156.656 237.064 156.472 237.336 156.36C237.608 156.232 237.848 156.168 238.056 156.168C238.264 156.168 238.496 156.216 238.752 156.312C239.024 156.408 239.256 156.576 239.448 156.816C239.64 157.04 239.736 157.376 239.736 157.824C239.736 158.272 239.544 158.64 239.16 158.928C238.776 159.216 238.328 159.36 237.816 159.36ZM248.364 159.048C247.964 159.048 247.54 158.928 247.092 158.688C246.644 158.448 246.228 158.056 245.844 157.512C245.476 156.968 245.172 156.248 244.932 155.352C244.692 154.456 244.572 153.352 244.572 152.04C244.572 151 244.7 149.944 244.956 148.872C245.228 147.784 245.644 146.76 246.204 145.8C246.78 144.824 247.516 143.984 248.412 143.28C249.324 142.56 250.428 142.064 251.724 141.792C252.284 141.664 252.916 141.544 253.62 141.432C254.34 141.304 255.068 141.192 255.804 141.096C256.556 140.984 257.26 140.896 257.916 140.832C258.588 140.768 259.156 140.736 259.62 140.736C260.372 140.736 260.908 140.872 261.228 141.144C261.564 141.4 261.732 141.648 261.732 141.888C261.732 142.048 261.668 142.2 261.54 142.344C261.412 142.472 261.164 142.552 260.796 142.584C260.652 142.6 260.348 142.64 259.884 142.704C259.42 142.752 258.86 142.824 258.204 142.92C257.548 143.016 256.86 143.12 256.14 143.232C255.436 143.328 254.748 143.432 254.076 143.544C253.42 143.64 252.852 143.728 252.372 143.808C251.044 144.064 249.996 144.504 249.228 145.128C248.46 145.752 247.9 146.488 247.548 147.336C247.196 148.184 246.972 149.056 246.876 149.952C247.516 149.808 248.212 149.656 248.964 149.496C249.732 149.336 250.468 149.192 251.172 149.064C251.876 148.92 252.484 148.808 252.996 148.728C253.524 148.648 253.876 148.608 254.052 148.608C254.388 148.608 254.596 148.68 254.676 148.824C254.772 148.968 254.82 149.152 254.82 149.376C254.82 149.808 254.116 150.288 252.708 150.816C251.316 151.344 249.34 151.792 246.78 152.16C246.78 152.704 246.788 153.264 246.804 153.84C246.836 154.4 246.884 154.92 246.948 155.4C247.012 155.88 247.092 156.264 247.188 156.552C247.284 156.84 247.412 156.984 247.572 156.984C247.94 156.984 248.42 156.872 249.012 156.648C249.62 156.424 250.252 156.152 250.908 155.832C251.564 155.512 252.164 155.2 252.708 154.896C253.268 154.592 253.676 154.352 253.932 154.176C254.236 153.984 254.564 153.776 254.916 153.552C255.268 153.328 255.532 153.216 255.708 153.216C255.932 153.216 256.044 153.344 256.044 153.6C256.044 153.744 255.916 154.024 255.66 154.44C255.42 154.856 255.068 155.328 254.604 155.856C254.14 156.368 253.588 156.872 252.948 157.368C252.324 157.848 251.62 158.248 250.836 158.568C250.068 158.888 249.244 159.048 248.364 159.048ZM263.972 159.36C263.62 159.36 263.276 159.248 262.94 159.024C262.62 158.8 262.46 158.432 262.46 157.92C262.46 157.504 262.564 157.168 262.772 156.912C262.98 156.656 263.22 156.472 263.492 156.36C263.764 156.232 264.004 156.168 264.212 156.168C264.42 156.168 264.652 156.216 264.908 156.312C265.18 156.408 265.412 156.576 265.604 156.816C265.796 157.04 265.892 157.376 265.892 157.824C265.892 158.272 265.7 158.64 265.316 158.928C264.932 159.216 264.484 159.36 263.972 159.36Z" fill="black"/>
<path id="L.D." d="M353.296 303.152C352.784 303.152 352.248 303.024 351.688 302.768C351.144 302.528 350.68 302.128 350.296 301.568C349.928 300.992 349.744 300.232 349.744 299.288C349.744 298.184 349.84 297.016 350.032 295.784C350.224 294.552 350.472 293.32 350.776 292.088C351.096 290.84 351.448 289.656 351.832 288.536C352.216 287.416 352.6 286.416 352.984 285.536C353.384 284.656 353.752 283.968 354.088 283.472C354.424 282.96 354.704 282.704 354.928 282.704C355.232 282.704 355.488 282.824 355.696 283.064C355.92 283.304 356.032 283.64 356.032 284.072C356.032 284.248 355.928 284.664 355.72 285.32C355.512 285.96 355.248 286.768 354.928 287.744C354.608 288.72 354.264 289.776 353.896 290.912C353.544 292.048 353.208 293.192 352.888 294.344C352.568 295.496 352.304 296.584 352.096 297.608C351.888 298.632 351.784 299.504 351.784 300.224C351.784 300.432 351.84 300.632 351.952 300.824C352.064 301 352.248 301.088 352.504 301.088C352.856 301.088 353.36 301.008 354.016 300.848C354.688 300.688 355.416 300.496 356.2 300.272C356.984 300.032 357.736 299.8 358.456 299.576C359.176 299.352 359.784 299.16 360.28 299C360.776 298.84 361.056 298.76 361.12 298.76C361.312 298.76 361.472 298.816 361.6 298.928C361.728 299.024 361.792 299.176 361.792 299.384C361.792 299.64 361.6 299.936 361.216 300.272C360.848 300.608 360.352 300.944 359.728 301.28C359.12 301.616 358.44 301.92 357.688 302.192C356.936 302.48 356.176 302.712 355.408 302.888C354.656 303.064 353.952 303.152 353.296 303.152ZM366.129 302.36C365.777 302.36 365.433 302.248 365.097 302.024C364.777 301.8 364.617 301.432 364.617 300.92C364.617 300.504 364.721 300.168 364.929 299.912C365.137 299.656 365.377 299.472 365.649 299.36C365.921 299.232 366.161 299.168 366.369 299.168C366.577 299.168 366.809 299.216 367.065 299.312C367.337 299.408 367.569 299.576 367.761 299.816C367.953 300.04 368.049 300.376 368.049 300.824C368.049 301.272 367.857 301.64 367.473 301.928C367.089 302.216 366.641 302.36 366.129 302.36ZM373.659 303.632C373.387 303.632 373.155 303.48 372.963 303.176C372.771 302.888 372.675 302.552 372.675 302.168C372.675 302.008 372.707 301.864 372.771 301.736C372.851 301.608 372.971 301.512 373.131 301.448C373.307 301.368 373.483 301.296 373.659 301.232C373.851 301.152 374.043 301.072 374.235 300.992C374.187 300.864 374.147 300.712 374.115 300.536C374.083 300.36 374.067 300.152 374.067 299.912C374.067 299.736 374.099 299.4 374.163 298.904C374.243 298.392 374.347 297.784 374.475 297.08C374.603 296.376 374.739 295.632 374.883 294.848C375.043 294.048 375.195 293.272 375.339 292.52C375.499 291.752 375.643 291.064 375.771 290.456C376.059 289.144 376.411 287.968 376.827 286.928C377.259 285.888 377.835 285.072 378.555 284.48C379.291 283.872 380.259 283.568 381.459 283.568C382.371 283.568 383.267 283.768 384.147 284.168C385.043 284.568 385.851 285.136 386.571 285.872C387.307 286.592 387.891 287.44 388.323 288.416C388.755 289.392 388.971 290.456 388.971 291.608C388.971 292.6 388.739 293.544 388.275 294.44C387.811 295.32 387.187 296.152 386.403 296.936C385.619 297.72 384.723 298.448 383.715 299.12C382.723 299.792 381.683 300.408 380.595 300.968C379.523 301.512 378.467 301.992 377.427 302.408C376.387 302.84 375.427 303.2 374.547 303.488C374.435 303.52 374.299 303.552 374.139 303.584C373.979 303.616 373.819 303.632 373.659 303.632ZM375.939 300.32C377.331 299.744 378.683 299.152 379.995 298.544C381.323 297.936 382.515 297.264 383.571 296.528C384.627 295.776 385.467 294.936 386.091 294.008C386.715 293.08 387.027 292.016 387.027 290.816C387.027 290.192 386.883 289.584 386.595 288.992C386.307 288.4 385.907 287.872 385.395 287.408C384.899 286.928 384.331 286.552 383.691 286.28C383.067 285.992 382.411 285.848 381.723 285.848C381.099 285.848 380.539 286.008 380.043 286.328C379.563 286.632 379.147 287.176 378.795 287.96C378.443 288.744 378.139 289.832 377.883 291.224C377.691 292.088 377.491 293.024 377.283 294.032C377.075 295.024 376.867 295.976 376.659 296.888C376.467 297.784 376.307 298.544 376.179 299.168C376.051 299.776 375.979 300.128 375.963 300.224C375.963 300.256 375.955 300.288 375.939 300.32ZM394.558 302.36C394.206 302.36 393.862 302.248 393.526 302.024C393.206 301.8 393.046 301.432 393.046 300.92C393.046 300.504 393.15 300.168 393.358 299.912C393.566 299.656 393.806 299.472 394.078 299.36C394.35 299.232 394.59 299.168 394.798 299.168C395.006 299.168 395.238 299.216 395.494 299.312C395.766 299.408 395.998 299.576 396.19 299.816C396.382 300.04 396.478 300.376 396.478 300.824C396.478 301.272 396.286 301.64 395.902 301.928C395.518 302.216 395.07 302.36 394.558 302.36Z" fill="black"/>
<line id="Line 1" x1="18.5" y1="51" x2="18.5" y2="190" stroke="black"/>
<line id="Line 6" x1="168.5" y1="51" x2="168.5" y2="190" stroke="black"/>
<line id="Line 2" x1="604.5" y1="52" x2="604.5" y2="191" stroke="black"/>
<line id="Line 3" x1="454.5" y1="52" x2="454.5" y2="191" stroke="black"/>
<line id="Line 4" x1="454.5" y1="248" x2="454.5" y2="387" stroke="black"/>
<line id="Line 5" x1="604.5" y1="248" x2="604.5" y2="387" stroke="black"/>
</g>
</svg>
