<svg width="450" height="185" viewBox="0 0 450 185" fill="none" xmlns="http://www.w3.org/2000/svg">
<rect width="450" height="185" fill="white"/>
<path d="M195.922 80.387C196.136 79.8777 195.896 79.2916 195.387 79.0779L187.088 75.595C186.579 75.3813 185.993 75.6209 185.779 76.1301C185.565 76.6394 185.805 77.2255 186.314 77.4392L193.691 80.5351L190.595 87.9118C190.381 88.421 190.621 89.0071 191.13 89.2208C191.639 89.4346 192.225 89.195 192.439 88.6858L195.922 80.387ZM58.3784 136.926L195.378 80.9257L194.622 79.0743L57.6216 135.074L58.3784 136.926Z" fill="#FF9500"/>
<path d="M134.989 32.8508C134.906 32.3047 134.397 31.9288 133.851 32.0112L124.952 33.3535C124.405 33.4359 124.029 33.9454 124.112 34.4915C124.194 35.0376 124.704 35.4135 125.25 35.3312L133.16 34.138L134.354 42.0485C134.436 42.5946 134.945 42.9705 135.492 42.8881C136.038 42.8058 136.414 42.2963 136.331 41.7502L134.989 32.8508ZM58.8047 136.594L134.805 33.5937L133.195 32.4063L57.1953 135.406L58.8047 136.594Z" fill="#FF9500"/>
<path d="M424.922 83.387C425.136 82.8777 424.896 82.2916 424.387 82.0779L416.088 78.595C415.579 78.3813 414.993 78.6209 414.779 79.1301C414.565 79.6394 414.805 80.2255 415.314 80.4392L422.691 83.5351L419.595 90.9118C419.381 91.421 419.621 92.0071 420.13 92.2208C420.639 92.4346 421.225 92.195 421.439 91.6857L424.922 83.387ZM287.378 139.926L424.378 83.9257L423.622 82.0743L286.622 138.074L287.378 139.926Z" fill="#FF9500"/>
<path d="M363.989 35.8508C363.906 35.3047 363.397 34.9288 362.851 35.0112L353.952 36.3535C353.405 36.4359 353.029 36.9454 353.112 37.4915C353.194 38.0376 353.704 38.4135 354.25 38.3312L362.16 37.138L363.354 45.0485C363.436 45.5946 363.945 45.9705 364.492 45.8881C365.038 45.8058 365.414 45.2963 365.331 44.7502L363.989 35.8508ZM287.805 139.594L363.805 36.5937L362.195 35.4063L286.195 138.406L287.805 139.594Z" fill="#FF9500"/>
<path d="M117.921 112.389C118.136 111.88 117.897 111.293 117.389 111.079L109.096 107.582C108.587 107.367 108 107.606 107.786 108.114C107.571 108.623 107.81 109.21 108.319 109.424L115.69 112.533L112.582 119.904C112.367 120.413 112.606 121 113.114 121.214C113.623 121.429 114.21 121.19 114.424 120.681L117.921 112.389ZM58.3768 136.926L117.377 112.926L116.623 111.074L57.6232 135.074L58.3768 136.926Z" fill="black"/>
<path d="M34.3886 76.0786C33.8797 75.864 33.2932 76.1026 33.0786 76.6114L29.5816 84.9043C29.367 85.4132 29.6056 85.9997 30.1145 86.2143C30.6234 86.4289 31.2099 86.1903 31.4244 85.6814L34.5329 78.31L41.9043 81.4184C42.4132 81.633 42.9997 81.3944 43.2143 80.8855C43.4289 80.3766 43.1903 79.7901 42.6814 79.5756L34.3886 76.0786ZM58.9263 135.623L34.9263 76.6232L33.0737 77.3768L57.0737 136.377L58.9263 135.623Z" fill="black"/>
<path d="M351.92 138.113C352.297 137.709 352.275 137.077 351.871 136.7L345.289 130.562C344.885 130.186 344.252 130.208 343.875 130.612C343.499 131.015 343.521 131.648 343.925 132.025L349.776 137.481L344.32 143.332C343.943 143.736 343.965 144.368 344.369 144.745C344.773 145.122 345.406 145.1 345.783 144.696L351.92 138.113ZM287.568 140.655L351.224 138.431L351.154 136.432L287.498 138.656L287.568 140.655Z" fill="black"/>
<path d="M285.991 75.2686C285.587 74.892 284.954 74.9141 284.578 75.318L278.44 81.9003C278.063 82.3043 278.085 82.937 278.489 83.3137C278.893 83.6903 279.526 83.6682 279.903 83.2643L285.358 77.4134L291.209 82.8692C291.613 83.2459 292.246 83.2237 292.623 82.8198C292.999 82.4159 292.977 81.7831 292.573 81.4065L285.991 75.2686ZM288.533 139.621L286.308 75.9651L284.31 76.0349L286.534 139.691L288.533 139.621Z" fill="black"/>
<path d="M179.815 105.886C179.287 105.886 178.848 105.643 178.501 105.156C178.167 104.655 178 104.009 178 103.216C178 102.479 178.181 101.748 178.542 101.025C178.918 100.302 179.412 99.6064 180.024 98.9387C180.636 98.2711 181.303 97.6591 182.027 97.1027C182.75 96.5324 183.473 96.0386 184.197 95.6214C184.934 95.2041 185.608 94.8772 186.22 94.6408C186.832 94.4043 187.319 94.2861 187.681 94.2861C187.876 94.2861 188.036 94.3278 188.161 94.4113C188.286 94.4808 188.349 94.6129 188.349 94.8077C188.349 94.9329 188.3 95.0511 188.202 95.1624C188.216 95.1624 188.23 95.1624 188.244 95.1624C188.55 95.1624 188.703 95.3432 188.703 95.7048C188.703 95.83 188.655 96.0873 188.557 96.4768C188.46 96.8523 188.349 97.3253 188.223 97.8955C188.098 98.4658 187.987 99.0987 187.89 99.7942C187.792 100.476 187.743 101.171 187.743 101.881C187.743 102.479 187.973 102.778 188.432 102.778C188.947 102.778 189.468 102.659 189.997 102.423C190.525 102.187 191.04 101.901 191.541 101.568C192.041 101.22 192.5 100.879 192.918 100.545C193.335 100.198 193.69 99.9054 193.982 99.669C194.274 99.4325 194.483 99.3143 194.608 99.3143C194.719 99.3143 194.816 99.3491 194.9 99.4186C194.983 99.4882 195.025 99.5994 195.025 99.7524C195.025 99.8915 194.886 100.142 194.608 100.504C194.33 100.865 193.961 101.276 193.502 101.735C193.043 102.194 192.528 102.639 191.958 103.07C191.388 103.501 190.804 103.856 190.205 104.134C189.607 104.412 189.037 104.551 188.495 104.551C188.077 104.551 187.695 104.426 187.347 104.176C187.013 103.911 186.742 103.466 186.533 102.84C186.339 102.214 186.241 101.352 186.241 100.253V99.7316C185.56 100.858 184.843 101.888 184.092 102.819C183.355 103.751 182.618 104.496 181.881 105.052C181.157 105.608 180.469 105.886 179.815 105.886ZM187.284 95.7883C187.215 95.8161 187.118 95.8578 186.992 95.9135C186.353 96.2056 185.685 96.5672 184.989 96.9984C184.308 97.4296 183.64 97.9095 182.986 98.438C182.347 98.9666 181.769 99.516 181.255 100.086C180.74 100.657 180.33 101.234 180.024 101.818C179.718 102.402 179.565 102.972 179.565 103.529C179.565 103.71 179.6 103.849 179.669 103.946C179.753 104.043 179.892 104.092 180.086 104.092C180.365 104.092 180.726 103.918 181.171 103.571C181.616 103.209 182.103 102.736 182.632 102.152C183.174 101.568 183.717 100.921 184.259 100.211C184.802 99.5021 185.316 98.7857 185.803 98.0625C186.304 97.3392 186.735 96.6715 187.097 96.0595C187.152 95.9621 187.215 95.8717 187.284 95.7883Z" fill="#FF9500"/>
<path d="M178.198 91.8693H194.281M194.281 91.8693L193.011 91M194.281 91.8693L193.011 92.7387" stroke="#FF9500"/>
<path d="M416.815 107.886C416.287 107.886 415.848 107.643 415.501 107.156C415.167 106.655 415 106.009 415 105.216C415 104.479 415.181 103.748 415.542 103.025C415.918 102.302 416.412 101.606 417.024 100.939C417.636 100.271 418.303 99.6591 419.027 99.1027C419.75 98.5324 420.473 98.0386 421.197 97.6214C421.934 97.2041 422.608 96.8772 423.22 96.6408C423.832 96.4043 424.319 96.2861 424.681 96.2861C424.876 96.2861 425.036 96.3278 425.161 96.4113C425.286 96.4808 425.349 96.6129 425.349 96.8077C425.349 96.9329 425.3 97.0511 425.202 97.1624C425.216 97.1624 425.23 97.1624 425.244 97.1624C425.55 97.1624 425.703 97.3432 425.703 97.7048C425.703 97.83 425.655 98.0873 425.557 98.4768C425.46 98.8523 425.349 99.3253 425.223 99.8955C425.098 100.466 424.987 101.099 424.89 101.794C424.792 102.476 424.743 103.171 424.743 103.881C424.743 104.479 424.973 104.778 425.432 104.778C425.947 104.778 426.468 104.659 426.997 104.423C427.525 104.187 428.04 103.901 428.541 103.568C429.041 103.22 429.5 102.879 429.918 102.545C430.335 102.198 430.69 101.905 430.982 101.669C431.274 101.433 431.483 101.314 431.608 101.314C431.719 101.314 431.816 101.349 431.9 101.419C431.983 101.488 432.025 101.599 432.025 101.752C432.025 101.892 431.886 102.142 431.608 102.504C431.33 102.865 430.961 103.276 430.502 103.735C430.043 104.194 429.528 104.639 428.958 105.07C428.388 105.501 427.804 105.856 427.205 106.134C426.607 106.412 426.037 106.551 425.495 106.551C425.077 106.551 424.695 106.426 424.347 106.176C424.013 105.911 423.742 105.466 423.533 104.84C423.339 104.214 423.241 103.352 423.241 102.253V101.732C422.56 102.858 421.843 103.888 421.092 104.819C420.355 105.751 419.618 106.496 418.881 107.052C418.157 107.608 417.469 107.886 416.815 107.886ZM424.284 97.7883C424.215 97.8161 424.118 97.8578 423.992 97.9135C423.353 98.2056 422.685 98.5672 421.989 98.9984C421.308 99.4296 420.64 99.9095 419.986 100.438C419.347 100.967 418.769 101.516 418.255 102.086C417.74 102.657 417.33 103.234 417.024 103.818C416.718 104.402 416.565 104.972 416.565 105.529C416.565 105.71 416.6 105.849 416.669 105.946C416.753 106.043 416.892 106.092 417.086 106.092C417.365 106.092 417.726 105.918 418.171 105.571C418.616 105.209 419.103 104.736 419.632 104.152C420.174 103.568 420.717 102.921 421.259 102.211C421.802 101.502 422.316 100.786 422.803 100.062C423.304 99.3392 423.735 98.6715 424.097 98.0595C424.152 97.9621 424.215 97.8717 424.284 97.7883Z" fill="#FF9500"/>
<path d="M415.198 93.8693H431.281M431.281 93.8693L430.011 93M431.281 93.8693L430.011 94.7387" stroke="#FF9500"/>
<path d="M106.896 46.024C106.208 46.024 105.72 45.888 105.432 45.616C105.144 45.344 105 44.944 105 44.416C105 41.76 105.48 38.984 106.44 36.088C107.4 33.176 108.744 30.256 110.472 27.328C110.696 26.96 110.872 26.728 111 26.632C111.144 26.536 111.312 26.488 111.504 26.488C111.728 26.488 111.928 26.568 112.104 26.728C112.28 26.888 112.368 27.104 112.368 27.376C112.368 27.52 112.224 27.912 111.936 28.552C111.648 29.176 111.28 29.984 110.832 30.976C110.384 31.968 109.904 33.08 109.392 34.312C108.896 35.528 108.424 36.8 107.976 38.128C107.528 39.456 107.168 40.776 106.896 42.088C107.264 41.544 107.704 40.96 108.216 40.336C108.744 39.712 109.304 39.088 109.896 38.464C110.488 37.84 111.088 37.272 111.696 36.76C112.32 36.248 112.92 35.84 113.496 35.536C114.072 35.232 114.6 35.08 115.08 35.08C115.704 35.08 116.248 35.344 116.712 35.872C117.192 36.384 117.432 37.16 117.432 38.2C117.432 39.08 117.192 39.984 116.712 40.912C116.232 41.824 115.528 42.672 114.6 43.456C113.688 44.224 112.584 44.848 111.288 45.328C109.992 45.792 108.528 46.024 106.896 46.024ZM106.992 44.2C108.32 44.2 109.528 43.976 110.616 43.528C111.704 43.08 112.632 42.512 113.4 41.824C114.184 41.12 114.784 40.392 115.2 39.64C115.632 38.872 115.848 38.176 115.848 37.552C115.848 37.104 115.696 36.88 115.392 36.88C115.024 36.88 114.552 37.056 113.976 37.408C113.4 37.76 112.776 38.224 112.104 38.8C111.448 39.376 110.792 40 110.136 40.672C109.48 41.328 108.872 41.968 108.312 42.592C107.768 43.216 107.328 43.752 106.992 44.2Z" fill="#FF9500"/>
<path d="M105.384 23H117.384M117.384 23L116.437 22M117.384 23L116.437 24" stroke="#FF9500"/>
<path d="M335.896 46.024C335.208 46.024 334.72 45.888 334.432 45.616C334.144 45.344 334 44.944 334 44.416C334 41.76 334.48 38.984 335.44 36.088C336.4 33.176 337.744 30.256 339.472 27.328C339.696 26.96 339.872 26.728 340 26.632C340.144 26.536 340.312 26.488 340.504 26.488C340.728 26.488 340.928 26.568 341.104 26.728C341.28 26.888 341.368 27.104 341.368 27.376C341.368 27.52 341.224 27.912 340.936 28.552C340.648 29.176 340.28 29.984 339.832 30.976C339.384 31.968 338.904 33.08 338.392 34.312C337.896 35.528 337.424 36.8 336.976 38.128C336.528 39.456 336.168 40.776 335.896 42.088C336.264 41.544 336.704 40.96 337.216 40.336C337.744 39.712 338.304 39.088 338.896 38.464C339.488 37.84 340.088 37.272 340.696 36.76C341.32 36.248 341.92 35.84 342.496 35.536C343.072 35.232 343.6 35.08 344.08 35.08C344.704 35.08 345.248 35.344 345.712 35.872C346.192 36.384 346.432 37.16 346.432 38.2C346.432 39.08 346.192 39.984 345.712 40.912C345.232 41.824 344.528 42.672 343.6 43.456C342.688 44.224 341.584 44.848 340.288 45.328C338.992 45.792 337.528 46.024 335.896 46.024ZM335.992 44.2C337.32 44.2 338.528 43.976 339.616 43.528C340.704 43.08 341.632 42.512 342.4 41.824C343.184 41.12 343.784 40.392 344.2 39.64C344.632 38.872 344.848 38.176 344.848 37.552C344.848 37.104 344.696 36.88 344.392 36.88C344.024 36.88 343.552 37.056 342.976 37.408C342.4 37.76 341.776 38.224 341.104 38.8C340.448 39.376 339.792 40 339.136 40.672C338.48 41.328 337.872 41.968 337.312 42.592C336.768 43.216 336.328 43.752 335.992 44.2Z" fill="#FF9500"/>
<path d="M334.384 23H346.384M346.384 23L345.437 22M346.384 23L345.437 24" stroke="#FF9500"/>
<path d="M124.928 126.656C124.928 127.168 124.768 127.672 124.448 128.168C124.128 128.648 123.704 129.112 123.176 129.56C122.648 129.992 122.064 130.4 121.424 130.784C120.784 131.168 120.144 131.504 119.504 131.792C118.864 132.08 118.28 132.312 117.752 132.488C117.624 133.112 117.56 133.664 117.56 134.144C117.56 134.448 117.632 134.664 117.776 134.792C117.92 134.92 118.144 134.984 118.448 134.984C119.12 134.984 119.832 134.864 120.584 134.624C121.336 134.384 122.104 134.072 122.888 133.688C123.672 133.304 124.424 132.896 125.144 132.464C125.864 132.032 126.52 131.624 127.112 131.24C127.72 130.856 128.224 130.544 128.624 130.304C129.024 130.064 129.288 129.944 129.416 129.944C129.608 129.944 129.752 130.008 129.848 130.136C129.96 130.248 130.016 130.384 130.016 130.544C130.016 130.672 129.816 130.92 129.416 131.288C129.032 131.656 128.512 132.088 127.856 132.584C127.2 133.064 126.464 133.56 125.648 134.072C124.832 134.584 123.984 135.064 123.104 135.512C122.24 135.96 121.4 136.32 120.584 136.592C119.784 136.864 119.064 137 118.424 137C117.592 137 116.944 136.688 116.48 136.064C116.016 135.44 115.784 134.472 115.784 133.16C115.784 132.28 115.896 131.392 116.12 130.496C116.36 129.6 116.68 128.744 117.08 127.928C117.496 127.096 117.952 126.36 118.448 125.72C118.96 125.064 119.496 124.552 120.056 124.184C120.616 123.8 121.16 123.608 121.688 123.608C122.696 123.608 123.488 123.888 124.064 124.448C124.64 125.008 124.928 125.744 124.928 126.656ZM118.256 130.64C118.752 130.336 119.264 130.016 119.792 129.68C120.32 129.344 120.808 129 121.256 128.648C121.704 128.296 122.064 127.928 122.336 127.544C122.624 127.144 122.768 126.736 122.768 126.32C122.768 125.728 122.448 125.432 121.808 125.432C121.408 125.432 120.984 125.688 120.536 126.2C120.104 126.696 119.688 127.344 119.288 128.144C118.888 128.944 118.544 129.776 118.256 130.64Z" fill="black"/>
<path d="M131.224 137.512C131.101 137.512 131.011 137.469 130.952 137.384C130.701 137.427 130.459 137.461 130.224 137.488C129.989 137.515 129.781 137.528 129.6 137.528C129.483 137.528 129.4 137.504 129.352 137.456C129.304 137.408 129.28 137.333 129.28 137.232C129.28 137.12 129.411 137.003 129.672 136.88C129.933 136.752 130.355 136.653 130.936 136.584C130.973 136.333 131.032 136.021 131.112 135.648C131.192 135.269 131.28 134.867 131.376 134.44C131.477 134.008 131.576 133.589 131.672 133.184C131.485 133.387 131.291 133.579 131.088 133.76C130.885 133.936 130.693 134.08 130.512 134.192C130.331 134.299 130.173 134.352 130.04 134.352C129.912 134.352 129.848 134.272 129.848 134.112C129.848 134.048 129.907 133.957 130.024 133.84C130.147 133.723 130.301 133.576 130.488 133.4C130.68 133.224 130.885 133.019 131.104 132.784C131.323 132.549 131.536 132.285 131.744 131.992C131.952 131.699 132.128 131.373 132.272 131.016C132.32 130.904 132.371 130.835 132.424 130.808C132.477 130.781 132.523 130.768 132.56 130.768C132.64 130.768 132.712 130.805 132.776 130.88C132.84 130.949 132.872 131.093 132.872 131.312C132.872 131.349 132.845 131.488 132.792 131.728C132.739 131.963 132.667 132.267 132.576 132.64C132.491 133.013 132.392 133.424 132.28 133.872C132.173 134.32 132.067 134.773 131.96 135.232C131.853 135.691 131.755 136.123 131.664 136.528C131.925 136.512 132.2 136.504 132.488 136.504C132.701 136.504 132.851 136.515 132.936 136.536C133.027 136.552 133.08 136.576 133.096 136.608C133.117 136.635 133.128 136.667 133.128 136.704C133.128 136.757 133.051 136.819 132.896 136.888C132.741 136.952 132.539 137.019 132.288 137.088C132.037 137.157 131.765 137.224 131.472 137.288C131.408 137.437 131.325 137.512 131.224 137.512Z" fill="black"/>
<path d="M116 120.869H132.083M132.083 120.869L130.813 120M132.083 120.869L130.813 121.739" stroke="#1E1E1E"/>
<path d="M362.928 144.656C362.928 145.168 362.768 145.672 362.448 146.168C362.128 146.648 361.704 147.112 361.176 147.56C360.648 147.992 360.064 148.4 359.424 148.784C358.784 149.168 358.144 149.504 357.504 149.792C356.864 150.08 356.28 150.312 355.752 150.488C355.624 151.112 355.56 151.664 355.56 152.144C355.56 152.448 355.632 152.664 355.776 152.792C355.92 152.92 356.144 152.984 356.448 152.984C357.12 152.984 357.832 152.864 358.584 152.624C359.336 152.384 360.104 152.072 360.888 151.688C361.672 151.304 362.424 150.896 363.144 150.464C363.864 150.032 364.52 149.624 365.112 149.24C365.72 148.856 366.224 148.544 366.624 148.304C367.024 148.064 367.288 147.944 367.416 147.944C367.608 147.944 367.752 148.008 367.848 148.136C367.96 148.248 368.016 148.384 368.016 148.544C368.016 148.672 367.816 148.92 367.416 149.288C367.032 149.656 366.512 150.088 365.856 150.584C365.2 151.064 364.464 151.56 363.648 152.072C362.832 152.584 361.984 153.064 361.104 153.512C360.24 153.96 359.4 154.32 358.584 154.592C357.784 154.864 357.064 155 356.424 155C355.592 155 354.944 154.688 354.48 154.064C354.016 153.44 353.784 152.472 353.784 151.16C353.784 150.28 353.896 149.392 354.12 148.496C354.36 147.6 354.68 146.744 355.08 145.928C355.496 145.096 355.952 144.36 356.448 143.72C356.96 143.064 357.496 142.552 358.056 142.184C358.616 141.8 359.16 141.608 359.688 141.608C360.696 141.608 361.488 141.888 362.064 142.448C362.64 143.008 362.928 143.744 362.928 144.656ZM356.256 148.64C356.752 148.336 357.264 148.016 357.792 147.68C358.32 147.344 358.808 147 359.256 146.648C359.704 146.296 360.064 145.928 360.336 145.544C360.624 145.144 360.768 144.736 360.768 144.32C360.768 143.728 360.448 143.432 359.808 143.432C359.408 143.432 358.984 143.688 358.536 144.2C358.104 144.696 357.688 145.344 357.288 146.144C356.888 146.944 356.544 147.776 356.256 148.64Z" fill="black"/>
<path d="M369.224 155.512C369.101 155.512 369.011 155.469 368.952 155.384C368.701 155.427 368.459 155.461 368.224 155.488C367.989 155.515 367.781 155.528 367.6 155.528C367.483 155.528 367.4 155.504 367.352 155.456C367.304 155.408 367.28 155.333 367.28 155.232C367.28 155.12 367.411 155.003 367.672 154.88C367.933 154.752 368.355 154.653 368.936 154.584C368.973 154.333 369.032 154.021 369.112 153.648C369.192 153.269 369.28 152.867 369.376 152.44C369.477 152.008 369.576 151.589 369.672 151.184C369.485 151.387 369.291 151.579 369.088 151.76C368.885 151.936 368.693 152.08 368.512 152.192C368.331 152.299 368.173 152.352 368.04 152.352C367.912 152.352 367.848 152.272 367.848 152.112C367.848 152.048 367.907 151.957 368.024 151.84C368.147 151.723 368.301 151.576 368.488 151.4C368.68 151.224 368.885 151.019 369.104 150.784C369.323 150.549 369.536 150.285 369.744 149.992C369.952 149.699 370.128 149.373 370.272 149.016C370.32 148.904 370.371 148.835 370.424 148.808C370.477 148.781 370.523 148.768 370.56 148.768C370.64 148.768 370.712 148.805 370.776 148.88C370.84 148.949 370.872 149.093 370.872 149.312C370.872 149.349 370.845 149.488 370.792 149.728C370.739 149.963 370.667 150.267 370.576 150.64C370.491 151.013 370.392 151.424 370.28 151.872C370.173 152.32 370.067 152.773 369.96 153.232C369.853 153.691 369.755 154.123 369.664 154.528C369.925 154.512 370.2 154.504 370.488 154.504C370.701 154.504 370.851 154.515 370.936 154.536C371.027 154.552 371.08 154.576 371.096 154.608C371.117 154.635 371.128 154.667 371.128 154.704C371.128 154.757 371.051 154.819 370.896 154.888C370.741 154.952 370.539 155.019 370.288 155.088C370.037 155.157 369.765 155.224 369.472 155.288C369.408 155.437 369.325 155.512 369.224 155.512Z" fill="black"/>
<path d="M354 138.869H370.083M370.083 138.869L368.813 138M370.083 138.869L368.813 139.739" stroke="#1E1E1E"/>
<path d="M29.928 105.656C29.928 106.168 29.768 106.672 29.448 107.168C29.128 107.648 28.704 108.112 28.176 108.56C27.648 108.992 27.064 109.4 26.424 109.784C25.784 110.168 25.144 110.504 24.504 110.792C23.864 111.08 23.28 111.312 22.752 111.488C22.624 112.112 22.56 112.664 22.56 113.144C22.56 113.448 22.632 113.664 22.776 113.792C22.92 113.92 23.144 113.984 23.448 113.984C24.12 113.984 24.832 113.864 25.584 113.624C26.336 113.384 27.104 113.072 27.888 112.688C28.672 112.304 29.424 111.896 30.144 111.464C30.864 111.032 31.52 110.624 32.112 110.24C32.72 109.856 33.224 109.544 33.624 109.304C34.024 109.064 34.288 108.944 34.416 108.944C34.608 108.944 34.752 109.008 34.848 109.136C34.96 109.248 35.016 109.384 35.016 109.544C35.016 109.672 34.816 109.92 34.416 110.288C34.032 110.656 33.512 111.088 32.856 111.584C32.2 112.064 31.464 112.56 30.648 113.072C29.832 113.584 28.984 114.064 28.104 114.512C27.24 114.96 26.4 115.32 25.584 115.592C24.784 115.864 24.064 116 23.424 116C22.592 116 21.944 115.688 21.48 115.064C21.016 114.44 20.784 113.472 20.784 112.16C20.784 111.28 20.896 110.392 21.12 109.496C21.36 108.6 21.68 107.744 22.08 106.928C22.496 106.096 22.952 105.36 23.448 104.72C23.96 104.064 24.496 103.552 25.056 103.184C25.616 102.8 26.16 102.608 26.688 102.608C27.696 102.608 28.488 102.888 29.064 103.448C29.64 104.008 29.928 104.744 29.928 105.656ZM23.256 109.64C23.752 109.336 24.264 109.016 24.792 108.68C25.32 108.344 25.808 108 26.256 107.648C26.704 107.296 27.064 106.928 27.336 106.544C27.624 106.144 27.768 105.736 27.768 105.32C27.768 104.728 27.448 104.432 26.808 104.432C26.408 104.432 25.984 104.688 25.536 105.2C25.104 105.696 24.688 106.344 24.288 107.144C23.888 107.944 23.544 108.776 23.256 109.64Z" fill="black"/>
<path d="M34.632 118.312C34.4667 118.312 34.3467 118.269 34.272 118.184C34.1973 118.104 34.16 118.016 34.16 117.92C34.16 117.813 34.1787 117.728 34.216 117.664C34.2587 117.6 34.3387 117.552 34.456 117.52C34.5787 117.488 34.7573 117.469 34.992 117.464C35.2853 117.315 35.5813 117.131 35.88 116.912C36.184 116.688 36.4747 116.44 36.752 116.168C37.0293 115.896 37.2773 115.611 37.496 115.312C37.7147 115.013 37.888 114.712 38.016 114.408C38.144 114.104 38.208 113.808 38.208 113.52C38.208 113.248 38.1227 113.037 37.952 112.888C37.7867 112.733 37.5413 112.656 37.216 112.656C36.9067 112.656 36.632 112.696 36.392 112.776C36.1573 112.851 35.9653 112.925 35.816 113C35.672 113.075 35.5707 113.112 35.512 113.112C35.368 113.112 35.296 113.016 35.296 112.824C35.296 112.755 35.3467 112.664 35.448 112.552C35.5547 112.44 35.6987 112.328 35.88 112.216C36.0613 112.099 36.272 112.003 36.512 111.928C36.752 111.848 37.008 111.808 37.28 111.808C37.7387 111.808 38.112 111.955 38.4 112.248C38.688 112.536 38.832 112.973 38.832 113.56C38.832 113.981 38.744 114.381 38.568 114.76C38.3973 115.139 38.1707 115.496 37.888 115.832C37.6053 116.163 37.296 116.472 36.96 116.76C36.624 117.043 36.2933 117.296 35.968 117.52C36.3893 117.515 36.736 117.501 37.008 117.48C37.28 117.453 37.5013 117.427 37.672 117.4C37.8427 117.368 37.9867 117.344 38.104 117.328C38.2213 117.307 38.3387 117.296 38.456 117.296C38.5893 117.296 38.6853 117.333 38.744 117.408C38.808 117.477 38.84 117.563 38.84 117.664C38.84 117.749 38.8187 117.827 38.776 117.896C38.7387 117.96 38.6587 118.013 38.536 118.056C38.4133 118.104 38.2267 118.139 37.976 118.16C37.7253 118.187 37.3893 118.2 36.968 118.2C36.68 118.2 36.3813 118.197 36.072 118.192C35.768 118.187 35.472 118.179 35.184 118.168C34.9173 118.264 34.7333 118.312 34.632 118.312Z" fill="black"/>
<path d="M21 98.8693H37.0827M37.0827 98.8693L35.813 98M37.0827 98.8693L35.813 99.7387" stroke="#1E1E1E"/>
<path d="M271.928 93.656C271.928 94.168 271.768 94.672 271.448 95.168C271.128 95.648 270.704 96.112 270.176 96.56C269.648 96.992 269.064 97.4 268.424 97.784C267.784 98.168 267.144 98.504 266.504 98.792C265.864 99.08 265.28 99.312 264.752 99.488C264.624 100.112 264.56 100.664 264.56 101.144C264.56 101.448 264.632 101.664 264.776 101.792C264.92 101.92 265.144 101.984 265.448 101.984C266.12 101.984 266.832 101.864 267.584 101.624C268.336 101.384 269.104 101.072 269.888 100.688C270.672 100.304 271.424 99.896 272.144 99.464C272.864 99.032 273.52 98.624 274.112 98.24C274.72 97.856 275.224 97.544 275.624 97.304C276.024 97.064 276.288 96.944 276.416 96.944C276.608 96.944 276.752 97.008 276.848 97.136C276.96 97.248 277.016 97.384 277.016 97.544C277.016 97.672 276.816 97.92 276.416 98.288C276.032 98.656 275.512 99.088 274.856 99.584C274.2 100.064 273.464 100.56 272.648 101.072C271.832 101.584 270.984 102.064 270.104 102.512C269.24 102.96 268.4 103.32 267.584 103.592C266.784 103.864 266.064 104 265.424 104C264.592 104 263.944 103.688 263.48 103.064C263.016 102.44 262.784 101.472 262.784 100.16C262.784 99.28 262.896 98.392 263.12 97.496C263.36 96.6 263.68 95.744 264.08 94.928C264.496 94.096 264.952 93.36 265.448 92.72C265.96 92.064 266.496 91.552 267.056 91.184C267.616 90.8 268.16 90.608 268.688 90.608C269.696 90.608 270.488 90.888 271.064 91.448C271.64 92.008 271.928 92.744 271.928 93.656ZM265.256 97.64C265.752 97.336 266.264 97.016 266.792 96.68C267.32 96.344 267.808 96 268.256 95.648C268.704 95.296 269.064 94.928 269.336 94.544C269.624 94.144 269.768 93.736 269.768 93.32C269.768 92.728 269.448 92.432 268.808 92.432C268.408 92.432 267.984 92.688 267.536 93.2C267.104 93.696 266.688 94.344 266.288 95.144C265.888 95.944 265.544 96.776 265.256 97.64Z" fill="black"/>
<path d="M276.632 106.312C276.467 106.312 276.347 106.269 276.272 106.184C276.197 106.104 276.16 106.016 276.16 105.92C276.16 105.813 276.179 105.728 276.216 105.664C276.259 105.6 276.339 105.552 276.456 105.52C276.579 105.488 276.757 105.469 276.992 105.464C277.285 105.315 277.581 105.131 277.88 104.912C278.184 104.688 278.475 104.44 278.752 104.168C279.029 103.896 279.277 103.611 279.496 103.312C279.715 103.013 279.888 102.712 280.016 102.408C280.144 102.104 280.208 101.808 280.208 101.52C280.208 101.248 280.123 101.037 279.952 100.888C279.787 100.733 279.541 100.656 279.216 100.656C278.907 100.656 278.632 100.696 278.392 100.776C278.157 100.851 277.965 100.925 277.816 101C277.672 101.075 277.571 101.112 277.512 101.112C277.368 101.112 277.296 101.016 277.296 100.824C277.296 100.755 277.347 100.664 277.448 100.552C277.555 100.44 277.699 100.328 277.88 100.216C278.061 100.099 278.272 100.003 278.512 99.928C278.752 99.848 279.008 99.808 279.28 99.808C279.739 99.808 280.112 99.9547 280.4 100.248C280.688 100.536 280.832 100.973 280.832 101.56C280.832 101.981 280.744 102.381 280.568 102.76C280.397 103.139 280.171 103.496 279.888 103.832C279.605 104.163 279.296 104.472 278.96 104.76C278.624 105.043 278.293 105.296 277.968 105.52C278.389 105.515 278.736 105.501 279.008 105.48C279.28 105.453 279.501 105.427 279.672 105.4C279.843 105.368 279.987 105.344 280.104 105.328C280.221 105.307 280.339 105.296 280.456 105.296C280.589 105.296 280.685 105.333 280.744 105.408C280.808 105.477 280.84 105.563 280.84 105.664C280.84 105.749 280.819 105.827 280.776 105.896C280.739 105.96 280.659 106.013 280.536 106.056C280.413 106.104 280.227 106.139 279.976 106.16C279.725 106.187 279.389 106.2 278.968 106.2C278.68 106.2 278.381 106.197 278.072 106.192C277.768 106.187 277.472 106.179 277.184 106.168C276.917 106.264 276.733 106.312 276.632 106.312Z" fill="black"/>
<path d="M263 86.8693H279.083M279.083 86.8693L277.813 86M279.083 86.8693L277.813 87.7387" stroke="#1E1E1E"/>
<path d="M328.814 127C327.595 127 326.762 128.567 326.274 129.462C325.771 130.385 325.076 131.263 324.42 132.089C323.903 132.74 323.517 133.529 322.849 134.058C322.353 134.452 321.046 135.466 320.515 134.752C319.9 133.923 320.007 133.089 320.007 132.089C320.007 130.961 320.26 129.405 321.532 128.97C322.938 128.489 323.613 129.149 324.543 130.082C325.353 130.896 326.339 132.151 326.65 133.238C327.137 134.935 328.461 134.999 330 134.551" stroke="#30B0C7" stroke-linecap="round"/>
<path d="M331 107C331 106.34 331.263 105.675 331.263 104.978C331.263 104.214 331.268 103.234 331.423 102.486C331.738 100.97 331.386 99.3584 331.686 97.8651C331.88 96.9 331.834 95.8062 332.736 95.2356C333.625 94.6734 334.881 95.2038 335.465 95.9195C336.3 96.9423 334.637 98.6277 334.02 99.2026C333.674 99.5255 333.272 99.2219 333.656 98.8226C334.075 98.3856 334.882 98.4136 335.304 98.8226C336.199 99.688 336.115 100.781 335.698 101.908C335.516 102.402 334.816 102.522 334.385 102.592C333.55 102.727 333.087 102.06 332.576 101.528" stroke="#FF7E7E" stroke-linecap="round"/>
<path d="M89 101.5C89.0772 101.217 89.9619 101.92 90.1145 102.009C90.8578 102.441 91.4085 103.532 91.8659 104.25C92.7516 105.641 93.6003 107.336 93.9003 109C94.1173 110.204 95.325 115 93.0689 115C92.1194 115 91.4331 114.161 91.0698 113.333C90.5 112.035 90.5516 110.72 91.0698 109.5C91.6303 108.18 92.6024 106.924 93.6527 106C94.9348 104.871 96.9127 102.691 95.5279 101" stroke="#AF52DE" stroke-linecap="round"/>
<path d="M322 109.357C322.055 109.155 322.687 109.657 322.796 109.721C323.327 110.03 323.72 110.808 324.047 111.321C324.68 112.315 325.286 113.525 325.5 114.714C325.655 115.574 326.518 119 324.906 119C324.228 119 323.738 118.401 323.478 117.81C323.071 116.882 323.108 115.943 323.478 115.071C323.879 114.128 324.573 113.232 325.323 112.571C326.239 111.765 327.652 110.208 326.663 109" stroke="#AF52DE" stroke-linecap="round"/>
<path d="M79.5 107C87.7649 109.883 90.5012 113.179 91.5 122.5" stroke="#AF52DE"/>
<path d="M310 108C318.265 110.883 321.001 114.179 322 123.5" stroke="#AF52DE"/>
<path d="M342 137C339.31 118.543 336.381 109.107 316 102" stroke="#FF7E7E" stroke-linecap="round"/>
<path d="M312 129C316.5 130 318.089 134.449 317.5 138.5" stroke="#30B0C7"/>
</svg>
